<svg width="21" height="20" viewBox="0 0 21 20" fill="none" xmlns="http://www.w3.org/2000/svg">
<g clip-path="url(#clip0_989_3273)">
<g clip-path="url(#clip1_989_3273)">
<path d="M17.5107 6.77333L17.3057 7.245C17.2736 7.3218 17.2196 7.38741 17.1503 7.43356C17.0811 7.4797 16.9997 7.50433 16.9165 7.50433C16.8333 7.50433 16.7519 7.4797 16.6827 7.43356C16.6134 7.38741 16.5594 7.3218 16.5273 7.245L16.3223 6.77333C15.9619 5.93893 15.3018 5.26993 14.4723 4.89833L13.8398 4.61583C13.7631 4.58053 13.6981 4.52397 13.6525 4.45285C13.607 4.38174 13.5828 4.29904 13.5828 4.21458C13.5828 4.13012 13.607 4.04742 13.6525 3.97631C13.6981 3.90519 13.7631 3.84863 13.8398 3.81333L14.4373 3.5475C15.2877 3.16531 15.9591 2.47156 16.3132 1.60916L16.524 1.1C16.555 1.02112 16.609 0.953411 16.679 0.905683C16.749 0.857956 16.8318 0.832428 16.9165 0.832428C17.0012 0.832428 17.084 0.857956 17.154 0.905683C17.224 0.953411 17.278 1.02112 17.309 1.1L17.5198 1.60833C17.8736 2.47089 18.5447 3.16494 19.3948 3.5475L19.9932 3.81416C20.0697 3.84956 20.1345 3.90611 20.1798 3.97714C20.2252 4.04817 20.2494 4.1307 20.2494 4.215C20.2494 4.29929 20.2252 4.38182 20.1798 4.45285C20.1345 4.52388 20.0697 4.58043 19.9932 4.61583L19.3598 4.8975C18.5305 5.26947 17.8707 5.93877 17.5107 6.77333ZM16.9165 9.16666C17.4748 9.16666 18.0107 9.075 18.5123 8.90666C18.5596 9.265 18.5832 9.62944 18.5832 10C18.5832 14.6025 14.8523 18.3333 10.2498 18.3333C8.88099 18.3353 7.53291 17.9986 6.32568 17.3533L1.91651 18.3333L2.89651 13.9242C2.25125 12.7169 1.91459 11.3689 1.91651 10C1.91651 5.3975 5.64735 1.66666 10.2498 1.66666C11.0048 1.66666 11.7357 1.76666 12.4307 1.955C12.0546 2.71742 11.8792 3.56312 11.921 4.41221C11.9627 5.26129 12.2203 6.08571 12.6693 6.80757C13.1183 7.52942 13.7439 8.12487 14.4871 8.53766C15.2303 8.95045 16.0664 9.16693 16.9165 9.16666ZM6.08318 10C6.08318 11.1051 6.52217 12.1649 7.30357 12.9463C8.08497 13.7277 9.14478 14.1667 10.2498 14.1667C11.3549 14.1667 12.4147 13.7277 13.1961 12.9463C13.9775 12.1649 14.4165 11.1051 14.4165 10H12.7498C12.7498 10.663 12.4865 11.2989 12.0176 11.7678C11.5488 12.2366 10.9129 12.5 10.2498 12.5C9.5868 12.5 8.95092 12.2366 8.48208 11.7678C8.01324 11.2989 7.74985 10.663 7.74985 10H6.08318Z" fill="white"/>
</g>
</g>
<defs>
<clipPath id="clip0_989_3273">
<rect width="20" height="20" fill="white" transform="translate(0.25)"/>
</clipPath>
<clipPath id="clip1_989_3273">
<rect width="20" height="20" fill="white" transform="translate(0.25)"/>
</clipPath>
</defs>
</svg>
