<svg width="20" height="20" viewBox="0 0 20 20" fill="none" xmlns="http://www.w3.org/2000/svg">
<rect width="20" height="20" rx="5" fill="white" fill-opacity="0.8"/>
<path d="M15.2592 7.59194L15.0915 7.9962C15.0653 8.06203 15.021 8.11826 14.9644 8.15782C14.9077 8.19737 14.8411 8.21848 14.773 8.21848C14.705 8.21848 14.6384 8.19737 14.5817 8.15782C14.5251 8.11826 14.4808 8.06203 14.4546 7.9962L14.2869 7.59194C13.992 6.87678 13.4519 6.30337 12.7732 5.98488L12.2557 5.74275C12.1929 5.71249 12.1397 5.66401 12.1025 5.60306C12.0652 5.5421 12.0454 5.47123 12.0454 5.39884C12.0454 5.32644 12.0652 5.25557 12.1025 5.19461C12.1397 5.13366 12.1929 5.08518 12.2557 5.05493L12.7446 4.82708C13.4403 4.49951 13.9897 3.9049 14.2794 3.16574L14.4519 2.72933C14.4772 2.66173 14.5214 2.60369 14.5787 2.56279C14.636 2.52188 14.7037 2.5 14.773 2.5C14.8424 2.5 14.9101 2.52188 14.9674 2.56279C15.0247 2.60369 15.0689 2.66173 15.0942 2.72933L15.2667 3.16502C15.5561 3.90433 16.1052 4.49919 16.8008 4.82708L17.2904 5.05564C17.353 5.08598 17.406 5.13445 17.4431 5.19533C17.4803 5.2562 17.5 5.32694 17.5 5.39919C17.5 5.47144 17.4803 5.54218 17.4431 5.60306C17.406 5.66393 17.353 5.71241 17.2904 5.74275L16.7722 5.98416C16.0936 6.30298 15.5538 6.87663 15.2592 7.59194ZM14.773 9.64326C15.2299 9.64326 15.6683 9.56469 16.0788 9.42041C16.1174 9.72754 16.1367 10.0399 16.1367 10.3575C16.1367 14.3023 13.0841 17.5 9.31836 17.5C8.19836 17.5016 7.09536 17.2131 6.1076 16.66L2.50001 17.5L3.30185 13.7209C2.77389 12.6862 2.49843 11.5308 2.50001 10.3575C2.50001 6.41271 5.55258 3.21502 9.31836 3.21502C9.93611 3.21502 10.5341 3.30073 11.1027 3.46215C10.7951 4.11562 10.6515 4.84048 10.6857 5.56822C10.7198 6.29597 10.9306 7.00258 11.2979 7.62128C11.6653 8.23998 12.1772 8.75034 12.7853 9.10414C13.3934 9.45794 14.0775 9.64349 14.773 9.64326ZM5.90919 10.3575C5.90919 11.3047 6.26837 12.213 6.90771 12.8828C7.54706 13.5525 8.41419 13.9288 9.31836 13.9288C10.2225 13.9288 11.0897 13.5525 11.729 12.8828C12.3684 12.213 12.7275 11.3047 12.7275 10.3575H11.3639C11.3639 10.9258 11.1484 11.4708 10.7648 11.8727C10.3811 12.2745 9.86087 12.5003 9.31836 12.5003C8.77586 12.5003 8.25558 12.2745 7.87197 11.8727C7.48836 11.4708 7.27286 10.9258 7.27286 10.3575H5.90919Z" fill="black"/>
</svg>
