<svg width="56" height="56" viewBox="0 0 56 56" fill="none" xmlns="http://www.w3.org/2000/svg">
<g clip-path="url(#clip0_2562_2631)">
<g filter="url(#filter0_f_2562_2631)">
<path d="M56 0H0V56H56V0Z" fill="url(#paint0_radial_2562_2631)"/>
</g>
<g clip-path="url(#clip1_2562_2631)">
<g opacity="0.2">
<g style="mix-blend-mode:screen" opacity="0.5">
<path d="M47.7835 27.8128C47.7835 38.3497 39.2728 46.8941 28.7736 46.8941C18.2745 46.8941 9.76367 38.3497 9.76367 27.8128C9.76367 17.2758 18.2745 8.73145 28.7736 8.73145C39.2728 8.73145 47.7835 17.2742 47.7835 27.8128Z" stroke="#FC3DD3" stroke-width="2.62" stroke-miterlimit="10"/>
</g>
<g style="mix-blend-mode:screen" opacity="0.5">
<path d="M46.8999 27.8129C46.8999 37.8617 38.7848 46.0072 28.7737 46.0072C18.7625 46.0072 10.6475 37.8617 10.6475 27.8129C10.6475 17.7642 18.7625 9.61865 28.7737 9.61865C38.7848 9.61865 46.8999 17.7659 46.8999 27.8129Z" stroke="#FC3DD3" stroke-width="1.35" stroke-miterlimit="10"/>
</g>
<g style="mix-blend-mode:screen" opacity="0.5">
<path d="M45.9447 27.8127C45.9447 37.3319 38.2567 45.0488 28.7732 45.0488C19.2896 45.0488 11.6016 37.3319 11.6016 27.8127C11.6016 18.2936 19.2896 10.5767 28.7732 10.5767C38.2567 10.5767 45.9447 18.2936 45.9447 27.8127Z" fill="#FC3DD3"/>
</g>
</g>
<g style="mix-blend-mode:screen" opacity="0.8">
<path d="M39.2961 10.0568C38.5344 10.0568 37.9194 10.7287 37.9194 11.5579C37.9194 11.7382 37.954 11.9087 38.0068 12.0692L28.7227 17.365C28.6156 17.2508 28.4688 17.178 28.3056 17.178C27.9759 17.178 27.7104 17.4676 27.7104 17.8251C27.7104 17.8449 27.7137 17.8648 27.7154 17.8846L19.8822 21.5454C19.6415 21.1068 19.2079 20.8106 18.705 20.8106C17.9433 20.8106 17.3283 21.4825 17.3283 22.3116C17.3283 23.0083 17.7652 23.5875 18.3555 23.758L17.9037 27.6785C17.7867 27.7033 17.6811 27.7646 17.5987 27.8523L15.7587 26.7981C15.7637 26.7617 15.7686 26.7253 15.7686 26.6872C15.7686 26.3298 15.5048 26.0401 15.1751 26.0401C14.8453 26.0401 14.5799 26.3298 14.5799 26.6872C14.5799 26.9371 14.7101 27.1523 14.9014 27.2598L14.4941 29.8945C14.2056 29.9408 13.9863 30.2073 13.9863 30.5316C13.9863 30.8891 14.2518 31.1787 14.5799 31.1787C14.6013 31.1787 14.6227 31.1737 14.6425 31.1721L19.071 41.9804C18.6786 42.2452 18.4148 42.7136 18.4148 43.2531C18.4148 44.0822 19.0315 44.7541 19.7915 44.7541C20.5516 44.7541 21.1682 44.0822 21.1682 43.2531C21.1682 42.7202 20.911 42.2551 20.5269 41.9887L22.0355 38.4223C22.0585 38.4256 22.0816 38.4306 22.1064 38.4306C22.413 38.4306 22.6603 38.1791 22.6933 37.8547L26.802 36.9511C26.9405 37.3102 27.2669 37.5634 27.6478 37.5634C27.6824 37.5634 27.717 37.5568 27.75 37.5518L28.5546 40.2593C28.4045 40.3768 28.3073 40.5671 28.3073 40.7839C28.3073 41.1414 28.5711 41.431 28.9008 41.431C29.0426 41.431 29.1712 41.3747 29.2734 41.2837L33.2122 44.0838C33.1991 44.1385 33.1892 44.1931 33.1892 44.2526C33.1892 44.6101 33.4546 44.8997 33.7844 44.8997C34.1141 44.8997 34.3779 44.6101 34.3779 44.2526C34.3779 43.8952 34.1125 43.6056 33.7844 43.6056C33.6426 43.6056 33.514 43.6618 33.4117 43.7512L29.4729 40.9511C29.4861 40.8964 29.496 40.8402 29.496 40.7823C29.496 40.4248 29.2305 40.1352 28.9024 40.1352L28.0995 37.4294C28.3782 37.2573 28.5678 36.9362 28.5678 36.5622C28.5678 36.0094 28.1589 35.561 27.6494 35.561C27.1399 35.561 26.7327 36.0094 26.7311 36.5622L22.6224 37.4658C22.5218 37.2688 22.3289 37.1331 22.1064 37.1331C21.7766 37.1331 21.5128 37.4227 21.5128 37.7802C21.5128 37.9689 21.5887 38.1377 21.7057 38.2552L20.1955 41.8232C20.0669 41.7802 19.9333 41.7504 19.7915 41.7504C19.6497 41.7504 19.5277 41.7785 19.4041 41.8182L14.9756 31.0082C15.0959 30.8891 15.1734 30.7203 15.1734 30.5283C15.1734 30.2784 15.0432 30.0633 14.8519 29.9557L15.2592 27.3211C15.3878 27.3012 15.5015 27.2383 15.5889 27.1456L17.4272 28.1998C17.4223 28.2362 17.4173 28.2726 17.4173 28.3107C17.4173 28.6682 17.6828 28.9578 18.0109 28.9578C18.339 28.9578 18.6044 28.6682 18.6044 28.3107C18.6044 28.0509 18.4643 27.8291 18.2615 27.7249L18.7116 23.8076C19.0595 23.8043 19.3744 23.657 19.6168 23.422L25.2917 28.7095C25.262 28.7857 25.2455 28.8717 25.2455 28.9594C25.2455 29.3169 25.511 29.6065 25.8407 29.6065C26.1227 29.6065 26.3568 29.393 26.4178 29.1067L32.6401 28.5573C32.7292 28.7923 32.9402 28.9578 33.1892 28.9578C33.5189 28.9578 33.7844 28.6682 33.7844 28.3107C33.7844 27.9532 33.5189 27.6636 33.1892 27.6636C32.9072 27.6636 32.6748 27.8771 32.6121 28.1634L26.3898 28.7112C26.3007 28.4762 26.0897 28.3107 25.8407 28.3107C25.727 28.3107 25.6215 28.3471 25.5291 28.4083L19.8542 23.1225C19.9943 22.8875 20.0768 22.6095 20.0768 22.3083C20.0768 22.1693 20.0537 22.0352 20.0207 21.9078L27.8522 18.2471C27.961 18.3828 28.1193 18.4705 28.299 18.4705C28.6288 18.4705 28.8926 18.1809 28.8926 17.8234C28.8926 17.7854 28.8876 17.7489 28.8827 17.7142L38.1667 12.4201C38.4157 12.804 38.8245 13.0572 39.2895 13.0572C40.0496 13.0572 40.6662 12.3853 40.6662 11.5562C40.6662 10.7271 40.0496 10.0552 39.2895 10.0552L39.2961 10.0568Z" fill="#FC3DD3"/>
<path d="M39.2961 10.0568C38.5344 10.0568 37.9194 10.7287 37.9194 11.5579C37.9194 11.7382 37.954 11.9087 38.0068 12.0692L28.7227 17.365C28.6156 17.2508 28.4688 17.178 28.3056 17.178C27.9759 17.178 27.7104 17.4676 27.7104 17.8251C27.7104 17.8449 27.7137 17.8648 27.7154 17.8846L19.8822 21.5454C19.6415 21.1068 19.2079 20.8106 18.705 20.8106C17.9433 20.8106 17.3283 21.4825 17.3283 22.3116C17.3283 23.0083 17.7652 23.5875 18.3555 23.758L17.9037 27.6785C17.7867 27.7033 17.6811 27.7646 17.5987 27.8523L15.7587 26.7981C15.7637 26.7617 15.7686 26.7253 15.7686 26.6872C15.7686 26.3298 15.5048 26.0401 15.1751 26.0401C14.8453 26.0401 14.5799 26.3298 14.5799 26.6872C14.5799 26.9371 14.7101 27.1523 14.9014 27.2598L14.4941 29.8945C14.2056 29.9408 13.9863 30.2073 13.9863 30.5316C13.9863 30.8891 14.2518 31.1787 14.5799 31.1787C14.6013 31.1787 14.6227 31.1737 14.6425 31.1721L19.071 41.9804C18.6786 42.2452 18.4148 42.7136 18.4148 43.2531C18.4148 44.0822 19.0315 44.7541 19.7915 44.7541C20.5516 44.7541 21.1682 44.0822 21.1682 43.2531C21.1682 42.7202 20.911 42.2551 20.5269 41.9887L22.0355 38.4223C22.0585 38.4256 22.0816 38.4306 22.1064 38.4306C22.413 38.4306 22.6603 38.1791 22.6933 37.8547L26.802 36.9511C26.9405 37.3102 27.2669 37.5634 27.6478 37.5634C27.6824 37.5634 27.717 37.5568 27.75 37.5518L28.5546 40.2593C28.4045 40.3768 28.3073 40.5671 28.3073 40.7839C28.3073 41.1414 28.5711 41.431 28.9008 41.431C29.0426 41.431 29.1712 41.3747 29.2734 41.2837L33.2122 44.0838C33.1991 44.1385 33.1892 44.1931 33.1892 44.2526C33.1892 44.6101 33.4546 44.8997 33.7844 44.8997C34.1141 44.8997 34.3779 44.6101 34.3779 44.2526C34.3779 43.8952 34.1125 43.6056 33.7844 43.6056C33.6426 43.6056 33.514 43.6618 33.4117 43.7512L29.4729 40.9511C29.4861 40.8964 29.496 40.8402 29.496 40.7823C29.496 40.4248 29.2305 40.1352 28.9024 40.1352L28.0995 37.4294C28.3782 37.2573 28.5678 36.9362 28.5678 36.5622C28.5678 36.0094 28.1589 35.561 27.6494 35.561C27.1399 35.561 26.7327 36.0094 26.7311 36.5622L22.6224 37.4658C22.5218 37.2688 22.3289 37.1331 22.1064 37.1331C21.7766 37.1331 21.5128 37.4227 21.5128 37.7802C21.5128 37.9689 21.5887 38.1377 21.7057 38.2552L20.1955 41.8232C20.0669 41.7802 19.9333 41.7504 19.7915 41.7504C19.6497 41.7504 19.5277 41.7785 19.4041 41.8182L14.9756 31.0082C15.0959 30.8891 15.1734 30.7203 15.1734 30.5283C15.1734 30.2784 15.0432 30.0633 14.8519 29.9557L15.2592 27.3211C15.3878 27.3012 15.5015 27.2383 15.5889 27.1456L17.4272 28.1998C17.4223 28.2362 17.4173 28.2726 17.4173 28.3107C17.4173 28.6682 17.6828 28.9578 18.0109 28.9578C18.339 28.9578 18.6044 28.6682 18.6044 28.3107C18.6044 28.0509 18.4643 27.8291 18.2615 27.7249L18.7116 23.8076C19.0595 23.8043 19.3744 23.657 19.6168 23.422L25.2917 28.7095C25.262 28.7857 25.2455 28.8717 25.2455 28.9594C25.2455 29.3169 25.511 29.6065 25.8407 29.6065C26.1227 29.6065 26.3568 29.393 26.4178 29.1067L32.6401 28.5573C32.7292 28.7923 32.9402 28.9578 33.1892 28.9578C33.5189 28.9578 33.7844 28.6682 33.7844 28.3107C33.7844 27.9532 33.5189 27.6636 33.1892 27.6636C32.9072 27.6636 32.6748 27.8771 32.6121 28.1634L26.3898 28.7112C26.3007 28.4762 26.0897 28.3107 25.8407 28.3107C25.727 28.3107 25.6215 28.3471 25.5291 28.4083L19.8542 23.1225C19.9943 22.8875 20.0768 22.6095 20.0768 22.3083C20.0768 22.1693 20.0537 22.0352 20.0207 21.9078L27.8522 18.2471C27.961 18.3828 28.1193 18.4705 28.299 18.4705C28.6288 18.4705 28.8926 18.1809 28.8926 17.8234C28.8926 17.7854 28.8876 17.7489 28.8827 17.7142L38.1667 12.4201C38.4157 12.804 38.8245 13.0572 39.2895 13.0572C40.0496 13.0572 40.6662 12.3853 40.6662 11.5562C40.6662 10.7271 40.0496 10.0552 39.2895 10.0552L39.2961 10.0568Z" fill="#FC3DD3"/>
<path d="M39.2961 10.0568C38.5344 10.0568 37.9194 10.7287 37.9194 11.5579C37.9194 11.7382 37.954 11.9087 38.0068 12.0692L28.7227 17.365C28.6156 17.2508 28.4688 17.178 28.3056 17.178C27.9759 17.178 27.7104 17.4676 27.7104 17.8251C27.7104 17.8449 27.7137 17.8648 27.7154 17.8846L19.8822 21.5454C19.6415 21.1068 19.2079 20.8106 18.705 20.8106C17.9433 20.8106 17.3283 21.4825 17.3283 22.3116C17.3283 23.0083 17.7652 23.5875 18.3555 23.758L17.9037 27.6785C17.7867 27.7033 17.6811 27.7646 17.5987 27.8523L15.7587 26.7981C15.7637 26.7617 15.7686 26.7253 15.7686 26.6872C15.7686 26.3298 15.5048 26.0401 15.1751 26.0401C14.8453 26.0401 14.5799 26.3298 14.5799 26.6872C14.5799 26.9371 14.7101 27.1523 14.9014 27.2598L14.4941 29.8945C14.2056 29.9408 13.9863 30.2073 13.9863 30.5316C13.9863 30.8891 14.2518 31.1787 14.5799 31.1787C14.6013 31.1787 14.6227 31.1737 14.6425 31.1721L19.071 41.9804C18.6786 42.2452 18.4148 42.7136 18.4148 43.2531C18.4148 44.0822 19.0315 44.7541 19.7915 44.7541C20.5516 44.7541 21.1682 44.0822 21.1682 43.2531C21.1682 42.7202 20.911 42.2551 20.5269 41.9887L22.0355 38.4223C22.0585 38.4256 22.0816 38.4306 22.1064 38.4306C22.413 38.4306 22.6603 38.1791 22.6933 37.8547L26.802 36.9511C26.9405 37.3102 27.2669 37.5634 27.6478 37.5634C27.6824 37.5634 27.717 37.5568 27.75 37.5518L28.5546 40.2593C28.4045 40.3768 28.3073 40.5671 28.3073 40.7839C28.3073 41.1414 28.5711 41.431 28.9008 41.431C29.0426 41.431 29.1712 41.3747 29.2734 41.2837L33.2122 44.0838C33.1991 44.1385 33.1892 44.1931 33.1892 44.2526C33.1892 44.6101 33.4546 44.8997 33.7844 44.8997C34.1141 44.8997 34.3779 44.6101 34.3779 44.2526C34.3779 43.8952 34.1125 43.6056 33.7844 43.6056C33.6426 43.6056 33.514 43.6618 33.4117 43.7512L29.4729 40.9511C29.4861 40.8964 29.496 40.8402 29.496 40.7823C29.496 40.4248 29.2305 40.1352 28.9024 40.1352L28.0995 37.4294C28.3782 37.2573 28.5678 36.9362 28.5678 36.5622C28.5678 36.0094 28.1589 35.561 27.6494 35.561C27.1399 35.561 26.7327 36.0094 26.7311 36.5622L22.6224 37.4658C22.5218 37.2688 22.3289 37.1331 22.1064 37.1331C21.7766 37.1331 21.5128 37.4227 21.5128 37.7802C21.5128 37.9689 21.5887 38.1377 21.7057 38.2552L20.1955 41.8232C20.0669 41.7802 19.9333 41.7504 19.7915 41.7504C19.6497 41.7504 19.5277 41.7785 19.4041 41.8182L14.9756 31.0082C15.0959 30.8891 15.1734 30.7203 15.1734 30.5283C15.1734 30.2784 15.0432 30.0633 14.8519 29.9557L15.2592 27.3211C15.3878 27.3012 15.5015 27.2383 15.5889 27.1456L17.4272 28.1998C17.4223 28.2362 17.4173 28.2726 17.4173 28.3107C17.4173 28.6682 17.6828 28.9578 18.0109 28.9578C18.339 28.9578 18.6044 28.6682 18.6044 28.3107C18.6044 28.0509 18.4643 27.8291 18.2615 27.7249L18.7116 23.8076C19.0595 23.8043 19.3744 23.657 19.6168 23.422L25.2917 28.7095C25.262 28.7857 25.2455 28.8717 25.2455 28.9594C25.2455 29.3169 25.511 29.6065 25.8407 29.6065C26.1227 29.6065 26.3568 29.393 26.4178 29.1067L32.6401 28.5573C32.7292 28.7923 32.9402 28.9578 33.1892 28.9578C33.5189 28.9578 33.7844 28.6682 33.7844 28.3107C33.7844 27.9532 33.5189 27.6636 33.1892 27.6636C32.9072 27.6636 32.6748 27.8771 32.6121 28.1634L26.3898 28.7112C26.3007 28.4762 26.0897 28.3107 25.8407 28.3107C25.727 28.3107 25.6215 28.3471 25.5291 28.4083L19.8542 23.1225C19.9943 22.8875 20.0768 22.6095 20.0768 22.3083C20.0768 22.1693 20.0537 22.0352 20.0207 21.9078L27.8522 18.2471C27.961 18.3828 28.1193 18.4705 28.299 18.4705C28.6288 18.4705 28.8926 18.1809 28.8926 17.8234C28.8926 17.7854 28.8876 17.7489 28.8827 17.7142L38.1667 12.4201C38.4157 12.804 38.8245 13.0572 39.2895 13.0572C40.0496 13.0572 40.6662 12.3853 40.6662 11.5562C40.6662 10.7271 40.0496 10.0552 39.2895 10.0552L39.2961 10.0568Z" fill="#FC3DD3"/>
</g>
<path d="M16.3 24.4899C15.2085 23.7237 14.9414 22.2094 15.7048 21.1139C16.4681 20.0183 17.9767 19.7502 19.0665 20.5165C20.158 21.2827 20.4251 22.7969 19.6617 23.8925C18.8984 24.9881 17.3898 25.2562 16.2983 24.4899H16.3ZM18.4367 21.4234C17.8432 21.0063 17.0221 21.1519 16.6083 21.7494C16.1928 22.3451 16.3379 23.1693 16.9331 23.5863C17.5283 24.0034 18.3477 23.8561 18.7632 23.2603C19.1786 22.6646 19.0319 21.8404 18.4384 21.4234H18.4367Z" fill="url(#paint1_linear_2562_2631)"/>
<g style="mix-blend-mode:screen">
<path d="M15.7541 21.1667C16.5175 20.0711 18.0788 19.8526 19.1703 20.6189C19.2775 20.695 19.3714 20.7827 19.4621 20.8721C19.3451 20.743 19.2148 20.6222 19.0664 20.5179C17.975 19.7517 16.468 20.0198 15.7046 21.1153C15.0155 22.1033 15.1721 23.4256 16.008 24.2382C15.2628 23.419 15.0963 22.1149 15.7558 21.1683L15.7541 21.1667Z" fill="white"/>
</g>
<g style="mix-blend-mode:multiply" opacity="0.2">
<path d="M19.9864 21.7827C19.8512 22.2792 19.4951 22.6201 19.1735 22.9842C19.1274 23.1315 19.0664 23.2755 18.9741 23.4079C18.4761 24.1228 17.4918 24.2966 16.7812 23.7984C16.6708 23.719 16.5751 23.6263 16.4894 23.5254C15.9997 23.3847 15.581 23.1083 15.2842 22.7525C15.3551 23.4277 15.703 24.0698 16.2982 24.4885C17.388 25.2548 18.8982 24.9867 19.6616 23.8911C20.1067 23.2523 20.1991 22.4728 19.9847 21.7827H19.9864Z" fill="#FC3DD3"/>
</g>
<path d="M27.5834 29.4513C28.3467 28.3557 29.8553 28.0876 30.9468 28.8539C32.0383 29.6201 32.3054 31.1343 31.542 32.2299C30.7786 33.3255 29.2717 33.5936 28.1802 32.8273C27.0888 32.0611 26.8217 30.5468 27.5834 29.4513ZM28.4852 30.0851C28.0698 30.6809 28.2148 31.5051 28.81 31.9221C29.4052 32.3391 30.2263 32.1918 30.6401 31.5977C31.0556 31.002 30.9089 30.1778 30.3153 29.7608C29.7218 29.3437 28.9007 29.4893 28.4852 30.0868V30.0851Z" fill="url(#paint2_linear_2562_2631)"/>
<g style="mix-blend-mode:multiply" opacity="0.2">
<path d="M29.4464 28.4221C29.0277 28.7183 28.8315 29.1717 28.6006 29.6004C28.4786 29.6947 28.3665 29.8023 28.2725 29.9347C27.7763 30.6496 27.951 31.6359 28.6617 32.1357C28.7738 32.2135 28.8925 32.2698 29.0161 32.3161C29.3162 32.7282 29.7168 33.0294 30.1521 33.1866C29.4959 33.3521 28.7754 33.2445 28.1802 32.8258C27.0888 32.0596 26.8217 30.5453 27.5834 29.4498C28.0285 28.811 28.7243 28.4568 29.4448 28.4204L29.4464 28.4221Z" fill="#FC3DD3"/>
</g>
<path d="M27.8477 28.2498C27.2211 26.1911 28.433 23.808 31.0825 22.7058L27.8559 20.4419L24.6277 18.1763C24.5057 21.0525 22.6904 23.0136 20.552 23.1295C18.4119 23.2453 15.6239 24.1638 14.7534 26.6992C13.8845 29.2345 13.4839 35.3329 13.4839 35.3329C13.4839 35.3329 13.0667 35.8476 15.7905 37.7624C18.5175 39.6755 18.8571 39.1045 18.8571 39.1045C18.8571 39.1045 24.4265 36.6337 26.5006 34.9424C28.5731 33.251 28.4742 30.3086 27.8493 28.2515L27.8477 28.2498Z" fill="url(#paint3_linear_2562_2631)"/>
<g style="mix-blend-mode:multiply" opacity="0.2">
<path d="M27.8471 28.2498C27.2205 26.1911 28.4324 23.808 31.0819 22.7058L27.8553 20.4419L24.6271 18.1763C24.5051 21.0525 22.6898 23.0136 20.5514 23.1295C19.9809 23.1609 19.3643 23.2503 18.751 23.4108C22.2859 26.8464 24.1704 32.6056 22.5859 37.3073C24.0566 36.5476 25.6031 35.6722 26.5 34.9424C28.5725 33.251 28.4736 30.3086 27.8487 28.2515L27.8471 28.2498Z" fill="#FC3DD3"/>
</g>
<g style="mix-blend-mode:multiply" opacity="0.2">
<path d="M26.6039 34.8431C28.561 33.1401 28.4604 30.2688 27.8471 28.2498C27.2206 26.1911 28.4324 23.808 31.0819 22.7058L27.8553 20.4419L24.6271 18.1763C24.5678 19.5813 24.1012 20.7646 23.3955 21.6251C26.5809 25.3421 29.7761 31.6954 26.6056 34.8447L26.6039 34.8431Z" fill="#FC3DD3"/>
</g>
<mask id="mask0_2562_2631" style="mask-type:luminance" maskUnits="userSpaceOnUse" x="13" y="18" width="19" height="22">
<path d="M27.8477 28.2498C27.2211 26.1911 28.433 23.808 31.0825 22.7058L27.8559 20.4419L24.6277 18.1763C24.5057 21.0525 22.6904 23.0136 20.552 23.1295C18.4119 23.2453 15.6239 24.1638 14.7534 26.6992C13.8845 29.2345 13.4839 35.3329 13.4839 35.3329C13.4839 35.3329 13.0667 35.8476 15.7905 37.7624C18.5175 39.6755 18.8571 39.1045 18.8571 39.1045C18.8571 39.1045 24.4265 36.6337 26.5006 34.9424C28.5731 33.251 28.4742 30.3086 27.8493 28.2515L27.8477 28.2498Z" fill="white"/>
</mask>
<g mask="url(#mask0_2562_2631)">
<path style="mix-blend-mode:screen" opacity="0.5" d="M23.4716 26.7337C18.781 23.442 17.6384 20.2397 17.6384 20.2397L15.2725 23.6373C15.2725 23.6373 16.1397 26.5616 20.8452 29.8632L21.1453 30.075L21.4453 30.2868C26.1508 33.5884 29.1829 33.4014 29.1829 33.4014L31.5504 30.0038C31.5504 30.0038 28.1623 30.027 23.4716 26.7353V26.7337Z" fill="url(#paint4_linear_2562_2631)"/>
<path style="mix-blend-mode:screen" opacity="0.5" d="M20.6984 30.7137C16.0077 27.4204 14.8668 24.2197 14.8668 24.2197L14.1875 25.1928C14.1875 25.1928 15.0547 28.1154 19.7602 31.417L20.0619 31.6288L20.3637 31.839C25.0675 35.1406 28.1012 34.9553 28.1012 34.9553L28.7788 33.9822C28.7788 33.9822 25.3923 34.0053 20.7 30.7137H20.6984Z" fill="url(#paint5_linear_2562_2631)"/>
</g>
<g style="mix-blend-mode:screen">
<path d="M13.7804 35.5549C13.7804 35.5549 13.9535 29.3836 14.824 26.8499C15.6946 24.3146 18.7085 23.4673 20.8485 23.3514C22.9886 23.2356 24.6175 21.1322 24.7395 18.2559L28.1524 20.6622L31.0707 22.7093C31.0707 22.7093 31.0773 22.706 31.0806 22.7043L27.854 20.4404L24.6258 18.1748C24.5021 21.0511 22.6885 23.0122 20.5501 23.128C18.41 23.2439 15.622 24.1623 14.7515 26.6977C13.8826 29.233 13.482 35.3315 13.482 35.3315C13.482 35.3315 13.1044 35.8097 15.4769 37.5358C13.4358 35.9901 13.7804 35.5532 13.7804 35.5532V35.5549Z" fill="white"/>
</g>
<path d="M31.0819 22.7042C30.9121 22.9475 29.331 22.13 27.5487 20.8805C25.7648 19.6294 24.4573 18.4196 24.6271 18.1747C24.797 17.9314 26.3781 18.7489 28.162 20.0001C29.9427 21.2512 31.2518 22.4609 31.0819 22.7042Z" fill="url(#paint6_linear_2562_2631)"/>
<path d="M40.2109 37.6876C43.7755 32.9909 43.9552 30.2818 41.337 28.6781C44.6856 27.0745 43.1044 24.0807 43.1044 24.0807C44.0788 25.9144 39.4789 28.65 39.3865 25.2077C39.3057 22.2156 40.8984 19.0531 37.0321 17.1499C37.0338 17.1499 36.6628 17.1267 36.6645 17.1284C39.2513 17.5438 40.478 16.2844 40.173 13.8384C40.173 13.8384 40.2307 16.2844 36.6974 14.8777C33.1658 13.4726 30.0596 14.5103 27.0161 17.1284H27.021C26.3862 17.6348 25.8191 18.257 25.3574 19.0001C27.0408 21.1052 30.3119 22.5019 30.3119 22.5019C31.3143 21.0572 33.5236 20.7063 34.0281 22.3546C34.6448 24.3687 32.4833 25.2921 32.7998 28.4183C33.0043 30.4539 34.3678 31.6934 34.7222 33.2623C35.3603 36.0757 33.5319 37.7141 30.9219 36.7608C34.6283 38.8808 36.4435 35.417 36.4138 33.0273C38.1302 34.7948 32.8427 40.9842 38.3627 43.2415C42.5785 44.9643 44.0871 40.3305 44.0871 40.3305C41.8547 44.1699 36.6463 42.3859 40.2109 37.6892V37.6876Z" fill="url(#paint7_linear_2562_2631)"/>
<g style="mix-blend-mode:multiply" opacity="0.2">
<path d="M33.5618 14.2505C31.2701 14.2588 29.1284 15.313 27.018 17.1268H27.0229C26.3882 17.6332 25.821 18.2554 25.3594 18.9985C27.0427 21.1036 30.3138 22.5003 30.3138 22.5003C30.4556 22.2951 30.6106 22.1031 30.7738 21.9261C27.445 19.5264 30.5199 15.2451 33.5618 14.2505Z" fill="#5F39FF"/>
</g>
<g style="mix-blend-mode:multiply" opacity="0.2">
<path d="M36.6615 17.125C35.7844 16.756 34.8924 16.6402 33.5322 16.9546C33.5322 16.9546 36.2395 16.5971 37.7035 18.0088C39.166 19.4204 39.3539 20.7013 39.3539 20.7013C39.3539 20.7013 39.2616 17.9475 36.6615 17.125Z" fill="#5F39FF"/>
</g>
<g style="mix-blend-mode:multiply" opacity="0.2">
<path d="M41.3374 28.6769C40.1899 28.6719 39.3771 28.2632 39.0127 27.0815C39.0127 27.0815 39.0737 28.4882 40.8593 28.9764C42.6449 29.4646 42.7899 30.1465 42.7899 30.1465C42.7899 30.1465 42.3827 29.2528 41.3374 28.6769Z" fill="#5F39FF"/>
</g>
<g style="mix-blend-mode:multiply" opacity="0.2">
<path d="M36.4152 33.0258C36.0294 31.6969 34.323 30.9637 34.2933 29.4048C34.2933 29.4048 34.1103 30.0916 34.9841 31.2153C35.8563 32.339 36.3542 33.8714 36.3443 33.931C36.3443 33.931 36.4169 33.375 36.4152 33.0241V33.0258Z" fill="#5F39FF"/>
</g>
<g style="mix-blend-mode:multiply" opacity="0.2">
<path d="M25.8029 19.4985C28.8828 14.959 34.2774 15.0616 34.2774 15.0616C28.3354 14.8581 25.5342 19.2072 25.5342 19.2072L25.8029 19.4985Z" fill="#5F39FF"/>
</g>
<g style="mix-blend-mode:multiply" opacity="0.2">
<path d="M26.3859 20.0675C29.1113 15.4022 33.1045 15.6819 33.1045 15.6819C28.5672 15.677 26.1172 19.7762 26.1172 19.7762L26.3859 20.0675Z" fill="#5F39FF"/>
</g>
<g style="mix-blend-mode:multiply" opacity="0.2">
<path d="M27.7796 21.054C29.8158 17.5688 32.8 17.7773 32.8 17.7773C29.4102 17.774 27.5801 20.8372 27.5801 20.8372L27.7796 21.054Z" fill="#5F39FF"/>
</g>
<g style="mix-blend-mode:multiply" opacity="0.2">
<path d="M32.0693 18.7374C35.3652 17.1801 38.7434 18.1747 38.3823 22.3484C38.473 24.3807 36.6116 26.067 37.0304 28.0381C38.5274 30.9855 43.0812 30.5883 40.778 35.0285C42.2025 31.2751 39.8909 31.391 37.553 29.4762C34.9744 27.5284 37.9108 24.6984 37.924 22.3236C38.3593 18.365 35.2283 17.6203 32.0693 18.7374Z" fill="#5F39FF"/>
</g>
<g style="mix-blend-mode:screen" opacity="0.6">
<path d="M32.7998 18.3614C36.0956 16.8041 39.4739 17.7987 39.1128 21.9724C39.2035 24.0047 37.3421 25.6911 37.7609 27.6621C39.2579 30.6095 43.8117 30.2123 41.5084 34.6525C42.9329 30.8991 40.6198 31.015 38.2835 29.1002C35.7049 27.1524 38.6413 24.3224 38.6545 21.9476C39.0897 17.989 35.9588 17.2443 32.7998 18.3614Z" fill="#73E9FE"/>
</g>
<g style="mix-blend-mode:multiply" opacity="0.2">
<path d="M29.6113 21.2541C31.2914 19.8044 35.1742 17.9624 36.2805 20.9248C36.8015 23.4403 33.72 25.8134 35.3473 28.2627C33.5056 25.9706 36.4305 23.4088 36.0002 21.0059C34.9318 18.2868 31.3095 20.1072 29.613 21.2524L29.6113 21.2541Z" fill="#73E9FE"/>
</g>
<g style="mix-blend-mode:screen" opacity="0.6">
<path d="M30.1104 20.8769C31.7904 19.4272 36.1645 17.4446 36.7795 20.5475C37.3829 23.5943 34.219 25.4362 35.8463 27.8855C34.0047 25.5934 37.1257 23.5943 36.4992 20.6286C35.8958 17.7689 31.8085 19.73 30.112 20.8752L30.1104 20.8769Z" fill="#73E9FE"/>
</g>
<g style="mix-blend-mode:multiply" opacity="0.2">
<path d="M37.9174 32.1353C39.2826 34.055 37.3865 36.1534 37.3453 38.1824C37.1211 39.8555 37.4986 42.131 39.459 42.4868C37.2777 42.4868 36.6182 39.9234 36.8655 38.1344C36.8721 36.0409 38.8589 34.2172 37.9174 32.1353Z" fill="#5F39FF"/>
</g>
<path d="M36.6826 30.1481C37.0866 30.3931 37.5218 30.5685 37.9637 30.729C38.4023 30.8978 38.8557 31.0517 39.2662 31.3231C39.4772 31.4489 39.6586 31.626 39.8202 31.8196C39.8581 31.8693 39.8894 31.9255 39.924 31.9785C39.9554 32.0331 39.9966 32.0828 40.018 32.1423C40.0642 32.2598 40.1285 32.3724 40.1516 32.4948C40.1829 32.6156 40.2175 32.7381 40.2241 32.8622C40.2356 32.9863 40.2554 33.1088 40.2505 33.2346C40.2488 33.4861 40.206 33.736 40.1351 33.9727C39.9883 34.4476 39.7427 34.8697 39.4871 35.2701C39.2266 35.669 38.9579 36.0546 38.7172 36.4534C38.4781 36.8523 38.2736 37.2726 38.1813 37.7244C38.1335 37.9495 38.1104 38.1828 38.1286 38.4145C38.1467 38.6462 38.1929 38.8779 38.2605 39.1046C38.061 38.676 37.9785 38.1828 38.0412 37.6996C38.1038 37.2163 38.2918 36.7596 38.5193 36.3392C38.7435 35.9156 39.0123 35.5233 39.253 35.1212C39.497 34.7224 39.7278 34.3186 39.8548 33.885C39.9207 33.6698 39.9603 33.4497 39.9653 33.228C39.9718 33.1171 39.9537 33.0062 39.9455 32.8937C39.9422 32.7795 39.9092 32.6736 39.8861 32.566C39.8696 32.4551 39.8152 32.3575 39.7789 32.2549C39.7625 32.2019 39.7278 32.1589 39.7015 32.1109C39.6718 32.0645 39.6487 32.0149 39.6157 31.9702C39.5415 31.8891 39.4838 31.7948 39.3964 31.7236L39.2744 31.6094L39.1392 31.5085C38.7716 31.242 38.3363 31.0583 37.9093 30.8581C37.4839 30.6529 37.0503 30.446 36.6826 30.1465V30.1481Z" fill="#73E9FE"/>
<g style="mix-blend-mode:screen">
<path d="M36.0312 30.1479C37.192 30.891 39.0732 30.9373 39.5018 32.4946C40.2256 34.9919 36.727 36.5922 37.6107 39.1044C36.3016 36.5227 40.5142 34.4789 38.966 31.9733C38.2356 31.0433 36.9199 30.896 36.0329 30.1479H36.0312Z" fill="#73E9FE"/>
</g>
<path style="mix-blend-mode:screen" d="M37.6719 17.1716C39.6767 17.2312 40.4368 16.0065 40.1747 13.8369C40.1829 13.9494 40.1944 14.3913 39.9521 14.7571C39.9109 16.2614 39.1887 17.1253 37.6735 17.1716H37.6719Z" fill="url(#paint8_linear_2562_2631)"/>
<path style="mix-blend-mode:screen" d="M41.3121 28.65C43.9303 30.2536 43.7506 32.9628 40.1877 37.6595C37.9306 40.6334 39.0385 42.0086 40.3823 42.3528C38.8456 41.7273 38.3197 40.4778 40.4565 37.6595C44.021 32.9628 44.2007 30.2536 41.5825 28.65C44.9311 27.0464 43.1043 24.0791 43.1043 24.0791C43.261 24.3737 43.2824 24.6898 43.2098 24.9992C43.4786 26.0054 43.4786 27.6124 41.3121 28.6484V28.65Z" fill="url(#paint9_linear_2562_2631)"/>
<path style="mix-blend-mode:screen" d="M39.3635 25.1796C39.4493 26.4705 40.1005 26.8941 40.826 26.823C40.2159 26.77 39.7081 26.3066 39.6323 25.1796C39.4229 22.0601 41.1557 18.9041 37.0322 17.1499C40.9628 19.2897 39.1509 22.022 39.3635 25.1796Z" fill="url(#paint10_linear_2562_2631)"/>
<path d="M26.9043 13.2114L27.3709 13.6235L27.8375 13.2114L28.3041 13.6235L28.7723 13.2114L29.2389 13.6235L29.7071 13.2114L30.1754 13.6235L30.6436 13.2114" stroke="#FFE98D" stroke-width="0.75" stroke-miterlimit="10"/>
<path d="M26.9043 12.7197L27.3709 13.1318L27.8375 12.7197L28.3041 13.1318L28.7723 12.7197L29.2389 13.1318L29.7071 12.7197L30.1754 13.1318L30.6436 12.7197" stroke="#FFE98D" stroke-width="0.75" stroke-miterlimit="10"/>
<g style="mix-blend-mode:screen" opacity="0.9">
<path style="mix-blend-mode:screen" opacity="0.9" d="M35.8304 8.99609C35.8304 9.65972 35.1973 9.69447 35.1973 9.69447C35.1973 9.69447 35.8304 9.73088 35.8304 10.3945C35.8304 9.73088 36.4618 9.69447 36.4618 9.69447C36.4618 9.69447 35.8304 9.65972 35.8304 8.99609Z" fill="url(#paint11_radial_2562_2631)"/>
<path style="mix-blend-mode:screen" opacity="0.9" d="M32.0699 34.2139C32.0699 34.6044 31.6973 34.6259 31.6973 34.6259C31.6973 34.6259 32.0699 34.6475 32.0699 35.038C32.0699 34.6475 32.4425 34.6259 32.4425 34.6259C32.4425 34.6259 32.0699 34.6061 32.0699 34.2139Z" fill="url(#paint12_radial_2562_2631)"/>
<path style="mix-blend-mode:screen" opacity="0.9" d="M21.4513 12.0195C21.4513 12.8801 20.6318 12.9248 20.6318 12.9248C20.6318 12.9248 21.4513 12.9711 21.4513 13.8317C21.4513 12.9711 22.2707 12.9248 22.2707 12.9248C22.2707 12.9248 21.4513 12.8784 21.4513 12.0195Z" fill="url(#paint13_radial_2562_2631)"/>
<path style="mix-blend-mode:screen" opacity="0.9" d="M17.3662 17.9243C17.3662 18.3529 16.959 18.3745 16.959 18.3745C16.959 18.3745 17.3662 18.3976 17.3662 18.8246C17.3662 18.396 17.7735 18.3745 17.7735 18.3745C17.7735 18.3745 17.3662 18.3513 17.3662 17.9243Z" fill="url(#paint14_radial_2562_2631)"/>
<path style="mix-blend-mode:screen" opacity="0.9" d="M45.5409 37.3564C45.5409 38.0399 44.8896 38.078 44.8896 38.078C44.8896 38.078 45.5409 38.1144 45.5409 38.7995C45.5409 38.1144 46.1921 38.078 46.1921 38.078C46.1921 38.078 45.5409 38.0416 45.5409 37.3564Z" fill="url(#paint15_radial_2562_2631)"/>
<path style="mix-blend-mode:color-dodge" opacity="0.9" d="M10.4825 27.6226C10.4825 28.3756 9.76367 28.4169 9.76367 28.4169C9.76367 28.4169 10.4825 28.4566 10.4825 29.2113C10.4825 28.4583 11.2014 28.4169 11.2014 28.4169C11.2014 28.4169 10.4825 28.3772 10.4825 27.6226Z" fill="url(#paint16_radial_2562_2631)"/>
<path style="mix-blend-mode:color-dodge" opacity="0.9" d="M26.1175 42.3164C26.1175 43.0578 25.4102 43.0975 25.4102 43.0975C25.4102 43.0975 26.1175 43.1373 26.1175 43.8787C26.1175 43.1373 26.8248 43.0975 26.8248 43.0975C26.8248 43.0975 26.1175 43.0578 26.1175 42.3164Z" fill="url(#paint17_radial_2562_2631)"/>
<path style="mix-blend-mode:color-dodge" opacity="0.9" d="M43.6025 19.1821C43.6025 20.377 42.4648 20.4399 42.4648 20.4399C42.4648 20.4399 43.6025 20.5044 43.6025 21.6993C43.6025 20.5044 44.7418 20.4399 44.7418 20.4399C44.7418 20.4399 43.6025 20.3753 43.6025 19.1821Z" fill="url(#paint18_radial_2562_2631)"/>
</g>
</g>
</g>
<rect x="0.233333" y="0.233333" width="55.5333" height="55.5333" rx="27.7667" stroke="white" stroke-opacity="0.2" stroke-width="0.466667"/>
<defs>
<filter id="filter0_f_2562_2631" x="-20.7407" y="-20.7407" width="97.4815" height="97.4815" filterUnits="userSpaceOnUse" color-interpolation-filters="sRGB">
<feFlood flood-opacity="0" result="BackgroundImageFix"/>
<feBlend mode="normal" in="SourceGraphic" in2="BackgroundImageFix" result="shape"/>
<feGaussianBlur stdDeviation="10.3704" result="effect1_foregroundBlur_2562_2631"/>
</filter>
<radialGradient id="paint0_radial_2562_2631" cx="0" cy="0" r="1" gradientUnits="userSpaceOnUse" gradientTransform="translate(28 28) scale(38.6579)">
<stop stop-color="#FA1E42"/>
<stop offset="1" stop-opacity="0"/>
</radialGradient>
<linearGradient id="paint1_linear_2562_2631" x1="15.2695" y1="22.5024" x2="20.0986" y2="22.5024" gradientUnits="userSpaceOnUse">
<stop stop-color="#FFE98D"/>
<stop offset="0.1" stop-color="#FED694"/>
<stop offset="0.91" stop-color="#FC3DD3"/>
</linearGradient>
<linearGradient id="paint2_linear_2562_2631" x1="27.3" y1="31.1529" x2="32.7284" y2="30.4019" gradientUnits="userSpaceOnUse">
<stop stop-color="#FFE98D"/>
<stop offset="0.1" stop-color="#FED694"/>
<stop offset="0.91" stop-color="#FC3DD3"/>
</linearGradient>
<linearGradient id="paint3_linear_2562_2631" x1="15.8075" y1="24.8789" x2="27.863" y2="33.2761" gradientUnits="userSpaceOnUse">
<stop stop-color="#FFE98D"/>
<stop offset="0.1" stop-color="#FED694"/>
<stop offset="0.91" stop-color="#FC3DD3"/>
</linearGradient>
<linearGradient id="paint4_linear_2562_2631" x1="15.9122" y1="22.7149" x2="29.8573" y2="32.4284" gradientUnits="userSpaceOnUse">
<stop stop-color="#FFE98D"/>
<stop offset="1" stop-color="white"/>
</linearGradient>
<linearGradient id="paint5_linear_2562_2631" x1="13.9858" y1="25.4803" x2="27.9309" y2="35.1937" gradientUnits="userSpaceOnUse">
<stop stop-color="#FFE98D"/>
<stop offset="1" stop-color="white"/>
</linearGradient>
<linearGradient id="paint6_linear_2562_2631" x1="24.6253" y1="18.1743" x2="31.0947" y2="22.6805" gradientUnits="userSpaceOnUse">
<stop stop-color="#5F39FF"/>
<stop offset="0.11" stop-color="#614FFE"/>
<stop offset="0.91" stop-color="#73E9FE"/>
</linearGradient>
<linearGradient id="paint7_linear_2562_2631" x1="30.2838" y1="12.3092" x2="40.0177" y2="36.1462" gradientUnits="userSpaceOnUse">
<stop stop-color="#5F39FF"/>
<stop offset="0.09" stop-color="#6256FE"/>
<stop offset="0.24" stop-color="#6782FE"/>
<stop offset="0.4" stop-color="#6BA7FE"/>
<stop offset="0.55" stop-color="#6EC4FE"/>
<stop offset="0.7" stop-color="#71D8FE"/>
<stop offset="0.85" stop-color="#72E4FE"/>
<stop offset="1" stop-color="#73E9FE"/>
</linearGradient>
<linearGradient id="paint8_linear_2562_2631" x1="37.6719" y1="15.5051" x2="40.2241" y2="15.5051" gradientUnits="userSpaceOnUse">
<stop offset="0.49" stop-color="white"/>
<stop offset="0.56" stop-color="#D8F8FE"/>
<stop offset="0.65" stop-color="#B4F3FE"/>
<stop offset="0.74" stop-color="#97EEFE"/>
<stop offset="0.83" stop-color="#83EBFE"/>
<stop offset="0.91" stop-color="#77E9FE"/>
<stop offset="1" stop-color="#73E9FE"/>
</linearGradient>
<linearGradient id="paint9_linear_2562_2631" x1="38.8918" y1="33.216" x2="43.6022" y2="33.216" gradientUnits="userSpaceOnUse">
<stop offset="0.49" stop-color="white"/>
<stop offset="0.56" stop-color="#D8F8FE"/>
<stop offset="0.65" stop-color="#B4F3FE"/>
<stop offset="0.74" stop-color="#97EEFE"/>
<stop offset="0.83" stop-color="#83EBFE"/>
<stop offset="0.91" stop-color="#77E9FE"/>
<stop offset="1" stop-color="#73E9FE"/>
</linearGradient>
<linearGradient id="paint10_linear_2562_2631" x1="37.0339" y1="21.9906" x2="40.826" y2="21.9906" gradientUnits="userSpaceOnUse">
<stop offset="0.49" stop-color="white"/>
<stop offset="0.56" stop-color="#D8F8FE"/>
<stop offset="0.65" stop-color="#B4F3FE"/>
<stop offset="0.74" stop-color="#97EEFE"/>
<stop offset="0.83" stop-color="#83EBFE"/>
<stop offset="0.91" stop-color="#77E9FE"/>
<stop offset="1" stop-color="#73E9FE"/>
</linearGradient>
<radialGradient id="paint11_radial_2562_2631" cx="0" cy="0" r="1" gradientUnits="userSpaceOnUse" gradientTransform="translate(35.8304 9.69613) scale(0.666089 0.668591)">
<stop offset="0.31" stop-color="white"/>
<stop offset="0.9" stop-color="white" stop-opacity="0"/>
</radialGradient>
<radialGradient id="paint12_radial_2562_2631" cx="0" cy="0" r="1" gradientUnits="userSpaceOnUse" gradientTransform="translate(32.0699 34.6259) scale(0.390751 0.392218)">
<stop offset="0.31" stop-color="white"/>
<stop offset="0.9" stop-color="white" stop-opacity="0"/>
</radialGradient>
<radialGradient id="paint13_radial_2562_2631" cx="0" cy="0" r="1" gradientUnits="userSpaceOnUse" gradientTransform="translate(21.4496 12.9264) scale(0.862289 0.865528)">
<stop offset="0.31" stop-color="white"/>
<stop offset="0.9" stop-color="white" stop-opacity="0"/>
</radialGradient>
<radialGradient id="paint14_radial_2562_2631" cx="0" cy="0" r="1" gradientUnits="userSpaceOnUse" gradientTransform="translate(17.3646 18.3745) scale(0.428671 0.430282)">
<stop offset="0.31" stop-color="white"/>
<stop offset="0.9" stop-color="white" stop-opacity="0"/>
</radialGradient>
<radialGradient id="paint15_radial_2562_2631" cx="0" cy="0" r="1" gradientUnits="userSpaceOnUse" gradientTransform="translate(45.5393 38.078) scale(0.685874 0.688451)">
<stop offset="0.31" stop-color="white"/>
<stop offset="0.9" stop-color="white" stop-opacity="0"/>
</radialGradient>
<radialGradient id="paint16_radial_2562_2631" cx="0" cy="0" r="1" gradientUnits="userSpaceOnUse" gradientTransform="translate(10.4825 28.4169) scale(1.19039 1.19486)">
<stop stop-color="white"/>
<stop offset="0.03" stop-color="white" stop-opacity="0.96"/>
<stop offset="0.18" stop-color="white" stop-opacity="0.71"/>
<stop offset="0.34" stop-color="white" stop-opacity="0.49"/>
<stop offset="0.49" stop-color="white" stop-opacity="0.32"/>
<stop offset="0.64" stop-color="white" stop-opacity="0.18"/>
<stop offset="0.78" stop-color="white" stop-opacity="0.08"/>
<stop offset="0.9" stop-color="white" stop-opacity="0.02"/>
<stop offset="1" stop-color="white" stop-opacity="0"/>
</radialGradient>
<radialGradient id="paint17_radial_2562_2631" cx="0" cy="0" r="1" gradientUnits="userSpaceOnUse" gradientTransform="translate(26.1175 43.0975) scale(1.17225 1.17666)">
<stop stop-color="white"/>
<stop offset="0.03" stop-color="white" stop-opacity="0.96"/>
<stop offset="0.18" stop-color="white" stop-opacity="0.71"/>
<stop offset="0.34" stop-color="white" stop-opacity="0.49"/>
<stop offset="0.49" stop-color="white" stop-opacity="0.32"/>
<stop offset="0.64" stop-color="white" stop-opacity="0.18"/>
<stop offset="0.78" stop-color="white" stop-opacity="0.08"/>
<stop offset="0.9" stop-color="white" stop-opacity="0.02"/>
<stop offset="1" stop-color="white" stop-opacity="0"/>
</radialGradient>
<radialGradient id="paint18_radial_2562_2631" cx="0" cy="0" r="1" gradientUnits="userSpaceOnUse" gradientTransform="translate(43.6025 20.4399) scale(1.88781 1.89489)">
<stop stop-color="white"/>
<stop offset="0.03" stop-color="white" stop-opacity="0.96"/>
<stop offset="0.18" stop-color="white" stop-opacity="0.71"/>
<stop offset="0.34" stop-color="white" stop-opacity="0.49"/>
<stop offset="0.49" stop-color="white" stop-opacity="0.32"/>
<stop offset="0.64" stop-color="white" stop-opacity="0.18"/>
<stop offset="0.78" stop-color="white" stop-opacity="0.08"/>
<stop offset="0.9" stop-color="white" stop-opacity="0.02"/>
<stop offset="1" stop-color="white" stop-opacity="0"/>
</radialGradient>
<clipPath id="clip0_2562_2631">
<rect width="56" height="56" rx="28" fill="white"/>
</clipPath>
<clipPath id="clip1_2562_2631">
<rect width="40" height="47" fill="white" transform="translate(8 4)"/>
</clipPath>
</defs>
</svg>
