<svg width="56" height="56" viewBox="0 0 56 56" fill="none" xmlns="http://www.w3.org/2000/svg">
<g clip-path="url(#clip0_2562_1476)">
<g filter="url(#filter0_f_2562_1476)">
<path d="M56 0H0V56H56V0Z" fill="url(#paint0_radial_2562_1476)"/>
</g>
<g clip-path="url(#clip1_2562_1476)">
<g opacity="0.2">
<g style="mix-blend-mode:screen" opacity="0.5">
<path d="M44.7202 27.5299C44.7202 37.6507 36.5464 45.8577 26.4628 45.8577C16.3793 45.8577 8.20703 37.6523 8.20703 27.5299C8.20703 17.4074 16.3809 9.20361 26.4644 9.20361C36.548 9.20361 44.7218 17.409 44.7218 27.5315L44.7202 27.5299Z" stroke="#FC3DD3" stroke-width="2.62" stroke-miterlimit="10"/>
</g>
<g style="mix-blend-mode:screen" opacity="0.5">
<path d="M43.8726 27.53C43.8726 37.1819 36.0788 45.0059 26.4639 45.0059C16.8491 45.0059 9.05371 37.1819 9.05371 27.53C9.05371 17.8781 16.8491 10.0542 26.4639 10.0542C36.0788 10.0542 43.8726 17.8797 43.8726 27.53Z" stroke="#FC3DD3" stroke-width="1.35" stroke-miterlimit="10"/>
</g>
<g style="mix-blend-mode:screen" opacity="0.5">
<path d="M42.9563 27.5301C42.9563 36.6733 35.5726 44.0855 26.4645 44.0855C17.3564 44.0855 9.97266 36.6733 9.97266 27.5301C9.97266 18.3868 17.3564 10.9746 26.4645 10.9746C35.5726 10.9746 42.9563 18.3868 42.9563 27.5301Z" fill="#FC3DD3"/>
</g>
</g>
<g style="mix-blend-mode:screen" opacity="0.9">
<path style="mix-blend-mode:screen" opacity="0.9" d="M12.7892 20.3384C12.7892 21.5242 11.6602 21.5862 11.6602 21.5862C11.6602 21.5862 12.7892 21.6498 12.7892 22.8356C12.7892 21.6498 13.9182 21.5862 13.9182 21.5862C13.9182 21.5862 12.7892 21.5242 12.7892 20.3384Z" fill="url(#paint1_radial_2562_1476)"/>
<path style="mix-blend-mode:screen" opacity="0.9" d="M21.8009 14.438C21.8009 15.0961 21.1738 15.1295 21.1738 15.1295C21.1738 15.1295 21.8009 15.1644 21.8009 15.8225C21.8009 15.1644 22.4264 15.1295 22.4264 15.1295C22.4264 15.1295 21.8009 15.0945 21.8009 14.438Z" fill="url(#paint2_radial_2562_1476)"/>
<path style="mix-blend-mode:screen" opacity="0.9" d="M10.5978 34.2983C10.5978 34.9564 9.9707 34.9898 9.9707 34.9898C9.9707 34.9898 10.5978 35.0248 10.5978 35.6829C10.5978 35.0248 11.2232 34.9898 11.2232 34.9898C11.2232 34.9898 10.5978 34.9548 10.5978 34.2983Z" fill="url(#paint3_radial_2562_1476)"/>
<path style="mix-blend-mode:screen" opacity="0.9" d="M23.0435 38.4248C23.0435 38.8349 22.6523 38.8572 22.6523 38.8572C22.6523 38.8572 23.0435 38.8794 23.0435 39.2895C23.0435 38.8794 23.4346 38.8572 23.4346 38.8572C23.4346 38.8572 23.0435 38.8349 23.0435 38.4248Z" fill="url(#paint4_radial_2562_1476)"/>
<path style="mix-blend-mode:screen" opacity="0.9" d="M18.563 22.2222C18.563 22.6339 18.1719 22.6545 18.1719 22.6545C18.1719 22.6545 18.563 22.6768 18.563 23.0869C18.563 22.6768 18.9541 22.6545 18.9541 22.6545C18.9541 22.6545 18.563 22.6323 18.563 22.2222Z" fill="url(#paint5_radial_2562_1476)"/>
<path style="mix-blend-mode:screen" opacity="0.9" d="M40.4682 15.1309C40.4682 15.7874 39.8428 15.8239 39.8428 15.8239C39.8428 15.8239 40.4682 15.8589 40.4682 16.517C40.4682 15.8589 41.0937 15.8239 41.0937 15.8239C41.0937 15.8239 40.4682 15.7889 40.4682 15.1309Z" fill="url(#paint6_radial_2562_1476)"/>
<path style="mix-blend-mode:color-dodge" opacity="0.9" d="M42.2513 22.8594C42.2513 24.1565 41.0146 24.2264 41.0146 24.2264C41.0146 24.2264 42.2513 24.2964 42.2513 25.595C42.2513 24.2964 43.488 24.2264 43.488 24.2264C43.488 24.2264 42.2513 24.1565 42.2513 22.8594Z" fill="url(#paint7_radial_2562_1476)"/>
<path style="mix-blend-mode:color-dodge" opacity="0.9" d="M28.1058 40.7314C28.1058 42.0285 26.8691 42.0985 26.8691 42.0985C26.8691 42.0985 28.1058 42.1684 28.1058 43.4671C28.1058 42.1684 29.3425 42.0985 29.3425 42.0985C29.3425 42.0985 28.1058 42.0285 28.1058 40.7314Z" fill="url(#paint8_radial_2562_1476)"/>
<path style="mix-blend-mode:color-dodge" opacity="0.9" d="M37.5676 37.7617C37.5676 38.5645 36.8027 38.6074 36.8027 38.6074C36.8027 38.6074 37.5676 38.6503 37.5676 39.453C37.5676 38.6503 38.3324 38.6074 38.3324 38.6074C38.3324 38.6074 37.5676 38.5645 37.5676 37.7617Z" fill="url(#paint9_radial_2562_1476)"/>
</g>
<g style="mix-blend-mode:screen" opacity="0.8">
<path d="M40.6808 32.9658C40.6476 32.9658 40.6175 32.9722 40.5858 32.9753L40.0902 29.8645C40.4528 29.7358 40.7157 29.3924 40.7204 28.9839C40.7252 28.4609 40.3071 28.0318 39.7862 28.027C39.5091 28.0238 39.2621 28.143 39.0879 28.3322L33.7041 24.8892C33.7563 24.7668 33.7864 24.6332 33.788 24.4918C33.7928 23.9195 33.3367 23.4522 32.7667 23.4474C32.3882 23.4442 32.0589 23.6477 31.8768 23.9513L17.4529 18.2654C17.4957 18.1144 17.5274 17.9586 17.5289 17.7933C17.5384 16.8046 16.7483 15.9955 15.7634 15.9859C14.7785 15.9764 13.9725 16.7696 13.963 17.7583C13.9535 18.747 14.7436 19.5561 15.7285 19.5657C16.4284 19.572 17.0317 19.1699 17.3294 18.5833L31.7469 24.2629C31.7327 24.3296 31.7247 24.3996 31.7247 24.4695C31.72 25.0402 32.176 25.5091 32.7461 25.5139C33.0533 25.517 33.3272 25.3819 33.5188 25.1689L38.9042 28.6151C38.8614 28.7232 38.8345 28.8393 38.8329 28.9617C38.8282 29.4814 39.2399 29.9059 39.7561 29.917L40.2517 33.0262C39.5851 33.209 39.0895 33.8115 39.0815 34.5411C39.072 35.4201 39.7751 36.1402 40.6523 36.1481C41.528 36.1577 42.2453 35.4519 42.2532 34.5713C42.2611 33.6922 41.5597 32.9722 40.6824 32.9642L40.6808 32.9658Z" fill="#FC3DD3"/>
</g>
<path d="M28.4697 34.0915C29.7856 34.2171 31.1379 34.1535 32.2669 33.6909C33.5416 34.6208 37.1836 30.9982 37.4448 31.305C37.7061 31.6118 37.1186 33.7323 36.1686 33.9898C35.2169 34.2457 35.5035 34.3681 35.0047 34.7305C34.5043 35.0945 33.1505 34.3522 32.4521 34.9467C31.7538 35.5412 32.3587 37.2516 32.9509 37.5314C33.5432 37.8127 34.7466 37.0497 35.0728 36.8272C35.4006 36.6046 36.6008 37.0068 36.9334 36.6571C37.2659 36.3058 37.3403 35.2265 38.406 33.5463C39.4717 31.8661 39.5366 29.6502 38.5944 29.0351C37.8771 28.5661 36.3807 29.4738 35.2343 29.8998C35.3705 29.2481 35.4037 28.6043 35.4037 27.9971C32.0088 28.0177 28.7848 30.817 28.4697 34.0915Z" fill="url(#paint10_linear_2562_1476)"/>
<path opacity="0.8" d="M33.6743 34.7368C33.2261 34.6827 32.7717 34.6764 32.4518 34.9466C31.7535 35.5411 32.3584 37.2515 32.9506 37.5312C33.2404 37.6695 33.679 37.5551 34.0875 37.3771C33.5143 36.6363 33.3291 35.6619 33.6743 34.7368Z" fill="url(#paint11_linear_2562_1476)"/>
<g style="mix-blend-mode:multiply" opacity="0.3">
<path d="M38.5944 29.0336C37.8771 28.5647 36.3807 29.4723 35.2343 29.8983C35.3705 29.2466 35.4037 28.6028 35.4037 27.9956C32.0088 28.0163 28.7848 30.8155 28.4697 34.0901C29.7856 34.2156 31.1379 34.152 32.2669 33.6895C33.5416 34.6194 37.1836 30.9967 37.4448 31.3035C37.7061 31.6103 37.1186 33.7308 36.1686 33.9883C35.2169 34.2442 35.5035 34.3666 35.0047 34.7291C34.7007 34.95 34.0815 34.764 33.4846 34.7163C34.7102 36.3647 36.1606 36.0039 37.5272 35.252C37.7156 34.7815 37.98 34.2124 38.4028 33.5432C39.4685 31.8631 39.5334 29.6472 38.5913 29.032L38.5944 29.0336Z" fill="#5F39FF"/>
</g>
<path d="M15.1064 34.7369C15.3883 35.2567 15.6654 35.7066 15.8823 36.0404C16.8008 37.4583 15.26 40.9951 16.0169 41.561C16.7723 42.1285 18.5204 43.4113 18.674 44.2394C18.8276 45.066 19.1617 45.3967 19.4721 45.43C19.7824 45.4618 19.6969 45.988 20.3192 47.5473C20.9415 49.1067 23.3231 47.6634 23.2391 47.2771C23.1536 46.8893 21.2741 44.9007 21.2741 44.9007C21.2266 44.4556 20.9479 43.6561 20.0294 43.3779C19.111 43.1013 17.9124 41.5689 17.7635 39.9794C17.6305 38.5646 20.2828 37.0879 21.3326 34.5319C19.5576 33.2713 16.9512 33.5002 15.108 34.7369H15.1064Z" fill="url(#paint12_linear_2562_1476)"/>
<path d="M23.238 47.2769C23.1873 47.048 22.8263 46.4551 22.147 45.8574C21.2301 46.7237 20.5192 46.6236 19.957 46.5298C20.0425 46.8064 20.1565 47.1402 20.3181 47.5471C20.9404 49.1065 23.3219 47.6632 23.238 47.2769Z" fill="url(#paint13_linear_2562_1476)"/>
<g style="mix-blend-mode:multiply" opacity="0.3">
<path d="M19.2741 37.4949C20.0136 36.6715 20.8434 35.7193 21.3311 34.5319C19.556 33.2713 16.9496 33.5002 15.1064 34.7369C15.3883 35.2567 15.6654 35.7066 15.8823 36.0404C16.8008 37.4583 15.26 40.9951 16.0169 41.561C16.3162 41.7851 16.7707 42.1221 17.2204 42.4988C16.2877 40.7328 17.5038 38.455 19.2741 37.4949Z" fill="#5F39FF"/>
</g>
<g style="mix-blend-mode:multiply" opacity="0.3">
<path d="M19.5596 45.4459C20.0568 45.5175 20.5192 45.2886 20.5192 45.2886C20.5192 45.2886 19.8319 46.1342 20.0299 46.6826C20.0299 46.6826 19.8129 45.6748 19.5596 45.4475V45.4459Z" fill="#5F39FF"/>
</g>
<g style="mix-blend-mode:multiply" opacity="0.3">
<path d="M22.9824 47.6171C22.8541 46.9208 21.5557 45.6523 21.5557 45.6523C21.5557 45.6523 22.52 46.7666 22.7417 47.7887L22.9824 47.6171Z" fill="#5F39FF"/>
</g>
<path d="M38.4026 16.3122C38.3013 15.8083 38.0732 14.2235 36.4565 14.0757C34.9142 11.9139 31.6839 12.3129 30.4314 13.3048C29.1789 14.2967 28.3159 15.5461 27.5321 17.5839C26.7499 19.6217 25.8663 21.968 25.8663 21.968C23.6589 22.9916 24.5425 23.5639 22.1784 25.1503C19.8127 26.7367 16.4193 25.0486 13.4566 27.816C10.1488 27.9336 11.1099 33.2079 8.95801 33.006C11.6056 33.9279 12.3324 29.1751 12.8217 28.8699C11.33 31.0063 12.9483 34.7084 13.6989 36.2233C14.4479 37.7382 12.5097 41.0715 13.1954 41.7217C13.881 42.3718 15.4692 43.8501 15.5262 44.6894C15.5832 45.5287 15.8778 45.8975 16.1818 45.9642C16.4858 46.0326 16.3401 46.5444 16.7788 48.1658C17.2174 49.7872 19.9584 48.4948 19.9584 48.099C19.9584 46.9577 18.215 45.6543 18.215 45.6543C18.2197 45.206 18.1136 44.1346 17.2316 43.7531C16.3496 43.3716 15.0781 41.949 15.113 40.3546C15.1478 38.7587 18.6868 37.4981 19.7082 34.4096C21.1444 35.3554 22.8434 35.0311 24.0849 35.0518C25.1791 35.0709 30.7877 34.8149 33.3688 32.2033C35.0045 32.5832 37.0725 27.5108 37.4573 27.7032C37.8389 27.8955 38.1445 30.2195 37.3179 30.868C36.4929 31.5166 36.8223 31.5166 36.4834 32.0809C36.1446 32.6467 34.5104 32.483 34.0702 33.3573C33.6316 34.2316 34.9332 35.6558 35.63 35.6844C36.3267 35.7115 37.0472 34.079 37.2752 33.7229C37.5032 33.3684 38.4422 33.1173 38.6243 32.634C38.8064 32.1508 38.6322 31.5786 38.9806 29.4867C39.3289 27.3948 38.8206 25.2059 37.641 24.9961C36.7431 24.8356 35.6537 26.3504 34.7052 27.247C34.3046 25.1964 33.0647 23.5257 32.965 22.5593C32.8098 21.0492 33.9087 20.4054 33.9641 20.9474C34.0196 21.4879 34.8066 21.6818 35.2863 22.0045C35.7661 22.3288 35.8754 22.9138 36.2887 23.3191C36.702 23.7244 37.1485 23.2555 37.1485 23.2555C37.8041 23.6116 38.7652 22.7119 38.8951 22.0522C38.941 21.8201 39.0217 21.5801 38.8951 20.6454C38.6607 18.9112 38.4707 16.6397 38.4042 16.3122H38.4026Z" fill="url(#paint14_linear_2562_1476)"/>
<path d="M12.4326 29.6436C12.4643 29.5593 12.496 29.4799 12.5245 29.4067C12.4912 29.4846 12.4595 29.5641 12.4326 29.6436Z" fill="url(#paint15_linear_2562_1476)"/>
<path d="M16.543 47.1466C16.5952 47.4232 16.6681 47.7586 16.7789 48.1639C17.2175 49.7853 19.9585 48.493 19.9585 48.0972C19.9585 47.633 19.6703 47.1418 19.3283 46.7222C18.1486 47.7125 17.1114 47.2833 16.5446 47.1466H16.543Z" fill="url(#paint16_linear_2562_1476)"/>
<path d="M35.0569 32.6782C34.6404 32.8102 34.2509 32.993 34.0688 33.357C33.6302 34.2312 34.9318 35.6555 35.6285 35.6841C36.0054 35.6984 36.3886 35.2279 36.6974 34.7367C35.3387 34.4093 35.3387 33.481 35.0569 32.6798V32.6782Z" fill="url(#paint17_linear_2562_1476)"/>
<g style="mix-blend-mode:multiply" opacity="0.3">
<path d="M15.5247 36.1531C13.018 32.6306 11.6784 27.7172 17.5214 26.0879C16.166 26.2373 14.7693 26.587 13.4566 27.8142C10.1488 27.9318 11.1099 33.206 8.95801 33.0041C11.6056 33.9261 12.3324 29.1733 12.8217 28.8681C11.33 31.0045 12.9483 34.7066 13.6989 36.2215C14.4479 37.7363 12.5097 41.0697 13.1954 41.7198C13.881 42.3699 15.4692 43.8483 15.5262 44.6876C15.5832 45.5268 15.8778 45.8956 16.1818 45.9624C16.4858 46.0307 16.3401 46.5426 16.7788 48.164C16.983 48.9174 17.6386 49.0684 18.2799 48.9762C16.9894 48.0718 17.6322 47.0306 17.1651 46.1293C15.8746 45.7685 15.9443 43.5176 14.0204 41.1889C12.5161 38.671 16.5286 37.6632 15.5247 36.1531Z" fill="#5F39FF"/>
</g>
<g style="mix-blend-mode:multiply" opacity="0.5">
<path d="M25.9739 21.6785C25.9058 21.8581 25.8662 21.9662 25.8662 21.9662C25.8013 21.9964 25.749 22.025 25.6904 22.0536C26.6057 22.0536 27.1108 21.2318 28.0672 21.7119C27.3689 21.3621 26.7419 21.1746 25.9755 21.6801L25.9739 21.6785Z" fill="#5F39FF"/>
</g>
<g style="mix-blend-mode:multiply" opacity="0.3">
<path d="M19.9141 32.4556C19.979 33.1137 20.0329 33.4061 19.7051 34.406C21.1207 35.2834 22.8673 35.0291 24.0818 35.0482C25.149 35.0657 30.5154 34.8177 33.1693 32.3745C29.1663 34.7366 23.3059 35.8605 19.9125 32.4556H19.9141Z" fill="#5F39FF"/>
</g>
<g style="mix-blend-mode:screen">
<path d="M13.458 27.9571C16.4207 25.1897 20.0373 27.0193 22.4014 25.4329C24.7671 23.8465 23.7743 23.0882 25.9816 22.0646C25.9816 22.0646 26.9729 19.9043 27.7551 17.8665C28.5374 15.8286 29.1866 14.5252 30.4391 13.5333C31.6916 12.543 35.1373 12.1964 36.6796 14.3599C37.2449 14.4123 37.6376 14.6396 37.9178 14.9353C37.6376 14.5125 37.1926 14.1484 36.4579 14.0801C34.9156 11.9183 31.6853 12.3173 30.4328 13.3092C29.1802 14.301 28.3173 15.5505 27.5334 17.5883C26.7512 19.6261 25.8676 21.9708 25.8676 21.9708C23.6603 22.9945 24.5439 23.5667 22.1797 25.1531C19.8156 26.7395 16.4222 25.0498 13.4596 27.8188C10.1517 27.9365 11.1129 33.2107 8.96094 33.0072C10.9545 33.6446 10.5872 28.0573 13.458 27.9555V27.9571Z" fill="#73E9FE"/>
</g>
<path d="M34.6579 14.592C35.429 13.2488 33.5463 11.257 31.2012 11.6989C32.4062 12.5525 32.6944 13.8004 32.6944 13.8004C33.1045 14.5872 34.6579 14.5936 34.6579 14.5936V14.592Z" fill="url(#paint18_linear_2562_1476)"/>
<path d="M33.2787 15.3312C32.0135 13.9355 29.3912 15.1023 29.1901 13.1328C29.1458 15.9241 31.255 16.2039 32.289 16.2961C31.5653 16.0068 31.0333 15.3312 31.0333 15.3312C31.7601 15.6539 33.2787 15.3312 33.2787 15.3312Z" fill="url(#paint19_linear_2562_1476)"/>
<path d="M36.9666 17.3674C36.7228 15.9495 35.5146 16.7332 35.3135 15.9829C35.3072 17.377 36.9666 17.3674 36.9666 17.3674Z" fill="url(#paint20_linear_2562_1476)"/>
<g style="mix-blend-mode:multiply" opacity="0.5">
<path d="M37.1469 23.2552C36.5452 22.6035 36.5183 22.0233 36.0702 21.4224C35.622 20.8216 35.1533 20.6436 35.1533 20.6436C35.1533 20.6436 35.7693 21.0107 36.124 21.6959C36.4787 22.381 36.5389 23.1424 36.9347 23.4078L37.1469 23.2536V23.2552Z" fill="#5F39FF"/>
</g>
<g style="mix-blend-mode:multiply" opacity="0.5">
<path d="M38.5273 22.7071C38.4291 22.4353 37.6358 22.4878 37.753 22.6896C37.7942 22.7612 37.9003 22.6213 38.0016 22.7024C38.2518 22.9011 38.5621 22.8041 38.5273 22.7071Z" fill="#5F39FF"/>
</g>
<g style="mix-blend-mode:multiply" opacity="0.3">
<path d="M16.2598 45.9988C16.7427 46.1324 17.2304 45.9639 17.2304 45.9639C17.2304 45.9639 16.4434 46.7173 16.5701 47.2848C16.5701 47.2848 16.4815 46.2579 16.2598 46.0004V45.9988Z" fill="#5F39FF"/>
</g>
<g style="mix-blend-mode:multiply" opacity="0.3">
<path d="M19.3825 48.5851C19.3413 47.8793 18.2139 46.4551 18.2139 46.4551C18.2139 46.4551 19.0309 47.6822 19.1212 48.7234L19.3809 48.5835L19.3825 48.5851Z" fill="#5F39FF"/>
</g>
<g style="mix-blend-mode:multiply" opacity="0.5">
<path d="M19.7066 34.4061C20.549 32.5273 19.1777 30.7612 19.1777 30.7612C20.9829 32.3524 20.0708 33.5128 21.1634 34.4363C22.256 35.3583 25.5354 34.9879 25.5354 34.9879C25.5354 34.9879 20.853 35.5951 19.705 34.4061H19.7066Z" fill="#5F39FF"/>
</g>
<g style="mix-blend-mode:multiply" opacity="0.5">
<path d="M12.8217 28.8665C13.1209 28.3261 13.2983 28.1782 13.2983 28.1782C12.1202 28.6233 11.8003 29.4753 11.5691 30.5753C11.338 31.6769 10.1979 33.4143 8.95801 33.001C8.95801 33.001 10.9389 34.0263 12.3672 29.8473L12.8217 28.8649V28.8665Z" fill="#5F39FF"/>
</g>
<g style="mix-blend-mode:multiply" opacity="0.5">
<path d="M33.3654 32.2015C31.85 32.3923 30.9205 31.4958 30.9205 31.4958C29.3671 32.2604 27.4971 31.1826 27.4971 31.1826C29.3671 32.2588 31.0567 31.979 31.0567 31.979C31.28 32.6879 32.6782 32.7944 32.6782 32.7944C32.6782 32.7944 33.3116 32.3891 33.367 32.2015H33.3654Z" fill="#5F39FF"/>
</g>
<g style="mix-blend-mode:multiply" opacity="0.5">
<path d="M34.7034 27.247C33.8278 28.0068 31.9355 25.8736 30.1826 27.2183C31.2451 26.2678 32.5119 26.6763 33.3163 26.7876C34.1207 26.8988 34.4073 26.1533 34.4073 26.1533C34.4073 26.1533 34.7161 26.8782 34.7018 27.247H34.7034Z" fill="#5F39FF"/>
</g>
<g style="mix-blend-mode:screen">
<path d="M35.666 26.25C35.666 26.25 37.0531 24.8321 37.8734 25.266C38.9691 25.8494 39.0483 27.4628 39.0483 27.4628C39.0483 27.4628 38.9818 25.3042 37.6374 24.9958C36.8504 24.8146 35.666 26.25 35.666 26.25Z" fill="#73E9FE"/>
</g>
<g style="mix-blend-mode:multiply" opacity="0.5">
<path d="M34.0955 25.3521C34.0955 25.3521 32.8446 24.0725 31.6712 23.2809C30.8478 22.7261 29.8043 22.5449 30.368 22.6371C33.261 22.8549 34.0955 25.3521 34.0955 25.3521Z" fill="#5F39FF"/>
</g>
<g style="mix-blend-mode:multiply" opacity="0.5">
<path d="M33.8545 20.777C33.7548 20.2556 32.241 19.7629 32.1634 17.981C32.0383 20.0792 33.0169 21.7101 33.0169 21.7101C33.1531 21.1283 33.5996 20.6737 33.8561 20.777H33.8545Z" fill="#5F39FF"/>
</g>
<path d="M35.7522 14.9434C36.5139 15.611 37.5194 15.2581 37.5194 15.2581C37.5194 15.2581 38.9461 9.36398 33.073 8.12252C27.9077 7.02889 23.5769 13.4587 25.884 18.2497C28.055 22.7578 34.0848 21.8803 34.9193 18.4119C34.9193 18.4119 30.8799 21.8787 28.5126 18.1098C26.2625 14.5285 29.0494 11.3812 31.8775 10.9647C35.6524 10.4099 35.7538 14.9418 35.7538 14.9418L35.7522 14.9434Z" fill="url(#paint21_linear_2562_1476)"/>
<path d="M25.9675 18.3973C28.2018 22.7273 34.0923 21.8388 34.9173 18.4116C34.9173 18.4116 30.8778 21.8785 28.5106 18.1096C26.4473 14.8255 28.6198 11.9087 31.174 11.125C27.5193 11.5272 25.0475 15.0687 25.9659 18.3957L25.9675 18.3973Z" fill="url(#paint22_linear_2562_1476)"/>
<g style="mix-blend-mode:multiply" opacity="0.5">
<path d="M28.5489 12.9756C29.2013 12.095 30.1546 11.4385 31.1759 11.127C27.5213 11.5291 25.0495 15.0707 25.9679 18.3977C25.9774 18.4152 25.9869 18.4263 25.9964 18.4438C25.5071 16.371 26.8309 13.7847 28.5489 12.9756Z" fill="#5F39FF"/>
</g>
<g style="mix-blend-mode:multiply" opacity="0.5">
<path d="M26.0547 15.2517C26.0547 10.4098 32.4424 6.52963 36.1192 9.64203C35.432 8.96964 34.4566 8.41646 33.071 8.12398C27.9057 7.03035 23.575 13.4602 25.8821 18.2512C27.1156 20.812 29.5937 21.6338 31.6586 21.2301C28.4742 21.7626 26.0547 18.2798 26.0547 15.2517Z" fill="#5F39FF"/>
</g>
<g style="mix-blend-mode:screen">
<path d="M26.175 18.4802C23.8679 13.6892 27.4719 7.23394 33.7361 8.33075C33.8818 8.35618 34.0164 8.39751 34.1525 8.43248C33.8216 8.31009 33.4637 8.20517 33.071 8.12252C27.9057 7.02889 23.575 13.4587 25.8821 18.2497C26.6817 19.9092 28.0039 20.8344 29.3974 21.1745C28.2573 20.7263 26.8464 19.8743 26.1766 18.4818L26.175 18.4802Z" fill="#73E9FE"/>
</g>
<g style="mix-blend-mode:multiply" opacity="0.5">
<path d="M35.049 35.4444C36.11 34.9882 36.8304 33.9502 36.8304 33.9502C35.9009 34.9198 34.8115 35.2568 34.8115 35.2568L35.049 35.4444Z" fill="#5F39FF"/>
</g>
<g style="mix-blend-mode:multiply" opacity="0.5">
<path d="M32.6435 37.2643C33.4828 37.2086 34.5801 36.2549 34.5801 36.2549C33.5635 36.8716 33.4115 36.8271 32.4678 36.994C32.4678 36.994 32.577 37.1848 32.6451 37.2643H32.6435Z" fill="#5F39FF"/>
</g>
<path d="M29.7793 22.3701C29.0604 22.3415 28.796 23.5575 28.796 23.5575C28.796 23.5575 28.5188 22.3431 27.8015 22.3844C26.9813 22.4321 26.9861 23.3064 27.4263 23.6847C27.4263 23.6847 26.9908 23.0409 27.4595 22.7214C28.6044 21.9394 28.8609 26.0882 28.8609 26.0882C29.0066 24.0662 29.1332 22.1158 30.1657 22.7167C30.5647 22.9487 30.1736 23.664 30.1736 23.664C30.5409 23.2905 30.5995 22.4051 29.7777 22.3701H29.7793Z" fill="url(#paint23_linear_2562_1476)"/>
</g>
</g>
<rect x="0.233333" y="0.233333" width="55.5333" height="55.5333" rx="27.7667" stroke="white" stroke-opacity="0.2" stroke-width="0.466667"/>
<defs>
<filter id="filter0_f_2562_1476" x="-20.7407" y="-20.7407" width="97.4815" height="97.4815" filterUnits="userSpaceOnUse" color-interpolation-filters="sRGB">
<feFlood flood-opacity="0" result="BackgroundImageFix"/>
<feBlend mode="normal" in="SourceGraphic" in2="BackgroundImageFix" result="shape"/>
<feGaussianBlur stdDeviation="10.3704" result="effect1_foregroundBlur_2562_1476"/>
</filter>
<radialGradient id="paint0_radial_2562_1476" cx="0" cy="0" r="1" gradientUnits="userSpaceOnUse" gradientTransform="translate(28 28) scale(38.6579)">
<stop stop-color="#FA1E42"/>
<stop offset="1" stop-opacity="0"/>
</radialGradient>
<radialGradient id="paint1_radial_2562_1476" cx="0" cy="0" r="1" gradientUnits="userSpaceOnUse" gradientTransform="translate(12.7876 21.5862) scale(1.1876 1.19218)">
<stop offset="0.31" stop-color="white"/>
<stop offset="0.9" stop-color="white" stop-opacity="0"/>
</radialGradient>
<radialGradient id="paint2_radial_2562_1476" cx="0" cy="0" r="1" gradientUnits="userSpaceOnUse" gradientTransform="translate(21.8009 15.131) scale(0.658723 0.661265)">
<stop offset="0.31" stop-color="white"/>
<stop offset="0.9" stop-color="white" stop-opacity="0"/>
</radialGradient>
<radialGradient id="paint3_radial_2562_1476" cx="0" cy="0" r="1" gradientUnits="userSpaceOnUse" gradientTransform="translate(10.5978 34.9914) scale(0.658723 0.661264)">
<stop offset="0.31" stop-color="white"/>
<stop offset="0.9" stop-color="white" stop-opacity="0"/>
</radialGradient>
<radialGradient id="paint4_radial_2562_1476" cx="0" cy="0" r="1" gradientUnits="userSpaceOnUse" gradientTransform="translate(23.0435 38.8572) scale(0.411702 0.413291)">
<stop offset="0.31" stop-color="white"/>
<stop offset="0.9" stop-color="white" stop-opacity="0"/>
</radialGradient>
<radialGradient id="paint5_radial_2562_1476" cx="0" cy="0" r="1" gradientUnits="userSpaceOnUse" gradientTransform="translate(18.5614 22.6545) scale(0.411702 0.413291)">
<stop offset="0.31" stop-color="white"/>
<stop offset="0.9" stop-color="white" stop-opacity="0"/>
</radialGradient>
<radialGradient id="paint6_radial_2562_1476" cx="0" cy="0" r="1" gradientUnits="userSpaceOnUse" gradientTransform="translate(40.4682 15.8239) scale(0.658722 0.661265)">
<stop offset="0.31" stop-color="white"/>
<stop offset="0.9" stop-color="white" stop-opacity="0"/>
</radialGradient>
<radialGradient id="paint7_radial_2562_1476" cx="0" cy="0" r="1" gradientUnits="userSpaceOnUse" gradientTransform="translate(42.2513 24.228) scale(2.05059 2.0585)">
<stop stop-color="white"/>
<stop offset="0.03" stop-color="white" stop-opacity="0.96"/>
<stop offset="0.18" stop-color="white" stop-opacity="0.71"/>
<stop offset="0.34" stop-color="white" stop-opacity="0.49"/>
<stop offset="0.49" stop-color="white" stop-opacity="0.32"/>
<stop offset="0.64" stop-color="white" stop-opacity="0.18"/>
<stop offset="0.78" stop-color="white" stop-opacity="0.08"/>
<stop offset="0.9" stop-color="white" stop-opacity="0.02"/>
<stop offset="1" stop-color="white" stop-opacity="0"/>
</radialGradient>
<radialGradient id="paint8_radial_2562_1476" cx="0" cy="0" r="1" gradientUnits="userSpaceOnUse" gradientTransform="translate(28.1058 42.0985) scale(2.05059 2.0585)">
<stop stop-color="white"/>
<stop offset="0.03" stop-color="white" stop-opacity="0.96"/>
<stop offset="0.18" stop-color="white" stop-opacity="0.71"/>
<stop offset="0.34" stop-color="white" stop-opacity="0.49"/>
<stop offset="0.49" stop-color="white" stop-opacity="0.32"/>
<stop offset="0.64" stop-color="white" stop-opacity="0.18"/>
<stop offset="0.78" stop-color="white" stop-opacity="0.08"/>
<stop offset="0.9" stop-color="white" stop-opacity="0.02"/>
<stop offset="1" stop-color="white" stop-opacity="0"/>
</radialGradient>
<radialGradient id="paint9_radial_2562_1476" cx="0" cy="0" r="1" gradientUnits="userSpaceOnUse" gradientTransform="translate(37.5676 38.6074) scale(1.26678 1.27166)">
<stop stop-color="white"/>
<stop offset="0.03" stop-color="white" stop-opacity="0.96"/>
<stop offset="0.18" stop-color="white" stop-opacity="0.71"/>
<stop offset="0.34" stop-color="white" stop-opacity="0.49"/>
<stop offset="0.49" stop-color="white" stop-opacity="0.32"/>
<stop offset="0.64" stop-color="white" stop-opacity="0.18"/>
<stop offset="0.78" stop-color="white" stop-opacity="0.08"/>
<stop offset="0.9" stop-color="white" stop-opacity="0.02"/>
<stop offset="1" stop-color="white" stop-opacity="0"/>
</radialGradient>
<linearGradient id="paint10_linear_2562_1476" x1="37.8148" y1="24.3964" x2="31.6287" y2="37.1287" gradientUnits="userSpaceOnUse">
<stop stop-color="#5F39FF"/>
<stop offset="0.16" stop-color="#5F3CFE"/>
<stop offset="0.31" stop-color="#6048FE"/>
<stop offset="0.46" stop-color="#625CFE"/>
<stop offset="0.6" stop-color="#6677FE"/>
<stop offset="0.75" stop-color="#6A9BFE"/>
<stop offset="0.9" stop-color="#6FC5FE"/>
<stop offset="1" stop-color="#73E9FE"/>
</linearGradient>
<linearGradient id="paint11_linear_2562_1476" x1="33.5571" y1="33.6098" x2="32.9397" y2="37.618" gradientUnits="userSpaceOnUse">
<stop stop-color="#FFE98D"/>
<stop offset="0.13" stop-color="#FEE38F"/>
<stop offset="0.28" stop-color="#FED495"/>
<stop offset="0.45" stop-color="#FEBB9F"/>
<stop offset="0.64" stop-color="#FD99AD"/>
<stop offset="0.82" stop-color="#FC6DBF"/>
<stop offset="1" stop-color="#FC3DD3"/>
</linearGradient>
<linearGradient id="paint12_linear_2562_1476" x1="17.8679" y1="36.7459" x2="25.3124" y2="48.91" gradientUnits="userSpaceOnUse">
<stop stop-color="#5F39FF"/>
<stop offset="0.11" stop-color="#614FFE"/>
<stop offset="0.91" stop-color="#73E9FE"/>
</linearGradient>
<linearGradient id="paint13_linear_2562_1476" x1="22.3718" y1="45.3996" x2="21.1323" y2="47.839" gradientUnits="userSpaceOnUse">
<stop stop-color="#FFE98D"/>
<stop offset="0.13" stop-color="#FEE38F"/>
<stop offset="0.28" stop-color="#FED495"/>
<stop offset="0.45" stop-color="#FEBB9F"/>
<stop offset="0.64" stop-color="#FD99AD"/>
<stop offset="0.82" stop-color="#FC6DBF"/>
<stop offset="1" stop-color="#FC3DD3"/>
</linearGradient>
<linearGradient id="paint14_linear_2562_1476" x1="15.0165" y1="49.5108" x2="35.2858" y2="11.2477" gradientUnits="userSpaceOnUse">
<stop offset="0.03" stop-color="#73E9FE"/>
<stop offset="0.18" stop-color="#5F39FF"/>
<stop offset="0.27" stop-color="#614FFE"/>
<stop offset="0.91" stop-color="#73E9FE"/>
</linearGradient>
<linearGradient id="paint15_linear_2562_1476" x1="12.4041" y1="29.6372" x2="12.5538" y2="29.4136" gradientUnits="userSpaceOnUse">
<stop offset="0.03" stop-color="#73E9FE"/>
<stop offset="0.18" stop-color="#5F39FF"/>
<stop offset="0.27" stop-color="#614FFE"/>
<stop offset="0.91" stop-color="#73E9FE"/>
</linearGradient>
<linearGradient id="paint16_linear_2562_1476" x1="19.5452" y1="46.4074" x2="17.5872" y2="48.282" gradientUnits="userSpaceOnUse">
<stop stop-color="#FFE98D"/>
<stop offset="0.13" stop-color="#FEE38F"/>
<stop offset="0.28" stop-color="#FED495"/>
<stop offset="0.45" stop-color="#FEBB9F"/>
<stop offset="0.64" stop-color="#FD99AD"/>
<stop offset="0.82" stop-color="#FC6DBF"/>
<stop offset="1" stop-color="#FC3DD3"/>
</linearGradient>
<linearGradient id="paint17_linear_2562_1476" x1="37.4384" y1="37.8507" x2="34.5102" y2="33.1334" gradientUnits="userSpaceOnUse">
<stop stop-color="#FFE98D"/>
<stop offset="0.13" stop-color="#FEE38F"/>
<stop offset="0.28" stop-color="#FED495"/>
<stop offset="0.45" stop-color="#FEBB9F"/>
<stop offset="0.64" stop-color="#FD99AD"/>
<stop offset="0.82" stop-color="#FC6DBF"/>
<stop offset="1" stop-color="#FC3DD3"/>
</linearGradient>
<linearGradient id="paint18_linear_2562_1476" x1="32.8882" y1="11.5265" x2="33.1462" y2="14.0263" gradientUnits="userSpaceOnUse">
<stop stop-color="#5F39FF"/>
<stop offset="0.1" stop-color="#614FFE"/>
<stop offset="0.8" stop-color="#73E9FE"/>
</linearGradient>
<linearGradient id="paint19_linear_2562_1476" x1="29.0284" y1="13.5501" x2="32.3328" y2="15.849" gradientUnits="userSpaceOnUse">
<stop stop-color="#5F39FF"/>
<stop offset="0.1" stop-color="#614FFE"/>
<stop offset="0.8" stop-color="#73E9FE"/>
</linearGradient>
<linearGradient id="paint20_linear_2562_1476" x1="39.2611" y1="18.9284" x2="34.2164" y2="15.4781" gradientUnits="userSpaceOnUse">
<stop stop-color="#5F39FF"/>
<stop offset="0.13" stop-color="#614FFE"/>
<stop offset="1" stop-color="#73E9FE"/>
</linearGradient>
<linearGradient id="paint21_linear_2562_1476" x1="26.8759" y1="13.6381" x2="37.7639" y2="16.143" gradientUnits="userSpaceOnUse">
<stop stop-color="#5F39FF"/>
<stop offset="0.1" stop-color="#614FFE"/>
<stop offset="0.8" stop-color="#73E9FE"/>
</linearGradient>
<linearGradient id="paint22_linear_2562_1476" x1="35.588" y1="20.0941" x2="26.7517" y2="13.9232" gradientUnits="userSpaceOnUse">
<stop stop-color="#FFE98D"/>
<stop offset="0.13" stop-color="#FEE38F"/>
<stop offset="0.28" stop-color="#FED495"/>
<stop offset="0.45" stop-color="#FEBB9F"/>
<stop offset="0.64" stop-color="#FD99AD"/>
<stop offset="0.82" stop-color="#FC6DBF"/>
<stop offset="1" stop-color="#FC3DD3"/>
</linearGradient>
<linearGradient id="paint23_linear_2562_1476" x1="27.1301" y1="24.2283" x2="30.4317" y2="24.2283" gradientUnits="userSpaceOnUse">
<stop stop-color="#FFE98D"/>
<stop offset="0.13" stop-color="#FEE38F"/>
<stop offset="0.28" stop-color="#FED495"/>
<stop offset="0.45" stop-color="#FEBB9F"/>
<stop offset="0.64" stop-color="#FD99AD"/>
<stop offset="0.82" stop-color="#FC6DBF"/>
<stop offset="1" stop-color="#FC3DD3"/>
</linearGradient>
<clipPath id="clip0_2562_1476">
<rect width="56" height="56" rx="28" fill="white"/>
</clipPath>
<clipPath id="clip1_2562_1476">
<rect width="40" height="41" fill="white" transform="translate(8 8)"/>
</clipPath>
</defs>
</svg>
