<svg width="28" height="28" viewBox="0 0 28 28" fill="none" xmlns="http://www.w3.org/2000/svg">
<path d="M22.6377 15.5C23.19 15.5 23.6377 15.0523 23.6377 14.5C23.6377 13.9477 23.19 13.5 22.6377 13.5V14.5V15.5ZM3.93059 13.7929C3.54006 14.1834 3.54006 14.8166 3.93059 15.2071L10.2945 21.5711C10.6851 21.9616 11.3182 21.9616 11.7088 21.5711C12.0993 21.1805 12.0993 20.5474 11.7088 20.1569L6.05191 14.5L11.7088 8.84315C12.0993 8.45262 12.0993 7.81946 11.7088 7.42893C11.3182 7.03841 10.6851 7.03841 10.2945 7.42893L3.93059 13.7929ZM22.6377 14.5V13.5L4.6377 13.5V14.5V15.5L22.6377 15.5V14.5Z" fill="white"/>
</svg>
