<svg width="73" height="64" viewBox="0 0 73 64" fill="none" xmlns="http://www.w3.org/2000/svg">
<path d="M22.1899 19.034L19.8416 40.9771L22.1899 63.3946L24.5184 40.9771L22.1899 19.034Z" fill="#CC9E49"/>
<path d="M44.3598 41.2238L22.4175 38.8763L0 41.2238L22.4175 43.5532L44.3598 41.2238Z" fill="#CC9E49"/>
<path d="M22.18 46.7066C25.213 46.7066 27.6717 44.2479 27.6717 41.2149C27.6717 38.1819 25.213 35.7231 22.18 35.7231C19.147 35.7231 16.6882 38.1819 16.6882 41.2149C16.6882 44.2479 19.147 46.7066 22.18 46.7066Z" fill="#CC9E49"/>
<path d="M56.8818 12.2514L55.1838 28.1149L56.8818 44.322L58.5657 28.1149L56.8818 12.2514Z" fill="#CC9E49"/>
<path d="M72.9096 28.2941L57.0462 26.5962L40.8398 28.2941L57.0462 29.9772L72.9096 28.2941Z" fill="#CC9E49"/>
<path d="M52.9048 28.2866C52.9048 26.0937 54.6825 24.3169 56.8746 24.3169C59.0675 24.3169 60.8443 26.0945 60.8443 28.2866C60.8443 30.4795 59.0666 32.2564 56.8746 32.2564C54.6825 32.2564 52.9048 30.4795 52.9048 28.2866Z" fill="#CC9E49"/>
<path d="M35.8299 4.57764e-05L34.5325 12.1207L35.8299 24.5036L37.1167 12.1207L35.8299 4.57764e-05Z" fill="#CC9E49"/>
<path d="M48.0765 12.2572L35.9559 10.9597L23.573 12.2572L35.9559 13.544L48.0765 12.2572Z" fill="#CC9E49"/>
<path d="M32.791 12.2514C32.791 10.5765 34.1494 9.21817 35.8243 9.21817C37.4992 9.21817 38.8575 10.5765 38.8575 12.2514C38.8575 13.9263 37.4992 15.2847 35.8243 15.2847C34.1494 15.2847 32.791 13.9271 32.791 12.2514Z" fill="#CC9E49"/>
<path d="M2.88696 19.0339C2.88696 17.3722 4.23378 16.0262 5.8947 16.0262C7.55563 16.0262 8.90244 17.373 8.90244 19.0339C8.90244 20.6948 7.55563 22.0417 5.8947 22.0417C4.23296 22.0425 2.88696 20.6957 2.88696 19.0339Z" fill="#CC9E49"/>
<path d="M48.0762 53.3641C48.0762 51.7024 49.423 50.3564 51.0839 50.3564C52.7448 50.3564 54.0917 51.7032 54.0917 53.3641C54.0917 55.025 52.7448 56.3719 51.0839 56.3719C49.423 56.3719 48.0762 55.025 48.0762 53.3641Z" fill="#CC9E49"/>
<path d="M13.2964 12.2513C13.2964 11.3436 14.0323 10.6077 14.9401 10.6077C15.8478 10.6077 16.5837 11.3436 16.5837 12.2513C16.5837 13.1591 15.8478 13.895 14.9401 13.895C14.0323 13.895 13.2964 13.1599 13.2964 12.2513Z" fill="#CC9E49"/>
<path d="M32.5369 53.3641C32.5369 52.4563 33.2728 51.7204 34.1805 51.7204C35.0883 51.7204 35.8242 52.4563 35.8242 53.3641C35.8242 54.2718 35.0883 55.0077 34.1805 55.0077C33.2728 55.0077 32.5369 54.2718 32.5369 53.3641Z" fill="#CC9E49"/>
<path d="M8.90234 6.48659C8.90234 5.80002 9.45899 5.24254 10.1456 5.24254C10.8321 5.24254 11.3896 5.79919 11.3896 6.48659C11.3896 7.17316 10.833 7.72981 10.1456 7.72981C9.45899 7.72981 8.90234 7.17316 8.90234 6.48659Z" fill="#CC9E49"/>
<path d="M43.1167 59.1098C43.1167 58.4232 43.6734 57.8666 44.3599 57.8666C45.0465 57.8666 45.604 58.4232 45.604 59.1098C45.604 59.7964 45.0473 60.353 44.3599 60.353C43.6734 60.353 43.1167 59.7964 43.1167 59.1098Z" fill="#CC9E49"/>
</svg>
