<svg width="34" height="34" viewBox="0 0 34 34" fill="none" xmlns="http://www.w3.org/2000/svg">
<g clip-path="url(#clip0_2901_1531)">
<path d="M11.8838 25.6045H21.4071C21.4921 25.6045 21.5763 25.6212 21.6549 25.6538C21.7334 25.6863 21.8048 25.734 21.8649 25.7941C21.925 25.8542 21.9727 25.9256 22.0053 26.0042C22.0378 26.0827 22.0545 26.1669 22.0545 26.2519V32.1622C22.0559 32.2831 22.0233 32.402 21.9606 32.5053C21.8978 32.6087 21.8074 32.6924 21.6995 32.747C20.1359 33.5539 18.4049 33.9831 16.6455 34.0001C14.886 33.9831 13.155 33.5539 11.5914 32.747C11.4835 32.6924 11.3931 32.6087 11.3303 32.5053C11.2676 32.402 11.235 32.2831 11.2364 32.1622V26.2519C11.2364 26.1669 11.2531 26.0827 11.2856 26.0042C11.3182 25.9256 11.3659 25.8542 11.426 25.7941C11.4861 25.734 11.5575 25.6863 11.636 25.6538C11.7146 25.6212 11.7988 25.6045 11.8838 25.6045Z" fill="white"/>
<path d="M16.6455 34.0001C14.8863 33.9808 13.1558 33.5518 11.5914 32.747C11.4835 32.6924 11.3931 32.6087 11.3303 32.5053C11.2676 32.402 11.235 32.2831 11.2364 32.1622V26.2519C11.2364 26.1669 11.2531 26.0827 11.2856 26.0042C11.3182 25.9256 11.3659 25.8542 11.426 25.7941C11.4861 25.734 11.5575 25.6863 11.636 25.6538C11.7146 25.6212 11.7988 25.6045 11.8838 25.6045H21.4071C21.4921 25.6045 21.5763 25.6212 21.6549 25.6538C21.7334 25.6863 21.8048 25.734 21.8649 25.7941C21.925 25.8542 21.9727 25.9256 22.0053 26.0042C22.0378 26.0827 22.0545 26.1669 22.0545 26.2519V32.1622C22.0559 32.2831 22.0233 32.402 21.9606 32.5053C21.8978 32.6087 21.8074 32.6924 21.6995 32.747C20.1351 33.5518 18.4046 33.9808 16.6455 34.0001ZM12.2806 31.9116C13.6357 32.5898 15.1301 32.9429 16.6455 32.9429C18.1608 32.9429 19.6552 32.5898 21.0103 31.9116V26.6487H12.2806V31.9116Z" fill="white"/>
<path d="M5.1377 15.5172C5.1377 17.064 5.4402 18.5957 6.02795 20.0247C6.61569 21.4538 7.47717 22.7523 8.56318 23.8461C9.64919 24.9398 10.9385 25.8075 12.3574 26.3994C13.7764 26.9914 15.2972 27.296 16.833 27.296C18.3689 27.296 19.8897 26.9914 21.3086 26.3994C22.7276 25.8075 24.0169 24.9398 25.1029 23.8461C26.1889 22.7523 27.0504 21.4538 27.6381 20.0247C28.2259 18.5957 28.5284 17.064 28.5284 15.5172C28.5284 13.9703 28.2259 12.4387 27.6381 11.0096C27.0504 9.58049 26.1889 8.282 25.1029 7.18823C24.0169 6.09446 22.7276 5.22684 21.3086 4.63489C19.8897 4.04295 18.3689 3.73828 16.833 3.73828C15.2972 3.73828 13.7764 4.04295 12.3574 4.63489C10.9385 5.22684 9.64919 6.09446 8.56318 7.18823C7.47717 8.282 6.61569 9.58049 6.02795 11.0096C5.4402 12.4387 5.1377 13.9703 5.1377 15.5172Z" fill="white"/>
<path d="M16.8331 27.2752C14.5 27.2918 12.2145 26.615 10.2665 25.3309C8.31854 24.0467 6.79582 22.2129 5.89148 20.0621C4.98714 17.9113 4.74193 15.5404 5.18694 13.25C5.63196 10.9597 6.74714 8.85309 8.39107 7.19742C10.035 5.54175 12.1336 4.4116 14.4207 3.9503C16.7079 3.48899 19.0805 3.71732 21.2376 4.60633C23.3948 5.49534 25.2394 7.00497 26.5374 8.94376C27.8354 10.8826 28.5284 13.1632 28.5285 15.4964C28.534 18.6076 27.3063 21.5941 25.1142 23.8019C22.9221 26.0097 19.9443 27.2586 16.8331 27.2752ZM16.8331 4.78259C14.7065 4.76604 12.6229 5.38152 10.8467 6.55096C9.07042 7.72039 7.68154 9.39107 6.85624 11.3511C6.03093 13.311 5.8064 15.472 6.21111 17.5598C6.61583 19.6476 7.63156 21.5681 9.12945 23.0777C10.6273 24.5874 12.5399 25.6181 14.6244 26.0391C16.709 26.4601 18.8716 26.2525 20.838 25.4425C22.8044 24.6325 24.4859 23.2567 25.6691 21.4897C26.8524 19.7226 27.4842 17.6439 27.4842 15.5172C27.4898 12.683 26.3721 9.96199 24.3758 7.95005C22.3795 5.93811 19.6673 4.79916 16.8331 4.78259Z" fill="white"/>
<path d="M12.2174 28.6116C12.079 28.6116 11.9462 28.5566 11.8482 28.4587C11.7503 28.3608 11.6953 28.228 11.6953 28.0895C11.6953 27.951 11.7503 27.8182 11.8482 27.7203C11.9462 27.6224 12.079 27.5674 12.2174 27.5674H21.1142C21.2527 27.5674 21.3855 27.6224 21.4834 27.7203C21.5813 27.8182 21.6363 27.951 21.6363 28.0895C21.6363 28.228 21.5813 28.3608 21.4834 28.4587C21.3855 28.5566 21.2527 28.6116 21.1142 28.6116H12.2174Z" fill="white"/>
<path d="M18.1284 31.1599H12.1763C12.0378 31.1599 11.9051 31.1049 11.8072 31.007C11.7093 30.9091 11.6543 30.7763 11.6543 30.6378C11.6543 30.4994 11.7093 30.3666 11.8072 30.2687C11.9051 30.1708 12.0378 30.1158 12.1763 30.1157H18.1284C18.2668 30.1158 18.3996 30.1708 18.4975 30.2687C18.5954 30.3666 18.6503 30.4994 18.6503 30.6378C18.6503 30.7763 18.5954 30.9091 18.4975 31.007C18.3996 31.1049 18.2668 31.1599 18.1284 31.1599Z" fill="white"/>
<path d="M13.8886 9.58594L16.4991 14.6191L19.1306 9.58594H21.3235L18.0655 15.4545H20.3001V16.4987H17.4598V17.9397H20.3001V18.984H17.4598V21.511H15.5802V18.984H12.719V17.9397H15.5802V16.5196H12.719V15.4545H14.9328L11.6748 9.58594H13.8886Z" fill="#343131"/>
<path d="M26.1478 6.05661C26.0152 6.05474 25.8883 6.00247 25.7928 5.91042C25.6971 5.81282 25.6436 5.6816 25.6436 5.54494C25.6436 5.40827 25.6971 5.27706 25.7928 5.17946L28.111 2.73597C28.2079 2.63627 28.3405 2.57916 28.4795 2.5772C28.6186 2.57524 28.7527 2.6286 28.8524 2.72553C28.9521 2.82246 29.0092 2.95503 29.0112 3.09407C29.0131 3.23311 28.9598 3.36723 28.8628 3.46693L26.5238 5.91042C26.4739 5.9585 26.415 5.99618 26.3505 6.02128C26.286 6.04638 26.2171 6.05839 26.1478 6.05661Z" fill="white"/>
<path d="M8.0405 6.05661C7.96979 6.05567 7.90001 6.04038 7.83539 6.01166C7.77077 5.98294 7.71266 5.94139 7.66458 5.88953L5.30463 3.46693C5.25663 3.41756 5.21883 3.35923 5.19338 3.29525C5.16793 3.23127 5.15533 3.16291 5.1563 3.09407C5.15826 2.95503 5.21537 2.82246 5.31507 2.72553C5.41477 2.6286 5.5489 2.57524 5.68794 2.5772C5.82698 2.57916 5.95954 2.63627 6.05647 2.73597L8.41642 5.17946C8.48512 5.25352 8.53086 5.34591 8.5481 5.44544C8.56534 5.54497 8.55333 5.64737 8.51354 5.74021C8.47375 5.83306 8.40788 5.91237 8.32392 5.96853C8.23996 6.02469 8.14151 6.05528 8.0405 6.05661Z" fill="white"/>
<path d="M16.7497 3.69643C16.6112 3.69643 16.4784 3.64142 16.3805 3.54351C16.2825 3.44559 16.2275 3.31279 16.2275 3.17432V0.521981C16.2276 0.383531 16.2826 0.250764 16.3805 0.152877C16.4784 0.0549901 16.6112 0 16.7497 0C16.8881 0 17.0209 0.0549901 17.1188 0.152877C17.2167 0.250764 17.2717 0.383531 17.2718 0.521981V3.17432C17.2718 3.31279 17.2168 3.44559 17.1188 3.54351C17.0209 3.64142 16.8881 3.69643 16.7497 3.69643Z" fill="white"/>
</g>
<defs>
<clipPath id="clip0_2901_1531">
<rect width="34" height="34" fill="white"/>
</clipPath>
</defs>
</svg>
