<svg width="40" height="40" viewBox="0 0 40 40" fill="none" xmlns="http://www.w3.org/2000/svg">
<path d="M0 20C0 8.95431 8.95431 0 20 0C31.0457 0 40 8.95431 40 20C40 31.0457 31.0457 40 20 40C8.95431 40 0 31.0457 0 20Z" fill="#5EC4FF" fill-opacity="0.15"/>
<path d="M17 12.5V15.5" stroke="#5EC4FF" stroke-width="1.5" stroke-linecap="round" stroke-linejoin="round"/>
<path d="M23 12.5V15.5" stroke="#5EC4FF" stroke-width="1.5" stroke-linecap="round" stroke-linejoin="round"/>
<path d="M25.25 14H14.75C13.9216 14 13.25 14.6716 13.25 15.5V26C13.25 26.8284 13.9216 27.5 14.75 27.5H25.25C26.0784 27.5 26.75 26.8284 26.75 26V15.5C26.75 14.6716 26.0784 14 25.25 14Z" stroke="#5EC4FF" stroke-width="1.5" stroke-linecap="round" stroke-linejoin="round"/>
<path d="M13.25 18.5H26.75" stroke="#5EC4FF" stroke-width="1.5" stroke-linecap="round" stroke-linejoin="round"/>
</svg>
