<svg width="56" height="56" viewBox="0 0 56 56" fill="none" xmlns="http://www.w3.org/2000/svg">
<g clip-path="url(#clip0_2562_1319)">
<g filter="url(#filter0_f_2562_1319)">
<path d="M56 0H0V56H56V0Z" fill="url(#paint0_radial_2562_1319)"/>
</g>
<g opacity="0.2">
<g style="mix-blend-mode:screen" opacity="0.5">
<path d="M44.4326 26.6552C44.4326 35.2474 37.423 42.2147 28.7759 42.2147C20.1287 42.2147 13.1191 35.2487 13.1191 26.6552C13.1191 18.0617 20.1287 11.0957 28.7759 11.0957C37.423 11.0957 44.4326 18.0617 44.4326 26.6552Z" stroke="#FC3DD3" stroke-width="2.62" stroke-miterlimit="10"/>
</g>
<g style="mix-blend-mode:screen" opacity="0.5">
<path d="M43.7044 26.6554C43.7044 34.8495 37.0208 41.4916 28.7756 41.4916C20.5303 41.4916 13.8467 34.8495 13.8467 26.6554C13.8467 18.4614 20.5303 11.8179 28.7756 11.8179C37.0208 11.8179 43.7044 18.4614 43.7044 26.6541V26.6554Z" stroke="#FC3DD3" stroke-width="1.35" stroke-miterlimit="10"/>
</g>
<g style="mix-blend-mode:screen" opacity="0.5">
<path d="M42.9181 26.6553C42.9181 34.4175 36.5862 40.7102 28.7755 40.7102C20.9648 40.7102 14.6328 34.4175 14.6328 26.6553C14.6328 18.8931 20.9648 12.5991 28.7755 12.5991C36.5862 12.5991 42.9181 18.8918 42.9181 26.654V26.6553Z" fill="#FC3DD3"/>
</g>
</g>
<g style="mix-blend-mode:screen" opacity="0.9">
<path style="mix-blend-mode:screen" opacity="0.9" d="M28.7758 16.3291C28.7758 17.3358 27.8076 17.3884 27.8076 17.3884C27.8076 17.3884 28.7758 17.4424 28.7758 18.4491C28.7758 17.4424 29.744 17.3884 29.744 17.3884C29.744 17.3884 28.7758 17.3358 28.7758 16.3291Z" fill="url(#paint1_radial_2562_1319)"/>
<path style="mix-blend-mode:screen" opacity="0.9" d="M23.7887 20.6475C23.7887 21.2061 23.251 21.2345 23.251 21.2345C23.251 21.2345 23.7887 21.2642 23.7887 21.8229C23.7887 21.2642 24.3251 21.2345 24.3251 21.2345C24.3251 21.2345 23.7887 21.2048 23.7887 20.6475Z" fill="url(#paint2_radial_2562_1319)"/>
<path style="mix-blend-mode:screen" opacity="0.9" d="M33.0885 37.6777C33.0885 38.2364 32.5508 38.2648 32.5508 38.2648C32.5508 38.2648 33.0885 38.2944 33.0885 38.8531C33.0885 38.2944 33.6249 38.2648 33.6249 38.2648C33.6249 38.2648 33.0885 38.2351 33.0885 37.6777Z" fill="url(#paint3_radial_2562_1319)"/>
<path style="mix-blend-mode:screen" opacity="0.9" d="M43.2543 25.3745C43.2543 25.7227 42.9189 25.7416 42.9189 25.7416C42.9189 25.7416 43.2543 25.7605 43.2543 26.1086C43.2543 25.7605 43.5898 25.7416 43.5898 25.7416C43.5898 25.7416 43.2543 25.7227 43.2543 25.3745Z" fill="url(#paint4_radial_2562_1319)"/>
<path style="mix-blend-mode:screen" opacity="0.9" d="M14.6333 25.7417C14.6333 26.0912 14.2979 26.1088 14.2979 26.1088C14.2979 26.1088 14.6333 26.1277 14.6333 26.4758C14.6333 26.1263 14.9687 26.1088 14.9687 26.1088C14.9687 26.1088 14.6333 26.0899 14.6333 25.7417Z" fill="url(#paint5_radial_2562_1319)"/>
<path style="mix-blend-mode:screen" opacity="0.9" d="M15.9758 15.9619C15.9758 16.5192 15.4395 16.5503 15.4395 16.5503C15.4395 16.5503 15.9758 16.58 15.9758 17.1387C15.9758 16.58 16.5122 16.5503 16.5122 16.5503C16.5122 16.5503 15.9758 16.5206 15.9758 15.9619Z" fill="url(#paint6_radial_2562_1319)"/>
<path style="mix-blend-mode:color-dodge" opacity="0.9" d="M25.5947 38.5415C25.5947 39.644 24.5342 39.7021 24.5342 39.7021C24.5342 39.7021 25.5947 39.7614 25.5947 40.864C25.5947 39.7614 26.6552 39.7021 26.6552 39.7021C26.6552 39.7021 25.5947 39.6427 25.5947 38.5415Z" fill="url(#paint7_radial_2562_1319)"/>
<path style="mix-blend-mode:color-dodge" opacity="0.9" d="M42.1776 18.0791C42.1776 18.8159 41.4688 18.8551 41.4688 18.8551C41.4688 18.8551 42.1776 18.8942 42.1776 19.631C42.1776 18.8942 42.8864 18.8551 42.8864 18.8551C42.8864 18.8551 42.1776 18.8159 42.1776 18.0791Z" fill="url(#paint8_radial_2562_1319)"/>
<path style="mix-blend-mode:color-dodge" opacity="0.9" d="M34.0274 22.3164C34.0274 23.1139 33.2588 23.1571 33.2588 23.1571C33.2588 23.1571 34.0274 23.2003 34.0274 23.9979C34.0274 23.199 34.7959 23.1571 34.7959 23.1571C34.7959 23.1571 34.0274 23.1139 34.0274 22.3164Z" fill="url(#paint9_radial_2562_1319)"/>
</g>
<g style="mix-blend-mode:screen">
<path d="M38.517 15.51C39.2054 15.9783 40.1465 15.8042 40.619 15.12C41.0902 14.4358 40.915 13.5006 40.2252 13.031C39.5367 12.5614 38.5957 12.7368 38.1245 13.421C37.7973 13.896 37.7878 14.4871 38.0376 14.9634L31.3431 20.0753C31.0566 19.9228 30.6967 19.9957 30.5094 20.2683C30.4157 20.4032 30.3871 20.5638 30.4075 20.7149L27.4215 22.5489C27.3821 22.5111 27.3413 22.4747 27.2952 22.4423C26.8267 22.1224 26.1858 22.2425 25.8639 22.7095C25.8151 22.7796 25.7797 22.8552 25.7512 22.9321L15.8127 21.9403C15.7801 21.5003 15.5601 21.0793 15.1663 20.8107C14.4779 20.3425 13.5368 20.5166 13.0643 21.2021C12.5931 21.8863 12.7682 22.8215 13.4567 23.2911C14.1452 23.7594 15.0862 23.5853 15.5587 22.8997C15.6552 22.7607 15.7176 22.6083 15.7611 22.4558L25.6983 23.4463C25.7404 23.7108 25.8843 23.9577 26.1219 24.1237L20.5844 38.9329C20.0154 38.829 19.4111 39.0544 19.0635 39.5591C18.5923 40.2433 18.7675 41.1785 19.456 41.6481C20.1444 42.1164 21.0854 41.9423 21.558 41.2581C22.0292 40.5739 21.854 39.6387 21.1656 39.1691C21.1357 39.1475 21.1031 39.1353 21.0719 39.1178L26.6121 24.3005C26.9734 24.3356 27.3427 24.1844 27.5627 23.866C27.7474 23.5988 27.7813 23.2762 27.693 22.9888L30.675 21.1562C30.9683 21.3559 31.3703 21.2817 31.5712 20.9902C31.6785 20.835 31.7016 20.6515 31.6609 20.4815L38.3526 15.3723C38.4042 15.4196 38.4558 15.4682 38.5156 15.5086L38.517 15.51Z" fill="#FC3DD3"/>
</g>
<path d="M21.5501 29.6133C19.2498 29.2921 17.5347 28.4028 14.8298 28.2625C12.1234 28.1208 11.898 27.4312 11.6047 26.9764C11.3114 26.5216 10.9733 26.6593 10.9733 26.6593C10.2061 25.8253 10.2509 23.7646 10.2509 23.7646C9.50675 26.8604 10.7017 27.8522 10.7017 27.8522C10.7479 28.3245 12.0773 28.3934 12.5295 29.0681C12.9803 29.7442 13.8154 29.6416 14.785 29.6133C15.7559 29.585 21.0544 31.2745 22.4979 30.7779C23.9413 30.284 21.5514 29.6133 21.5514 29.6133H21.5501Z" fill="url(#paint10_linear_2562_1319)"/>
<path style="mix-blend-mode:multiply" opacity="0.79" d="M21.5496 29.6132C20.5366 29.4715 19.6376 29.2205 18.717 28.9722C18.163 29.7441 17.2301 29.9802 16.3135 29.8804C18.2906 30.327 21.4355 31.1435 22.496 30.7791C23.9395 30.2852 21.5496 29.6145 21.5496 29.6145V29.6132Z" fill="url(#paint11_linear_2562_1319)"/>
<path style="mix-blend-mode:multiply" opacity="0.3" d="M10.9716 26.6593C10.8167 27.0305 10.8045 27.4016 10.8045 27.4016C10.8045 27.4016 10.3985 26.4326 10.3809 25.4219C10.4854 25.8726 10.666 26.3274 10.9702 26.6593H10.9716Z" fill="url(#paint12_linear_2562_1319)"/>
<path d="M21.8571 31.9845C19.5419 31.7983 17.6748 32.2922 15.0038 31.8401C12.3314 31.3894 11.9607 32.0142 11.5764 32.3947C11.1907 32.7726 10.8893 32.5675 10.8893 32.5675C9.95911 33.2139 9.55309 35.234 9.55309 35.234C9.50285 32.0506 10.8852 31.3448 10.8852 31.3448C11.0332 30.8928 12.3463 31.1168 12.9343 30.5554C13.5223 29.994 14.3139 30.2747 15.2536 30.5136C16.1946 30.7524 21.7349 30.2585 23.0358 31.0547C24.3367 31.8522 21.8571 31.9858 21.8571 31.9858V31.9845Z" fill="url(#paint13_linear_2562_1319)"/>
<path style="mix-blend-mode:multiply" opacity="0.79" d="M21.8575 31.9845C20.839 31.9022 19.9062 31.9521 18.9529 31.9953C18.5808 31.1222 17.7226 30.6876 16.8047 30.5864C18.832 30.581 22.0788 30.4677 23.0348 31.0547C24.3357 31.8523 21.8561 31.9859 21.8561 31.9859L21.8575 31.9845Z" fill="url(#paint14_linear_2562_1319)"/>
<path style="mix-blend-mode:multiply" opacity="0.3" d="M10.8898 32.5676C10.8192 32.1722 10.8898 31.8052 10.8898 31.8052C10.8898 31.8052 10.3154 32.4853 9.99219 33.7592C10.1972 33.3031 10.4865 32.847 10.8898 32.5676Z" fill="url(#paint15_linear_2562_1319)"/>
<path d="M22.0603 33.4513C20.037 33.6375 18.5053 34.3473 16.1344 34.3608C13.7635 34.377 13.5394 34.9708 13.2651 35.3554C12.9908 35.74 12.7003 35.6091 12.7003 35.6091C11.9969 36.3068 11.9534 38.1083 11.9534 38.1083C11.4279 35.3729 12.5115 34.5551 12.5115 34.5551C12.5699 34.1449 13.735 34.1381 14.1559 33.5673C14.5769 32.9951 15.302 33.1166 16.148 33.18C16.994 33.2448 21.6923 31.9803 22.9335 32.4715C24.176 32.9614 22.059 33.4513 22.059 33.4513H22.0603Z" fill="url(#paint16_linear_2562_1319)"/>
<path style="mix-blend-mode:multiply" opacity="0.79" d="M22.06 33.4511C21.1692 33.5334 20.3749 33.7169 19.5601 33.8978C19.1066 33.2014 18.3013 32.9585 17.4961 33.0085C19.2424 32.6967 22.022 32.111 22.9345 32.4714C24.177 32.9612 22.06 33.4511 22.06 33.4511Z" fill="url(#paint17_linear_2562_1319)"/>
<path style="mix-blend-mode:multiply" opacity="0.3" d="M12.7018 35.6103C12.581 35.2784 12.5864 34.9531 12.5864 34.9531C12.5864 34.9531 12.1939 35.6252 12.1084 36.7722C12.2157 36.3485 12.3963 35.9113 12.7018 35.6103Z" fill="url(#paint18_linear_2562_1319)"/>
<path d="M25.0715 34.5173C23.9173 36.1852 21.3237 34.1947 19.8123 36.0192C18.3023 37.8424 18.0973 39.6277 18.2154 40.0852C18.3349 40.5427 18.0484 40.679 18.0484 40.679C18.1312 41.6668 19.4878 42.8557 19.4878 42.8557C17.0503 41.5022 17.1182 40.1473 17.1182 40.1473C16.8398 39.8396 17.2554 38.6224 17.3368 38.1271C17.4523 37.4267 18.324 35.8559 18.9161 35.25C19.5081 34.6428 23.7081 33.856 24.8814 33.2191C26.056 32.5848 25.0729 34.5186 25.0729 34.5186L25.0715 34.5173Z" fill="url(#paint19_linear_2562_1319)"/>
<path style="mix-blend-mode:multiply" opacity="0.79" d="M24.8803 33.2176C24.1647 33.6076 22.3193 34.0502 20.8555 34.4767C21.6512 34.5009 22.394 34.8936 23.1082 35.2391C23.8877 35.2688 24.6006 35.1973 25.0718 34.5171C25.0718 34.5171 26.0549 32.5833 24.8803 33.2176Z" fill="url(#paint20_linear_2562_1319)"/>
<path style="mix-blend-mode:multiply" opacity="0.3" d="M18.0482 40.6777C17.7169 40.5576 17.4697 40.3457 17.4697 40.3457C17.4697 40.3457 17.7332 41.0771 18.5588 41.8787C18.3021 41.5238 18.0835 41.1055 18.0468 40.6777H18.0482Z" fill="url(#paint21_linear_2562_1319)"/>
<path d="M36.0024 29.6133C38.3027 29.2921 40.0164 28.4028 42.7241 28.2625C45.4304 28.1208 45.6558 27.4312 45.9491 26.9764C46.2424 26.5216 46.5806 26.6593 46.5806 26.6593C47.3478 25.8253 47.3016 23.7646 47.3016 23.7646C48.0457 26.8604 46.8508 27.8522 46.8508 27.8522C46.8046 28.3245 45.4752 28.3934 45.0244 29.0681C44.5736 29.7442 43.7384 29.6416 42.7689 29.6133C41.7994 29.585 36.4994 31.2745 35.056 30.7779C33.6125 30.284 36.0038 29.6133 36.0038 29.6133H36.0024Z" fill="url(#paint22_linear_2562_1319)"/>
<path style="mix-blend-mode:multiply" opacity="0.79" d="M36.0028 29.6132C37.0158 29.4715 37.9147 29.2205 38.8341 28.9722C39.3881 29.7441 40.321 29.9802 41.2376 29.8804C39.2604 30.327 36.1155 31.1435 35.055 30.7791C33.6115 30.2852 36.0028 29.6145 36.0028 29.6145V29.6132Z" fill="url(#paint23_linear_2562_1319)"/>
<path style="mix-blend-mode:multiply" opacity="0.3" d="M46.5791 26.6593C46.7339 27.0305 46.7461 27.4016 46.7461 27.4016C46.7461 27.4016 47.1521 26.4326 47.1698 25.4219C47.0652 25.8726 46.8846 26.3274 46.5805 26.6593H46.5791Z" fill="url(#paint24_linear_2562_1319)"/>
<path d="M35.6942 31.9845C38.0094 31.7983 39.8765 32.2922 42.5475 31.8401C45.2199 31.3894 45.5906 32.0142 45.9763 32.3947C46.3619 32.7726 46.662 32.5675 46.662 32.5675C47.5922 33.2139 47.9982 35.234 47.9982 35.234C48.0484 32.0506 46.6661 31.3448 46.6661 31.3448C46.5181 30.8928 45.205 31.1168 44.617 30.5554C44.029 29.994 43.2374 30.2747 42.2963 30.5136C41.3553 30.7524 35.815 30.2585 34.5141 31.0547C33.2133 31.8522 35.6928 31.9858 35.6928 31.9858L35.6942 31.9845Z" fill="url(#paint25_linear_2562_1319)"/>
<path style="mix-blend-mode:multiply" opacity="0.79" d="M35.6938 31.9845C36.7122 31.9022 37.6465 31.9521 38.5983 31.9953C38.9704 31.1222 39.8286 30.6876 40.7452 30.5864C38.7192 30.581 35.4711 30.4677 34.5151 31.0547C33.2142 31.8523 35.6938 31.9859 35.6938 31.9859V31.9845Z" fill="url(#paint26_linear_2562_1319)"/>
<path style="mix-blend-mode:multiply" opacity="0.3" d="M46.6621 32.5676C46.7327 32.1722 46.6621 31.8052 46.6621 31.8052C46.6621 31.8052 47.2365 32.4853 47.5597 33.7592C47.3546 33.3031 47.0654 32.847 46.6621 32.5676Z" fill="url(#paint27_linear_2562_1319)"/>
<path d="M35.381 33.4636C37.4029 33.6511 38.936 34.361 41.3069 34.3745C43.6765 34.3893 43.9019 34.9844 44.1749 35.369C44.4505 35.7536 44.7397 35.6214 44.7397 35.6214C45.4431 36.3177 45.4866 38.1206 45.4866 38.1206C46.0121 35.3866 44.9285 34.5688 44.9285 34.5688C44.8687 34.1572 43.705 34.1531 43.2841 33.5796C42.8631 33.0074 42.138 33.1289 41.292 33.1923C40.446 33.2557 35.7477 31.9926 34.5065 32.4838C33.2654 32.9737 35.381 33.4636 35.381 33.4636Z" fill="url(#paint28_linear_2562_1319)"/>
<path style="mix-blend-mode:multiply" opacity="0.79" d="M35.3806 33.4634C36.2701 33.5471 37.0672 33.7292 37.8805 33.9114C38.3327 33.2151 39.1393 32.9722 39.9446 33.0208C38.1997 32.709 35.42 32.1207 34.5075 32.4837C33.2664 32.9735 35.382 33.4634 35.382 33.4634H35.3806Z" fill="url(#paint29_linear_2562_1319)"/>
<path style="mix-blend-mode:multiply" opacity="0.3" d="M44.7393 35.6226C44.8601 35.292 44.8547 34.9668 44.8547 34.9668C44.8547 34.9668 45.2471 35.6388 45.3327 36.7859C45.2267 36.3622 45.0448 35.9263 44.7393 35.6226Z" fill="url(#paint30_linear_2562_1319)"/>
<path d="M32.9985 34.7938C34.2342 36.4024 36.7246 34.2837 38.3256 36.0286C39.9266 37.7748 40.2213 39.5453 40.1262 40.0095C40.0298 40.471 40.3245 40.5939 40.3245 40.5939C40.2905 41.5817 38.9964 42.8394 38.9964 42.8394C41.3619 41.3658 41.2261 40.0163 41.2261 40.0163C41.4882 39.6924 41.0143 38.5008 40.907 38.0082C40.7563 37.3146 39.8071 35.7897 39.1852 35.2135C38.5632 34.6372 34.3293 34.061 33.1248 33.4861C31.9217 32.9113 32.9999 34.7938 32.9999 34.7938H32.9985Z" fill="url(#paint31_linear_2562_1319)"/>
<path style="mix-blend-mode:multiply" opacity="0.79" d="M33.1232 33.4876C33.8592 33.8398 35.7236 34.1907 37.2065 34.5429C36.4135 34.6077 35.691 35.0368 34.9944 35.4174C34.2164 35.4862 33.5021 35.4511 32.9969 34.7952C32.9969 34.7952 31.9188 32.9127 33.1219 33.4876H33.1232Z" fill="url(#paint32_linear_2562_1319)"/>
<path style="mix-blend-mode:multiply" opacity="0.3" d="M40.3229 40.5937C40.6488 40.4588 40.8837 40.2334 40.8837 40.2334C40.8837 40.2334 40.6569 40.977 39.8721 41.819C40.1111 41.452 40.308 41.0228 40.3229 40.5937Z" fill="url(#paint33_linear_2562_1319)"/>
<path d="M18.8451 17.6056C19.0597 12.8784 23.5937 11.4601 25.5559 12.3386L24.236 12.8798L24.1002 13.7232L23.4905 13.622L23.5584 14.4586H23.0845L23.0506 15.4451L22.6106 15.4802C22.3512 16.1212 22.5101 17.1333 22.5101 17.1333C23.3221 17.1333 24.0989 16.3574 24.0989 16.3574L24.3026 15.7825L24.7086 16.0537L24.877 15.4802L25.2151 15.6813L25.4174 14.4586L25.7908 14.85V14.2306C26.941 16.6947 24.289 18.9254 22.3173 18.9578C20.3429 18.9929 18.8438 17.6056 18.8438 17.6056H18.8451Z" fill="url(#paint34_linear_2562_1319)"/>
<path style="mix-blend-mode:multiply" opacity="0.5" d="M19.0942 16.0742C18.9598 16.5411 18.8701 17.0485 18.8457 17.6059C18.8457 17.6059 20.3448 18.9918 22.3192 18.9581C22.6356 18.9527 22.9683 18.8852 23.301 18.7759C22.3831 17.2307 20.816 16.3846 19.0942 16.0756V16.0742Z" fill="url(#paint35_linear_2562_1319)"/>
<path style="mix-blend-mode:screen" d="M24.3432 12.0959C22.1543 12.0446 19.0162 13.6896 18.8369 17.6045C18.8369 17.6045 20.3374 18.9904 22.3105 18.9566C22.3172 18.9566 22.324 18.9566 22.3295 18.9566C20.4488 18.9054 19.0406 17.6058 19.0406 17.6058C19.2131 13.8111 22.1692 12.1485 24.3432 12.0972V12.0959Z" fill="url(#paint36_linear_2562_1319)"/>
<path d="M22.8133 26.5906C21.6415 25.2843 18.8442 25.1494 18.8442 25.1494C18.3024 24.2493 18.7532 23.3033 18.8442 22.9416C19.4308 23.032 19.3846 21.997 20.1518 21.7716C20.919 21.5476 22.903 21.3209 22.8133 19.7447C22.7237 18.1685 20.7561 16.0525 18.5821 16.9068C16.4081 17.7637 15.7318 22.1306 15.7318 22.1306C14.6048 22.9403 14.1539 25.5083 16.9947 26.8133C16.9947 26.8133 16.7801 27.6243 17.383 27.8497C17.986 28.0751 21.2327 27.3207 22.1805 28.2599L22.812 26.5879L22.8133 26.5906Z" fill="url(#paint37_linear_2562_1319)"/>
<path style="mix-blend-mode:multiply" opacity="0.5" d="M21.4083 25.6918C20.3369 26.824 18.6273 27.8536 17.3848 27.851C17.9877 28.0763 21.2344 27.322 22.1823 28.2612L22.8137 26.5892C22.4552 26.1897 21.9433 25.8996 21.4083 25.6904V25.6918Z" fill="url(#paint38_linear_2562_1319)"/>
<path style="mix-blend-mode:multiply" opacity="0.5" d="M18.8455 22.9414C17.7972 22.3126 16.0156 22.1763 16.0156 22.1763C18.2141 22.5595 18.6215 23.7646 18.6215 23.7646L18.8455 22.9414Z" fill="url(#paint39_linear_2562_1319)"/>
<path style="mix-blend-mode:multiply" opacity="0.5" d="M16.9963 26.8158C17.549 25.8253 18.6543 25.2842 18.6543 25.2842C17.6169 25.3975 16.4844 26.5459 16.4844 26.5459L16.9963 26.8145V26.8158Z" fill="url(#paint40_linear_2562_1319)"/>
<path d="M38.7736 17.6056C38.5591 12.8784 34.0264 11.4601 32.0628 12.3386L33.3827 12.8798L33.5185 13.7232L34.1269 13.622L34.059 14.4586H34.5329L34.5668 15.4451L35.0068 15.4802C35.2662 16.1212 35.1086 17.1333 35.1086 17.1333C34.2966 17.1333 33.5185 16.3574 33.5185 16.3574L33.3148 15.7825L32.9088 16.0537L32.7404 15.4802L32.4023 15.6813L32.2 14.4586L31.8279 14.85V14.2306C30.6778 16.6947 33.3284 18.9254 35.3015 18.9578C37.2745 18.9929 38.775 17.6056 38.775 17.6056H38.7736Z" fill="url(#paint41_linear_2562_1319)"/>
<path style="mix-blend-mode:multiply" opacity="0.5" d="M34.2549 18.7543C34.6079 18.8771 34.9637 18.9513 35.3005 18.9567C37.2735 18.9918 38.774 17.6045 38.774 17.6045C38.7496 17.0687 38.664 16.5816 38.5391 16.1309C36.5158 16.3103 35.0275 17.0984 34.2562 18.7543H34.2549Z" fill="url(#paint42_linear_2562_1319)"/>
<path style="mix-blend-mode:screen" d="M33.2758 12.0959C35.4634 12.0446 38.6029 13.6896 38.7807 17.6045C38.7807 17.6045 37.2803 18.9904 35.3072 18.9566C35.3004 18.9566 35.295 18.9566 35.2882 18.9566C37.1689 18.9054 38.5771 17.6058 38.5771 17.6058C38.4032 13.8111 35.4484 12.1485 33.2744 12.0972L33.2758 12.0959Z" fill="url(#paint43_linear_2562_1319)"/>
<path d="M34.8047 26.5906C35.9779 25.2843 38.7739 25.1494 38.7739 25.1494C39.3157 24.2493 38.8649 23.3033 38.7739 22.9416C38.1873 23.032 38.2334 21.997 37.4662 21.7716C36.699 21.5476 34.7151 21.3209 34.8047 19.7447C34.8943 18.1685 36.8619 16.0525 39.036 16.9068C41.21 17.7637 41.8876 22.1306 41.8876 22.1306C43.0146 22.9403 43.4655 25.5083 40.6233 26.8133C40.6233 26.8133 40.8379 27.6243 40.2336 27.8497C39.6307 28.0751 36.3826 27.3207 35.4361 28.2599L34.8047 26.5879V26.5906Z" fill="url(#paint44_linear_2562_1319)"/>
<path style="mix-blend-mode:multiply" opacity="0.5" d="M36.2101 25.6918C37.2802 26.824 38.9911 27.8536 40.2336 27.851C39.6307 28.0763 36.3826 27.322 35.4361 28.2612L34.8047 26.5892C35.1632 26.1897 35.6751 25.8996 36.2101 25.6904V25.6918Z" fill="url(#paint45_linear_2562_1319)"/>
<path style="mix-blend-mode:multiply" opacity="0.5" d="M38.7734 22.9414C39.8217 22.3126 41.6033 22.1763 41.6033 22.1763C39.4049 22.5595 38.9975 23.7646 38.9975 23.7646L38.7734 22.9414Z" fill="url(#paint46_linear_2562_1319)"/>
<path style="mix-blend-mode:multiply" opacity="0.5" d="M40.6232 26.8158C40.0706 25.8253 38.9639 25.2842 38.9639 25.2842C40.0013 25.3975 41.1352 26.5459 41.1352 26.5459L40.6232 26.8145V26.8158Z" fill="url(#paint47_linear_2562_1319)"/>
<path d="M32.7462 24.2449C31.3924 23.2665 29.8593 24.4905 28.8694 24.4905C27.8795 24.4905 26.3464 23.2679 24.9939 24.2449C23.6401 25.2246 18.3007 29.52 18.8819 31.273C19.4007 32.8397 20.4028 32.6697 21.7227 33.6481C23.4187 34.9044 25.1161 36.5872 28.8694 36.5872C32.6226 36.5872 34.32 34.9044 36.0161 33.6481C37.3373 32.6697 38.3394 32.8397 38.8582 31.273C39.438 29.52 34.1 25.2246 32.7476 24.2449H32.7462Z" fill="url(#paint48_linear_2562_1319)"/>
<path style="mix-blend-mode:multiply" opacity="0.7" d="M32.7462 24.2101C31.3924 23.2777 29.8593 24.4436 28.8694 24.4436C27.8795 24.4436 26.3464 23.2777 24.9939 24.2101C23.6401 25.144 18.3007 29.2383 18.8819 30.909C19.4007 32.4028 20.4028 32.2409 21.7227 33.1734C23.4187 34.369 25.1161 35.9736 28.8694 35.9736C32.6226 35.9736 34.32 34.369 36.0161 33.1734C37.3373 32.2409 38.3394 32.4028 38.8582 30.909C39.438 29.2383 34.1 25.144 32.7476 24.2101H32.7462Z" fill="url(#paint49_linear_2562_1319)"/>
<path d="M32.7462 24.1127C31.3924 23.2126 29.8593 24.3381 28.8694 24.3381C27.8795 24.3381 26.3464 23.2113 24.9939 24.1127C23.6401 25.0142 18.3007 28.9641 18.8819 30.5754C19.4007 32.0166 20.4028 31.8601 21.7227 32.7589C23.4187 33.914 25.1161 35.4605 28.8694 35.4605C32.6226 35.4605 34.32 33.914 36.0161 32.7589C37.3373 31.8601 38.3394 32.0166 38.8582 30.5754C39.438 28.9655 34.1 25.0142 32.7476 24.1127H32.7462Z" fill="url(#paint50_linear_2562_1319)"/>
<g style="mix-blend-mode:screen">
<path d="M25.0481 24.3826C26.4019 23.4839 27.935 24.608 28.9235 24.608C29.9121 24.608 31.4465 23.4825 32.8004 24.3826C33.8976 25.114 37.6237 27.8548 38.6761 29.7225C37.8627 27.8602 33.8174 24.8806 32.6646 24.1127C31.3121 23.2126 29.7777 24.3381 28.7891 24.3381C27.8005 24.3381 26.2661 23.2113 24.9136 24.1127C23.5598 25.0142 18.2218 28.9641 18.8017 30.5754C18.8655 30.7522 18.9361 30.9047 19.0135 31.0383C18.9877 30.9762 18.9619 30.9141 18.9375 30.8466C18.3576 29.2354 23.6969 25.2841 25.0494 24.384L25.0481 24.3826Z" fill="#73E9FE"/>
</g>
<path style="mix-blend-mode:multiply" opacity="0.3" d="M34.1258 25.1035C34.1883 28.5393 31.9789 31.5675 28.4647 32.5351C26.2744 33.0978 24.0854 33.226 21.9766 32.9346C23.5925 34.0641 25.3034 35.4608 28.8707 35.4608C32.6239 35.4608 34.3213 33.9143 36.0174 32.7591C37.3386 31.8604 38.3408 32.0169 38.8595 30.5757C39.3103 29.322 36.1776 26.6514 34.1272 25.1035H34.1258Z" fill="url(#paint51_linear_2562_1319)"/>
<g style="mix-blend-mode:multiply" opacity="0.6">
<path d="M26.5015 24.5745C26.5015 24.6784 26.3249 24.7608 26.1077 24.7608C25.8904 24.7608 25.7139 24.6771 25.7139 24.5745C25.7139 24.472 25.8904 24.3896 26.1077 24.3896C26.3249 24.3896 26.5015 24.4733 26.5015 24.5745Z" fill="#5F39FF"/>
</g>
<g style="mix-blend-mode:multiply" opacity="0.6">
<path d="M31.8632 24.5745C31.8632 24.6784 31.6866 24.7608 31.4694 24.7608C31.2521 24.7608 31.0742 24.6771 31.0742 24.5745C31.0742 24.472 31.2521 24.3896 31.4694 24.3896C31.6866 24.3896 31.8632 24.4733 31.8632 24.5745Z" fill="#5F39FF"/>
</g>
<path d="M29.6267 32.6997C29.6267 32.6997 29.6104 32.693 29.5805 32.6809C29.5507 32.6687 29.5058 32.6539 29.4488 32.635C29.3904 32.6174 29.3198 32.5999 29.2383 32.5823C29.1555 32.5661 29.0632 32.5527 28.96 32.5419C28.8581 32.5324 28.7468 32.527 28.63 32.5297C28.5146 32.5338 28.3924 32.5459 28.2742 32.5742C28.2145 32.5877 28.1574 32.6093 28.1031 32.6336C28.0502 32.6593 28.0013 32.6903 27.9578 32.7267C27.9171 32.7645 27.8845 32.8077 27.8628 32.8576C27.8397 32.9062 27.8315 32.9615 27.8275 33.0169C27.8248 33.1302 27.8451 33.2557 27.9062 33.338C27.9646 33.4258 28.0665 33.4757 28.1765 33.4797C28.2864 33.4865 28.3992 33.4528 28.4874 33.3988C28.5309 33.3704 28.5675 33.3367 28.5974 33.3003C28.6273 33.2638 28.6449 33.2233 28.6585 33.1829C28.6789 33.1005 28.6639 33.0169 28.6341 32.948C28.6218 32.913 28.5988 32.8833 28.5838 32.8536C28.5635 32.8266 28.5458 32.7996 28.5282 32.778C28.5091 32.7564 28.4915 32.7362 28.4766 32.72C28.4603 32.7038 28.4467 32.6903 28.4358 32.6795C28.4127 32.6579 28.4005 32.6458 28.4005 32.6458C28.4005 32.6458 28.4154 32.6552 28.4412 32.6728C28.4548 32.6822 28.4711 32.693 28.4901 32.7051C28.5091 32.72 28.5295 32.7362 28.5526 32.7551C28.5757 32.774 28.5988 32.7996 28.6246 32.8252C28.6476 32.8536 28.6748 32.8833 28.6952 32.9211C28.74 32.9926 28.7739 33.0911 28.759 33.2018C28.7495 33.2557 28.7305 33.3124 28.6979 33.3637C28.6639 33.415 28.6205 33.4609 28.5675 33.5013C28.4616 33.5769 28.3245 33.6322 28.171 33.6295C28.095 33.6295 28.0162 33.6133 27.9429 33.5796C27.8682 33.5472 27.8044 33.4919 27.7596 33.4285C27.7474 33.4123 27.7365 33.3974 27.7283 33.3799C27.7202 33.3623 27.7093 33.3475 27.7025 33.3286C27.6876 33.2922 27.674 33.253 27.6686 33.2233C27.6509 33.1532 27.6455 33.083 27.6455 33.0088C27.6523 32.9359 27.6645 32.8617 27.6985 32.7915C27.7311 32.7227 27.7799 32.6593 27.8383 32.608C27.8967 32.5581 27.9633 32.5203 28.0325 32.4906C28.1018 32.4636 28.1697 32.442 28.2389 32.4298C28.3761 32.4015 28.5091 32.3988 28.6327 32.4029C28.7576 32.4083 28.8731 32.4245 28.9776 32.4447C29.1881 32.4865 29.3538 32.55 29.4638 32.6026C29.5194 32.6296 29.5602 32.6539 29.5873 32.6714C29.6145 32.689 29.6281 32.6984 29.6281 32.6984L29.6267 32.6997Z" fill="url(#paint52_linear_2562_1319)"/>
<path d="M27.8955 33.7602C27.8955 33.7602 27.9104 33.7683 27.939 33.7832C27.9675 33.798 28.0109 33.8169 28.0666 33.8399C28.1223 33.8615 28.1915 33.8858 28.2716 33.9087C28.3518 33.9316 28.4441 33.9532 28.5446 33.9721C28.6451 33.991 28.7551 34.0045 28.8718 34.0113C28.9873 34.018 29.1108 34.0153 29.2303 33.9964C29.2914 33.987 29.3498 33.9721 29.4069 33.9519C29.4625 33.9303 29.5141 33.9033 29.5603 33.8709C29.6051 33.8372 29.6418 33.7953 29.6689 33.7481C29.6975 33.7022 29.7097 33.6469 29.7192 33.5916C29.7328 33.4796 29.7246 33.3527 29.6717 33.265C29.6214 33.1732 29.5264 33.1152 29.4164 33.1004C29.3064 33.0842 29.1923 33.1085 29.1 33.1557C29.0538 33.18 29.0144 33.211 28.9818 33.2434C28.9492 33.2771 28.9262 33.3163 28.9099 33.3554C28.8814 33.4364 28.8881 33.52 28.9099 33.5916C28.9194 33.628 28.9384 33.659 28.9506 33.6901C28.9683 33.7184 28.9832 33.7468 28.9995 33.7697C29.0158 33.7926 29.0307 33.8142 29.0443 33.8318C29.0592 33.8493 29.0715 33.8642 29.081 33.875C29.1013 33.8992 29.1122 33.9114 29.1122 33.9114C29.1122 33.9114 29.0986 33.9006 29.0742 33.8804C29.062 33.8696 29.0457 33.8574 29.028 33.8426C29.0117 33.8264 28.9927 33.8075 28.971 33.7872C28.9492 33.7656 28.9302 33.74 28.9058 33.7117C28.8854 33.682 28.8623 33.6496 28.8447 33.6105C28.808 33.5349 28.7822 33.435 28.808 33.3257C28.823 33.2731 28.8474 33.2191 28.8854 33.1705C28.9234 33.1233 28.9723 33.0801 29.028 33.045C29.1407 32.9775 29.2833 32.9344 29.4354 32.9492C29.5114 32.956 29.5888 32.9776 29.6581 33.0167C29.7287 33.0558 29.7871 33.1152 29.8265 33.1813C29.8373 33.1975 29.8468 33.2151 29.8536 33.2326C29.8604 33.2501 29.8699 33.2663 29.8753 33.2852C29.8862 33.323 29.8971 33.3635 29.8998 33.3932C29.9106 33.4647 29.9093 33.5349 29.9011 33.6078C29.8876 33.6793 29.8686 33.7535 29.8278 33.8196C29.7884 33.8858 29.7341 33.9451 29.6717 33.991C29.6078 34.0369 29.5386 34.0679 29.468 34.0922C29.3974 34.1125 29.3267 34.1287 29.2561 34.1354C29.1163 34.1529 28.9832 34.1435 28.861 34.1287C28.7374 34.1138 28.6247 34.0882 28.5215 34.0585C28.3165 34.0005 28.1562 33.9235 28.0517 33.8615C28.0001 33.8304 27.9607 33.8021 27.9362 33.7832C27.9118 33.7629 27.8982 33.7522 27.8982 33.7522L27.8955 33.7602Z" fill="url(#paint53_linear_2562_1319)"/>
</g>
<rect x="0.233333" y="0.233333" width="55.5333" height="55.5333" rx="27.7667" stroke="white" stroke-opacity="0.2" stroke-width="0.466667"/>
<defs>
<filter id="filter0_f_2562_1319" x="-20.7407" y="-20.7407" width="97.4815" height="97.4815" filterUnits="userSpaceOnUse" color-interpolation-filters="sRGB">
<feFlood flood-opacity="0" result="BackgroundImageFix"/>
<feBlend mode="normal" in="SourceGraphic" in2="BackgroundImageFix" result="shape"/>
<feGaussianBlur stdDeviation="10.3704" result="effect1_foregroundBlur_2562_1319"/>
</filter>
<radialGradient id="paint0_radial_2562_1319" cx="0" cy="0" r="1" gradientUnits="userSpaceOnUse" gradientTransform="translate(28 28) scale(38.6579)">
<stop stop-color="#FA1E42"/>
<stop offset="1" stop-opacity="0"/>
</radialGradient>
<radialGradient id="paint1_radial_2562_1319" cx="0" cy="0" r="1" gradientUnits="userSpaceOnUse" gradientTransform="translate(28.7758 17.3884) scale(1.01843 1.01211)">
<stop offset="0.31" stop-color="white"/>
<stop offset="0.9" stop-color="white" stop-opacity="0"/>
</radialGradient>
<radialGradient id="paint2_radial_2562_1319" cx="0" cy="0" r="1" gradientUnits="userSpaceOnUse" gradientTransform="translate(23.7887 21.2345) scale(0.564891 0.561384)">
<stop offset="0.31" stop-color="white"/>
<stop offset="0.9" stop-color="white" stop-opacity="0"/>
</radialGradient>
<radialGradient id="paint3_radial_2562_1319" cx="0" cy="0" r="1" gradientUnits="userSpaceOnUse" gradientTransform="translate(33.0872 38.2648) scale(0.564891 0.561385)">
<stop offset="0.31" stop-color="white"/>
<stop offset="0.9" stop-color="white" stop-opacity="0"/>
</radialGradient>
<radialGradient id="paint4_radial_2562_1319" cx="0" cy="0" r="1" gradientUnits="userSpaceOnUse" gradientTransform="translate(43.2543 25.7416) scale(0.353057 0.350865)">
<stop offset="0.31" stop-color="white"/>
<stop offset="0.9" stop-color="white" stop-opacity="0"/>
</radialGradient>
<radialGradient id="paint5_radial_2562_1319" cx="0" cy="0" r="1" gradientUnits="userSpaceOnUse" gradientTransform="translate(14.6333 26.1088) scale(0.353057 0.350865)">
<stop offset="0.31" stop-color="white"/>
<stop offset="0.9" stop-color="white" stop-opacity="0"/>
</radialGradient>
<radialGradient id="paint6_radial_2562_1319" cx="0" cy="0" r="1" gradientUnits="userSpaceOnUse" gradientTransform="translate(15.9758 16.5489) scale(0.564891 0.561384)">
<stop offset="0.31" stop-color="white"/>
<stop offset="0.9" stop-color="white" stop-opacity="0"/>
</radialGradient>
<radialGradient id="paint7_radial_2562_1319" cx="0" cy="0" r="1" gradientUnits="userSpaceOnUse" gradientTransform="translate(25.5947 39.7021) scale(1.7585 1.74758)">
<stop stop-color="white"/>
<stop offset="0.03" stop-color="white" stop-opacity="0.96"/>
<stop offset="0.18" stop-color="white" stop-opacity="0.71"/>
<stop offset="0.34" stop-color="white" stop-opacity="0.49"/>
<stop offset="0.49" stop-color="white" stop-opacity="0.32"/>
<stop offset="0.64" stop-color="white" stop-opacity="0.18"/>
<stop offset="0.78" stop-color="white" stop-opacity="0.08"/>
<stop offset="0.9" stop-color="white" stop-opacity="0.02"/>
<stop offset="1" stop-color="white" stop-opacity="0"/>
</radialGradient>
<radialGradient id="paint8_radial_2562_1319" cx="0" cy="0" r="1" gradientUnits="userSpaceOnUse" gradientTransform="translate(42.1776 18.8551) scale(1.17459 1.1673)">
<stop stop-color="white"/>
<stop offset="0.03" stop-color="white" stop-opacity="0.96"/>
<stop offset="0.18" stop-color="white" stop-opacity="0.71"/>
<stop offset="0.34" stop-color="white" stop-opacity="0.49"/>
<stop offset="0.49" stop-color="white" stop-opacity="0.32"/>
<stop offset="0.64" stop-color="white" stop-opacity="0.18"/>
<stop offset="0.78" stop-color="white" stop-opacity="0.08"/>
<stop offset="0.9" stop-color="white" stop-opacity="0.02"/>
<stop offset="1" stop-color="white" stop-opacity="0"/>
</radialGradient>
<radialGradient id="paint9_radial_2562_1319" cx="0" cy="0" r="1" gradientUnits="userSpaceOnUse" gradientTransform="translate(34.0274 23.1585) scale(1.27372 1.26581)">
<stop stop-color="white"/>
<stop offset="0.03" stop-color="white" stop-opacity="0.96"/>
<stop offset="0.18" stop-color="white" stop-opacity="0.71"/>
<stop offset="0.34" stop-color="white" stop-opacity="0.49"/>
<stop offset="0.49" stop-color="white" stop-opacity="0.32"/>
<stop offset="0.64" stop-color="white" stop-opacity="0.18"/>
<stop offset="0.78" stop-color="white" stop-opacity="0.08"/>
<stop offset="0.9" stop-color="white" stop-opacity="0.02"/>
<stop offset="1" stop-color="white" stop-opacity="0"/>
</radialGradient>
<linearGradient id="paint10_linear_2562_1319" x1="21.1386" y1="29.0573" x2="10.9472" y2="26.4263" gradientUnits="userSpaceOnUse">
<stop stop-color="#5F39FF"/>
<stop offset="0.11" stop-color="#614FFE"/>
<stop offset="0.91" stop-color="#73E9FE"/>
</linearGradient>
<linearGradient id="paint11_linear_2562_1319" x1="21.9162" y1="30.5079" x2="17.1211" y2="29.2695" gradientUnits="userSpaceOnUse">
<stop stop-color="#5F39FF"/>
<stop offset="0.11" stop-color="#614FFE"/>
<stop offset="0.91" stop-color="#73E9FE"/>
</linearGradient>
<linearGradient id="paint12_linear_2562_1319" x1="10.8996" y1="26.4893" x2="10.2401" y2="26.3186" gradientUnits="userSpaceOnUse">
<stop stop-color="#5F39FF"/>
<stop offset="0.11" stop-color="#614FFE"/>
<stop offset="0.91" stop-color="#73E9FE"/>
</linearGradient>
<linearGradient id="paint13_linear_2562_1319" x1="21.3295" y1="32.4353" x2="10.8122" y2="32.7681" gradientUnits="userSpaceOnUse">
<stop stop-color="#5F39FF"/>
<stop offset="0.11" stop-color="#614FFE"/>
<stop offset="0.91" stop-color="#73E9FE"/>
</linearGradient>
<linearGradient id="paint14_linear_2562_1319" x1="22.407" y1="31.1963" x2="17.4564" y2="31.3535" gradientUnits="userSpaceOnUse">
<stop stop-color="#5F39FF"/>
<stop offset="0.11" stop-color="#614FFE"/>
<stop offset="0.91" stop-color="#73E9FE"/>
</linearGradient>
<linearGradient id="paint15_linear_2562_1319" x1="10.7701" y1="32.7797" x2="10.0485" y2="32.8023" gradientUnits="userSpaceOnUse">
<stop stop-color="#5F39FF"/>
<stop offset="0.11" stop-color="#614FFE"/>
<stop offset="0.91" stop-color="#73E9FE"/>
</linearGradient>
<linearGradient id="paint16_linear_2562_1319" x1="21.695" y1="33.9119" x2="12.6853" y2="35.799" gradientUnits="userSpaceOnUse">
<stop stop-color="#5F39FF"/>
<stop offset="0.11" stop-color="#614FFE"/>
<stop offset="0.91" stop-color="#73E9FE"/>
</linearGradient>
<linearGradient id="paint17_linear_2562_1319" x1="22.4342" y1="32.6769" x2="18.1941" y2="33.5651" gradientUnits="userSpaceOnUse">
<stop stop-color="#5F39FF"/>
<stop offset="0.11" stop-color="#614FFE"/>
<stop offset="0.91" stop-color="#73E9FE"/>
</linearGradient>
<linearGradient id="paint18_linear_2562_1319" x1="12.65" y1="35.7967" x2="12.03" y2="35.9267" gradientUnits="userSpaceOnUse">
<stop stop-color="#5F39FF"/>
<stop offset="0.11" stop-color="#614FFE"/>
<stop offset="0.91" stop-color="#73E9FE"/>
</linearGradient>
<linearGradient id="paint19_linear_2562_1319" x1="22.6001" y1="33.5824" x2="18.58" y2="41.1327" gradientUnits="userSpaceOnUse">
<stop stop-color="#5F39FF"/>
<stop offset="0.11" stop-color="#614FFE"/>
<stop offset="0.91" stop-color="#73E9FE"/>
</linearGradient>
<linearGradient id="paint20_linear_2562_1319" x1="24.7011" y1="34.2119" x2="21.3475" y2="33.8827" gradientUnits="userSpaceOnUse">
<stop stop-color="#5F39FF"/>
<stop offset="0.11" stop-color="#614FFE"/>
<stop offset="0.91" stop-color="#73E9FE"/>
</linearGradient>
<linearGradient id="paint21_linear_2562_1319" x1="18.1655" y1="40.8554" x2="17.8674" y2="41.4159" gradientUnits="userSpaceOnUse">
<stop stop-color="#5F39FF"/>
<stop offset="0.11" stop-color="#614FFE"/>
<stop offset="0.91" stop-color="#73E9FE"/>
</linearGradient>
<linearGradient id="paint22_linear_2562_1319" x1="36.4125" y1="29.0573" x2="46.6039" y2="26.4263" gradientUnits="userSpaceOnUse">
<stop stop-color="#5F39FF"/>
<stop offset="0.11" stop-color="#614FFE"/>
<stop offset="0.91" stop-color="#73E9FE"/>
</linearGradient>
<linearGradient id="paint23_linear_2562_1319" x1="35.6348" y1="30.5079" x2="40.43" y2="29.2695" gradientUnits="userSpaceOnUse">
<stop stop-color="#5F39FF"/>
<stop offset="0.11" stop-color="#614FFE"/>
<stop offset="0.91" stop-color="#73E9FE"/>
</linearGradient>
<linearGradient id="paint24_linear_2562_1319" x1="46.6511" y1="26.4893" x2="47.3119" y2="26.3186" gradientUnits="userSpaceOnUse">
<stop stop-color="#5F39FF"/>
<stop offset="0.11" stop-color="#614FFE"/>
<stop offset="0.91" stop-color="#73E9FE"/>
</linearGradient>
<linearGradient id="paint25_linear_2562_1319" x1="36.2185" y1="32.4359" x2="46.7372" y2="32.7684" gradientUnits="userSpaceOnUse">
<stop stop-color="#5F39FF"/>
<stop offset="0.11" stop-color="#614FFE"/>
<stop offset="0.91" stop-color="#73E9FE"/>
</linearGradient>
<linearGradient id="paint26_linear_2562_1319" x1="35.1424" y1="31.1965" x2="40.0929" y2="31.3538" gradientUnits="userSpaceOnUse">
<stop stop-color="#5F39FF"/>
<stop offset="0.11" stop-color="#614FFE"/>
<stop offset="0.91" stop-color="#73E9FE"/>
</linearGradient>
<linearGradient id="paint27_linear_2562_1319" x1="46.7786" y1="32.7802" x2="47.5001" y2="32.8029" gradientUnits="userSpaceOnUse">
<stop stop-color="#5F39FF"/>
<stop offset="0.11" stop-color="#614FFE"/>
<stop offset="0.91" stop-color="#73E9FE"/>
</linearGradient>
<linearGradient id="paint28_linear_2562_1319" x1="35.7467" y1="33.9217" x2="44.7577" y2="35.8102" gradientUnits="userSpaceOnUse">
<stop stop-color="#5F39FF"/>
<stop offset="0.11" stop-color="#614FFE"/>
<stop offset="0.91" stop-color="#73E9FE"/>
</linearGradient>
<linearGradient id="paint29_linear_2562_1319" x1="35.0082" y1="32.6868" x2="39.2483" y2="33.5749" gradientUnits="userSpaceOnUse">
<stop stop-color="#5F39FF"/>
<stop offset="0.11" stop-color="#614FFE"/>
<stop offset="0.91" stop-color="#73E9FE"/>
</linearGradient>
<linearGradient id="paint30_linear_2562_1319" x1="44.7927" y1="35.8066" x2="45.4128" y2="35.9365" gradientUnits="userSpaceOnUse">
<stop stop-color="#5F39FF"/>
<stop offset="0.11" stop-color="#614FFE"/>
<stop offset="0.91" stop-color="#73E9FE"/>
</linearGradient>
<linearGradient id="paint31_linear_2562_1319" x1="35.427" y1="33.7237" x2="39.8223" y2="41.0641" gradientUnits="userSpaceOnUse">
<stop stop-color="#5F39FF"/>
<stop offset="0.11" stop-color="#614FFE"/>
<stop offset="0.91" stop-color="#73E9FE"/>
</linearGradient>
<linearGradient id="paint32_linear_2562_1319" x1="33.3564" y1="34.4709" x2="36.6874" y2="33.9725" gradientUnits="userSpaceOnUse">
<stop stop-color="#5F39FF"/>
<stop offset="0.11" stop-color="#614FFE"/>
<stop offset="0.91" stop-color="#73E9FE"/>
</linearGradient>
<linearGradient id="paint33_linear_2562_1319" x1="40.2233" y1="40.7659" x2="40.5492" y2="41.309" gradientUnits="userSpaceOnUse">
<stop stop-color="#5F39FF"/>
<stop offset="0.11" stop-color="#614FFE"/>
<stop offset="0.91" stop-color="#73E9FE"/>
</linearGradient>
<linearGradient id="paint34_linear_2562_1319" x1="21.3505" y1="12.4857" x2="23.3727" y2="18.481" gradientUnits="userSpaceOnUse">
<stop stop-color="#FFE98D"/>
<stop offset="0.13" stop-color="#FEE38F"/>
<stop offset="0.28" stop-color="#FED495"/>
<stop offset="0.45" stop-color="#FEBB9F"/>
<stop offset="0.64" stop-color="#FD99AD"/>
<stop offset="0.82" stop-color="#FC6DBF"/>
<stop offset="1" stop-color="#FC3DD3"/>
</linearGradient>
<linearGradient id="paint35_linear_2562_1319" x1="20.1615" y1="15.5196" x2="21.4157" y2="19.2395" gradientUnits="userSpaceOnUse">
<stop stop-color="#FFE98D"/>
<stop offset="0.13" stop-color="#FEE38F"/>
<stop offset="0.28" stop-color="#FED495"/>
<stop offset="0.45" stop-color="#FEBB9F"/>
<stop offset="0.64" stop-color="#FD99AD"/>
<stop offset="0.82" stop-color="#FC6DBF"/>
<stop offset="1" stop-color="#FC3DD3"/>
</linearGradient>
<linearGradient id="paint36_linear_2562_1319" x1="20.8412" y1="12.6546" x2="22.8635" y2="18.6512" gradientUnits="userSpaceOnUse">
<stop stop-color="#FFE98D"/>
<stop offset="0.13" stop-color="#FEE38F"/>
<stop offset="0.28" stop-color="#FED495"/>
<stop offset="0.45" stop-color="#FEBB9F"/>
<stop offset="0.64" stop-color="#FD99AD"/>
<stop offset="0.82" stop-color="#FC6DBF"/>
<stop offset="1" stop-color="#FC3DD3"/>
</linearGradient>
<linearGradient id="paint37_linear_2562_1319" x1="17.0802" y1="16.8123" x2="20.91" y2="28.1705" gradientUnits="userSpaceOnUse">
<stop stop-color="#FFE98D"/>
<stop offset="0.14" stop-color="#EAE99D"/>
<stop offset="1" stop-color="#73E9FE"/>
</linearGradient>
<linearGradient id="paint38_linear_2562_1319" x1="19.7258" y1="26.125" x2="20.5879" y2="28.6828" gradientUnits="userSpaceOnUse">
<stop stop-color="#FFE98D"/>
<stop offset="0.13" stop-color="#FEE38F"/>
<stop offset="0.28" stop-color="#FED495"/>
<stop offset="0.45" stop-color="#FEBB9F"/>
<stop offset="0.64" stop-color="#FD99AD"/>
<stop offset="0.82" stop-color="#FC6DBF"/>
<stop offset="1" stop-color="#FC3DD3"/>
</linearGradient>
<linearGradient id="paint39_linear_2562_1319" x1="17.1305" y1="21.6837" x2="17.8825" y2="23.9119" gradientUnits="userSpaceOnUse">
<stop stop-color="#FFE98D"/>
<stop offset="0.13" stop-color="#FEE38F"/>
<stop offset="0.28" stop-color="#FED495"/>
<stop offset="0.45" stop-color="#FEBB9F"/>
<stop offset="0.64" stop-color="#FD99AD"/>
<stop offset="0.82" stop-color="#FC6DBF"/>
<stop offset="1" stop-color="#FC3DD3"/>
</linearGradient>
<linearGradient id="paint40_linear_2562_1319" x1="17.4594" y1="25.5932" x2="17.7695" y2="26.512" gradientUnits="userSpaceOnUse">
<stop stop-color="#FFE98D"/>
<stop offset="0.13" stop-color="#FEE38F"/>
<stop offset="0.28" stop-color="#FED495"/>
<stop offset="0.45" stop-color="#FEBB9F"/>
<stop offset="0.64" stop-color="#FD99AD"/>
<stop offset="0.82" stop-color="#FC6DBF"/>
<stop offset="1" stop-color="#FC3DD3"/>
</linearGradient>
<linearGradient id="paint41_linear_2562_1319" x1="36.2669" y1="12.4857" x2="34.246" y2="18.481" gradientUnits="userSpaceOnUse">
<stop stop-color="#FFE98D"/>
<stop offset="0.13" stop-color="#FEE38F"/>
<stop offset="0.28" stop-color="#FED495"/>
<stop offset="0.45" stop-color="#FEBB9F"/>
<stop offset="0.64" stop-color="#FD99AD"/>
<stop offset="0.82" stop-color="#FC6DBF"/>
<stop offset="1" stop-color="#FC3DD3"/>
</linearGradient>
<linearGradient id="paint42_linear_2562_1319" x1="36.1139" y1="16.6126" x2="36.7947" y2="18.6313" gradientUnits="userSpaceOnUse">
<stop stop-color="#FFE98D"/>
<stop offset="0.13" stop-color="#FEE38F"/>
<stop offset="0.28" stop-color="#FED495"/>
<stop offset="0.45" stop-color="#FEBB9F"/>
<stop offset="0.64" stop-color="#FD99AD"/>
<stop offset="0.82" stop-color="#FC6DBF"/>
<stop offset="1" stop-color="#FC3DD3"/>
</linearGradient>
<linearGradient id="paint43_linear_2562_1319" x1="36.7765" y1="12.6546" x2="34.7555" y2="18.6512" gradientUnits="userSpaceOnUse">
<stop stop-color="#FFE98D"/>
<stop offset="0.13" stop-color="#FEE38F"/>
<stop offset="0.28" stop-color="#FED495"/>
<stop offset="0.45" stop-color="#FEBB9F"/>
<stop offset="0.64" stop-color="#FD99AD"/>
<stop offset="0.82" stop-color="#FC6DBF"/>
<stop offset="1" stop-color="#FC3DD3"/>
</linearGradient>
<linearGradient id="paint44_linear_2562_1319" x1="40.5378" y1="16.8123" x2="36.7081" y2="28.1705" gradientUnits="userSpaceOnUse">
<stop stop-color="#FFE98D"/>
<stop offset="0.14" stop-color="#EAE99D"/>
<stop offset="1" stop-color="#73E9FE"/>
</linearGradient>
<linearGradient id="paint45_linear_2562_1319" x1="37.8939" y1="26.125" x2="37.0305" y2="28.6828" gradientUnits="userSpaceOnUse">
<stop stop-color="#FFE98D"/>
<stop offset="0.13" stop-color="#FEE38F"/>
<stop offset="0.28" stop-color="#FED495"/>
<stop offset="0.45" stop-color="#FEBB9F"/>
<stop offset="0.64" stop-color="#FD99AD"/>
<stop offset="0.82" stop-color="#FC6DBF"/>
<stop offset="1" stop-color="#FC3DD3"/>
</linearGradient>
<linearGradient id="paint46_linear_2562_1319" x1="40.4871" y1="21.6837" x2="39.7365" y2="23.9118" gradientUnits="userSpaceOnUse">
<stop stop-color="#FFE98D"/>
<stop offset="0.13" stop-color="#FEE38F"/>
<stop offset="0.28" stop-color="#FED495"/>
<stop offset="0.45" stop-color="#FEBB9F"/>
<stop offset="0.64" stop-color="#FD99AD"/>
<stop offset="0.82" stop-color="#FC6DBF"/>
<stop offset="1" stop-color="#FC3DD3"/>
</linearGradient>
<linearGradient id="paint47_linear_2562_1319" x1="40.1588" y1="25.5932" x2="39.85" y2="26.512" gradientUnits="userSpaceOnUse">
<stop stop-color="#FFE98D"/>
<stop offset="0.13" stop-color="#FEE38F"/>
<stop offset="0.28" stop-color="#FED495"/>
<stop offset="0.45" stop-color="#FEBB9F"/>
<stop offset="0.64" stop-color="#FD99AD"/>
<stop offset="0.82" stop-color="#FC6DBF"/>
<stop offset="1" stop-color="#FC3DD3"/>
</linearGradient>
<linearGradient id="paint48_linear_2562_1319" x1="28.8694" y1="38.3996" x2="28.8694" y2="25.5431" gradientUnits="userSpaceOnUse">
<stop stop-color="#5F39FF"/>
<stop offset="0.11" stop-color="#614FFE"/>
<stop offset="0.91" stop-color="#73E9FE"/>
</linearGradient>
<linearGradient id="paint49_linear_2562_1319" x1="28.8694" y1="37.7023" x2="28.8694" y2="25.4476" gradientUnits="userSpaceOnUse">
<stop stop-color="#5F39FF"/>
<stop offset="0.11" stop-color="#614FFE"/>
<stop offset="0.91" stop-color="#73E9FE"/>
</linearGradient>
<linearGradient id="paint50_linear_2562_1319" x1="28.8694" y1="39.8976" x2="28.8694" y2="22.519" gradientUnits="userSpaceOnUse">
<stop stop-color="#5F39FF"/>
<stop offset="0.08" stop-color="#614FFE"/>
<stop offset="0.67" stop-color="#73E9FE"/>
<stop offset="1" stop-color="#FFE98D"/>
</linearGradient>
<linearGradient id="paint51_linear_2562_1319" x1="30.4391" y1="36.9371" x2="30.4391" y2="26.4692" gradientUnits="userSpaceOnUse">
<stop stop-color="#5F39FF"/>
<stop offset="0.11" stop-color="#614FFE"/>
<stop offset="0.91" stop-color="#73E9FE"/>
</linearGradient>
<linearGradient id="paint52_linear_2562_1319" x1="27.6455" y1="33.0155" x2="29.6267" y2="33.0155" gradientUnits="userSpaceOnUse">
<stop stop-color="#FFE98D"/>
<stop offset="0.13" stop-color="#FEE38F"/>
<stop offset="0.28" stop-color="#FED495"/>
<stop offset="0.45" stop-color="#FEBB9F"/>
<stop offset="0.64" stop-color="#FD99AD"/>
<stop offset="0.82" stop-color="#FC6DBF"/>
<stop offset="1" stop-color="#FC3DD3"/>
</linearGradient>
<linearGradient id="paint53_linear_2562_1319" x1="27.8955" y1="33.5538" x2="29.9052" y2="33.5538" gradientUnits="userSpaceOnUse">
<stop stop-color="#FFE98D"/>
<stop offset="0.13" stop-color="#FEE38F"/>
<stop offset="0.28" stop-color="#FED495"/>
<stop offset="0.45" stop-color="#FEBB9F"/>
<stop offset="0.64" stop-color="#FD99AD"/>
<stop offset="0.82" stop-color="#FC6DBF"/>
<stop offset="1" stop-color="#FC3DD3"/>
</linearGradient>
<clipPath id="clip0_2562_1319">
<rect width="56" height="56" rx="28" fill="white"/>
</clipPath>
</defs>
</svg>
