<svg width="56" height="56" viewBox="0 0 56 56" fill="none" xmlns="http://www.w3.org/2000/svg">
<g clip-path="url(#clip0_2562_2496)">
<g filter="url(#filter0_f_2562_2496)">
<path d="M56 0H0V56H56V0Z" fill="url(#paint0_radial_2562_2496)"/>
</g>
<g clip-path="url(#clip1_2562_2496)">
<g opacity="0.2">
<g style="mix-blend-mode:screen" opacity="0.5">
<path d="M42.5646 29.9406C42.5646 39.2019 35.1397 46.7118 25.9801 46.7118C16.8204 46.7118 9.39551 39.2019 9.39551 29.9406C9.39551 20.6794 16.8204 13.1694 25.9801 13.1694C35.1397 13.1694 42.5646 20.6779 42.5646 29.9406Z" stroke="#FC3DD3" stroke-width="2.62" stroke-miterlimit="10"/>
</g>
<g style="mix-blend-mode:screen" opacity="0.5">
<path d="M41.7932 29.9408C41.7932 38.7729 34.7135 45.9323 25.9796 45.9323C17.2457 45.9323 10.166 38.7729 10.166 29.9408C10.166 21.1086 17.2457 13.9478 25.9796 13.9478C34.7135 13.9478 41.7932 21.1086 41.7932 29.9393V29.9408Z" stroke="#FC3DD3" stroke-width="1.35" stroke-miterlimit="10"/>
</g>
<g style="mix-blend-mode:screen" opacity="0.5">
<path d="M40.9605 29.9409C40.9605 38.3075 34.2534 45.0902 25.9798 45.0902C17.7062 45.0902 10.999 38.3061 10.999 29.9409C10.999 21.5756 17.7062 14.79 25.9798 14.79C34.2534 14.79 40.9605 21.5727 40.9605 29.9394V29.9409Z" fill="#FC3DD3"/>
</g>
</g>
<g style="mix-blend-mode:screen">
<path d="M41.4283 21.7893C40.7565 21.3675 39.8734 21.5755 39.4577 22.2548C39.357 22.4177 39.2952 22.5937 39.2649 22.7726L35.8272 22.6708C35.7841 22.5239 35.692 22.3915 35.5525 22.3042C35.2734 22.1297 34.9124 22.1981 34.7125 22.4526L31.1784 21.1319C31.1855 20.9049 31.0805 20.6838 30.8777 20.5573C30.5757 20.3668 30.1787 20.4613 29.9902 20.7668C29.9658 20.806 29.9471 20.8482 29.9313 20.8904L24.93 20.678C24.8883 20.5268 24.7934 20.3915 24.6524 20.3028C24.3719 20.1267 24.0095 20.198 23.8095 20.4569L21.2679 19.5333C21.3197 19.0024 21.0823 18.4642 20.6034 18.1631C19.9316 17.7413 19.0499 17.9493 18.6328 18.6285C18.2156 19.3078 18.4213 20.1995 19.0931 20.6213C19.1477 20.6562 19.2067 20.6795 19.2642 20.7057L18.3652 23.5857C18.1782 23.5944 17.997 23.6832 17.8906 23.8563C17.718 24.137 17.8028 24.5065 18.0804 24.681C18.0848 24.6839 18.0891 24.6839 18.0934 24.6854L15.6467 38.0936C15.29 38.178 14.9635 38.3991 14.7535 38.7394C14.3651 39.3707 14.5233 40.1809 15.0857 40.6318L13.9753 42.5301C13.7423 42.4864 13.4977 42.5839 13.3654 42.8006C13.1928 43.0813 13.2791 43.4508 13.5553 43.6253C13.8329 43.7999 14.1982 43.7141 14.3708 43.4333C14.5089 43.2093 14.4758 42.9344 14.3205 42.7424L15.4281 40.8398C16.0638 41.1046 16.8118 40.8777 17.1858 40.2682C17.4907 39.7736 17.4591 39.1671 17.1627 38.7104L27.3767 29.5727C27.3983 29.5887 27.417 29.6076 27.4414 29.6222C27.9032 29.9131 28.5116 29.7691 28.7993 29.3007C28.8942 29.148 28.9374 28.9778 28.9431 28.8091L31.8127 28.3029C31.8702 28.4207 31.9565 28.5254 32.0759 28.5996C32.411 28.8091 32.8526 28.7058 33.0612 28.3654C33.1417 28.2345 33.1748 28.0876 33.1676 27.9451L36.7032 26.6709C36.7492 26.729 36.8024 26.7829 36.8686 26.8236C37.1707 27.0127 37.5677 26.9196 37.7561 26.6141C37.8769 26.4178 37.8798 26.1821 37.7877 25.9872L39.7727 24.1355C39.8202 24.1734 39.8647 24.2155 39.918 24.2475C40.5883 24.6694 41.4714 24.4614 41.8886 23.7821C42.3057 23.1043 42.1 22.2111 41.4297 21.7893H41.4283ZM37.5173 25.7021C37.2196 25.5378 36.8427 25.6323 36.6615 25.929C36.5924 26.041 36.5622 26.1647 36.5651 26.2883L33.0339 27.5625C32.9821 27.4883 32.9145 27.4229 32.8325 27.3705C32.4974 27.1611 32.0558 27.2658 31.8472 27.6032C31.7897 27.6978 31.758 27.7982 31.7465 27.9014L28.8755 28.4062C28.8007 28.2142 28.6684 28.044 28.4828 27.9276C28.0197 27.6367 27.4127 27.7807 27.1236 28.2491C26.9265 28.5691 26.9351 28.9574 27.1077 29.2644L16.8923 38.4034C16.8391 38.3569 16.7859 38.3118 16.724 38.2725C16.5184 38.1431 16.2896 38.0791 16.0624 38.0645L18.4889 24.7566C18.65 24.729 18.8011 24.6388 18.8931 24.4876C19.0557 24.2243 18.9837 23.8912 18.7478 23.7064L19.6497 20.822C20.192 20.8977 20.7544 20.6548 21.0608 20.1544C21.1054 20.0831 21.1384 20.0075 21.1686 19.9318L23.6686 20.8409C23.6642 21.0635 23.7692 21.2831 23.9706 21.4097C24.2712 21.5988 24.6682 21.5057 24.8567 21.2002C24.8811 21.1609 24.8998 21.1202 24.9156 21.078L29.9169 21.2904C29.9586 21.4402 30.0535 21.5755 30.1945 21.6642C30.4735 21.8402 30.8331 21.7704 31.0331 21.5159L34.5672 22.8366C34.56 23.0606 34.6664 23.2832 34.8678 23.4112C35.1699 23.6003 35.5669 23.5072 35.7553 23.2017C35.7812 23.161 35.8013 23.1159 35.8157 23.0723L39.2534 23.1799C39.2793 23.417 39.3599 23.6454 39.4951 23.8432L37.5159 25.7021H37.5173Z" fill="#FC3DD3"/>
</g>
<path d="M47.9946 26.0657C47.0712 27.4097 42.6323 24.7493 41.2299 26.2853C40.1943 24.4758 35.2851 26.0918 34.6752 24.5762C34.6752 24.5762 33.71 27.9348 35.7597 28.9108C37.6339 29.8039 38.9515 28.9108 39.9051 29.5144C39.7901 30.2345 39.1658 32.2519 35.7626 32.8978C31.5453 33.6963 23.8024 35.1916 24.4957 42.4339C25.1891 49.6763 34.4508 48.1344 35.065 42.1314L31.492 41.5917C30.2852 43.5583 27.8026 42.0688 29.1719 39.823C30.3917 37.8244 35.0693 38.9779 39.2176 36.2593C41.6355 34.6753 41.8153 31.049 41.7966 29.7399C42.8668 29.3253 43.9628 30.5181 46.0039 30.057C48.2147 29.5566 47.9975 26.0657 47.9975 26.0657H47.9946Z" fill="url(#paint1_linear_2562_2496)"/>
<g style="mix-blend-mode:multiply" opacity="0.3">
<path d="M34.0273 33.2427C29.7323 34.1634 23.8881 36.1024 24.4937 42.4341C24.5066 42.5607 24.5268 42.6785 24.5426 42.8007C24.8288 41.2952 25.7537 38.4995 29.5539 39.3795C31.1807 37.9948 35.4197 38.7468 39.2141 36.2609C40.1059 35.6776 40.6913 34.8151 41.0768 33.8958C39.1551 35.2485 35.949 34.9431 34.0273 33.2427Z" fill="#5F39FF"/>
</g>
<path d="M20.3032 27.366C17.8968 27.667 14.344 23.9215 13.0624 25.955C11.7808 27.9885 11.2702 35.0475 11.2702 35.0475C11.2702 35.0475 10.9307 37.4461 11.3507 37.4825C11.7693 37.5203 13.8334 36.6316 13.8535 35.9057C13.8737 35.1799 12.8754 34.1675 12.8208 33.7282C12.664 32.5108 14.9079 29.5944 14.8244 27.8096C14.8244 27.8096 17.5789 31.7151 19.2374 32.0875C20.8959 32.4613 20.3032 27.3645 20.3032 27.3645V27.366Z" fill="url(#paint2_linear_2562_2496)"/>
<g style="mix-blend-mode:multiply" opacity="0.3">
<path d="M20.3035 27.3663C19.9194 27.4143 19.508 27.359 19.0808 27.2412C17.9776 28.1038 16.5752 28.4471 15.167 28.2754C15.9552 29.3227 17.933 31.7955 19.2376 32.0878C20.8961 32.4617 20.3035 27.3649 20.3035 27.3649V27.3663Z" fill="#5F39FF"/>
</g>
<path d="M17.0658 19.0475C15.3556 14.7128 17.6944 12.9499 20.2043 11.3222C22.7172 9.69458 22.851 8 22.851 8C22.851 8 23.3674 9.36439 21.1177 11.6044C18.8681 13.8445 17.8037 15.7776 19.4291 18.0962L17.0658 19.0475Z" fill="url(#paint3_linear_2562_2496)"/>
<g style="mix-blend-mode:multiply" opacity="0.3">
<path d="M16.5 16.7872C16.5532 17.4548 16.7316 18.2025 17.0653 19.0476L19.4285 18.0963C18.8374 17.2541 18.6044 16.4628 18.6518 15.6904C18.1024 16.3581 17.3645 16.7784 16.5 16.7872Z" fill="#5F39FF"/>
</g>
<path d="M18.9286 18.2636C18.2123 13.6526 20.8761 12.4584 23.6824 11.433C26.4887 10.4089 26.9893 8.78564 26.9893 8.78564C26.9893 8.78564 27.195 10.2315 24.5095 11.9115C21.8255 13.5915 20.3641 15.2381 21.44 17.8636L18.9271 18.2622L18.9286 18.2636Z" fill="url(#paint4_linear_2562_2496)"/>
<path d="M32.5701 32.9054C29.2561 29.2384 26.2916 27.0871 26.6382 23.8914C26.9834 20.6957 25.1179 19.196 25.1179 19.196C27.4624 19.6295 27.5444 22.8906 27.5444 22.8906C27.5444 22.8906 27.9443 20.3117 25.2977 18.6549C26.306 18.7669 27.6724 19.7037 27.6724 19.7037C26.2369 17.5989 23.4767 17.1233 23.4767 17.1233C24.367 16.8003 25.207 17.2309 25.207 17.2309C23.8147 16.2607 18.7372 15.6367 17.621 17.4971C16.3826 18.0018 16.0302 19.5713 16.1826 20.447C16.3351 21.3226 15.5771 24.2114 15.9769 24.7292C16.3768 25.2456 16.6817 25.231 16.6817 25.231C17.0039 25.7067 17.3707 25.695 17.6857 25.5903C18.0022 25.4856 17.7907 24.8514 18.4294 24.399C19.068 23.9481 20.7279 23.3154 20.9092 22.4892C20.9092 22.4892 20.9379 24.1372 20.7898 24.7248C19.9972 27.2543 16.6515 28.1489 17.2672 30.3744C17.3132 30.5359 13.49 32.3846 13.9646 33.9105C14.6795 36.2101 19.6923 41.1484 19.6923 41.1484C19.6923 41.1484 21.2903 42.955 21.5881 42.6539C21.8858 42.3543 22.5417 40.1855 22.0052 39.704C21.4701 39.2211 20.0605 39.3418 19.6923 39.1018C18.6696 38.44 17.9073 34.8254 16.5019 33.7417C16.5019 33.7417 18.2956 33.8857 19.9886 33.7534C21.0098 34.4181 22.2943 34.9868 23.8463 35.4479C27.5962 36.5621 31.9272 39.0407 31.4913 41.5935L35.0643 42.1332C35.0643 42.1332 35.8842 36.5738 32.5716 32.9068L32.5701 32.9054Z" fill="url(#paint5_linear_2562_2496)"/>
<path d="M32.5702 32.7888C29.2561 29.1218 26.2916 26.9705 26.6383 23.7748C26.9116 21.2584 25.8126 19.7966 25.3322 19.2889C25.2258 19.254 25.115 19.2235 24.9971 19.2017C24.9971 19.2017 26.8641 20.7013 26.5174 23.897C26.1708 27.0927 29.1367 29.244 32.4493 32.911C35.352 36.1241 35.1521 40.8864 35.0571 42.0166H35.0614C35.0614 42.0166 35.8813 36.4572 32.5687 32.7903L32.5702 32.7888Z" fill="#73E9FE"/>
<path d="M17.334 20.6969C17.4994 19.7311 18.3164 20.2649 18.453 19.7529C18.4574 20.7042 17.334 20.6969 17.334 20.6969Z" fill="url(#paint6_linear_2562_2496)"/>
<g style="mix-blend-mode:multiply" opacity="0.3">
<path d="M16.6655 25.2424C17.0726 24.7958 17.0913 24.4016 17.3948 23.9915C17.6983 23.5827 18.7267 22.9194 18.7267 22.9194C18.7267 22.9194 17.599 23.7107 17.3574 24.1791C17.1172 24.646 17.0769 25.1653 16.8079 25.3457L16.6641 25.2409L16.6655 25.2424Z" fill="#5F39FF"/>
</g>
<g style="mix-blend-mode:multiply" opacity="0.3">
<path d="M16.215 24.4265C16.2797 24.2403 16.8176 24.2766 16.7385 24.4148C16.6594 24.5545 16.1776 24.5283 16.215 24.4265Z" fill="#5F39FF"/>
</g>
<g style="mix-blend-mode:multiply" opacity="0.3">
<path d="M17.2657 30.3743C18.52 29.8376 19.5024 28.1387 19.5024 28.1387C18.5948 29.3518 17.1924 29.7809 17.1924 29.7809C17.1924 29.7809 17.2039 30.1983 17.2657 30.3743Z" fill="#5F39FF"/>
</g>
<g style="mix-blend-mode:multiply" opacity="0.3">
<path d="M19.9863 33.7518C21.7038 33.5584 23.3723 32.626 23.3723 32.626C22.7063 33.1773 22.0878 33.538 21.6074 33.7678C21.4319 33.8522 21.7167 34.3642 23.1652 35.2311C22.2619 34.9577 20.6293 34.1373 20.6293 34.1373L19.9863 33.7518Z" fill="#5F39FF"/>
</g>
<g style="mix-blend-mode:multiply" opacity="0.3">
<path d="M20.0283 40.8789C20.6051 41.8913 21.7932 42.2869 21.7932 42.2869L21.9011 42.0018C21.9011 42.0018 20.654 41.8622 20.0283 40.8789Z" fill="#5F39FF"/>
</g>
<g style="mix-blend-mode:multiply" opacity="0.3">
<path d="M11.6198 35.125C11.2343 36.2276 11.7133 37.3956 11.7133 37.3956L11.9981 37.2938C11.9981 37.2938 11.2904 36.2465 11.6212 35.125H11.6198Z" fill="#5F39FF"/>
</g>
<g style="mix-blend-mode:multiply" opacity="0.3">
<path d="M47.9946 26.0659C47.0021 27.7532 42.8955 26.9488 42.8955 26.9488C46.713 27.922 47.9989 26.4834 47.9989 26.4834L47.9946 26.0659Z" fill="#5F39FF"/>
</g>
<g style="mix-blend-mode:multiply" opacity="0.3">
<path d="M47.9329 27.3384C46.0443 28.566 43.5977 27.6598 43.5977 27.6598C46.0443 28.566 47.8452 27.7995 47.8452 27.7995L47.9344 27.3384H47.9329Z" fill="#5F39FF"/>
</g>
<g style="mix-blend-mode:multiply" opacity="0.3">
<path d="M47.64 28.4845C44.6467 29.3006 42.9062 27.9551 42.9062 27.9551C44.815 29.4067 47.5364 28.7289 47.5364 28.7289L47.64 28.4845Z" fill="#5F39FF"/>
</g>
<g style="mix-blend-mode:multiply" opacity="0.3">
<path d="M34.6746 24.5762C35.2801 26.4424 39.4615 26.5646 39.4615 26.5646C35.5246 26.6708 34.5811 24.982 34.5811 24.982L34.6731 24.5762H34.6746Z" fill="#5F39FF"/>
</g>
<g style="mix-blend-mode:multiply" opacity="0.3">
<path d="M34.4612 25.833C36.0391 27.4476 38.6239 27.1028 38.6239 27.1028C36.0405 27.4461 34.4482 26.3028 34.4482 26.3028L34.4612 25.8315V25.833Z" fill="#5F39FF"/>
</g>
<g style="mix-blend-mode:multiply" opacity="0.3">
<path d="M34.5 27.0171C37.2444 28.4746 39.2337 27.5451 39.2337 27.5451C37.0574 28.54 34.5489 27.2774 34.5489 27.2774L34.5 27.0156V27.0171Z" fill="#5F39FF"/>
</g>
<g style="mix-blend-mode:multiply" opacity="0.3">
<path d="M20.9092 22.4905C21.5565 21.0621 21.4356 20.1807 21.4356 20.1807C21.7981 23.0185 20.9092 23.8331 20.9092 23.8331V22.4905Z" fill="#5F39FF"/>
</g>
<g style="mix-blend-mode:multiply" opacity="0.3">
<path d="M23.4763 17.1231C22.9053 17.0388 22.0293 17.3689 22.0293 17.3689C22.0293 17.3689 23.1268 16.2315 25.2067 17.2308C24.1221 16.8686 23.4763 17.1231 23.4763 17.1231Z" fill="#5F39FF"/>
</g>
<g style="mix-blend-mode:multiply" opacity="0.3">
<path d="M27.6723 19.7037C27.6723 19.7037 25.988 17.711 23.4492 18.047C23.4492 18.047 24.0634 17.8593 25.2975 18.6564C25.2975 18.6564 26.6079 18.8266 27.6723 19.7052V19.7037Z" fill="#5F39FF"/>
</g>
<path d="M24.5073 23.2732C24.4972 23.2412 24.4799 23.1946 24.4555 23.1554C24.431 23.1175 24.4037 23.0826 24.3692 23.0535C24.3016 22.9954 24.2167 22.9604 24.1347 22.9517C24.024 22.9386 23.9218 22.9648 23.8312 23.0055C23.8255 22.8354 23.8097 22.6724 23.7679 22.527C23.7349 22.4135 23.6716 22.3015 23.5723 22.2579C23.4731 22.2142 23.3825 22.2404 23.3206 22.2637C23.2631 22.287 23.2228 22.3132 23.194 22.3321C23.1883 22.3263 23.1811 22.319 23.1753 22.3132C23.1494 22.2943 23.1178 22.2812 23.0905 22.2681C23.0603 22.2652 23.0315 22.2623 23.0042 22.2608C22.9783 22.2652 22.9553 22.2724 22.9337 22.2783C22.8876 22.2884 22.856 22.3161 22.8244 22.3321C22.7927 22.3481 22.7755 22.3713 22.7553 22.3859C22.7194 22.4179 22.6992 22.4368 22.6992 22.4368C22.6992 22.4368 22.7265 22.4295 22.7711 22.4135C22.7942 22.4077 22.8215 22.3917 22.8517 22.3873C22.8833 22.383 22.915 22.3684 22.9509 22.3699C22.9682 22.3699 22.9869 22.3684 23.0042 22.3699C23.02 22.3757 23.0358 22.3801 23.0516 22.383C23.0631 22.3946 23.0761 22.4004 23.0861 22.4121C23.0933 22.4295 23.1063 22.4368 23.112 22.4557C23.1279 22.4906 23.1322 22.5357 23.1394 22.5808C23.1422 22.6288 23.1437 22.6783 23.1379 22.7292C23.1379 22.7801 23.1279 22.831 23.1235 22.8819C23.1135 22.9328 23.1092 22.9837 23.0991 23.0317C23.0876 23.0797 23.0833 23.1277 23.0718 23.1728C23.0631 23.2179 23.0531 23.2601 23.0444 23.2994C23.0257 23.3794 23.0113 23.4448 23.0013 23.4914C22.9912 23.5394 22.9855 23.567 22.9855 23.567C22.9855 23.567 23.0027 23.5452 23.03 23.5045C23.0588 23.4652 23.0948 23.4055 23.1322 23.3314C23.1696 23.2572 23.207 23.167 23.2386 23.0666C23.2544 23.0172 23.2674 22.9634 23.2789 22.9095C23.2861 22.8528 23.299 22.799 23.3005 22.7394C23.3048 22.6812 23.3005 22.6215 23.2961 22.5633C23.2875 22.5037 23.2703 22.4441 23.2401 22.3888C23.2314 22.3713 23.2185 22.3553 23.2041 22.3408C23.2357 22.3263 23.2774 22.3103 23.3335 22.2943C23.394 22.2783 23.4774 22.2695 23.5479 22.3117C23.6169 22.3539 23.6586 22.4455 23.6831 22.5517C23.7176 22.7044 23.7162 22.8848 23.7075 23.0783C23.5939 23.1597 23.5105 23.2645 23.4529 23.3706C23.394 23.4768 23.3666 23.5845 23.3537 23.6805C23.3407 23.7765 23.3407 23.8594 23.3465 23.9277C23.3522 23.9961 23.3623 24.0485 23.3709 24.0834C23.3781 24.1183 23.3825 24.1372 23.3825 24.1372C23.3825 24.1372 23.3738 24.0601 23.3781 23.9277C23.3839 23.7968 23.4141 23.6034 23.5306 23.4186C23.5723 23.3517 23.6313 23.2906 23.6975 23.2368C23.696 23.2645 23.6946 23.2921 23.6931 23.3197C23.6931 23.391 23.6744 23.4594 23.7018 23.5626C23.7262 23.6528 23.791 23.7299 23.8672 23.7779C24.0197 23.8725 24.2196 23.8885 24.3836 23.7808C24.4641 23.727 24.5202 23.631 24.5346 23.5394C24.5504 23.4448 24.5375 23.3619 24.5116 23.2746L24.5073 23.2732ZM24.2886 23.6441C24.198 23.7096 24.047 23.7052 23.9463 23.6412C23.896 23.6092 23.8586 23.5655 23.8413 23.5146C23.8226 23.4754 23.8298 23.3939 23.8312 23.3226C23.8327 23.2615 23.8327 23.2004 23.8327 23.1408C23.9204 23.1001 24.0197 23.0797 24.1146 23.0928C24.234 23.1103 24.3232 23.1946 24.3591 23.3226C24.3965 23.4463 24.3821 23.5845 24.2872 23.6426L24.2886 23.6441Z" fill="url(#paint7_linear_2562_2496)"/>
<g style="mix-blend-mode:screen" opacity="0.9">
<path style="mix-blend-mode:screen" opacity="0.9" d="M30.1227 13.478C30.1227 14.0613 29.5703 14.0919 29.5703 14.0919C29.5703 14.0919 30.1227 14.1239 30.1227 14.7071C30.1227 14.1239 30.6736 14.0919 30.6736 14.0919C30.6736 14.0919 30.1227 14.0613 30.1227 13.478Z" fill="url(#paint8_radial_2562_2496)"/>
<path style="mix-blend-mode:screen" opacity="0.9" d="M34.6307 30.0166C34.6307 30.3599 34.3057 30.3788 34.3057 30.3788C34.3057 30.3788 34.6307 30.3977 34.6307 30.741C34.6307 30.3977 34.9558 30.3788 34.9558 30.3788C34.9558 30.3788 34.6307 30.3613 34.6307 30.0166Z" fill="url(#paint9_radial_2562_2496)"/>
<path style="mix-blend-mode:screen" opacity="0.9" d="M36.4082 17.1479C36.4082 17.9043 35.6934 17.9436 35.6934 17.9436C35.6934 17.9436 36.4082 17.9843 36.4082 18.7407C36.4082 17.9843 37.1231 17.9436 37.1231 17.9436C37.1231 17.9436 36.4082 17.9043 36.4082 17.1479Z" fill="url(#paint10_radial_2562_2496)"/>
<path style="mix-blend-mode:screen" opacity="0.9" d="M14.4598 21.25C14.4598 21.6267 14.1045 21.6456 14.1045 21.6456C14.1045 21.6456 14.4598 21.666 14.4598 22.0413C14.4598 21.6646 14.8151 21.6456 14.8151 21.6456C14.8151 21.6456 14.4598 21.6253 14.4598 21.25Z" fill="url(#paint11_radial_2562_2496)"/>
<path style="mix-blend-mode:screen" opacity="0.9" d="M38.5936 38.4033C38.5936 39.0041 38.0254 39.0375 38.0254 39.0375C38.0254 39.0375 38.5936 39.0695 38.5936 39.6717C38.5936 39.0695 39.1617 39.0375 39.1617 39.0375C39.1617 39.0375 38.5936 39.0055 38.5936 38.4033Z" fill="url(#paint12_radial_2562_2496)"/>
<path style="mix-blend-mode:color-dodge" opacity="0.9" d="M9.39569 28.4702C9.39569 29.132 8.76855 29.1684 8.76855 29.1684C8.76855 29.1684 9.39569 29.2033 9.39569 29.8666C9.39569 29.2048 10.0228 29.1684 10.0228 29.1684C10.0228 29.1684 9.39569 29.1335 9.39569 28.4702Z" fill="url(#paint13_radial_2562_2496)"/>
<path style="mix-blend-mode:color-dodge" opacity="0.9" d="M23.3231 43.4507C23.3231 44.1023 22.7061 44.1372 22.7061 44.1372C22.7061 44.1372 23.3231 44.1722 23.3231 44.8238C23.3231 44.1722 23.9402 44.1372 23.9402 44.1372C23.9402 44.1372 23.3231 44.1023 23.3231 43.4507Z" fill="url(#paint14_radial_2562_2496)"/>
<path style="mix-blend-mode:color-dodge" opacity="0.9" d="M29.5706 23.5464C29.5706 24.5966 28.5781 24.6519 28.5781 24.6519C28.5781 24.6519 29.5706 24.7086 29.5706 25.7588C29.5706 24.7086 30.5645 24.6519 30.5645 24.6519C30.5645 24.6519 29.5706 24.5951 29.5706 23.5464Z" fill="url(#paint15_radial_2562_2496)"/>
</g>
</g>
</g>
<rect x="0.233333" y="0.233333" width="55.5333" height="55.5333" rx="27.7667" stroke="white" stroke-opacity="0.2" stroke-width="0.466667"/>
<defs>
<filter id="filter0_f_2562_2496" x="-20.7407" y="-20.7407" width="97.4815" height="97.4815" filterUnits="userSpaceOnUse" color-interpolation-filters="sRGB">
<feFlood flood-opacity="0" result="BackgroundImageFix"/>
<feBlend mode="normal" in="SourceGraphic" in2="BackgroundImageFix" result="shape"/>
<feGaussianBlur stdDeviation="10.3704" result="effect1_foregroundBlur_2562_2496"/>
</filter>
<radialGradient id="paint0_radial_2562_2496" cx="0" cy="0" r="1" gradientUnits="userSpaceOnUse" gradientTransform="translate(28 28) scale(38.6579)">
<stop stop-color="#FA1E42"/>
<stop offset="1" stop-opacity="0"/>
</radialGradient>
<linearGradient id="paint1_linear_2562_2496" x1="35.741" y1="33.4461" x2="41.9655" y2="27.5985" gradientUnits="userSpaceOnUse">
<stop stop-color="#5F39FF"/>
<stop offset="0.1" stop-color="#614FFE"/>
<stop offset="0.8" stop-color="#73E9FE"/>
</linearGradient>
<linearGradient id="paint2_linear_2562_2496" x1="19.5035" y1="26.4147" x2="7.36771" y2="36.0393" gradientUnits="userSpaceOnUse">
<stop stop-color="#5F39FF"/>
<stop offset="0.1" stop-color="#614FFE"/>
<stop offset="0.8" stop-color="#73E9FE"/>
</linearGradient>
<linearGradient id="paint3_linear_2562_2496" x1="19.4858" y1="11.0424" x2="20.5643" y2="18.5604" gradientUnits="userSpaceOnUse">
<stop stop-color="#FFE98D"/>
<stop offset="0.13" stop-color="#FEE38F"/>
<stop offset="0.28" stop-color="#FED495"/>
<stop offset="0.45" stop-color="#FEBB9F"/>
<stop offset="0.64" stop-color="#FD99AD"/>
<stop offset="0.82" stop-color="#FC6DBF"/>
<stop offset="1" stop-color="#FC3DD3"/>
</linearGradient>
<linearGradient id="paint4_linear_2562_2496" x1="23.042" y1="11.0005" x2="22.4089" y2="18.5688" gradientUnits="userSpaceOnUse">
<stop stop-color="#FFE98D"/>
<stop offset="0.14" stop-color="#F9E991"/>
<stop offset="0.32" stop-color="#EAE99D"/>
<stop offset="0.51" stop-color="#D1E9B1"/>
<stop offset="0.72" stop-color="#AFE9CD"/>
<stop offset="0.93" stop-color="#83E9F0"/>
<stop offset="1" stop-color="#73E9FE"/>
</linearGradient>
<linearGradient id="paint5_linear_2562_2496" x1="24.7151" y1="36.5971" x2="18.7195" y2="18.4881" gradientUnits="userSpaceOnUse">
<stop stop-color="#5F39FF"/>
<stop offset="0.1" stop-color="#614FFE"/>
<stop offset="0.8" stop-color="#73E9FE"/>
</linearGradient>
<linearGradient id="paint6_linear_2562_2496" x1="13.4172" y1="23.037" x2="12.2212" y2="23.754" gradientUnits="userSpaceOnUse">
<stop stop-color="#5F39FF"/>
<stop offset="0.13" stop-color="#614FFE"/>
<stop offset="1" stop-color="#73E9FE"/>
</linearGradient>
<linearGradient id="paint7_linear_2562_2496" x1="22.6978" y1="23.183" x2="24.5375" y2="23.183" gradientUnits="userSpaceOnUse">
<stop stop-color="#FFE98D"/>
<stop offset="0.13" stop-color="#FEE38F"/>
<stop offset="0.28" stop-color="#FED495"/>
<stop offset="0.45" stop-color="#FEBB9F"/>
<stop offset="0.64" stop-color="#FD99AD"/>
<stop offset="0.82" stop-color="#FC6DBF"/>
<stop offset="1" stop-color="#FC3DD3"/>
</linearGradient>
<radialGradient id="paint8_radial_2562_2496" cx="0" cy="0" r="1" gradientUnits="userSpaceOnUse" gradientTransform="translate(30.1212 14.0933) scale(0.581107 0.587647)">
<stop offset="0.31" stop-color="white"/>
<stop offset="0.9" stop-color="white" stop-opacity="0"/>
</radialGradient>
<radialGradient id="paint9_radial_2562_2496" cx="0" cy="0" r="1" gradientUnits="userSpaceOnUse" gradientTransform="translate(34.6293 30.3773) scale(0.340896 0.344733)">
<stop offset="0.31" stop-color="white"/>
<stop offset="0.9" stop-color="white" stop-opacity="0"/>
</radialGradient>
<radialGradient id="paint10_radial_2562_2496" cx="0" cy="0" r="1" gradientUnits="userSpaceOnUse" gradientTransform="translate(36.4068 17.9436) scale(0.752275 0.760741)">
<stop offset="0.31" stop-color="white"/>
<stop offset="0.9" stop-color="white" stop-opacity="0"/>
</radialGradient>
<radialGradient id="paint11_radial_2562_2496" cx="0" cy="0" r="1" gradientUnits="userSpaceOnUse" gradientTransform="translate(14.4598 21.6471) scale(0.37398 0.378189)">
<stop offset="0.31" stop-color="white"/>
<stop offset="0.9" stop-color="white" stop-opacity="0"/>
</radialGradient>
<radialGradient id="paint12_radial_2562_2496" cx="0" cy="0" r="1" gradientUnits="userSpaceOnUse" gradientTransform="translate(38.5936 39.0375) scale(0.598367 0.605102)">
<stop offset="0.31" stop-color="white"/>
<stop offset="0.9" stop-color="white" stop-opacity="0"/>
</radialGradient>
<radialGradient id="paint13_radial_2562_2496" cx="0" cy="0" r="1" gradientUnits="userSpaceOnUse" gradientTransform="translate(9.39569 29.1684) scale(1.03851 1.0502)">
<stop stop-color="white"/>
<stop offset="0.03" stop-color="white" stop-opacity="0.96"/>
<stop offset="0.18" stop-color="white" stop-opacity="0.71"/>
<stop offset="0.34" stop-color="white" stop-opacity="0.49"/>
<stop offset="0.49" stop-color="white" stop-opacity="0.32"/>
<stop offset="0.64" stop-color="white" stop-opacity="0.18"/>
<stop offset="0.78" stop-color="white" stop-opacity="0.08"/>
<stop offset="0.9" stop-color="white" stop-opacity="0.02"/>
<stop offset="1" stop-color="white" stop-opacity="0"/>
</radialGradient>
<radialGradient id="paint14_radial_2562_2496" cx="0" cy="0" r="1" gradientUnits="userSpaceOnUse" gradientTransform="translate(23.3231 44.1372) scale(1.02269 1.0342)">
<stop stop-color="white"/>
<stop offset="0.03" stop-color="white" stop-opacity="0.96"/>
<stop offset="0.18" stop-color="white" stop-opacity="0.71"/>
<stop offset="0.34" stop-color="white" stop-opacity="0.49"/>
<stop offset="0.49" stop-color="white" stop-opacity="0.32"/>
<stop offset="0.64" stop-color="white" stop-opacity="0.18"/>
<stop offset="0.78" stop-color="white" stop-opacity="0.08"/>
<stop offset="0.9" stop-color="white" stop-opacity="0.02"/>
<stop offset="1" stop-color="white" stop-opacity="0"/>
</radialGradient>
<radialGradient id="paint15_radial_2562_2496" cx="0" cy="0" r="1" gradientUnits="userSpaceOnUse" gradientTransform="translate(29.5706 24.6533) scale(1.64695 1.66548)">
<stop stop-color="white"/>
<stop offset="0.03" stop-color="white" stop-opacity="0.96"/>
<stop offset="0.18" stop-color="white" stop-opacity="0.71"/>
<stop offset="0.34" stop-color="white" stop-opacity="0.49"/>
<stop offset="0.49" stop-color="white" stop-opacity="0.32"/>
<stop offset="0.64" stop-color="white" stop-opacity="0.18"/>
<stop offset="0.78" stop-color="white" stop-opacity="0.08"/>
<stop offset="0.9" stop-color="white" stop-opacity="0.02"/>
<stop offset="1" stop-color="white" stop-opacity="0"/>
</radialGradient>
<clipPath id="clip0_2562_2496">
<rect width="56" height="56" rx="28" fill="white"/>
</clipPath>
<clipPath id="clip1_2562_2496">
<rect width="40" height="41" fill="white" transform="translate(8 8)"/>
</clipPath>
</defs>
</svg>
