<svg width="34" height="38" viewBox="0 0 34 38" fill="none" xmlns="http://www.w3.org/2000/svg">
<path d="M24.2402 23.7944L17 30.8749L9.75982 23.7944C4.33348 24.0245 0 28.3663 0 33.7249V34.4374C0 36.4042 1.6317 37.9999 3.64286 37.9999H30.3571C32.3683 37.9999 34 36.4042 34 34.4374V33.7249C34 28.3663 29.6665 24.0245 24.2402 23.7944ZM1.03214 5.92256L1.51786 6.03389V10.3683C0.986607 10.68 0.607143 11.2218 0.607143 11.8749C0.607143 12.4983 0.95625 13.0179 1.44955 13.337L0.265625 17.9608C0.136607 18.4729 0.425 18.9999 0.842411 18.9999H4.01473C4.43214 18.9999 4.72054 18.4729 4.59152 17.9608L3.40759 13.337C3.90089 13.0179 4.25 12.4983 4.25 11.8749C4.25 11.2218 3.87054 10.68 3.33929 10.3683V6.46436L8.34821 7.64443C7.69554 8.921 7.28571 10.346 7.28571 11.8749C7.28571 17.1222 11.6344 21.3749 17 21.3749C22.3656 21.3749 26.7143 17.1222 26.7143 11.8749C26.7143 10.346 26.3121 8.921 25.6518 7.64443L32.9603 5.92256C34.3415 5.596 34.3415 3.91123 32.9603 3.58467L18.5103 0.170605C17.5237 -0.0594727 16.4839 -0.0594727 15.4973 0.170605L1.03214 3.57725C-0.341518 3.90381 -0.341518 5.596 1.03214 5.92256Z" fill="white"/>
</svg>
