<svg width="34" height="38" viewBox="0 0 34 38" fill="none" xmlns="http://www.w3.org/2000/svg">
<path d="M24.2402 23.7946L17 30.875L9.75982 23.7946C4.33348 24.0246 0 28.3664 0 33.725V34.4375C0 36.4043 1.6317 38 3.64286 38H30.3571C32.3683 38 34 36.4043 34 34.4375V33.725C34 28.3664 29.6665 24.0246 24.2402 23.7946ZM1.03214 5.92268L1.51786 6.03401V10.3684C0.986607 10.6801 0.607143 11.2219 0.607143 11.875C0.607143 12.4985 0.95625 13.018 1.44955 13.3371L0.265625 17.961C0.136607 18.4731 0.425 19 0.842411 19H4.01473C4.43214 19 4.72054 18.4731 4.59152 17.961L3.40759 13.3371C3.90089 13.018 4.25 12.4985 4.25 11.875C4.25 11.2219 3.87054 10.6801 3.33929 10.3684V6.46448L8.34821 7.64456C7.69554 8.92112 7.28571 10.3461 7.28571 11.875C7.28571 17.1223 11.6344 21.375 17 21.375C22.3656 21.375 26.7143 17.1223 26.7143 11.875C26.7143 10.3461 26.3121 8.92112 25.6518 7.64456L32.9603 5.92268C34.3415 5.59612 34.3415 3.91135 32.9603 3.58479L18.5103 0.170728C17.5237 -0.0593506 16.4839 -0.0593506 15.4973 0.170728L1.03214 3.57737C-0.341518 3.90393 -0.341518 5.59612 1.03214 5.92268Z" fill="url(#paint0_linear_4_388)"/>
<defs>
<linearGradient id="paint0_linear_4_388" x1="17" y1="-0.00183105" x2="17" y2="38" gradientUnits="userSpaceOnUse">
<stop stop-color="#18B8F6"/>
<stop offset="1" stop-color="#633291"/>
</linearGradient>
</defs>
</svg>
