<svg width="16" height="16" viewBox="0 0 16 16" fill="none" xmlns="http://www.w3.org/2000/svg">
<path d="M5.33317 9.25662C5.19539 9.25662 5.07539 9.20551 4.97317 9.10328C4.87095 9.00106 4.81984 8.88106 4.81984 8.74329C4.81984 8.60551 4.87095 8.48573 4.97317 8.38395C5.07539 8.28217 5.19539 8.23106 5.33317 8.23062C5.47095 8.23017 5.59095 8.28129 5.69317 8.38395C5.79539 8.48662 5.8465 8.60662 5.8465 8.74395C5.8465 8.88129 5.79539 9.00106 5.69317 9.10328C5.59095 9.20551 5.47095 9.25662 5.33317 9.25662ZM7.99984 9.25662C7.86206 9.25662 7.74206 9.20551 7.63984 9.10328C7.53762 9.00106 7.4865 8.88106 7.4865 8.74329C7.4865 8.60551 7.53762 8.48573 7.63984 8.38395C7.74206 8.28217 7.86206 8.23106 7.99984 8.23062C8.13762 8.23017 8.25762 8.28129 8.35984 8.38395C8.46206 8.48662 8.51317 8.60662 8.51317 8.74395C8.51317 8.88129 8.46206 9.00106 8.35984 9.10328C8.25762 9.20551 8.13762 9.25662 7.99984 9.25662ZM10.6665 9.25662C10.5287 9.25662 10.4087 9.20551 10.3065 9.10328C10.2043 9.00106 10.1532 8.88106 10.1532 8.74329C10.1532 8.60551 10.2043 8.48573 10.3065 8.38395C10.4087 8.28217 10.5287 8.23106 10.6665 8.23062C10.8043 8.23017 10.9243 8.28129 11.0265 8.38395C11.1287 8.48662 11.1798 8.60662 11.1798 8.74395C11.1798 8.88129 11.1287 9.00106 11.0265 9.10328C10.9243 9.20551 10.8043 9.25662 10.6665 9.25662ZM3.74384 14C3.43673 14 3.1805 13.8973 2.97517 13.692C2.76984 13.4866 2.66695 13.2304 2.6665 12.9233V4.40995C2.6665 4.10329 2.76939 3.84729 2.97517 3.64195C3.18095 3.43662 3.43717 3.33373 3.74384 3.33329H4.92317V2.20529C4.92317 2.10173 4.95717 2.01595 5.02517 1.94795C5.09317 1.87995 5.17873 1.84595 5.28184 1.84595C5.38495 1.84595 5.47073 1.87995 5.53917 1.94795C5.60762 2.01595 5.64162 2.10173 5.64117 2.20529V3.33329H10.4105V2.17995C10.4105 2.08484 10.4423 2.00529 10.5058 1.94129C10.5694 1.87729 10.6487 1.84551 10.7438 1.84595C10.8389 1.8464 10.9181 1.87817 10.9812 1.94129C11.0443 2.0044 11.0763 2.08373 11.0772 2.17929V3.33329H12.2565C12.5632 3.33329 12.8194 3.43617 13.0252 3.64195C13.2309 3.84773 13.3336 4.10395 13.3332 4.41062V12.9233C13.3332 13.23 13.2305 13.4862 13.0252 13.692C12.8198 13.8977 12.5634 14.0004 12.2558 14H3.74384ZM3.74384 13.3333H12.2565C12.3587 13.3333 12.4527 13.2906 12.5385 13.2053C12.6243 13.12 12.6669 13.0257 12.6665 12.9226V7.07729H3.33317V12.9233C3.33317 13.0255 3.37584 13.1195 3.46117 13.2053C3.5465 13.2911 3.6405 13.3337 3.74317 13.3333M3.33317 6.40995H12.6665V4.40995C12.6665 4.30773 12.6238 4.21373 12.5385 4.12795C12.4532 4.04217 12.3589 3.99951 12.2558 3.99995H3.74384C3.64117 3.99995 3.54695 4.04262 3.46117 4.12795C3.37539 4.21329 3.33273 4.30751 3.33317 4.41062V6.40995Z" fill="white"/>
</svg>
