<svg width="16" height="16" viewBox="0 0 16 16" fill="none" xmlns="http://www.w3.org/2000/svg">
<path d="M4.6665 4.66663H3.99984C3.64622 4.66663 3.30708 4.8071 3.05703 5.05715C2.80698 5.3072 2.6665 5.64634 2.6665 5.99996V12C2.6665 12.3536 2.80698 12.6927 3.05703 12.9428C3.30708 13.1928 3.64622 13.3333 3.99984 13.3333H9.99984C10.3535 13.3333 10.6926 13.1928 10.9426 12.9428C11.1927 12.6927 11.3332 12.3536 11.3332 12V11.3333" stroke="white" stroke-linecap="round" stroke-linejoin="round"/>
<path d="M10.6667 3.33328L12.6667 5.33328M13.59 4.38995C13.8526 4.12739 14.0001 3.77127 14.0001 3.39995C14.0001 3.02863 13.8526 2.67251 13.59 2.40995C13.3274 2.14738 12.9713 1.99988 12.6 1.99988C12.2287 1.99988 11.8726 2.14738 11.61 2.40995L6 7.99995V9.99995H8L13.59 4.38995Z" stroke="white" stroke-linecap="round" stroke-linejoin="round"/>
</svg>
