<svg width="39" height="42" viewBox="0 0 39 42" fill="none" xmlns="http://www.w3.org/2000/svg">
<path d="M19.164 17.25C19.6723 17.25 20.1598 17.4519 20.5193 17.8114C20.8787 18.1708 21.0806 18.6583 21.0806 19.1667V31.786L23.5589 29.3097C23.9188 28.9503 24.4067 28.7486 24.9153 28.7489C25.4239 28.7493 25.9116 28.9517 26.271 29.3116C26.6304 29.6715 26.8321 30.1594 26.8317 30.668C26.8313 31.1766 26.629 31.6643 26.2691 32.0237L20.8564 37.4268C20.3715 37.9098 19.8981 38.3333 19.164 38.3333C18.52 38.3333 18.0791 38.0094 17.6536 37.605L12.0589 32.0237C11.699 31.6643 11.4966 31.1766 11.4962 30.668C11.4959 30.1594 11.6976 29.6715 12.057 29.3116C12.4164 28.9517 12.904 28.7493 13.4126 28.7489C13.9212 28.7486 14.4092 28.9503 14.7691 29.3097L17.2473 31.786V19.1667C17.2473 18.6583 17.4492 18.1708 17.8087 17.8114C18.1681 17.4519 18.6556 17.25 19.164 17.25ZM18.2056 4.34989e-08C23.5416 4.34989e-08 28.0956 3.35417 29.8705 8.073C32.2348 8.72309 34.3297 10.1115 35.8495 12.0359C37.3693 13.9602 38.2346 16.3198 38.3191 18.7705C38.4036 21.2211 37.703 23.6347 36.3193 25.6592C34.9357 27.6837 32.9415 29.2131 30.6276 30.0246C30.4825 28.7309 29.9027 27.5247 28.9831 26.6033C28.0023 25.6211 26.6993 25.0268 25.3146 24.9301L24.914 24.9167V19.1667C24.9154 17.6699 24.3332 16.2316 23.291 15.1574C22.2488 14.0831 20.8288 13.4575 19.3327 13.4136C17.8366 13.3697 16.3824 13.9109 15.2789 14.9221C14.1755 15.9334 13.5099 17.3351 13.4236 18.8293L13.414 19.1667V24.9167C12.6582 24.9166 11.9097 25.0655 11.2115 25.3549C10.5133 25.6443 9.879 26.0686 9.34489 26.6033C8.31545 27.6347 7.71603 29.0186 7.6678 30.475C5.67241 30.0673 3.85871 29.0347 2.48958 27.5269C1.12046 26.0192 0.267055 24.1146 0.0530737 22.0892C-0.160908 20.0639 0.275649 18.023 1.29947 16.2624C2.32329 14.5018 3.88117 13.113 5.7473 12.2973C5.78965 9.02116 7.12088 5.89354 9.4527 3.59186C11.7845 1.29017 14.9292 -0.000273561 18.2056 4.34989e-08Z" fill="url(#paint0_linear_3404_749)"/>
<defs>
<linearGradient id="paint0_linear_3404_749" x1="-3.21544" y1="17.3086" x2="41.7613" y2="27.8421" gradientUnits="userSpaceOnUse">
<stop stop-color="#5F39FF"/>
<stop offset="0.1" stop-color="#614FFE"/>
<stop offset="0.8" stop-color="#73E9FE"/>
</linearGradient>
</defs>
</svg>
