<svg width="13" height="16" viewBox="0 0 13 16" fill="none" xmlns="http://www.w3.org/2000/svg">
<g clip-path="url(#clip0_458_14480)">
<path d="M11.3585 5.80953C11.3585 5.20909 11.3585 4.59458 11.3585 4.59458C11.3585 3.45699 8.81582 2.53478 5.67925 2.53478C2.54269 2.53478 0 3.45698 0 4.59458C0 4.59458 0 5.70561 0 6.46711C0 7.02339 0.608228 7.52807 1.59633 7.8987C1.59633 8.07173 1.59633 8.26482 1.59633 8.46004C1.06961 8.77251 0.765912 9.13983 0.765912 9.53288C0.765912 9.53288 0.765912 10.6439 0.765912 11.4054C0.765912 12.543 3.3086 13.4652 6.44517 13.4652C9.58173 13.4652 12.1244 12.543 12.1244 11.4054C12.1244 11.0545 12.1244 10.5733 12.1244 10.1865C12.6511 9.87402 12.9548 9.5067 12.9548 9.11364C12.9548 8.42704 12.9548 7.2411 12.9548 7.2411C12.9548 6.68483 12.3466 6.18014 11.3585 5.80953Z" fill="#FFD12E"/>
<path d="M12.2822 8.21404C12.205 8.26625 12.1216 8.31707 12.0326 8.36646C11.8957 8.44238 11.7457 8.51486 11.5832 8.58339C11.5107 8.61396 11.4357 8.64371 11.3585 8.67268C11.2621 8.7088 11.1622 8.74365 11.0589 8.77715C10.9619 8.80859 10.862 8.83886 10.7592 8.86785C9.79733 9.13921 8.58856 9.30089 7.27554 9.30089C6.62432 9.30089 5.99885 9.26103 5.41627 9.18784C3.90393 8.99787 2.68175 8.5827 2.05465 8.05285C1.89413 8.00454 1.74119 7.95304 1.59629 7.89868C1.59629 8.07171 1.59629 8.26481 1.59629 8.46003C1.59629 8.68432 1.59629 8.9113 1.59629 9.11364C1.59629 9.12984 1.59696 9.14599 1.59798 9.16211C1.59831 9.16715 1.59881 9.17216 1.59923 9.17719C1.60018 9.18847 1.60133 9.19973 1.60277 9.21095C1.60349 9.21654 1.60425 9.22211 1.60508 9.22769C1.60679 9.23902 1.6088 9.25032 1.61101 9.2616C1.61196 9.26643 1.61278 9.27127 1.61381 9.27608C1.6172 9.29181 1.62098 9.30749 1.62534 9.32312C1.62608 9.32578 1.627 9.32842 1.62776 9.33107C1.63154 9.34413 1.63562 9.35716 1.64008 9.37014C1.64199 9.37574 1.64409 9.38131 1.64613 9.38689C1.64986 9.39709 1.65377 9.40726 1.6579 9.41741C1.66033 9.42336 1.66278 9.42931 1.66535 9.43524C1.66983 9.44559 1.67459 9.45592 1.6795 9.46623C1.68199 9.47148 1.68437 9.47675 1.68698 9.48199C1.69431 9.49671 1.70203 9.51139 1.71022 9.526C1.71314 9.53121 1.71635 9.53639 1.71938 9.54159C1.72512 9.55143 1.73094 9.56127 1.73708 9.57107C1.74127 9.57778 1.74565 9.58446 1.75002 9.59114C1.75547 9.59945 1.76103 9.60773 1.76674 9.61599C1.77158 9.62299 1.77643 9.62998 1.78147 9.63695C1.78731 9.64504 1.7934 9.65308 1.7995 9.66113C1.80469 9.66797 1.80973 9.67483 1.81512 9.68165C1.82555 9.69485 1.83633 9.70799 1.84746 9.72108C1.85423 9.72906 1.86138 9.73698 1.86841 9.74491C1.87397 9.75118 1.8795 9.75745 1.88523 9.7637C1.89292 9.77209 1.90081 9.78044 1.90879 9.78879C1.91406 9.7943 1.91941 9.7998 1.92481 9.80529C1.93347 9.8141 1.94218 9.82289 1.95116 9.83164C1.9552 9.83557 1.95939 9.83948 1.96349 9.8434C1.99746 9.8759 2.03361 9.90801 2.07192 9.93971C2.07481 9.9421 2.07766 9.9445 2.08058 9.94689C2.09345 9.95743 2.10659 9.96792 2.11993 9.97837C2.12234 9.98025 2.12478 9.98213 2.1272 9.98401C2.15209 10.0033 2.17805 10.0224 2.20454 10.0414C2.21315 10.0476 2.22193 10.0537 2.2307 10.0599C2.25022 10.0735 2.27017 10.0871 2.2905 10.1005C2.29944 10.1065 2.30819 10.1124 2.31728 10.1183C2.34401 10.1356 2.37138 10.1528 2.39943 10.1697C2.41115 10.1768 2.42327 10.1839 2.43523 10.1909C2.45348 10.2017 2.47192 10.2124 2.49069 10.223C2.50512 10.2311 2.5196 10.2393 2.53434 10.2474C2.55265 10.2574 2.57136 10.2674 2.59014 10.2773C2.61653 10.2912 2.64337 10.305 2.67068 10.3187C2.68639 10.3266 2.70205 10.3345 2.71806 10.3423C2.7381 10.3521 2.75844 10.3617 2.77895 10.3713C2.79178 10.3774 2.80476 10.3833 2.81777 10.3893C2.89364 10.4241 2.97244 10.458 3.05422 10.4909C3.06177 10.494 3.06928 10.497 3.07687 10.5001C3.70902 10.7516 4.51062 10.9461 5.41627 11.0599L5.43805 11.0631C6.01431 11.1346 6.63238 11.1734 7.27554 11.1734C8.58571 11.1734 9.79194 11.0124 10.7527 10.7421L10.7592 10.7394C10.8624 10.7103 10.9616 10.6796 11.0589 10.648L11.3585 10.5432C11.436 10.5141 11.4518 10.5093 11.4518 10.5093C11.4479 10.5109 11.4439 10.5124 11.44 10.5139C11.3661 10.5633 11.2866 10.6114 11.2022 10.6582C11.0653 10.7342 10.9152 10.8066 10.7527 10.8752C10.6803 10.9057 10.6053 10.9355 10.528 10.9644C10.4317 11.0006 10.3318 11.0354 10.2284 11.0689C10.1315 11.1004 10.0316 11.1306 9.92882 11.1596C8.96691 11.431 7.75812 11.5927 6.44511 11.5927C5.79389 11.5927 5.16843 11.5528 4.58585 11.4796C2.36248 11.2003 0.765876 10.4343 0.765869 9.53287C0.765869 9.53291 0.765869 10.6439 0.765869 11.4054C0.765869 11.4216 0.766534 11.4378 0.767559 11.4539C0.767877 11.4589 0.768393 11.4639 0.76881 11.469C0.769757 11.4802 0.770909 11.4915 0.772344 11.5027C0.773065 11.5083 0.773829 11.5139 0.774663 11.5195C0.776373 11.5308 0.778381 11.5421 0.780586 11.5534C0.781534 11.5582 0.782354 11.563 0.7834 11.5679C0.786786 11.5836 0.79056 11.5993 0.794908 11.6149C0.79565 11.6175 0.796576 11.6202 0.797339 11.6228C0.801121 11.6359 0.805207 11.6489 0.809653 11.6619C0.811569 11.6675 0.813668 11.6731 0.815711 11.6787C0.819429 11.6888 0.823346 11.699 0.827474 11.7092C0.829905 11.7151 0.832358 11.7211 0.834931 11.727C0.83942 11.7374 0.844191 11.7477 0.849104 11.758C0.851585 11.7633 0.853939 11.7685 0.856534 11.7737C0.863871 11.7884 0.871597 11.8031 0.87979 11.8177C0.882716 11.823 0.885926 11.8282 0.888958 11.8334C0.894712 11.8432 0.900537 11.8531 0.90668 11.8629C0.910865 11.8696 0.915233 11.8762 0.919594 11.8829C0.92503 11.8912 0.930594 11.8995 0.936298 11.9077C0.941147 11.9147 0.946018 11.9218 0.951072 11.9288C0.956897 11.9368 0.962968 11.9448 0.969055 11.9529C0.974257 11.9597 0.979312 11.9666 0.984705 11.9734C0.995118 11.9866 1.0059 11.9997 1.01702 12.0128C1.02383 12.0208 1.03099 12.0288 1.03806 12.0367C1.0436 12.043 1.0491 12.0492 1.0548 12.0554C1.0625 12.0638 1.0704 12.0722 1.07839 12.0806C1.08365 12.0861 1.08898 12.0915 1.09436 12.097C1.10303 12.1058 1.11175 12.1146 1.12073 12.1234C1.12479 12.1274 1.12901 12.1313 1.13314 12.1352C1.16709 12.1677 1.20317 12.1998 1.24145 12.2314C1.24437 12.2338 1.24725 12.2363 1.25019 12.2387C1.26303 12.2492 1.27612 12.2597 1.28943 12.2701C1.29189 12.272 1.29439 12.2739 1.29686 12.2758C1.32176 12.2952 1.34774 12.3143 1.37423 12.3333C1.38281 12.3394 1.39157 12.3455 1.40032 12.3516C1.41985 12.3653 1.43982 12.3789 1.46017 12.3924C1.46911 12.3983 1.47787 12.4042 1.48696 12.4101C1.51371 12.4274 1.54109 12.4446 1.56916 12.4616C1.58086 12.4687 1.59294 12.4757 1.60487 12.4827C1.6231 12.4934 1.64152 12.5041 1.66027 12.5147C1.67475 12.5229 1.68929 12.5311 1.70408 12.5392C1.72238 12.5493 1.74107 12.5592 1.75983 12.5691C1.78611 12.583 1.81284 12.5967 1.84003 12.6104C1.85589 12.6183 1.87168 12.6263 1.88783 12.6342C1.90781 12.6439 1.9281 12.6535 1.94855 12.6631C1.96144 12.6692 1.97446 12.6752 1.98754 12.6812C2.06346 12.716 2.14233 12.7499 2.22418 12.7829C2.23157 12.7859 2.23894 12.7888 2.24637 12.7918C2.87854 13.0433 3.68016 13.2379 4.58585 13.3517V13.3511C5.16855 13.4245 5.79337 13.4652 6.44511 13.4652C7.75304 13.4652 8.95759 13.3048 9.91768 13.0353L9.92882 13.0312C10.0319 13.0021 10.1312 12.9713 10.2284 12.9398L10.528 12.835C10.6056 12.8059 10.68 12.7757 10.7527 12.745C10.9058 12.6938 11.2022 12.5287 11.2022 12.5287C11.2914 12.4792 11.3743 12.4281 11.4518 12.3758L11.4708 12.3652C11.888 12.0786 12.1244 11.752 12.1244 11.4054V10.1865C12.1244 10.1865 12.2047 10.1363 12.2822 10.084C12.2822 10.084 12.2817 10.0868 12.3039 10.0715C12.7193 9.78533 12.9548 9.45948 12.9548 9.11361C12.9548 8.42701 12.9548 7.24107 12.9548 7.24107C12.9548 7.59302 12.7112 7.92428 12.2822 8.21404Z" fill="#FCBD20"/>
<path d="M11.9367 6.79016C11.9307 6.77787 11.9243 6.76562 11.9174 6.75342C11.9036 6.72904 11.8878 6.70486 11.8703 6.6809C11.8527 6.65694 11.8333 6.6332 11.8122 6.60971C11.7486 6.5392 11.6689 6.47084 11.5745 6.40504C11.5115 6.36117 11.442 6.31843 11.3663 6.27695C11.3637 6.27554 11.361 6.27417 11.3585 6.27277C11.3585 6.34068 11.3585 6.40594 11.3585 6.46711C11.3585 6.64505 11.2962 6.81773 11.1793 6.98242C11.0775 7.12565 10.9341 7.26279 10.7545 7.39218C10.6564 7.45709 10.5074 7.54984 10.4191 7.60191C9.5863 8.05856 8.26548 8.38779 6.72607 8.49184C6.90636 8.49844 7.08964 8.50194 7.27555 8.50194C9.41495 8.50194 11.2214 8.05308 11.7982 7.43799L11.8172 7.41586C11.9011 7.32096 11.9565 7.22233 11.9793 7.12084C11.9796 7.11928 11.9799 7.1177 11.9802 7.11614C11.9831 7.10234 11.9854 7.08849 11.9871 7.07459C11.9876 7.07093 11.9881 7.06726 11.9884 7.06358C11.99 7.0479 11.9911 7.03218 11.9911 7.01639V7.01638C11.991 6.93947 11.9725 6.86393 11.9367 6.79016Z" fill="#D18F00"/>
<path d="M10.686 5.56752C10.6087 5.61972 10.5253 5.67055 10.4363 5.71994C10.2995 5.79585 10.1494 5.86833 9.98687 5.93686C9.9144 5.96744 9.8394 5.99718 9.76217 6.02615C9.66584 6.06228 9.5659 6.09713 9.46256 6.13063C9.3656 6.16207 9.26573 6.19233 9.16296 6.22133C8.20104 6.49269 6.99227 6.65437 5.67925 6.65437C5.02803 6.65437 4.40256 6.6145 3.81998 6.54132C1.59671 6.26204 0.000148445 5.49605 0 4.59469C0 4.59731 0 5.70651 0 6.46712C0 6.46731 1.41298e-05 6.4675 1.41298e-05 6.4677C2.82674e-05 6.48368 0.000671583 6.49961 0.00168242 6.5155C0.00200759 6.52063 0.00252356 6.52575 0.00295475 6.53087C0.00389491 6.54204 0.00504007 6.55318 0.0064609 6.5643C0.00718898 6.56997 0.00795949 6.57564 0.00880774 6.58129C0.0105043 6.5925 0.0124906 6.60369 0.0146749 6.61486C0.0156433 6.61979 0.0164844 6.62474 0.0175447 6.62966C0.0209165 6.64533 0.0246843 6.66097 0.0290245 6.67654C0.0298092 6.67936 0.0307775 6.68214 0.0315904 6.68494C0.0353298 6.69784 0.039352 6.71071 0.0437559 6.72353C0.0456998 6.72921 0.0478275 6.73488 0.0499057 6.74056C0.0535956 6.75064 0.0574623 6.7607 0.0615481 6.77074C0.0640151 6.77679 0.0665034 6.78283 0.0691117 6.78886C0.0735439 6.7991 0.0782657 6.80932 0.083115 6.81952C0.0856526 6.82485 0.088049 6.8302 0.0906998 6.83553C0.098016 6.85021 0.105714 6.86483 0.113878 6.8794C0.116876 6.88475 0.120155 6.89005 0.123259 6.89538C0.128942 6.90512 0.134703 6.91485 0.140761 6.92454C0.144988 6.93129 0.149385 6.93802 0.153789 6.94475C0.159182 6.95298 0.164703 6.96119 0.170365 6.96938C0.175243 6.97644 0.180134 6.98348 0.18521 6.99051C0.190985 6.9985 0.197008 7.00646 0.203037 7.0144C0.208304 7.02134 0.213414 7.0283 0.218878 7.03521C0.22927 7.04836 0.240014 7.06146 0.251105 7.0745C0.257948 7.08255 0.265137 7.09053 0.272241 7.09854C0.277762 7.10476 0.28324 7.11098 0.288916 7.11717C0.296642 7.1256 0.304552 7.13398 0.312568 7.14236C0.317785 7.14781 0.32308 7.15325 0.328424 7.15867C0.337125 7.16753 0.345891 7.17638 0.354917 7.18518C0.35889 7.18905 0.363025 7.1929 0.367062 7.19676C0.401084 7.22931 0.437262 7.26148 0.475653 7.29322C0.478537 7.29561 0.481378 7.298 0.484291 7.30038C0.497191 7.31093 0.510332 7.32144 0.523706 7.33191C0.52606 7.33374 0.528442 7.33558 0.53081 7.33742C0.54979 7.35215 0.569321 7.36677 0.589227 7.38131C0.59402 7.38481 0.598975 7.38828 0.603824 7.39177C0.619453 7.40303 0.635287 7.41424 0.651468 7.42538C0.656734 7.429 0.662078 7.43261 0.667408 7.43623C0.684387 7.44776 0.701635 7.45921 0.719194 7.4706C0.723329 7.47328 0.727422 7.47597 0.731586 7.47864C1.17367 7.76226 1.79581 8.0041 2.54181 8.18372C2.54201 8.18377 2.54221 8.18382 2.54241 8.18387C2.9365 8.27873 3.36512 8.35624 3.81998 8.4134L3.84612 8.41697C4.42113 8.48821 5.03763 8.52692 5.67925 8.52692C6.03693 8.52692 6.38676 8.51479 6.72611 8.49185C7.61802 8.43157 8.43646 8.29566 9.1292 8.1032L9.16296 8.0929C9.26608 8.06382 9.36529 8.03305 9.46256 8.00151L9.76217 7.89669C9.83974 7.86759 9.91408 7.83737 9.98687 7.80667V7.80663C10.0047 7.79867 10.2793 7.67859 10.4191 7.60193L10.4363 7.59046C10.5256 7.54096 10.6084 7.48982 10.686 7.4375C10.6674 7.45002 11.0219 7.21526 11.1793 6.98245C11.2924 6.81508 11.3585 6.64507 11.3585 6.46713V5.80954C11.3585 5.20911 11.3585 4.59459 11.3585 4.59459C11.3585 4.9465 11.1149 5.27775 10.686 5.56752Z" fill="#FCBD20"/>
<path d="M0.967805 4.42809C0.969508 4.44198 0.971784 4.45582 0.97469 4.46962C0.975022 4.4712 0.975283 4.47277 0.975644 4.47434C0.998398 4.57582 1.05382 4.67446 1.13775 4.76935C1.53107 4.32468 2.56425 3.96421 3.90493 3.79238C3.89644 3.66468 3.92505 3.54249 3.92505 3.54249C3.91193 3.47841 3.95635 3.41532 4.08163 3.35597C4.63733 3.0927 5.65347 3.3256 5.65347 3.3256C5.65347 3.3256 6.71724 3.07753 7.33645 3.33066C7.44083 3.37334 7.48137 3.4223 7.47433 3.4749C7.47332 3.51011 7.46879 3.65498 7.45976 3.79317C8.79754 3.96531 9.82825 4.32535 10.221 4.76935C10.3049 4.67448 10.3603 4.57587 10.3831 4.4744C10.3835 4.47277 10.3837 4.47113 10.3841 4.4695C10.387 4.45577 10.3892 4.44201 10.3909 4.42818C10.3914 4.42446 10.3919 4.42073 10.3923 4.417C10.3938 4.40144 10.3948 4.38585 10.3949 4.37017C10.3949 4.37007 10.3949 4.36997 10.3949 4.36987C10.3949 3.54942 8.28368 2.88432 5.67937 2.88432C3.92961 2.88432 2.40244 3.18456 1.58862 3.63043C1.5697 3.6408 1.55116 3.65125 1.533 3.66177C1.49671 3.68282 1.46198 3.70418 1.42887 3.72583C1.36265 3.76913 1.30289 3.81359 1.25001 3.85909C1.21034 3.89322 1.17453 3.92794 1.14276 3.96318C1.0845 4.02781 1.03978 4.09423 1.00962 4.16212C0.979461 4.23 0.963867 4.29936 0.963867 4.36987V4.36988C0.963867 4.38567 0.96492 4.40139 0.966475 4.41707C0.966843 4.42075 0.967345 4.42442 0.967805 4.42809Z" fill="#D18F00"/>
<path d="M7.45971 3.79316C7.46873 3.65497 7.47326 3.5101 7.47428 3.47488C7.44709 3.67799 6.70871 3.93535 6.18067 4.0943C6.52846 4.06819 6.98481 4.03967 7.43482 4.02824C8.15561 4.00991 8.8601 4.03551 9.07582 4.18578C9.13101 4.22422 9.15604 4.26006 9.15839 4.29335C9.17362 4.50926 8.22515 4.61684 8.22515 4.61684C8.22515 4.61684 8.37568 4.99526 7.32922 5.00138C6.39023 5.00686 5.98361 4.77436 5.77796 4.52041C5.57328 4.85709 5.9684 5.22748 6.06793 5.32034C6.1005 5.35071 5.76546 5.46684 5.72679 5.43931C5.64555 5.38147 5.31742 4.83684 5.64151 4.50522C5.39255 4.72859 4.79528 5.00585 4.02939 5.00138C2.98293 4.99526 3.13346 4.61684 3.13346 4.61684C3.13346 4.61684 2.25743 4.51748 2.20267 4.3181C2.19166 4.27803 2.21366 4.23394 2.28279 4.18578C2.50632 4.03007 3.25459 4.00823 4.00206 4.0304C4.36672 4.04122 4.73118 4.06246 5.03443 4.08385C4.55481 3.94674 3.96538 3.73984 3.92499 3.54246C3.92499 3.54246 3.89638 3.66465 3.90488 3.79236C2.56419 3.9642 1.53101 4.32467 1.1377 4.76934L1.16121 4.79626C1.74285 5.40889 3.54545 5.85542 5.67931 5.85542C7.81249 5.85542 9.61462 5.40917 10.1969 4.79684L10.2209 4.76935C9.82819 4.32533 8.79748 3.96529 7.45971 3.79316Z" fill="#FCBD20"/>
<path d="M11.8172 7.41587C11.6788 7.25948 11.4614 7.11349 11.1793 6.98243C11.0775 7.12566 10.9341 7.26279 10.7545 7.39218C10.6564 7.45709 10.5074 7.54984 10.4191 7.60192C9.5863 8.05856 8.26548 8.38779 6.72607 8.49185C6.90636 8.49844 7.08964 8.50194 7.27555 8.50194C9.41495 8.50194 11.2214 8.05308 11.7982 7.43799L11.8172 7.41587Z" fill="#FCBD20"/>
<path d="M9.16304 8.09291V6.22133C8.20113 6.49269 6.99236 6.65437 5.67934 6.65437C5.02812 6.65437 4.40265 6.6145 3.82007 6.54132V8.41339L3.84621 8.41696C4.42121 8.48819 5.03772 8.5269 5.67934 8.5269C6.03702 8.5269 6.38685 8.51478 6.72619 8.49184C7.6181 8.43156 8.43655 8.29565 9.12928 8.10319L9.16304 8.09291Z" fill="#ECA100"/>
<path d="M9.76226 7.89669V6.02615C9.66593 6.06227 9.56599 6.09712 9.46265 6.13063V8.00151L9.76226 7.89669Z" fill="#ECA100"/>
<path d="M10.686 5.56752V7.43748C10.6675 7.45 11.022 7.21525 11.1794 6.98243C11.2925 6.81506 11.3586 6.64506 11.3586 6.46711V5.80952C11.3586 5.20909 11.3586 4.59457 11.3586 4.59457C11.3586 4.94649 11.115 5.27775 10.686 5.56752Z" fill="#ECA100"/>
<path d="M10.4362 7.59045V5.71993C10.2994 5.79585 10.1493 5.86833 9.9868 5.93686V7.80667C9.96657 7.8152 10.2698 7.68379 10.4191 7.60192L10.4362 7.59045Z" fill="#ECA100"/>
<path d="M11.3584 10.5432V8.67268C11.2621 8.7088 11.1622 8.74365 11.0588 8.77715V10.648L11.3584 10.5432Z" fill="#ECA100"/>
<path d="M12.0327 10.237V8.36646C11.8958 8.44238 11.7457 8.51487 11.5832 8.58339V10.4532C11.5301 10.4756 11.4519 10.5093 11.4519 10.5093V12.3758L11.4709 12.3652C11.8881 12.0786 12.1245 11.7521 12.1245 11.4054V10.1865C12.1245 10.1865 12.0927 10.2037 12.0327 10.237Z" fill="#ECA100"/>
<path d="M12.2822 8.21404V10.084C12.2822 10.084 12.2817 10.0868 12.3039 10.0715C12.7193 9.78536 12.9548 9.4595 12.9548 9.11364C12.9548 8.42704 12.9548 7.2411 12.9548 7.2411C12.9548 7.59302 12.7112 7.92427 12.2822 8.21404Z" fill="#ECA100"/>
<path d="M7.27553 11.1734C8.5857 11.1734 9.79193 11.0124 10.7527 10.7421L10.7592 10.7394V8.86785C9.79732 9.13922 8.58855 9.3009 7.27553 9.3009C6.6243 9.3009 5.99884 9.26103 5.41626 9.18785V11.0599L5.43805 11.0631C6.01431 11.1346 6.63238 11.1734 7.27553 11.1734Z" fill="#ECA100"/>
<path d="M9.92891 13.0312V11.1596C8.967 11.431 7.75821 11.5927 6.4452 11.5927C5.79398 11.5927 5.16852 11.5528 4.58594 11.4796V13.3511C5.16864 13.4245 5.79346 13.4652 6.4452 13.4652C7.75313 13.4652 8.95768 13.3048 9.91777 13.0354L9.92891 13.0312Z" fill="#ECA100"/>
<path d="M10.5281 12.835V10.9645C10.4318 11.0006 10.3319 11.0354 10.2285 11.0689V12.9398L10.5281 12.835Z" fill="#ECA100"/>
<path d="M11.2021 12.5288V10.6582C11.0653 10.7342 10.9152 10.8066 10.7527 10.8752V12.745C10.9058 12.6938 11.2021 12.5288 11.2021 12.5288Z" fill="#ECA100"/>
<path d="M8.22515 4.61685C8.22515 4.61685 8.37568 4.99528 7.32922 5.00139C6.39023 5.00687 5.98361 4.77438 5.77796 4.52042C5.57328 4.8571 5.9684 5.22749 6.06793 5.32035C6.1005 5.35072 5.76547 5.46685 5.72679 5.43932C5.64555 5.38149 5.31742 4.83685 5.64151 4.50523C5.39255 4.7286 4.79529 5.00587 4.0294 5.00139C2.98293 4.99528 3.13346 4.61685 3.13346 4.61685C3.13346 4.61685 2.25743 4.5175 2.20267 4.31811C2.19899 4.42209 2.19134 4.68499 2.20688 4.71959C2.29284 4.91086 3.13346 5.00615 3.13346 5.00615C3.13346 5.00615 2.98293 5.38458 4.0294 5.39068C4.79528 5.39516 5.12216 5.23619 5.37113 5.01282C5.29393 5.33821 5.59807 5.67592 5.67931 5.73375C5.71798 5.76127 6.42768 5.44656 6.39511 5.41619C6.29557 5.32333 6.12014 5.16262 6.11078 5.00346C6.31641 5.25741 6.39023 5.39616 7.32922 5.39068C8.37568 5.38456 8.22515 5.00614 8.22515 5.00614C8.22515 5.00614 9.13492 5.03341 9.16301 4.71946C9.17068 4.63369 9.16301 4.29308 9.16301 4.29308C9.16301 4.29308 9.16121 4.29319 9.15839 4.29336C9.17362 4.50928 8.22515 4.61685 8.22515 4.61685Z" fill="#ECA100"/>
<path d="M4.00208 4.03041C4.36674 4.04123 4.7312 4.06248 5.03445 4.08387C4.55483 3.94675 3.9654 3.73985 3.92501 3.54247C3.92501 3.54247 3.8964 3.66466 3.9049 3.79237C3.91092 3.88274 3.93553 3.97585 4.00208 4.03041Z" fill="#ECA100"/>
<path d="M6.18066 4.09431C6.52846 4.0682 6.9848 4.03968 7.43481 4.02824C7.44539 3.97741 7.45357 3.88688 7.45969 3.79316C7.46872 3.65497 7.47324 3.5101 7.47426 3.47488C7.44708 3.678 6.7087 3.93536 6.18066 4.09431Z" fill="#ECA100"/>
</g>
<defs>
<clipPath id="clip0_458_14480">
<rect width="12.9548" height="14.9304" fill="white" transform="translate(0 0.534782)"/>
</clipPath>
</defs>
</svg>
