<svg width="20" height="20" viewBox="0 0 20 20" fill="none" xmlns="http://www.w3.org/2000/svg">
<g clip-path="url(#clip0_349_4845)">
<path d="M14.1665 2.78333C15.4234 3.50905 16.469 4.55044 17.1997 5.80442C17.9304 7.05839 18.321 8.48148 18.3327 9.93278C18.3444 11.3841 17.9769 12.8133 17.2665 14.0789C16.5561 15.3445 15.5275 16.4027 14.2825 17.1486C13.0375 17.8945 11.6193 18.3024 10.1683 18.3317C8.7172 18.3611 7.28363 18.011 6.00947 17.316C4.7353 16.6211 3.66473 15.6054 2.90373 14.3696C2.14272 13.1338 1.71768 11.7206 1.67067 10.27L1.6665 10L1.67067 9.73C1.71734 8.29082 2.13613 6.8883 2.8862 5.65916C3.63628 4.43002 4.69205 3.41621 5.95058 2.71657C7.20911 2.01693 8.62746 1.65533 10.0673 1.66703C11.5072 1.67873 12.9195 2.06333 14.1665 2.78333ZM6.6665 4.22667C5.39564 4.96048 4.40242 6.09313 3.84086 7.44894C3.27931 8.80476 3.18081 10.308 3.56063 11.7255C3.94045 13.143 4.77738 14.3956 5.94161 15.2889C7.10585 16.1823 8.53233 16.6666 9.99984 16.6667L10.1665 16.6625C11.0206 16.6198 11.8257 16.2503 12.4151 15.6307C13.0045 15.011 13.3332 14.1885 13.3332 13.3333C13.3332 12.4781 13.0045 11.6556 12.4151 11.036C11.8257 10.4163 11.0206 10.0469 10.1665 10.0042L9.99984 10C9.13021 10 8.29501 9.66017 7.67244 9.053C7.04987 8.44582 6.68924 7.61938 6.66749 6.75002C6.64575 5.88067 6.96461 5.03723 7.55603 4.39969C8.14746 3.76214 8.96463 3.38097 9.83317 3.3375L9.99984 3.33333C8.82955 3.33319 7.67987 3.6413 6.6665 4.22667ZM9.99984 5.41667C9.66832 5.41667 9.35038 5.54836 9.11595 5.78278C8.88153 6.0172 8.74984 6.33514 8.74984 6.66667C8.74984 6.99819 8.88153 7.31613 9.11595 7.55055C9.35038 7.78497 9.66832 7.91667 9.99984 7.91667C10.3314 7.91667 10.6493 7.78497 10.8837 7.55055C11.1181 7.31613 11.2498 6.99819 11.2498 6.66667C11.2498 6.33514 11.1181 6.0172 10.8837 5.78278C10.6493 5.54836 10.3314 5.41667 9.99984 5.41667Z" fill="white"/>
<path d="M10 12.0833C10.3315 12.0833 10.6495 12.215 10.8839 12.4494C11.1183 12.6839 11.25 13.0018 11.25 13.3333C11.25 13.6648 11.1183 13.9828 10.8839 14.2172C10.6495 14.4516 10.3315 14.5833 10 14.5833C9.66848 14.5833 9.35054 14.4516 9.11612 14.2172C8.8817 13.9828 8.75 13.6648 8.75 13.3333C8.75 13.0018 8.8817 12.6839 9.11612 12.4494C9.35054 12.215 9.66848 12.0833 10 12.0833Z" fill="white"/>
</g>
<defs>
<clipPath id="clip0_349_4845">
<rect width="20" height="20" fill="white"/>
</clipPath>
</defs>
</svg>
