<svg width="40" height="40" viewBox="0 0 40 40" fill="none" xmlns="http://www.w3.org/2000/svg">
<path d="M0 20C0 8.95431 8.95431 0 20 0C31.0457 0 40 8.95431 40 20C40 31.0457 31.0457 40 20 40C8.95431 40 0 31.0457 0 20Z" fill="#FA1E42" fill-opacity="0.15"/>
<path d="M25.25 21.5C26.3675 20.405 27.5 19.0925 27.5 17.375C27.5 16.281 27.0654 15.2318 26.2918 14.4582C25.5182 13.6846 24.469 13.25 23.375 13.25C22.055 13.25 21.125 13.625 20 14.75C18.875 13.625 17.945 13.25 16.625 13.25C15.531 13.25 14.4818 13.6846 13.7082 14.4582C12.9346 15.2318 12.5 16.281 12.5 17.375C12.5 19.1 13.625 20.4125 14.75 21.5L20 26.75L25.25 21.5Z" stroke="#FA1E42" stroke-width="1.5" stroke-linecap="round" stroke-linejoin="round"/>
</svg>
