<svg width="60" height="60" viewBox="0 0 60 60" fill="none" xmlns="http://www.w3.org/2000/svg">
<path fill-rule="evenodd" clip-rule="evenodd" d="M49.8286 22.8648C49.5323 20.837 48.2798 19.5367 46.9636 18.9751C46.282 18.6892 45.4973 18.5148 44.6086 18.6451C42.5742 18.9357 41.4173 20.4601 41.0564 21.992C40.8679 22.7926 40.8698 23.792 41.2964 24.7407C42.037 26.4029 43.6823 27.272 45.3445 26.8567C46.3186 26.6139 46.942 26.0232 47.3451 25.2629C47.7998 24.4042 47.9733 22.861 47.0836 21.7932C46.3448 20.9026 44.6133 20.4095 43.5829 21.6348C43.2117 22.0839 42.9004 22.9239 43.2379 23.7498C43.5276 24.452 44.2945 24.8757 44.962 24.6114C45.4523 24.4229 45.6858 24.0029 45.5301 23.3982C45.4711 23.3879 45.4711 23.5904 45.4176 23.6917C45.3507 23.811 45.2512 23.9089 45.1308 23.9739C44.4248 24.3404 43.8923 23.7095 43.912 22.9932C43.9129 22.4204 44.377 21.8992 45.037 21.8232C45.7186 21.7464 46.3701 22.1673 46.6589 22.8039C47.1989 23.9992 46.5548 25.4223 45.3717 25.8685C44.0817 26.3495 42.8245 25.6548 42.2386 24.5973C41.6901 23.6045 41.7886 22.5948 42.0773 21.7904C42.4795 20.6682 43.5548 19.607 45.1495 19.5742C46.6692 19.5451 48.3417 20.5051 48.8414 22.6239C49.0101 23.3373 48.997 23.866 48.8995 24.4595C48.727 25.517 48.2714 26.4845 47.3423 27.272C46.4254 28.0435 45.0023 28.4279 43.8848 28.2507C42.8351 28.0898 41.87 27.5807 41.1445 26.8051C40.3326 25.9323 39.7551 24.6545 39.7008 23.2707C39.6634 22.1496 39.9269 21.039 40.4639 20.0542C40.9579 19.1673 41.9236 18.2148 43.0083 17.7301L43.6411 17.4939C46.1751 16.9145 48.2929 17.6795 49.7104 19.5114C50.4895 20.5257 51.0558 21.9273 51.1354 23.2801C51.1429 23.4226 50.2429 23.7882 49.8286 22.8648Z" fill="white"/>
<path d="M16.8712 18.7285L3.13122 52.1495C3.13122 52.1495 1.7531 58.1157 8.09997 57.5513L39.7125 43.5423" fill="#F4C778"/>
<path d="M9.94404 55.603L22.5618 24.9168L16.8703 18.7302L3.13122 52.1512C3.13122 52.1512 1.7531 58.1174 8.09997 57.553L9.82029 56.7918C9.83154 56.099 9.94404 55.603 9.94404 55.603Z" fill="#E5B973"/>
<path d="M39.2403 44.2782C36.8093 46.8067 29.7021 43.2723 23.3609 36.3826C17.0206 29.4976 13.8537 21.8636 16.2818 19.3389C18.7118 16.8142 25.8218 20.3457 32.1603 27.2345C38.5006 34.1232 41.6703 41.7554 39.2403 44.2782Z" fill="#D1A55E"/>
<path d="M17.1729 27.4893C18.5304 30.2822 20.6838 33.4115 23.4382 36.4068C26.2891 39.5025 29.2919 41.9109 31.96 43.4072C32.5 40.4597 30.8229 36.1237 27.4657 32.4806C24.0663 28.7859 19.9657 26.91 17.1757 27.4893" fill="#AD8C5C"/>
<path d="M59.7588 38.8124C51.8979 24.1687 34.4613 28.6902 23.3604 36.3899C23.6679 36.7143 24.3654 37.4362 24.6654 37.7671C25.4379 37.7671 38.3594 29.924 46.0188 32.2087C50.1625 33.4443 53.4007 36.8915 56.2966 39.9177C56.7185 40.3574 58.1013 40.1568 59.0144 39.8137C59.2891 39.7827 59.5657 39.6309 59.7157 39.4115C59.7888 39.3374 59.8132 39.268 59.8029 39.1996C59.8374 39.0696 59.8217 38.9313 59.7588 38.8124Z" fill="white"/>
<path d="M56.028 53.37C55.6943 39.09 41.5765 35.0625 31.3521 36.5691C30.694 36.6638 30.4868 37.7147 31.2668 37.5985C40.9352 36.1744 54.5374 39.8297 54.8543 53.4497C54.874 54.1782 56.0449 54.0075 56.0299 53.37" fill="white"/>
<path d="M42.4687 2.68772C42.2315 4.11647 43.3537 5.47772 43.3827 6.90647C43.4399 9.69928 42.1734 11.6221 39.584 12.6402C40.2721 14.1815 41.0343 15.6187 42.4246 16.3668C48.1059 13.784 49.2318 7.52053 46.4465 2.43178C45.3937 0.508027 42.9477 -0.189472 42.4659 2.68772" fill="white"/>
<path d="M26.5028 0.413484C25.8888 -0.166829 22.9713 1.18692 23.545 1.73161C33.3419 11.0119 33.3803 26.8585 22.0638 35.0147C22.0497 35.0204 22.5185 35.5604 22.7378 35.7816C23.3594 35.6794 26.7672 33.2916 27.6728 32.4169C29.1344 31.1532 30.3963 29.595 31.406 27.6919C36.3363 19.1288 34.5607 8.05223 26.5028 0.420046" fill="white"/>
<path fill-rule="evenodd" clip-rule="evenodd" d="M31.3771 9.95351C31.1315 8.27257 30.0918 7.19351 29.0052 6.7332C28.3939 6.46023 27.7181 6.36503 27.0552 6.45851C25.3696 6.69757 24.4096 7.96132 24.1124 9.23257C23.9558 9.89538 23.9577 10.7213 24.3093 11.5069C24.9252 12.8869 26.2883 13.6041 27.6618 13.2638C28.4718 13.0613 28.9902 12.5682 29.3221 11.9382C29.6971 11.2285 29.8387 9.95351 29.1027 9.06663C28.4896 8.33163 27.0552 7.91913 26.2021 8.93632C25.8946 9.30663 25.6368 10.0051 25.918 10.6857C26.159 11.2688 26.7946 11.6204 27.3468 11.4029C27.7527 11.2435 27.9477 10.8948 27.8174 10.396C27.7687 10.3848 27.7687 10.5554 27.7208 10.6426C27.6629 10.7388 27.5812 10.8185 27.4837 10.8741C26.8996 11.1779 26.4618 10.6576 26.4768 10.0632C26.488 9.58507 26.8602 9.15757 27.4077 9.09288C27.9768 9.02726 28.5149 9.37882 28.7549 9.90382C29.2002 10.8957 28.6649 12.0732 27.6862 12.4426C26.6212 12.841 25.5787 12.2654 25.0893 11.3851C24.6374 10.5666 24.7171 9.73038 24.9562 9.06663C25.2927 8.13663 26.1796 7.25257 27.5015 7.22726C28.7624 7.2057 30.1452 7.99882 30.5624 9.7557C30.6993 10.3454 30.6937 10.7879 30.6093 11.2735C30.4677 12.1501 30.0871 12.9535 29.3212 13.606C28.559 14.2473 27.3796 14.5623 26.458 14.4169C25.5873 14.2857 24.7868 13.863 24.1874 13.2179C23.5124 12.4979 23.0343 11.4404 22.9912 10.2919C22.9537 9.35444 23.1918 8.3982 23.623 7.63038C24.0327 6.89445 24.8315 6.10507 25.7305 5.70288L26.2565 5.50788C28.3537 5.02601 30.1049 5.65976 31.2805 7.17757C31.9274 8.02132 32.3933 9.18007 32.4608 10.3004C32.4674 10.4129 31.7212 10.7213 31.3771 9.95351Z" fill="white"/>
<path d="M21.1306 22.0574C19.6381 19.5899 7.8744 4.72114 17.2691 3.99177C18.7288 3.87927 20.6272 2.49833 18.08 2.69521C12.2253 3.14708 8.90283 5.69708 10.9006 11.864C11.9197 15.0074 13.9335 17.7346 15.9303 20.3108C18.2197 23.2649 20.8241 31.2636 12.8253 30.2024C9.0294 29.699 6.17002 22.5074 11.0319 24.0421C11.871 24.3065 15.1269 23.3024 14.1172 22.9846C11.1153 22.0377 6.07346 21.6196 4.66721 25.2065C2.58596 30.4996 11.4622 31.8065 14.4988 31.5421C19.16 31.1455 24.1888 27.1077 21.1344 22.0611" fill="white"/>
<path d="M18.6025 11.3792C19.0297 11.3792 19.376 10.7488 19.376 9.97111C19.376 9.19343 19.0297 8.56299 18.6025 8.56299C18.1754 8.56299 17.8291 9.19343 17.8291 9.97111C17.8291 10.7488 18.1754 11.3792 18.6025 11.3792Z" fill="white"/>
<path d="M58.296 13.8588C57.8455 13.184 56.7611 13.1172 55.8741 13.7094C54.987 14.3017 54.6332 15.3288 55.0837 16.0036C55.5342 16.6783 56.6185 16.7452 57.5056 16.153C58.3926 15.5607 58.7465 14.5336 58.296 13.8588Z" fill="white"/>
<path d="M49.4356 46.2981C49.9378 45.6608 49.6655 44.6088 48.8274 43.9483C47.9893 43.2877 46.9028 43.2688 46.4006 43.906C45.8983 44.5432 46.1706 45.5953 47.0087 46.2558C47.8468 46.9164 48.9334 46.9353 49.4356 46.2981Z" fill="white"/>
</svg>
