<svg width="20" height="20" viewBox="0 0 20 20" fill="none" xmlns="http://www.w3.org/2000/svg">
<rect width="20" height="20" rx="5" fill="white" fill-opacity="0.8"/>
<path fill-rule="evenodd" clip-rule="evenodd" d="M10.8332 9.29167V3.33333C10.8332 3.11232 10.7454 2.90036 10.5891 2.74408C10.4328 2.5878 10.2208 2.5 9.99983 2.5C9.77882 2.5 9.56686 2.5878 9.41058 2.74408C9.2543 2.90036 9.1665 3.11232 9.1665 3.33333V9.29167L7.3165 6.97833C7.24945 6.88909 7.16516 6.81422 7.06862 6.75817C6.97209 6.70213 6.86528 6.66605 6.75453 6.65208C6.64378 6.63811 6.53136 6.64653 6.42393 6.67684C6.3165 6.70716 6.21625 6.75874 6.12914 6.82854C6.04203 6.89834 5.96983 6.98493 5.91683 7.08317C5.86383 7.18141 5.8311 7.2893 5.82059 7.40043C5.81009 7.51156 5.82201 7.62366 5.85567 7.73009C5.88932 7.83653 5.94401 7.93511 6.0165 8.02L9.34983 12.1867C9.42792 12.284 9.52686 12.3625 9.63936 12.4165C9.75187 12.4705 9.87505 12.4985 9.99983 12.4985C10.1246 12.4985 10.2478 12.4705 10.3603 12.4165C10.4728 12.3625 10.5717 12.284 10.6498 12.1867L13.9832 8.02C14.0557 7.93511 14.1103 7.83653 14.144 7.73009C14.1777 7.62366 14.1896 7.51156 14.1791 7.40043C14.1686 7.2893 14.1358 7.18141 14.0828 7.08317C14.0298 6.98493 13.9576 6.89834 13.8705 6.82854C13.7834 6.75874 13.6832 6.70716 13.5757 6.67684C13.4683 6.64653 13.3559 6.63811 13.2451 6.65208C13.1344 6.66605 13.0276 6.70213 12.931 6.75817C12.8345 6.81422 12.7502 6.88909 12.6832 6.97833L10.8332 9.29167Z" fill="black"/>
<path fill-rule="evenodd" clip-rule="evenodd" d="M8.0475 13.2283L6.13167 10.8333H4.16667C3.72464 10.8333 3.30072 11.0089 2.98816 11.3215C2.67559 11.6341 2.5 12.058 2.5 12.5V15.8333C2.5 16.2754 2.67559 16.6993 2.98816 17.0119C3.30072 17.3244 3.72464 17.5 4.16667 17.5H15.8333C16.2754 17.5 16.6993 17.3244 17.0118 17.0119C17.3244 16.6993 17.5 16.2754 17.5 15.8333V12.5C17.5 12.058 17.3244 11.6341 17.0118 11.3215C16.6993 11.0089 16.2754 10.8333 15.8333 10.8333H13.8683L11.9517 13.2283C11.7175 13.5211 11.4204 13.7574 11.0825 13.9198C10.7446 14.0822 10.3745 14.1665 9.99958 14.1665C9.62468 14.1665 9.25458 14.0822 8.91668 13.9198C8.57877 13.7574 8.28172 13.5211 8.0475 13.2283ZM14.1667 13.3333C13.9457 13.3333 13.7337 13.4211 13.5774 13.5774C13.4211 13.7337 13.3333 13.9457 13.3333 14.1667C13.3333 14.3877 13.4211 14.5997 13.5774 14.7559C13.7337 14.9122 13.9457 15 14.1667 15H14.175C14.396 15 14.608 14.9122 14.7643 14.7559C14.9205 14.5997 15.0083 14.3877 15.0083 14.1667C15.0083 13.9457 14.9205 13.7337 14.7643 13.5774C14.608 13.4211 14.396 13.3333 14.175 13.3333H14.1667Z" fill="black"/>
</svg>
