<svg width="16" height="16" viewBox="0 0 16 16" fill="none" xmlns="http://www.w3.org/2000/svg">
<path d="M10.9847 2.00266C11.0961 2.01266 11.1447 2.14866 11.0647 2.228L5.51808 7.77466C5.45542 7.83736 5.41055 7.91559 5.38808 8.00133L4.72141 10.5547C4.6994 10.639 4.69985 10.7277 4.7227 10.8119C4.74555 10.896 4.79001 10.9727 4.85167 11.0344C4.91334 11.0961 4.99005 11.1405 5.07421 11.1634C5.15836 11.1862 5.24703 11.1867 5.33141 11.1647L7.88408 10.498C7.96989 10.4753 8.04813 10.4302 8.11075 10.3673L13.7361 4.742C13.7537 4.72393 13.7761 4.71128 13.8006 4.70555C13.8252 4.69982 13.8509 4.70125 13.8747 4.70967C13.8985 4.71808 13.9193 4.73314 13.9348 4.75304C13.9503 4.77295 13.9598 4.79688 13.9621 4.822C14.1962 7.05508 14.1828 9.3072 13.9221 11.5373C13.7734 12.8073 12.7527 13.804 11.4874 13.946C9.16984 14.2028 6.83099 14.2028 4.51341 13.946C3.24741 13.804 2.22675 12.8073 2.07808 11.5373C1.8034 9.18733 1.8034 6.81333 2.07808 4.46333C2.22675 3.19266 3.24741 2.196 4.51341 2.05466C6.66309 1.81638 8.83152 1.79895 10.9847 2.00266Z" fill="white"/>
<path d="M11.8824 2.82466C11.8979 2.80914 11.9163 2.79683 11.9365 2.78842C11.9568 2.78002 11.9785 2.7757 12.0004 2.7757C12.0223 2.7757 12.044 2.78002 12.0643 2.78842C12.0845 2.79683 12.1029 2.80914 12.1184 2.82466L13.0611 3.76799C13.0922 3.79923 13.1097 3.84155 13.1097 3.88566C13.1097 3.92977 13.0922 3.97209 13.0611 4.00333L7.53241 9.53333C7.51139 9.55428 7.48515 9.56924 7.45641 9.57666L6.18041 9.90999C6.15228 9.91733 6.12272 9.91718 6.09467 9.90956C6.06662 9.90195 6.04105 9.88713 6.0205 9.86657C5.99994 9.84602 5.98512 9.82045 5.9775 9.7924C5.96989 9.76434 5.96974 9.73479 5.97707 9.70666L6.31041 8.43066C6.31783 8.40192 6.33279 8.37568 6.35374 8.35466L11.8824 2.82466Z" fill="white"/>
</svg>
