<svg width="20" height="20" viewBox="0 0 20 20" fill="none" xmlns="http://www.w3.org/2000/svg">
<rect width="20" height="20" rx="5" fill="white" fill-opacity="0.8"/>
<path d="M10.0002 11.6666C10.9206 11.6666 11.6668 10.9205 11.6668 9.99998C11.6668 9.07951 10.9206 8.33331 10.0002 8.33331C9.07969 8.33331 8.3335 9.07951 8.3335 9.99998C8.3335 10.9205 9.07969 11.6666 10.0002 11.6666Z" fill="black"/>
<path d="M16.2248 9.85832C15.7348 8.59068 14.884 7.49441 13.7777 6.70503C12.6713 5.91564 11.3579 5.46773 9.99982 5.41666C8.6417 5.46773 7.32832 5.91564 6.22199 6.70503C5.11566 7.49441 4.26489 8.59068 3.77482 9.85832C3.74173 9.94987 3.74173 10.0501 3.77482 10.1417C4.26489 11.4093 5.11566 12.5056 6.22199 13.295C7.32832 14.0843 8.6417 14.5323 9.99982 14.5833C11.3579 14.5323 12.6713 14.0843 13.7777 13.295C14.884 12.5056 15.7348 11.4093 16.2248 10.1417C16.2579 10.0501 16.2579 9.94987 16.2248 9.85832ZM9.99982 12.7083C9.46416 12.7083 8.94054 12.5495 8.49515 12.2519C8.04977 11.9543 7.70264 11.5313 7.49765 11.0364C7.29266 10.5415 7.23903 9.99699 7.34353 9.47162C7.44803 8.94625 7.70597 8.46368 8.08474 8.08491C8.46351 7.70614 8.94609 7.4482 9.47145 7.3437C9.99682 7.23919 10.5414 7.29283 11.0363 7.49782C11.5311 7.7028 11.9541 8.04994 12.2517 8.49532C12.5493 8.9407 12.7082 9.46433 12.7082 9.99999C12.7071 10.7179 12.4214 11.4062 11.9137 11.9139C11.406 12.4215 10.7178 12.7072 9.99982 12.7083Z" fill="black"/>
</svg>
