<svg width="33" height="32" viewBox="0 0 33 32" fill="none" xmlns="http://www.w3.org/2000/svg">
<path d="M15.1667 25.3333H13.8334C13.4556 25.3333 13.1392 25.2053 12.8841 24.9493C12.629 24.6933 12.501 24.3769 12.5001 24C12.4992 23.6231 12.6272 23.3066 12.8841 23.0506C13.141 22.7946 13.4574 22.6666 13.8334 22.6666H15.1667V19.8666C13.4112 19.5555 11.9721 18.7164 10.8494 17.3493C9.72675 15.9822 9.16586 14.3991 9.16675 12.6C9.16675 10.5778 9.88364 8.86131 11.3174 7.45065C12.7512 6.03998 14.4787 5.3342 16.5001 5.33331C18.5214 5.33242 20.2494 6.0382 21.6841 7.45065C23.1187 8.86309 23.8352 10.5795 23.8334 12.6C23.8334 14.4 23.2721 15.9835 22.1494 17.3506C21.0267 18.7178 19.5881 19.5564 17.8334 19.8666V22.6666H19.1667C19.5445 22.6666 19.8614 22.7946 20.1174 23.0506C20.3734 23.3066 20.501 23.6231 20.5001 24C20.4992 24.3769 20.3712 24.6938 20.1161 24.9506C19.861 25.2075 19.5445 25.3351 19.1667 25.3333H17.8334V26.6666C17.8334 27.0444 17.7054 27.3613 17.4494 27.6173C17.1934 27.8733 16.877 28.0009 16.5001 28C16.1232 27.9991 15.8067 27.8711 15.5507 27.616C15.2947 27.3609 15.1667 27.0444 15.1667 26.6666V25.3333ZM16.5001 17.3333C17.789 17.3333 18.889 16.8778 19.8001 15.9666C20.7112 15.0555 21.1667 13.9555 21.1667 12.6666C21.1667 11.3778 20.7112 10.2778 19.8001 9.36665C18.889 8.45554 17.789 7.99998 16.5001 7.99998C15.2112 7.99998 14.1112 8.45554 13.2001 9.36665C12.289 10.2778 11.8334 11.3778 11.8334 12.6666C11.8334 13.9555 12.289 15.0555 13.2001 15.9666C14.1112 16.8778 15.2112 17.3333 16.5001 17.3333Z" fill="white"/>
</svg>
