<svg width="21" height="21" viewBox="0 0 21 21" fill="none" xmlns="http://www.w3.org/2000/svg">
<path d="M12.001 4.2149C11.6662 4.21819 11.332 4.24492 11.001 4.2949C10.9453 3.10143 10.4177 1.97896 9.53445 1.17443C8.65115 0.369898 7.48443 -0.0507932 6.29096 0.00490226C5.09748 0.0605977 3.97502 0.588118 3.17048 1.47141C2.36595 2.35471 1.94526 3.52143 2.00096 4.7149V5.2149C1.47052 5.2149 0.961817 5.42562 0.586744 5.80069C0.211672 6.17576 0.000957998 6.68447 0.000957998 7.2149V16.2149C-0.00736962 16.4798 0.0386677 16.7436 0.13623 16.99C0.233792 17.2364 0.38081 17.4602 0.568213 17.6476C0.755616 17.835 0.97943 17.9821 1.22585 18.0796C1.47227 18.1772 1.73606 18.2232 2.00096 18.2149H6.73096C7.70245 19.0717 8.86745 19.6797 10.1258 19.9868C11.3842 20.2939 12.6984 20.2908 13.9553 19.9779C15.2122 19.6649 16.3744 19.0514 17.3419 18.1901C18.3093 17.3288 19.0532 16.2455 19.5095 15.0332C19.9659 13.821 20.121 12.516 19.9616 11.2305C19.8023 9.94508 19.3331 8.71753 18.5946 7.65341C17.856 6.58929 16.8701 5.72041 15.7216 5.12147C14.573 4.52253 13.2963 4.21143 12.001 4.2149ZM4.00096 4.7149C4.01829 4.08215 4.27405 3.47932 4.71701 3.02715C5.15997 2.57498 5.75742 2.30686 6.38967 2.27652C7.02193 2.24617 7.64231 2.45582 8.12654 2.86349C8.61078 3.27115 8.9231 3.84672 9.00096 4.4749V5.2149H4.00096V4.7149ZM12.001 18.2149C10.8143 18.2149 9.65423 17.863 8.66754 17.2037C7.68084 16.5444 6.91181 15.6074 6.45768 14.511C6.00355 13.4146 5.88473 12.2082 6.11625 11.0444C6.34776 9.88047 6.9192 8.81138 7.75832 7.97226C8.59743 7.13315 9.66653 6.5617 10.8304 6.33019C11.9943 6.09868 13.2007 6.2175 14.2971 6.67162C15.3934 7.12575 16.3305 7.89478 16.9898 8.88148C17.6491 9.86817 18.001 11.0282 18.001 12.2149C18.001 13.8062 17.3688 15.3323 16.2436 16.4575C15.1184 17.5828 13.5923 18.2149 12.001 18.2149ZM10.501 10.2149V11.2149H14.501C14.7662 11.2149 15.0205 11.3203 15.2081 11.5078C15.3956 11.6953 15.501 11.9497 15.501 12.2149V15.2149C15.501 15.4801 15.3956 15.7345 15.2081 15.922C15.0205 16.1095 14.7662 16.2149 14.501 16.2149H13.001V17.2149H11.001V16.2149H8.50096V14.2149H13.501V13.2149H9.50096C9.23574 13.2149 8.98139 13.1095 8.79385 12.922C8.60631 12.7345 8.50096 12.4801 8.50096 12.2149V9.2149C8.50096 8.94968 8.60631 8.69533 8.79385 8.50779C8.98139 8.32026 9.23574 8.2149 9.50096 8.2149H11.001V7.2149H13.001V8.2149H15.501V10.2149H10.501Z" fill="white"/>
</svg>
