<svg width="34" height="34" viewBox="0 0 34 34" fill="none" xmlns="http://www.w3.org/2000/svg">
<path d="M26.52 22.78C27.0834 22.78 27.54 22.3233 27.54 21.76C27.54 21.1967 27.0834 20.74 26.52 20.74V22.78ZM7.48004 20.74C6.91673 20.74 6.46004 21.1967 6.46004 21.76C6.46004 22.3233 6.91673 22.78 7.48004 22.78V20.74ZM26.52 17.34C27.0834 17.34 27.54 16.8833 27.54 16.32C27.54 15.7567 27.0834 15.3 26.52 15.3V17.34ZM10.2 15.3C9.63673 15.3 9.18004 15.7567 9.18004 16.32C9.18004 16.8833 9.63673 17.34 10.2 17.34V15.3ZM26.52 11.9C27.0834 11.9 27.54 11.4433 27.54 10.88C27.54 10.3167 27.0834 9.86 26.52 9.86V11.9ZM17 9.86C16.4367 9.86 15.98 10.3167 15.98 10.88C15.98 11.4433 16.4367 11.9 17 11.9L17 9.86ZM26.52 20.74L7.48004 20.74V22.78L26.52 22.78V20.74ZM26.52 15.3L10.2 15.3V17.34L26.52 17.34V15.3ZM26.52 9.86L17 9.86L17 11.9L26.52 11.9V9.86Z" fill="white"/>
</svg>
