<svg width="24" height="24" viewBox="0 0 24 24" fill="none" xmlns="http://www.w3.org/2000/svg">
<path d="M12 8V12L14.5 14.5" stroke="#FEE2E2" stroke-width="1.5" stroke-linecap="round" stroke-linejoin="round"/>
<path d="M4.3376 6.87101L3.5876 6.87401C3.58839 7.07171 3.66721 7.26111 3.80691 7.401C3.94662 7.54089 4.1359 7.61996 4.3336 7.62101L4.3376 6.87101ZM6.8796 7.63301C6.97809 7.63347 7.07571 7.61453 7.16688 7.57726C7.25805 7.53999 7.34099 7.48513 7.41096 7.41582C7.48093 7.3465 7.53656 7.26408 7.57467 7.17326C7.61279 7.08244 7.63264 6.985 7.6331 6.88651C7.63356 6.78802 7.61462 6.6904 7.57735 6.59923C7.54009 6.50806 7.48523 6.42513 7.41591 6.35516C7.34659 6.28519 7.26417 6.22956 7.17335 6.19144C7.08253 6.15333 6.98509 6.13347 6.8866 6.13301L6.8796 7.63301ZM5.0746 4.32101C5.07408 4.22252 5.05416 4.1251 5.01598 4.0343C4.97781 3.94351 4.92212 3.86113 4.85211 3.79185C4.78209 3.72258 4.69912 3.66778 4.60792 3.63057C4.51673 3.59337 4.41909 3.57449 4.3206 3.57501C4.22211 3.57554 4.12469 3.59546 4.03389 3.63363C3.9431 3.67181 3.86072 3.72749 3.79144 3.79751C3.72217 3.86752 3.66737 3.9505 3.63016 4.04169C3.59296 4.13289 3.57408 4.23052 3.5746 4.32901L5.0746 4.32101ZM3.8266 10.785C3.84097 10.687 3.83578 10.5871 3.81133 10.4911C3.78687 10.3951 3.74364 10.3049 3.68413 10.2257C3.62462 10.1465 3.55001 10.0799 3.4646 10.0297C3.37919 9.97945 3.28469 9.94666 3.18654 9.93319C3.08839 9.91971 2.98855 9.92582 2.89277 9.95115C2.797 9.97648 2.70719 10.0205 2.62853 10.0808C2.54988 10.141 2.48394 10.2162 2.43452 10.3021C2.3851 10.3879 2.35318 10.4827 2.3406 10.581L3.8266 10.785ZM18.8616 5.13801C15.0416 1.31801 8.8686 1.27801 5.0736 5.07401L6.1336 6.13401C9.3336 2.93501 14.5566 2.95401 17.8016 6.19801L18.8616 5.13801ZM5.1376 18.862C8.9576 22.682 15.1306 22.722 18.9256 18.926L17.8656 17.866C14.6656 21.065 9.4426 21.046 6.1976 17.802L5.1376 18.862ZM18.9256 18.926C22.7206 15.131 22.6816 8.95801 18.8616 5.13801L17.8016 6.19801C21.0456 9.44301 21.0646 14.666 17.8656 17.866L18.9256 18.926ZM5.0736 5.07401L3.8066 6.34001L4.8676 7.40001L6.1336 6.13401L5.0736 5.07401ZM4.3336 7.62101L6.8796 7.63301L6.8866 6.13301L4.3416 6.12101L4.3336 7.62101ZM5.0876 6.86701L5.0746 4.32101L3.5746 4.32901L3.5876 6.87401L5.0876 6.86701ZM2.3396 10.58C2.13399 12.0826 2.27955 13.6124 2.76486 15.0492C3.25017 16.4861 4.06201 17.7908 5.1366 18.861L6.1966 17.801C5.2857 16.8944 4.5975 15.7888 4.18609 14.5713C3.77468 13.3537 3.65129 12.0573 3.8256 10.784L2.3396 10.58Z" fill="#FEE2E2"/>
</svg>
