<svg width="20" height="20" viewBox="0 0 20 20" fill="none" xmlns="http://www.w3.org/2000/svg">
<g clip-path="url(#clip0_989_3268)">
<path d="M3.3335 15.8333V8.33332C3.3335 8.06943 3.39266 7.81943 3.511 7.58332C3.62933 7.34721 3.79239 7.15277 4.00016 6.99999L9.00016 3.24999C9.29183 3.02777 9.62516 2.91666 10.0002 2.91666C10.3752 2.91666 10.7085 3.02777 11.0002 3.24999L16.0002 6.99999C16.2085 7.15277 16.3718 7.34721 16.4902 7.58332C16.6085 7.81943 16.6674 8.06943 16.6668 8.33332V15.8333C16.6668 16.2917 16.5035 16.6842 16.1768 17.0108C15.8502 17.3375 15.4579 17.5005 15.0002 17.5H12.5002C12.2641 17.5 12.0663 17.42 11.9068 17.26C11.7474 17.1 11.6674 16.9022 11.6668 16.6667V12.5C11.6668 12.2639 11.5868 12.0661 11.4268 11.9067C11.2668 11.7472 11.0691 11.6672 10.8335 11.6667H9.16683C8.93072 11.6667 8.73294 11.7467 8.5735 11.9067C8.41405 12.0667 8.33405 12.2644 8.3335 12.5V16.6667C8.3335 16.9028 8.2535 17.1008 8.0935 17.2608C7.9335 17.4208 7.73572 17.5005 7.50016 17.5H5.00016C4.54183 17.5 4.14961 17.3369 3.8235 17.0108C3.49738 16.6847 3.33405 16.2922 3.3335 15.8333Z" fill="white"/>
</g>
<defs>
<clipPath id="clip0_989_3268">
<rect width="20" height="20" fill="white"/>
</clipPath>
</defs>
</svg>
