<svg width="40" height="40" viewBox="0 0 40 40" fill="none" xmlns="http://www.w3.org/2000/svg">
<path d="M0 20C0 8.95431 8.95431 0 20 0C31.0457 0 40 8.95431 40 20C40 31.0457 31.0457 40 20 40C8.95431 40 0 31.0457 0 20Z" fill="#FFD700" fill-opacity="0.15"/>
<path d="M19.6431 12.7213C19.676 12.6549 19.7268 12.599 19.7897 12.5599C19.8527 12.5208 19.9253 12.5001 19.9994 12.5001C20.0735 12.5001 20.1461 12.5208 20.2091 12.5599C20.272 12.599 20.3228 12.6549 20.3556 12.7213L22.0881 16.2305C22.2023 16.4615 22.3708 16.6613 22.5791 16.8129C22.7875 16.9644 23.0295 17.0631 23.2844 17.1005L27.1589 17.6675C27.2323 17.6781 27.3013 17.7091 27.358 17.7569C27.4147 17.8047 27.457 17.8674 27.4799 17.938C27.5029 18.0085 27.5056 18.0841 27.4878 18.1561C27.4701 18.2281 27.4325 18.2937 27.3794 18.3455L24.5774 21.074C24.3926 21.2541 24.2544 21.4764 24.1745 21.7217C24.0947 21.9671 24.0757 22.2282 24.1191 22.4825L24.7806 26.3375C24.7936 26.4109 24.7857 26.4864 24.7578 26.5555C24.7299 26.6246 24.6831 26.6845 24.6228 26.7283C24.5625 26.772 24.4911 26.798 24.4168 26.8032C24.3425 26.8084 24.2682 26.7925 24.2024 26.7575L20.7389 24.9365C20.5107 24.8167 20.2568 24.7541 19.999 24.7541C19.7413 24.7541 19.4874 24.8167 19.2591 24.9365L15.7964 26.7575C15.7306 26.7923 15.6564 26.808 15.5822 26.8027C15.508 26.7974 15.4368 26.7714 15.3766 26.7277C15.3165 26.6839 15.2698 26.6242 15.2419 26.5552C15.214 26.4862 15.206 26.4108 15.2189 26.3375L15.8796 22.4833C15.9233 22.2288 15.9044 21.9676 15.8246 21.722C15.7447 21.4765 15.6064 21.2541 15.4214 21.074L12.6194 18.3463C12.5658 18.2945 12.5279 18.2288 12.5099 18.1566C12.4918 18.0843 12.4945 18.0085 12.5175 17.9377C12.5404 17.8668 12.5828 17.8039 12.6399 17.756C12.6969 17.7081 12.7662 17.6772 12.8399 17.6668L16.7136 17.1005C16.9688 17.0634 17.2112 16.9648 17.4198 16.8133C17.6285 16.6617 17.7972 16.4617 17.9114 16.2305L19.6431 12.7213Z" stroke="#FFD700" stroke-width="1.5" stroke-linecap="round" stroke-linejoin="round"/>
</svg>
