<svg width="56" height="56" viewBox="0 0 56 56" fill="none" xmlns="http://www.w3.org/2000/svg">
<g clip-path="url(#clip0_2562_1162)">
<g filter="url(#filter0_f_2562_1162)">
<path d="M56 0H0V56H56V0Z" fill="url(#paint0_radial_2562_1162)"/>
</g>
<g clip-path="url(#clip1_2562_1162)">
<g opacity="0.2">
<g style="mix-blend-mode:screen" opacity="0.5">
<path d="M41.6935 28.7502C41.6935 37.1278 34.874 43.9212 26.4613 43.9212C18.0486 43.9212 11.2305 37.1291 11.2305 28.7502C11.2305 20.3712 18.0499 13.5791 26.4627 13.5791C34.8754 13.5791 41.6948 20.3712 41.6948 28.7502H41.6935Z" stroke="#FC3DD3" stroke-width="2.62" stroke-miterlimit="10"/>
</g>
<g style="mix-blend-mode:screen" opacity="0.5">
<path d="M40.987 28.75C40.987 36.7394 34.4846 43.2158 26.4629 43.2158C18.4412 43.2158 11.9375 36.7394 11.9375 28.75C11.9375 20.7605 18.4412 14.2842 26.4629 14.2842C34.4846 14.2842 40.987 20.7618 40.987 28.75Z" stroke="#FC3DD3" stroke-width="1.35" stroke-miterlimit="10"/>
</g>
<g style="mix-blend-mode:screen" opacity="0.5">
<path d="M40.2215 28.7503C40.2215 36.3188 34.0612 42.4543 26.4623 42.4543C18.8634 42.4543 12.7031 36.3188 12.7031 28.7503C12.7031 21.1819 18.8634 15.0464 26.4623 15.0464C34.0612 15.0464 40.2215 21.1819 40.2215 28.7503Z" fill="#FC3DD3"/>
</g>
</g>
<g style="mix-blend-mode:screen">
<path d="M39.6542 27.0265C39.2565 26.9686 38.8734 27.0751 38.5722 27.2909L36.008 24.4541L31.2877 24.0409C31.2415 23.783 31.038 23.5712 30.7632 23.5317C30.7091 23.5238 30.6562 23.5251 30.6034 23.5317L29.6126 21.0251C29.8266 20.9515 29.9944 20.7659 30.03 20.5278C30.0776 20.2015 29.8623 19.9001 29.5452 19.8304L31.1966 14.5988C31.6642 14.6554 32.0936 14.3409 32.1808 13.8804L34.6525 13.8896C34.7146 14.1238 34.9115 14.3107 35.1678 14.3488C35.5099 14.3988 35.8296 14.1633 35.8798 13.8199C35.93 13.4778 35.6936 13.1607 35.3501 13.1107C35.033 13.0646 34.7397 13.2633 34.6565 13.5646L32.1808 13.5554C32.1134 13.1883 31.8228 12.8883 31.433 12.8317C30.9442 12.7607 30.4885 13.0975 30.4171 13.5857C30.3603 13.9686 30.5598 14.3278 30.8848 14.5001L29.1951 19.8528C28.9864 19.9291 28.8226 20.112 28.7882 20.3475C28.7407 20.6725 28.9533 20.9712 29.2691 21.0436L30.2995 23.6501C30.1714 23.7449 30.0789 23.8896 30.0538 24.062C30.0221 24.2738 30.1014 24.4751 30.248 24.6107L20.6463 31.5725C20.5618 31.5054 20.4614 31.4567 20.3451 31.4396C20.003 31.3896 19.6846 31.6251 19.6344 31.9673C19.5974 32.2173 19.715 32.4515 19.9131 32.5804L17.3779 40.333C17.2868 40.3001 17.1904 40.2751 17.0886 40.2607C16.2762 40.1423 15.5205 40.7028 15.4016 41.512C15.2827 42.3212 15.8455 43.0751 16.658 43.1936C17.4704 43.312 18.2261 42.7515 18.345 41.9409C18.3873 41.6502 18.341 41.3686 18.2274 41.1199L22.5025 37.983C22.5857 38.0501 22.6874 38.0988 22.8023 38.1146C23.1458 38.1646 23.4642 37.9291 23.5144 37.587C23.5263 37.5054 23.521 37.4251 23.5025 37.3501L38.2261 29.3396C38.4533 29.6633 38.8047 29.8975 39.2275 29.9594C40.0399 30.0778 40.7956 29.5173 40.9145 28.708C41.0334 27.8975 40.4706 27.1449 39.6581 27.0265H39.6542ZM23.3414 37.0659C23.2476 36.9686 23.1247 36.8988 22.9807 36.8778C22.6385 36.8278 22.3188 37.0633 22.2699 37.4054C22.2528 37.5159 22.2699 37.6238 22.3083 37.7212L18.061 40.837C17.9539 40.6962 17.8218 40.5765 17.6712 40.4804L20.2223 32.6791C20.542 32.6949 20.8273 32.4712 20.8736 32.1488C20.8894 32.0383 20.8736 31.933 20.8366 31.837L30.5809 24.7712C30.8808 24.8146 31.1622 24.6409 31.2613 24.3673L35.8508 24.7686L38.3291 27.5094C38.1429 27.7186 38.0121 27.9804 37.9672 28.2791C37.9275 28.5515 37.9698 28.8159 38.0676 29.0554L23.3414 37.0686V37.0659Z" fill="#FC3DD3"/>
</g>
<path d="M37.9609 28.5843C42.2241 27.533 40.6295 23.9422 39.6004 19.6645C38.4128 14.7303 43.2995 14.5093 43.2995 14.5093C43.2995 14.5093 39.6282 15.5685 40.4393 19.3948C41.0787 22.4093 44.3762 28.5224 38.3559 30.8474L37.9609 28.5843Z" fill="url(#paint1_linear_2562_1162)"/>
<g style="mix-blend-mode:multiply" opacity="0.2">
<path d="M37.9609 28.5843C42.4408 30.5685 41.66 23.6132 40.4855 20.583C38.6519 15.8501 43.2995 14.5093 43.2995 14.5093C43.2995 14.5093 39.6282 15.5685 40.4393 19.3948C41.0787 22.4093 44.3762 28.5224 38.3559 30.8474L37.9609 28.5843Z" fill="#5F39FF"/>
</g>
<g style="mix-blend-mode:multiply" opacity="0.3">
<path d="M37.9609 28.5847L38.3559 30.8478C39.3322 30.4702 40.0628 29.9926 40.6005 29.4452C39.9849 29.0018 39.3071 28.6426 38.599 28.3926C38.4022 28.4636 38.1908 28.5281 37.9609 28.5847Z" fill="#5F39FF"/>
</g>
<path d="M41.5951 15.0502C43.1368 16.7318 45.5795 15.366 45.5795 15.366C45.1528 15.5608 44.693 15.0608 44.693 15.0608C45.7407 15.2713 46.7883 13.9213 47.9984 15.0305C47.9984 15.0305 46.8794 12.3673 44.4341 12.4318C41.9861 12.4989 41.5938 15.0502 41.5938 15.0502H41.5951Z" fill="url(#paint2_linear_2562_1162)"/>
<path style="mix-blend-mode:multiply" opacity="0.3" d="M42.7817 14.1225C43.8306 13.3817 45.511 13.0935 45.511 13.0935C42.7064 12.5014 41.9375 14.9291 41.9375 14.9291C41.9375 14.9291 42.3312 14.3027 42.7817 14.1225Z" fill="url(#paint3_linear_2562_1162)"/>
<path d="M30.9694 33.016C30.9694 33.016 30.3722 35.4318 31.3168 37.9028C31.5982 38.6396 32.6432 39.7804 32.9153 40.5068C33.1875 41.2344 33.3236 43.6739 32.8625 43.9041C32.4411 44.1146 31.6735 44.2686 31.4014 44.6304C31.1292 44.9923 31.1054 45.5502 31.2561 45.7765C31.4053 46.0041 34.0436 45.9436 34.2549 45.5686C34.4663 45.1936 34.7768 44.9265 34.9511 44.3633C35.1242 43.8002 35.4439 40.7015 35.2973 40.2646C35.07 39.587 35.1348 38.5673 35.7848 37.7436C36.6289 36.6739 39.1258 34.9752 38.7612 33.8002C37.1706 34.116 30.9694 33.0146 30.9694 33.0146V33.016Z" fill="url(#paint4_linear_2562_1162)"/>
<g style="mix-blend-mode:multiply" opacity="0.3">
<path d="M38.7611 33.8016C37.1705 34.1174 30.9693 33.0161 30.9693 33.0161C30.9693 33.0161 30.6179 34.4306 30.8518 35.9898C32.5982 36.3359 34.1294 37.9674 35.1942 39.2135C35.2431 38.7253 35.4227 38.2043 35.786 37.7451C36.6302 36.6753 39.1271 34.9766 38.7625 33.8016H38.7611Z" fill="#5F39FF"/>
</g>
<g style="mix-blend-mode:multiply" opacity="0.5">
<path d="M31.8541 44.7832C31.36 45.0819 31.393 45.8082 31.3917 45.8477C31.3917 45.849 31.6585 45.8845 31.6585 45.8845C31.6585 45.8845 31.5436 45.1872 31.8541 44.7832Z" fill="#5F39FF"/>
</g>
<g style="mix-blend-mode:multiply" opacity="0.5">
<path d="M32.5849 44.8291C32.1225 44.9502 32.1661 45.9094 32.1661 45.9094H32.3907C32.3907 45.9094 32.1754 45.0857 32.5849 44.8291Z" fill="#5F39FF"/>
</g>
<path d="M24.1515 22.053C24.9085 22.3714 26.1173 23.5872 27.0011 24.5293C27.8849 25.4714 32.2591 26.9464 34.3213 27.2964C36.3095 27.6333 38.1458 28.2727 39.0283 29.7385C40.2028 31.6885 39.9663 34.7833 40.9003 36.4648C41.4525 37.4569 43.0167 38.6004 43.5821 39.1188C43.993 39.4951 44.9983 43.4846 44.9983 43.8754C44.9983 44.3109 44.569 45.4201 44.4356 45.4622C43.808 45.6609 41.7154 45.9767 41.5543 45.6925C41.3931 45.4083 41.7643 44.7135 41.8515 44.4846C41.977 44.1569 42.9705 44.1122 42.9969 43.5964C43.0246 43.0806 42.055 41.4227 41.5133 40.7925C40.9703 40.1622 37.8645 39.9596 36.4337 38.5964C35.7098 37.9069 34.641 36.6938 34.1773 36.3714C33.0795 35.6096 32.0411 35.4122 30.7649 35.4872C29.2721 35.574 28.9339 36.3306 26.8452 36.4109C24.7566 36.4912 23.0339 36.3464 23.0339 36.3464C23.0339 36.3464 22.9797 37.9096 22.8978 38.353C22.7063 39.3898 20.94 43.7543 20.0958 44.3701C19.6017 44.7293 19.2476 45.7583 18.4008 45.7754C17.3955 45.7951 15.3848 45.9451 15.3848 45.5438C15.3848 45.1425 16.0176 44.1925 16.3029 44.0898C16.5883 43.9872 17.9305 43.7372 18.2502 43.3254C18.5699 42.9135 19.1974 39.7833 19.278 39.1662C19.3586 38.549 19.1129 35.824 19.1129 35.824C19.1129 35.824 17.0203 33.8438 17.7865 29.4096C18.1155 27.5096 17.9265 25.6885 17.9265 25.6885C17.9265 25.6885 21.6613 21.0083 24.1502 22.0556L24.1515 22.053Z" fill="url(#paint5_linear_2562_1162)"/>
<g style="mix-blend-mode:multiply" opacity="0.2">
<path d="M43.5839 39.1171C43.0185 38.5987 41.4543 37.4566 40.9021 36.4632C39.9681 34.7829 40.2059 31.6882 39.0301 29.7369C38.1476 28.2711 36.3522 27.5698 34.3429 27.3869C32.3348 27.204 27.8854 25.4698 27.0016 24.5277C26.1177 23.5856 24.9089 22.3711 24.152 22.0513C23.8587 21.9277 23.5482 21.8842 23.2285 21.904C23.2523 23.95 24.4096 25.6395 26.3529 26.3974C30.7786 28.05 37.1383 27.8263 38.5822 30.55C40.0262 33.2737 39.2798 34.0329 39.9601 35.6132C40.0566 35.8369 41.4464 38.2316 43.0726 39.2119C43.8006 39.6513 44.362 43.5119 43.963 44.0895C43.4121 44.6882 42.5349 44.8882 41.6207 45.0395C41.5322 45.2856 41.4728 45.5421 41.556 45.6895C41.7172 45.9737 43.8098 45.6579 44.4373 45.4592C44.5707 45.4171 45.0001 44.3079 45.0001 43.8724C45.0001 43.4829 43.9948 39.4921 43.5839 39.1158V39.1171Z" fill="#5F39FF"/>
</g>
<path d="M35.0265 27.5829C37.6304 28.1079 38.6529 29.2303 39.0677 30.0566C40.0361 31.9843 40.0387 35.4829 41.0097 36.6422C40.9701 36.5843 40.9344 36.5251 40.9001 36.4645C39.9661 34.7843 40.2039 31.6895 39.0281 29.7382C38.1456 28.2724 36.3212 27.554 34.3211 27.2961C32.2271 27.0264 27.8847 25.4711 27.0009 24.529C26.1171 23.5869 24.9083 22.3724 24.1513 22.0527C23.9214 21.9553 23.6797 21.9079 23.4326 21.9014C27.993 26.3329 32.4226 27.0566 35.0265 27.5829Z" fill="#73E9FE"/>
<g style="mix-blend-mode:multiply" opacity="0.3">
<path d="M19.9131 43.9992C19.6264 44.2281 18.8932 44.8044 18.3754 44.9768C17.333 45.3242 16.3065 45.1492 15.5654 45.0018C15.4584 45.2084 15.3857 45.4071 15.3857 45.5426C15.3857 45.9439 17.3964 45.7939 18.4018 45.7742C19.2486 45.7571 19.604 44.7281 20.0968 44.3689C20.9409 43.7531 22.7072 39.3886 22.8988 38.3518C22.9648 37.9978 23.019 36.7623 23.0349 36.3452C22.8169 37.5847 20.8511 43.2518 19.9131 43.9992Z" fill="#5F39FF"/>
</g>
<g style="mix-blend-mode:multiply" opacity="0.5">
<path d="M23.0355 36.345C23.7013 35.9897 23.8638 35.3029 23.4609 34.1792C23.4609 34.1792 23.8163 34.6253 24.169 35.366C24.6737 36.4266 27.5933 36.345 27.5933 36.345C27.5933 36.345 24.8665 36.5318 23.0342 36.345H23.0355Z" fill="#5F39FF"/>
</g>
<path d="M14.9744 29.5347C12.0125 30.4044 12.4895 33.3662 14.121 35.2307C15.7526 37.0952 17.211 38.5715 18.079 37.4531C18.9456 36.336 18.0182 35.136 17.1186 34.5899C15.561 33.6465 15.3536 32.1347 15.9758 31.911C16.598 31.686 14.9744 29.536 14.9744 29.536V29.5347Z" fill="url(#paint6_linear_2562_1162)"/>
<path d="M14.2067 35.108C12.5778 33.158 12.3836 31.1738 14.023 29.9541C12.1471 31.1291 12.6901 33.6015 14.1195 35.233C15.6691 37.0041 17.0615 38.4199 17.9401 37.6015C16.8607 38.3054 15.6123 36.7909 14.2053 35.108H14.2067Z" fill="#73E9FE"/>
<g style="mix-blend-mode:multiply" opacity="0.5">
<path d="M17.6965 35.0409C17.5168 34.8633 17.316 34.7106 17.1179 34.5896C15.5603 33.6462 15.3529 32.1343 15.9751 31.9106C16.5973 31.6856 14.9737 29.5356 14.9737 29.5356C13.9974 29.8225 13.4003 30.3396 13.0898 30.9672C13.4611 33.1922 15.4401 34.5067 17.6965 35.0422V35.0409Z" fill="#5F39FF"/>
</g>
<path d="M15.7109 20.1201C15.7572 20.1715 15.7942 20.2201 15.8364 20.2701C15.8034 20.0267 15.7426 19.9162 15.7109 20.1201Z" fill="url(#paint7_linear_2562_1162)"/>
<path d="M15.8367 20.2701C15.7337 18.7148 14.3293 17.8845 15.6095 16.6411C14.4694 16.8622 14.0744 16.6411 12.9078 16.9964C12.5525 17.1043 12.4996 17.2687 12.1773 17.4372C11.1733 17.9609 8.81907 17.8174 8.30913 18.1319C7.80051 18.4464 7.93922 20.0477 8.56674 20.6832C9.48754 21.6161 11.1323 20.749 11.2948 22.3003C11.3807 23.1266 10.3581 23.9253 10.0226 24.0174C9.68967 24.1095 9.97899 24.174 10.0556 24.8595C10.1309 25.5451 10.4176 26.0135 11.3476 25.974C12.279 25.9345 12.7136 25.6451 12.9911 25.9345C12.7361 26.2424 12.6172 26.6069 12.5802 26.978C13.9 24.0648 18.1658 23.0753 15.8354 20.2701H15.8367Z" fill="url(#paint8_linear_2562_1162)"/>
<path d="M9.46068 18.4031C9.06831 18.2952 8.56762 18.1846 8.63367 18.0215C8.48835 18.0425 8.3721 18.0939 8.29547 18.1412C8.19111 18.2057 8.11977 18.3399 8.07617 18.4557C8.36285 18.6978 8.97848 18.7741 9.46068 18.4031Z" fill="url(#paint9_linear_2562_1162)"/>
<g style="mix-blend-mode:multiply" opacity="0.3">
<path d="M15.8368 20.2699C15.784 19.4568 15.1432 19.0423 14.7245 18.6528C15.0587 20.0476 14.9992 21.716 14.1445 23.0923C12.8934 25.1134 10.53 26.4568 10.0742 24.9726C10.1693 25.5936 10.4719 26.0081 11.3478 25.9713C12.2791 25.9318 12.7138 25.6423 12.9912 25.9318C12.7362 26.2397 12.6173 26.6041 12.5803 26.9752C13.9001 24.062 18.1659 23.0726 15.8355 20.2673L15.8368 20.2699Z" fill="#5F39FF"/>
</g>
<path d="M26.1005 22.3712C24.823 21.2764 24.6341 20.5619 24.1255 18.9922C22.9312 15.308 20.0922 13.8804 17.2783 15.2988C17.6033 14.9212 18.9204 14.1054 21.0368 14.7054C16.2571 12.5133 15.0417 15.4672 15.0443 15.8067C15.0403 15.5804 14.866 15.0843 15.4697 14.5567C13.2978 15.2212 13.6981 17.1567 14.1579 17.8041C15.0734 19.0922 13.9518 20.3119 15.4644 21.7738C15.0285 20.7462 15.4182 19.4962 15.4512 19.7396C16.6904 23.2027 12.5474 23.5962 12.5818 26.9751C12.4655 28.158 13.2014 29.4369 13.2014 29.4369C12.9821 28.0212 13.2608 27.5843 13.2608 27.5843C14.4221 29.4593 12.7892 31.4501 15.7405 33.483C15.7405 33.483 15.1249 32.9659 15.2187 32.3409C16.1487 33.9685 17.1171 34.2725 17.1171 34.2725C16.7406 33.5777 16.8265 33.0067 16.8265 33.0067C18.3523 34.9343 19.8148 35.1514 19.8148 35.1514C18.7671 34.3041 18.5637 33.5291 18.5637 33.5291C19.5889 34.9593 20.6986 34.9619 20.6986 34.9619C19.7223 33.2751 20.2203 31.383 20.2203 31.383C20.1199 32.0067 21.0407 32.6751 21.0407 32.6751C20.9324 30.9041 21.5784 29.0856 21.5784 29.0856C21.951 30.0448 21.4912 30.7041 21.4912 30.7041C22.7991 30.3869 23.6525 28.7698 23.5984 27.2054C23.5429 25.6238 22.9893 25.3869 23.6089 23.1646C23.2047 25.1856 23.9366 25.8685 24.111 26.9738C24.3501 28.4909 23.5918 29.5304 23.5918 29.5304C26.3872 28.5527 24.6922 25.6909 25.152 24.9962C25.9909 23.729 27.0002 24.5251 27.0002 24.5251C27.0002 24.5251 27.3754 23.4606 26.0979 22.3672L26.1005 22.3712Z" fill="url(#paint10_linear_2562_1162)"/>
<g style="mix-blend-mode:screen">
<path d="M15.5883 20.0136C15.5791 19.9478 15.4747 19.7228 15.4456 19.7202C15.6953 20.4742 15.6993 21.2057 15.5328 21.7294C15.5407 21.7478 15.5474 21.7663 15.554 21.7847C15.546 21.7728 15.5355 21.761 15.5275 21.7492C14.941 23.5465 12.53 24.3873 12.5564 26.9702C12.4401 28.1531 13.176 29.4321 13.176 29.4321C13.1601 29.3281 13.1522 29.24 13.1403 29.1478C12.9329 28.7018 12.5894 27.8242 12.6727 26.9873C12.6383 23.6084 16.8275 23.4755 15.5883 20.0136Z" fill="url(#paint11_linear_2562_1162)"/>
</g>
<path d="M16.1261 16.9449C16.7457 16.3265 17.4485 15.7042 17.4221 16.7765C17.3983 17.8502 16.1102 18.8897 15.6201 19.0278C15.6201 19.0278 16.6783 18.0568 16.7999 17.3278C16.9227 16.5989 16.1261 16.9449 16.1261 16.9449Z" fill="url(#paint12_linear_2562_1162)"/>
<path style="mix-blend-mode:multiply" opacity="0.3" d="M15.2169 32.3437C14.6079 30.7897 14.8457 29.6792 14.8457 29.6792C14.1244 32.4331 15.7388 33.4845 15.7388 33.4845C15.7388 33.4845 15.2169 32.9963 15.2169 32.3424V32.3437Z" fill="url(#paint13_linear_2562_1162)"/>
<path style="mix-blend-mode:multiply" opacity="0.3" d="M16.8264 33.0097C16.3389 31.682 16.5793 30.707 16.5793 30.707C16.0773 32.7952 17.117 34.2755 17.117 34.2755C17.117 34.2755 16.8 33.6715 16.8264 33.0097Z" fill="url(#paint14_linear_2562_1162)"/>
<path style="mix-blend-mode:multiply" opacity="0.3" d="M18.5636 33.533C17.4658 31.5686 17.9083 29.0015 17.9083 29.0015C16.3323 33.7659 19.816 35.1554 19.816 35.1554C19.816 35.1554 18.7948 34.3501 18.5649 33.533H18.5636Z" fill="url(#paint15_linear_2562_1162)"/>
<path style="mix-blend-mode:multiply" opacity="0.3" d="M20.2205 31.3869C19.9179 30.004 20.5006 28.6343 20.5006 28.6343C18.6391 31.7645 20.6987 34.9659 20.6987 34.9659C19.8598 32.7843 20.2205 31.3869 20.2205 31.3869Z" fill="url(#paint16_linear_2562_1162)"/>
<g style="mix-blend-mode:multiply" opacity="0.3">
<path d="M19.0612 18.8646C19.2158 19.3133 19.2766 19.8028 19.233 20.2909C19.1815 20.7791 19.0229 21.2567 18.797 21.6922C18.3452 22.5672 17.6952 23.2843 17.1219 24.0106C16.5459 24.7356 16.0267 25.4883 15.7664 26.3514C15.637 26.7804 15.559 27.2317 15.5511 27.6909C15.5366 28.1514 15.5868 28.6159 15.6489 29.087C15.4665 28.6488 15.341 28.1843 15.2763 27.7041C15.2195 27.2238 15.2393 26.7264 15.3437 26.2435C15.4414 25.758 15.6356 25.2975 15.8668 24.8659C16.102 24.4356 16.3873 24.0396 16.6833 23.6646C17.2764 22.9146 17.9343 22.2475 18.4179 21.4791C18.657 21.0949 18.8538 20.687 18.9635 20.2449C19.0771 19.8041 19.0956 19.337 19.0612 18.8633V18.8646Z" fill="url(#paint17_linear_2562_1162)"/>
</g>
<g style="mix-blend-mode:multiply" opacity="0.3">
<path d="M19.8729 20.7476C19.8821 21.316 19.7896 21.8923 19.5981 22.437C19.503 22.7107 19.3775 22.9726 19.2401 23.2265C19.1 23.4791 18.9402 23.7199 18.7777 23.9541L18.273 24.6383C18.1052 24.862 17.9533 25.0936 17.8278 25.3357C17.7036 25.5778 17.623 25.8397 17.5993 26.112C17.5715 26.3857 17.6072 26.666 17.6706 26.9436C17.5491 26.6857 17.4724 26.4028 17.4619 26.1094C17.4526 25.816 17.5121 25.5173 17.6283 25.2462C17.8582 24.6989 18.2307 24.2541 18.5491 23.7936C18.8781 23.3383 19.17 22.866 19.396 22.3581C19.6179 21.8489 19.7672 21.3068 19.8742 20.7476H19.8729Z" fill="url(#paint18_linear_2562_1162)"/>
</g>
<g style="mix-blend-mode:multiply" opacity="0.3">
<path d="M20.8112 18.5C21.193 18.8053 21.485 19.2434 21.6224 19.7368C21.7571 20.2316 21.7453 20.7605 21.6435 21.2539C21.5497 21.7513 21.374 22.2211 21.1891 22.6789C21.0002 23.1355 20.7835 23.5737 20.5655 24.0079C20.1296 24.875 19.6685 25.7171 19.3224 26.5987C18.9789 27.4763 18.7517 28.4118 18.9009 29.3829C18.7107 28.9316 18.6407 28.4263 18.6539 27.9289C18.6711 27.4289 18.7662 26.9342 18.9089 26.4592C19.1942 25.5066 19.6289 24.6197 20.0661 23.7579C20.4981 22.8947 20.9566 22.0487 21.2208 21.1553C21.3489 20.7092 21.4163 20.2487 21.3555 19.7934C21.304 19.3355 21.1045 18.8934 20.8126 18.5013L20.8112 18.5Z" fill="url(#paint19_linear_2562_1162)"/>
</g>
<g style="mix-blend-mode:multiply" opacity="0.3">
<path d="M22.8938 20.312C22.9731 20.591 23.0299 20.8791 23.0563 21.1725C23.0774 21.466 23.0735 21.762 23.0325 22.0567C22.9955 22.3515 22.9176 22.641 22.8198 22.9199C22.7194 23.1989 22.5913 23.4673 22.4539 23.7265C22.3139 23.9844 22.1632 24.2331 22.0179 24.4817C21.87 24.7278 21.7326 24.9778 21.6137 25.2331C21.5001 25.4896 21.4129 25.7581 21.3759 26.037C21.3349 26.316 21.3495 26.6041 21.397 26.891C21.2887 26.6212 21.2345 26.3252 21.2385 26.0278C21.2438 25.7291 21.3085 25.4317 21.4115 25.1528C21.619 24.5923 21.9413 24.1015 22.2068 23.5975C22.4816 23.0975 22.7023 22.5752 22.8172 22.0225C22.874 21.7462 22.9083 21.4646 22.9189 21.1791C22.9308 20.8936 22.9123 20.6067 22.8938 20.316V20.312Z" fill="url(#paint20_linear_2562_1162)"/>
</g>
<g style="mix-blend-mode:multiply" opacity="0.5">
<path d="M17.2267 44.7476C16.7788 45.0936 16.6982 45.8173 16.6982 45.8173H16.9255C16.9255 45.8173 16.9823 45.1673 17.2267 44.7476Z" fill="#5F39FF"/>
</g>
<g style="mix-blend-mode:multiply" opacity="0.5">
<path d="M16.6569 44.537C15.8589 44.833 15.8232 45.7699 15.8232 45.7699L16.0835 45.7975C16.0835 45.7975 16.0729 44.9251 16.6569 44.5356V44.537Z" fill="#5F39FF"/>
</g>
<g style="mix-blend-mode:multiply" opacity="0.5">
<path d="M42.2769 44.7254C41.7828 45.0241 41.8158 45.7504 41.8145 45.7899C41.8145 45.7912 42.1105 45.8031 42.1105 45.8031C42.1105 45.8031 41.9664 45.1294 42.2769 44.7241V44.7254Z" fill="#5F39FF"/>
</g>
<g style="mix-blend-mode:multiply" opacity="0.5">
<path d="M43.1777 44.6357C42.7153 44.7568 42.7589 45.716 42.7589 45.716H42.9835C42.9835 45.716 42.7682 44.8923 43.1777 44.6357Z" fill="#5F39FF"/>
</g>
<g style="mix-blend-mode:multiply" opacity="0.5">
<path d="M16.0859 36.5908C16.9433 37.6356 17.7717 37.7277 17.7717 37.7277L17.8945 37.6316C16.658 37.2882 16.0873 36.5908 16.0873 36.5908H16.0859Z" fill="#5F39FF"/>
</g>
<g style="mix-blend-mode:multiply" opacity="0.5">
<path d="M16.9437 35.9897C17.5422 36.795 18.3573 36.9279 18.3573 36.9279L18.3744 36.8108C17.3982 36.5871 16.9424 35.9897 16.9424 35.9897H16.9437Z" fill="#5F39FF"/>
</g>
<path d="M8.55176 20.6553C9.27836 21.1829 10.3022 20.9316 10.9073 21.3171C11.1213 21.454 11.2838 21.6697 11.3617 22.029C11.6999 23.5908 10.3273 24.1711 9.89002 24.0763C9.89002 24.0763 10.0155 23.9947 10.1106 23.854C10.1622 23.7776 9.92569 23.3961 9.92569 22.7132C10.0922 23.0369 10.6483 23.5066 10.7012 23.4408C11.0262 23.0382 11.3155 22.3961 10.935 21.7671C10.6695 21.3276 10.3022 21.3408 9.88474 21.2671C9.85039 21.3803 9.66412 21.8237 9.79887 22.4171C9.42896 21.8869 9.31931 21.2119 9.24929 21.1803C8.93355 21.0382 8.69444 20.8908 8.55308 20.6553H8.55176Z" fill="#5F39FF"/>
<path d="M12.7825 19.2331C11.8815 19.0384 11.9555 18.8344 12.0347 18.491C11.7996 18.3292 11.7256 18.4713 11.7256 18.4713C11.7256 19.291 12.7825 19.2331 12.7825 19.2331Z" fill="#5F39FF"/>
<path d="M11.7275 18.4738C12.6946 17.3514 13.1583 18.4396 13.5665 18.0461C12.8663 19.0211 11.7275 18.4738 11.7275 18.4738Z" fill="#5F39FF"/>
<path d="M36.0683 32.8121C36.0115 32.8213 35.9402 32.8173 35.8596 32.8213C35.7803 32.8173 35.6892 32.8107 35.6007 32.7792C35.5135 32.745 35.4382 32.6792 35.4131 32.5831C35.384 32.4884 35.3946 32.3779 35.4038 32.2673C35.4157 32.1555 35.4368 32.0384 35.4501 31.9173C35.4646 31.7989 35.4752 31.6634 35.4672 31.545C35.4553 31.4134 35.4329 31.2818 35.3576 31.1607C35.2849 31.041 35.1607 30.9397 35.0141 30.9015C34.8688 30.8607 34.7195 30.8779 34.5953 30.9147C34.4725 30.9555 34.3654 31.0107 34.2809 31.0739C34.1924 31.1331 34.1237 31.1989 34.0616 31.2568C34.0246 31.2976 33.9903 31.3357 33.9599 31.37C33.9519 31.37 33.9453 31.37 33.9387 31.37C33.4671 31.37 33.084 31.7515 33.084 32.2213C33.084 32.691 33.4684 33.0726 33.9387 33.0726C34.409 33.0726 34.7935 32.691 34.7935 32.2213C34.7935 31.8634 34.5702 31.5581 34.2571 31.4318C34.2598 31.4279 34.2637 31.4239 34.2664 31.4186C34.3152 31.3686 34.3694 31.3068 34.4381 31.2542C34.5042 31.1976 34.5847 31.1502 34.6746 31.1134C34.7644 31.0805 34.8648 31.0647 34.9613 31.0831C35.0564 31.1015 35.1449 31.1607 35.207 31.2463C35.2717 31.3305 35.3008 31.4463 35.3193 31.5542C35.3364 31.6792 35.3338 31.7884 35.3298 31.9094C35.3246 32.0279 35.3127 32.1463 35.31 32.2621C35.31 32.3779 35.3061 32.4936 35.347 32.6015C35.3853 32.7121 35.4857 32.7884 35.5835 32.8186C35.6839 32.8476 35.7777 32.8463 35.8596 32.845C35.9415 32.8357 36.0115 32.8357 36.0697 32.8226C36.1846 32.8029 36.2493 32.7897 36.2493 32.7897C36.2493 32.7897 36.1833 32.7976 36.067 32.8107L36.0683 32.8121ZM34.4672 32.2213C34.4672 32.5121 34.2294 32.7489 33.9374 32.7489C33.6454 32.7489 33.4077 32.5121 33.4077 32.2213C33.4077 31.9305 33.6454 31.6936 33.9374 31.6936C34.2294 31.6936 34.4672 31.9305 34.4672 32.2213Z" fill="#FFE98D"/>
<g style="mix-blend-mode:screen" opacity="0.9">
<path style="mix-blend-mode:screen" opacity="0.9" d="M26.6529 16.0674C26.6529 17.049 25.7109 17.1003 25.7109 17.1003C25.7109 17.1003 26.6529 17.1529 26.6529 18.1345C26.6529 17.1529 27.5948 17.1003 27.5948 17.1003C27.5948 17.1003 26.6529 17.049 26.6529 16.0674Z" fill="url(#paint21_radial_2562_1162)"/>
<path style="mix-blend-mode:screen" opacity="0.9" d="M10.8923 28.8579C10.8923 29.4026 10.3691 29.4303 10.3691 29.4303C10.3691 29.4303 10.8923 29.4592 10.8923 30.004C10.8923 29.4592 11.4141 29.4303 11.4141 29.4303C11.4141 29.4303 10.8923 29.4013 10.8923 28.8579Z" fill="url(#paint22_radial_2562_1162)"/>
<path style="mix-blend-mode:screen" opacity="0.9" d="M41.238 31.0093C41.238 31.554 40.7148 31.5816 40.7148 31.5816C40.7148 31.5816 41.238 31.6106 41.238 32.1553C41.238 31.6106 41.7598 31.5816 41.7598 31.5816C41.7598 31.5816 41.238 31.5527 41.238 31.0093Z" fill="url(#paint23_radial_2562_1162)"/>
<path style="mix-blend-mode:screen" opacity="0.9" d="M28.8634 38.1807C28.8634 38.5201 28.5371 38.5386 28.5371 38.5386C28.5371 38.5386 28.8634 38.557 28.8634 38.8965C28.8634 38.557 29.1897 38.5386 29.1897 38.5386C29.1897 38.5386 28.8634 38.5201 28.8634 38.1807Z" fill="url(#paint24_radial_2562_1162)"/>
<path style="mix-blend-mode:screen" opacity="0.9" d="M24.6095 13.5449C24.6095 13.8857 24.2832 13.9028 24.2832 13.9028C24.2832 13.9028 24.6095 13.9212 24.6095 14.2607C24.6095 13.9212 24.9358 13.9028 24.9358 13.9028C24.9358 13.9028 24.6095 13.8844 24.6095 13.5449Z" fill="url(#paint25_radial_2562_1162)"/>
<path style="mix-blend-mode:screen" opacity="0.9" d="M34.1146 17.1016C34.1146 17.645 33.5928 17.6752 33.5928 17.6752C33.5928 17.6752 34.1146 17.7042 34.1146 18.2489C34.1146 17.7042 34.6364 17.6752 34.6364 17.6752C34.6364 17.6752 34.1146 17.6463 34.1146 17.1016Z" fill="url(#paint26_radial_2562_1162)"/>
<path style="mix-blend-mode:color-dodge" opacity="0.9" d="M36.9292 21.3359C36.9292 22.4096 35.8975 22.4675 35.8975 22.4675C35.8975 22.4675 36.9292 22.5254 36.9292 23.6004C36.9292 22.5254 37.961 22.4675 37.961 22.4675C37.961 22.4675 36.9292 22.4096 36.9292 21.3359Z" fill="url(#paint27_radial_2562_1162)"/>
<path style="mix-blend-mode:color-dodge" opacity="0.9" d="M25.315 39.2383C25.315 40.312 24.2832 40.3699 24.2832 40.3699C24.2832 40.3699 25.315 40.4278 25.315 41.5028C25.315 40.4278 26.3467 40.3699 26.3467 40.3699C26.3467 40.3699 25.315 40.312 25.315 39.2383Z" fill="url(#paint28_radial_2562_1162)"/>
</g>
</g>
</g>
<rect x="0.233333" y="0.233333" width="55.5333" height="55.5333" rx="27.7667" stroke="white" stroke-opacity="0.2" stroke-width="0.466667"/>
<defs>
<filter id="filter0_f_2562_1162" x="-20.7407" y="-20.7407" width="97.4815" height="97.4815" filterUnits="userSpaceOnUse" color-interpolation-filters="sRGB">
<feFlood flood-opacity="0" result="BackgroundImageFix"/>
<feBlend mode="normal" in="SourceGraphic" in2="BackgroundImageFix" result="shape"/>
<feGaussianBlur stdDeviation="10.3704" result="effect1_foregroundBlur_2562_1162"/>
</filter>
<radialGradient id="paint0_radial_2562_1162" cx="0" cy="0" r="1" gradientUnits="userSpaceOnUse" gradientTransform="translate(28 28) scale(38.6579)">
<stop stop-color="#FA1E42"/>
<stop offset="1" stop-opacity="0"/>
</radialGradient>
<linearGradient id="paint1_linear_2562_1162" x1="36.7867" y1="23.517" x2="44.8581" y2="21.79" gradientUnits="userSpaceOnUse">
<stop stop-color="#5F39FF"/>
<stop offset="0.1" stop-color="#614FFE"/>
<stop offset="0.8" stop-color="#73E9FE"/>
</linearGradient>
<linearGradient id="paint2_linear_2562_1162" x1="43.8996" y1="13.5049" x2="45.644" y2="16.4602" gradientUnits="userSpaceOnUse">
<stop stop-color="#FFE98D"/>
<stop offset="0.13" stop-color="#FEE38F"/>
<stop offset="0.28" stop-color="#FED495"/>
<stop offset="0.45" stop-color="#FEBB9F"/>
<stop offset="0.64" stop-color="#FD99AD"/>
<stop offset="0.82" stop-color="#FC6DBF"/>
<stop offset="1" stop-color="#FC3DD3"/>
</linearGradient>
<linearGradient id="paint3_linear_2562_1162" x1="44.6784" y1="13.4976" x2="41.7447" y2="14.3645" gradientUnits="userSpaceOnUse">
<stop stop-color="#FFE98D"/>
<stop offset="0.13" stop-color="#FEE38F"/>
<stop offset="0.28" stop-color="#FED495"/>
<stop offset="0.45" stop-color="#FEBB9F"/>
<stop offset="0.64" stop-color="#FD99AD"/>
<stop offset="0.82" stop-color="#FC6DBF"/>
<stop offset="1" stop-color="#FC3DD3"/>
</linearGradient>
<linearGradient id="paint4_linear_2562_1162" x1="33.926" y1="37.6949" x2="30.9879" y2="50.408" gradientUnits="userSpaceOnUse">
<stop stop-color="#5F39FF"/>
<stop offset="0.13" stop-color="#614FFE"/>
<stop offset="1" stop-color="#73E9FE"/>
</linearGradient>
<linearGradient id="paint5_linear_2562_1162" x1="35.5473" y1="52.974" x2="17.0485" y2="18.7078" gradientUnits="userSpaceOnUse">
<stop stop-color="#5F39FF"/>
<stop offset="0.1" stop-color="#614FFE"/>
<stop offset="0.8" stop-color="#73E9FE"/>
</linearGradient>
<linearGradient id="paint6_linear_2562_1162" x1="15.5523" y1="31.8125" x2="15.8588" y2="42.5041" gradientUnits="userSpaceOnUse">
<stop stop-color="#5F39FF"/>
<stop offset="0.1" stop-color="#614FFE"/>
<stop offset="0.8" stop-color="#73E9FE"/>
</linearGradient>
<linearGradient id="paint7_linear_2562_1162" x1="15.7118" y1="20.129" x2="15.8555" y2="20.1506" gradientUnits="userSpaceOnUse">
<stop stop-color="#5F39FF"/>
<stop offset="0.1" stop-color="#614FFE"/>
<stop offset="0.8" stop-color="#73E9FE"/>
</linearGradient>
<linearGradient id="paint8_linear_2562_1162" x1="16.4397" y1="24.2216" x2="7.12817" y2="15.8878" gradientUnits="userSpaceOnUse">
<stop stop-color="#5F39FF"/>
<stop offset="0.1" stop-color="#614FFE"/>
<stop offset="0.8" stop-color="#73E9FE"/>
</linearGradient>
<linearGradient id="paint9_linear_2562_1162" x1="7.85687" y1="18.3465" x2="10.4356" y2="18.3279" gradientUnits="userSpaceOnUse">
<stop stop-color="#5F39FF"/>
<stop offset="0.13" stop-color="#614FFE"/>
<stop offset="1" stop-color="#73E9FE"/>
</linearGradient>
<linearGradient id="paint10_linear_2562_1162" x1="17.6081" y1="34.2078" x2="20.8646" y2="18.0278" gradientUnits="userSpaceOnUse">
<stop stop-color="#FFE98D"/>
<stop offset="0.13" stop-color="#FEE38F"/>
<stop offset="0.28" stop-color="#FED495"/>
<stop offset="0.45" stop-color="#FEBB9F"/>
<stop offset="0.64" stop-color="#FD99AD"/>
<stop offset="0.82" stop-color="#FC6DBF"/>
<stop offset="1" stop-color="#FC3DD3"/>
</linearGradient>
<linearGradient id="paint11_linear_2562_1162" x1="12.3217" y1="33.1961" x2="15.1819" y2="18.9862" gradientUnits="userSpaceOnUse">
<stop stop-color="#FFE98D"/>
<stop offset="0.13" stop-color="#FEE38F"/>
<stop offset="0.28" stop-color="#FED495"/>
<stop offset="0.45" stop-color="#FEBB9F"/>
<stop offset="0.64" stop-color="#FD99AD"/>
<stop offset="0.82" stop-color="#FC6DBF"/>
<stop offset="1" stop-color="#FC3DD3"/>
</linearGradient>
<linearGradient id="paint12_linear_2562_1162" x1="15.4689" y1="17.4737" x2="17.6519" y2="17.7991" gradientUnits="userSpaceOnUse">
<stop stop-color="#5F39FF"/>
<stop offset="0.1" stop-color="#614FFE"/>
<stop offset="0.8" stop-color="#73E9FE"/>
</linearGradient>
<linearGradient id="paint13_linear_2562_1162" x1="14.8715" y1="30.5937" x2="15.4029" y2="33.5716" gradientUnits="userSpaceOnUse">
<stop stop-color="#FFE98D"/>
<stop offset="0.13" stop-color="#FEE38F"/>
<stop offset="0.28" stop-color="#FED495"/>
<stop offset="0.45" stop-color="#FEBB9F"/>
<stop offset="0.64" stop-color="#FD99AD"/>
<stop offset="0.82" stop-color="#FC6DBF"/>
<stop offset="1" stop-color="#FC3DD3"/>
</linearGradient>
<linearGradient id="paint14_linear_2562_1162" x1="16.5268" y1="31.565" x2="17.0161" y2="34.3183" gradientUnits="userSpaceOnUse">
<stop stop-color="#FFE98D"/>
<stop offset="0.13" stop-color="#FEE38F"/>
<stop offset="0.28" stop-color="#FED495"/>
<stop offset="0.45" stop-color="#FEBB9F"/>
<stop offset="0.64" stop-color="#FD99AD"/>
<stop offset="0.82" stop-color="#FC6DBF"/>
<stop offset="1" stop-color="#FC3DD3"/>
</linearGradient>
<linearGradient id="paint15_linear_2562_1162" x1="18.1207" y1="30.466" x2="18.9898" y2="35.3441" gradientUnits="userSpaceOnUse">
<stop stop-color="#FFE98D"/>
<stop offset="0.13" stop-color="#FEE38F"/>
<stop offset="0.28" stop-color="#FED495"/>
<stop offset="0.45" stop-color="#FEBB9F"/>
<stop offset="0.64" stop-color="#FD99AD"/>
<stop offset="0.82" stop-color="#FC6DBF"/>
<stop offset="1" stop-color="#FC3DD3"/>
</linearGradient>
<linearGradient id="paint16_linear_2562_1162" x1="20.0856" y1="30.1819" x2="20.9372" y2="34.9643" gradientUnits="userSpaceOnUse">
<stop stop-color="#FFE98D"/>
<stop offset="0.13" stop-color="#FEE38F"/>
<stop offset="0.28" stop-color="#FED495"/>
<stop offset="0.45" stop-color="#FEBB9F"/>
<stop offset="0.64" stop-color="#FD99AD"/>
<stop offset="0.82" stop-color="#FC6DBF"/>
<stop offset="1" stop-color="#FC3DD3"/>
</linearGradient>
<linearGradient id="paint17_linear_2562_1162" x1="16.4759" y1="19.3251" x2="18.1419" y2="28.6801" gradientUnits="userSpaceOnUse">
<stop stop-color="#FFE98D"/>
<stop offset="0.13" stop-color="#FEE38F"/>
<stop offset="0.28" stop-color="#FED495"/>
<stop offset="0.45" stop-color="#FEBB9F"/>
<stop offset="0.64" stop-color="#FD99AD"/>
<stop offset="0.82" stop-color="#FC6DBF"/>
<stop offset="1" stop-color="#FC3DD3"/>
</linearGradient>
<linearGradient id="paint18_linear_2562_1162" x1="18.2215" y1="21.0055" x2="19.2348" y2="26.6871" gradientUnits="userSpaceOnUse">
<stop stop-color="#FFE98D"/>
<stop offset="0.13" stop-color="#FEE38F"/>
<stop offset="0.28" stop-color="#FED495"/>
<stop offset="0.45" stop-color="#FEBB9F"/>
<stop offset="0.64" stop-color="#FD99AD"/>
<stop offset="0.82" stop-color="#FC6DBF"/>
<stop offset="1" stop-color="#FC3DD3"/>
</linearGradient>
<linearGradient id="paint19_linear_2562_1162" x1="19.1665" y1="18.6368" x2="21.0174" y2="29.0315" gradientUnits="userSpaceOnUse">
<stop stop-color="#FFE98D"/>
<stop offset="0.13" stop-color="#FEE38F"/>
<stop offset="0.28" stop-color="#FED495"/>
<stop offset="0.45" stop-color="#FEBB9F"/>
<stop offset="0.64" stop-color="#FD99AD"/>
<stop offset="0.82" stop-color="#FC6DBF"/>
<stop offset="1" stop-color="#FC3DD3"/>
</linearGradient>
<linearGradient id="paint20_linear_2562_1162" x1="21.5873" y1="20.5449" x2="22.6792" y2="26.6754" gradientUnits="userSpaceOnUse">
<stop stop-color="#FFE98D"/>
<stop offset="0.13" stop-color="#FEE38F"/>
<stop offset="0.28" stop-color="#FED495"/>
<stop offset="0.45" stop-color="#FEBB9F"/>
<stop offset="0.64" stop-color="#FD99AD"/>
<stop offset="0.82" stop-color="#FC6DBF"/>
<stop offset="1" stop-color="#FC3DD3"/>
</linearGradient>
<radialGradient id="paint21_radial_2562_1162" cx="0" cy="0" r="1" gradientUnits="userSpaceOnUse" gradientTransform="translate(26.6529 17.1016) scale(0.990819 0.986842)">
<stop offset="0.31" stop-color="white"/>
<stop offset="0.9" stop-color="white" stop-opacity="0"/>
</radialGradient>
<radialGradient id="paint22_radial_2562_1162" cx="0" cy="0" r="1" gradientUnits="userSpaceOnUse" gradientTransform="translate(10.8923 29.4316) scale(0.549574 0.547368)">
<stop offset="0.31" stop-color="white"/>
<stop offset="0.9" stop-color="white" stop-opacity="0"/>
</radialGradient>
<radialGradient id="paint23_radial_2562_1162" cx="0" cy="0" r="1" gradientUnits="userSpaceOnUse" gradientTransform="translate(41.238 31.583) scale(0.549573 0.547369)">
<stop offset="0.31" stop-color="white"/>
<stop offset="0.9" stop-color="white" stop-opacity="0"/>
</radialGradient>
<radialGradient id="paint24_radial_2562_1162" cx="0" cy="0" r="1" gradientUnits="userSpaceOnUse" gradientTransform="translate(28.8634 38.5386) scale(0.343484 0.342105)">
<stop offset="0.31" stop-color="white"/>
<stop offset="0.9" stop-color="white" stop-opacity="0"/>
</radialGradient>
<radialGradient id="paint25_radial_2562_1162" cx="0" cy="0" r="1" gradientUnits="userSpaceOnUse" gradientTransform="translate(24.6095 13.9028) scale(0.343484 0.342105)">
<stop offset="0.31" stop-color="white"/>
<stop offset="0.9" stop-color="white" stop-opacity="0"/>
</radialGradient>
<radialGradient id="paint26_radial_2562_1162" cx="0" cy="0" r="1" gradientUnits="userSpaceOnUse" gradientTransform="translate(34.1146 17.6752) scale(0.549574 0.547369)">
<stop offset="0.31" stop-color="white"/>
<stop offset="0.9" stop-color="white" stop-opacity="0"/>
</radialGradient>
<radialGradient id="paint27_radial_2562_1162" cx="0" cy="0" r="1" gradientUnits="userSpaceOnUse" gradientTransform="translate(36.9292 22.4688) scale(1.71081 1.70395)">
<stop stop-color="white"/>
<stop offset="0.03" stop-color="white" stop-opacity="0.96"/>
<stop offset="0.18" stop-color="white" stop-opacity="0.71"/>
<stop offset="0.34" stop-color="white" stop-opacity="0.49"/>
<stop offset="0.49" stop-color="white" stop-opacity="0.32"/>
<stop offset="0.64" stop-color="white" stop-opacity="0.18"/>
<stop offset="0.78" stop-color="white" stop-opacity="0.08"/>
<stop offset="0.9" stop-color="white" stop-opacity="0.02"/>
<stop offset="1" stop-color="white" stop-opacity="0"/>
</radialGradient>
<radialGradient id="paint28_radial_2562_1162" cx="0" cy="0" r="1" gradientUnits="userSpaceOnUse" gradientTransform="translate(25.315 40.3699) scale(1.71081 1.70395)">
<stop stop-color="white"/>
<stop offset="0.03" stop-color="white" stop-opacity="0.96"/>
<stop offset="0.18" stop-color="white" stop-opacity="0.71"/>
<stop offset="0.34" stop-color="white" stop-opacity="0.49"/>
<stop offset="0.49" stop-color="white" stop-opacity="0.32"/>
<stop offset="0.64" stop-color="white" stop-opacity="0.18"/>
<stop offset="0.78" stop-color="white" stop-opacity="0.08"/>
<stop offset="0.9" stop-color="white" stop-opacity="0.02"/>
<stop offset="1" stop-color="white" stop-opacity="0"/>
</radialGradient>
<clipPath id="clip0_2562_1162">
<rect width="56" height="56" rx="28" fill="white"/>
</clipPath>
<clipPath id="clip1_2562_1162">
<rect width="40" height="40" fill="white" transform="translate(8 8)"/>
</clipPath>
</defs>
</svg>
