<svg width="24" height="24" viewBox="0 0 24 24" fill="none" xmlns="http://www.w3.org/2000/svg">
<g clip-path="url(#clip0_592_137)">
<path d="M17.002 13C17.5543 13 18.002 13.4477 18.002 14C18.002 14.5128 17.616 14.9355 17.1186 14.9933L17.002 15H5.417L8.70911 18.2929C9.0696 18.6534 9.09733 19.2206 8.7923 19.6129L8.70911 19.7071C8.34863 20.0676 7.7814 20.0953 7.38911 19.7903L7.2949 19.7071L2.2949 14.7071C1.69232 14.1045 2.07434 13.0928 2.88837 13.006L3.002 13H17.002ZM16.6129 4.2097L16.7071 4.29289L21.7071 9.29289C22.3097 9.89547 21.9277 10.9072 21.1136 10.994L21 11H7C6.44772 11 6 10.5523 6 10C6 9.48716 6.38604 9.06449 6.88338 9.00673L7 9H18.585L15.2929 5.70711C14.9324 5.34662 14.9047 4.77939 15.2097 4.3871L15.2929 4.29289C15.6534 3.93241 16.2206 3.90468 16.6129 4.2097Z" fill="black"/>
<path fill-rule="evenodd" clip-rule="evenodd" d="M7 0.333313C6.07174 0.333313 5.1815 0.702062 4.52513 1.35844C3.86875 2.01482 3.5 2.90506 3.5 3.83331V20.1666C3.5 21.0949 3.86875 21.9851 4.52513 22.6415C5.1815 23.2979 6.07174 23.6666 7 23.6666H14C14.9283 23.6666 15.8185 23.2979 16.4749 22.6415C17.1313 21.9851 17.5 21.0949 17.5 20.1666V3.83331C17.5 2.90506 17.1313 2.01482 16.4749 1.35844C15.8185 0.702062 14.9283 0.333313 14 0.333313H7ZM19.0085 6.50848C19.2273 6.28976 19.524 6.1669 19.8333 6.1669C20.1427 6.1669 20.4394 6.28976 20.6582 6.50848L25.3248 11.1751C25.5436 11.3939 25.6664 11.6906 25.6664 12C25.6664 12.3093 25.5436 12.606 25.3248 12.8248L20.6582 17.4915C20.4381 17.704 20.1434 17.8216 19.8375 17.8189C19.5316 17.8163 19.239 17.6936 19.0227 17.4773C18.8064 17.261 18.6837 16.9683 18.681 16.6624C18.6784 16.3566 18.796 16.0619 19.0085 15.8418L21.6837 13.1666H11.6667C11.3572 13.1666 11.0605 13.0437 10.8417 12.8249C10.6229 12.6061 10.5 12.3094 10.5 12C10.5 11.6906 10.6229 11.3938 10.8417 11.175C11.0605 10.9562 11.3572 10.8333 11.6667 10.8333H21.6837L19.0085 8.15815C18.7898 7.93936 18.6669 7.64267 18.6669 7.33331C18.6669 7.02396 18.7898 6.72726 19.0085 6.50848Z" fill="white"/>
</g>
<defs>
<clipPath id="clip0_592_137">
<rect width="24" height="24" fill="white"/>
</clipPath>
</defs>
</svg>
