<svg width="34" height="36" viewBox="0 0 34 36" fill="none" xmlns="http://www.w3.org/2000/svg">
<path fill-rule="evenodd" clip-rule="evenodd" d="M5.36848 0C3.94467 0 2.57918 0.568927 1.57239 1.58162C0.565606 2.59432 0 3.96783 0 5.4V30.6C0 32.0322 0.565606 33.4057 1.57239 34.4184C2.57918 35.4311 3.94467 36 5.36848 36H16.1054C17.5293 36 18.8947 35.4311 19.9015 34.4184C20.9083 33.4057 21.4739 32.0322 21.4739 30.6V5.4C21.4739 3.96783 20.9083 2.59432 19.9015 1.58162C18.8947 0.568927 17.5293 0 16.1054 0H5.36848ZM23.7877 9.5274C24.1233 9.18995 24.5784 9.00038 25.0529 9.00038C25.5274 9.00038 25.9825 9.18995 26.3181 9.5274L33.4761 16.7274C33.8115 17.0649 34 17.5227 34 18C34 18.4773 33.8115 18.935 33.4761 19.2726L26.3181 26.4726C25.9806 26.8005 25.5286 26.9819 25.0594 26.9778C24.5902 26.9737 24.1413 26.7844 23.8095 26.4507C23.4778 26.1169 23.2896 25.6655 23.2855 25.1935C23.2814 24.7216 23.4618 24.2669 23.7877 23.9274L27.8911 19.8H12.5265C12.0519 19.8 11.5967 19.6104 11.2611 19.2728C10.9255 18.9352 10.737 18.4774 10.737 18C10.737 17.5226 10.9255 17.0648 11.2611 16.7272C11.5967 16.3896 12.0519 16.2 12.5265 16.2H27.8911L23.7877 12.0726C23.4523 11.735 23.2638 11.2773 23.2638 10.8C23.2638 10.3227 23.4523 9.86495 23.7877 9.5274Z" fill="#CC9E49"/>
</svg>
