<svg width="138" height="130" viewBox="0 0 138 130" fill="none" xmlns="http://www.w3.org/2000/svg">
<g clip-path="url(#clip0_902_445)">
<path d="M77.4635 37.5371C75.653 33.9276 74.1546 30.1718 72.4065 26.5415C70.7902 23.1828 69.7358 19.5734 67.7588 16.382C67.1739 15.2234 66.6911 14.0157 66.3159 12.7725C62.5353 20.3817 59.8438 28.2974 56.0771 35.7184C55.1822 35.3909 55.3834 34.7777 55.6748 34.1506C55.8515 33.9046 55.9781 33.6258 56.0472 33.3304C56.1162 33.035 56.1264 32.7288 56.0771 32.4295C55.0296 33.7047 54.9533 33.6907 53.996 32.0881C53.4549 32.0881 53.4203 32.7849 53.0041 32.9103C52.3728 33.1472 52.3104 32.8476 52.5254 32.3459C53.4827 29.9558 54.4122 27.5518 55.3973 25.1757C56.9511 21.4478 58.616 17.7617 60.2531 14.0825C61.3977 11.4904 62.3827 8.8216 63.5897 6.27128C64.3805 4.61288 65.2407 2.98931 65.8859 1.26123C65.964 1.04437 66.0855 0.845908 66.243 0.678115C66.4005 0.510322 66.5906 0.376762 66.8015 0.285694C68.6467 -0.571381 71.581 0.585322 72.351 2.48064C74.4321 7.3583 76.3675 12.2778 78.5942 17.0718C80.6753 21.5871 82.5968 26.1791 84.6016 30.7223C85.0663 31.7675 85.4201 32.8545 85.8225 33.9276C85.5797 34.3875 85.2883 34.2969 85.0109 33.9764C84.6938 33.5888 84.4578 33.1408 84.3172 32.6594C84.0744 31.9208 83.8177 31.3146 82.8812 31.9208C82.7044 32.0175 82.5094 32.0761 82.3088 32.0929C82.1081 32.1097 81.9062 32.0843 81.7158 32.0184C79.7388 31.4818 77.6786 31.5167 75.6183 31.0498C76.312 32.7849 77.0889 34.4363 77.6994 36.1574C77.8659 36.5755 78.4832 37.2723 77.4635 37.5371Z" fill="#CC9E49"/>
<path d="M115.082 34.4781C116.08 34.4696 117.06 34.7368 117.917 35.2505C118.773 35.7642 119.472 36.5047 119.938 37.3908C121.027 39.4812 120.292 41.4392 119.133 43.4182C117.739 45.844 116.001 48.0528 113.972 49.9751C110.875 52.8435 107.634 55.5506 104.261 58.086C100.449 60.899 96.4816 63.4929 92.3778 65.8554C86.9502 69.1093 81.3038 71.9801 75.4796 74.4471C71.4007 76.1612 67.301 77.8196 63.1111 79.262C56.1861 81.7399 49.0477 83.5687 41.7871 84.725C37.8507 85.4071 33.8546 85.678 29.8626 85.5333C26.6924 85.3382 23.5292 84.9828 20.8447 82.9272C18.5971 81.234 18.2225 79.0391 18.7636 76.5305C19.381 73.4646 21.5383 71.3254 23.6194 69.3255C25.8743 67.2765 28.2892 65.4124 30.8407 63.7511C32.6998 62.4759 34.4895 61.0335 36.7163 60.3297C35.0653 61.7233 33.2825 62.901 31.6107 64.2458C29.3562 66.0714 27.0601 67.8344 25.2426 70.106C24.2299 71.3742 23.009 72.4681 22.3777 74.0708C20.7822 78.1471 21.8991 80.4536 26.1097 81.6312C29.9875 82.7112 33.9346 82.5579 37.847 82.1747C45.0627 81.3581 52.1657 79.7386 59.0253 77.3458C65.5892 75.181 72.0174 72.6214 78.2752 69.6809C86.7914 65.6495 94.983 60.9598 102.776 55.6541C106.702 53.0041 110.358 49.9698 113.688 46.5956C115.075 45.202 116.463 43.7317 117.094 41.7598C117.933 39.2164 117.489 37.9691 115.152 36.6731C114.805 36.4849 114.458 36.2619 114.153 36.0529C113.485 35.6306 112.708 35.4149 111.919 35.4327C111.569 35.4702 111.215 35.415 110.892 35.2725C110.636 35.1261 110.268 35.0216 110.289 34.6802C110.31 34.3388 110.677 34.2691 110.983 34.2551C111.426 34.1578 111.888 34.1892 112.314 34.3457C113.223 34.8405 114.146 34.6314 115.082 34.4781Z" fill="#CC9E49"/>
<path d="M77.4636 37.5371C77.9769 37.1957 77.6023 36.7706 77.4636 36.478C76.6519 34.729 76.3259 32.75 75.0356 31.231C74.9868 31.1872 74.9477 31.1335 74.9209 31.0735C74.8941 31.0134 74.8802 30.9484 74.8802 30.8826C74.8802 30.8168 74.8941 30.7517 74.9209 30.6917C74.9477 30.6316 74.9868 30.578 75.0356 30.5342C75.0745 30.4815 75.1236 30.4371 75.1799 30.4039C75.2362 30.3707 75.2986 30.3492 75.3633 30.3407C75.4281 30.3323 75.4939 30.337 75.5568 30.3547C75.6196 30.3724 75.6783 30.4026 75.7293 30.4436C77.8104 31.4052 80.1343 30.9383 82.2292 31.7257C82.2966 31.757 82.37 31.7731 82.4442 31.7731C82.5185 31.7731 82.5919 31.757 82.6593 31.7257C84.2548 30.3948 84.4074 31.7675 84.8652 32.8197C85.0386 33.2378 84.9068 34.2133 85.8988 33.9346C88.6736 39.3767 90.9627 45.0835 93.4323 50.658C94.2855 52.6091 95.0833 54.595 96.0267 56.5042C96.5053 57.4867 96.2278 58.0512 95.333 58.5041C93.2519 59.5423 91.1708 60.5945 89.0898 61.7024C88.3961 62.0857 88.1949 61.7721 87.9174 61.1729C86.433 58.0163 85.0733 54.811 83.7553 51.5987C82.0142 47.4179 80.0371 43.3624 78.2058 39.2443C77.8035 38.6868 77.6509 38.1015 77.4636 37.5371Z" fill="#CC9E49"/>
<path d="M52.4908 32.3459C52.5671 32.9242 52.796 32.9939 53.0318 32.4504C53.2677 31.9069 53.5244 31.3355 54.0932 31.4052C54.5163 31.4609 54.5788 32.102 54.6204 32.5479C54.6204 32.8127 54.773 33.1054 55.0366 33.0915C55.3002 33.0775 55.5222 32.764 55.4597 32.4365C55.3973 32.109 55.4112 31.7396 55.9384 31.8093C56.4656 31.879 56.7361 32.1368 56.6321 32.5967C56.5363 33.1891 56.3215 33.7557 56.0008 34.2621C55.825 34.4664 55.7323 34.7299 55.7413 34.9998C55.7503 35.2698 55.8603 35.5264 56.0494 35.7184C54.4608 40.5961 51.9774 45.1323 50.1045 49.9194C49.4828 51.7087 48.676 53.4276 47.6974 55.0479C57.2813 49.7738 67.2288 45.1957 77.4636 41.3486C76.9017 42.4496 76.0762 42.5959 75.3825 42.9025C72.0528 44.3589 68.7439 45.85 65.4766 47.4388C59.9965 50.0866 54.7799 53.2014 49.4802 56.1767C47.351 57.2999 45.7069 59.1697 44.8602 61.4307C43.0566 66.0714 41.031 70.6286 39.0193 75.1927C38.5156 76.0906 38.0729 77.0219 37.6944 77.9799C37.621 78.2218 37.4834 78.4391 37.2965 78.6085C37.1095 78.7779 36.8802 78.893 36.633 78.9415C35.0653 79.3735 33.5114 79.8613 31.694 80.4118C32.6929 77.9241 33.449 75.5341 34.6075 73.2904C35.8492 70.9421 36.5983 68.4127 37.7568 66.0435C39.3107 62.8661 40.4622 59.5145 41.9883 56.3509C43.1815 53.8773 44.0139 51.2712 45.2001 48.8115C47.7667 43.4809 49.9657 37.9831 52.2827 32.5479C52.3312 32.4713 52.4353 32.4155 52.4908 32.3459Z" fill="#CC9E49"/>
<path d="M102.596 87.993C98.5378 87.993 94.4797 87.993 90.4216 87.993C89.6708 88.0149 88.9238 87.8771 88.2296 87.5889C87.8688 87.4286 87.4318 87.1917 87.5359 86.7249C87.6399 86.258 88.1186 86.4531 88.4307 86.467C89.7313 86.4802 91.0306 86.3846 92.3154 86.1813C95.7838 85.7214 96.7273 84.3069 95.8948 80.8786C95.2011 77.9381 93.7097 75.3042 92.5027 72.6145C92.2391 72.0222 91.9963 71.416 91.7604 70.8097C90.9003 68.5869 90.9072 68.6009 93.0507 67.4929C94.7225 66.6219 96.3943 65.737 98.0314 64.7963C98.7251 64.4061 99.0372 64.4548 99.3702 65.2074C100.348 67.4372 101.514 69.5834 102.367 71.855C103.373 74.5168 104.753 76.9904 105.919 79.5756C107.722 83.5683 110.601 86.0838 115.096 86.4322C115.616 86.4322 116.282 86.3555 116.255 87.2266C116.255 88.2509 115.429 87.9234 114.916 87.9234C110.809 87.9234 106.702 87.9234 102.589 87.9234L102.596 87.993Z" fill="#CC9E49"/>
<path d="M115.776 17.7408C113.452 18.4933 111.156 18.6745 108.957 19.3086C107.063 19.8451 105.974 20.8555 105.655 22.716C105.339 25.0468 104.788 27.3394 104.011 29.5587C103.317 28.165 103.449 26.653 103.047 25.2524C102.962 24.8637 102.9 24.4705 102.859 24.0748C102.27 20.0402 101.854 20.2144 97.6846 19.0647C95.8663 18.5788 94.0095 18.2524 92.1351 18.0892C93.4531 17.0649 95 17.1415 96.3735 16.8001C103.047 15.1347 101.673 16.1869 103.081 9.58114C103.331 8.41747 103.519 7.23289 103.775 5.91592C104.871 8.41747 105.218 10.9608 105.641 13.4624C105.709 14.1645 106.013 14.8225 106.502 15.3289C106.991 15.8352 107.636 16.1598 108.333 16.2496C110.761 16.7583 113.175 17.2251 115.776 17.7408Z" fill="#CC9E49"/>
<path d="M115.082 34.4781C114.666 35.0704 114.16 35.0356 113.515 34.8614C112.553 34.5018 111.511 34.4151 110.504 34.6105C111.357 35.4815 112.523 34.8474 113.39 35.3631C113.716 35.5582 114.194 35.5303 114.472 35.7672C114.749 36.0041 114.312 35.9832 114.153 36.025C112.545 35.7538 110.924 35.5677 109.297 35.4676C103.845 35.3909 98.5101 36.3874 93.1686 37.342C91.8645 37.5789 90.5534 37.774 88.8817 38.0388C89.2639 37.4799 89.8404 37.0847 90.4979 36.9309C94.9376 36.1505 99.3633 35.2725 103.817 34.5826C106.232 34.232 108.667 34.0342 111.107 33.9904C112.443 34.0502 113.772 34.2133 115.082 34.4781Z" fill="#CC9E49"/>
</g>
<path d="M20.424 120.824C20.68 121.4 21.0747 121.912 21.608 122.36C22.1413 122.787 22.696 123 23.272 123H16.488C17.0427 123 17.4693 122.819 17.768 122.456C18.0667 122.093 18.1093 121.635 17.896 121.08L11.016 104.888L6.728 114.968C7.34667 114.84 7.96533 114.851 8.584 115C9.20267 115.128 9.928 115.341 10.76 115.64C11.5493 115.939 12.2747 116.109 12.936 116.152C13.6187 116.173 14.3867 115.928 15.24 115.416L14.92 115.736C14.728 115.949 14.4293 116.184 14.024 116.44C13.64 116.675 13.1387 116.835 12.52 116.92C11.9013 117.005 11.1653 116.92 10.312 116.664C9.58667 116.451 8.88267 116.312 8.2 116.248C7.51733 116.163 6.80267 116.269 6.056 116.568L4.2 120.92C3.944 121.517 3.95467 122.019 4.232 122.424C4.53067 122.808 4.968 123 5.544 123H0.2C0.776 123 1.30933 122.797 1.8 122.392C2.29067 121.965 2.664 121.453 2.92 120.856L10.152 103.8C9.91733 103.864 9.672 103.896 9.416 103.896C9.096 103.917 8.776 103.875 8.456 103.768C8.15733 103.661 7.86933 103.533 7.592 103.384C8.18933 103.427 8.73333 103.373 9.224 103.224C9.736 103.032 10.152 102.765 10.472 102.424C10.792 102.104 11.0373 101.688 11.208 101.176L11.24 101.048C11.304 100.813 11.336 100.568 11.336 100.312C11.336 100.056 11.3147 99.7893 11.272 99.512C11.3787 99.6613 11.464 99.8213 11.528 99.992V99.96L11.592 100.056C11.656 100.227 11.7093 100.376 11.752 100.504L20.424 120.824ZM10.184 100.152C10.2693 100.685 10.1413 101.176 9.8 101.624C9.45867 102.072 9.01067 102.339 8.456 102.424C7.90133 102.488 7.41067 102.349 6.984 102.008C7.368 102.072 7.752 102.029 8.136 101.88C8.54133 101.731 8.88267 101.475 9.16 101.112C9.416 100.771 9.56533 100.397 9.608 99.992C9.65067 99.5653 9.58667 99.1707 9.416 98.808C9.864 99.1493 10.12 99.5973 10.184 100.152ZM34.0855 114.904C34.8535 115.608 35.2908 116.419 35.3975 117.336C35.5255 118.232 35.3975 119.107 35.0135 119.96C34.6935 120.728 34.2135 121.357 33.5735 121.848C32.9335 122.317 32.2188 122.669 31.4295 122.904C30.6402 123.117 29.8615 123.224 29.0935 123.224C28.4108 123.224 27.7068 123.107 26.9815 122.872C26.2562 122.637 25.5842 122.371 24.9655 122.072C24.3682 121.773 23.9095 121.517 23.5895 121.304V117.368C23.5895 117.389 23.6535 117.56 23.7815 117.88C23.9308 118.2 24.1442 118.595 24.4215 119.064C24.6988 119.533 25.0508 119.992 25.4775 120.44C25.9255 120.888 26.4482 121.272 27.0455 121.592C27.6428 121.891 28.3255 122.04 29.0935 122.04C29.7335 122.04 30.3948 121.965 31.0775 121.816C31.7602 121.645 32.3468 121.336 32.8375 120.888C33.0722 120.696 33.2748 120.419 33.4455 120.056C33.6375 119.693 33.7228 119.288 33.7015 118.84C33.7015 118.392 33.5202 117.933 33.1575 117.464C32.8162 116.973 32.2402 116.515 31.4295 116.088C30.7895 115.747 30.1388 115.405 29.4775 115.064C28.8162 114.723 28.1442 114.424 27.4615 114.168C26.8002 113.912 26.1815 113.592 25.6055 113.208C25.0295 112.803 24.6028 112.248 24.3255 111.544C24.0268 110.797 23.9628 109.997 24.1335 109.144C24.3042 108.291 24.6775 107.576 25.2535 107C25.7655 106.488 26.3735 106.104 27.0775 105.848C27.7815 105.592 28.4962 105.464 29.2215 105.464C29.6482 105.464 30.1495 105.528 30.7255 105.656C31.3228 105.763 31.9415 105.997 32.5815 106.36C32.7308 106.189 32.8802 106.061 33.0295 105.976C33.1788 105.869 33.2962 105.784 33.3815 105.72C33.5735 105.613 33.8188 105.539 34.1175 105.496C34.4162 105.453 34.6935 105.453 34.9495 105.496C34.6722 105.56 34.4588 105.635 34.3095 105.72C34.1602 105.784 34.0215 105.88 33.8935 106.008C33.6162 106.307 33.4348 106.648 33.3495 107.032C33.2642 107.416 33.2215 107.725 33.2215 107.96V108.184L32.9335 107.96C31.8242 107.085 30.5655 106.648 29.1575 106.648C28.7735 106.648 28.4108 106.701 28.0695 106.808C27.7282 106.893 27.3975 107.011 27.0775 107.16C25.9255 107.715 25.3495 108.568 25.3495 109.72C25.3495 110.317 25.5628 110.787 25.9895 111.128C26.4375 111.469 27.0028 111.757 27.6855 111.992C28.3895 112.205 29.1148 112.429 29.8615 112.664L30.9815 113.112C31.5148 113.325 32.0695 113.592 32.6455 113.912C33.2428 114.211 33.7228 114.541 34.0855 114.904ZM51.622 107.896C51.75 108.024 51.8887 108.131 52.038 108.216C52.1873 108.301 52.39 108.365 52.646 108.408C52.4113 108.451 52.1447 108.451 51.846 108.408C51.5473 108.365 51.302 108.291 51.11 108.184C50.9607 108.12 50.758 107.992 50.502 107.8C50.2673 107.608 50.086 107.331 49.958 106.968H45.51V111.352C45.51 111.736 45.638 112.067 45.894 112.344C46.1713 112.621 46.502 112.76 46.886 112.76C46.502 112.76 46.1713 112.899 45.894 113.176C45.638 113.432 45.51 113.763 45.51 114.168V120.888C45.51 121.464 45.7127 121.965 46.118 122.392C46.5233 122.797 47.014 123 47.59 123H40.966C41.5633 123 42.0647 122.797 42.47 122.392C42.8753 121.965 43.078 121.464 43.078 120.888V114.168C43.078 113.763 42.9393 113.432 42.662 113.176C42.406 112.899 42.0753 112.76 41.67 112.76C42.0753 112.76 42.406 112.621 42.662 112.344C42.9393 112.067 43.078 111.736 43.078 111.352V106.968H38.63C38.4807 107.331 38.278 107.608 38.022 107.8C37.7873 107.992 37.5953 108.12 37.446 108.184C37.254 108.291 37.0087 108.365 36.71 108.408C36.4113 108.451 36.1447 108.451 35.91 108.408C36.166 108.344 36.3687 108.28 36.518 108.216C36.6673 108.131 36.806 108.024 36.934 107.896C37.2753 107.555 37.478 107.16 37.542 106.712C37.606 106.264 37.638 105.944 37.638 105.752H50.95C50.95 105.944 50.9713 106.264 51.014 106.712C51.078 107.16 51.2807 107.555 51.622 107.896ZM67.38 121.496C67.892 121.965 68.3293 122.307 68.692 122.52C69.0547 122.712 69.3747 122.861 69.652 122.968C69.652 122.947 69.6413 122.957 69.62 123C68.7667 122.829 67.9027 122.531 67.028 122.104C66.1533 121.677 65.3427 121.027 64.596 120.152C64.1053 119.555 63.508 118.755 62.804 117.752C62.1 116.749 61.3747 115.704 60.628 114.616H57.236V115.896C57.236 116.28 57.3747 116.611 57.652 116.888C57.9293 117.165 58.26 117.304 58.644 117.304C58.26 117.304 57.9293 117.443 57.652 117.72C57.3747 117.997 57.236 118.328 57.236 118.712V120.888C57.236 121.464 57.4387 121.965 57.844 122.392C58.2707 122.797 58.772 123 59.348 123H52.724C53.3 123 53.7907 122.797 54.196 122.392C54.6227 121.965 54.836 121.464 54.836 120.888V118.712C54.836 118.328 54.6973 117.997 54.42 117.72C54.1427 117.443 53.812 117.304 53.428 117.304C53.812 117.304 54.1427 117.165 54.42 116.888C54.6973 116.611 54.836 116.28 54.836 115.896V107.864C54.836 107.267 54.6227 106.765 54.196 106.36C53.7907 105.955 53.3 105.752 52.724 105.752H54.836H57.236H58.26H59.156H62.228C62.612 105.752 63.092 105.88 63.668 106.136C64.2653 106.371 64.82 106.872 65.332 107.64C65.9293 108.515 66.1747 109.485 66.068 110.552C65.9827 111.619 65.556 112.547 64.788 113.336C64.4253 113.677 64.0413 113.933 63.636 114.104C63.252 114.275 62.836 114.403 62.388 114.488C63.1987 115.832 63.9667 117.091 64.692 118.264C65.4387 119.437 66.3347 120.515 67.38 121.496ZM57.236 107.96V113.4H60.084C60.5747 113.4 61.1507 113.304 61.812 113.112C62.4947 112.92 63.0493 112.6 63.476 112.152C64.18 111.448 64.5747 110.701 64.66 109.912C64.7453 109.101 64.5107 108.408 63.956 107.832C63.764 107.64 63.4547 107.448 63.028 107.256C62.6227 107.064 62.1853 106.968 61.716 106.968H59.156C58.772 106.968 58.3987 107.043 58.036 107.192C57.6947 107.341 57.428 107.597 57.236 107.96ZM84.7583 120.632L84.7263 120.664C83.7023 121.667 82.5396 122.381 81.2383 122.808C79.9369 123.235 78.6036 123.352 77.2383 123.16C75.8943 122.989 74.6463 122.52 73.4943 121.752L73.2063 121.56L73.0143 121.432C72.7369 121.24 72.4276 121.165 72.0863 121.208C71.7663 121.229 71.4783 121.368 71.2223 121.624C71.4783 121.368 71.6169 121.08 71.6383 120.76C71.6809 120.419 71.6063 120.109 71.4143 119.832L71.2863 119.608C71.2009 119.48 71.1369 119.395 71.0943 119.352C70.3263 118.2 69.8463 116.952 69.6543 115.608C69.4836 114.243 69.6009 112.909 70.0063 111.608C70.4329 110.285 71.1583 109.123 72.1823 108.12V108.088C73.2063 107.085 74.3689 106.371 75.6703 105.944C76.9929 105.517 78.3263 105.4 79.6703 105.592C81.0143 105.763 82.2623 106.232 83.4143 107L83.7023 107.192C83.8303 107.277 83.8943 107.331 83.8943 107.352C84.1716 107.523 84.4809 107.597 84.8223 107.576C85.1636 107.533 85.4516 107.395 85.6863 107.16C85.4516 107.395 85.3129 107.683 85.2703 108.024C85.2489 108.344 85.3236 108.643 85.4943 108.92C85.4943 108.941 85.5369 109.016 85.6223 109.144C85.7289 109.272 85.7929 109.368 85.8143 109.432C86.6036 110.563 87.0836 111.811 87.2543 113.176C87.4249 114.52 87.2969 115.853 86.8703 117.176C86.4649 118.477 85.7609 119.629 84.7583 120.632ZM74.2623 120.92C75.0943 121.347 76.0009 121.571 76.9823 121.592C77.9636 121.592 78.9449 121.411 79.9263 121.048C80.9076 120.664 81.8249 120.088 82.6783 119.32L83.0623 118.968L83.4143 118.584C84.5236 117.347 85.2276 115.971 85.5263 114.456C85.8249 112.92 85.6756 111.533 85.0783 110.296C84.8649 109.869 84.5449 109.624 84.1183 109.56C83.6489 109.475 83.2329 109.613 82.8703 109.976C83.2756 109.571 83.4036 109.091 83.2543 108.536C83.1689 108.216 82.9663 107.981 82.6463 107.832C81.8143 107.405 80.9076 107.192 79.9263 107.192C78.9663 107.171 77.9849 107.352 76.9823 107.736C76.0009 108.12 75.0943 108.685 74.2623 109.432L73.8783 109.784L73.5263 110.168C72.3956 111.405 71.6809 112.792 71.3823 114.328C71.1049 115.843 71.2649 117.219 71.8623 118.456C72.0756 118.883 72.3849 119.128 72.7903 119.192C73.2809 119.277 73.6969 119.149 74.0383 118.808C73.6329 119.192 73.5156 119.661 73.6863 120.216C73.7716 120.536 73.9636 120.771 74.2623 120.92ZM109.561 120.792C109.753 121.347 110.115 121.859 110.649 122.328C111.182 122.776 111.737 123 112.313 123H105.561C106.137 123 106.574 122.787 106.873 122.36C107.171 121.912 107.225 121.379 107.033 120.76L103.385 109.592L100.281 119.032L99.0328 122.904L98.3928 120.984L94.6808 109.592L91.0328 120.728C90.8194 121.368 90.8621 121.912 91.1608 122.36C91.4594 122.787 91.9074 123 92.5048 123H87.0008C87.5768 123 88.1314 122.776 88.6648 122.328C89.1981 121.859 89.5608 121.347 89.7528 120.792L93.8488 108.184C93.9981 107.8 93.9981 107.427 93.8488 107.064C93.7208 106.68 93.4968 106.371 93.1768 106.136C92.8781 105.88 92.5261 105.752 92.1208 105.752H98.4568C97.9021 105.752 97.4328 106.008 97.0488 106.52C96.6648 107.011 96.5581 107.544 96.7288 108.12L99.6728 117.112L102.585 108.184C102.713 107.8 102.702 107.427 102.553 107.064C102.425 106.68 102.201 106.371 101.881 106.136C101.582 105.88 101.241 105.752 100.857 105.752H107.193C106.617 105.752 106.137 106.008 105.753 106.52C105.369 107.011 105.262 107.544 105.433 108.12L109.561 120.792ZM130.327 120.984C130.604 121.539 130.967 122.019 131.415 122.424C131.863 122.808 132.354 123 132.887 123H126.263C126.86 123 127.308 122.808 127.607 122.424C127.906 122.019 127.927 121.539 127.671 120.984L125.271 115.896C125.186 116.024 124.983 116.227 124.663 116.504C124.364 116.76 123.948 116.973 123.415 117.144C122.903 117.315 122.263 117.315 121.495 117.144C120.855 116.995 120.13 116.931 119.319 116.952C118.53 116.973 117.836 117.24 117.239 117.752L115.703 120.952C115.447 121.528 115.468 122.019 115.767 122.424C116.066 122.808 116.514 123 117.111 123H111.799C112.375 123 112.887 122.776 113.335 122.328C113.804 121.88 114.178 121.368 114.455 120.792L120.695 107.544C120.482 107.587 120.279 107.608 120.087 107.608C119.767 107.629 119.447 107.587 119.127 107.48C118.828 107.373 118.54 107.235 118.263 107.064C118.86 107.128 119.404 107.075 119.895 106.904C120.407 106.733 120.823 106.477 121.143 106.136C121.484 105.795 121.73 105.368 121.879 104.856C121.964 104.6 122.007 104.333 122.007 104.056C122.007 103.779 121.986 103.491 121.943 103.192C122.05 103.405 122.156 103.608 122.263 103.8L130.327 120.984ZM121.687 116.216C122.306 116.408 122.903 116.493 123.479 116.472C124.055 116.451 124.652 116.237 125.271 115.832L121.687 108.248L118.071 115.96C118.647 115.725 119.202 115.661 119.735 115.768C120.268 115.853 120.919 116.003 121.687 116.216Z" fill="#CC9E49"/>
<defs>
<clipPath id="clip0_902_445">
<rect width="102" height="88" fill="white" transform="translate(18.5)"/>
</clipPath>
</defs>
</svg>
