<svg width="36" height="37" viewBox="0 0 36 37" fill="none" xmlns="http://www.w3.org/2000/svg">
<path d="M13.8445 3.88324C16.4478 0.392572 20.3619 -0.626761 23.9626 0.354072C27.8493 1.41191 31.2666 4.75041 32.4014 9.39974C32.4601 9.63807 32.5108 9.87641 32.5536 10.1147C30.9154 9.531 29.1335 9.48604 27.468 9.98641C25.1085 8.24107 22.1861 7.94774 19.5883 8.90474C16.3341 10.1056 13.7931 13.1507 13.2046 16.9824C12.453 21.8884 15.4413 26.2957 19.6671 30.0431L20.3785 30.6591C19.8046 30.6994 19.2216 30.6096 18.6643 30.4904C18.3779 30.4288 18.093 30.3603 17.8099 30.2851L16.8254 30.0101C8.07312 27.5479 2.21378 23.6961 0.532618 17.9394C-0.809381 13.3451 0.481285 8.74524 3.31928 5.88524C5.94828 3.23607 9.84595 2.16174 13.8445 3.88324ZM16.8291 17.5379C17.6138 12.4192 23.5336 9.89657 26.5733 14.2892C26.6024 14.3301 26.6465 14.3578 26.6959 14.3663C26.7453 14.3749 26.7961 14.3637 26.8373 14.3351C31.1951 11.2477 35.8939 15.6422 34.8801 20.7206C34.2934 23.6661 31.5618 26.1106 26.6851 28.0539L25.8876 28.3656L25.4054 28.5636C24.9893 28.7267 24.5493 28.8569 24.1514 28.7872C23.7554 28.7176 23.3869 28.4426 23.0515 28.1492L22.4831 27.6359C18.242 23.9864 16.3573 20.6204 16.8291 17.5379Z" fill="white"/>
</svg>
