<svg width="40" height="40" viewBox="0 0 40 40" fill="none" xmlns="http://www.w3.org/2000/svg">
<path d="M0 20C0 8.95431 8.95431 0 20 0C31.0457 0 40 8.95431 40 20C40 31.0457 31.0457 40 20 40C8.95431 40 0 31.0457 0 20Z" fill="#CC9E49" fill-opacity="0.15"/>
<g clip-path="url(#clip0_3528_5845)">
<path d="M18.4536 22.625C18.3866 22.3655 18.2513 22.1286 18.0618 21.939C17.8722 21.7495 17.6354 21.6142 17.3758 21.5473L12.7746 20.3608C12.6961 20.3385 12.627 20.2912 12.5778 20.2261C12.5286 20.161 12.502 20.0816 12.502 20C12.502 19.9184 12.5286 19.839 12.5778 19.7739C12.627 19.7088 12.6961 19.6615 12.7746 19.6393L17.3758 18.452C17.6353 18.3851 17.8721 18.2499 18.0616 18.0605C18.2511 17.8711 18.3865 17.6344 18.4536 17.375L19.6401 12.7738C19.6621 12.6949 19.7093 12.6255 19.7745 12.576C19.8398 12.5266 19.9193 12.4998 20.0012 12.4998C20.083 12.4998 20.1626 12.5266 20.2278 12.576C20.293 12.6255 20.3403 12.6949 20.3623 12.7738L21.5481 17.375C21.615 17.6346 21.7503 17.8714 21.9398 18.061C22.1294 18.2505 22.3663 18.3858 22.6258 18.4528L27.2271 19.6385C27.3062 19.6603 27.376 19.7075 27.4257 19.7728C27.4754 19.8381 27.5023 19.9179 27.5023 20C27.5023 20.0821 27.4754 20.1619 27.4257 20.2272C27.376 20.2925 27.3062 20.3397 27.2271 20.3615L22.6258 21.5473C22.3663 21.6142 22.1294 21.7495 21.9398 21.939C21.7503 22.1286 21.615 22.3655 21.5481 22.625L20.3616 27.2263C20.3395 27.3051 20.2923 27.3745 20.2271 27.424C20.1619 27.4734 20.0823 27.5002 20.0004 27.5002C19.9186 27.5002 19.839 27.4734 19.7738 27.424C19.7086 27.3745 19.6614 27.3051 19.6393 27.2263L18.4536 22.625Z" stroke="#CC9E49" stroke-width="1.5" stroke-linecap="round" stroke-linejoin="round"/>
<path d="M26 13.25V16.25" stroke="#CC9E49" stroke-width="1.5" stroke-linecap="round" stroke-linejoin="round"/>
<path d="M27.5 14.75H24.5" stroke="#CC9E49" stroke-width="1.5" stroke-linecap="round" stroke-linejoin="round"/>
<path d="M14 23.75V25.25" stroke="#CC9E49" stroke-width="1.5" stroke-linecap="round" stroke-linejoin="round"/>
<path d="M14.75 24.5H13.25" stroke="#CC9E49" stroke-width="1.5" stroke-linecap="round" stroke-linejoin="round"/>
</g>
<defs>
<clipPath id="clip0_3528_5845">
<rect width="18" height="18" fill="white" transform="translate(11 11)"/>
</clipPath>
</defs>
</svg>
