<svg width="28" height="28" viewBox="0 0 28 28" fill="none" xmlns="http://www.w3.org/2000/svg">
<path d="M25.6663 8.79083V19.8333C25.6664 20.7261 25.3253 21.5851 24.7128 22.2346C24.1004 22.8842 23.2629 23.2751 22.3717 23.3275L22.1663 23.3333H5.83301C4.94026 23.3334 4.08124 22.9923 3.4317 22.3798C2.78217 21.7674 2.39122 20.9299 2.33884 20.0387L2.33301 19.8333V8.79083L13.3522 16.1373L13.4875 16.2143C13.647 16.2923 13.8222 16.3328 13.9997 16.3328C14.1772 16.3328 14.3524 16.2923 14.5118 16.2143L14.6472 16.1373L25.6663 8.79083Z" fill="white"/>
<path d="M22.1667 4.66669C23.4267 4.66669 24.5315 5.33169 25.1475 6.33152L14 13.7632L2.85254 6.33152C3.14513 5.85648 3.54704 5.45827 4.02477 5.17009C4.5025 4.88191 5.0422 4.71211 5.59887 4.67485L5.83337 4.66669H22.1667Z" fill="white"/>
</svg>
