<svg width="40" height="40" viewBox="0 0 40 40" fill="none" xmlns="http://www.w3.org/2000/svg">
<path d="M0 20C0 8.95431 8.95431 0 20 0C31.0457 0 40 8.95431 40 20C40 31.0457 31.0457 40 20 40C8.95431 40 0 31.0457 0 20Z" fill="#B2AFFE" fill-opacity="0.15"/>
<path d="M20 13.25C19.1049 14.1451 18.602 15.3591 18.602 16.625C18.602 17.8909 19.1049 19.1049 20 20C20.8951 20.8951 22.1091 21.398 23.375 21.398C24.6409 21.398 25.8549 20.8951 26.75 20C26.75 21.335 26.3541 22.6401 25.6124 23.7501C24.8707 24.8601 23.8165 25.7253 22.5831 26.2362C21.3497 26.7471 19.9925 26.8808 18.6831 26.6203C17.3738 26.3599 16.171 25.717 15.227 24.773C14.283 23.829 13.6402 22.6262 13.3797 21.3169C13.1193 20.0075 13.2529 18.6503 13.7638 17.4169C14.2747 16.1835 15.1399 15.1293 16.2499 14.3876C17.3599 13.6459 18.665 13.25 20 13.25Z" stroke="#B2AFFE" stroke-width="1.5" stroke-linecap="round" stroke-linejoin="round"/>
</svg>
