<svg width="24" height="24" viewBox="0 0 24 24" fill="none" xmlns="http://www.w3.org/2000/svg">
<g clip-path="url(#clip0_3368_1598)">
<path d="M12.0009 18C13.3322 17.9998 14.6256 17.5569 15.6775 16.7409C16.7294 15.925 17.4801 14.7823 17.8113 13.4929C18.1426 12.2035 18.0356 10.8406 17.5072 9.61863C16.9788 8.3967 16.0591 7.3852 14.8927 6.74337C13.7264 6.10154 12.3797 5.86583 11.0647 6.07336C9.7497 6.28088 8.54106 6.91986 7.62906 7.88968C6.71706 8.8595 6.15351 10.1051 6.02711 11.4304C5.90072 12.7556 6.21866 14.0853 6.9309 15.21L6.0009 18L8.7909 17.07C9.75061 17.6791 10.8642 18.0017 12.0009 18Z" stroke="white" stroke-linecap="round" stroke-linejoin="round"/>
</g>
<rect x="0.2" y="0.2" width="23.6" height="23.6" rx="11.8" stroke="white" stroke-width="0.4" stroke-dasharray="1.2 1.2"/>
<defs>
<clipPath id="clip0_3368_1598">
<rect width="24" height="24" rx="12" fill="white"/>
</clipPath>
</defs>
</svg>
