<svg width="34" height="34" viewBox="0 0 34 34" fill="none" xmlns="http://www.w3.org/2000/svg">
<path d="M5.66675 24.0834V9.91669L15.5834 24.0834V9.91669M21.2501 24.0834H28.3334M21.2501 14.1667C21.2501 15.2939 21.6232 16.3749 22.2874 17.1719C22.9516 17.9689 23.8524 18.4167 24.7917 18.4167C25.7311 18.4167 26.6319 17.9689 27.2961 17.1719C27.9603 16.3749 28.3334 15.2939 28.3334 14.1667C28.3334 13.0395 27.9603 11.9585 27.2961 11.1615C26.6319 10.3645 25.7311 9.91669 24.7917 9.91669C23.8524 9.91669 22.9516 10.3645 22.2874 11.1615C21.6232 11.9585 21.2501 13.0395 21.2501 14.1667Z" stroke="#D4D4D4" stroke-width="2" stroke-linecap="round" stroke-linejoin="round"/>
</svg>
