<svg width="19" height="24" viewBox="0 0 19 24" fill="none" xmlns="http://www.w3.org/2000/svg">
<g clip-path="url(#clip0_153_1491)">
<path d="M13.7131 0.429V0.413C13.7131 0.185 13.8981 0 14.1261 0H14.1421H14.1411H18.0051C18.2391 0 18.4501 0.098 18.6001 0.254C18.6806 0.330768 18.7446 0.423104 18.7883 0.525392C18.8319 0.62768 18.8543 0.737782 18.8541 0.849V4.73C18.8541 4.83953 18.8106 4.94458 18.7331 5.02204C18.6557 5.09949 18.5506 5.143 18.4411 5.143H18.4241H17.5521C17.4426 5.143 17.3375 5.09949 17.2601 5.02204C17.1826 4.94458 17.1391 4.83953 17.1391 4.73V4.713V4.714V2.92L13.7351 6.335C14.8299 7.67211 15.4266 9.34785 15.4231 11.076V11.146V11.142L15.4241 11.242C15.4281 13.1166 14.7205 14.9229 13.4441 16.296L13.4481 16.291C12.2059 17.7082 10.4745 18.6042 8.60011 18.8L8.56811 18.803V20.571H9.87011C10.0981 20.571 10.2831 20.756 10.2831 20.984V21.001V21.873C10.2831 21.9825 10.2396 22.0876 10.1621 22.165C10.0847 22.2425 9.97965 22.286 9.87011 22.286H9.85311H9.85411H8.56811V23.588C8.56811 23.6975 8.5246 23.8026 8.44715 23.88C8.36969 23.9575 8.26465 24.001 8.15511 24.001H8.13811H8.13911H7.26611C7.15658 24.001 7.05153 23.9575 6.97408 23.88C6.89662 23.8026 6.85311 23.6975 6.85311 23.588V23.571V23.572V22.286H5.55111C5.44158 22.286 5.33653 22.2425 5.25908 22.165C5.18162 22.0876 5.13811 21.9825 5.13811 21.873V21.856V20.984C5.13811 20.756 5.32311 20.571 5.55111 20.571H5.56811H6.85511V18.8C5.53874 18.6649 4.28153 18.184 3.21111 17.406L3.23211 17.421C2.17106 16.6631 1.31869 15.6494 0.754112 14.474L0.734112 14.428C0.245342 13.4117 -0.00664112 12.2977 -0.00288838 11.17C-0.00288838 10.9427 0.00711162 10.7177 0.0271116 10.495L0.0251116 10.524C0.149911 8.7399 0.910664 7.05979 2.16911 5.789L2.16811 5.79C2.88524 5.04171 3.74659 4.44653 4.70014 4.04039C5.6537 3.63426 6.67967 3.42559 7.71611 3.427C8.48311 3.427 9.22411 3.539 9.92311 3.748L9.86911 3.734C10.8392 4.02512 11.7443 4.50007 12.5351 5.133L12.5201 5.121L15.9351 1.719H14.1251C14.0156 1.719 13.9105 1.67549 13.8331 1.59804C13.7556 1.52058 13.7121 1.41553 13.7121 1.306V1.289L13.7131 0.429ZM7.71311 17.143L7.80011 17.144C8.57491 17.1451 9.34198 16.9899 10.0554 16.6877C10.7688 16.3854 11.4139 15.9424 11.9521 15.385L11.9531 15.383C12.5105 14.8445 12.9537 14.1992 13.2563 13.4857C13.5588 12.7722 13.7145 12.005 13.7141 11.23L13.7131 11.138V11.143L13.7141 11.056C13.7152 10.2812 13.56 9.51414 13.2578 8.80072C12.9556 8.0873 12.5125 7.44219 11.9551 6.904L11.9531 6.903C10.8701 5.814 9.37011 5.141 7.71311 5.141C6.05611 5.141 4.55611 5.815 3.47311 6.903C2.90461 7.45227 2.45503 8.1125 2.15228 8.84273C1.84952 9.57296 1.70004 10.3576 1.71311 11.148V11.143L1.71211 11.23C1.71211 12.859 2.38611 14.331 3.47111 15.382L3.47311 15.383C4.0116 15.9404 4.65686 16.3836 5.37039 16.6862C6.08392 16.9887 6.85109 17.1444 7.62611 17.144L7.71811 17.143H7.71311Z" fill="white"/>
</g>
<defs>
<clipPath id="clip0_153_1491">
<rect width="19" height="24" fill="white"/>
</clipPath>
</defs>
</svg>
