<svg width="28" height="28" viewBox="0 0 28 28" fill="none" xmlns="http://www.w3.org/2000/svg">
<path d="M22.4346 17.8033L19.4712 17.465C19.1228 17.4241 18.7696 17.4626 18.4382 17.5778C18.1068 17.693 17.8058 17.8818 17.5579 18.13L15.4112 20.2767C12.0995 18.5919 9.40763 15.9 7.72289 12.5883L9.88123 10.43C10.3829 9.92833 10.6279 9.22833 10.5462 8.51666L10.2079 5.57666C10.142 5.00743 9.86894 4.48235 9.44076 4.10152C9.01259 3.72068 8.45926 3.51072 7.88623 3.51166H5.86789C4.54956 3.51166 3.45289 4.60833 3.53456 5.92666C4.15289 15.89 12.1212 23.8467 22.0729 24.465C23.3912 24.5467 24.4879 23.45 24.4879 22.1317V20.1133C24.4996 18.935 23.6129 17.9433 22.4346 17.8033Z" fill="white"/>
</svg>
