<svg width="56" height="56" viewBox="0 0 56 56" fill="none" xmlns="http://www.w3.org/2000/svg">
<g clip-path="url(#clip0_2562_1679)">
<g filter="url(#filter0_f_2562_1679)">
<path d="M56 0H0V56H56V0Z" fill="url(#paint0_radial_2562_1679)"/>
</g>
<g opacity="0.2">
<g style="mix-blend-mode:screen" opacity="0.5">
<path d="M46.4515 26.6637C46.4515 36.97 38.0686 45.3274 27.7272 45.3274C17.3858 45.3274 9.00293 36.9716 9.00293 26.6637C9.00293 16.3558 17.3858 8 27.7272 8C38.0686 8 46.4515 16.3558 46.4515 26.6637Z" stroke="#FC3DD3" stroke-width="2.62" stroke-miterlimit="10"/>
</g>
<g style="mix-blend-mode:screen" opacity="0.5">
<path d="M45.5807 26.6639C45.5807 36.4927 37.5876 44.46 27.7269 44.46C17.8662 44.46 9.87305 36.4927 9.87305 26.6639C9.87305 16.8351 17.8662 8.86621 27.7269 8.86621C37.5876 8.86621 45.5807 16.8351 45.5807 26.6623V26.6639Z" stroke="#FC3DD3" stroke-width="1.35" stroke-miterlimit="10"/>
</g>
<g style="mix-blend-mode:screen" opacity="0.5">
<path d="M44.6406 26.6635C44.6406 35.9743 37.0681 43.5224 27.727 43.5224C18.386 43.5224 10.8135 35.9743 10.8135 26.6635C10.8135 17.3527 18.386 9.80469 27.727 9.80469C37.0681 9.80469 44.6406 17.3527 44.6406 26.6635Z" fill="#FC3DD3"/>
</g>
</g>
<g style="mix-blend-mode:screen" opacity="0.9">
<path style="mix-blend-mode:screen" opacity="0.9" d="M34.1842 28.9121C34.1842 30.1197 33.0264 30.1828 33.0264 30.1828C33.0264 30.1828 34.1842 30.2475 34.1842 31.4551C34.1842 30.2475 35.3421 30.1828 35.3421 30.1828C35.3421 30.1828 34.1842 30.1197 34.1842 28.9121Z" fill="url(#paint1_radial_2562_1679)"/>
<path style="mix-blend-mode:screen" opacity="0.9" d="M24.6607 8.78857C24.6607 9.45872 24.0176 9.49271 24.0176 9.49271C24.0176 9.49271 24.6607 9.52832 24.6607 10.1985C24.6607 9.52832 25.3021 9.49271 25.3021 9.49271C25.3021 9.49271 24.6607 9.4571 24.6607 8.78857Z" fill="url(#paint2_radial_2562_1679)"/>
<path style="mix-blend-mode:screen" opacity="0.9" d="M22.6431 22.4082C22.6431 23.0783 22 23.1123 22 23.1123C22 23.1123 22.6431 23.148 22.6431 23.8181C22.6431 23.148 23.2846 23.1123 23.2846 23.1123C23.2846 23.1123 22.6431 23.0767 22.6431 22.4082Z" fill="url(#paint3_radial_2562_1679)"/>
<path style="mix-blend-mode:screen" opacity="0.9" d="M40.2544 36.1689C40.2544 36.8391 39.6113 36.8731 39.6113 36.8731C39.6113 36.8731 40.2544 36.9087 40.2544 37.5788C40.2544 36.9087 40.8959 36.8731 40.8959 36.8731C40.8959 36.8731 40.2544 36.8375 40.2544 36.1689Z" fill="url(#paint4_radial_2562_1679)"/>
<path style="mix-blend-mode:screen" opacity="0.9" d="M19.7976 42.3423C19.7976 42.7599 19.3965 42.7826 19.3965 42.7826C19.3965 42.7826 19.7976 42.8052 19.7976 43.2229C19.7976 42.8052 20.1987 42.7826 20.1987 42.7826C20.1987 42.7826 19.7976 42.7599 19.7976 42.3423Z" fill="url(#paint5_radial_2562_1679)"/>
<path style="mix-blend-mode:screen" opacity="0.9" d="M9.68335 23.0444C9.68335 23.4637 9.28223 23.4847 9.28223 23.4847C9.28223 23.4847 9.68335 23.5074 9.68335 23.925C9.68335 23.5058 10.0845 23.4847 10.0845 23.4847C10.0845 23.4847 9.68335 23.4621 9.68335 23.0444Z" fill="url(#paint6_radial_2562_1679)"/>
<path style="mix-blend-mode:screen" opacity="0.9" d="M45.0144 21.8042C45.0144 22.2234 44.6133 22.2445 44.6133 22.2445C44.6133 22.2445 45.0144 22.2671 45.0144 22.6848C45.0144 22.2655 45.4155 22.2445 45.4155 22.2445C45.4155 22.2445 45.0144 22.2218 45.0144 21.8042Z" fill="url(#paint7_radial_2562_1679)"/>
<path style="mix-blend-mode:screen" opacity="0.9" d="M42.9261 29.0596C42.9261 29.5209 42.4844 29.5452 42.4844 29.5452C42.4844 29.5452 42.9261 29.5695 42.9261 30.0308C42.9261 29.5695 43.3678 29.5452 43.3678 29.5452C43.3678 29.5452 42.9261 29.5209 42.9261 29.0596Z" fill="url(#paint8_radial_2562_1679)"/>
<path style="mix-blend-mode:color-dodge" opacity="0.9" d="M30.082 42.4136C30.082 43.1825 29.3447 43.2229 29.3447 43.2229C29.3447 43.2229 30.082 43.265 30.082 44.0339C30.082 43.265 30.8209 43.2229 30.8209 43.2229C30.8209 43.2229 30.082 43.1825 30.082 42.4136Z" fill="url(#paint9_radial_2562_1679)"/>
<path style="mix-blend-mode:color-dodge" opacity="0.9" d="M35.0808 9.02295C35.0808 10.3438 33.8125 10.415 33.8125 10.415C33.8125 10.415 35.0808 10.4863 35.0808 11.8087C35.0808 10.4863 36.3491 10.415 36.3491 10.415C36.3491 10.415 35.0808 10.3438 35.0808 9.02295Z" fill="url(#paint10_radial_2562_1679)"/>
<path style="mix-blend-mode:color-dodge" opacity="0.9" d="M31.8686 38.3345C31.8686 39.5032 30.748 39.5647 30.748 39.5647C30.748 39.5647 31.8686 39.6278 31.8686 40.7965C31.8686 39.6278 32.9907 39.5647 32.9907 39.5647C32.9907 39.5647 31.8686 39.5016 31.8686 38.3345Z" fill="url(#paint11_radial_2562_1679)"/>
</g>
<g style="mix-blend-mode:screen">
<path d="M47.6645 30.39C47.5703 30.343 47.4713 30.3317 47.3722 30.3349L46.2013 28.2322C46.216 28.2112 46.2354 28.1966 46.2484 28.174C46.3978 27.8777 46.2777 27.5168 45.9821 27.3678C45.8132 27.2837 45.6248 27.2934 45.4657 27.3678L44.2688 26.3561C44.3305 26.0923 44.2185 25.8123 43.9651 25.686C43.6696 25.5371 43.3074 25.6569 43.158 25.9515C43.1158 26.0356 43.1012 26.1247 43.0996 26.2137L40.8683 27.2982C40.8309 27.2659 40.7968 27.2286 40.7497 27.2043C40.4541 27.057 40.092 27.1752 39.9426 27.4698C39.9117 27.5329 39.8971 27.5993 39.889 27.6641L38.6467 27.7952C38.5298 27.3776 38.2472 27.0069 37.8298 26.7981C37.039 26.4015 36.0743 26.7187 35.6764 27.507C35.5888 27.6819 35.5417 27.8648 35.5205 28.0477L26.5287 28.5641C26.4718 28.4669 26.3971 28.3795 26.2899 28.3261C25.9944 28.1772 25.6306 28.297 25.4828 28.5916C25.4731 28.6094 25.4747 28.6288 25.4682 28.6466L22.6734 28.9202C22.6165 28.8312 22.5467 28.7518 22.4444 28.7017C22.1488 28.5527 21.7867 28.6709 21.6373 28.9687C21.5886 29.0642 21.5788 29.1646 21.5821 29.2633L17.3419 31.4486C17.2656 31.3677 17.1779 31.2964 17.0723 31.243C16.59 31.0002 15.9989 31.1945 15.7569 31.6768C15.6498 31.8873 15.6319 32.1187 15.6822 32.3324L10.8542 34.979C10.7503 34.8495 10.6236 34.7362 10.4774 34.6423L12.4408 30.1633C12.647 30.1504 12.8435 30.0419 12.9442 29.8445C13.0579 29.6178 13.0124 29.3556 12.8533 29.1776L14.8085 24.2583C15.1999 24.2972 15.5945 24.0981 15.7813 23.7274C16.0086 23.2757 15.8479 22.7319 15.4256 22.4664L17.4962 15.3959C17.6732 15.3619 17.8356 15.2583 17.9233 15.0867C18.0727 14.7921 17.9525 14.4295 17.657 14.2822C17.5709 14.2385 17.4816 14.2239 17.3906 14.2239L16.3952 12.2264C16.5949 12.0824 16.767 11.8946 16.8856 11.6599C17.0415 11.3507 17.0837 11.0157 17.035 10.6984L19.3248 9.9376C19.3556 9.95864 19.3849 9.9813 19.4206 9.99749C19.8168 10.1966 20.2992 10.0363 20.4973 9.64299C20.6954 9.24803 20.5363 8.76727 20.1416 8.56979C19.747 8.37231 19.2631 8.53094 19.0649 8.92429C18.9756 9.10396 18.961 9.29983 19.0065 9.4795L16.8661 10.1901C16.7151 9.90846 16.4812 9.66727 16.1743 9.5135C15.3834 9.11691 14.4188 9.43418 14.0209 10.2225C13.623 11.0108 13.9413 11.9723 14.7338 12.3689C15.1155 12.5599 15.5361 12.5826 15.9161 12.4676L16.9132 14.4684C16.8921 14.4959 16.8661 14.5169 16.8499 14.5477C16.7281 14.7889 16.793 15.0705 16.9814 15.247L14.9125 22.3159C14.552 22.3159 14.2028 22.5085 14.0307 22.85C13.8163 23.2741 13.9446 23.7824 14.31 24.0624L12.3515 28.9882C12.1534 29.0076 11.9666 29.1144 11.8708 29.3038C11.7604 29.5223 11.7993 29.7781 11.9471 29.9578L9.99025 34.4222C9.27895 34.2457 8.51569 34.5727 8.17141 35.2509C7.77354 36.0393 8.09184 37.0008 8.8827 37.3974C9.67357 37.7939 10.6382 37.4767 11.0361 36.6867C11.2391 36.2853 11.2537 35.8385 11.1157 35.4452L15.9421 32.7986C16.0151 32.8714 16.0963 32.9378 16.1938 32.9864C16.6761 33.2292 17.2672 33.0349 17.5092 32.5526C17.6115 32.3486 17.6326 32.1268 17.5888 31.9196L21.8338 29.715C21.8582 29.7328 21.8776 29.7571 21.9053 29.7716C22.2008 29.9205 22.5646 29.8024 22.7124 29.5062C22.7205 29.4883 22.7205 29.4689 22.727 29.4511L25.5218 29.1776C25.5787 29.2666 25.6485 29.3443 25.7492 29.3961C26.0447 29.5434 26.4069 29.4252 26.5563 29.129C26.5611 29.1193 26.5595 29.108 26.5644 29.0966L35.553 28.5803C35.657 29.027 35.9444 29.4301 36.3877 29.6518C37.1786 30.0484 38.1432 29.7312 38.5411 28.9412C38.6418 28.7421 38.6954 28.5333 38.7084 28.3245L40.0904 28.1804C40.0904 28.1804 40.105 28.1918 40.1115 28.1966L39.647 30.479C39.4879 30.5227 39.3466 30.6247 39.267 30.7817C39.1176 31.0763 39.2378 31.4389 39.5334 31.5862C39.6032 31.6218 39.6779 31.638 39.751 31.6461L40.2853 32.9896C40.2853 32.9896 40.2739 33.0009 40.2706 33.009C40.1212 33.3036 40.2414 33.6662 40.537 33.8152C40.5646 33.8297 40.5938 33.8297 40.6214 33.8378L40.7465 34.1502L44.1779 33.7326C44.2282 33.8702 44.3273 33.9916 44.4686 34.0612C44.7641 34.2101 45.1279 34.0903 45.2757 33.7957C45.3796 33.5885 45.3455 33.3506 45.2172 33.1741L47.1757 31.4729C47.4615 31.5862 47.7945 31.4729 47.9357 31.1945C48.0851 30.8999 47.965 30.5389 47.6694 30.39H47.6645ZM44.6635 32.9427C44.5011 32.9637 44.3565 33.0463 44.2575 33.1822L41.3457 33.5367C41.487 33.2437 41.3684 32.8892 41.0761 32.7419C40.9689 32.6885 40.8553 32.6804 40.7432 32.6918L40.2463 31.4389C40.2804 31.4017 40.3161 31.3677 40.3405 31.3191C40.4704 31.0617 40.3876 30.7639 40.1716 30.5907L40.636 28.3083C40.7952 28.2646 40.9365 28.1626 41.016 28.0056C41.0518 27.936 41.0696 27.8615 41.0745 27.7887L43.3415 26.688C43.3708 26.709 43.3919 26.7365 43.426 26.7543C43.59 26.8369 43.7719 26.8288 43.9294 26.7624L45.1376 27.7709C45.0792 28.0331 45.1912 28.3115 45.443 28.4362C45.5371 28.4831 45.6362 28.4945 45.7353 28.4912L46.9061 30.5939C46.8915 30.615 46.8704 30.6295 46.859 30.6538C46.7908 30.7882 46.786 30.9339 46.8201 31.0682L44.6651 32.941L44.6635 32.9427Z" fill="#FC3DD3"/>
</g>
<path d="M14.9371 30.987C11.3368 33.0476 11.3368 36.1021 11.3368 39.155C11.3368 42.2079 9.11523 43.736 9.11523 43.736C15.1661 42.8959 17.0808 37.8568 16.6975 34.2681C16.3143 30.6811 14.9371 30.9854 14.9371 30.9854V30.987Z" fill="url(#paint12_linear_2562_1679)"/>
<g style="mix-blend-mode:multiply" opacity="0.3">
<path d="M16.697 34.2696C16.3138 30.6826 14.9367 30.9869 14.9367 30.9869C14.214 31.3996 13.6424 31.8545 13.1812 32.3401C12.2555 35.9061 16.7441 37.2577 14.7109 40.8335C16.369 38.8829 16.9195 36.3367 16.697 34.268V34.2696Z" fill="#5F39FF"/>
</g>
<g style="mix-blend-mode:multiply" opacity="0.3">
<path d="M9.97184 42.914C14.8989 41.5688 15.0451 36.9458 15.0451 36.9458C14.8242 42.587 9.60645 43.3122 9.60645 43.3122C9.60645 43.3122 9.70713 43.2231 9.79158 43.1228C9.87765 43.024 9.97184 42.9124 9.97184 42.9124V42.914Z" fill="#5F39FF"/>
</g>
<g style="mix-blend-mode:multiply" opacity="0.3">
<path d="M11.0126 41.0897C13.2407 39.8303 14.1859 36.9458 14.1859 36.9458C12.8932 41.0411 10.8438 41.517 10.8438 41.517L11.011 41.0881L11.0126 41.0897Z" fill="#5F39FF"/>
</g>
<g style="mix-blend-mode:multiply" opacity="0.3">
<path d="M11.3398 38.2601C11.7572 37.42 12.6033 35.7576 13.5777 35.5083C12.134 35.8126 11.348 37.8214 11.348 37.8214L11.3398 38.2601Z" fill="#5F39FF"/>
</g>
<g style="mix-blend-mode:multiply" opacity="0.3">
<path d="M11.4131 36.6349C12.2121 34.6196 13.5226 33.9673 13.5226 33.9673C11.6372 34.979 11.4618 36.1865 11.4618 36.1865L11.4147 36.6349H11.4131Z" fill="#5F39FF"/>
</g>
<path d="M15.7603 23.1235C13.6687 23.8535 13.2903 27.7611 13.6346 29.8799C13.9789 31.9988 16.2167 37.763 20.9814 39.9402C23.6008 41.1364 26.9576 41.0798 29.3432 40.8354C32.7454 40.4873 31.3017 41.9312 33.632 42.8765C36.2109 43.9222 36.6624 42.1255 39.5368 44.2929C39.0203 41.2012 36.435 39.7702 36.435 39.7702C38.5526 37.8731 37.5263 33.4152 37.5263 33.4152C37.6351 35.4807 35.813 36.0861 34.4911 36.201C33.1708 36.3159 32.3118 37.0087 31.5469 38.6145C30.8307 40.1183 29.2766 39.631 26.6328 38.4283C23.9906 37.2256 22.9415 34.749 22.5388 32.6301C26.7903 36.8679 34.2004 33.7179 34.2004 33.7179C30.8681 33.603 28.169 29.9398 26.9056 29.71C25.6422 29.4801 23 30.7638 21.3906 29.349C19.7829 27.9359 19.6676 22.2089 15.762 23.1251L15.7603 23.1235Z" fill="url(#paint13_linear_2562_1679)"/>
<path style="mix-blend-mode:multiply" opacity="0.2" d="M36.4346 39.7685C38.5522 37.8714 37.5259 33.4135 37.5259 33.4135C37.6347 35.4789 35.8126 36.0843 34.4907 36.1993C33.617 36.2753 32.9463 36.6056 32.3698 37.2838C32.0742 37.6318 31.8046 38.0672 31.5448 38.6111C30.8286 40.1149 29.2745 39.6277 26.6307 38.425C21.8709 37.2271 18.9477 35.1147 17.1305 32.9748C14.8846 30.1777 14.1847 26.8334 14.4266 24.3018C13.5156 25.8217 13.3808 28.3291 13.6325 29.8798C13.9768 31.9987 16.2146 37.7629 20.9793 39.9401C23.5988 41.1363 26.9555 41.0797 29.3411 40.8352C32.7433 40.4872 31.2996 41.9311 33.63 42.8764C36.2088 43.9221 36.6603 42.1253 39.5347 44.2928C39.0183 41.2011 36.4329 39.7701 36.4329 39.7701L36.4346 39.7685Z" fill="url(#paint14_linear_2562_1679)"/>
<g style="mix-blend-mode:multiply" opacity="0.3">
<path d="M22.5386 32.6286C21.7153 31.7141 21.332 30.6538 21.332 30.6538C21.332 30.6538 21.639 36.3646 25.8125 37.9898C25.8125 37.9898 23.1882 36.5038 22.5386 32.6286Z" fill="#5F39FF"/>
</g>
<path d="M37.2551 43.1112C36.1606 42.9541 35.1228 43.5547 33.3446 42.6838C32.0877 42.0671 32.1997 40.8903 30.7089 40.7074C29.9635 40.6151 28.2389 40.8854 25.9637 40.7219C23.6885 40.5585 20.8645 39.9612 19.4808 38.841C15.9227 36.1135 12.5173 29.459 14.0503 25.3572C14.3816 24.4701 14.7405 23.596 15.7863 23.1201C15.7766 23.1217 15.7685 23.1234 15.7603 23.125C13.6687 23.855 13.2903 27.7626 13.6346 29.8815C13.9789 32.0003 16.2167 37.7646 20.9814 39.9417C23.6008 41.138 26.9576 41.0813 29.3432 40.8369C32.7454 40.4888 31.3017 41.9327 33.632 42.8781C36.2109 43.9237 36.6624 42.127 39.5368 44.2944C38.9927 43.8784 38.3497 43.2714 37.2551 43.1144V43.1112Z" fill="#73E9FE"/>
<path d="M14.4965 26.6735C13.9801 28.276 12.4893 28.5221 12.4893 30.0825C12.4893 31.6429 13.3435 31.6397 13.8566 33.0722C14.3714 34.5032 13.9914 35.1701 14.8196 36.5363C15.4026 37.4978 16.7505 37.6904 17.3725 38.2586C18.027 38.8559 18.0903 39.4548 18.8779 39.8595C20.1852 40.5329 21.0216 40.0586 22.1226 40.7255C22.8891 41.1901 23.6848 41.6465 24.8168 41.4976C25.9243 41.3519 26.4911 41.1545 27.9965 40.9392C27.0416 40.842 15.7632 42.4753 14.4997 26.6719L14.4965 26.6735Z" fill="url(#paint15_linear_2562_1679)"/>
<g style="mix-blend-mode:multiply" opacity="0.3">
<path d="M32.3782 33.3165C27.1084 35.225 23.3506 32.4473 23.3506 32.4473C27.8311 35.7543 32.7647 33.446 32.7647 33.446L32.3782 33.3149V33.3165Z" fill="#5F39FF"/>
</g>
<g style="mix-blend-mode:multiply" opacity="0.3">
<path d="M30.7993 32.4717C27.7755 33.9738 23.7578 31.876 23.7578 31.876C28.1815 34.3089 31.1274 32.6578 31.1274 32.6578L30.7993 32.4717Z" fill="#5F39FF"/>
</g>
<g style="mix-blend-mode:multiply" opacity="0.3">
<path d="M29.5796 31.6021C28.7741 32.1378 25.8623 31.7445 25.8623 31.7445C28.485 32.4503 29.7907 31.7672 29.7907 31.7672L29.5796 31.6021Z" fill="#5F39FF"/>
</g>
<g style="mix-blend-mode:multiply" opacity="0.3">
<path d="M28.654 30.8546C27.5741 31.6737 24.9303 30.2816 23.8975 30.8546C25.6595 30.2055 27.0138 31.3904 28.4819 30.7122L28.6557 30.8546H28.654Z" fill="#5F39FF"/>
</g>
<g style="mix-blend-mode:multiply" opacity="0.3">
<path d="M16.7441 23.4684C16.3917 23.9653 17.6161 24.3845 17.7704 24.0414C17.9247 23.6982 16.8691 23.2935 16.7441 23.4684Z" fill="#5F39FF"/>
</g>
<g style="mix-blend-mode:multiply" opacity="0.2">
<path d="M36.435 39.7687C34.941 39.3106 33.8691 39.7007 33.8691 39.7007C35.2869 38.9755 36.3197 39.3883 36.7062 39.4935C36.5649 39.6878 36.4334 39.7687 36.4334 39.7687H36.435Z" fill="#5F39FF"/>
</g>
<g style="mix-blend-mode:multiply" opacity="0.2">
<path d="M39.1663 42.9768C38.8058 42.632 37.5748 42.4248 36.4819 42.4718C35.1519 42.53 33.6984 42.3245 32.3262 41.125C33.4126 42.0768 35.0496 42.1432 36.6508 42.1383C37.3929 42.1351 38.6336 42.1059 38.8724 42.3536C39.0218 42.6174 39.1647 42.9784 39.1647 42.9784L39.1663 42.9768Z" fill="#5F39FF"/>
</g>
<g style="mix-blend-mode:multiply" opacity="0.2">
<path d="M37.7715 35.7622C37.5133 36.1879 35.7691 36.7156 34.7022 36.9552C33.4047 37.2466 32.8347 37.4068 31.8262 38.9235C32.6252 37.7225 33.7376 37.3793 34.7331 37.2109C35.5288 37.0766 37.2129 36.7253 37.7682 36.2899C37.7682 36.1329 37.7715 35.7622 37.7715 35.7622Z" fill="#5F39FF"/>
</g>
<g style="mix-blend-mode:multiply" opacity="0.2">
<path d="M37.4876 37.9881C35.2644 37.9282 33.4325 38.5968 32.9551 38.8396C33.3627 38.6324 34.4702 37.5608 37.5752 37.6158L37.4876 37.9865V37.9881Z" fill="#5F39FF"/>
</g>
<g style="mix-blend-mode:multiply" opacity="0.2">
<path d="M33.3105 40.7202C34.9101 41.3952 35.7514 41.2139 37.0197 41.2495C37.515 41.2641 37.9941 41.3143 38.197 41.3337C38.0736 41.1832 37.9502 41.0342 37.8446 40.9258C36.3733 40.8675 34.4912 41.2172 33.3105 40.7202Z" fill="#5F39FF"/>
</g>
<path d="M40.5173 22.3383C44.1176 20.2777 44.1176 17.2232 44.1176 14.1703C44.1176 11.1174 46.3392 9.58936 46.3392 9.58936C40.2883 10.4295 38.3736 15.4685 38.7569 19.0572C39.1401 22.6442 40.5173 22.3399 40.5173 22.3399V22.3383Z" fill="url(#paint16_linear_2562_1679)"/>
<g style="mix-blend-mode:multiply" opacity="0.3">
<path d="M38.757 19.0575C39.1403 22.6446 40.5174 22.3403 40.5174 22.3403C41.2401 21.9275 41.8117 21.4726 42.2729 20.987C43.1986 17.421 38.7099 16.0694 40.7431 12.4937C39.0851 14.4442 38.5346 16.9904 38.757 19.0591V19.0575Z" fill="#5F39FF"/>
</g>
<g style="mix-blend-mode:multiply" opacity="0.3">
<path d="M45.4815 10.4119C40.5544 11.757 40.4082 16.38 40.4082 16.38C40.6291 10.7389 45.8468 10.0137 45.8468 10.0137C45.8468 10.0137 45.7462 10.1027 45.6617 10.2014C45.5756 10.3002 45.4815 10.4119 45.4815 10.4119Z" fill="#5F39FF"/>
</g>
<g style="mix-blend-mode:multiply" opacity="0.3">
<path d="M44.4408 12.2364C42.2127 13.4958 41.2676 16.3803 41.2676 16.3803C42.5603 12.285 44.6097 11.8091 44.6097 11.8091L44.4424 12.238L44.4408 12.2364Z" fill="#5F39FF"/>
</g>
<g style="mix-blend-mode:multiply" opacity="0.3">
<path d="M44.1148 15.0674C43.6974 15.9075 42.8513 17.5699 41.877 17.8192C43.3207 17.5149 44.1066 15.5061 44.1066 15.5061L44.1148 15.0674Z" fill="#5F39FF"/>
</g>
<g style="mix-blend-mode:multiply" opacity="0.3">
<path d="M44.0412 16.6924C43.2422 18.7077 41.9316 19.36 41.9316 19.36C43.8171 18.3483 43.9924 17.1408 43.9924 17.1408L44.0395 16.6924H44.0412Z" fill="#5F39FF"/>
</g>
<path d="M39.6944 30.2022C41.7861 29.4721 42.1644 25.5646 41.8202 23.4457C41.4759 21.3268 39.2381 15.5626 34.4734 13.3854C31.8539 12.1892 28.4972 12.2458 26.1116 12.4903C22.7094 12.8383 24.1531 11.3944 21.8227 10.4491C19.2438 9.4034 18.7924 11.2002 15.918 9.03271C16.4344 12.1244 19.0197 13.5554 19.0197 13.5554C16.9021 15.4525 17.9284 19.9104 17.9284 19.9104C17.8196 17.845 19.6417 17.2396 20.9636 17.1246C22.2839 17.0097 23.143 16.3169 23.9079 14.7111C24.624 13.2074 26.1782 13.6946 28.822 14.8973C31.4642 16.1 32.5132 18.5766 32.916 20.6955C28.6644 16.4577 21.2543 19.6077 21.2543 19.6077C24.5867 19.7227 27.2857 23.3858 28.5491 23.6157C29.8126 23.8455 32.4548 22.5619 34.0641 23.9766C35.6718 25.3898 35.7871 31.1167 39.6928 30.2006L39.6944 30.2022Z" fill="url(#paint17_linear_2562_1679)"/>
<path style="mix-blend-mode:multiply" opacity="0.2" d="M19.0191 13.557C16.9014 15.4541 17.9278 19.912 17.9278 19.912C17.819 17.8466 19.6411 17.2412 20.963 17.1263C21.8367 17.0502 22.5074 16.72 23.0839 16.0417C23.3794 15.6937 23.649 15.2583 23.9088 14.7144C24.625 13.2106 26.1791 13.6978 28.8229 14.9005C33.5828 16.0984 36.5059 18.2108 38.3231 20.3507C40.5691 23.1478 41.269 26.4921 41.027 29.0238C41.9381 27.5038 42.0728 24.9964 41.8211 23.4457C41.4769 21.3268 39.239 15.5626 34.4743 13.3854C31.8549 12.1892 28.4981 12.2458 26.1126 12.4903C22.7104 12.8383 24.1541 11.3944 21.8237 10.4491C19.2448 9.4034 18.7934 11.2002 15.9189 9.03271C16.4354 12.1244 19.0207 13.5554 19.0207 13.5554L19.0191 13.557Z" fill="url(#paint18_linear_2562_1679)"/>
<g style="mix-blend-mode:multiply" opacity="0.3">
<path d="M32.9155 20.6986C33.7389 21.6131 34.1221 22.6734 34.1221 22.6734C34.1221 22.6734 33.8152 16.9626 29.6416 15.3374C29.6416 15.3374 32.2659 16.8234 32.9155 20.6986Z" fill="#5F39FF"/>
</g>
<path d="M18.1996 10.2145C19.2942 10.3715 20.3319 9.771 22.1101 10.6419C23.3671 11.2586 23.255 12.4354 24.7458 12.6183C25.4912 12.709 27.2159 12.4402 29.491 12.6037C31.7662 12.7672 34.5903 13.3645 35.9739 14.4847C39.532 17.2122 42.9374 23.8667 41.4044 27.9685C41.0731 28.8556 40.7142 29.7297 39.6684 30.2056C39.6781 30.2039 39.6863 30.2023 39.6944 30.2007C41.7861 29.4707 42.1644 25.5631 41.8202 23.4442C41.4759 21.3253 39.2381 15.5611 34.4734 13.384C31.8539 12.1877 28.4972 12.2444 26.1116 12.4888C22.7094 12.8368 24.1531 11.3929 21.8227 10.4476C19.2438 9.40193 18.7924 11.1987 15.918 9.03125C16.462 9.44726 17.1051 10.0543 18.1996 10.2113V10.2145Z" fill="#73E9FE"/>
<path d="M40.957 26.6521C41.4734 25.0496 42.9642 24.8036 42.9642 23.2431C42.9642 21.6827 42.11 21.6859 41.5969 20.2534C41.0821 18.8225 41.4621 18.1555 40.6339 16.7894C40.0509 15.8278 38.703 15.6352 38.081 15.0671C37.4265 14.4697 37.3632 13.8708 36.5756 13.4661C35.2683 12.7928 34.4319 13.267 33.3309 12.6001C32.5644 12.1356 31.7686 11.6791 30.6367 11.828C29.5292 11.9737 28.9624 12.1712 27.457 12.3865C28.4119 12.4836 39.6903 10.8503 40.9538 26.6538L40.957 26.6521Z" fill="url(#paint19_linear_2562_1679)"/>
<g style="mix-blend-mode:multiply" opacity="0.3">
<path d="M23.076 20.0107C28.3457 18.1023 32.1036 20.88 32.1036 20.88C27.623 17.573 22.6895 19.8812 22.6895 19.8812L23.076 20.0123V20.0107Z" fill="#5F39FF"/>
</g>
<g style="mix-blend-mode:multiply" opacity="0.3">
<path d="M24.6542 20.8541C27.678 19.352 31.6957 21.4498 31.6957 21.4498C27.272 19.0169 24.3262 20.668 24.3262 20.668L24.6542 20.8541Z" fill="#5F39FF"/>
</g>
<g style="mix-blend-mode:multiply" opacity="0.3">
<path d="M25.8742 21.7248C26.6797 21.189 29.5914 21.5823 29.5914 21.5823C26.9688 20.8766 25.6631 21.5597 25.6631 21.5597L25.8742 21.7248Z" fill="#5F39FF"/>
</g>
<g style="mix-blend-mode:multiply" opacity="0.3">
<path d="M26.7995 22.4709C27.8794 21.6519 30.5232 23.044 31.5561 22.4709C29.7941 23.12 28.4397 21.9351 26.9716 22.6134L26.7979 22.4709H26.7995Z" fill="#5F39FF"/>
</g>
<g style="mix-blend-mode:multiply" opacity="0.3">
<path d="M38.7097 29.8574C39.0621 29.3604 37.8376 28.9412 37.6833 29.2843C37.5291 29.6275 38.5846 30.0322 38.7097 29.8574Z" fill="#5F39FF"/>
</g>
<g style="mix-blend-mode:multiply" opacity="0.2">
<path d="M19.0192 13.5571C20.5133 14.0152 21.5851 13.6251 21.5851 13.6251C20.1674 14.3503 19.1345 13.9375 18.748 13.8323C18.8893 13.6381 19.0209 13.5571 19.0209 13.5571H19.0192Z" fill="#5F39FF"/>
</g>
<g style="mix-blend-mode:multiply" opacity="0.2">
<path d="M16.2881 10.3486C16.6486 10.6934 17.8796 10.9006 18.9725 10.8537C20.3025 10.7954 21.756 11.001 23.1282 12.2004C22.0418 11.2486 20.4048 11.1823 18.8036 11.1871C18.0615 11.1904 16.8207 11.2195 16.582 10.9735C16.4326 10.7096 16.2897 10.3486 16.2897 10.3486H16.2881Z" fill="#5F39FF"/>
</g>
<g style="mix-blend-mode:multiply" opacity="0.2">
<path d="M17.6826 17.5632C17.9408 17.1375 19.685 16.6098 20.7519 16.3702C22.0494 16.0788 22.6195 15.9186 23.6279 14.4019C22.8289 15.6029 21.7165 15.9461 20.721 16.1144C19.9253 16.2488 18.2413 16.6001 17.6859 17.0355C17.6859 17.1925 17.6826 17.5632 17.6826 17.5632Z" fill="#5F39FF"/>
</g>
<g style="mix-blend-mode:multiply" opacity="0.2">
<path d="M17.9666 15.3392C20.1898 15.3991 22.0216 14.7306 22.4991 14.4878C22.0915 14.695 20.9839 15.7666 17.8789 15.7115L17.9666 15.3409V15.3392Z" fill="#5F39FF"/>
</g>
<g style="mix-blend-mode:multiply" opacity="0.2">
<path d="M22.1443 12.6052C20.5447 11.9302 19.7035 12.1115 18.4352 12.0759C17.9399 12.0613 17.4608 12.0111 17.2578 11.9917C17.3812 12.1422 17.5047 12.2912 17.6102 12.3996C19.0815 12.4579 20.9637 12.1082 22.1443 12.6052Z" fill="#5F39FF"/>
</g>
<path d="M28.6377 27.2592C28.6166 27.175 28.6036 27.086 28.5825 26.9954C28.5614 26.9047 28.5581 26.8092 28.5403 26.7137C28.537 26.6441 28.5289 26.5729 28.524 26.5033C28.5825 26.5 28.6393 26.4952 28.6913 26.4903C28.9544 26.4693 29.1298 26.4401 29.1298 26.4401C29.1298 26.4401 28.9544 26.411 28.6913 26.3883C28.6377 26.3835 28.5776 26.3802 28.5175 26.3754C28.5159 26.2945 28.5127 26.2151 28.5192 26.1358C28.5224 26.0889 28.524 26.0419 28.524 25.9934C28.5305 25.9481 28.537 25.9027 28.5435 25.8574C28.55 25.8121 28.5565 25.7668 28.563 25.7247C28.5728 25.6826 28.5825 25.6405 28.5922 25.5984C28.6117 25.5159 28.628 25.4365 28.654 25.3686C28.6799 25.2989 28.6946 25.231 28.7189 25.1711C28.7465 25.1128 28.7693 25.0594 28.7871 25.0157C28.8228 24.9299 28.8407 24.8781 28.8407 24.8781C28.8407 24.8781 28.7952 24.9137 28.7238 24.9784C28.6881 25.0108 28.6426 25.0497 28.5955 25.0966C28.55 25.1452 28.5046 25.2099 28.4542 25.2795C28.4298 25.3135 28.4022 25.3507 28.3779 25.3896C28.3568 25.4301 28.3373 25.4721 28.3162 25.5142C28.2951 25.5579 28.274 25.6016 28.2528 25.6486C28.2334 25.6955 28.2236 25.7441 28.2074 25.7943C28.1928 25.8445 28.1798 25.8962 28.1651 25.948C28.157 26.0015 28.1489 26.0533 28.1424 26.1083C28.1278 26.1892 28.1278 26.2734 28.1278 26.356C27.9979 26.3511 27.8631 26.3495 27.7267 26.3479C27.6601 26.3479 27.5935 26.3479 27.5269 26.3495C27.5269 26.2669 27.5269 26.186 27.5123 26.1067C27.5058 26.0516 27.4977 25.9982 27.4896 25.9464C27.475 25.8946 27.4603 25.8445 27.4474 25.7927C27.4327 25.7425 27.4214 25.6939 27.4019 25.647C27.3808 25.6016 27.3597 25.5563 27.3385 25.5126C27.3174 25.4689 27.2979 25.4268 27.2768 25.388C27.2541 25.3491 27.2249 25.3119 27.2005 25.2779C27.1518 25.2083 27.1047 25.1452 27.0592 25.095C27.0121 25.048 26.9683 25.0092 26.9309 24.9768C26.8579 24.9121 26.814 24.8765 26.814 24.8765C26.814 24.8765 26.8319 24.9283 26.8676 25.0141C26.8855 25.0578 26.9066 25.1112 26.9358 25.1695C26.9585 25.2293 26.9748 25.2973 26.9991 25.3669C27.0267 25.4349 27.043 25.5142 27.0625 25.5968C27.0722 25.6373 27.082 25.6793 27.0917 25.723C27.0982 25.7668 27.1047 25.8105 27.1112 25.8558C27.1177 25.9011 27.1242 25.9464 27.1307 25.9918C27.1307 26.0387 27.1323 26.0856 27.1356 26.1342C27.142 26.2087 27.1404 26.2864 27.1372 26.3624C27.0024 26.3689 26.8741 26.377 26.7637 26.3867C26.5006 26.4078 26.3252 26.4369 26.3252 26.4369C26.3252 26.4369 26.5006 26.466 26.7637 26.4871C26.8725 26.4968 26.9975 26.5049 27.1307 26.5114C27.1258 26.5777 27.1177 26.6441 27.1144 26.7105C27.095 26.8043 27.0933 26.9015 27.0706 26.9921C27.0511 27.0828 27.0381 27.1734 27.0154 27.256C26.9943 27.3401 26.9748 27.4195 26.9569 27.4939C26.8773 27.7901 26.8124 27.9957 26.8124 27.9957C26.8124 27.9957 26.991 27.8516 27.1648 27.57C27.207 27.4988 27.2557 27.4227 27.2931 27.3369C27.3353 27.2527 27.3743 27.1605 27.4051 27.0633C27.4392 26.9662 27.4652 26.8642 27.4896 26.759C27.4993 26.6813 27.5123 26.602 27.5188 26.5227C27.587 26.5227 27.6568 26.5243 27.7267 26.5243C27.8647 26.5243 28.0011 26.5211 28.1343 26.5162C28.1408 26.5972 28.1538 26.6781 28.1635 26.7574C28.1879 26.8626 28.2139 26.9646 28.248 27.0617C28.2788 27.1588 28.3178 27.2511 28.36 27.3353C28.3974 27.4211 28.4445 27.4972 28.4883 27.5684C28.6621 27.85 28.8407 27.9941 28.8407 27.9941C28.8407 27.9941 28.7758 27.7885 28.6962 27.4923C28.6783 27.4178 28.6588 27.3385 28.6377 27.2543V27.2592Z" fill="#FFE98D"/>
</g>
<rect x="0.233333" y="0.233333" width="55.5333" height="55.5333" rx="27.7667" stroke="white" stroke-opacity="0.2" stroke-width="0.466667"/>
<defs>
<filter id="filter0_f_2562_1679" x="-20.7407" y="-20.7407" width="97.4815" height="97.4815" filterUnits="userSpaceOnUse" color-interpolation-filters="sRGB">
<feFlood flood-opacity="0" result="BackgroundImageFix"/>
<feBlend mode="normal" in="SourceGraphic" in2="BackgroundImageFix" result="shape"/>
<feGaussianBlur stdDeviation="10.3704" result="effect1_foregroundBlur_2562_1679"/>
</filter>
<radialGradient id="paint0_radial_2562_1679" cx="0" cy="0" r="1" gradientUnits="userSpaceOnUse" gradientTransform="translate(28 28) scale(38.6579)">
<stop stop-color="#FA1E42"/>
<stop offset="1" stop-opacity="0"/>
</radialGradient>
<radialGradient id="paint1_radial_2562_1679" cx="0" cy="0" r="1" gradientUnits="userSpaceOnUse" gradientTransform="translate(34.1843 30.1844) scale(1.21797 1.21403)">
<stop offset="0.31" stop-color="white"/>
<stop offset="0.9" stop-color="white" stop-opacity="0"/>
</radialGradient>
<radialGradient id="paint2_radial_2562_1679" cx="0" cy="0" r="1" gradientUnits="userSpaceOnUse" gradientTransform="translate(24.659 9.49433) scale(0.675568 0.673383)">
<stop offset="0.31" stop-color="white"/>
<stop offset="0.9" stop-color="white" stop-opacity="0"/>
</radialGradient>
<radialGradient id="paint3_radial_2562_1679" cx="0" cy="0" r="1" gradientUnits="userSpaceOnUse" gradientTransform="translate(22.6415 23.114) scale(0.675568 0.673383)">
<stop offset="0.31" stop-color="white"/>
<stop offset="0.9" stop-color="white" stop-opacity="0"/>
</radialGradient>
<radialGradient id="paint4_radial_2562_1679" cx="0" cy="0" r="1" gradientUnits="userSpaceOnUse" gradientTransform="translate(40.2544 36.8731) scale(0.675568 0.673383)">
<stop offset="0.31" stop-color="white"/>
<stop offset="0.9" stop-color="white" stop-opacity="0"/>
</radialGradient>
<radialGradient id="paint5_radial_2562_1679" cx="0" cy="0" r="1" gradientUnits="userSpaceOnUse" gradientTransform="translate(19.7976 42.7826) scale(0.42223 0.420863)">
<stop offset="0.31" stop-color="white"/>
<stop offset="0.9" stop-color="white" stop-opacity="0"/>
</radialGradient>
<radialGradient id="paint6_radial_2562_1679" cx="0" cy="0" r="1" gradientUnits="userSpaceOnUse" gradientTransform="translate(9.68335 23.4847) scale(0.42223 0.420864)">
<stop offset="0.31" stop-color="white"/>
<stop offset="0.9" stop-color="white" stop-opacity="0"/>
</radialGradient>
<radialGradient id="paint7_radial_2562_1679" cx="0" cy="0" r="1" gradientUnits="userSpaceOnUse" gradientTransform="translate(45.0144 22.2461) scale(0.42223 0.420864)">
<stop offset="0.31" stop-color="white"/>
<stop offset="0.9" stop-color="white" stop-opacity="0"/>
</radialGradient>
<radialGradient id="paint8_radial_2562_1679" cx="0" cy="0" r="1" gradientUnits="userSpaceOnUse" gradientTransform="translate(42.9261 29.5452) scale(0.466077 0.464569)">
<stop offset="0.31" stop-color="white"/>
<stop offset="0.9" stop-color="white" stop-opacity="0"/>
</radialGradient>
<radialGradient id="paint9_radial_2562_1679" cx="0" cy="0" r="1" gradientUnits="userSpaceOnUse" gradientTransform="translate(30.0836 43.2229) scale(1.22284 1.21889)">
<stop stop-color="white"/>
<stop offset="0.03" stop-color="white" stop-opacity="0.96"/>
<stop offset="0.18" stop-color="white" stop-opacity="0.71"/>
<stop offset="0.34" stop-color="white" stop-opacity="0.49"/>
<stop offset="0.49" stop-color="white" stop-opacity="0.32"/>
<stop offset="0.64" stop-color="white" stop-opacity="0.18"/>
<stop offset="0.78" stop-color="white" stop-opacity="0.08"/>
<stop offset="0.9" stop-color="white" stop-opacity="0.02"/>
<stop offset="1" stop-color="white" stop-opacity="0"/>
</radialGradient>
<radialGradient id="paint10_radial_2562_1679" cx="0" cy="0" r="1" gradientUnits="userSpaceOnUse" gradientTransform="translate(35.0808 10.4167) scale(2.10303 2.09623)">
<stop stop-color="white"/>
<stop offset="0.03" stop-color="white" stop-opacity="0.96"/>
<stop offset="0.18" stop-color="white" stop-opacity="0.71"/>
<stop offset="0.34" stop-color="white" stop-opacity="0.49"/>
<stop offset="0.49" stop-color="white" stop-opacity="0.32"/>
<stop offset="0.64" stop-color="white" stop-opacity="0.18"/>
<stop offset="0.78" stop-color="white" stop-opacity="0.08"/>
<stop offset="0.9" stop-color="white" stop-opacity="0.02"/>
<stop offset="1" stop-color="white" stop-opacity="0"/>
</radialGradient>
<radialGradient id="paint11_radial_2562_1679" cx="0" cy="0" r="1" gradientUnits="userSpaceOnUse" gradientTransform="translate(31.8702 39.5663) scale(1.85944 1.85342)">
<stop stop-color="white"/>
<stop offset="0.03" stop-color="white" stop-opacity="0.96"/>
<stop offset="0.18" stop-color="white" stop-opacity="0.71"/>
<stop offset="0.34" stop-color="white" stop-opacity="0.49"/>
<stop offset="0.49" stop-color="white" stop-opacity="0.32"/>
<stop offset="0.64" stop-color="white" stop-opacity="0.18"/>
<stop offset="0.78" stop-color="white" stop-opacity="0.08"/>
<stop offset="0.9" stop-color="white" stop-opacity="0.02"/>
<stop offset="1" stop-color="white" stop-opacity="0"/>
</radialGradient>
<linearGradient id="paint12_linear_2562_1679" x1="17.3406" y1="31.7867" x2="8.99061" y2="43.6077" gradientUnits="userSpaceOnUse">
<stop offset="0.08" stop-color="#5F39FF"/>
<stop offset="0.15" stop-color="#614FFE"/>
<stop offset="0.61" stop-color="#73E9FE"/>
<stop offset="0.88" stop-color="#FFE98D"/>
</linearGradient>
<linearGradient id="paint13_linear_2562_1679" x1="11.3432" y1="29.0754" x2="36.4766" y2="37.1613" gradientUnits="userSpaceOnUse">
<stop stop-color="#5F39FF"/>
<stop offset="0.06" stop-color="#614FFE"/>
<stop offset="0.51" stop-color="#73E9FE"/>
<stop offset="0.94" stop-color="#FFE98D"/>
</linearGradient>
<linearGradient id="paint14_linear_2562_1679" x1="13.5221" y1="34.2973" x2="39.5363" y2="34.2973" gradientUnits="userSpaceOnUse">
<stop stop-color="#5F39FF"/>
<stop offset="0.06" stop-color="#614FFE"/>
<stop offset="0.51" stop-color="#73E9FE"/>
<stop offset="0.94" stop-color="#FFE98D"/>
</linearGradient>
<linearGradient id="paint15_linear_2562_1679" x1="13.8014" y1="30.7769" x2="28.3189" y2="45.5461" gradientUnits="userSpaceOnUse">
<stop stop-color="#FFE98D"/>
<stop offset="0.32" stop-color="#FDADA5"/>
<stop offset="0.79" stop-color="#FC5CC5"/>
<stop offset="1" stop-color="#FC3DD3"/>
</linearGradient>
<linearGradient id="paint16_linear_2562_1679" x1="38.1138" y1="21.5387" x2="46.4638" y2="9.71922" gradientUnits="userSpaceOnUse">
<stop offset="0.08" stop-color="#5F39FF"/>
<stop offset="0.15" stop-color="#614FFE"/>
<stop offset="0.61" stop-color="#73E9FE"/>
<stop offset="0.88" stop-color="#FFE98D"/>
</linearGradient>
<linearGradient id="paint17_linear_2562_1679" x1="44.1132" y1="24.2502" x2="18.9781" y2="16.1659" gradientUnits="userSpaceOnUse">
<stop stop-color="#5F39FF"/>
<stop offset="0.06" stop-color="#614FFE"/>
<stop offset="0.51" stop-color="#73E9FE"/>
<stop offset="0.94" stop-color="#FFE98D"/>
</linearGradient>
<linearGradient id="paint18_linear_2562_1679" x1="41.9316" y1="19.0299" x2="15.9173" y2="19.0299" gradientUnits="userSpaceOnUse">
<stop stop-color="#5F39FF"/>
<stop offset="0.06" stop-color="#614FFE"/>
<stop offset="0.51" stop-color="#73E9FE"/>
<stop offset="0.94" stop-color="#FFE98D"/>
</linearGradient>
<linearGradient id="paint19_linear_2562_1679" x1="41.6521" y1="22.5503" x2="27.1346" y2="7.78115" gradientUnits="userSpaceOnUse">
<stop stop-color="#FFE98D"/>
<stop offset="0.32" stop-color="#FDADA5"/>
<stop offset="0.79" stop-color="#FC5CC5"/>
<stop offset="1" stop-color="#FC3DD3"/>
</linearGradient>
<clipPath id="clip0_2562_1679">
<rect width="56" height="56" rx="28" fill="white"/>
</clipPath>
</defs>
</svg>
