<svg width="56" height="56" viewBox="0 0 56 56" fill="none" xmlns="http://www.w3.org/2000/svg">
<g clip-path="url(#clip0_253_624)">
<g filter="url(#filter0_f_253_624)">
<path d="M56 0H0V56H56V0Z" fill="url(#paint0_radial_253_624)"/>
</g>
<g clip-path="url(#clip1_253_624)">
<g opacity="0.2">
<g style="mix-blend-mode:screen" opacity="0.5">
<path d="M43.4524 28.8094C43.4524 37.8502 36.1925 45.1815 27.2365 45.1815C18.2805 45.1815 11.022 37.8516 11.022 28.8094C11.022 19.7671 18.2819 12.4373 27.2379 12.4373C36.1939 12.4373 43.4538 19.7671 43.4538 28.8094H43.4524Z" stroke="#EC4899" stroke-width="0.905679" stroke-miterlimit="10"/>
</g>
<g style="mix-blend-mode:screen" opacity="0.5">
<path d="M42.7 28.8094C42.7 37.4313 35.7776 44.4204 27.2379 44.4204C18.6982 44.4204 11.7744 37.4313 11.7744 28.8094C11.7744 20.1874 18.6982 13.1984 27.2379 13.1984C35.7776 13.1984 42.7 20.1888 42.7 28.8094Z" stroke="#EC4899" stroke-width="0.466667" stroke-miterlimit="10"/>
</g>
<g style="mix-blend-mode:screen" opacity="0.5">
<path d="M41.8856 28.8094C41.8856 36.977 35.3276 43.5982 27.2379 43.5982C19.1482 43.5982 12.5901 36.977 12.5901 28.8094C12.5901 20.6418 19.1482 14.0205 27.2379 14.0205C35.3276 14.0205 41.8856 20.6418 41.8856 28.8094Z" fill="#EC4899"/>
</g>
</g>
<g style="mix-blend-mode:screen">
<path d="M41.2823 26.9492C40.859 26.8867 40.4511 27.0018 40.1305 27.2346L37.4006 24.1732L32.3755 23.7273C32.3263 23.449 32.1097 23.2204 31.8172 23.1778C31.7595 23.1693 31.7032 23.1707 31.647 23.1778L30.5922 20.4728C30.82 20.3933 30.9986 20.1931 31.0366 19.9361C31.0872 19.5839 30.858 19.2587 30.5205 19.1835L32.2785 13.5377C32.7763 13.5988 33.2334 13.2594 33.3262 12.7624L35.9576 12.7724C36.0237 13.0251 36.2333 13.2268 36.5061 13.2679C36.8704 13.3219 37.2108 13.0677 37.2642 12.6971C37.3176 12.3279 37.0659 11.9857 36.7002 11.9318C36.3627 11.8821 36.0505 12.0965 35.9619 12.4217L33.3262 12.4117C33.2545 12.0155 32.9451 11.6918 32.5302 11.6307C32.0098 11.5541 31.5246 11.9176 31.4487 12.4444C31.3882 12.8576 31.6006 13.2452 31.9466 13.4312L30.1478 19.2076C29.9255 19.29 29.7511 19.4874 29.7146 19.7415C29.6639 20.0923 29.8904 20.4146 30.2265 20.4927L31.3235 23.3056C31.1871 23.4079 31.0886 23.564 31.0619 23.7501C31.0282 23.9787 31.1126 24.1959 31.2687 24.3422L21.0469 31.8552C20.9569 31.7828 20.85 31.7302 20.7262 31.7118C20.3619 31.6578 20.023 31.912 19.9696 32.2812C19.9302 32.551 20.0553 32.8037 20.2663 32.9429L17.5674 41.3092C17.4704 41.2737 17.3677 41.2468 17.2594 41.2311C16.3945 41.1033 15.59 41.7083 15.4634 42.5815C15.3368 43.4548 15.936 44.2684 16.8009 44.3962C17.6659 44.524 18.4703 43.9191 18.5969 43.0444C18.6419 42.7306 18.5927 42.4268 18.4717 42.1584L23.0229 38.7732C23.1115 38.8456 23.2198 38.8982 23.3421 38.9152C23.7078 38.9692 24.0467 38.715 24.1002 38.3458C24.1128 38.2578 24.1072 38.1711 24.0875 38.0902L39.762 29.4455C40.0039 29.7948 40.378 30.0476 40.828 30.1143C41.693 30.2421 42.4975 29.6372 42.624 28.7639C42.7506 27.8892 42.1515 27.077 41.2865 26.9492H41.2823ZM23.9159 37.7835C23.8161 37.6784 23.6853 37.6032 23.532 37.5804C23.1677 37.5265 22.8274 37.7807 22.7753 38.1498C22.7571 38.2691 22.7753 38.3856 22.8161 38.4906L18.2945 41.8531C18.1806 41.7012 18.04 41.5719 17.8796 41.4683L20.5954 33.0494C20.9358 33.0664 21.2395 32.825 21.2888 32.4771C21.3056 32.3578 21.2888 32.2442 21.2494 32.1406L31.6231 24.5154C31.9423 24.5623 32.2419 24.3748 32.3474 24.0795L37.2333 24.5126L39.8717 27.4703C39.6734 27.6961 39.5341 27.9787 39.4863 28.301C39.4441 28.595 39.4891 28.8804 39.5932 29.1388L23.9159 37.7863V37.7835Z" fill="#EC4899"/>
</g>
<path d="M39.4795 28.6304C44.018 27.4959 42.3204 23.6208 41.2248 19.0046C39.9605 13.6797 45.1628 13.4412 45.1628 13.4412C45.1628 13.4412 41.2544 14.5842 42.1179 18.7135C42.7986 21.9666 46.309 28.5637 39.9 31.0728L39.4795 28.6304Z" fill="url(#paint1_linear_253_624)"/>
<g style="mix-blend-mode:multiply" opacity="0.2">
<path d="M39.4795 28.6304C44.2486 30.7717 43.4174 23.2659 42.1671 19.9957C40.215 14.8881 45.1628 13.4412 45.1628 13.4412C45.1628 13.4412 41.2544 14.5842 42.1179 18.7135C42.7986 21.9666 46.309 28.5637 39.9 31.0728L39.4795 28.6304Z" fill="#5F39FF"/>
</g>
<g style="mix-blend-mode:multiply" opacity="0.3">
<path d="M39.4795 28.6304L39.9 31.0728C40.9393 30.6652 41.7171 30.1498 42.2895 29.5591C41.6341 29.0806 40.9126 28.6929 40.1588 28.4231C39.9492 28.4998 39.7242 28.5694 39.4795 28.6304Z" fill="#5F39FF"/>
</g>
<path d="M43.3486 14.0248C44.9899 15.8395 47.5903 14.3656 47.5903 14.3656C47.136 14.5757 46.6466 14.0361 46.6466 14.0361C47.7619 14.2633 48.8772 12.8065 50.1655 14.0035C50.1655 14.0035 48.9742 11.1295 46.371 11.1991C43.7649 11.2715 43.3472 14.0248 43.3472 14.0248H43.3486Z" fill="url(#paint2_linear_253_624)"/>
<path style="mix-blend-mode:multiply" opacity="0.3" d="M44.6116 13.0237C45.7283 12.2243 47.5172 11.9133 47.5172 11.9133C44.5314 11.2743 43.7129 13.8941 43.7129 13.8941C43.7129 13.8941 44.132 13.2182 44.6116 13.0237Z" fill="url(#paint3_linear_253_624)"/>
<path d="M32.0366 33.4129C32.0366 33.4129 31.4009 36.0199 32.4065 38.6866C32.706 39.4818 33.8185 40.7129 34.1082 41.4967C34.3979 42.2819 34.5428 44.9145 34.052 45.163C33.6033 45.3902 32.7862 45.5563 32.4965 45.9468C32.2068 46.3373 32.1814 46.9394 32.3418 47.1836C32.5007 47.4292 35.3093 47.3639 35.5343 46.9592C35.7593 46.5546 36.0899 46.2663 36.2755 45.6586C36.4597 45.0508 36.8001 41.7068 36.644 41.2354C36.4021 40.5041 36.471 39.4037 37.1629 38.5148C38.0616 37.3603 40.7198 35.5272 40.3316 34.2592C38.6383 34.5999 32.0366 33.4114 32.0366 33.4114V33.4129Z" fill="url(#paint4_linear_253_624)"/>
<g style="mix-blend-mode:multiply" opacity="0.3">
<path d="M40.3316 34.2605C38.6383 34.6013 32.0366 33.4128 32.0366 33.4128C32.0366 33.4128 31.6625 34.9393 31.9114 36.6219C33.7707 36.9954 35.4007 38.7561 36.5343 40.1008C36.5863 39.574 36.7776 39.0117 37.1643 38.5161C38.063 37.3617 40.7212 35.5286 40.333 34.2605H40.3316Z" fill="#5F39FF"/>
</g>
<g style="mix-blend-mode:multiply" opacity="0.5">
<path d="M32.9789 46.1115C32.4529 46.4339 32.4881 47.2177 32.4866 47.2603C32.4866 47.2617 32.7707 47.3 32.7707 47.3C32.7707 47.3 32.6484 46.5475 32.9789 46.1115Z" fill="#5F39FF"/>
</g>
<g style="mix-blend-mode:multiply" opacity="0.5">
<path d="M33.7566 46.1612C33.2643 46.2919 33.3107 47.327 33.3107 47.327H33.5498C33.5498 47.327 33.3206 46.4381 33.7566 46.1612Z" fill="#5F39FF"/>
</g>
<path d="M24.7783 21.5818C25.5841 21.9254 26.871 23.2375 27.8119 24.2541C28.7528 25.2708 33.4094 26.8626 35.6048 27.2403C37.7215 27.6038 39.6764 28.2939 40.6159 29.8758C41.8662 31.9801 41.6144 35.3199 42.6087 37.1346C43.1966 38.2052 44.8618 39.4392 45.4638 39.9986C45.9012 40.4047 46.9714 44.71 46.9714 45.1318C46.9714 45.6018 46.5144 46.7988 46.3723 46.8442C45.7043 47.0586 43.4765 47.3994 43.3049 47.0927C43.1333 46.786 43.5285 46.0363 43.6214 45.7892C43.755 45.4356 44.8126 45.3874 44.8407 44.8307C44.8703 44.2741 43.838 42.485 43.2613 41.8048C42.6833 41.1246 39.3768 40.906 37.8537 39.4349C37.083 38.6908 35.9452 37.3816 35.4515 37.0338C34.2828 36.2116 33.1774 35.9986 31.8188 36.0795C30.2295 36.1733 29.8695 36.9897 27.6459 37.0764C25.4224 37.163 23.5884 37.0068 23.5884 37.0068C23.5884 37.0068 23.5308 38.6937 23.4436 39.1722C23.2396 40.2911 21.3593 45.0011 20.4606 45.6657C19.9346 46.0533 19.5577 47.1637 18.6562 47.1822C17.5859 47.2035 15.4453 47.3654 15.4453 46.9323C15.4453 46.4992 16.119 45.474 16.4228 45.3632C16.7266 45.2525 18.1555 44.9827 18.4958 44.5382C18.8362 44.0938 19.5042 40.7157 19.59 40.0497C19.6758 39.3838 19.4142 36.4431 19.4142 36.4431C19.4142 36.4431 17.1865 34.306 18.0022 29.5208C18.3524 27.4703 18.1512 25.5051 18.1512 25.5051C18.1512 25.5051 22.1272 20.4543 24.7769 21.5846L24.7783 21.5818Z" fill="url(#paint5_linear_253_624)"/>
<g style="mix-blend-mode:multiply" opacity="0.2">
<path d="M45.4652 39.9972C44.8632 39.4377 43.198 38.2052 42.6101 37.1332C41.6158 35.3199 41.869 31.9801 40.6173 29.8743C39.6778 28.2925 37.7665 27.5357 35.6273 27.3383C33.4896 27.1409 28.7528 25.2694 27.8119 24.2527C26.871 23.236 25.5841 21.9254 24.7782 21.5804C24.466 21.4469 24.1355 21.4 23.7952 21.4213C23.8205 23.6294 25.0525 25.4526 27.1213 26.2705C31.8328 28.054 38.6033 27.8126 40.1405 30.7519C41.6777 33.6912 40.8831 34.5105 41.6074 36.2159C41.71 36.4573 43.1896 39.0416 44.9209 40.0994C45.6958 40.5737 46.2935 44.7399 45.8688 45.3632C45.2823 46.0093 44.3485 46.2251 43.3752 46.3884C43.281 46.654 43.2177 46.9308 43.3063 47.0899C43.4779 47.3966 45.7057 47.0558 46.3737 46.8414C46.5158 46.796 46.9728 45.5989 46.9728 45.1289C46.9728 44.7086 45.9026 40.4019 45.4652 39.9958V39.9972Z" fill="#5F39FF"/>
</g>
<path d="M36.3559 27.5499C39.1279 28.1164 40.2165 29.3277 40.6581 30.2194C41.689 32.2996 41.6918 36.0753 42.7255 37.3263C42.6833 37.2638 42.6453 37.1999 42.6088 37.1346C41.6144 35.3213 41.8676 31.9816 40.6159 29.8758C39.6764 28.2939 37.7341 27.5186 35.6048 27.2403C33.3757 26.9492 28.7528 25.2708 27.8119 24.2542C26.871 23.2375 25.5841 21.9268 24.7783 21.5818C24.5336 21.4767 24.2762 21.4256 24.0132 21.4185C28.8681 26.2009 33.5838 26.9819 36.3559 27.5499Z" fill="#0EA5E9"/>
<g style="mix-blend-mode:multiply" opacity="0.3">
<path d="M20.2663 45.2652C19.9611 45.5123 19.1806 46.1343 18.6292 46.3203C17.5196 46.6951 16.4268 46.5063 15.6378 46.3472C15.5239 46.5702 15.4465 46.7846 15.4465 46.9309C15.4465 47.3639 17.5871 47.2021 18.6574 47.1808C19.5589 47.1623 19.9372 46.0519 20.4618 45.6642C21.3605 44.9997 23.2409 40.2897 23.4448 39.1708C23.5151 38.7888 23.5728 37.4555 23.5897 37.0054C23.3576 38.343 21.2649 44.4587 20.2663 45.2652Z" fill="#5F39FF"/>
</g>
<g style="mix-blend-mode:multiply" opacity="0.5">
<path d="M23.5898 37.0054C24.2986 36.622 24.4716 35.8807 24.0426 34.6681C24.0426 34.6681 24.421 35.1495 24.7965 35.9489C25.3337 37.0934 28.4419 37.0054 28.4419 37.0054C28.4419 37.0054 25.5391 37.207 23.5884 37.0054H23.5898Z" fill="#5F39FF"/>
</g>
<path d="M15.0077 29.6557C11.8545 30.5942 12.3622 33.7906 14.0992 35.8026C15.8361 37.8147 17.3888 39.4079 18.3128 38.2009C19.2354 36.9954 18.2481 35.7004 17.2903 35.1111C15.6322 34.093 15.4114 32.4615 16.0738 32.2201C16.7362 31.9773 15.0077 29.6571 15.0077 29.6571V29.6557Z" fill="url(#paint6_linear_253_624)"/>
<path d="M14.1907 35.6706C12.4566 33.5662 12.2499 31.4249 13.9952 30.1086C11.9981 31.3766 12.5762 34.0447 14.0979 35.8055C15.7476 37.7167 17.23 39.2446 18.1653 38.3614C17.0162 39.1211 15.6872 37.4867 14.1893 35.6706H14.1907Z" fill="#0EA5E9"/>
<g style="mix-blend-mode:multiply" opacity="0.5">
<path d="M17.9064 35.5982C17.7151 35.4065 17.5013 35.2418 17.2903 35.1111C15.6322 34.093 15.4114 32.4615 16.0738 32.2201C16.7362 31.9773 15.0077 29.6571 15.0077 29.6571C13.9684 29.9666 13.3327 30.5247 13.0022 31.202C13.3974 33.6031 15.5042 35.0217 17.9064 35.5996V35.5982Z" fill="#5F39FF"/>
</g>
<path d="M15.7925 19.4959C15.8417 19.5512 15.8811 19.6038 15.9261 19.6577C15.8909 19.395 15.8262 19.2758 15.7925 19.4959Z" fill="url(#paint7_linear_253_624)"/>
<path d="M15.9261 19.6578C15.8164 17.9794 14.3214 17.0834 15.6842 15.7415C14.4705 15.9801 14.05 15.7415 12.8081 16.1249C12.4298 16.2413 12.3735 16.4188 12.0304 16.6006C10.9615 17.1657 8.45528 17.011 7.91241 17.3503C7.37094 17.6897 7.51861 19.4178 8.18666 20.1036C9.16693 21.1104 10.9179 20.1746 11.0909 21.8487C11.1823 22.7405 10.0938 23.6024 9.73652 23.7018C9.38211 23.8012 9.69011 23.8708 9.77168 24.6106C9.85185 25.3504 10.157 25.8559 11.1472 25.8133C12.1387 25.7707 12.6014 25.4583 12.8967 25.7707C12.6253 26.1029 12.4987 26.4963 12.4593 26.8967C13.8643 23.7529 18.4056 22.6851 15.9247 19.6578H15.9261Z" fill="url(#paint8_linear_253_624)"/>
<path d="M9.13871 17.6428C8.72101 17.5264 8.18798 17.4071 8.2583 17.231C8.1036 17.2538 7.97983 17.3091 7.89826 17.3603C7.78715 17.4298 7.71121 17.5747 7.66479 17.6996C7.96999 17.9609 8.62537 18.0433 9.13871 17.6428Z" fill="url(#paint9_linear_253_624)"/>
<g style="mix-blend-mode:multiply" opacity="0.3">
<path d="M15.9263 19.6577C15.87 18.7802 15.1879 18.3329 14.7421 17.9126C15.0979 19.4178 15.0346 21.2183 14.1247 22.7035C12.7928 24.8846 10.2767 26.3344 9.7915 24.7327C9.89277 25.4029 10.2148 25.8502 11.1473 25.8104C12.1388 25.7678 12.6015 25.4554 12.8969 25.7678C12.6254 26.1001 12.4988 26.4934 12.4595 26.8938C13.8645 23.7501 18.4058 22.6822 15.9249 19.6549L15.9263 19.6577Z" fill="#5F39FF"/>
</g>
<path d="M26.8526 21.9254C25.4926 20.744 25.2915 19.973 24.75 18.279C23.4786 14.3031 20.4562 12.7624 17.4606 14.2931C17.8065 13.8856 19.2087 13.0052 21.4618 13.6527C16.3734 11.2871 15.0795 14.4749 15.0823 14.8412C15.0781 14.597 14.8925 14.0617 15.5352 13.4923C13.223 14.2094 13.6492 16.2981 14.1386 16.9967C15.1133 18.3869 13.9192 19.7032 15.5296 21.2807C15.0654 20.1718 15.4803 18.8228 15.5155 19.0855C16.8347 22.8228 12.4242 23.2474 12.4608 26.8938C12.337 28.1704 13.1204 29.5506 13.1204 29.5506C12.8869 28.0227 13.1837 27.5513 13.1837 27.5513C14.4199 29.5747 12.6816 31.7231 15.8235 33.9169C15.8235 33.9169 15.1681 33.3589 15.268 32.6844C16.2581 34.4409 17.289 34.7689 17.289 34.7689C16.8882 34.0192 16.9796 33.4029 16.9796 33.4029C18.604 35.4832 20.1609 35.7174 20.1609 35.7174C19.0456 34.803 18.829 33.9666 18.829 33.9666C19.9204 35.5101 21.1018 35.513 21.1018 35.513C20.0624 33.6926 20.5926 31.6507 20.5926 31.6507C20.4858 32.3237 21.466 33.0451 21.466 33.0451C21.3507 31.1338 22.0384 29.1714 22.0384 29.1714C22.435 30.2066 21.9456 30.918 21.9456 30.918C23.338 30.5758 24.2465 28.8307 24.1888 27.1423C24.1298 25.4355 23.5405 25.1799 24.2001 22.7816C23.7697 24.9627 24.5489 25.6997 24.7345 26.8924C24.9891 28.5296 24.1818 29.6514 24.1818 29.6514C27.1578 28.5964 25.3533 25.508 25.8428 24.7582C26.7359 23.3908 27.8103 24.2499 27.8103 24.2499C27.8103 24.2499 28.2098 23.1011 26.8498 21.9211L26.8526 21.9254Z" fill="url(#paint10_linear_253_624)"/>
<g style="mix-blend-mode:screen">
<path d="M15.6619 19.3809C15.652 19.3099 15.5409 19.067 15.51 19.0642C15.7758 19.8778 15.78 20.6673 15.6028 21.2325C15.6112 21.2524 15.6183 21.2722 15.6253 21.2921C15.6169 21.2793 15.6056 21.2666 15.5972 21.2538C14.9727 23.1934 12.406 24.1008 12.4342 26.8882C12.3104 28.1647 13.0938 29.5449 13.0938 29.5449C13.0769 29.4327 13.0684 29.3376 13.0558 29.2382C12.835 28.7568 12.4693 27.8097 12.5579 26.9066C12.5214 23.2602 16.9811 23.1168 15.6619 19.3809Z" fill="url(#paint11_linear_253_624)"/>
</g>
<path d="M16.2342 16.0695C16.8938 15.4021 17.642 14.7305 17.6139 15.8878C17.5886 17.0464 16.2173 18.1682 15.6956 18.3173C15.6956 18.3173 16.8221 17.2694 16.9515 16.4827C17.0823 15.6961 16.2342 16.0695 16.2342 16.0695Z" fill="url(#paint12_linear_253_624)"/>
<path style="mix-blend-mode:multiply" opacity="0.3" d="M15.2666 32.6873C14.6182 31.0103 14.8714 29.8118 14.8714 29.8118C14.1035 32.7838 15.8221 33.9184 15.8221 33.9184C15.8221 33.9184 15.2666 33.3916 15.2666 32.6858V32.6873Z" fill="url(#paint13_linear_253_624)"/>
<path style="mix-blend-mode:multiply" opacity="0.3" d="M16.9796 33.4058C16.4606 31.973 16.7166 30.9208 16.7166 30.9208C16.1822 33.1743 17.289 34.7718 17.289 34.7718C17.289 34.7718 16.9515 34.12 16.9796 33.4058Z" fill="url(#paint14_linear_253_624)"/>
<path style="mix-blend-mode:multiply" opacity="0.3" d="M18.8291 33.9709C17.6604 31.8509 18.1315 29.0806 18.1315 29.0806C16.4537 34.2222 20.1624 35.7217 20.1624 35.7217C20.1624 35.7217 19.0752 34.8527 18.8305 33.9709H18.8291Z" fill="url(#paint15_linear_253_624)"/>
<path style="mix-blend-mode:multiply" opacity="0.3" d="M20.5925 31.655C20.2705 30.1626 20.8907 28.6844 20.8907 28.6844C18.9091 32.0625 21.1017 35.5172 21.1017 35.5172C20.2086 33.1629 20.5925 31.655 20.5925 31.655Z" fill="url(#paint16_linear_253_624)"/>
<g style="mix-blend-mode:multiply" opacity="0.3">
<path d="M19.3592 18.1412C19.5238 18.6254 19.5885 19.1537 19.542 19.6805C19.4872 20.2073 19.3184 20.7227 19.0779 21.1927C18.5969 22.137 17.905 22.9109 17.2946 23.6947C16.6814 24.4771 16.1287 25.2893 15.8516 26.2208C15.7138 26.6837 15.6308 27.1707 15.6224 27.6663C15.6069 28.1633 15.6603 28.6645 15.7264 29.1729C15.5324 28.7 15.3988 28.1988 15.3298 27.6805C15.2694 27.1622 15.2905 26.6255 15.4016 26.1043C15.5056 25.5804 15.7124 25.0834 15.9585 24.6177C16.2088 24.1533 16.5126 23.7259 16.8277 23.3212C17.4591 22.5119 18.1595 21.7919 18.6743 20.9627C18.9288 20.5481 19.1384 20.1079 19.2551 19.6308C19.3761 19.1551 19.3958 18.651 19.3592 18.1398V18.1412Z" fill="url(#paint17_linear_253_624)"/>
</g>
<g style="mix-blend-mode:multiply" opacity="0.3">
<path d="M20.2227 20.1732C20.2326 20.7866 20.1341 21.4085 19.9302 21.9964C19.8289 22.2918 19.6953 22.5743 19.5491 22.8484C19.4 23.121 19.2298 23.3809 19.0568 23.6336L18.5196 24.372C18.3409 24.6134 18.1792 24.8633 18.0456 25.1246C17.9134 25.3858 17.8276 25.6684 17.8023 25.9623C17.7728 26.2577 17.8107 26.5602 17.8782 26.8598C17.7488 26.5815 17.6673 26.2762 17.656 25.9595C17.6462 25.6429 17.7095 25.3205 17.8332 25.028C18.0779 24.4373 18.4746 23.9574 18.8135 23.4604C19.1637 22.9691 19.4745 22.4593 19.715 21.9112C19.9513 21.3617 20.1102 20.7767 20.2241 20.1732H20.2227Z" fill="url(#paint18_linear_253_624)"/>
</g>
<g style="mix-blend-mode:multiply" opacity="0.3">
<path d="M21.2226 17.7479C21.6291 18.0773 21.9399 18.5502 22.0862 19.0827C22.2296 19.6166 22.217 20.1874 22.1087 20.7199C22.0088 21.2566 21.8218 21.7635 21.6249 22.2577C21.4238 22.7504 21.1931 23.2233 20.961 23.6918C20.4969 24.6276 20.0061 25.5364 19.6376 26.4877C19.2719 27.4349 19.03 28.4444 19.189 29.4924C18.9864 29.0053 18.9119 28.4601 18.926 27.9233C18.9443 27.3837 19.0455 26.8498 19.1974 26.3372C19.5012 25.3092 19.9639 24.3521 20.4294 23.4221C20.8893 22.4906 21.3773 21.5775 21.6586 20.6134C21.7951 20.132 21.8668 19.635 21.8021 19.1437C21.7472 18.6496 21.5349 18.1725 21.224 17.7493L21.2226 17.7479Z" fill="url(#paint19_linear_253_624)"/>
</g>
<g style="mix-blend-mode:multiply" opacity="0.3">
<path d="M23.4392 19.7032C23.5236 20.0042 23.5841 20.3152 23.6122 20.6318C23.6347 20.9485 23.6305 21.268 23.5869 21.586C23.5475 21.9041 23.4645 22.2165 23.3604 22.5175C23.2536 22.8186 23.1171 23.1082 22.9709 23.388C22.8218 23.6663 22.6615 23.9347 22.5068 24.203C22.3492 24.4686 22.203 24.7383 22.0764 25.0138C21.9554 25.2907 21.8626 25.5804 21.8232 25.8814C21.7796 26.1824 21.7951 26.4934 21.8457 26.803C21.7304 26.5119 21.6728 26.1924 21.677 25.8715C21.6826 25.5491 21.7515 25.2282 21.8612 24.9272C22.082 24.3223 22.4252 23.7927 22.7079 23.2488C23.0004 22.7092 23.2353 22.1455 23.3576 21.5491C23.4181 21.2509 23.4547 20.9471 23.4659 20.6389C23.4786 20.3308 23.4589 20.0213 23.4392 19.7074V19.7032Z" fill="url(#paint20_linear_253_624)"/>
</g>
<g style="mix-blend-mode:multiply" opacity="0.5">
<path d="M17.4058 46.0732C16.9291 46.4466 16.8433 47.2276 16.8433 47.2276H17.0852C17.0852 47.2276 17.1456 46.5261 17.4058 46.0732Z" fill="#5F39FF"/>
</g>
<g style="mix-blend-mode:multiply" opacity="0.5">
<path d="M16.7996 45.846C15.9501 46.1655 15.9121 47.1765 15.9121 47.1765L16.1892 47.2063C16.1892 47.2063 16.1779 46.2649 16.7996 45.8446V45.846Z" fill="#5F39FF"/>
</g>
<g style="mix-blend-mode:multiply" opacity="0.5">
<path d="M44.0741 46.0491C43.5481 46.3714 43.5833 47.1552 43.5819 47.1978C43.5819 47.1992 43.8969 47.212 43.8969 47.212C43.8969 47.212 43.7436 46.485 44.0741 46.0476V46.0491Z" fill="#5F39FF"/>
</g>
<g style="mix-blend-mode:multiply" opacity="0.5">
<path d="M45.0334 45.9525C44.5412 46.0831 44.5876 47.1183 44.5876 47.1183H44.8267C44.8267 47.1183 44.5974 46.2294 45.0334 45.9525Z" fill="#5F39FF"/>
</g>
<g style="mix-blend-mode:multiply" opacity="0.5">
<path d="M16.1919 37.2709C17.1047 38.3983 17.9865 38.4977 17.9865 38.4977L18.1173 38.3941C16.8009 38.0235 16.1933 37.2709 16.1933 37.2709H16.1919Z" fill="#5F39FF"/>
</g>
<g style="mix-blend-mode:multiply" opacity="0.5">
<path d="M17.1047 36.622C17.7418 37.491 18.6095 37.6344 18.6095 37.6344L18.6278 37.508C17.5885 37.2666 17.1033 36.622 17.1033 36.622H17.1047Z" fill="#5F39FF"/>
</g>
<path d="M8.17114 20.0738C8.94467 20.6432 10.0346 20.372 10.6788 20.788C10.9066 20.9357 11.0796 21.1686 11.1626 21.5562C11.5226 23.2417 10.0614 23.8679 9.59584 23.7657C9.59584 23.7657 9.72945 23.6776 9.83071 23.5257C9.88556 23.4433 9.63381 23.0316 9.63381 22.2946C9.81102 22.6439 10.4031 23.1508 10.4594 23.0798C10.8054 22.6453 11.1134 21.9524 10.7083 21.2737C10.4256 20.7994 10.0346 20.8136 9.59021 20.7341C9.55365 20.8562 9.35534 21.3347 9.4988 21.9751C9.105 21.4029 8.98827 20.6744 8.91373 20.6404C8.5776 20.487 8.32304 20.328 8.17255 20.0738H8.17114Z" fill="#5F39FF"/>
<path d="M12.6744 18.5388C11.7153 18.3287 11.794 18.1086 11.8784 17.738C11.6281 17.5633 11.5493 17.7167 11.5493 17.7167C11.5493 18.6013 12.6744 18.5388 12.6744 18.5388Z" fill="#5F39FF"/>
<path d="M11.5508 17.7195C12.5803 16.5083 13.0739 17.6826 13.5085 17.258C12.7631 18.3102 11.5508 17.7195 11.5508 17.7195Z" fill="#5F39FF"/>
<path d="M37.464 33.1928C37.4035 33.2027 37.3275 33.1984 37.2417 33.2027C37.1574 33.1984 37.0603 33.1913 36.9661 33.1573C36.8733 33.1203 36.7931 33.0494 36.7664 32.9457C36.7354 32.8435 36.7467 32.7242 36.7565 32.6049C36.7692 32.4842 36.7917 32.3578 36.8057 32.2272C36.8212 32.0994 36.8325 31.9531 36.824 31.8253C36.8114 31.6834 36.7875 31.5414 36.7073 31.4107C36.6299 31.2815 36.4977 31.1722 36.3416 31.131C36.1869 31.087 36.028 31.1054 35.8958 31.1452C35.765 31.1892 35.6511 31.2488 35.5611 31.317C35.4668 31.3809 35.3937 31.4519 35.3276 31.5144C35.2882 31.5584 35.2517 31.5996 35.2193 31.6365C35.2109 31.6365 35.2038 31.6365 35.1968 31.6365C34.6947 31.6365 34.2869 32.0483 34.2869 32.5552C34.2869 33.0621 34.6961 33.4739 35.1968 33.4739C35.6975 33.4739 36.1068 33.0621 36.1068 32.5552C36.1068 32.169 35.8691 31.8395 35.5358 31.7032C35.5386 31.699 35.5428 31.6947 35.5456 31.689C35.5976 31.6351 35.6553 31.5683 35.7284 31.5115C35.7988 31.4505 35.8846 31.3994 35.9802 31.3596C36.0758 31.3241 36.1827 31.3071 36.2854 31.3269C36.3866 31.3468 36.4809 31.4107 36.547 31.503C36.6159 31.5939 36.6468 31.7189 36.6665 31.8353C36.6848 31.9702 36.682 32.088 36.6778 32.2187C36.6721 32.3465 36.6595 32.4743 36.6567 32.5992C36.6567 32.7242 36.6525 32.8491 36.696 32.9656C36.7368 33.0848 36.8437 33.1672 36.9478 33.1999C37.0547 33.2311 37.1545 33.2297 37.2417 33.2283C37.3289 33.2183 37.4035 33.2183 37.4654 33.2041C37.5877 33.1828 37.6566 33.1686 37.6566 33.1686C37.6566 33.1686 37.5863 33.1771 37.4625 33.1913L37.464 33.1928ZM35.7594 32.5552C35.7594 32.869 35.5062 33.1246 35.1954 33.1246C34.8846 33.1246 34.6314 32.869 34.6314 32.5552C34.6314 32.2414 34.8846 31.9858 35.1954 31.9858C35.5062 31.9858 35.7594 32.2414 35.7594 32.5552Z" fill="#FFE98D"/>
<g style="mix-blend-mode:screen" opacity="0.9">
<path style="mix-blend-mode:screen" opacity="0.9" d="M27.4405 15.1224C27.4405 16.1817 26.4377 16.2371 26.4377 16.2371C26.4377 16.2371 27.4405 16.2939 27.4405 17.3532C27.4405 16.2939 28.4433 16.2371 28.4433 16.2371C28.4433 16.2371 27.4405 16.1817 27.4405 15.1224Z" fill="url(#paint21_radial_253_624)"/>
<path style="mix-blend-mode:screen" opacity="0.9" d="M10.6619 28.9258C10.6619 29.5137 10.105 29.5435 10.105 29.5435C10.105 29.5435 10.6619 29.5747 10.6619 30.1626C10.6619 29.5747 11.2175 29.5435 11.2175 29.5435C11.2175 29.5435 10.6619 29.5123 10.6619 28.9258Z" fill="url(#paint22_radial_253_624)"/>
<path style="mix-blend-mode:screen" opacity="0.9" d="M42.9673 31.2474C42.9673 31.8353 42.4104 31.8651 42.4104 31.8651C42.4104 31.8651 42.9673 31.8963 42.9673 32.4842C42.9673 31.8963 43.5229 31.8651 43.5229 31.8651C43.5229 31.8651 42.9673 31.8339 42.9673 31.2474Z" fill="url(#paint23_radial_253_624)"/>
<path style="mix-blend-mode:screen" opacity="0.9" d="M29.7934 38.9862C29.7934 39.3525 29.446 39.3724 29.446 39.3724C29.446 39.3724 29.7934 39.3923 29.7934 39.7586C29.7934 39.3923 30.1408 39.3724 30.1408 39.3724C30.1408 39.3724 29.7934 39.3525 29.7934 38.9862Z" fill="url(#paint24_radial_253_624)"/>
<path style="mix-blend-mode:screen" opacity="0.9" d="M25.2649 12.4003C25.2649 12.7681 24.9175 12.7866 24.9175 12.7866C24.9175 12.7866 25.2649 12.8065 25.2649 13.1728C25.2649 12.8065 25.6122 12.7866 25.6122 12.7866C25.6122 12.7866 25.2649 12.7667 25.2649 12.4003Z" fill="url(#paint25_radial_253_624)"/>
<path style="mix-blend-mode:screen" opacity="0.9" d="M35.3839 16.2385C35.3839 16.8249 34.8284 16.8576 34.8284 16.8576C34.8284 16.8576 35.3839 16.8888 35.3839 17.4767C35.3839 16.8888 35.9394 16.8576 35.9394 16.8576C35.9394 16.8576 35.3839 16.8264 35.3839 16.2385Z" fill="url(#paint26_radial_253_624)"/>
<path style="mix-blend-mode:color-dodge" opacity="0.9" d="M38.3809 20.8079C38.3809 21.9666 37.2825 22.0291 37.2825 22.0291C37.2825 22.0291 38.3809 22.0915 38.3809 23.2517C38.3809 22.0915 39.4793 22.0291 39.4793 22.0291C39.4793 22.0291 38.3809 21.9666 38.3809 20.8079Z" fill="url(#paint27_radial_253_624)"/>
<path style="mix-blend-mode:color-dodge" opacity="0.9" d="M26.0159 40.1278C26.0159 41.2865 24.9175 41.349 24.9175 41.349C24.9175 41.349 26.0159 41.4115 26.0159 42.5716C26.0159 41.4115 27.1143 41.349 27.1143 41.349C27.1143 41.349 26.0159 41.2865 26.0159 40.1278Z" fill="url(#paint28_radial_253_624)"/>
</g>
</g>
</g>
<rect x="0.5" y="0.5" width="55" height="55" rx="27.5" stroke="white" stroke-opacity="0.2"/>
<defs>
<filter id="filter0_f_253_624" x="-20.7407" y="-20.7407" width="97.4815" height="97.4815" filterUnits="userSpaceOnUse" color-interpolation-filters="sRGB">
<feFlood flood-opacity="0" result="BackgroundImageFix"/>
<feBlend mode="normal" in="SourceGraphic" in2="BackgroundImageFix" result="shape"/>
<feGaussianBlur stdDeviation="10.3704" result="effect1_foregroundBlur_253_624"/>
</filter>
<radialGradient id="paint0_radial_253_624" cx="0" cy="0" r="1" gradientUnits="userSpaceOnUse" gradientTransform="translate(28 28) scale(38.6579)">
<stop stop-color="#FA1E42"/>
<stop offset="1" stop-opacity="0"/>
</radialGradient>
<linearGradient id="paint1_linear_253_624" x1="39.0027" y1="21.4024" x2="45.9982" y2="21.9305" gradientUnits="userSpaceOnUse">
<stop stop-color="#5F39FF"/>
<stop offset="0.1" stop-color="#614FFE"/>
<stop offset="0.8" stop-color="#73E9FE"/>
</linearGradient>
<linearGradient id="paint2_linear_253_624" x1="45.802" y1="12.3571" x2="47.6968" y2="15.5238" gradientUnits="userSpaceOnUse">
<stop stop-color="#FFE98D"/>
<stop offset="0.13" stop-color="#FEE38F"/>
<stop offset="0.28" stop-color="#FED495"/>
<stop offset="0.45" stop-color="#FEBB9F"/>
<stop offset="0.64" stop-color="#FD99AD"/>
<stop offset="0.82" stop-color="#FC6DBF"/>
<stop offset="1" stop-color="#FC3DD3"/>
</linearGradient>
<linearGradient id="paint3_linear_253_624" x1="46.6308" y1="12.3493" x2="43.5008" y2="13.2618" gradientUnits="userSpaceOnUse">
<stop stop-color="#FFE98D"/>
<stop offset="0.13" stop-color="#FEE38F"/>
<stop offset="0.28" stop-color="#FED495"/>
<stop offset="0.45" stop-color="#FEBB9F"/>
<stop offset="0.64" stop-color="#FD99AD"/>
<stop offset="0.82" stop-color="#FC6DBF"/>
<stop offset="1" stop-color="#FC3DD3"/>
</linearGradient>
<linearGradient id="paint4_linear_253_624" x1="31.1226" y1="39.6949" x2="41.4705" y2="41.181" gradientUnits="userSpaceOnUse">
<stop stop-color="#5F39FF"/>
<stop offset="0.1" stop-color="#614FFE"/>
<stop offset="0.8" stop-color="#73E9FE"/>
</linearGradient>
<linearGradient id="paint5_linear_253_624" x1="12.8004" y1="33.0735" x2="48.8733" y2="43.3949" gradientUnits="userSpaceOnUse">
<stop stop-color="#5F39FF"/>
<stop offset="0.1" stop-color="#614FFE"/>
<stop offset="0.8" stop-color="#73E9FE"/>
</linearGradient>
<linearGradient id="paint6_linear_253_624" x1="12.2161" y1="33.7029" x2="19.4246" y2="34.8265" gradientUnits="userSpaceOnUse">
<stop stop-color="#5F39FF"/>
<stop offset="0.1" stop-color="#614FFE"/>
<stop offset="0.8" stop-color="#73E9FE"/>
</linearGradient>
<linearGradient id="paint7_linear_253_624" x1="15.7813" y1="19.5059" x2="15.9446" y2="19.5244" gradientUnits="userSpaceOnUse">
<stop stop-color="#5F39FF"/>
<stop offset="0.1" stop-color="#614FFE"/>
<stop offset="0.8" stop-color="#73E9FE"/>
</linearGradient>
<linearGradient id="paint8_linear_253_624" x1="6.82128" y1="20.7784" x2="17.6566" y2="22.8422" gradientUnits="userSpaceOnUse">
<stop stop-color="#5F39FF"/>
<stop offset="0.1" stop-color="#614FFE"/>
<stop offset="0.8" stop-color="#73E9FE"/>
</linearGradient>
<linearGradient id="paint9_linear_253_624" x1="7.54114" y1="17.5419" x2="8.99901" y2="18.273" gradientUnits="userSpaceOnUse">
<stop stop-color="#5F39FF"/>
<stop offset="0.1" stop-color="#614FFE"/>
<stop offset="0.8" stop-color="#73E9FE"/>
</linearGradient>
<linearGradient id="paint10_linear_253_624" x1="17.8117" y1="34.6992" x2="21.3703" y2="17.2569" gradientUnits="userSpaceOnUse">
<stop stop-color="#FFE98D"/>
<stop offset="0.13" stop-color="#FEE38F"/>
<stop offset="0.28" stop-color="#FED495"/>
<stop offset="0.45" stop-color="#FEBB9F"/>
<stop offset="0.64" stop-color="#FD99AD"/>
<stop offset="0.82" stop-color="#FC6DBF"/>
<stop offset="1" stop-color="#FC3DD3"/>
</linearGradient>
<linearGradient id="paint11_linear_253_624" x1="12.1843" y1="33.607" x2="15.3099" y2="18.2885" gradientUnits="userSpaceOnUse">
<stop stop-color="#FFE98D"/>
<stop offset="0.13" stop-color="#FEE38F"/>
<stop offset="0.28" stop-color="#FED495"/>
<stop offset="0.45" stop-color="#FEBB9F"/>
<stop offset="0.64" stop-color="#FD99AD"/>
<stop offset="0.82" stop-color="#FC6DBF"/>
<stop offset="1" stop-color="#FC3DD3"/>
</linearGradient>
<linearGradient id="paint12_linear_253_624" x1="15.5345" y1="16.6402" x2="17.86" y2="16.9821" gradientUnits="userSpaceOnUse">
<stop stop-color="#5F39FF"/>
<stop offset="0.1" stop-color="#614FFE"/>
<stop offset="0.8" stop-color="#73E9FE"/>
</linearGradient>
<linearGradient id="paint13_linear_253_624" x1="14.8988" y1="30.7987" x2="15.4796" y2="34.0096" gradientUnits="userSpaceOnUse">
<stop stop-color="#FFE98D"/>
<stop offset="0.13" stop-color="#FEE38F"/>
<stop offset="0.28" stop-color="#FED495"/>
<stop offset="0.45" stop-color="#FEBB9F"/>
<stop offset="0.64" stop-color="#FD99AD"/>
<stop offset="0.82" stop-color="#FC6DBF"/>
<stop offset="1" stop-color="#FC3DD3"/>
</linearGradient>
<linearGradient id="paint14_linear_253_624" x1="16.6607" y1="31.8467" x2="17.1954" y2="34.8155" gradientUnits="userSpaceOnUse">
<stop stop-color="#FFE98D"/>
<stop offset="0.13" stop-color="#FEE38F"/>
<stop offset="0.28" stop-color="#FED495"/>
<stop offset="0.45" stop-color="#FEBB9F"/>
<stop offset="0.64" stop-color="#FD99AD"/>
<stop offset="0.82" stop-color="#FC6DBF"/>
<stop offset="1" stop-color="#FC3DD3"/>
</linearGradient>
<linearGradient id="paint15_linear_253_624" x1="18.3576" y1="30.661" x2="19.3076" y2="35.9209" gradientUnits="userSpaceOnUse">
<stop stop-color="#FFE98D"/>
<stop offset="0.13" stop-color="#FEE38F"/>
<stop offset="0.28" stop-color="#FED495"/>
<stop offset="0.45" stop-color="#FEBB9F"/>
<stop offset="0.64" stop-color="#FD99AD"/>
<stop offset="0.82" stop-color="#FC6DBF"/>
<stop offset="1" stop-color="#FC3DD3"/>
</linearGradient>
<linearGradient id="paint16_linear_253_624" x1="20.449" y1="30.3546" x2="21.3798" y2="35.5112" gradientUnits="userSpaceOnUse">
<stop stop-color="#FFE98D"/>
<stop offset="0.13" stop-color="#FEE38F"/>
<stop offset="0.28" stop-color="#FED495"/>
<stop offset="0.45" stop-color="#FEBB9F"/>
<stop offset="0.64" stop-color="#FD99AD"/>
<stop offset="0.82" stop-color="#FC6DBF"/>
<stop offset="1" stop-color="#FC3DD3"/>
</linearGradient>
<linearGradient id="paint17_linear_253_624" x1="16.6069" y1="18.6382" x2="18.4279" y2="28.7252" gradientUnits="userSpaceOnUse">
<stop stop-color="#FFE98D"/>
<stop offset="0.13" stop-color="#FEE38F"/>
<stop offset="0.28" stop-color="#FED495"/>
<stop offset="0.45" stop-color="#FEBB9F"/>
<stop offset="0.64" stop-color="#FD99AD"/>
<stop offset="0.82" stop-color="#FC6DBF"/>
<stop offset="1" stop-color="#FC3DD3"/>
</linearGradient>
<linearGradient id="paint18_linear_253_624" x1="18.4647" y1="20.4515" x2="19.5722" y2="26.5778" gradientUnits="userSpaceOnUse">
<stop stop-color="#FFE98D"/>
<stop offset="0.13" stop-color="#FEE38F"/>
<stop offset="0.28" stop-color="#FED495"/>
<stop offset="0.45" stop-color="#FEBB9F"/>
<stop offset="0.64" stop-color="#FD99AD"/>
<stop offset="0.82" stop-color="#FC6DBF"/>
<stop offset="1" stop-color="#FC3DD3"/>
</linearGradient>
<linearGradient id="paint19_linear_253_624" x1="19.4717" y1="17.8956" x2="21.4947" y2="29.1037" gradientUnits="userSpaceOnUse">
<stop stop-color="#FFE98D"/>
<stop offset="0.13" stop-color="#FEE38F"/>
<stop offset="0.28" stop-color="#FED495"/>
<stop offset="0.45" stop-color="#FEBB9F"/>
<stop offset="0.64" stop-color="#FD99AD"/>
<stop offset="0.82" stop-color="#FC6DBF"/>
<stop offset="1" stop-color="#FC3DD3"/>
</linearGradient>
<linearGradient id="paint20_linear_253_624" x1="22.0483" y1="19.9545" x2="23.2418" y2="26.5647" gradientUnits="userSpaceOnUse">
<stop stop-color="#FFE98D"/>
<stop offset="0.13" stop-color="#FEE38F"/>
<stop offset="0.28" stop-color="#FED495"/>
<stop offset="0.45" stop-color="#FEBB9F"/>
<stop offset="0.64" stop-color="#FD99AD"/>
<stop offset="0.82" stop-color="#FC6DBF"/>
<stop offset="1" stop-color="#FC3DD3"/>
</linearGradient>
<radialGradient id="paint21_radial_253_624" cx="0" cy="0" r="1" gradientUnits="userSpaceOnUse" gradientTransform="translate(27.4405 16.2385) scale(1.05481 1.06497)">
<stop offset="0.31" stop-color="white"/>
<stop offset="0.9" stop-color="white" stop-opacity="0"/>
</radialGradient>
<radialGradient id="paint22_radial_253_624" cx="0" cy="0" r="1" gradientUnits="userSpaceOnUse" gradientTransform="translate(10.6612 29.5442) scale(0.585511 0.591108)">
<stop offset="0.31" stop-color="white"/>
<stop offset="0.9" stop-color="white" stop-opacity="0"/>
</radialGradient>
<radialGradient id="paint23_radial_253_624" cx="0" cy="0" r="1" gradientUnits="userSpaceOnUse" gradientTransform="translate(42.9666 31.8658) scale(0.58551 0.591109)">
<stop offset="0.31" stop-color="white"/>
<stop offset="0.9" stop-color="white" stop-opacity="0"/>
</radialGradient>
<radialGradient id="paint24_radial_253_624" cx="0" cy="0" r="1" gradientUnits="userSpaceOnUse" gradientTransform="translate(29.7934 39.3724) scale(0.365667 0.369189)">
<stop offset="0.31" stop-color="white"/>
<stop offset="0.9" stop-color="white" stop-opacity="0"/>
</radialGradient>
<radialGradient id="paint25_radial_253_624" cx="0" cy="0" r="1" gradientUnits="userSpaceOnUse" gradientTransform="translate(25.2649 12.7866) scale(0.365667 0.369189)">
<stop offset="0.31" stop-color="white"/>
<stop offset="0.9" stop-color="white" stop-opacity="0"/>
</radialGradient>
<radialGradient id="paint26_radial_253_624" cx="0" cy="0" r="1" gradientUnits="userSpaceOnUse" gradientTransform="translate(35.3839 16.8576) scale(0.585067 0.590702)">
<stop offset="0.31" stop-color="white"/>
<stop offset="0.9" stop-color="white" stop-opacity="0"/>
</radialGradient>
<radialGradient id="paint27_radial_253_624" cx="0" cy="0" r="1" gradientUnits="userSpaceOnUse" gradientTransform="translate(38.3809 22.0305) scale(1.8213 1.83884)">
<stop stop-color="white"/>
<stop offset="0.03" stop-color="white" stop-opacity="0.96"/>
<stop offset="0.18" stop-color="white" stop-opacity="0.71"/>
<stop offset="0.34" stop-color="white" stop-opacity="0.49"/>
<stop offset="0.49" stop-color="white" stop-opacity="0.32"/>
<stop offset="0.64" stop-color="white" stop-opacity="0.18"/>
<stop offset="0.78" stop-color="white" stop-opacity="0.08"/>
<stop offset="0.9" stop-color="white" stop-opacity="0.02"/>
<stop offset="1" stop-color="white" stop-opacity="0"/>
</radialGradient>
<radialGradient id="paint28_radial_253_624" cx="0" cy="0" r="1" gradientUnits="userSpaceOnUse" gradientTransform="translate(26.0159 41.349) scale(1.8213 1.83884)">
<stop stop-color="white"/>
<stop offset="0.03" stop-color="white" stop-opacity="0.96"/>
<stop offset="0.18" stop-color="white" stop-opacity="0.71"/>
<stop offset="0.34" stop-color="white" stop-opacity="0.49"/>
<stop offset="0.49" stop-color="white" stop-opacity="0.32"/>
<stop offset="0.64" stop-color="white" stop-opacity="0.18"/>
<stop offset="0.78" stop-color="white" stop-opacity="0.08"/>
<stop offset="0.9" stop-color="white" stop-opacity="0.02"/>
<stop offset="1" stop-color="white" stop-opacity="0"/>
</radialGradient>
<clipPath id="clip0_253_624">
<rect width="56" height="56" rx="28" fill="white"/>
</clipPath>
<clipPath id="clip1_253_624">
<rect width="42.5833" height="43.1667" fill="white" transform="translate(7.58325 6.41667)"/>
</clipPath>
</defs>
</svg>
