<svg width="56" height="56" viewBox="0 0 56 56" fill="none" xmlns="http://www.w3.org/2000/svg">
<g clip-path="url(#clip0_253_538)">
<g filter="url(#filter0_f_253_538)">
<path d="M56 0H0V56H56V0Z" fill="url(#paint0_radial_253_538)"/>
</g>
<g clip-path="url(#clip1_253_538)">
<g opacity="0.2">
<g style="mix-blend-mode:screen" opacity="0.5">
<path d="M46.0213 27.07C46.0213 36.5287 38.3342 44.1988 28.8511 44.1988C19.368 44.1988 11.6809 36.5302 11.6809 27.07C11.6809 17.6098 19.368 9.94127 28.8511 9.94127C38.3342 9.94127 46.0213 17.6098 46.0213 27.07Z" stroke="#FA1E42" stroke-width="1.22267" stroke-miterlimit="10"/>
</g>
<g style="mix-blend-mode:screen" opacity="0.5">
<path d="M45.223 27.07C45.223 36.0905 37.8933 43.4025 28.851 43.4025C19.8087 43.4025 12.479 36.0905 12.479 27.07C12.479 18.0496 19.8087 10.7361 28.851 10.7361C37.8933 10.7361 45.223 18.0496 45.223 27.0685V27.07Z" stroke="#FA1E42" stroke-width="0.63" stroke-miterlimit="10"/>
</g>
<g style="mix-blend-mode:screen" opacity="0.5">
<path d="M44.3608 27.07C44.3608 35.6151 37.4168 42.5424 28.8511 42.5424C20.2853 42.5424 13.3413 35.6151 13.3413 27.07C13.3413 18.525 20.2853 11.5962 28.8511 11.5962C37.4168 11.5962 44.3608 18.5235 44.3608 27.0685V27.07Z" fill="#FA1E42"/>
</g>
</g>
<g style="mix-blend-mode:screen" opacity="0.9">
<path style="mix-blend-mode:screen" opacity="0.9" d="M28.8511 15.7024C28.8511 16.8106 27.7893 16.8685 27.7893 16.8685C27.7893 16.8685 28.8511 16.928 28.8511 18.0362C28.8511 16.928 29.9129 16.8685 29.9129 16.8685C29.9129 16.8685 28.8511 16.8106 28.8511 15.7024Z" fill="url(#paint1_radial_253_538)"/>
<path style="mix-blend-mode:screen" opacity="0.9" d="M23.3812 20.4562C23.3812 21.0713 22.7915 21.1025 22.7915 21.1025C22.7915 21.1025 23.3812 21.1351 23.3812 21.7502C23.3812 21.1351 23.9694 21.1025 23.9694 21.1025C23.9694 21.1025 23.3812 21.0698 23.3812 20.4562Z" fill="url(#paint2_radial_253_538)"/>
<path style="mix-blend-mode:screen" opacity="0.9" d="M33.5807 39.2043C33.5807 39.8193 32.991 39.8505 32.991 39.8505C32.991 39.8505 33.5807 39.8832 33.5807 40.4982C33.5807 39.8832 34.1689 39.8505 34.1689 39.8505C34.1689 39.8505 33.5807 39.8178 33.5807 39.2043Z" fill="url(#paint3_radial_253_538)"/>
<path style="mix-blend-mode:screen" opacity="0.9" d="M44.7287 25.6602C44.7287 26.0435 44.3608 26.0643 44.3608 26.0643C44.3608 26.0643 44.7287 26.0851 44.7287 26.4684C44.7287 26.0851 45.0965 26.0643 45.0965 26.0643C45.0965 26.0643 44.7287 26.0435 44.7287 25.6602Z" fill="url(#paint4_radial_253_538)"/>
<path style="mix-blend-mode:screen" opacity="0.9" d="M13.3412 26.0643C13.3412 26.4491 12.9734 26.4684 12.9734 26.4684C12.9734 26.4684 13.3412 26.4892 13.3412 26.8725C13.3412 26.4877 13.709 26.4684 13.709 26.4684C13.709 26.4684 13.3412 26.4476 13.3412 26.0643Z" fill="url(#paint5_radial_253_538)"/>
<path style="mix-blend-mode:screen" opacity="0.9" d="M14.8141 15.2983C14.8141 15.9118 14.2258 15.946 14.2258 15.946C14.2258 15.946 14.8141 15.9787 14.8141 16.5937C14.8141 15.9787 15.4023 15.946 15.4023 15.946C15.4023 15.946 14.8141 15.9133 14.8141 15.2983Z" fill="url(#paint6_radial_253_538)"/>
<path style="mix-blend-mode:color-dodge" opacity="0.9" d="M25.3618 40.155C25.3618 41.3688 24.1987 41.4326 24.1987 41.4326C24.1987 41.4326 25.3618 41.498 25.3618 42.7117C25.3618 41.498 26.5248 41.4326 26.5248 41.4326C26.5248 41.4326 25.3618 41.3673 25.3618 40.155Z" fill="url(#paint7_radial_253_538)"/>
<path style="mix-blend-mode:color-dodge" opacity="0.9" d="M43.5476 17.6292C43.5476 18.4403 42.7703 18.4834 42.7703 18.4834C42.7703 18.4834 43.5476 18.5264 43.5476 19.3376C43.5476 18.5264 44.325 18.4834 44.325 18.4834C44.325 18.4834 43.5476 18.4403 43.5476 17.6292Z" fill="url(#paint8_radial_253_538)"/>
<path style="mix-blend-mode:color-dodge" opacity="0.9" d="M34.6097 22.2939C34.6097 23.1719 33.7668 23.2194 33.7668 23.2194C33.7668 23.2194 34.6097 23.2669 34.6097 24.1449C34.6097 23.2655 35.4526 23.2194 35.4526 23.2194C35.4526 23.2194 34.6097 23.1719 34.6097 22.2939Z" fill="url(#paint9_radial_253_538)"/>
</g>
<g style="mix-blend-mode:screen">
<path d="M39.5344 14.8006C40.2895 15.3161 41.3215 15.1245 41.8397 14.3713C42.3564 13.6181 42.1643 12.5886 41.4078 12.0716C40.6528 11.5546 39.6208 11.7477 39.1041 12.5009C38.7452 13.0239 38.7348 13.6745 39.0088 14.1989L31.6671 19.8263C31.3529 19.6585 30.9583 19.7387 30.7528 20.0388C30.65 20.1873 30.6187 20.3641 30.6411 20.5305L27.3664 22.5494C27.3232 22.5078 27.2785 22.4677 27.2279 22.432C26.7141 22.08 26.0112 22.2122 25.6583 22.7262C25.6047 22.8034 25.566 22.8866 25.5347 22.9713L14.6354 21.8794C14.5997 21.3951 14.3584 20.9316 13.9266 20.636C13.1716 20.1205 12.1396 20.3121 11.6213 21.0668C11.1046 21.82 11.2967 22.8495 12.0517 23.3665C12.8067 23.882 13.8387 23.6903 14.3569 22.9357C14.4627 22.7826 14.5312 22.6148 14.5788 22.4469L25.4766 23.5373C25.5228 23.8285 25.6806 24.1004 25.9412 24.2831L19.8684 40.5859C19.2444 40.4715 18.5817 40.7196 18.2005 41.2752C17.6838 42.0284 17.8759 43.0579 18.6309 43.5749C19.3859 44.0904 20.4179 43.8987 20.9361 43.1455C21.4529 42.3923 21.2608 41.3628 20.5057 40.8458C20.473 40.8221 20.4372 40.8087 20.403 40.7894L26.4788 24.4777C26.875 24.5163 27.28 24.3499 27.5213 23.9993C27.7238 23.7052 27.761 23.3501 27.6642 23.0337L30.9345 21.0163C31.2561 21.2361 31.6969 21.1544 31.9173 20.8336C32.035 20.6627 32.0603 20.4607 32.0156 20.2735L39.3543 14.6491C39.4108 14.7011 39.4674 14.7546 39.533 14.7991L39.5344 14.8006Z" fill="#FA1E42"/>
</g>
<path d="M20.9271 30.3264C18.4045 29.9729 16.5237 28.9939 13.5572 28.8394C10.5893 28.6834 10.3421 27.9243 10.0204 27.4236C9.69875 26.923 9.32795 27.0745 9.32795 27.0745C8.48657 26.1564 8.53571 23.8879 8.53571 23.8879C7.71964 27.2959 9.03011 28.3878 9.03011 28.3878C9.08075 28.9077 10.5387 28.9835 11.0345 29.7263C11.529 30.4705 12.4448 30.3576 13.5081 30.3264C14.5728 30.2952 20.3836 32.1552 21.9666 31.6085C23.5496 31.0648 20.9286 30.3264 20.9286 30.3264H20.9271Z" fill="url(#paint10_linear_253_538)"/>
<path style="mix-blend-mode:multiply" opacity="0.79" d="M20.9271 30.3264C19.8162 30.1705 18.8303 29.8941 17.8207 29.6208C17.2131 30.4705 16.19 30.7305 15.1848 30.6206C17.3531 31.1123 20.802 32.0111 21.965 31.61C23.548 31.0663 20.9271 30.3279 20.9271 30.3279V30.3264Z" fill="url(#paint11_linear_253_538)"/>
<path style="mix-blend-mode:multiply" opacity="0.3" d="M9.3265 27.0745C9.15674 27.483 9.14333 27.8916 9.14333 27.8916C9.14333 27.8916 8.69807 26.8249 8.67871 25.7122C8.79338 26.2084 8.99144 26.709 9.32501 27.0745H9.3265Z" fill="url(#paint12_linear_253_538)"/>
<path d="M21.2637 32.9366C18.7246 32.7316 16.677 33.2753 13.7478 32.7776C10.8171 32.2815 10.4106 32.9693 9.98914 33.3882C9.56621 33.8042 9.23561 33.5784 9.23561 33.5784C8.21553 34.29 7.77027 36.5139 7.77027 36.5139C7.71517 33.0094 9.23115 32.2324 9.23115 32.2324C9.39347 31.7348 10.8335 31.9814 11.4783 31.3634C12.1231 30.7454 12.9913 31.0544 14.0218 31.3173C15.0538 31.5803 21.1297 31.0365 22.5563 31.913C23.9829 32.791 21.2637 32.9381 21.2637 32.9381V32.9366Z" fill="url(#paint13_linear_253_538)"/>
<path style="mix-blend-mode:multiply" opacity="0.79" d="M21.2636 32.9366C20.1468 32.846 19.1237 32.9009 18.0783 32.9485C17.6703 31.9873 16.7291 31.5089 15.7224 31.3975C17.9458 31.3916 21.5064 31.2668 22.5548 31.913C23.9814 32.791 21.2621 32.9381 21.2621 32.9381L21.2636 32.9366Z" fill="url(#paint14_linear_253_538)"/>
<path style="mix-blend-mode:multiply" opacity="0.3" d="M9.23557 33.5784C9.15813 33.1431 9.23557 32.739 9.23557 32.739C9.23557 32.739 8.60564 33.4877 8.25122 34.8901C8.47609 34.388 8.79328 33.8859 9.23557 33.5784Z" fill="url(#paint15_linear_253_538)"/>
<path d="M21.487 34.5514C19.2682 34.7564 17.5884 35.5379 14.9883 35.5527C12.3882 35.5705 12.1425 36.2242 11.8416 36.6476C11.5408 37.071 11.2221 36.9269 11.2221 36.9269C10.4507 37.6949 10.4031 39.6782 10.4031 39.6782C9.82678 36.6669 11.0151 35.7666 11.0151 35.7666C11.0792 35.315 12.3569 35.3076 12.8185 34.6792C13.2802 34.0493 14.0754 34.183 15.0032 34.2528C15.9309 34.3241 21.0835 32.9321 22.4446 33.4729C23.8072 34.0122 21.4855 34.5514 21.4855 34.5514H21.487Z" fill="url(#paint16_linear_253_538)"/>
<path style="mix-blend-mode:multiply" opacity="0.79" d="M21.4871 34.5514C20.5102 34.6421 19.639 34.8441 18.7455 35.0432C18.2481 34.2766 17.365 34.0092 16.4819 34.0642C18.397 33.721 21.4454 33.0762 22.4461 33.4729C23.8087 34.0122 21.4871 34.5514 21.4871 34.5514Z" fill="url(#paint17_linear_253_538)"/>
<path style="mix-blend-mode:multiply" opacity="0.3" d="M11.2235 36.9284C11.091 36.5629 11.0969 36.2049 11.0969 36.2049C11.0969 36.2049 10.6666 36.9447 10.5728 38.2074C10.6904 37.741 10.8885 37.2596 11.2235 36.9284Z" fill="url(#paint18_linear_253_538)"/>
<path d="M24.7887 35.725C23.5229 37.5611 20.6786 35.3699 19.0211 37.3784C17.3651 39.3854 17.1403 41.3509 17.2698 41.8545C17.4009 42.3581 17.0867 42.5081 17.0867 42.5081C17.1775 43.5956 18.6652 44.9044 18.6652 44.9044C15.9921 43.4143 16.0666 41.9228 16.0666 41.9228C15.7613 41.5841 16.217 40.2441 16.3063 39.6989C16.4329 38.9279 17.389 37.1987 18.0382 36.5316C18.6875 35.8631 23.2935 34.997 24.5802 34.2958C25.8683 33.5976 24.7902 35.7264 24.7902 35.7264L24.7887 35.725Z" fill="url(#paint19_linear_253_538)"/>
<path style="mix-blend-mode:multiply" opacity="0.79" d="M24.5787 34.2944C23.7939 34.7238 21.7701 35.211 20.1648 35.6805C21.0375 35.7072 21.852 36.1395 22.6353 36.5198C23.4901 36.5525 24.2719 36.4738 24.7887 35.725C24.7887 35.725 25.8669 33.5962 24.5787 34.2944Z" fill="url(#paint20_linear_253_538)"/>
<path style="mix-blend-mode:multiply" opacity="0.3" d="M17.0865 42.5067C16.7232 42.3745 16.4521 42.1413 16.4521 42.1413C16.4521 42.1413 16.741 42.9465 17.6465 43.8289C17.365 43.4382 17.1253 42.9776 17.085 42.5067H17.0865Z" fill="url(#paint21_linear_253_538)"/>
<path d="M36.7764 30.3264C39.2991 29.9729 41.1784 28.9939 44.1478 28.8394C47.1157 28.6834 47.3629 27.9243 47.6846 27.4236C48.0063 26.923 48.3771 27.0745 48.3771 27.0745C49.2185 26.1564 49.1678 23.8879 49.1678 23.8879C49.9839 27.2959 48.6734 28.3878 48.6734 28.3878C48.6228 28.9077 47.1649 28.9835 46.6705 29.7263C46.1761 30.4705 45.2602 30.3576 44.197 30.3264C43.1337 30.2952 37.3214 32.1552 35.7384 31.6085C34.1554 31.0648 36.7779 30.3264 36.7779 30.3264H36.7764Z" fill="url(#paint22_linear_253_538)"/>
<path style="mix-blend-mode:multiply" opacity="0.79" d="M36.7764 30.3264C37.8873 30.1705 38.8732 29.8941 39.8813 29.6208C40.4889 30.4705 41.512 30.7305 42.5172 30.6206C40.3489 31.1123 36.9 32.0111 35.737 31.61C34.154 31.0663 36.7764 30.3279 36.7764 30.3279V30.3264Z" fill="url(#paint23_linear_253_538)"/>
<path style="mix-blend-mode:multiply" opacity="0.3" d="M48.3755 27.0745C48.5453 27.483 48.5587 27.8916 48.5587 27.8916C48.5587 27.8916 49.0039 26.8249 49.0233 25.7122C48.9086 26.2084 48.7106 26.709 48.377 27.0745H48.3755Z" fill="url(#paint24_linear_253_538)"/>
<path d="M36.4385 32.9366C38.9775 32.7316 41.0251 33.2753 43.9543 32.7776C46.885 32.2815 47.2916 32.9693 47.7145 33.3882C48.1374 33.8042 48.4665 33.5784 48.4665 33.5784C49.4866 34.29 49.9319 36.5139 49.9319 36.5139C49.987 33.0094 48.471 32.2324 48.471 32.2324C48.3087 31.7348 46.8687 31.9814 46.2238 31.3634C45.579 30.7454 44.7108 31.0544 43.6788 31.3173C42.6468 31.5803 36.571 31.0365 35.1444 31.913C33.7177 32.791 36.437 32.9381 36.437 32.9381L36.4385 32.9366Z" fill="url(#paint25_linear_253_538)"/>
<path style="mix-blend-mode:multiply" opacity="0.79" d="M36.4384 32.9366C37.5553 32.846 38.5799 32.9009 39.6238 32.9485C40.0318 31.9873 40.973 31.5089 41.9782 31.3975C39.7563 31.3916 36.1942 31.2668 35.1458 31.913C33.7192 32.791 36.4384 32.9381 36.4384 32.9381V32.9366Z" fill="url(#paint26_linear_253_538)"/>
<path style="mix-blend-mode:multiply" opacity="0.3" d="M48.4666 33.5784C48.544 33.1431 48.4666 32.739 48.4666 32.739C48.4666 32.739 49.0965 33.4877 49.4509 34.8901C49.226 34.388 48.9088 33.8859 48.4666 33.5784Z" fill="url(#paint27_linear_253_538)"/>
<path d="M36.0943 34.5648C38.3117 34.7713 39.993 35.5528 42.5931 35.5676C45.1917 35.584 45.4389 36.2391 45.7383 36.6625C46.0406 37.0859 46.3577 36.9403 46.3577 36.9403C47.1291 37.7069 47.1768 39.6916 47.1768 39.6916C47.7531 36.6818 46.5647 35.7815 46.5647 35.7815C46.4992 35.3284 45.223 35.324 44.7614 34.6926C44.2997 34.0627 43.5045 34.1964 42.5767 34.2662C41.649 34.3361 36.4964 32.9456 35.1353 33.4863C33.7742 34.0256 36.0943 34.5648 36.0943 34.5648Z" fill="url(#paint28_linear_253_538)"/>
<path style="mix-blend-mode:multiply" opacity="0.79" d="M36.0943 34.5648C37.0697 34.6569 37.9439 34.8575 38.8359 35.058C39.3318 34.2915 40.2164 34.0241 41.0994 34.0775C39.1859 33.7344 36.1375 33.0867 35.1368 33.4863C33.7757 34.0255 36.0958 34.5648 36.0958 34.5648H36.0943Z" fill="url(#paint29_linear_253_538)"/>
<path style="mix-blend-mode:multiply" opacity="0.3" d="M46.3577 36.9417C46.4902 36.5778 46.4842 36.2197 46.4842 36.2197C46.4842 36.2197 46.9146 36.9596 47.0084 38.2223C46.8923 37.7558 46.6927 37.276 46.3577 36.9417Z" fill="url(#paint30_linear_253_538)"/>
<path d="M33.4823 36.0296C34.8374 37.8004 37.5685 35.468 39.3243 37.3889C41.08 39.3112 41.4032 41.2603 41.2989 41.7714C41.1932 42.2794 41.5164 42.4146 41.5164 42.4146C41.4791 43.5021 40.0599 44.8866 40.0599 44.8866C42.6541 43.2644 42.5052 41.7788 42.5052 41.7788C42.7926 41.4223 42.2729 40.1105 42.1552 39.5682C41.9899 38.8047 40.949 37.1259 40.2669 36.4916C39.5849 35.8573 34.9416 35.2229 33.6207 34.5901C32.3013 33.9572 33.4837 36.0296 33.4837 36.0296H33.4823Z" fill="url(#paint31_linear_253_538)"/>
<path style="mix-blend-mode:multiply" opacity="0.79" d="M33.6193 34.5914C34.4264 34.9792 36.4711 35.3654 38.0973 35.7532C37.2276 35.8245 36.4353 36.2969 35.6714 36.7158C34.8181 36.7916 34.0348 36.753 33.4808 36.031C33.4808 36.031 32.2984 33.9586 33.6178 34.5914H33.6193Z" fill="url(#paint32_linear_253_538)"/>
<path style="mix-blend-mode:multiply" opacity="0.3" d="M41.5149 42.4146C41.8723 42.2661 42.1299 42.018 42.1299 42.018C42.1299 42.018 41.8813 42.8365 41.0205 43.7635C41.2826 43.3595 41.4985 42.887 41.5149 42.4146Z" fill="url(#paint33_linear_253_538)"/>
<path d="M17.9605 17.1077C18.1958 11.9037 23.1681 10.3424 25.32 11.3095L23.8725 11.9052L23.7236 12.8337L23.0549 12.7223L23.1294 13.6433H22.6097L22.5725 14.7293L22.09 14.7679C21.8055 15.4736 21.9798 16.5878 21.9798 16.5878C22.8703 16.5878 23.7221 15.7336 23.7221 15.7336L23.9455 15.1007L24.3907 15.3993L24.5754 14.7679L24.9462 14.9893L25.1681 13.6433L25.5776 14.0742V13.3923C26.8389 16.105 23.9306 18.5606 21.7683 18.5963C19.603 18.6349 17.959 17.1077 17.959 17.1077H17.9605Z" fill="url(#paint34_linear_253_538)"/>
<path style="mix-blend-mode:multiply" opacity="0.5" d="M18.2332 15.4216C18.0858 15.9356 17.9875 16.4942 17.9607 17.1077C17.9607 17.1077 19.6047 18.6334 21.77 18.5963C22.117 18.5903 22.4818 18.5161 22.8467 18.3957C21.84 16.6947 20.1215 15.7633 18.2332 15.4231V15.4216Z" fill="url(#paint35_linear_253_538)"/>
<path style="mix-blend-mode:screen" d="M23.9903 11.0421C21.5897 10.9856 18.1482 12.7966 17.9517 17.1062C17.9517 17.1062 19.5972 18.6319 21.761 18.5948C21.7684 18.5948 21.7759 18.5948 21.7818 18.5948C19.7193 18.5383 18.175 17.1077 18.175 17.1077C18.3642 12.9303 21.6061 11.1 23.9903 11.0436V11.0421Z" fill="url(#paint36_linear_253_538)"/>
<path d="M22.312 26.9987C21.0268 25.5607 17.9591 25.4121 17.9591 25.4121C17.3649 24.4212 17.8593 23.3798 17.9591 22.9817C18.6024 23.0812 18.5518 21.9418 19.3932 21.6937C20.2346 21.4471 22.4102 21.1975 22.312 19.4624C22.2137 17.7272 20.0559 15.3978 17.6717 16.3382C15.2875 17.2815 14.5459 22.0889 14.5459 22.0889C13.3099 22.9802 12.8155 25.8073 15.9308 27.2438C15.9308 27.2438 15.6955 28.1367 16.3567 28.3848C17.0179 28.6329 20.5786 27.8024 21.618 28.8364L22.3105 26.9958L22.312 26.9987Z" fill="url(#paint37_linear_253_538)"/>
<path style="mix-blend-mode:multiply" opacity="0.5" d="M20.7706 26.0093C19.5956 27.2557 17.7208 28.3892 16.3582 28.3863C17.0193 28.6344 20.58 27.8039 21.6194 28.8379L22.3119 26.9972C21.9187 26.5575 21.3573 26.2381 20.7706 26.0078V26.0093Z" fill="url(#paint38_linear_253_538)"/>
<path style="mix-blend-mode:multiply" opacity="0.5" d="M17.9606 22.9817C16.811 22.2894 14.8572 22.1394 14.8572 22.1394C17.2682 22.5613 17.7149 23.8879 17.7149 23.8879L17.9606 22.9817Z" fill="url(#paint39_linear_253_538)"/>
<path style="mix-blend-mode:multiply" opacity="0.5" d="M15.9323 27.2468C16.5384 26.1564 17.7506 25.5607 17.7506 25.5607C16.6128 25.6855 15.3708 26.9497 15.3708 26.9497L15.9323 27.2453V27.2468Z" fill="url(#paint40_linear_253_538)"/>
<path d="M39.8158 17.1077C39.5805 11.9037 34.6096 10.3424 32.4563 11.3095L33.9038 11.9052L34.0527 12.8337L34.7198 12.7223L34.6454 13.6433H35.1651L35.2023 14.7293L35.6848 14.7679C35.9692 15.4736 35.7965 16.5878 35.7965 16.5878C34.906 16.5878 34.0527 15.7336 34.0527 15.7336L33.8293 15.1007L33.384 15.3993L33.1994 14.7679L32.8286 14.9893L32.6067 13.6433L32.1986 14.0742V13.3923C30.9373 16.105 33.8442 18.5606 36.008 18.5963C38.1717 18.6349 39.8173 17.1077 39.8173 17.1077H39.8158Z" fill="url(#paint41_linear_253_538)"/>
<path style="mix-blend-mode:multiply" opacity="0.5" d="M34.8599 18.372C35.247 18.5071 35.6372 18.5888 36.0065 18.5948C38.1703 18.6334 39.8158 17.1062 39.8158 17.1062C39.789 16.5165 39.6952 15.9802 39.5582 15.484C37.3393 15.6816 35.7072 16.5491 34.8614 18.372H34.8599Z" fill="url(#paint42_linear_253_538)"/>
<path style="mix-blend-mode:screen" d="M33.7862 11.0421C36.1852 10.9856 39.6282 12.7966 39.8233 17.1062C39.8233 17.1062 38.1777 18.6319 36.014 18.5948C36.0065 18.5948 36.0006 18.5948 35.9931 18.5948C38.0556 18.5383 39.5999 17.1077 39.5999 17.1077C39.4093 12.9303 36.1688 11.1 33.7847 11.0436L33.7862 11.0421Z" fill="url(#paint43_linear_253_538)"/>
<path d="M35.4629 26.9987C36.7496 25.5607 39.8158 25.4121 39.8158 25.4121C40.41 24.4212 39.9156 23.3798 39.8158 22.9817C39.1725 23.0812 39.2231 21.9418 38.3817 21.6937C37.5403 21.4471 35.3647 21.1975 35.4629 19.4624C35.5612 17.7272 37.719 15.3978 40.1032 16.3382C42.4874 17.2815 43.2305 22.0889 43.2305 22.0889C44.4665 22.9802 44.9609 25.8073 41.8441 27.2438C41.8441 27.2438 42.0794 28.1367 41.4167 28.3848C40.7555 28.6329 37.1934 27.8024 36.1554 28.8364L35.4629 26.9958V26.9987Z" fill="url(#paint44_linear_253_538)"/>
<path style="mix-blend-mode:multiply" opacity="0.5" d="M37.0042 26.0093C38.1777 27.2557 40.054 28.3892 41.4166 28.3863C40.7554 28.6344 37.1933 27.8039 36.1554 28.8379L35.4629 26.9972C35.856 26.5575 36.4175 26.2381 37.0042 26.0078V26.0093Z" fill="url(#paint45_linear_253_538)"/>
<path style="mix-blend-mode:multiply" opacity="0.5" d="M39.8157 22.9817C40.9653 22.2894 42.9191 22.1394 42.9191 22.1394C40.5081 22.5613 40.0614 23.8879 40.0614 23.8879L39.8157 22.9817Z" fill="url(#paint46_linear_253_538)"/>
<path style="mix-blend-mode:multiply" opacity="0.5" d="M41.8439 27.2468C41.2378 26.1564 40.0242 25.5607 40.0242 25.5607C41.1619 25.6855 42.4054 26.9497 42.4054 26.9497L41.8439 27.2453V27.2468Z" fill="url(#paint47_linear_253_538)"/>
<path d="M33.2054 24.4168C31.7207 23.3397 30.0394 24.6872 28.9538 24.6872C27.8682 24.6872 26.1869 23.3412 24.7037 24.4168C23.219 25.4953 17.3636 30.2239 18.0009 32.1537C18.5698 33.8785 19.6688 33.6913 21.1163 34.7683C22.9763 36.1514 24.8377 38.0039 28.9538 38.0039C33.0699 38.0039 34.9314 36.1514 36.7914 34.7683C38.2403 33.6913 39.3393 33.8785 39.9082 32.1537C40.5441 30.2239 34.6901 25.4953 33.2069 24.4168H33.2054Z" fill="url(#paint48_linear_253_538)"/>
<path style="mix-blend-mode:multiply" opacity="0.7" d="M33.2054 24.3782C31.7207 23.3516 30.0394 24.6352 28.9538 24.6352C27.8682 24.6352 26.1869 23.3516 24.7037 24.3782C23.219 25.4062 17.3636 29.9134 18.0009 31.7526C18.5698 33.3971 19.6688 33.2189 21.1163 34.2454C22.9763 35.5616 24.8377 37.328 28.9538 37.328C33.0699 37.328 34.9314 35.5616 36.7914 34.2454C38.2403 33.2189 39.3393 33.3971 39.9082 31.7526C40.5441 29.9134 34.6901 25.4062 33.2069 24.3782H33.2054Z" fill="url(#paint49_linear_253_538)"/>
<path d="M33.2054 24.2712C31.7207 23.2803 30.0394 24.5193 28.9538 24.5193C27.8682 24.5193 26.1869 23.2788 24.7037 24.2712C23.219 25.2636 17.3636 29.6119 18.0009 31.3857C18.5698 32.9723 19.6688 32.7999 21.1163 33.7893C22.9763 35.061 24.8377 36.7635 28.9538 36.7635C33.0699 36.7635 34.9314 35.061 36.7914 33.7893C38.2403 32.7999 39.3393 32.9723 39.9082 31.3857C40.5441 29.6134 34.6901 25.2636 33.2069 24.2712H33.2054Z" fill="url(#paint50_linear_253_538)"/>
<g style="mix-blend-mode:screen">
<path d="M24.7633 24.5683C26.248 23.5789 27.9293 24.8164 29.0134 24.8164C30.0975 24.8164 31.7803 23.5774 33.265 24.5683C34.4683 25.3735 38.5546 28.3907 39.7087 30.4468C38.8166 28.3967 34.3804 25.1165 33.1161 24.2712C31.6329 23.2803 29.9501 24.5193 28.866 24.5193C27.7819 24.5193 26.0991 23.2788 24.6159 24.2712C23.1312 25.2636 17.2772 29.6119 17.9131 31.3857C17.9831 31.5803 18.0605 31.7481 18.1454 31.8952C18.1171 31.8269 18.0888 31.7585 18.062 31.6843C17.4261 29.9105 23.2816 25.5607 24.7648 24.5698L24.7633 24.5683Z" fill="#73E9FE"/>
</g>
<path style="mix-blend-mode:multiply" opacity="0.3" d="M34.7184 25.3616C34.7869 29.1439 32.364 32.4776 28.5101 33.5427C26.108 34.1622 23.7075 34.3033 21.3948 33.9825C23.1669 35.2259 25.0433 36.7635 28.9553 36.7635C33.0714 36.7635 34.9329 35.061 36.7929 33.7893C38.2418 32.7999 39.3408 32.9723 39.9097 31.3857C40.4041 30.0055 36.9686 27.0656 34.7199 25.3616H34.7184Z" fill="url(#paint51_linear_253_538)"/>
<g style="mix-blend-mode:multiply" opacity="0.6">
<path d="M26.3566 24.7793C26.3566 24.8937 26.1631 24.9843 25.9248 24.9843C25.6865 24.9843 25.4929 24.8922 25.4929 24.7793C25.4929 24.6664 25.6865 24.5757 25.9248 24.5757C26.1631 24.5757 26.3566 24.6679 26.3566 24.7793Z" fill="#FFBD17"/>
</g>
<g style="mix-blend-mode:multiply" opacity="0.6">
<path d="M32.2375 24.7793C32.2375 24.8937 32.0439 24.9843 31.8057 24.9843C31.5674 24.9843 31.3723 24.8922 31.3723 24.7793C31.3723 24.6664 31.5674 24.5757 31.8057 24.5757C32.0439 24.5757 32.2375 24.6679 32.2375 24.7793Z" fill="#FFBD17"/>
</g>
<path d="M29.7848 33.724C29.7848 33.724 29.7669 33.7165 29.7341 33.7032C29.7014 33.6898 29.6522 33.6735 29.5897 33.6527C29.5257 33.6333 29.4482 33.614 29.3589 33.5947C29.268 33.5769 29.1668 33.562 29.0536 33.5502C28.9419 33.5398 28.8198 33.5338 28.6917 33.5368C28.5651 33.5412 28.4311 33.5546 28.3015 33.5858C28.236 33.6007 28.1735 33.6244 28.1139 33.6512C28.0558 33.6794 28.0022 33.7136 27.9546 33.7537C27.9099 33.7953 27.8742 33.8428 27.8503 33.8978C27.825 33.9513 27.8161 34.0122 27.8116 34.0731C27.8086 34.1979 27.831 34.336 27.898 34.4266C27.962 34.5232 28.0737 34.5782 28.1943 34.5826C28.315 34.5901 28.4386 34.5529 28.5354 34.4935C28.583 34.4623 28.6232 34.4252 28.656 34.385C28.6887 34.3449 28.7081 34.3004 28.723 34.2558C28.7453 34.1652 28.7289 34.0731 28.6962 33.9973C28.6828 33.9587 28.6575 33.926 28.6411 33.8933C28.6187 33.8636 28.5994 33.8339 28.58 33.8101C28.5592 33.7864 28.5398 33.7641 28.5234 33.7462C28.5056 33.7284 28.4907 33.7136 28.4788 33.7017C28.4534 33.6779 28.44 33.6645 28.44 33.6645C28.44 33.6645 28.4564 33.6749 28.4847 33.6943C28.4996 33.7047 28.5175 33.7165 28.5383 33.7299C28.5592 33.7462 28.5815 33.7641 28.6068 33.7849C28.6321 33.8057 28.6575 33.8339 28.6858 33.8621C28.7111 33.8933 28.7409 33.926 28.7632 33.9676C28.8123 34.0463 28.8496 34.1548 28.8332 34.2766C28.8228 34.336 28.8019 34.3984 28.7662 34.4549C28.7289 34.5113 28.6813 34.5618 28.6232 34.6064C28.5071 34.6896 28.3567 34.7505 28.1884 34.7475C28.105 34.7475 28.0186 34.7297 27.9382 34.6926C27.8563 34.6569 27.7863 34.596 27.7372 34.5262C27.7238 34.5084 27.7118 34.492 27.7029 34.4727C27.694 34.4534 27.6821 34.437 27.6746 34.4162C27.6582 34.3761 27.6433 34.3331 27.6374 34.3004C27.618 34.2231 27.6121 34.1459 27.6121 34.0642C27.6195 33.9839 27.6329 33.9022 27.6701 33.825C27.7059 33.7492 27.7595 33.6794 27.8235 33.6229C27.8876 33.568 27.9605 33.5264 28.0365 33.4937C28.1124 33.464 28.1869 33.4402 28.2628 33.4268C28.4132 33.3957 28.5592 33.3927 28.6947 33.3971C28.8317 33.4031 28.9583 33.4209 29.0729 33.4432C29.3038 33.4892 29.4854 33.5591 29.6061 33.617C29.6671 33.6467 29.7118 33.6735 29.7416 33.6928C29.7714 33.7121 29.7863 33.7225 29.7863 33.7225L29.7848 33.724Z" fill="url(#paint52_linear_253_538)"/>
<path d="M27.886 34.8916C27.886 34.8916 27.9024 34.9005 27.9336 34.9169C27.9649 34.9332 28.0126 34.954 28.0736 34.9793C28.1347 35.003 28.2106 35.0298 28.2985 35.055C28.3863 35.0803 28.4876 35.1041 28.5978 35.1249C28.708 35.1457 28.8286 35.1605 28.9567 35.1679C29.0833 35.1754 29.2188 35.1724 29.3498 35.1516C29.4169 35.1412 29.4809 35.1249 29.5434 35.1026C29.6045 35.0788 29.6611 35.0491 29.7117 35.0134C29.7609 34.9763 29.8011 34.9303 29.8309 34.8783C29.8621 34.8277 29.8755 34.7668 29.8859 34.7059C29.9008 34.5826 29.8919 34.443 29.8338 34.3464C29.7787 34.2454 29.6745 34.1815 29.5539 34.1652C29.4332 34.1474 29.3081 34.1741 29.2069 34.2261C29.1563 34.2528 29.1131 34.287 29.0773 34.3226C29.0416 34.3598 29.0163 34.4029 28.9984 34.446C28.9671 34.5351 28.9746 34.6272 28.9984 34.7059C29.0088 34.746 29.0297 34.7802 29.0431 34.8144C29.0624 34.8456 29.0788 34.8768 29.0967 34.902C29.1146 34.9273 29.1309 34.9511 29.1458 34.9704C29.1622 34.9897 29.1756 35.006 29.186 35.0179C29.2084 35.0446 29.2203 35.058 29.2203 35.058C29.2203 35.058 29.2054 35.0461 29.1786 35.0238C29.1652 35.012 29.1473 34.9986 29.128 34.9822C29.1101 34.9644 29.0892 34.9436 29.0654 34.9213C29.0416 34.8976 29.0207 34.8693 28.9939 34.8381C28.9716 34.8055 28.9463 34.7698 28.9269 34.7267C28.8867 34.6435 28.8584 34.5336 28.8867 34.4133C28.9031 34.3553 28.9299 34.2959 28.9716 34.2424C29.0133 34.1904 29.0669 34.1429 29.128 34.1043C29.2516 34.03 29.4079 33.9825 29.5747 33.9988C29.6581 34.0062 29.743 34.03 29.8189 34.0731C29.8964 34.1162 29.9604 34.1815 30.0036 34.2543C30.0155 34.2721 30.0259 34.2915 30.0334 34.3108C30.0408 34.3301 30.0512 34.3479 30.0572 34.3687C30.0691 34.4103 30.081 34.4549 30.084 34.4875C30.0959 34.5663 30.0944 34.6435 30.0855 34.7238C30.0706 34.8025 30.0498 34.8842 30.0051 34.957C29.9619 35.0298 29.9023 35.0952 29.8338 35.1457C29.7638 35.1962 29.6879 35.2303 29.6105 35.2571C29.533 35.2794 29.4556 35.2972 29.3781 35.3046C29.2248 35.3239 29.0788 35.3135 28.9448 35.2972C28.8093 35.2808 28.6857 35.2526 28.5725 35.2199C28.3476 35.1561 28.1719 35.0714 28.0572 35.003C28.0007 34.9689 27.9575 34.9377 27.9307 34.9169C27.9039 34.8946 27.889 34.8827 27.889 34.8827L27.886 34.8916Z" fill="url(#paint53_linear_253_538)"/>
</g>
</g>
<rect x="0.233333" y="0.233333" width="55.5333" height="55.5333" rx="27.7667" stroke="white" stroke-opacity="0.2" stroke-width="0.466667"/>
<defs>
<filter id="filter0_f_253_538" x="-20.7407" y="-20.7407" width="97.4815" height="97.4815" filterUnits="userSpaceOnUse" color-interpolation-filters="sRGB">
<feFlood flood-opacity="0" result="BackgroundImageFix"/>
<feBlend mode="normal" in="SourceGraphic" in2="BackgroundImageFix" result="shape"/>
<feGaussianBlur stdDeviation="10.3704" result="effect1_foregroundBlur_253_538"/>
</filter>
<radialGradient id="paint0_radial_253_538" cx="0" cy="0" r="1" gradientUnits="userSpaceOnUse" gradientTransform="translate(28 28) scale(38.6579)">
<stop stop-color="#FA1E42"/>
<stop offset="1" stop-opacity="0"/>
</radialGradient>
<radialGradient id="paint1_radial_253_538" cx="0" cy="0" r="1" gradientUnits="userSpaceOnUse" gradientTransform="translate(28.8511 16.8685) scale(1.11688 1.11419)">
<stop offset="0.31" stop-color="white"/>
<stop offset="0.9" stop-color="white" stop-opacity="0"/>
</radialGradient>
<radialGradient id="paint2_radial_253_538" cx="0" cy="0" r="1" gradientUnits="userSpaceOnUse" gradientTransform="translate(23.3812 21.1025) scale(0.619498 0.618002)">
<stop offset="0.31" stop-color="white"/>
<stop offset="0.9" stop-color="white" stop-opacity="0"/>
</radialGradient>
<radialGradient id="paint3_radial_253_538" cx="0" cy="0" r="1" gradientUnits="userSpaceOnUse" gradientTransform="translate(33.5792 39.8505) scale(0.619498 0.618003)">
<stop offset="0.31" stop-color="white"/>
<stop offset="0.9" stop-color="white" stop-opacity="0"/>
</radialGradient>
<radialGradient id="paint4_radial_253_538" cx="0" cy="0" r="1" gradientUnits="userSpaceOnUse" gradientTransform="translate(44.7287 26.0643) scale(0.387186 0.386252)">
<stop offset="0.31" stop-color="white"/>
<stop offset="0.9" stop-color="white" stop-opacity="0"/>
</radialGradient>
<radialGradient id="paint5_radial_253_538" cx="0" cy="0" r="1" gradientUnits="userSpaceOnUse" gradientTransform="translate(13.3412 26.4684) scale(0.387186 0.386252)">
<stop offset="0.31" stop-color="white"/>
<stop offset="0.9" stop-color="white" stop-opacity="0"/>
</radialGradient>
<radialGradient id="paint6_radial_253_538" cx="0" cy="0" r="1" gradientUnits="userSpaceOnUse" gradientTransform="translate(14.8141 15.9445) scale(0.619497 0.618002)">
<stop offset="0.31" stop-color="white"/>
<stop offset="0.9" stop-color="white" stop-opacity="0"/>
</radialGradient>
<radialGradient id="paint7_radial_253_538" cx="0" cy="0" r="1" gradientUnits="userSpaceOnUse" gradientTransform="translate(25.3618 41.4326) scale(1.92848 1.92383)">
<stop stop-color="white"/>
<stop offset="0.03" stop-color="white" stop-opacity="0.96"/>
<stop offset="0.18" stop-color="white" stop-opacity="0.71"/>
<stop offset="0.34" stop-color="white" stop-opacity="0.49"/>
<stop offset="0.49" stop-color="white" stop-opacity="0.32"/>
<stop offset="0.64" stop-color="white" stop-opacity="0.18"/>
<stop offset="0.78" stop-color="white" stop-opacity="0.08"/>
<stop offset="0.9" stop-color="white" stop-opacity="0.02"/>
<stop offset="1" stop-color="white" stop-opacity="0"/>
</radialGradient>
<radialGradient id="paint8_radial_253_538" cx="0" cy="0" r="1" gradientUnits="userSpaceOnUse" gradientTransform="translate(43.5476 18.4834) scale(1.28814 1.28503)">
<stop stop-color="white"/>
<stop offset="0.03" stop-color="white" stop-opacity="0.96"/>
<stop offset="0.18" stop-color="white" stop-opacity="0.71"/>
<stop offset="0.34" stop-color="white" stop-opacity="0.49"/>
<stop offset="0.49" stop-color="white" stop-opacity="0.32"/>
<stop offset="0.64" stop-color="white" stop-opacity="0.18"/>
<stop offset="0.78" stop-color="white" stop-opacity="0.08"/>
<stop offset="0.9" stop-color="white" stop-opacity="0.02"/>
<stop offset="1" stop-color="white" stop-opacity="0"/>
</radialGradient>
<radialGradient id="paint9_radial_253_538" cx="0" cy="0" r="1" gradientUnits="userSpaceOnUse" gradientTransform="translate(34.6097 23.2209) scale(1.39685 1.39348)">
<stop stop-color="white"/>
<stop offset="0.03" stop-color="white" stop-opacity="0.96"/>
<stop offset="0.18" stop-color="white" stop-opacity="0.71"/>
<stop offset="0.34" stop-color="white" stop-opacity="0.49"/>
<stop offset="0.49" stop-color="white" stop-opacity="0.32"/>
<stop offset="0.64" stop-color="white" stop-opacity="0.18"/>
<stop offset="0.78" stop-color="white" stop-opacity="0.08"/>
<stop offset="0.9" stop-color="white" stop-opacity="0.02"/>
<stop offset="1" stop-color="white" stop-opacity="0"/>
</radialGradient>
<linearGradient id="paint10_linear_253_538" x1="20.4759" y1="29.7144" x2="9.29407" y2="26.8387" gradientUnits="userSpaceOnUse">
<stop stop-color="#5F39FF"/>
<stop offset="0.11" stop-color="#614FFE"/>
<stop offset="0.91" stop-color="#73E9FE"/>
</linearGradient>
<linearGradient id="paint11_linear_253_538" x1="21.3292" y1="31.3114" x2="16.068" y2="29.9578" gradientUnits="userSpaceOnUse">
<stop stop-color="#5F39FF"/>
<stop offset="0.11" stop-color="#614FFE"/>
<stop offset="0.91" stop-color="#73E9FE"/>
</linearGradient>
<linearGradient id="paint12_linear_253_538" x1="9.24758" y1="26.8873" x2="8.52405" y2="26.7008" gradientUnits="userSpaceOnUse">
<stop stop-color="#5F39FF"/>
<stop offset="0.11" stop-color="#614FFE"/>
<stop offset="0.91" stop-color="#73E9FE"/>
</linearGradient>
<linearGradient id="paint13_linear_253_538" x1="20.6851" y1="33.4329" x2="9.15097" y2="33.7965" gradientUnits="userSpaceOnUse">
<stop stop-color="#5F39FF"/>
<stop offset="0.11" stop-color="#614FFE"/>
<stop offset="0.91" stop-color="#73E9FE"/>
</linearGradient>
<linearGradient id="paint14_linear_253_538" x1="21.8663" y1="32.0689" x2="16.4371" y2="32.2407" gradientUnits="userSpaceOnUse">
<stop stop-color="#5F39FF"/>
<stop offset="0.11" stop-color="#614FFE"/>
<stop offset="0.91" stop-color="#73E9FE"/>
</linearGradient>
<linearGradient id="paint15_linear_253_538" x1="9.10433" y1="33.8118" x2="8.313" y2="33.8365" gradientUnits="userSpaceOnUse">
<stop stop-color="#5F39FF"/>
<stop offset="0.11" stop-color="#614FFE"/>
<stop offset="0.91" stop-color="#73E9FE"/>
</linearGradient>
<linearGradient id="paint16_linear_253_538" x1="21.0864" y1="35.0585" x2="11.2026" y2="37.1209" gradientUnits="userSpaceOnUse">
<stop stop-color="#5F39FF"/>
<stop offset="0.11" stop-color="#614FFE"/>
<stop offset="0.91" stop-color="#73E9FE"/>
</linearGradient>
<linearGradient id="paint17_linear_253_538" x1="21.8974" y1="33.6992" x2="17.2459" y2="34.6698" gradientUnits="userSpaceOnUse">
<stop stop-color="#5F39FF"/>
<stop offset="0.11" stop-color="#614FFE"/>
<stop offset="0.91" stop-color="#73E9FE"/>
</linearGradient>
<linearGradient id="paint18_linear_253_538" x1="11.1667" y1="37.1336" x2="10.4865" y2="37.2756" gradientUnits="userSpaceOnUse">
<stop stop-color="#5F39FF"/>
<stop offset="0.11" stop-color="#614FFE"/>
<stop offset="0.91" stop-color="#73E9FE"/>
</linearGradient>
<linearGradient id="paint19_linear_253_538" x1="22.0784" y1="34.6959" x2="17.6434" y2="42.9935" gradientUnits="userSpaceOnUse">
<stop stop-color="#5F39FF"/>
<stop offset="0.11" stop-color="#614FFE"/>
<stop offset="0.91" stop-color="#73E9FE"/>
</linearGradient>
<linearGradient id="paint20_linear_253_538" x1="24.3821" y1="35.389" x2="20.7041" y2="35.0293" gradientUnits="userSpaceOnUse">
<stop stop-color="#5F39FF"/>
<stop offset="0.11" stop-color="#614FFE"/>
<stop offset="0.91" stop-color="#73E9FE"/>
</linearGradient>
<linearGradient id="paint21_linear_253_538" x1="17.2152" y1="42.7024" x2="16.8863" y2="43.3184" gradientUnits="userSpaceOnUse">
<stop stop-color="#5F39FF"/>
<stop offset="0.11" stop-color="#614FFE"/>
<stop offset="0.91" stop-color="#73E9FE"/>
</linearGradient>
<linearGradient id="paint22_linear_253_538" x1="37.2261" y1="29.7144" x2="48.408" y2="26.8387" gradientUnits="userSpaceOnUse">
<stop stop-color="#5F39FF"/>
<stop offset="0.11" stop-color="#614FFE"/>
<stop offset="0.91" stop-color="#73E9FE"/>
</linearGradient>
<linearGradient id="paint23_linear_253_538" x1="36.3728" y1="31.3114" x2="41.634" y2="29.9578" gradientUnits="userSpaceOnUse">
<stop stop-color="#5F39FF"/>
<stop offset="0.11" stop-color="#614FFE"/>
<stop offset="0.91" stop-color="#73E9FE"/>
</linearGradient>
<linearGradient id="paint24_linear_253_538" x1="48.4544" y1="26.8873" x2="49.1794" y2="26.7008" gradientUnits="userSpaceOnUse">
<stop stop-color="#5F39FF"/>
<stop offset="0.11" stop-color="#614FFE"/>
<stop offset="0.91" stop-color="#73E9FE"/>
</linearGradient>
<linearGradient id="paint25_linear_253_538" x1="37.0135" y1="33.4335" x2="48.5491" y2="33.7968" gradientUnits="userSpaceOnUse">
<stop stop-color="#5F39FF"/>
<stop offset="0.11" stop-color="#614FFE"/>
<stop offset="0.91" stop-color="#73E9FE"/>
</linearGradient>
<linearGradient id="paint26_linear_253_538" x1="35.8337" y1="32.0692" x2="41.2629" y2="32.241" gradientUnits="userSpaceOnUse">
<stop stop-color="#5F39FF"/>
<stop offset="0.11" stop-color="#614FFE"/>
<stop offset="0.91" stop-color="#73E9FE"/>
</linearGradient>
<linearGradient id="paint27_linear_253_538" x1="48.5943" y1="33.8124" x2="49.3856" y2="33.8371" gradientUnits="userSpaceOnUse">
<stop stop-color="#5F39FF"/>
<stop offset="0.11" stop-color="#614FFE"/>
<stop offset="0.91" stop-color="#73E9FE"/>
</linearGradient>
<linearGradient id="paint28_linear_253_538" x1="36.4953" y1="35.0692" x2="46.3806" y2="37.133" gradientUnits="userSpaceOnUse">
<stop stop-color="#5F39FF"/>
<stop offset="0.11" stop-color="#614FFE"/>
<stop offset="0.91" stop-color="#73E9FE"/>
</linearGradient>
<linearGradient id="paint29_linear_253_538" x1="35.6858" y1="33.7099" x2="40.3373" y2="34.6805" gradientUnits="userSpaceOnUse">
<stop stop-color="#5F39FF"/>
<stop offset="0.11" stop-color="#614FFE"/>
<stop offset="0.91" stop-color="#73E9FE"/>
</linearGradient>
<linearGradient id="paint30_linear_253_538" x1="46.4163" y1="37.1442" x2="47.0965" y2="37.2862" gradientUnits="userSpaceOnUse">
<stop stop-color="#5F39FF"/>
<stop offset="0.11" stop-color="#614FFE"/>
<stop offset="0.91" stop-color="#73E9FE"/>
</linearGradient>
<linearGradient id="paint31_linear_253_538" x1="36.1455" y1="34.8516" x2="40.9928" y2="42.916" gradientUnits="userSpaceOnUse">
<stop stop-color="#5F39FF"/>
<stop offset="0.11" stop-color="#614FFE"/>
<stop offset="0.91" stop-color="#73E9FE"/>
</linearGradient>
<linearGradient id="paint32_linear_253_538" x1="33.875" y1="35.6739" x2="37.5286" y2="35.1293" gradientUnits="userSpaceOnUse">
<stop stop-color="#5F39FF"/>
<stop offset="0.11" stop-color="#614FFE"/>
<stop offset="0.91" stop-color="#73E9FE"/>
</linearGradient>
<linearGradient id="paint33_linear_253_538" x1="41.4057" y1="42.6042" x2="41.7652" y2="43.2008" gradientUnits="userSpaceOnUse">
<stop stop-color="#5F39FF"/>
<stop offset="0.11" stop-color="#614FFE"/>
<stop offset="0.91" stop-color="#73E9FE"/>
</linearGradient>
<linearGradient id="paint34_linear_253_538" x1="20.708" y1="11.4714" x2="22.941" y2="18.0662" gradientUnits="userSpaceOnUse">
<stop stop-color="#FFE98D"/>
<stop offset="0.13" stop-color="#FEE38F"/>
<stop offset="0.28" stop-color="#FED495"/>
<stop offset="0.45" stop-color="#FEBB9F"/>
<stop offset="0.64" stop-color="#FD99AD"/>
<stop offset="0.82" stop-color="#FC6DBF"/>
<stop offset="1" stop-color="#FC3DD3"/>
</linearGradient>
<linearGradient id="paint35_linear_253_538" x1="19.4037" y1="14.811" x2="20.7886" y2="18.9029" gradientUnits="userSpaceOnUse">
<stop stop-color="#FFE98D"/>
<stop offset="0.13" stop-color="#FEE38F"/>
<stop offset="0.28" stop-color="#FED495"/>
<stop offset="0.45" stop-color="#FEBB9F"/>
<stop offset="0.64" stop-color="#FD99AD"/>
<stop offset="0.82" stop-color="#FC6DBF"/>
<stop offset="1" stop-color="#FC3DD3"/>
</linearGradient>
<linearGradient id="paint36_linear_253_538" x1="20.1497" y1="11.6571" x2="22.3827" y2="18.2534" gradientUnits="userSpaceOnUse">
<stop stop-color="#FFE98D"/>
<stop offset="0.13" stop-color="#FEE38F"/>
<stop offset="0.28" stop-color="#FED495"/>
<stop offset="0.45" stop-color="#FEBB9F"/>
<stop offset="0.64" stop-color="#FD99AD"/>
<stop offset="0.82" stop-color="#FC6DBF"/>
<stop offset="1" stop-color="#FC3DD3"/>
</linearGradient>
<linearGradient id="paint37_linear_253_538" x1="16.0247" y1="16.2342" x2="20.2534" y2="28.7282" gradientUnits="userSpaceOnUse">
<stop stop-color="#FFE98D"/>
<stop offset="0.14" stop-color="#EAE99D"/>
<stop offset="1" stop-color="#73E9FE"/>
</linearGradient>
<linearGradient id="paint38_linear_253_538" x1="18.9255" y1="26.4862" x2="19.8774" y2="29.2998" gradientUnits="userSpaceOnUse">
<stop stop-color="#FFE98D"/>
<stop offset="0.13" stop-color="#FEE38F"/>
<stop offset="0.28" stop-color="#FED495"/>
<stop offset="0.45" stop-color="#FEBB9F"/>
<stop offset="0.64" stop-color="#FD99AD"/>
<stop offset="0.82" stop-color="#FC6DBF"/>
<stop offset="1" stop-color="#FC3DD3"/>
</linearGradient>
<linearGradient id="paint39_linear_253_538" x1="16.0798" y1="21.5972" x2="16.9101" y2="24.0481" gradientUnits="userSpaceOnUse">
<stop stop-color="#FFE98D"/>
<stop offset="0.13" stop-color="#FEE38F"/>
<stop offset="0.28" stop-color="#FED495"/>
<stop offset="0.45" stop-color="#FEBB9F"/>
<stop offset="0.64" stop-color="#FD99AD"/>
<stop offset="0.82" stop-color="#FC6DBF"/>
<stop offset="1" stop-color="#FC3DD3"/>
</linearGradient>
<linearGradient id="paint40_linear_253_538" x1="16.4401" y1="25.9009" x2="16.7826" y2="26.9116" gradientUnits="userSpaceOnUse">
<stop stop-color="#FFE98D"/>
<stop offset="0.13" stop-color="#FEE38F"/>
<stop offset="0.28" stop-color="#FED495"/>
<stop offset="0.45" stop-color="#FEBB9F"/>
<stop offset="0.64" stop-color="#FD99AD"/>
<stop offset="0.82" stop-color="#FC6DBF"/>
<stop offset="1" stop-color="#FC3DD3"/>
</linearGradient>
<linearGradient id="paint41_linear_253_538" x1="37.0668" y1="11.4714" x2="34.8352" y2="18.0662" gradientUnits="userSpaceOnUse">
<stop stop-color="#FFE98D"/>
<stop offset="0.13" stop-color="#FEE38F"/>
<stop offset="0.28" stop-color="#FED495"/>
<stop offset="0.45" stop-color="#FEBB9F"/>
<stop offset="0.64" stop-color="#FD99AD"/>
<stop offset="0.82" stop-color="#FC6DBF"/>
<stop offset="1" stop-color="#FC3DD3"/>
</linearGradient>
<linearGradient id="paint42_linear_253_538" x1="36.8985" y1="16.0143" x2="37.6503" y2="18.2349" gradientUnits="userSpaceOnUse">
<stop stop-color="#FFE98D"/>
<stop offset="0.13" stop-color="#FEE38F"/>
<stop offset="0.28" stop-color="#FED495"/>
<stop offset="0.45" stop-color="#FEBB9F"/>
<stop offset="0.64" stop-color="#FD99AD"/>
<stop offset="0.82" stop-color="#FC6DBF"/>
<stop offset="1" stop-color="#FC3DD3"/>
</linearGradient>
<linearGradient id="paint43_linear_253_538" x1="37.6253" y1="11.6571" x2="35.3937" y2="18.2534" gradientUnits="userSpaceOnUse">
<stop stop-color="#FFE98D"/>
<stop offset="0.13" stop-color="#FEE38F"/>
<stop offset="0.28" stop-color="#FED495"/>
<stop offset="0.45" stop-color="#FEBB9F"/>
<stop offset="0.64" stop-color="#FD99AD"/>
<stop offset="0.82" stop-color="#FC6DBF"/>
<stop offset="1" stop-color="#FC3DD3"/>
</linearGradient>
<linearGradient id="paint44_linear_253_538" x1="41.7502" y1="16.2342" x2="37.5215" y2="28.7282" gradientUnits="userSpaceOnUse">
<stop stop-color="#FFE98D"/>
<stop offset="0.14" stop-color="#EAE99D"/>
<stop offset="1" stop-color="#73E9FE"/>
</linearGradient>
<linearGradient id="paint45_linear_253_538" x1="38.8508" y1="26.4862" x2="37.8974" y2="29.2998" gradientUnits="userSpaceOnUse">
<stop stop-color="#FFE98D"/>
<stop offset="0.13" stop-color="#FEE38F"/>
<stop offset="0.28" stop-color="#FED495"/>
<stop offset="0.45" stop-color="#FEBB9F"/>
<stop offset="0.64" stop-color="#FD99AD"/>
<stop offset="0.82" stop-color="#FC6DBF"/>
<stop offset="1" stop-color="#FC3DD3"/>
</linearGradient>
<linearGradient id="paint46_linear_253_538" x1="41.695" y1="21.5972" x2="40.8662" y2="24.0481" gradientUnits="userSpaceOnUse">
<stop stop-color="#FFE98D"/>
<stop offset="0.13" stop-color="#FEE38F"/>
<stop offset="0.28" stop-color="#FED495"/>
<stop offset="0.45" stop-color="#FEBB9F"/>
<stop offset="0.64" stop-color="#FD99AD"/>
<stop offset="0.82" stop-color="#FC6DBF"/>
<stop offset="1" stop-color="#FC3DD3"/>
</linearGradient>
<linearGradient id="paint47_linear_253_538" x1="41.3346" y1="25.9009" x2="40.9936" y2="26.9116" gradientUnits="userSpaceOnUse">
<stop stop-color="#FFE98D"/>
<stop offset="0.13" stop-color="#FEE38F"/>
<stop offset="0.28" stop-color="#FED495"/>
<stop offset="0.45" stop-color="#FEBB9F"/>
<stop offset="0.64" stop-color="#FD99AD"/>
<stop offset="0.82" stop-color="#FC6DBF"/>
<stop offset="1" stop-color="#FC3DD3"/>
</linearGradient>
<linearGradient id="paint48_linear_253_538" x1="28.9538" y1="39.9991" x2="28.9538" y2="25.8459" gradientUnits="userSpaceOnUse">
<stop stop-color="#5F39FF"/>
<stop offset="0.11" stop-color="#614FFE"/>
<stop offset="0.91" stop-color="#73E9FE"/>
</linearGradient>
<linearGradient id="paint49_linear_253_538" x1="28.9538" y1="39.231" x2="28.9538" y2="25.7404" gradientUnits="userSpaceOnUse">
<stop stop-color="#5F39FF"/>
<stop offset="0.11" stop-color="#614FFE"/>
<stop offset="0.91" stop-color="#73E9FE"/>
</linearGradient>
<linearGradient id="paint50_linear_253_538" x1="28.9538" y1="41.6481" x2="28.9538" y2="22.5167" gradientUnits="userSpaceOnUse">
<stop stop-color="#5F39FF"/>
<stop offset="0.08" stop-color="#614FFE"/>
<stop offset="0.67" stop-color="#73E9FE"/>
<stop offset="1" stop-color="#FFE98D"/>
</linearGradient>
<linearGradient id="paint51_linear_253_538" x1="30.6753" y1="38.3887" x2="30.6753" y2="26.865" gradientUnits="userSpaceOnUse">
<stop stop-color="#5F39FF"/>
<stop offset="0.11" stop-color="#614FFE"/>
<stop offset="0.91" stop-color="#73E9FE"/>
</linearGradient>
<linearGradient id="paint52_linear_253_538" x1="27.6121" y1="34.0716" x2="29.7848" y2="34.0716" gradientUnits="userSpaceOnUse">
<stop stop-color="#FFE98D"/>
<stop offset="0.13" stop-color="#FEE38F"/>
<stop offset="0.28" stop-color="#FED495"/>
<stop offset="0.45" stop-color="#FEBB9F"/>
<stop offset="0.64" stop-color="#FD99AD"/>
<stop offset="0.82" stop-color="#FC6DBF"/>
<stop offset="1" stop-color="#FC3DD3"/>
</linearGradient>
<linearGradient id="paint53_linear_253_538" x1="27.886" y1="34.6643" x2="30.09" y2="34.6643" gradientUnits="userSpaceOnUse">
<stop stop-color="#FFE98D"/>
<stop offset="0.13" stop-color="#FEE38F"/>
<stop offset="0.28" stop-color="#FED495"/>
<stop offset="0.45" stop-color="#FEBB9F"/>
<stop offset="0.64" stop-color="#FD99AD"/>
<stop offset="0.82" stop-color="#FC6DBF"/>
<stop offset="1" stop-color="#FC3DD3"/>
</linearGradient>
<clipPath id="clip0_253_538">
<rect width="56" height="56" rx="28" fill="white"/>
</clipPath>
<clipPath id="clip1_253_538">
<rect width="43.8667" height="42.9333" fill="white" transform="translate(6.06665 6.53334)"/>
</clipPath>
</defs>
</svg>
