<svg width="56" height="56" viewBox="0 0 56 56" fill="none" xmlns="http://www.w3.org/2000/svg">
<g clip-path="url(#clip0_253_703)">
<g filter="url(#filter0_f_253_703)">
<path d="M56 0H0V56H56V0Z" fill="url(#paint0_radial_253_703)"/>
</g>
<g opacity="0.2">
<g style="mix-blend-mode:screen" opacity="0.5">
<path d="M46.996 28.2012C46.996 38.4509 38.7537 46.7624 28.5859 46.7624C18.418 46.7624 10.1758 38.4525 10.1758 28.2012C10.1758 17.9499 18.418 9.64009 28.5859 9.64009C38.7537 9.64009 46.996 17.9499 46.996 28.2012Z" stroke="#FC3DD3" stroke-width="1.22267" stroke-miterlimit="10"/>
</g>
<g style="mix-blend-mode:screen" opacity="0.5">
<path d="M46.1402 28.2012C46.1402 37.976 38.2812 45.8995 28.586 45.8995C18.8908 45.8995 11.0317 37.976 11.0317 28.2012C11.0317 18.4264 18.8908 10.5029 28.586 10.5029C38.2812 10.5029 46.1402 18.428 46.1402 28.2012Z" stroke="#FC3DD3" stroke-width="0.63" stroke-miterlimit="10"/>
</g>
<g style="mix-blend-mode:screen" opacity="0.5">
<path d="M45.2156 28.2012C45.2156 37.4609 37.7701 44.9674 28.5858 44.9674C19.4015 44.9674 11.9561 37.4609 11.9561 28.2012C11.9561 18.9416 19.4015 11.435 28.5858 11.435C37.7701 11.435 45.2156 18.9416 45.2156 28.2012Z" fill="#FC3DD3"/>
</g>
</g>
<g style="mix-blend-mode:screen" opacity="0.9">
<path style="mix-blend-mode:screen" opacity="0.9" d="M18.8094 15.8829C18.8094 17.0839 17.6709 17.1466 17.6709 17.1466C17.6709 17.1466 18.8094 17.211 18.8094 18.4119C18.8094 17.211 19.9478 17.1466 19.9478 17.1466C19.9478 17.1466 18.8094 17.0839 18.8094 15.8829Z" fill="url(#paint1_radial_253_703)"/>
<path style="mix-blend-mode:screen" opacity="0.9" d="M22.7212 21.0343C22.7212 21.7008 22.0889 21.7346 22.0889 21.7346C22.0889 21.7346 22.7212 21.77 22.7212 22.4365C22.7212 21.77 23.3519 21.7346 23.3519 21.7346C23.3519 21.7346 22.7212 21.6992 22.7212 21.0343Z" fill="url(#paint2_radial_253_703)"/>
<path style="mix-blend-mode:screen" opacity="0.9" d="M42.2011 36.9715C42.2011 37.6379 41.5688 37.6718 41.5688 37.6718C41.5688 37.6718 42.2011 37.7072 42.2011 38.3736C42.2011 37.7072 42.8318 37.6718 42.8318 37.6718C42.8318 37.6718 42.2011 37.6363 42.2011 36.9715Z" fill="url(#paint3_radial_253_703)"/>
<path style="mix-blend-mode:screen" opacity="0.9" d="M32.5409 40.0511C32.5409 40.4664 32.1465 40.4889 32.1465 40.4889C32.1465 40.4889 32.5409 40.5115 32.5409 40.9268C32.5409 40.5115 32.9353 40.4889 32.9353 40.4889C32.9353 40.4889 32.5409 40.4664 32.5409 40.0511Z" fill="url(#paint4_radial_253_703)"/>
<path style="mix-blend-mode:screen" opacity="0.9" d="M20.3675 26.2823C20.3675 26.6993 19.9731 26.7202 19.9731 26.7202C19.9731 26.7202 20.3675 26.7427 20.3675 27.1581C20.3675 26.7427 20.7619 26.7202 20.7619 26.7202C20.7619 26.7202 20.3675 26.6976 20.3675 26.2823Z" fill="url(#paint5_radial_253_703)"/>
<path style="mix-blend-mode:screen" opacity="0.9" d="M37.5755 10.1649C37.5755 10.8297 36.9448 10.8668 36.9448 10.8668C36.9448 10.8668 37.5755 10.9022 37.5755 11.5686C37.5755 10.9022 38.2062 10.8668 38.2062 10.8668C38.2062 10.8668 37.5755 10.8313 37.5755 10.1649Z" fill="url(#paint6_radial_253_703)"/>
<path style="mix-blend-mode:color-dodge" opacity="0.9" d="M43.3237 20.2133C43.3237 21.5269 42.0767 21.5978 42.0767 21.5978C42.0767 21.5978 43.3237 21.6686 43.3237 22.9838C43.3237 21.6686 44.5707 21.5978 44.5707 21.5978C44.5707 21.5978 43.3237 21.5269 43.3237 20.2133Z" fill="url(#paint7_radial_253_703)"/>
<path style="mix-blend-mode:color-dodge" opacity="0.9" d="M12.7465 32.1259C12.7465 33.4396 11.4995 33.5104 11.4995 33.5104C11.4995 33.5104 12.7465 33.5812 12.7465 34.8964C12.7465 33.5812 13.9936 33.5104 13.9936 33.5104C13.9936 33.5104 12.7465 33.4396 12.7465 32.1259Z" fill="url(#paint8_radial_253_703)"/>
<path style="mix-blend-mode:color-dodge" opacity="0.9" d="M26.7177 42.1068C26.7177 43.2691 25.616 43.3302 25.616 43.3302C25.616 43.3302 26.7177 43.393 26.7177 44.5553C26.7177 43.393 27.821 43.3302 27.821 43.3302C27.821 43.3302 26.7177 43.2675 26.7177 42.1068Z" fill="url(#paint9_radial_253_703)"/>
</g>
<g style="mix-blend-mode:screen" opacity="0.8">
<path d="M48.2175 25.9588C48.0913 25.2343 47.4063 24.7514 46.6894 24.8786C46.1593 24.9719 45.7617 25.3744 45.6388 25.8686L37.1219 24.8963C37.0628 24.5759 36.7595 24.3618 36.4385 24.4182C36.2373 24.4536 36.0872 24.5936 36.0106 24.7675L33.1653 24.4343C33.1637 24.4198 33.1653 24.4069 33.1621 24.3924C33.0918 23.9884 32.7102 23.7195 32.311 23.7903C32.2328 23.8048 32.1609 23.8338 32.0939 23.8692L31.0273 22.6635C31.0847 22.5605 31.1135 22.4429 31.0927 22.3174C31.0432 22.0292 30.7702 21.8376 30.486 21.8875C30.4093 21.9004 30.3407 21.9326 30.2816 21.9745L28.8733 20.9378C28.8972 20.8605 28.9068 20.78 28.8925 20.6963C28.843 20.4081 28.5699 20.2166 28.2857 20.2665C28.2011 20.281 28.1276 20.3212 28.0638 20.3711L24.6292 18.0948C24.6388 18.0385 24.6436 17.9805 24.634 17.9226C24.5845 17.6344 24.3115 17.4429 24.0273 17.4944C23.9347 17.5105 23.858 17.5572 23.7894 17.6135L18.0125 14.7126C18.0827 14.5066 18.1099 14.2828 18.0699 14.0526C17.9438 13.3282 17.2588 12.8452 16.5419 12.9724C15.825 13.0996 15.3444 13.7886 15.4705 14.513C15.5966 15.2374 16.2816 15.7204 16.9985 15.5932C17.3658 15.5288 17.6692 15.3147 17.8624 15.0265L23.6073 17.9097C23.5946 17.9725 23.5914 18.0385 23.6025 18.1061C23.652 18.3943 23.9251 18.5858 24.2093 18.5343C24.3099 18.5166 24.3929 18.4635 24.4632 18.3991L27.8722 20.6609C27.8546 20.7301 27.8498 20.8041 27.8626 20.8798C27.9121 21.168 28.1851 21.3595 28.4693 21.3096C28.546 21.2967 28.6146 21.2646 28.6753 21.2227L30.0836 22.2562C30.0597 22.3335 30.0485 22.4156 30.0628 22.5009C30.1123 22.7874 30.3854 22.9806 30.6696 22.9291C30.7063 22.9227 30.7367 22.9033 30.7702 22.8889L31.8352 24.0962C31.7729 24.188 31.733 24.2942 31.7154 24.4069L30.5355 24.5083C30.4381 24.2942 30.2161 24.1606 29.9766 24.2025C29.7738 24.2379 29.6222 24.3908 29.5679 24.5775L27.8578 24.6774C27.7652 24.4568 27.5384 24.3151 27.2941 24.3586C27.1425 24.386 27.0227 24.4761 26.9461 24.5985L17.1391 22.3109C17.1502 22.195 17.1518 22.0759 17.1311 21.9536C17.0049 21.2291 16.3199 20.7462 15.603 20.8734C14.8845 21.0005 14.4055 21.6895 14.5316 22.414C14.6578 23.1384 15.3428 23.6213 16.0597 23.4941C16.5355 23.4104 16.9027 23.0756 17.0608 22.649L26.8678 24.9365C26.8678 24.9478 26.8646 24.9575 26.8678 24.9687C26.9189 25.2569 27.1904 25.4485 27.4746 25.3986C27.6774 25.3615 27.829 25.2102 27.8833 25.0235L29.5934 24.9253C29.6876 25.1458 29.9128 25.2875 30.1586 25.244C30.3678 25.207 30.5243 25.0492 30.5738 24.8544L31.7442 24.7514C31.8575 25.0943 32.2024 25.3132 32.5665 25.2488C32.8331 25.2022 33.0391 25.0122 33.1269 24.7739L35.9611 25.1007C35.9611 25.1007 35.9611 25.1056 35.9611 25.1072C36.017 25.4324 36.3251 25.6481 36.6461 25.5917C36.8521 25.5547 37.0037 25.4114 37.0788 25.2295L45.6052 26.2115C45.6052 26.2807 45.6084 26.3483 45.6196 26.4176C45.7457 27.1404 46.4307 27.6249 47.1477 27.4977C47.8662 27.3706 48.3452 26.68 48.2191 25.9572L48.2175 25.9588Z" fill="#FC3DD3"/>
</g>
<path d="M33.0696 17.6425C32.5491 16.9084 31.8258 16.4625 31.8258 16.4625C31.4473 14.2603 29.0219 13.9995 27.6184 13.6695C25.5427 13.1801 26.2788 11.7715 25.902 11.8133C25.5251 11.8552 25.1499 13.5004 26.6971 14.4711C28.2443 15.4419 29.5217 15.9473 29.3445 16.6653C29.0171 16.588 29.3221 16.9502 29.0475 16.9181C30.451 18.0433 31.441 17.6827 33.0696 17.6441V17.6425Z" fill="url(#paint10_linear_253_703)"/>
<g style="mix-blend-mode:multiply" opacity="0.2">
<path d="M31.8241 16.4625C31.7267 15.8958 31.492 15.458 31.1742 15.1151C30.3375 14.5677 29.2709 15.4741 28.1069 15.3098C28.9324 15.8008 29.4625 16.1856 29.3428 16.6653C29.0155 16.588 29.3204 16.9502 29.0458 16.9181C30.4493 18.0433 31.4393 17.6827 33.0679 17.6441C32.5474 16.91 31.8241 16.4641 31.8241 16.4641V16.4625Z" fill="#FC3DD3"/>
</g>
<path d="M18.9897 34.2074C14.7281 32.9212 14.4487 32.3819 15.9512 29.0754C17.4537 25.7688 12.4783 25.6287 11.6161 26.6912C10.5942 29.1092 7.9692 26.0312 7 26.9407C8.64302 23.903 11.3351 25.8895 12.4671 25.6465C13.5992 25.4034 16.9204 25.2118 16.9299 27.7038C16.9395 30.1958 15.1049 30.6739 15.9336 32.0583C16.7623 33.4428 19.258 33.3108 19.258 33.3108L18.9881 34.2074H18.9897Z" fill="url(#paint11_linear_253_703)"/>
<path d="M12.2947 25.7672C13.4268 25.5241 16.7479 25.3325 16.7575 27.8261C16.7671 30.3181 14.9325 30.7963 15.7612 32.1807C16.5899 33.5651 19.0855 33.4331 19.0855 33.4331L18.8636 34.1704C18.9067 34.1833 18.9434 34.1962 18.9881 34.2091L19.258 33.3124C19.258 33.3124 16.7623 33.4444 15.9336 32.06C15.1049 30.6755 16.9395 30.1974 16.93 27.7054C16.9204 25.2134 13.5976 25.405 12.4672 25.6481C11.5331 25.8477 9.54358 24.5421 7.95166 25.772C9.51165 24.7562 11.3942 25.9604 12.2947 25.7688V25.7672Z" fill="#73E9FE"/>
<path d="M42.1484 28.9144C46.129 28.483 47.1701 30.9524 46.4356 32.9904C45.7011 35.0284 44.9043 39.288 44.7207 40.3376C44.5371 41.3872 44.2912 42.8682 43.3731 42.3756C42.455 41.883 41.3517 40.5855 41.5975 39.5359C41.8418 38.4847 43.3938 38.7536 43.7212 37.5591C44.0469 36.3646 44.783 34.2654 44.1092 34.2654C43.4354 34.2654 41.4347 37.4432 40.4543 35.6692C39.4739 33.8967 42.1484 28.9144 42.1484 28.9144Z" fill="url(#paint12_linear_253_703)"/>
<path d="M42.7024 38.5668C42.2186 38.7954 41.7268 38.9821 41.5975 39.5359C41.3532 40.5855 42.4549 41.883 43.373 42.3756C44.074 42.7523 44.3822 41.9812 44.5706 41.128C43.6173 40.6048 42.894 39.7613 42.7008 38.5684L42.7024 38.5668Z" fill="url(#paint13_linear_253_703)"/>
<g style="mix-blend-mode:multiply" opacity="0.3">
<path d="M42.3449 39.6084C42.5652 39.0723 44.0709 38.7053 44.0182 36.524C43.9128 36.8942 43.8027 37.2564 43.7196 37.5607C43.5648 38.1257 43.1352 38.3624 42.7009 38.5684C42.2171 38.797 41.7254 38.9837 41.596 39.5375C41.3517 40.5871 42.4535 41.8846 43.3716 42.3772C43.7675 42.5913 44.0949 42.1905 44.2897 41.8605C43.0474 41.5095 42.1213 40.146 42.3417 39.6084H42.3449ZM42.8542 39.1673C42.8271 39.09 42.8015 39.0111 42.7808 38.929C42.8031 39.0111 42.8287 39.0884 42.8542 39.1673Z" fill="#5F39FF"/>
</g>
<g style="mix-blend-mode:multiply" opacity="0.5">
<path d="M44.5451 29.0689C43.908 28.879 43.1176 28.8114 42.1484 28.916C42.1484 28.916 39.4739 33.8984 40.4543 35.6708C41.3548 37.3015 43.1176 34.7516 43.9192 34.3282C42.4757 32.5654 42.7871 30.2103 44.5451 29.0705V29.0689Z" fill="#5F39FF"/>
</g>
<path d="M25.8587 37.6347C24.9166 39.7243 23.8899 39.5536 23.197 42.2146C22.678 44.2108 26.2291 46.5499 25.5122 48.01C24.8607 49.3381 22.5024 48.8857 22.4657 48.3191C22.3858 47.1117 22.5327 46.3663 22.2198 45.481C21.9052 44.5956 19.0184 41.7478 20.0227 39.2783C21.027 36.8105 23.6009 36.4306 23.6009 36.4306L25.8603 37.6331L25.8587 37.6347Z" fill="url(#paint14_linear_253_703)"/>
<path d="M22.4353 47.2469C22.4369 47.5689 22.4385 47.9182 22.4656 48.3191C22.5024 48.8857 24.8607 49.3381 25.5122 48.01C25.7213 47.585 25.5665 47.0843 25.2567 46.5386C24.4456 47.1777 23.438 47.3306 22.4353 47.2453V47.2469Z" fill="url(#paint15_linear_253_703)"/>
<g style="mix-blend-mode:multiply" opacity="0.5">
<path d="M23.1396 39.6921C23.5532 39.6921 24.3068 39.0079 25.1211 39.0482C25.3734 38.6248 25.6193 38.1644 25.8588 37.6347L23.5995 36.4322C23.5995 36.4322 21.0256 36.8121 20.0212 39.28C19.3586 40.9107 20.3917 42.704 21.2619 43.9903C21.0575 42.2774 21.9373 40.5002 23.1396 39.6937V39.6921Z" fill="#5F39FF"/>
</g>
<path d="M31.9791 15.458C29.8139 14.9509 28.8399 15.3936 28.6212 16.8182C28.4008 18.2429 26.456 20.2037 25.8908 20.6464C25.3256 21.0891 25.2633 22.4494 26.6445 22.6715C26.6445 22.6715 26.9893 23.4619 27.4284 23.5263C27.8675 23.5891 28.2811 23.0064 29.5217 22.5427C30.1684 22.2997 31.631 22.1403 32.1164 21.3708C32.1164 21.3708 32.4613 24.4085 28.1182 26.849C25.0318 28.5828 17.6566 29.2959 16.9045 32.6282C16.1509 35.9621 17.1344 38.6199 16.2563 40.6451C15.3781 42.6702 14.4025 43.5025 14.2029 46.2263C14.0991 46.5853 14.1709 47.9246 14.4951 48.3722C14.7761 48.7601 17.6167 48.6265 17.8035 48.4994C17.9919 48.3738 17.762 46.9105 17.0402 46.4678C16.3185 46.0251 16.9875 44.6261 17.1696 44.214C17.4586 43.5604 18.9866 42.5173 20.256 41.5578C21.4264 40.6724 22.5824 39.2301 22.8379 38.2851C24.3548 37.6943 28.8064 39.9625 33.5359 38.1917C34.9793 41.6721 37.7224 42.9568 38.8833 44.8225C39.6273 45.7514 38.5448 46.9765 38.8146 48.0808C39.0828 49.1851 42.4711 48.9018 42.4822 48.3158C42.3465 46.1635 41.216 45.4971 40.547 44.2736C38.6645 41.025 40.4209 40.1396 39.5427 37.6074C39.5427 37.6074 43.7261 33.3043 42.4918 28.3252C41.2592 23.3476 36.4866 18.6212 36.1529 17.3559C35.8192 16.0906 34.4604 15.2551 34.4604 15.2551C34.0819 13.0529 31.6549 12.7921 30.2514 12.4621C28.1757 11.9743 28.9134 10.5641 28.5366 10.606C28.1597 10.6478 27.7829 12.2947 29.3317 13.2638C30.8805 14.2345 32.1563 14.74 31.9791 15.458Z" fill="url(#paint16_linear_253_703)"/>
<path d="M14.2156 47.527C14.281 47.8587 14.4599 48.4736 14.6148 48.6137C15.5744 49.4846 17.6166 48.6265 17.8034 48.4994C17.9375 48.4108 17.8593 47.6478 17.5447 47.0554C16.6825 47.3838 15.1002 47.7089 14.2156 47.5286V47.527Z" fill="url(#paint17_linear_253_703)"/>
<path d="M38.8559 47.0489C38.7777 47.395 38.7329 47.7427 38.816 48.0792C39.0842 49.1835 42.4724 48.9002 42.4836 48.3142C42.4293 47.4594 42.217 46.8413 41.9407 46.3261C41.219 47.0151 39.9065 47.1375 38.8559 47.0489Z" fill="url(#paint18_linear_253_703)"/>
<path d="M29.3333 13.2638C30.8517 14.2152 32.1036 14.7207 31.9854 15.4161C32.3862 15.6302 32.8508 15.8298 33.3075 15.7493C33.7785 15.6656 34.1202 15.3485 34.398 14.9798C33.8711 13.032 31.5942 12.7792 30.2514 12.4621C28.1757 11.9743 28.9133 10.5641 28.5365 10.606C28.1597 10.6478 27.7829 12.2947 29.3317 13.2638H29.3333Z" fill="url(#paint19_linear_253_703)"/>
<g style="mix-blend-mode:multiply" opacity="0.35">
<path d="M17.5989 33.3204C17.9294 30.8671 18.9545 30.8124 19.855 29.8465C18.3429 30.5419 17.1805 31.4096 16.9043 32.6282C16.1506 35.9621 17.1342 38.6199 16.256 40.6451C15.3778 42.6702 14.4022 44.2543 14.2298 45.8512C14.0957 47.0876 14.0973 47.9311 14.6561 48.575C15.215 49.219 16.5323 49.058 17.8304 48.5139C17.9294 48.1726 17.7314 47.8506 17.7697 47.5673C14.4294 48.2643 14.9723 46.9829 14.8956 46.3197C14.704 44.6503 16.8548 41.5611 17.4807 39.6518C18.0172 38.0147 17.9214 35.418 17.6005 33.3204H17.5989Z" fill="#5F39FF"/>
</g>
<g style="mix-blend-mode:multiply" opacity="0.3">
<path d="M40.1589 47.9424C39.8572 44.5972 38.6612 43.3077 36.3572 42.1487C37.5914 43.1306 38.2748 43.8422 38.8848 44.8225C39.6288 45.7514 38.5463 46.9765 38.8161 48.0808C39.0844 49.1851 42.4726 48.9018 42.4838 48.3158C42.4582 47.9214 42.4007 47.5785 42.3177 47.2711C42.2379 48.3062 40.2005 48.4076 40.1605 47.9424H40.1589Z" fill="#5F39FF"/>
</g>
<g style="mix-blend-mode:multiply" opacity="0.5">
<path d="M26.6443 22.6715C27.4251 22.6216 27.8482 22.1403 28.3911 21.5511C28.934 20.9603 30.1698 20.8766 30.1698 20.8766C30.1698 20.8766 29.1655 21.0456 28.7264 21.5092C28.2873 21.9729 27.8466 22.6796 27.4299 22.8389C27.0115 22.9967 26.8183 22.9935 26.8183 22.9935C26.6555 22.8599 26.6443 22.6731 26.6443 22.6731V22.6715Z" fill="#5F39FF"/>
</g>
<path d="M28.76 18.222C28.9883 16.8859 30.122 17.6248 30.3104 16.9181C30.3168 18.2317 28.76 18.222 28.76 18.222Z" fill="url(#paint20_linear_253_703)"/>
<g style="mix-blend-mode:multiply" opacity="0.5">
<path d="M26.0743 21.9632C26.1669 21.7056 26.9126 21.7555 26.8008 21.9471C26.6906 22.1387 26.0232 22.1033 26.0743 21.9632Z" fill="#5F39FF"/>
</g>
<g style="mix-blend-mode:multiply" opacity="0.5">
<path d="M32.1162 21.3708C33.4031 20.611 33.5277 19.3457 33.5277 19.3457C33.5277 22.4156 31.5015 23.6889 31.5015 23.6889C32.2104 22.4784 32.1162 21.3708 32.1162 21.3708Z" fill="#5F39FF"/>
</g>
<g style="mix-blend-mode:screen">
<path d="M26.8664 22.6297C25.4853 22.4091 25.5475 21.0472 26.1128 20.6045C26.678 20.1618 28.6228 18.1995 28.8432 16.7764C28.9741 15.9296 29.3796 15.437 30.1349 15.2777C29.2343 15.3823 28.7649 15.8878 28.6228 16.8118C28.4041 18.2365 26.4577 20.1973 25.8924 20.6399C25.3272 21.0826 25.2649 22.4445 26.6461 22.6651C26.6461 22.6651 26.991 23.4555 27.4301 23.5199C27.5179 23.5328 27.6057 23.5135 27.6967 23.4829C27.6807 23.4829 27.6648 23.4861 27.6504 23.4829C27.2113 23.4201 26.8664 22.6281 26.8664 22.6281V22.6297Z" fill="#73E9FE"/>
<path d="M17.16 32.7103C17.9136 29.378 25.2106 28.6633 28.2971 26.9295C32.6385 24.489 32.3367 21.3289 32.3367 21.3289C32.2792 21.4207 32.2058 21.5028 32.1228 21.5801C32.11 22.3029 31.7891 24.7836 28.1214 26.8442C25.0334 28.5779 17.6598 29.2895 16.9061 32.6234C16.1541 35.9557 17.168 38.628 16.2578 40.6403C15.0954 43.2047 14.8016 43.261 14.4424 44.7099C15.0811 43.0196 15.8411 42.0714 16.4782 40.6032C17.3564 38.5781 16.4079 36.0459 17.16 32.7119V32.7103Z" fill="#73E9FE"/>
<path d="M29.5536 13.2219C28.1868 12.3655 28.3209 10.9827 28.6307 10.643C28.6115 10.6124 28.5828 10.5947 28.5397 10.6012C28.1628 10.643 27.7876 12.2882 29.3348 13.259C30.8261 14.1943 32.062 14.6981 31.9901 15.3759C32.062 15.392 32.1259 15.3984 32.2009 15.4161C32.3797 14.6997 31.1024 14.1926 29.5536 13.2235V13.2219Z" fill="#73E9FE"/>
<path d="M39.6863 38.1483C39.5953 38.0098 39.5426 37.6074 39.5426 37.6074C40.0663 40.0511 38.5175 41.0121 40.3697 44.206C41.0387 45.4294 42.2187 46.1861 42.3544 48.3384C42.3512 48.5171 41.9281 48.6813 41.4762 48.773C42.0398 48.6893 42.471 48.5219 42.4757 48.3142C42.3384 46.1619 41.208 45.4954 40.5389 44.272C38.7969 41.2681 40.1669 40.2813 39.6863 38.1466V38.1483Z" fill="#73E9FE"/>
</g>
<path d="M32.8906 15.9216C34.0195 14.6981 36.2373 14.9509 36.6142 13.3893C37.1586 16.5124 34.7524 17.6505 34.7524 17.6505C33.5596 17.145 32.8906 15.9216 32.8906 15.9216Z" fill="url(#paint21_linear_253_703)"/>
<g style="mix-blend-mode:multiply" opacity="0.5">
<path d="M22.8105 38.2835C23.7414 36.7268 23.7686 35.1975 23.7686 35.1975C24.2204 36.5658 23.6616 37.6927 23.6616 37.6927C24.8863 37.6396 25.1481 37.7587 26.748 38.3897C28.3495 39.0224 31.4056 38.7391 31.4056 38.7391C26.376 39.1689 24.8863 37.881 22.8105 38.2835Z" fill="#5F39FF"/>
</g>
<g style="mix-blend-mode:multiply" opacity="0.2">
<path d="M16.7879 45.1928C16.4845 45.3634 16.2642 46.1233 16.2642 46.1233C16.3536 45.8657 16.6825 45.724 16.6825 45.724C16.7208 45.3328 16.7879 45.1944 16.7879 45.1944V45.1928Z" fill="#5F39FF"/>
</g>
<g style="mix-blend-mode:multiply" opacity="0.5">
<path d="M17.3611 48.604C17.2557 47.7765 16.8853 46.8123 16.8853 46.8123C17.4968 47.6832 17.5207 48.5782 17.5207 48.5782L17.3611 48.604Z" fill="#5F39FF"/>
</g>
<g style="mix-blend-mode:multiply" opacity="0.5">
<path d="M24.5958 48.604C24.4904 47.7765 24.1184 46.8123 24.1184 46.8123C24.7299 47.6832 24.7555 48.5782 24.7555 48.5782L24.5958 48.604Z" fill="#5F39FF"/>
</g>
<g style="mix-blend-mode:multiply" opacity="0.5">
<path d="M41.4365 46.9845C41.8293 47.7283 41.7351 48.7408 41.7351 48.7408L41.9714 48.6652C42.0321 47.8393 41.4365 46.9845 41.4365 46.9845Z" fill="#5F39FF"/>
</g>
<g style="mix-blend-mode:multiply" opacity="0.5">
<path d="M33.5694 38.2111C33.4864 37.1743 33.7371 36.1489 33.7371 36.1489C31.6454 34.5165 31.3101 32.4061 31.3101 32.4061C31.3516 34.3459 33.298 36.3871 33.298 36.3871C32.8748 37.3063 33.0217 38.3962 33.0217 38.3962L33.5694 38.2111Z" fill="#5F39FF"/>
</g>
<g style="mix-blend-mode:multiply" opacity="0.5">
<path d="M39.5425 37.6074C40.5899 33.871 37.9106 31.8458 37.9106 31.8458C40.0454 33.4492 40.4925 36.4322 40.4925 36.4322C40.4925 36.4322 39.8554 37.3482 39.5425 37.6074Z" fill="#5F39FF"/>
</g>
<g style="mix-blend-mode:multiply" opacity="0.5">
<path d="M44.3344 40.006C44.0485 41.5079 43.2693 42.3161 43.2693 42.3161L42.9021 42.0633C43.9943 41.128 44.3344 40.006 44.3344 40.006Z" fill="#5F39FF"/>
</g>
<path d="M36.3955 18.3588C36.3827 18.3588 36.3652 18.3556 36.3412 18.3572C36.3173 18.3572 36.2885 18.3572 36.2566 18.3621C36.2406 18.3621 36.2231 18.3669 36.2055 18.3717C36.1863 18.3749 36.1672 18.3798 36.148 18.3862C36.0682 18.4104 35.9804 18.4586 35.9005 18.5263C35.8207 18.5939 35.7456 18.676 35.6738 18.7532C35.6019 18.8305 35.5317 18.903 35.4598 18.9545C35.4247 18.9802 35.3896 19.0012 35.356 19.0156C35.3225 19.0317 35.289 19.0414 35.2586 19.0495C35.2283 19.0559 35.1996 19.0607 35.174 19.0623C35.1485 19.0655 35.1293 19.0623 35.1118 19.0623C35.0846 19.0607 35.0654 19.0591 35.0527 19.0591C35.0527 19.0591 35.0495 19.0591 35.0463 19.0591C35.0431 19.0591 35.0399 19.0591 35.0399 19.0591C35.0287 19.0591 35.008 19.0623 34.9808 19.0639C34.9649 19.0639 34.9457 19.0655 34.9186 19.0639C34.893 19.0639 34.8643 19.0591 34.8339 19.0511C34.8036 19.0446 34.7701 19.0334 34.7365 19.0189C34.703 19.0028 34.6679 18.9834 34.6311 18.9577C34.5593 18.9078 34.4874 18.8353 34.4156 18.7581C34.3437 18.6808 34.2687 18.5987 34.1873 18.5327C34.1058 18.4667 34.018 18.4168 33.9382 18.3943C33.919 18.3878 33.8998 18.383 33.8807 18.3798C33.8631 18.3749 33.8456 18.3717 33.828 18.3717C33.7961 18.3669 33.7673 18.3669 33.7434 18.3669C33.721 18.3669 33.7019 18.3685 33.6891 18.3701C33.6763 18.3701 33.6699 18.3701 33.6699 18.3701C33.6699 18.3701 33.6763 18.3701 33.6891 18.3717C33.7019 18.3733 33.7194 18.3749 33.7418 18.3798C33.7641 18.3846 33.7913 18.3894 33.8216 18.4007C33.8376 18.4039 33.8519 18.4104 33.8679 18.4184C33.8839 18.4248 33.8998 18.4329 33.9174 18.4426C33.9861 18.478 34.0531 18.5359 34.1138 18.6084C34.1745 18.6824 34.2272 18.7693 34.2847 18.8611C34.3421 18.9513 34.4028 19.0462 34.4811 19.1283C34.5194 19.1702 34.5609 19.2056 34.6056 19.2378C34.6088 19.241 34.612 19.2426 34.6168 19.2442C34.398 19.3875 34.2511 19.6354 34.2527 19.9187C34.2527 20.3598 34.612 20.7188 35.0495 20.7172C35.487 20.7172 35.843 20.3566 35.8415 19.9139C35.8415 19.6322 35.6946 19.3843 35.4742 19.241C35.4774 19.2394 35.4806 19.2362 35.4854 19.2346C35.5285 19.2024 35.5716 19.1654 35.6083 19.1235C35.685 19.0414 35.7456 18.9464 35.8031 18.8547C35.859 18.7629 35.9133 18.676 35.9724 18.6019C36.0315 18.5295 36.0985 18.4699 36.1672 18.4345C36.1831 18.4248 36.2007 18.4168 36.2167 18.4104C36.2326 18.4023 36.2486 18.3975 36.263 18.3926C36.2917 18.3814 36.3205 18.3765 36.3428 18.3717C36.3652 18.3669 36.3827 18.3653 36.3955 18.3637C36.4083 18.3621 36.4147 18.3605 36.4147 18.3605C36.4147 18.3605 36.4083 18.3605 36.3955 18.3605V18.3588ZM35.0479 20.4146C34.7748 20.4146 34.5513 20.1908 34.5513 19.9155C34.5513 19.6403 34.7732 19.4149 35.0463 19.4149C35.3193 19.4149 35.5429 19.6386 35.5445 19.9139C35.5445 20.1892 35.3225 20.4146 35.0495 20.4146H35.0479Z" fill="url(#paint22_linear_253_703)"/>
</g>
<rect x="0.233333" y="0.233333" width="55.5333" height="55.5333" rx="27.7667" stroke="white" stroke-opacity="0.2" stroke-width="0.466667"/>
<defs>
<filter id="filter0_f_253_703" x="-20.7407" y="-20.7407" width="97.4815" height="97.4815" filterUnits="userSpaceOnUse" color-interpolation-filters="sRGB">
<feFlood flood-opacity="0" result="BackgroundImageFix"/>
<feBlend mode="normal" in="SourceGraphic" in2="BackgroundImageFix" result="shape"/>
<feGaussianBlur stdDeviation="10.3704" result="effect1_foregroundBlur_253_703"/>
</filter>
<radialGradient id="paint0_radial_253_703" cx="0" cy="0" r="1" gradientUnits="userSpaceOnUse" gradientTransform="translate(28 28) scale(38.6579)">
<stop stop-color="#FA1E42"/>
<stop offset="1" stop-opacity="0"/>
</radialGradient>
<radialGradient id="paint1_radial_253_703" cx="0" cy="0" r="1" gradientUnits="userSpaceOnUse" gradientTransform="translate(18.8094 17.1482) scale(1.19753 1.20736)">
<stop offset="0.31" stop-color="white"/>
<stop offset="0.9" stop-color="white" stop-opacity="0"/>
</radialGradient>
<radialGradient id="paint2_radial_253_703" cx="0" cy="0" r="1" gradientUnits="userSpaceOnUse" gradientTransform="translate(22.7212 21.7362) scale(0.664232 0.669682)">
<stop offset="0.31" stop-color="white"/>
<stop offset="0.9" stop-color="white" stop-opacity="0"/>
</radialGradient>
<radialGradient id="paint3_radial_253_703" cx="0" cy="0" r="1" gradientUnits="userSpaceOnUse" gradientTransform="translate(42.2011 37.6734) scale(0.664232 0.669682)">
<stop offset="0.31" stop-color="white"/>
<stop offset="0.9" stop-color="white" stop-opacity="0"/>
</radialGradient>
<radialGradient id="paint4_radial_253_703" cx="0" cy="0" r="1" gradientUnits="userSpaceOnUse" gradientTransform="translate(32.5409 40.4905) scale(0.415144 0.418551)">
<stop offset="0.31" stop-color="white"/>
<stop offset="0.9" stop-color="white" stop-opacity="0"/>
</radialGradient>
<radialGradient id="paint5_radial_253_703" cx="0" cy="0" r="1" gradientUnits="userSpaceOnUse" gradientTransform="translate(20.3675 26.7202) scale(0.415145 0.418551)">
<stop offset="0.31" stop-color="white"/>
<stop offset="0.9" stop-color="white" stop-opacity="0"/>
</radialGradient>
<radialGradient id="paint6_radial_253_703" cx="0" cy="0" r="1" gradientUnits="userSpaceOnUse" gradientTransform="translate(37.5755 10.8652) scale(0.664233 0.669682)">
<stop offset="0.31" stop-color="white"/>
<stop offset="0.9" stop-color="white" stop-opacity="0"/>
</radialGradient>
<radialGradient id="paint7_radial_253_703" cx="0" cy="0" r="1" gradientUnits="userSpaceOnUse" gradientTransform="translate(43.3237 21.5994) scale(2.06774 2.08471)">
<stop stop-color="white"/>
<stop offset="0.03" stop-color="white" stop-opacity="0.96"/>
<stop offset="0.18" stop-color="white" stop-opacity="0.71"/>
<stop offset="0.34" stop-color="white" stop-opacity="0.49"/>
<stop offset="0.49" stop-color="white" stop-opacity="0.32"/>
<stop offset="0.64" stop-color="white" stop-opacity="0.18"/>
<stop offset="0.78" stop-color="white" stop-opacity="0.08"/>
<stop offset="0.9" stop-color="white" stop-opacity="0.02"/>
<stop offset="1" stop-color="white" stop-opacity="0"/>
</radialGradient>
<radialGradient id="paint8_radial_253_703" cx="0" cy="0" r="1" gradientUnits="userSpaceOnUse" gradientTransform="translate(12.7465 33.512) scale(0.0798356 0.0804906)">
<stop stop-color="white"/>
<stop offset="0.03" stop-color="white" stop-opacity="0.96"/>
<stop offset="0.18" stop-color="white" stop-opacity="0.71"/>
<stop offset="0.34" stop-color="white" stop-opacity="0.49"/>
<stop offset="0.49" stop-color="white" stop-opacity="0.32"/>
<stop offset="0.64" stop-color="white" stop-opacity="0.18"/>
<stop offset="0.78" stop-color="white" stop-opacity="0.08"/>
<stop offset="0.9" stop-color="white" stop-opacity="0.02"/>
<stop offset="1" stop-color="white" stop-opacity="0"/>
</radialGradient>
<radialGradient id="paint9_radial_253_703" cx="0" cy="0" r="1" gradientUnits="userSpaceOnUse" gradientTransform="translate(26.7177 43.3318) scale(1.82823 1.84323)">
<stop stop-color="white"/>
<stop offset="0.03" stop-color="white" stop-opacity="0.96"/>
<stop offset="0.18" stop-color="white" stop-opacity="0.71"/>
<stop offset="0.34" stop-color="white" stop-opacity="0.49"/>
<stop offset="0.49" stop-color="white" stop-opacity="0.32"/>
<stop offset="0.64" stop-color="white" stop-opacity="0.18"/>
<stop offset="0.78" stop-color="white" stop-opacity="0.08"/>
<stop offset="0.9" stop-color="white" stop-opacity="0.02"/>
<stop offset="1" stop-color="white" stop-opacity="0"/>
</radialGradient>
<linearGradient id="paint10_linear_253_703" x1="25.8812" y1="13.2123" x2="30.534" y2="16.204" gradientUnits="userSpaceOnUse">
<stop stop-color="#FFE98D"/>
<stop offset="0.13" stop-color="#FEE38F"/>
<stop offset="0.28" stop-color="#FED495"/>
<stop offset="0.45" stop-color="#FEBB9F"/>
<stop offset="0.64" stop-color="#FD99AD"/>
<stop offset="0.82" stop-color="#FC6DBF"/>
<stop offset="1" stop-color="#FC3DD3"/>
</linearGradient>
<linearGradient id="paint11_linear_253_703" x1="7.4854" y1="23.8435" x2="18.6376" y2="31.1647" gradientUnits="userSpaceOnUse">
<stop stop-color="#FFE98D"/>
<stop offset="0.14" stop-color="#F9E991"/>
<stop offset="0.32" stop-color="#EAE99D"/>
<stop offset="0.51" stop-color="#D1E9B1"/>
<stop offset="0.72" stop-color="#AFE9CD"/>
<stop offset="0.93" stop-color="#83E9F0"/>
<stop offset="1" stop-color="#73E9FE"/>
</linearGradient>
<linearGradient id="paint12_linear_253_703" x1="42.9755" y1="31.944" x2="46.7681" y2="44.3385" gradientUnits="userSpaceOnUse">
<stop stop-color="#5F39FF"/>
<stop offset="0.11" stop-color="#614FFE"/>
<stop offset="0.91" stop-color="#73E9FE"/>
</linearGradient>
<linearGradient id="paint13_linear_253_703" x1="45.4136" y1="40.6579" x2="41.0128" y2="40.3887" gradientUnits="userSpaceOnUse">
<stop stop-color="#FFE98D"/>
<stop offset="0.13" stop-color="#FEE38F"/>
<stop offset="0.28" stop-color="#FED495"/>
<stop offset="0.45" stop-color="#FEBB9F"/>
<stop offset="0.64" stop-color="#FD99AD"/>
<stop offset="0.82" stop-color="#FC6DBF"/>
<stop offset="1" stop-color="#FC3DD3"/>
</linearGradient>
<linearGradient id="paint14_linear_253_703" x1="22.8026" y1="39.0787" x2="25.788" y2="51.6791" gradientUnits="userSpaceOnUse">
<stop stop-color="#5F39FF"/>
<stop offset="0.11" stop-color="#614FFE"/>
<stop offset="0.91" stop-color="#73E9FE"/>
</linearGradient>
<linearGradient id="paint15_linear_253_703" x1="25.4722" y1="45.7466" x2="23.2144" y2="48.5715" gradientUnits="userSpaceOnUse">
<stop stop-color="#FFE98D"/>
<stop offset="0.13" stop-color="#FEE38F"/>
<stop offset="0.28" stop-color="#FED495"/>
<stop offset="0.45" stop-color="#FEBB9F"/>
<stop offset="0.64" stop-color="#FD99AD"/>
<stop offset="0.82" stop-color="#FC6DBF"/>
<stop offset="1" stop-color="#FC3DD3"/>
</linearGradient>
<linearGradient id="paint16_linear_253_703" x1="28.2939" y1="48.2547" x2="29.3131" y2="19.0693" gradientUnits="userSpaceOnUse">
<stop offset="0.03" stop-color="#73E9FE"/>
<stop offset="0.18" stop-color="#5F39FF"/>
<stop offset="0.27" stop-color="#614FFE"/>
<stop offset="0.91" stop-color="#73E9FE"/>
</linearGradient>
<linearGradient id="paint17_linear_253_703" x1="17.912" y1="46.8557" x2="14.8105" y2="48.712" gradientUnits="userSpaceOnUse">
<stop stop-color="#FFE98D"/>
<stop offset="0.13" stop-color="#FEE38F"/>
<stop offset="0.28" stop-color="#FED495"/>
<stop offset="0.45" stop-color="#FEBB9F"/>
<stop offset="0.64" stop-color="#FD99AD"/>
<stop offset="0.82" stop-color="#FC6DBF"/>
<stop offset="1" stop-color="#FC3DD3"/>
</linearGradient>
<linearGradient id="paint18_linear_253_703" x1="42.6385" y1="46.1683" x2="38.5416" y2="49.3555" gradientUnits="userSpaceOnUse">
<stop stop-color="#FFE98D"/>
<stop offset="0.13" stop-color="#FEE38F"/>
<stop offset="0.28" stop-color="#FED495"/>
<stop offset="0.45" stop-color="#FEBB9F"/>
<stop offset="0.64" stop-color="#FD99AD"/>
<stop offset="0.82" stop-color="#FC6DBF"/>
<stop offset="1" stop-color="#FC3DD3"/>
</linearGradient>
<linearGradient id="paint19_linear_253_703" x1="29.1161" y1="10.7734" x2="33.2264" y2="15.5697" gradientUnits="userSpaceOnUse">
<stop stop-color="#FFE98D"/>
<stop offset="0.14" stop-color="#F9E991"/>
<stop offset="0.32" stop-color="#EAE99D"/>
<stop offset="0.51" stop-color="#D1E9B1"/>
<stop offset="0.72" stop-color="#AFE9CD"/>
<stop offset="0.93" stop-color="#83E9F0"/>
<stop offset="1" stop-color="#73E9FE"/>
</linearGradient>
<linearGradient id="paint20_linear_253_703" x1="30.2404" y1="17.6512" x2="28.8281" y2="17.5071" gradientUnits="userSpaceOnUse">
<stop stop-color="#5F39FF"/>
<stop offset="0.1" stop-color="#614FFE"/>
<stop offset="0.8" stop-color="#73E9FE"/>
</linearGradient>
<linearGradient id="paint21_linear_253_703" x1="36.8505" y1="14.7979" x2="34.0453" y2="16.5176" gradientUnits="userSpaceOnUse">
<stop stop-color="#5F39FF"/>
<stop offset="0.1" stop-color="#614FFE"/>
<stop offset="0.8" stop-color="#73E9FE"/>
</linearGradient>
<linearGradient id="paint22_linear_253_703" x1="33.6731" y1="19.5356" x2="36.4147" y2="19.5356" gradientUnits="userSpaceOnUse">
<stop stop-color="#FFE98D"/>
<stop offset="0.13" stop-color="#FEE38F"/>
<stop offset="0.28" stop-color="#FED495"/>
<stop offset="0.45" stop-color="#FEBB9F"/>
<stop offset="0.64" stop-color="#FD99AD"/>
<stop offset="0.82" stop-color="#FC6DBF"/>
<stop offset="1" stop-color="#FC3DD3"/>
</linearGradient>
<clipPath id="clip0_253_703">
<rect width="56" height="56" rx="28" fill="white"/>
</clipPath>
</defs>
</svg>
