<svg width="17" height="17" viewBox="0 0 17 17" fill="none" xmlns="http://www.w3.org/2000/svg">
<path d="M8.125 4.79224V8.12557L10.2083 10.2089" stroke="white" stroke-width="1.5" stroke-linecap="round" stroke-linejoin="round"/>
<path d="M1.74 3.85146L1.115 3.85396C1.11566 4.01871 1.18134 4.17654 1.29776 4.29312C1.41418 4.40969 1.57192 4.47559 1.73667 4.47646L1.74 3.85146ZM3.85833 4.48646C3.94041 4.48685 4.02176 4.47106 4.09773 4.44C4.17371 4.40895 4.24282 4.36323 4.30113 4.30547C4.35944 4.2477 4.4058 4.17902 4.43756 4.10334C4.46932 4.02765 4.48587 3.94646 4.48625 3.86438C4.48663 3.7823 4.47085 3.70096 4.43979 3.62498C4.40874 3.54901 4.36302 3.47989 4.30525 3.42158C4.24749 3.36328 4.1788 3.31692 4.10312 3.28515C4.02744 3.25339 3.94624 3.23685 3.86417 3.23646L3.85833 4.48646ZM2.35417 1.72646C2.35328 1.5607 2.28659 1.40208 2.16875 1.2855C2.05092 1.16891 1.89159 1.10391 1.72583 1.1048C1.56007 1.10568 1.40145 1.17238 1.28487 1.29021C1.16828 1.40805 1.10328 1.56737 1.10417 1.73313L2.35417 1.72646ZM1.25 8.12563C1.25 7.95987 1.18415 7.8009 1.06694 7.68369C0.949732 7.56648 0.79076 7.50063 0.625 7.50063C0.45924 7.50063 0.300268 7.56648 0.183058 7.68369C0.0658479 7.8009 0 7.95987 0 8.12563H1.25ZM12.1875 15.1631C12.2616 15.1237 12.3269 15.0698 12.3797 15.0045C12.4324 14.9393 12.4715 14.8641 12.4946 14.7835C12.5177 14.7028 12.5243 14.6183 12.514 14.535C12.5038 14.4518 12.4769 14.3714 12.4349 14.2988C12.3929 14.2261 12.3367 14.1627 12.2697 14.1122C12.2027 14.0617 12.1262 14.0253 12.0448 14.005C11.9634 13.9847 11.8787 13.981 11.7959 13.9942C11.713 14.0073 11.6336 14.037 11.5625 14.0815L12.1875 15.1631ZM14.0808 11.5631C14.0364 11.6343 14.0067 11.7136 13.9936 11.7965C13.9804 11.8794 13.9841 11.964 14.0044 12.0454C14.0247 12.1268 14.0611 12.2033 14.1116 12.2704C14.1621 12.3374 14.2255 12.3935 14.2982 12.4355C14.3708 12.4775 14.4511 12.5044 14.5344 12.5147C14.6177 12.5249 14.7022 12.5183 14.7828 12.4952C14.8635 12.4721 14.9387 12.4331 15.0039 12.3803C15.0691 12.3275 15.1231 12.2622 15.1625 12.1881L14.0808 11.5631ZM2.40833 2.35063C2.29053 2.46732 2.22391 2.62604 2.22313 2.79185C2.22235 2.95766 2.28747 3.117 2.40417 3.2348C2.52086 3.3526 2.67957 3.41922 2.84539 3.42C3.0112 3.42078 3.17053 3.35566 3.28833 3.23896L2.40833 2.35063ZM13.8433 2.40646C10.66 -0.77687 5.51583 -0.808537 2.35333 2.35396L3.23667 3.23646C5.90333 0.57063 10.2558 0.586463 12.96 3.29063L13.8433 2.40646ZM2.35333 2.35396L1.29833 3.40896L2.18167 4.2923L3.2375 3.23813L2.35333 2.35396ZM1.73667 4.47646L3.85833 4.48646L3.86417 3.23646L1.74333 3.22646L1.73667 4.47646ZM2.365 3.84813L2.35417 1.72646L1.10417 1.73313L1.115 3.85396L2.365 3.84813ZM8.125 1.25063C9.94836 1.25063 11.697 1.97496 12.9864 3.26427C14.2757 4.55358 15 6.30227 15 8.12563H16.25C16.25 5.97075 15.394 3.90412 13.8702 2.38039C12.3465 0.856654 10.2799 0.000629661 8.125 0.000629661V1.25063ZM8.125 15.0006C6.30164 15.0006 4.55295 14.2763 3.26364 12.987C1.97433 11.6977 1.25 9.94899 1.25 8.12563H0C0 10.2805 0.856025 12.3471 2.37976 13.8709C3.90349 15.3946 5.97012 16.2506 8.125 16.2506V15.0006ZM11.5625 14.0815C10.5179 14.686 9.3319 15.0032 8.125 15.0006V16.2506C9.60417 16.2506 10.9917 15.8548 12.1875 15.1631L11.5625 14.0815ZM15 8.12563C15.0026 9.33253 14.6854 10.5186 14.0808 11.5631L15.1625 12.1881C15.8771 10.9536 16.2523 9.55203 16.25 8.12563H15ZM3.28833 3.23896C4.57404 1.96234 6.31315 1.24793 8.125 1.25063V0.000629661C5.98362 -0.00221971 3.92823 0.842171 2.40833 2.35063L3.28833 3.23896Z" fill="white"/>
</svg>
