<svg width="15" height="15" viewBox="0 0 15 15" fill="none" xmlns="http://www.w3.org/2000/svg">
<path d="M12.7592 5.09194L12.5915 5.4962C12.5653 5.56203 12.521 5.61826 12.4644 5.65782C12.4077 5.69737 12.3411 5.71848 12.273 5.71848C12.205 5.71848 12.1384 5.69737 12.0817 5.65782C12.0251 5.61826 11.9808 5.56203 11.9546 5.4962L11.7869 5.09194C11.492 4.37678 10.9519 3.80337 10.2732 3.48488L9.75571 3.24275C9.69293 3.21249 9.63974 3.16401 9.60246 3.10306C9.56517 3.0421 9.54536 2.97123 9.54536 2.89884C9.54536 2.82644 9.56517 2.75557 9.60246 2.69461C9.63974 2.63366 9.69293 2.58518 9.75571 2.55493L10.2446 2.32708C10.9403 1.99951 11.4897 1.4049 11.7794 0.665738L11.9519 0.229332C11.9772 0.161731 12.0214 0.103694 12.0787 0.0627868C12.136 0.0218797 12.2037 0 12.273 0C12.3424 0 12.4101 0.0218797 12.4674 0.0627868C12.5247 0.103694 12.5689 0.161731 12.5942 0.229332L12.7667 0.665023C13.0561 1.40433 13.6052 1.99919 14.3008 2.32708L14.7904 2.55564C14.853 2.58598 14.906 2.63445 14.9431 2.69533C14.9803 2.7562 15 2.82694 15 2.89919C15 2.97144 14.9803 3.04218 14.9431 3.10306C14.906 3.16393 14.853 3.21241 14.7904 3.24275L14.2722 3.48416C13.5936 3.80298 13.0538 4.37663 12.7592 5.09194ZM12.273 7.14326C12.7299 7.14326 13.1683 7.06469 13.5788 6.92041C13.6174 7.22754 13.6367 7.5399 13.6367 7.85751C13.6367 11.8023 10.5841 15 6.81836 15C5.69836 15.0016 4.59536 14.7131 3.6076 14.16L6.70097e-06 15L0.801845 11.2209C0.273892 10.1862 -0.0015665 9.03075 6.70097e-06 7.85751C6.70097e-06 3.91271 3.05258 0.715021 6.81836 0.715021C7.43611 0.715021 8.03408 0.800731 8.60273 0.962151C8.29506 1.61562 8.15152 2.34048 8.18568 3.06822C8.21984 3.79597 8.43056 4.50258 8.79795 5.12128C9.16533 5.73998 9.67723 6.25034 10.2853 6.60414C10.8934 6.95794 11.5775 7.14349 12.273 7.14326ZM3.40919 7.85751C3.40919 8.80466 3.76837 9.71302 4.40771 10.3828C5.04706 11.0525 5.91419 11.4288 6.81836 11.4288C7.72253 11.4288 8.58967 11.0525 9.22902 10.3828C9.86836 9.71302 10.2275 8.80466 10.2275 7.85751H8.86387C8.86387 8.4258 8.64836 8.97081 8.26476 9.37266C7.88115 9.7745 7.36087 10.0003 6.81836 10.0003C6.27586 10.0003 5.75558 9.7745 5.37197 9.37266C4.98836 8.97081 4.77286 8.4258 4.77286 7.85751H3.40919Z" fill="black"/>
</svg>
