<svg width="20" height="20" viewBox="0 0 20 20" fill="none" xmlns="http://www.w3.org/2000/svg">
<path d="M16.1266 6.34721L12.8276 3.37812C11.8877 2.53223 11.4178 2.10928 10.8412 1.88802L10.8335 4.16676C10.8335 6.13094 10.8335 7.11303 11.4437 7.72322C12.0539 8.33341 13.036 8.33341 15.0002 8.33341H17.9836C17.6814 7.74656 17.1405 7.2597 16.1266 6.34721Z" fill="#FEF2F2"/>
<path fill-rule="evenodd" clip-rule="evenodd" d="M11.6665 18.3333H8.33317C5.19047 18.3333 3.61913 18.3333 2.64281 17.357C1.6665 16.3807 1.6665 14.8093 1.6665 11.6667V8.33333C1.6665 5.19063 1.6665 3.61929 2.64281 2.64297C3.61913 1.66666 5.19875 1.66666 8.358 1.66666C8.863 1.66666 9.26767 1.66666 9.60817 1.68055C9.597 1.74716 9.59109 1.81511 9.59084 1.88381L9.58317 4.24581C9.58309 5.16006 9.583 5.96803 9.67059 6.6193C9.7655 7.32523 9.98342 8.03105 10.5595 8.60708C11.1355 9.18316 11.8413 9.40108 12.5473 9.496C13.1986 9.58358 14.0065 9.5835 14.9208 9.58341H14.9998H18.2977C18.3332 10.0287 18.3332 10.5751 18.3332 11.3024V11.6667C18.3332 14.8093 18.3332 16.3807 17.3568 17.357C16.3806 18.3333 14.8092 18.3333 11.6665 18.3333ZM8.29347 10.9991L8.21154 10.8521C7.89489 10.284 7.73655 10 7.49984 10C7.26312 10 7.10479 10.284 6.78813 10.8521L6.7062 10.9991C6.61622 11.1605 6.57123 11.2412 6.50107 11.2944C6.43092 11.3477 6.34355 11.3675 6.16881 11.407L6.00972 11.443C5.3948 11.5822 5.08735 11.6517 5.0142 11.8869C4.94105 12.1222 5.15065 12.3672 5.56986 12.8575L5.67832 12.9843C5.79745 13.1236 5.857 13.1932 5.8838 13.2794C5.9106 13.3656 5.9016 13.4585 5.88359 13.6444L5.86719 13.8136C5.8038 14.4677 5.77212 14.7947 5.96362 14.9401C6.15513 15.0854 6.443 14.9529 7.01875 14.6877L7.16771 14.6192C7.33132 14.5439 7.41312 14.5062 7.49984 14.5062C7.58655 14.5062 7.66835 14.5439 7.83196 14.6192L7.98092 14.6878C8.55667 14.9529 8.8445 15.0854 9.03609 14.9401C9.22759 14.7947 9.19584 14.4677 9.1325 13.8136L9.11609 13.6444C9.09809 13.4585 9.08909 13.3656 9.11584 13.2794C9.14267 13.1932 9.20225 13.1236 9.32134 12.9843L9.42984 12.8575C9.849 12.3672 10.0587 12.1222 9.9855 11.8869C9.91234 11.6517 9.60484 11.5822 8.98992 11.443L8.83084 11.407C8.65609 11.3675 8.56875 11.3477 8.49859 11.2944C8.42842 11.2412 8.38342 11.1605 8.29347 10.9991Z" fill="#FEF2F2"/>
</svg>
