<svg width="21" height="20" viewBox="0 0 21 20" fill="none" xmlns="http://www.w3.org/2000/svg">
<path d="M16.8766 6.34722L13.5776 3.37814C12.6377 2.53225 12.1678 2.1093 11.5912 1.88803L11.5835 4.16677C11.5835 6.13096 11.5835 7.11305 12.1937 7.72324C12.8039 8.33343 13.786 8.33343 15.7502 8.33343H18.7336C18.4314 7.74658 17.8905 7.25971 16.8766 6.34722Z" fill="white"/>
<path fill-rule="evenodd" clip-rule="evenodd" d="M12.4165 18.3333H9.08317C5.94047 18.3333 4.36913 18.3333 3.39281 17.357C2.4165 16.3807 2.4165 14.8093 2.4165 11.6667V8.33332C2.4165 5.19062 2.4165 3.61928 3.39281 2.64296C4.36913 1.66666 5.94875 1.66666 9.108 1.66666C9.613 1.66666 10.0177 1.66666 10.3582 1.68054C10.347 1.74715 10.3411 1.8151 10.3408 1.8838L10.3332 4.2458C10.3331 5.16005 10.333 5.96802 10.4206 6.61929C10.5155 7.32522 10.7334 8.03104 11.3095 8.60707C11.8855 9.18316 12.5913 9.40107 13.2973 9.49599C13.9486 9.58357 14.7565 9.58349 15.6708 9.58341H15.7498H19.0477C19.0832 10.0287 19.0832 10.5751 19.0832 11.3024V11.6667C19.0832 14.8093 19.0832 16.3807 18.1068 17.357C17.1306 18.3333 15.5592 18.3333 12.4165 18.3333ZM9.04347 10.9991L8.96154 10.8521C8.64489 10.284 8.48655 9.99999 8.24984 9.99999C8.01312 9.99999 7.85479 10.284 7.53813 10.8521L7.4562 10.9991C7.36622 11.1605 7.32123 11.2412 7.25107 11.2944C7.18092 11.3477 7.09355 11.3675 6.91881 11.407L6.75972 11.443C6.1448 11.5822 5.83735 11.6517 5.7642 11.8869C5.69105 12.1222 5.90065 12.3672 6.31986 12.8575L6.42832 12.9843C6.54745 13.1236 6.607 13.1932 6.6338 13.2794C6.6606 13.3656 6.6516 13.4585 6.63359 13.6444L6.61719 13.8136C6.5538 14.4677 6.52212 14.7947 6.71362 14.9401C6.90513 15.0854 7.193 14.9529 7.76875 14.6877L7.91771 14.6192C8.08132 14.5439 8.16312 14.5062 8.24984 14.5062C8.33655 14.5062 8.41835 14.5439 8.58196 14.6192L8.73092 14.6878C9.30667 14.9529 9.5945 15.0854 9.78609 14.9401C9.97759 14.7947 9.94584 14.4677 9.8825 13.8136L9.86609 13.6444C9.84809 13.4585 9.83909 13.3656 9.86584 13.2794C9.89267 13.1932 9.95225 13.1236 10.0713 12.9843L10.1798 12.8575C10.599 12.3672 10.8087 12.1222 10.7355 11.8869C10.6623 11.6517 10.3548 11.5822 9.73992 11.443L9.58084 11.407C9.40609 11.3675 9.31875 11.3477 9.24859 11.2944C9.17842 11.2412 9.13342 11.1605 9.04347 10.9991Z" fill="white"/>
</svg>
