<svg width="15" height="15" viewBox="0 0 15 15" fill="none" xmlns="http://www.w3.org/2000/svg">
<path fill-rule="evenodd" clip-rule="evenodd" d="M8.33317 6.79167V0.833333C8.33317 0.61232 8.24537 0.400358 8.08909 0.244078C7.93281 0.0877973 7.72085 0 7.49983 0C7.27882 0 7.06686 0.0877973 6.91058 0.244078C6.7543 0.400358 6.6665 0.61232 6.6665 0.833333V6.79167L4.8165 4.47833C4.74945 4.38909 4.66516 4.31422 4.56862 4.25817C4.47209 4.20213 4.36528 4.16605 4.25453 4.15208C4.14378 4.13811 4.03136 4.14653 3.92393 4.17684C3.8165 4.20716 3.71625 4.25874 3.62914 4.32854C3.54203 4.39834 3.46983 4.48493 3.41683 4.58317C3.36383 4.68141 3.3311 4.7893 3.32059 4.90043C3.31009 5.01156 3.32201 5.12366 3.35567 5.23009C3.38932 5.33653 3.44401 5.43511 3.5165 5.52L6.84983 9.68667C6.92792 9.78399 7.02686 9.86255 7.13936 9.91652C7.25187 9.9705 7.37505 9.99852 7.49983 9.99852C7.62461 9.99852 7.7478 9.9705 7.8603 9.91652C7.9728 9.86255 8.07175 9.78399 8.14983 9.68667L11.4832 5.52C11.5557 5.43511 11.6103 5.33653 11.644 5.23009C11.6777 5.12366 11.6896 5.01156 11.6791 4.90043C11.6686 4.7893 11.6358 4.68141 11.5828 4.58317C11.5298 4.48493 11.4576 4.39834 11.3705 4.32854C11.2834 4.25874 11.1832 4.20716 11.0757 4.17684C10.9683 4.14653 10.8559 4.13811 10.7451 4.15208C10.6344 4.16605 10.5276 4.20213 10.431 4.25817C10.3345 4.31422 10.2502 4.38909 10.1832 4.47833L8.33317 6.79167Z" fill="black"/>
<path fill-rule="evenodd" clip-rule="evenodd" d="M5.5475 10.7283L3.63167 8.33331H1.66667C1.22464 8.33331 0.800716 8.50891 0.488155 8.82147C0.175595 9.13403 0 9.55795 0 9.99998V13.3333C0 13.7753 0.175595 14.1993 0.488155 14.5118C0.800716 14.8244 1.22464 15 1.66667 15H13.3333C13.7754 15 14.1993 14.8244 14.5118 14.5118C14.8244 14.1993 15 13.7753 15 13.3333V9.99998C15 9.55795 14.8244 9.13403 14.5118 8.82147C14.1993 8.50891 13.7754 8.33331 13.3333 8.33331H11.3683L9.45167 10.7283C9.21745 11.021 8.9204 11.2574 8.58249 11.4198C8.24459 11.5821 7.87449 11.6665 7.49958 11.6665C7.12468 11.6665 6.75458 11.5821 6.41668 11.4198C6.07877 11.2574 5.78172 11.021 5.5475 10.7283ZM11.6667 10.8333C11.4457 10.8333 11.2337 10.9211 11.0774 11.0774C10.9211 11.2337 10.8333 11.4456 10.8333 11.6666C10.8333 11.8877 10.9211 12.0996 11.0774 12.2559C11.2337 12.4122 11.4457 12.5 11.6667 12.5H11.675C11.896 12.5 12.108 12.4122 12.2643 12.2559C12.4205 12.0996 12.5083 11.8877 12.5083 11.6666C12.5083 11.4456 12.4205 11.2337 12.2643 11.0774C12.108 10.9211 11.896 10.8333 11.675 10.8333H11.6667Z" fill="black"/>
</svg>
