<svg width="56" height="56" viewBox="0 0 56 56" fill="none" xmlns="http://www.w3.org/2000/svg">
<g clip-path="url(#clip0_2562_2414)">
<g filter="url(#filter0_f_2562_2414)">
<path d="M56 0H0V56H56V0Z" fill="url(#paint0_radial_2562_2414)"/>
</g>
<g clip-path="url(#clip1_2562_2414)">
<g opacity="0.2">
<g style="mix-blend-mode:screen" opacity="0.5">
<path d="M44.9438 28.5665C44.9438 37.7908 37.3574 45.2708 27.9985 45.2708C18.6397 45.2708 11.0547 37.7923 11.0547 28.5665C11.0547 19.3408 18.6411 11.8623 27.9985 11.8623C37.3559 11.8623 44.9438 19.3408 44.9438 28.5665Z" stroke="#FC3DD3" stroke-width="2.62" stroke-miterlimit="10"/>
</g>
<g style="mix-blend-mode:screen" opacity="0.5">
<path d="M44.1574 28.5664C44.1574 37.3633 36.9237 44.4941 27.9998 44.4941C19.076 44.4941 11.8408 37.3633 11.8408 28.5664C11.8408 19.7695 19.076 12.6387 27.9984 12.6387C36.9207 12.6387 44.1559 19.7709 44.1559 28.5664H44.1574Z" stroke="#FC3DD3" stroke-width="1.35" stroke-miterlimit="10"/>
</g>
<g style="mix-blend-mode:screen" opacity="0.5">
<path d="M43.3066 28.5664C43.3066 36.8997 36.4535 43.6553 28 43.6553C19.5464 43.6553 12.6934 36.8997 12.6934 28.5664C12.6934 20.2331 19.5464 13.4775 27.9985 13.4775C36.4506 13.4775 43.3051 20.2331 43.3051 28.5664H43.3066Z" fill="#FC3DD3"/>
</g>
</g>
<g style="mix-blend-mode:screen" opacity="0.6">
<path d="M41.3535 33.8198L41.7885 30.9584C42.009 30.8846 42.1707 30.6846 42.1707 30.4412C42.1707 30.137 41.9193 29.8907 41.6122 29.8907C41.305 29.8907 41.0522 30.1384 41.0522 30.4412C41.0522 30.6252 41.1492 30.7803 41.2889 30.8802L40.8538 33.7459C40.6863 33.7546 40.529 33.7966 40.3865 33.8632L38.4877 31.4163C38.5229 31.3438 38.545 31.2656 38.545 31.1801C38.545 30.8773 38.2951 30.6296 37.9865 30.6296C37.6779 30.6296 37.4266 30.8773 37.4266 31.1801C37.4266 31.4829 37.6764 31.7321 37.9865 31.7321C38.0203 31.7321 38.0497 31.719 38.082 31.7133L39.9867 34.1675C39.7971 34.3833 39.6796 34.66 39.6796 34.9672C39.6796 35.1497 39.7222 35.3207 39.7957 35.4771L37.115 37.4185C37.04 37.3808 36.9577 37.3547 36.8681 37.3547C36.558 37.3547 36.3081 37.6025 36.3081 37.9067C36.3081 37.9531 36.3243 37.9951 36.3346 38.0386L30.6646 42.9991L28.3411 41.0317C28.3514 40.9897 28.366 40.952 28.366 40.9086C28.366 40.6043 28.1162 40.3566 27.8076 40.3566C27.7282 40.3566 27.6533 40.374 27.5842 40.4029L24.6551 38.0197C24.664 37.9821 24.6786 37.9473 24.6786 37.9067C24.6786 37.7647 24.6199 37.6372 24.5302 37.5387L26.0763 33.4793C26.4614 33.4764 26.7729 33.1693 26.7729 32.7868C26.7729 32.6492 26.7318 32.5217 26.6612 32.4145L28.5365 29.8994C28.6938 29.9704 28.8687 30.0139 29.0539 30.0139C29.7431 30.0139 30.3016 29.4633 30.3016 28.7839C30.3016 28.1044 29.7431 27.5553 29.0539 27.5553C28.6894 27.5553 28.3646 27.7118 28.1368 27.9581L25.7912 26.5861C25.7912 26.5745 25.7985 26.5658 25.7985 26.5528C25.7985 26.2485 25.5487 26.0022 25.2386 26.0022C25.221 26.0022 25.2063 26.0109 25.1886 26.0124L23.8439 23.9319C23.8924 23.8508 23.9262 23.761 23.9262 23.6596C23.9262 23.6306 23.9144 23.606 23.91 23.5799L26.5966 21.653C26.673 21.6907 26.7553 21.7168 26.8449 21.7168C26.9993 21.7168 27.1389 21.6545 27.2403 21.5545L30.1238 22.4817C30.1679 22.7425 30.3883 22.9453 30.6661 22.9453C30.9747 22.9453 31.226 22.6976 31.226 22.3934C31.226 22.3354 31.2099 22.2804 31.1922 22.2282L32.4826 20.9562C32.5649 21.0025 32.656 21.0373 32.7574 21.0373C33.0661 21.0373 33.3174 20.791 33.3174 20.4868C33.3174 20.1825 33.0675 19.9348 32.7574 19.9348C32.4473 19.9348 32.1975 20.1825 32.1975 20.4868C32.1975 20.4998 32.2048 20.5114 32.2048 20.5245L30.8336 21.8762C30.7807 21.8588 30.7263 21.8428 30.6661 21.8428C30.5118 21.8428 30.3721 21.9051 30.2707 22.0051L27.3872 21.0764C27.3579 20.9026 27.252 20.7592 27.0992 20.6809V18.6425C27.4019 18.5396 27.6224 18.2586 27.6224 17.9225C27.6224 17.5023 27.2756 17.1575 26.8464 17.1575C26.7568 17.1575 26.6715 17.1749 26.5922 17.2024L24.0261 14.0065C24.0584 13.9369 24.079 13.8601 24.079 13.7776C24.079 13.4733 23.8292 13.2256 23.5205 13.2256C23.2119 13.2256 22.9606 13.4733 22.9606 13.7776C22.9606 14.0818 23.2104 14.3295 23.5205 14.3295C23.5573 14.3295 23.5882 14.3165 23.6234 14.3093L26.1939 17.511C26.116 17.6298 26.0704 17.7704 26.0704 17.921C26.0704 18.2557 26.2894 18.5368 26.5936 18.6411V20.678C26.4143 20.7707 26.2865 20.9489 26.2865 21.1634C26.2865 21.1923 26.2982 21.217 26.3026 21.2445L23.6161 23.1699C23.5397 23.1322 23.4588 23.1062 23.3677 23.1062C23.2281 23.1062 23.1032 23.1612 23.0047 23.2467L18.2474 21.3763C18.2591 21.3068 18.2694 21.2358 18.2694 21.1634C18.2694 20.4839 17.7109 19.9334 17.0231 19.9334C16.3353 19.9334 15.7754 20.4839 15.7754 21.1634C15.7754 21.8428 16.3339 22.3919 17.0231 22.3919C17.4582 22.3919 17.8403 22.1717 18.0622 21.8399L22.8195 23.7088C22.8474 23.9884 23.0782 24.2072 23.3692 24.2072C23.3868 24.2072 23.4015 24.1985 23.4191 24.1971L24.7639 26.276C24.7154 26.3572 24.6801 26.447 24.6801 26.5484C24.6801 26.6411 24.7095 26.7252 24.7507 26.8019L24.0232 29.1272C23.763 29.175 23.5617 29.3909 23.5617 29.6589C23.5617 29.6719 23.569 29.6835 23.569 29.6966L21.2528 31.0772C21.1676 31.0265 21.0735 30.9889 20.9677 30.9889C20.8472 30.9889 20.7429 31.0338 20.6518 31.0975L18.4237 29.9603C18.4267 29.9356 18.4311 29.911 18.4311 29.8864C18.4311 29.5039 18.1166 29.1924 17.7271 29.1924C17.3376 29.1924 17.0231 29.5024 17.0231 29.8864C17.0231 30.2703 17.3376 30.5789 17.7271 30.5789C17.9049 30.5789 18.0651 30.5122 18.1901 30.405L20.4078 31.5365C20.4078 31.5365 20.4078 31.5394 20.4078 31.5409C20.4078 31.6712 20.4607 31.7842 20.5357 31.8784L19.8185 33.4547C19.523 33.4706 19.2879 33.7068 19.2879 33.9994C19.2879 34.0834 19.3099 34.1617 19.3437 34.2312L17.1231 37.0476C17.0893 37.0418 17.0599 37.0273 17.0246 37.0273C16.716 37.0273 16.4647 37.2751 16.4647 37.5793C16.4647 37.8835 16.716 38.1298 17.0246 38.1298C17.3332 38.1298 17.5846 37.8835 17.5846 37.5793C17.5846 37.4953 17.5625 37.4185 17.5287 37.3475L19.7494 34.5311C19.7832 34.5369 19.8126 34.5514 19.8478 34.5514C20.1565 34.5514 20.4063 34.3051 20.4063 33.9994C20.4063 33.8676 20.3534 33.7517 20.274 33.6575L20.9927 32.0885C21.2881 32.074 21.5247 31.8378 21.5247 31.5423C21.5247 31.5293 21.5174 31.5177 21.5174 31.5046L23.8336 30.124C23.9188 30.1761 24.0129 30.2138 24.1202 30.2138C24.4288 30.2138 24.6801 29.9675 24.6801 29.6618C24.6801 29.5068 24.614 29.3677 24.5096 29.2677L25.1901 27.0946C25.2077 27.096 25.2224 27.1047 25.2401 27.1047C25.3488 27.1047 25.4443 27.0656 25.5296 27.0135L27.8796 28.3869C27.8355 28.5115 27.8076 28.6448 27.8076 28.7839C27.8076 29.0997 27.9325 29.3836 28.1294 29.6024L26.2527 32.1204C26.1939 32.1044 26.1336 32.0943 26.0704 32.0943C25.681 32.0943 25.3665 32.4043 25.3665 32.7868C25.3665 32.9954 25.462 33.1794 25.609 33.3069L24.054 37.3678C23.7763 37.4011 23.5588 37.6242 23.5588 37.9067C23.5588 38.211 23.8086 38.4587 24.1187 38.4587C24.1981 38.4587 24.273 38.4413 24.3406 38.4123L27.2697 40.7955C27.2609 40.8332 27.2462 40.868 27.2462 40.9086C27.2462 41.2128 27.496 41.4605 27.8061 41.4605C27.8811 41.4605 27.9531 41.4446 28.0177 41.4185L30.669 43.6641L36.6623 38.4196C36.7255 38.4442 36.7946 38.4601 36.8666 38.4601C37.1752 38.4601 37.4266 38.2139 37.4266 37.9082C37.4266 37.8792 37.4148 37.8531 37.4089 37.8256L40.0955 35.8799C40.3159 36.0755 40.6055 36.1986 40.9258 36.1986C41.6151 36.1986 42.1736 35.6481 42.1736 34.9701C42.1736 34.4413 41.8326 33.9936 41.3565 33.8198H41.3535Z" fill="#FC3DD3"/>
</g>
<path d="M9.19847 15.8306C8.97361 16.2608 20.85 38.4458 20.85 38.4458" stroke="url(#paint1_linear_2562_2414)" stroke-width="2.48" stroke-miterlimit="10"/>
<path d="M32.5603 22.4401C25.4089 4.75356 11.5352 19.1383 8.53711 16.7566C10.5902 19.1441 16.8966 12.9927 22.9869 16.193C29.0772 19.3919 28.0925 28.6828 28.0925 28.6828L32.5618 22.4415L32.5603 22.4401Z" fill="url(#paint2_linear_2562_2414)"/>
<path style="mix-blend-mode:multiply" d="M31.7155 20.564C31.3569 22.1735 29.968 22.3735 28.5028 22.1533C28.0633 22.0881 27.6959 21.9707 27.3652 21.8215C28.4543 25.2377 28.0913 28.6814 28.0913 28.6814L32.5605 22.4401C32.2886 21.7664 32.005 21.1464 31.7155 20.564Z" fill="url(#paint3_linear_2562_2414)"/>
<g style="mix-blend-mode:screen">
<path d="M8.55078 16.7376C8.74037 16.9593 8.96817 17.1056 9.2283 17.194C13.6505 16.9694 25.984 6.44126 32.3521 22.7341L32.5755 22.4226C25.4211 4.73607 11.5474 19.1208 8.55078 16.7376Z" fill="#73E9FE"/>
</g>
<path d="M38.1384 14.498L32.4375 18.0997C32.4375 18.0997 33.7676 18.2619 33.5251 19.828L34.0732 20.1758L34.5891 20.5669C36.0044 19.8165 36.6055 20.9986 36.6055 20.9986L38.1384 14.498Z" fill="url(#paint4_linear_2562_2414)"/>
<g style="mix-blend-mode:screen">
<path d="M33.082 18.3877C33.3745 18.6282 33.6287 19.0556 33.5112 19.8176L33.6861 19.9292C33.8227 19.0237 33.4333 18.592 33.082 18.3877Z" fill="#73E9FE"/>
</g>
<g style="mix-blend-mode:screen">
<path d="M38.1237 14.4863L32.4229 18.0894C32.4229 18.0894 32.5316 18.1024 32.68 18.1575L38.0605 14.7572L38.1237 14.4863Z" fill="#73E9FE"/>
</g>
<path d="M20.9693 38.1245C20.3035 39.0532 18.4856 38.7402 18.4856 38.7402L15.8945 42.3592C15.8945 42.3592 17.3936 41.2785 18.7912 41.5175L20.9693 38.123V38.1245Z" fill="url(#paint5_linear_2562_2414)"/>
<path style="mix-blend-mode:multiply" d="M20.969 38.1245C20.5677 38.6852 19.7506 38.7924 19.1627 38.7895C19.3582 39.7775 18.7645 40.725 18.2266 41.4885C18.4147 41.4784 18.6028 41.4856 18.7924 41.5175L20.9704 38.123L20.969 38.1245Z" fill="url(#paint6_linear_2562_2414)"/>
<path d="M21.3134 38.3618C20.6477 39.2919 21.5559 40.8754 21.5559 40.8754L18.9649 44.4944C18.9649 44.4944 19.4955 42.74 18.7988 41.5216L21.3134 38.3604V38.3618Z" fill="url(#paint7_linear_2562_2414)"/>
<path style="mix-blend-mode:multiply" d="M21.3134 38.3618C20.9122 38.921 21.0827 39.7178 21.2826 40.2626C20.2729 40.4118 19.566 41.2796 19.0163 42.0359C18.9634 41.8591 18.8929 41.6838 18.7988 41.5216L21.3134 38.3604V38.3618Z" fill="url(#paint8_linear_2562_2414)"/>
<path d="M31.5708 23.3292L18.3438 41.7788L18.681 42.0138L31.908 23.5642L31.5708 23.3292Z" fill="url(#paint9_linear_2562_2414)"/>
<path d="M27.4317 29.452C27.5772 29.2549 33.087 21.7924 35.0696 20.9014L34.0584 20.1973L33.0473 19.4932C32.8592 21.633 27.5713 29.252 27.4331 29.452L27.4199 29.4708C27.4199 29.4708 27.4258 29.4621 27.4273 29.4607C27.4273 29.4621 27.4199 29.4708 27.4199 29.4708L27.4331 29.452H27.4317Z" fill="url(#paint10_linear_2562_2414)"/>
<path d="M18.2574 41.7173L16.6892 42.3605L16.6113 44.4366L18.7027 43.76L18.7747 42.0766L18.2574 41.7173Z" fill="url(#paint11_linear_2562_2414)"/>
<path d="M33.4883 19.802L35.5826 18.0664L34.6243 20.593L33.4883 19.802Z" fill="url(#paint12_linear_2562_2414)"/>
<g style="mix-blend-mode:screen">
<path d="M18.4856 38.7402L15.8945 42.3592L16.1635 42.1868L18.4856 38.7402Z" fill="#73E9FE"/>
</g>
<path d="M10.1792 16.5118C9.79708 17.0464 9.04902 17.1724 8.50671 16.7957C7.96587 16.419 7.83654 15.6816 8.21866 15.1485C8.60077 14.6139 9.34883 14.4864 9.89114 14.8645C10.432 15.2397 10.5613 15.9786 10.1792 16.5118Z" fill="url(#paint13_linear_2562_2414)"/>
<path d="M46.8001 41.9913C46.465 42.3448 20.8516 38.7402 20.8516 38.7402" stroke="url(#paint14_linear_2562_2414)" stroke-width="2.48" stroke-miterlimit="10"/>
<path d="M32.6568 22.5068C51.9579 23.224 42.8563 40.9307 46.138 42.917C43.1678 41.8087 46.9346 33.8912 41.8363 29.3059C36.738 24.7205 28.1875 28.7481 28.1875 28.7481L32.6553 22.5054L32.6568 22.5068Z" fill="url(#paint15_linear_2562_2414)"/>
<path style="mix-blend-mode:multiply" d="M34.7329 22.6633C33.3147 23.5354 33.5895 24.8915 34.2905 26.1794C34.5007 26.5663 34.7359 26.8676 34.9886 27.124C31.3586 27.2559 28.1885 28.7481 28.1885 28.7481L32.6563 22.5054C33.3896 22.5329 34.0789 22.5879 34.7329 22.6618V22.6633Z" fill="url(#paint16_linear_2562_2414)"/>
<g style="mix-blend-mode:screen">
<path d="M46.151 42.898C45.8747 42.7966 45.6586 42.6343 45.4867 42.4228C44.2198 38.2417 50.1514 23.2586 32.4463 22.8022L32.6697 22.4893C51.9709 23.2078 42.8692 40.9132 46.151 42.898Z" fill="#73E9FE"/>
</g>
<path d="M45.8202 41.3086C45.4381 41.8417 45.5674 42.5806 46.1083 42.9558C46.6506 43.3325 47.3972 43.205 47.7793 42.6719C48.1614 42.1387 48.0321 41.4013 47.4912 41.0246C46.9504 40.6479 46.2009 40.7754 45.8187 41.3086H45.8202Z" fill="url(#paint17_linear_2562_2414)"/>
<path d="M29.0823 28.7479C29.0823 29.3361 28.5973 29.8142 28.0006 29.8142C27.4039 29.8142 26.9189 29.3361 26.9189 28.7479C26.9189 28.1597 27.4039 27.6816 28.0006 27.6816C28.5973 27.6816 29.0823 28.1597 29.0823 28.7479Z" fill="url(#paint18_linear_2562_2414)"/>
<path d="M26.963 31.1817C26.963 31.5917 26.6249 31.9249 26.209 31.9249C25.7931 31.9249 25.4551 31.5917 25.4551 31.1817C25.4551 30.7717 25.7931 30.4385 26.209 30.4385C26.6249 30.4385 26.963 30.7717 26.963 31.1817Z" fill="url(#paint19_linear_2562_2414)"/>
<path d="M28.6293 19.2208C28.8938 19.357 29.1672 19.4801 29.464 19.57C29.176 19.3092 28.8497 19.102 28.5146 18.9093L28.3868 18.8354L28.3412 18.976C28.2795 19.1658 28.2222 19.3556 28.1766 19.5497C28.1296 19.7424 28.0914 19.938 28.0752 20.1379C28.184 19.9597 28.2707 19.7757 28.35 19.5888C28.3824 19.5135 28.4088 19.4381 28.4367 19.3613L28.8909 20.4407L28.45 20.6203L28.5161 20.7768L28.957 20.5971L29.564 21.5924L29.173 20.5088L29.6139 20.3291L29.5478 20.1727L29.1069 20.3523L28.6307 19.2194L28.6293 19.2208Z" fill="#FFE98D"/>
<g style="mix-blend-mode:screen" opacity="0.9">
<path style="mix-blend-mode:screen" opacity="0.9" d="M32.2323 12.1694C32.2323 12.7504 31.668 12.7808 31.668 12.7808C31.668 12.7808 32.2323 12.8127 32.2323 13.3936C32.2323 12.8127 32.7952 12.7808 32.7952 12.7808C32.7952 12.7808 32.2323 12.7504 32.2323 12.1694Z" fill="url(#paint20_radial_2562_2414)"/>
<path style="mix-blend-mode:screen" opacity="0.9" d="M33.9425 28.6421C33.9425 28.984 33.6104 29.0028 33.6104 29.0028C33.6104 29.0028 33.9425 29.0217 33.9425 29.3636C33.9425 29.0217 34.2746 29.0028 34.2746 29.0028C34.2746 29.0028 33.9425 28.9854 33.9425 28.6421Z" fill="url(#paint21_radial_2562_2414)"/>
<path style="mix-blend-mode:screen" opacity="0.9" d="M14.4343 32.7607C14.4343 33.1345 14.0713 33.1548 14.0713 33.1548C14.0713 33.1548 14.4343 33.1751 14.4343 33.5489C14.4343 33.1751 14.7973 33.1548 14.7973 33.1548C14.7973 33.1548 14.4343 33.1345 14.4343 32.7607Z" fill="url(#paint22_radial_2562_2414)"/>
<path style="mix-blend-mode:screen" opacity="0.9" d="M22.3503 18.9351C22.3503 19.3103 21.9873 19.3291 21.9873 19.3291C21.9873 19.3291 22.3503 19.3494 22.3503 19.7232C22.3503 19.348 22.7133 19.3291 22.7133 19.3291C22.7133 19.3291 22.3503 19.3088 22.3503 18.9351Z" fill="url(#paint23_radial_2562_2414)"/>
<path style="mix-blend-mode:screen" opacity="0.9" d="M19.1362 23.8916C19.1362 24.4899 18.5557 24.5233 18.5557 24.5233C18.5557 24.5233 19.1362 24.5551 19.1362 25.1549C19.1362 24.5551 19.7167 24.5233 19.7167 24.5233C19.7167 24.5233 19.1362 24.4914 19.1362 23.8916Z" fill="url(#paint24_radial_2562_2414)"/>
<path style="mix-blend-mode:color-dodge" opacity="0.9" d="M40.2472 18.0806C40.2472 18.7398 39.6064 18.776 39.6064 18.776C39.6064 18.776 40.2472 18.8107 40.2472 19.4714C40.2472 18.8122 40.888 18.776 40.888 18.776C40.888 18.776 40.2472 18.7412 40.2472 18.0806Z" fill="url(#paint25_radial_2562_2414)"/>
<path style="mix-blend-mode:color-dodge" opacity="0.9" d="M25.2848 42.0239C25.2848 42.673 24.6543 42.7077 24.6543 42.7077C24.6543 42.7077 25.2848 42.7425 25.2848 43.3916C25.2848 42.7425 25.9153 42.7077 25.9153 42.7077C25.9153 42.7077 25.2848 42.673 25.2848 42.0239Z" fill="url(#paint26_radial_2562_2414)"/>
<path style="mix-blend-mode:color-dodge" opacity="0.9" d="M33.5092 34.5356C33.5092 35.5817 32.4951 35.6367 32.4951 35.6367C32.4951 35.6367 33.5092 35.6932 33.5092 36.7392C33.5092 35.6932 34.5247 35.6367 34.5247 35.6367C34.5247 35.6367 33.5092 35.5802 33.5092 34.5356Z" fill="url(#paint27_radial_2562_2414)"/>
</g>
</g>
</g>
<rect x="0.233333" y="0.233333" width="55.5333" height="55.5333" rx="27.7667" stroke="white" stroke-opacity="0.2" stroke-width="0.466667"/>
<defs>
<filter id="filter0_f_2562_2414" x="-20.7407" y="-20.7407" width="97.4815" height="97.4815" filterUnits="userSpaceOnUse" color-interpolation-filters="sRGB">
<feFlood flood-opacity="0" result="BackgroundImageFix"/>
<feBlend mode="normal" in="SourceGraphic" in2="BackgroundImageFix" result="shape"/>
<feGaussianBlur stdDeviation="10.3704" result="effect1_foregroundBlur_2562_2414"/>
</filter>
<radialGradient id="paint0_radial_2562_2414" cx="0" cy="0" r="1" gradientUnits="userSpaceOnUse" gradientTransform="translate(28 28) scale(38.6579)">
<stop stop-color="#FA1E42"/>
<stop offset="1" stop-opacity="0"/>
</radialGradient>
<linearGradient id="paint1_linear_2562_2414" x1="5.54541" y1="20.6263" x2="24.1674" y2="33.9572" gradientUnits="userSpaceOnUse">
<stop stop-color="#5F39FF"/>
<stop offset="0.11" stop-color="#614FFE"/>
<stop offset="0.91" stop-color="#73E9FE"/>
</linearGradient>
<linearGradient id="paint2_linear_2562_2414" x1="30.0355" y1="24.3731" x2="22.9593" y2="19.3074" gradientUnits="userSpaceOnUse">
<stop stop-color="#5F39FF"/>
<stop offset="0.11" stop-color="#614FFE"/>
<stop offset="0.91" stop-color="#73E9FE"/>
</linearGradient>
<linearGradient id="paint3_linear_2562_2414" x1="30.483" y1="25.0247" x2="29.063" y2="24.0082" gradientUnits="userSpaceOnUse">
<stop stop-color="#5F39FF"/>
<stop offset="0.11" stop-color="#614FFE"/>
<stop offset="0.91" stop-color="#73E9FE"/>
</linearGradient>
<linearGradient id="paint4_linear_2562_2414" x1="34.0153" y1="15.8975" x2="38.1421" y2="18.8518" gradientUnits="userSpaceOnUse">
<stop stop-color="#FFE98D"/>
<stop offset="0.13" stop-color="#FEE38F"/>
<stop offset="0.28" stop-color="#FED495"/>
<stop offset="0.45" stop-color="#FEBB9F"/>
<stop offset="0.64" stop-color="#FD99AD"/>
<stop offset="0.82" stop-color="#FC6DBF"/>
<stop offset="1" stop-color="#FC3DD3"/>
</linearGradient>
<linearGradient id="paint5_linear_2562_2414" x1="20.6887" y1="37.2695" x2="17.5117" y2="41.8365" gradientUnits="userSpaceOnUse">
<stop stop-color="#5F39FF"/>
<stop offset="0.11" stop-color="#614FFE"/>
<stop offset="0.91" stop-color="#73E9FE"/>
</linearGradient>
<linearGradient id="paint6_linear_2562_2414" x1="20.8244" y1="37.5769" x2="18.6682" y2="40.6765" gradientUnits="userSpaceOnUse">
<stop stop-color="#5F39FF"/>
<stop offset="0.11" stop-color="#614FFE"/>
<stop offset="0.91" stop-color="#73E9FE"/>
</linearGradient>
<linearGradient id="paint7_linear_2562_2414" x1="22.2264" y1="38.3373" x2="19.0494" y2="42.9043" gradientUnits="userSpaceOnUse">
<stop stop-color="#5F39FF"/>
<stop offset="0.11" stop-color="#614FFE"/>
<stop offset="0.91" stop-color="#73E9FE"/>
</linearGradient>
<linearGradient id="paint8_linear_2562_2414" x1="21.887" y1="38.3139" x2="19.7299" y2="41.4147" gradientUnits="userSpaceOnUse">
<stop stop-color="#5F39FF"/>
<stop offset="0.11" stop-color="#614FFE"/>
<stop offset="0.91" stop-color="#73E9FE"/>
</linearGradient>
<linearGradient id="paint9_linear_2562_2414" x1="24.956" y1="32.5533" x2="25.2902" y2="32.7926" gradientUnits="userSpaceOnUse">
<stop stop-color="#5F39FF"/>
<stop offset="0.11" stop-color="#614FFE"/>
<stop offset="0.91" stop-color="#73E9FE"/>
</linearGradient>
<linearGradient id="paint10_linear_2562_2414" x1="29.7257" y1="24.1305" x2="31.7309" y2="25.5659" gradientUnits="userSpaceOnUse">
<stop stop-color="#5F39FF"/>
<stop offset="0.11" stop-color="#614FFE"/>
<stop offset="0.91" stop-color="#73E9FE"/>
</linearGradient>
<linearGradient id="paint11_linear_2562_2414" x1="18.6102" y1="43.8935" x2="16.6158" y2="42.4657" gradientUnits="userSpaceOnUse">
<stop stop-color="#FFE98D"/>
<stop offset="0.13" stop-color="#FEE38F"/>
<stop offset="0.28" stop-color="#FED495"/>
<stop offset="0.45" stop-color="#FEBB9F"/>
<stop offset="0.64" stop-color="#FD99AD"/>
<stop offset="0.82" stop-color="#FC6DBF"/>
<stop offset="1" stop-color="#FC3DD3"/>
</linearGradient>
<linearGradient id="paint12_linear_2562_2414" x1="34.2528" y1="18.7368" x2="35.3778" y2="19.5422" gradientUnits="userSpaceOnUse">
<stop stop-color="#5F39FF"/>
<stop offset="0.11" stop-color="#614FFE"/>
<stop offset="0.91" stop-color="#73E9FE"/>
</linearGradient>
<linearGradient id="paint13_linear_2562_2414" x1="9.00496" y1="11.8371" x2="9.33244" y2="18.7391" gradientUnits="userSpaceOnUse">
<stop stop-color="#FFE98D"/>
<stop offset="0.13" stop-color="#FEE38F"/>
<stop offset="0.28" stop-color="#FED495"/>
<stop offset="0.45" stop-color="#FEBB9F"/>
<stop offset="0.64" stop-color="#FD99AD"/>
<stop offset="0.82" stop-color="#FC6DBF"/>
<stop offset="1" stop-color="#FC3DD3"/>
</linearGradient>
<linearGradient id="paint14_linear_2562_2414" x1="43.3734" y1="47.0885" x2="24.4648" y2="33.5525" gradientUnits="userSpaceOnUse">
<stop stop-color="#5F39FF"/>
<stop offset="0.11" stop-color="#614FFE"/>
<stop offset="0.91" stop-color="#73E9FE"/>
</linearGradient>
<linearGradient id="paint15_linear_2562_2414" x1="31.6574" y1="25.4988" x2="38.7336" y2="30.5645" gradientUnits="userSpaceOnUse">
<stop stop-color="#5F39FF"/>
<stop offset="0.11" stop-color="#614FFE"/>
<stop offset="0.91" stop-color="#73E9FE"/>
</linearGradient>
<linearGradient id="paint16_linear_2562_2414" x1="30.8833" y1="25.3029" x2="32.3033" y2="26.3195" gradientUnits="userSpaceOnUse">
<stop stop-color="#5F39FF"/>
<stop offset="0.11" stop-color="#614FFE"/>
<stop offset="0.91" stop-color="#73E9FE"/>
</linearGradient>
<linearGradient id="paint17_linear_2562_2414" x1="50.6857" y1="40.8316" x2="43.9927" y2="42.8847" gradientUnits="userSpaceOnUse">
<stop stop-color="#FFE98D"/>
<stop offset="0.13" stop-color="#FEE38F"/>
<stop offset="0.28" stop-color="#FED495"/>
<stop offset="0.45" stop-color="#FEBB9F"/>
<stop offset="0.64" stop-color="#FD99AD"/>
<stop offset="0.82" stop-color="#FC6DBF"/>
<stop offset="1" stop-color="#FC3DD3"/>
</linearGradient>
<linearGradient id="paint18_linear_2562_2414" x1="26.9189" y1="28.7479" x2="29.0823" y2="28.7479" gradientUnits="userSpaceOnUse">
<stop stop-color="#FFE98D"/>
<stop offset="0.13" stop-color="#FEE38F"/>
<stop offset="0.28" stop-color="#FED495"/>
<stop offset="0.45" stop-color="#FEBB9F"/>
<stop offset="0.64" stop-color="#FD99AD"/>
<stop offset="0.82" stop-color="#FC6DBF"/>
<stop offset="1" stop-color="#FC3DD3"/>
</linearGradient>
<linearGradient id="paint19_linear_2562_2414" x1="25.4551" y1="31.1817" x2="26.963" y2="31.1817" gradientUnits="userSpaceOnUse">
<stop stop-color="#FFE98D"/>
<stop offset="0.13" stop-color="#FEE38F"/>
<stop offset="0.28" stop-color="#FED495"/>
<stop offset="0.45" stop-color="#FEBB9F"/>
<stop offset="0.64" stop-color="#FD99AD"/>
<stop offset="0.82" stop-color="#FC6DBF"/>
<stop offset="1" stop-color="#FC3DD3"/>
</linearGradient>
<radialGradient id="paint20_radial_2562_2414" cx="0" cy="0" r="1" gradientUnits="userSpaceOnUse" gradientTransform="translate(32.2323 12.7823) scale(0.593748 0.5853)">
<stop offset="0.31" stop-color="white"/>
<stop offset="0.9" stop-color="white" stop-opacity="0"/>
</radialGradient>
<radialGradient id="paint21_radial_2562_2414" cx="0" cy="0" r="1" gradientUnits="userSpaceOnUse" gradientTransform="translate(33.9425 29.0028) scale(0.348312 0.343358)">
<stop offset="0.31" stop-color="white"/>
<stop offset="0.9" stop-color="white" stop-opacity="0"/>
</radialGradient>
<radialGradient id="paint22_radial_2562_2414" cx="0" cy="0" r="1" gradientUnits="userSpaceOnUse" gradientTransform="translate(14.4343 33.1548) scale(0.382114 0.376679)">
<stop offset="0.31" stop-color="white"/>
<stop offset="0.9" stop-color="white" stop-opacity="0"/>
</radialGradient>
<radialGradient id="paint23_radial_2562_2414" cx="0" cy="0" r="1" gradientUnits="userSpaceOnUse" gradientTransform="translate(22.3503 19.3291) scale(0.382114 0.376678)">
<stop offset="0.31" stop-color="white"/>
<stop offset="0.9" stop-color="white" stop-opacity="0"/>
</radialGradient>
<radialGradient id="paint24_radial_2562_2414" cx="0" cy="0" r="1" gradientUnits="userSpaceOnUse" gradientTransform="translate(19.1362 24.5233) scale(0.611383 0.602686)">
<stop offset="0.31" stop-color="white"/>
<stop offset="0.9" stop-color="white" stop-opacity="0"/>
</radialGradient>
<radialGradient id="paint25_radial_2562_2414" cx="0" cy="0" r="1" gradientUnits="userSpaceOnUse" gradientTransform="translate(40.2472 18.7745) scale(1.0611 1.04601)">
<stop stop-color="white"/>
<stop offset="0.03" stop-color="white" stop-opacity="0.96"/>
<stop offset="0.18" stop-color="white" stop-opacity="0.71"/>
<stop offset="0.34" stop-color="white" stop-opacity="0.49"/>
<stop offset="0.49" stop-color="white" stop-opacity="0.32"/>
<stop offset="0.64" stop-color="white" stop-opacity="0.18"/>
<stop offset="0.78" stop-color="white" stop-opacity="0.08"/>
<stop offset="0.9" stop-color="white" stop-opacity="0.02"/>
<stop offset="1" stop-color="white" stop-opacity="0"/>
</radialGradient>
<radialGradient id="paint26_radial_2562_2414" cx="0" cy="0" r="1" gradientUnits="userSpaceOnUse" gradientTransform="translate(25.2848 42.7077) scale(1.04494 1.03007)">
<stop stop-color="white"/>
<stop offset="0.03" stop-color="white" stop-opacity="0.96"/>
<stop offset="0.18" stop-color="white" stop-opacity="0.71"/>
<stop offset="0.34" stop-color="white" stop-opacity="0.49"/>
<stop offset="0.49" stop-color="white" stop-opacity="0.32"/>
<stop offset="0.64" stop-color="white" stop-opacity="0.18"/>
<stop offset="0.78" stop-color="white" stop-opacity="0.08"/>
<stop offset="0.9" stop-color="white" stop-opacity="0.02"/>
<stop offset="1" stop-color="white" stop-opacity="0"/>
</radialGradient>
<radialGradient id="paint27_radial_2562_2414" cx="0" cy="0" r="1" gradientUnits="userSpaceOnUse" gradientTransform="translate(33.5092 35.6367) scale(1.68277 1.65883)">
<stop stop-color="white"/>
<stop offset="0.03" stop-color="white" stop-opacity="0.96"/>
<stop offset="0.18" stop-color="white" stop-opacity="0.71"/>
<stop offset="0.34" stop-color="white" stop-opacity="0.49"/>
<stop offset="0.49" stop-color="white" stop-opacity="0.32"/>
<stop offset="0.64" stop-color="white" stop-opacity="0.18"/>
<stop offset="0.78" stop-color="white" stop-opacity="0.08"/>
<stop offset="0.9" stop-color="white" stop-opacity="0.02"/>
<stop offset="1" stop-color="white" stop-opacity="0"/>
</radialGradient>
<clipPath id="clip0_2562_2414">
<rect width="56" height="56" rx="28" fill="white"/>
</clipPath>
<clipPath id="clip1_2562_2414">
<rect width="40" height="41" fill="white" transform="translate(8 8)"/>
</clipPath>
</defs>
</svg>
