<svg width="56" height="56" viewBox="0 0 56 56" fill="none" xmlns="http://www.w3.org/2000/svg">
<g clip-path="url(#clip0_2562_1882)">
<g filter="url(#filter0_f_2562_1882)">
<path d="M56 0H0V56H56V0Z" fill="url(#paint0_radial_2562_1882)"/>
</g>
<g clip-path="url(#clip1_2562_1882)">
<g opacity="0.2">
<g style="mix-blend-mode:screen" opacity="0.5">
<path d="M43.2132 27.6046C43.2132 35.5683 36.6583 42.0261 28.5719 42.0261C20.4856 42.0261 13.9307 35.5696 13.9307 27.6046C13.9307 19.6396 20.4856 13.1831 28.5719 13.1831C36.6583 13.1831 43.2132 19.6396 43.2132 27.6046Z" stroke="#FC3DD3" stroke-width="2.62" stroke-miterlimit="10"/>
</g>
<g style="mix-blend-mode:screen" opacity="0.5">
<path d="M42.5326 27.6044C42.5326 35.1991 36.2824 41.3555 28.572 41.3555C20.8615 41.3555 14.6113 35.1991 14.6113 27.6044C14.6113 20.0096 20.8615 13.8521 28.572 13.8521C36.2824 13.8521 42.5326 20.0097 42.5326 27.6031V27.6044Z" stroke="#FC3DD3" stroke-width="1.35" stroke-miterlimit="10"/>
</g>
<g style="mix-blend-mode:screen" opacity="0.5">
<path d="M41.7975 27.6048C41.7975 34.7993 35.8762 40.6317 28.5721 40.6317C21.268 40.6317 15.3467 34.7993 15.3467 27.6048C15.3467 20.4103 21.268 14.5767 28.5721 14.5767C35.8762 14.5767 41.7975 20.4091 41.7975 27.6036V27.6048Z" fill="#FC3DD3"/>
</g>
</g>
<g style="mix-blend-mode:screen" opacity="0.8">
<path d="M42.5132 31.9424L42.8306 29.1444C43.0401 29.0881 43.1925 28.9017 43.1925 28.6791C43.1925 28.4114 42.9741 28.195 42.7024 28.195C42.6693 28.195 42.6389 28.1988 42.6071 28.2038L40.8154 25.4571C40.8738 25.377 40.9093 25.2795 40.9093 25.1732C40.9093 24.9055 40.6897 24.6891 40.4179 24.6891C40.3544 24.6891 40.2947 24.7016 40.2401 24.7229L38.1589 22.5165C38.2135 22.4377 38.2465 22.3439 38.2465 22.2413C38.2465 21.9737 38.0268 21.756 37.7551 21.756C37.4833 21.756 37.2636 21.9737 37.2636 22.2413C37.2636 22.2588 37.2674 22.2751 37.2687 22.2926L34.3913 23.0368C34.3011 22.9155 34.1589 22.8367 33.9951 22.8367C33.722 22.8367 33.5036 23.0543 33.5036 23.3207C33.5036 23.3308 33.5062 23.3408 33.5074 23.3508L31.2687 24.3927C31.0668 24.105 30.7303 23.9161 30.3493 23.9161C29.7538 23.9161 29.2713 24.3752 29.237 24.9543L24.6465 25.4333C24.5639 25.2795 24.4027 25.1732 24.2147 25.1732C24.0395 25.1732 23.8871 25.2632 23.7995 25.3983L22.1017 25.0806C22.0586 24.8567 21.8592 24.6879 21.6205 24.6879C21.5392 24.6879 21.4643 24.7091 21.397 24.7429L19.9316 23.4808C19.9493 23.4308 19.9608 23.3758 19.9608 23.3195C19.9608 23.0518 19.7424 22.8354 19.4706 22.8354C19.3843 22.8354 19.3055 22.8592 19.2357 22.8967L16.5817 20.7229C16.6795 20.5603 16.7392 20.3714 16.7392 20.1675C16.7392 19.9074 16.644 19.6722 16.4916 19.4833L17.8198 18.0625C17.8744 18.0825 17.9328 18.095 17.9938 18.095C18.2109 18.095 18.3925 17.9561 18.4573 17.7635L21.397 17.5947C21.4757 17.7598 21.6446 17.8748 21.8414 17.8748C22.1132 17.8748 22.3328 17.6585 22.3328 17.3908C22.3328 17.1231 22.1144 16.9067 21.8414 16.9067C21.6243 16.9067 21.4414 17.0468 21.3766 17.2382L18.437 17.4071C18.3582 17.2419 18.1906 17.1269 17.9938 17.1269C17.7208 17.1269 17.5024 17.3445 17.5024 17.6109C17.5024 17.686 17.5214 17.756 17.5519 17.8198L16.2236 19.2419C16.0497 19.1319 15.8427 19.0656 15.6205 19.0656C15.002 19.0656 14.5017 19.5596 14.5017 20.1675C14.5017 20.4189 14.5906 20.6491 14.7354 20.8342L13.2878 22.3839C13.2344 22.3626 13.176 22.3514 13.1138 22.3514C12.8408 22.3514 12.6211 22.569 12.6211 22.8367C12.6211 23.1044 12.8408 23.3207 13.1138 23.3207C13.3868 23.3207 13.604 23.1044 13.604 22.8367C13.604 22.7616 13.5849 22.6916 13.5544 22.6278L14.9957 21.0843C15.1735 21.2019 15.3881 21.272 15.6192 21.272C15.8998 21.272 16.1525 21.1669 16.3481 20.9993L19.0033 23.1732C18.9868 23.2207 18.9766 23.2695 18.9766 23.3207C18.9766 23.5884 19.1963 23.806 19.4693 23.806C19.5493 23.806 19.6243 23.7848 19.6916 23.751L21.157 25.0131C21.1392 25.0631 21.1278 25.1169 21.1278 25.1732C21.1278 25.4408 21.3474 25.6572 21.6192 25.6572C21.7932 25.6572 21.9455 25.5672 22.0332 25.4321L23.7322 25.7498C23.7754 25.9737 23.9735 26.1425 24.2147 26.1425C24.4395 26.1425 24.6274 25.9924 24.6859 25.7885L29.2751 25.3107C29.4059 25.776 29.8351 26.1212 30.3493 26.1212C30.9665 26.1212 31.4681 25.6284 31.4681 25.0193C31.4681 24.9117 31.4478 24.8092 31.4186 24.7116L33.6598 23.6735C33.7487 23.756 33.8655 23.8073 33.9976 23.8073C34.249 23.8073 34.4522 23.6222 34.4827 23.3833L37.449 22.6178C37.5341 22.6853 37.6408 22.7279 37.7576 22.7279C37.7906 22.7279 37.8224 22.7241 37.8541 22.7179L39.9798 24.9668C39.9481 25.0306 39.929 25.1006 39.929 25.1757C39.929 25.4433 40.1487 25.6597 40.4217 25.6597C40.4535 25.6597 40.4839 25.656 40.5144 25.651L42.3049 28.4002C42.2478 28.479 42.2122 28.5765 42.2122 28.6816C42.2122 28.8655 42.3176 29.0243 42.4713 29.1069L42.1538 31.9061C41.6801 31.9311 41.2878 32.2438 41.1506 32.6728L39.237 32.4039C39.1849 32.1913 38.9919 32.0324 38.7608 32.0324C38.5741 32.0324 38.4128 32.1375 38.329 32.2889L36.0928 32.0374C36.0357 31.8323 35.8478 31.6797 35.6205 31.6797C35.3487 31.6797 35.129 31.8974 35.129 32.165C35.129 32.4327 35.3474 32.6503 35.6205 32.6503C35.8084 32.6503 35.9684 32.5453 36.0509 32.3939L38.2859 32.6453C38.343 32.8517 38.5309 33.003 38.7582 33.003C38.9398 33.003 39.0986 32.9042 39.1824 32.7591L41.0947 33.0281C41.1087 33.6259 41.6014 34.1062 42.2109 34.1062C42.8205 34.1062 43.3297 33.6122 43.3297 33.0043C43.3297 32.5002 42.9843 32.0787 42.5144 31.9486L42.5132 31.9424Z" fill="#FC3DD3"/>
</g>
<path d="M29.1741 30.9043C27.037 32.3727 24.43 30.6116 22.1557 30.3114C21.8307 30.2051 21.5005 30.6241 21.0383 30.5578C20.2522 30.9931 19.5284 31.8637 18.6878 32.3752C18.1329 32.7129 17.1868 33.0432 16.6611 32.6604C17.3253 32.6742 17.8891 32.3977 18.0618 32.1038C18.11 32.0213 18.0707 31.8737 18.1672 31.8249C18.3576 31.7111 18.9659 30.8443 19.6059 30.2201C19.6897 30.1438 19.964 29.9275 20.0541 29.8512C20.1494 29.7799 20.0084 29.6836 20.1062 29.6098C20.6497 29.2996 21.2808 28.868 21.8878 29.0194C22.3868 28.8293 22.8707 29.0794 23.3481 29.1632C23.6618 29.0269 24.1075 29.2733 24.0592 29.2545C25.6808 30.1063 27.3672 31.1595 29.1754 30.9043H29.1741Z" fill="url(#paint1_linear_2562_1882)"/>
<path d="M21.7954 30.3665C21.8094 30.3628 21.7002 30.3953 21.7472 30.3815H21.7484L21.7573 30.379L21.7954 30.3678V30.3665Z" fill="url(#paint2_linear_2562_1882)"/>
<g style="mix-blend-mode:multiply" opacity="0.5">
<path d="M29.1454 30.9706C29.0438 30.9757 28.8876 31.0144 28.701 31.0069C28.5168 30.9994 28.3111 30.9944 28.0622 30.9469C28.0013 30.9381 27.9391 30.9281 27.873 30.9181C27.8095 30.9006 27.7435 30.8818 27.6762 30.8631C27.5416 30.8256 27.4032 30.798 27.2584 30.7405C26.6756 30.5516 26.0508 30.2515 25.3181 29.9225C25.0032 29.7824 24.7111 29.5673 24.3594 29.4297C24.8965 29.7974 25.1721 30.4391 25.2889 31.1758C25.9238 31.3521 26.546 31.4835 27.1149 31.5135C27.2851 31.5297 27.4565 31.5235 27.6152 31.5147C27.6952 31.511 27.7714 31.506 27.8476 31.5022C27.9225 31.4897 27.9962 31.4772 28.0673 31.466C28.2083 31.4359 28.3365 31.4322 28.4572 31.3834C28.574 31.3409 28.6832 31.3009 28.7797 31.2658C28.8775 31.2358 28.9473 31.1883 29.0108 31.147C29.073 31.107 29.1276 31.072 29.1708 31.0444C29.2572 30.9869 29.3029 30.9569 29.3029 30.9569C29.3029 30.9569 29.247 30.9619 29.1441 30.9719L29.1454 30.9706Z" fill="#5F39FF"/>
</g>
<g style="mix-blend-mode:multiply" opacity="0.5">
<path d="M23.3445 29.1705C23.8308 29.4957 23.7724 30.1211 23.7724 30.1211C23.6264 29.4757 23.1172 29.1143 23.1172 29.1143L23.3445 29.1718V29.1705Z" fill="#5F39FF"/>
</g>
<g style="mix-blend-mode:multiply" opacity="0.5">
<path d="M21.8877 29.0208C22.0579 29.351 22.1366 29.7525 22.0833 30.0077C22.2572 29.4861 22.1023 28.9933 22.1023 28.9933C21.9817 28.9758 21.8877 29.0208 21.8877 29.0208Z" fill="#5F39FF"/>
</g>
<g style="mix-blend-mode:multiply" opacity="0.5">
<path d="M21.0355 30.5578C20.4222 30.5327 20.3561 29.8511 20.3561 29.8511C20.313 30.3414 20.8158 30.6891 20.8158 30.6891L21.0355 30.5578Z" fill="#5F39FF"/>
</g>
<path d="M29.4389 28.6964C27.124 29.8734 24.7748 27.7884 22.5602 27.1943C22.2516 27.0454 21.8681 27.4194 21.4186 27.2931C20.0307 27.8422 18.2567 29.946 16.8535 28.39C17.3297 28.5739 17.7894 28.6101 18.131 28.4638C18.1907 28.4375 18.1742 28.3487 18.2326 28.3162C18.9234 27.9235 19.458 27.0567 20.2719 26.5113C20.3646 26.4463 20.4561 26.3775 20.5538 26.315C20.6605 26.2562 20.5538 26.1073 20.7291 26.0686C20.997 25.8659 21.943 25.6233 22.4662 25.8797C22.9449 26.1148 23.4313 26.0661 23.8935 26.2124C24.2237 26.1186 24.6326 26.4213 24.5868 26.395C26.0776 27.4532 27.6103 28.714 29.4376 28.6964H29.4389Z" fill="url(#paint3_linear_2562_1882)"/>
<g style="mix-blend-mode:multiply" opacity="0.5">
<path d="M29.2793 28.6913C29.1778 28.6826 29.0177 28.7013 28.8349 28.6688C28.652 28.6375 28.4501 28.6063 28.2089 28.5262C28.1504 28.5087 28.0895 28.4912 28.0273 28.4724C27.9663 28.4462 27.9028 28.4199 27.8381 28.3924C27.7111 28.3361 27.5765 28.2923 27.4381 28.216C26.8882 27.9546 26.2774 27.5706 25.5955 27.1516C25.3022 26.9715 25.0482 26.6513 24.7168 26.4712C25.2006 26.9052 25.4127 27.6469 25.4292 28.3936C26.0336 28.6513 26.6343 28.8627 27.1943 28.9653C27.3619 29.004 27.532 29.0203 27.692 29.0328C27.7708 29.039 27.8482 29.0453 27.9231 29.0503C27.9981 29.0478 28.0743 29.0453 28.1454 29.0428C28.2914 29.0315 28.4158 29.044 28.5441 29.0103C28.6673 28.984 28.7777 28.9577 28.8793 28.9352C28.9797 28.919 29.0558 28.8802 29.1244 28.8477C29.1917 28.8164 29.2501 28.7889 29.2984 28.7676C29.3911 28.7213 29.4419 28.6976 29.4419 28.6976C29.4419 28.6976 29.386 28.6951 29.2819 28.6913H29.2793Z" fill="#5F39FF"/>
</g>
<g style="mix-blend-mode:multiply" opacity="0.5">
<path d="M23.8957 26.2124C24.3363 26.5977 24.1953 27.2105 24.1953 27.2105C24.1357 26.5514 23.6963 26.1611 23.6963 26.1611L23.8957 26.2124Z" fill="#5F39FF"/>
</g>
<g style="mix-blend-mode:multiply" opacity="0.5">
<path d="M22.5374 25.9097C22.6606 26.2586 22.6771 26.6264 22.5882 26.8728C22.8295 26.3787 22.7545 25.991 22.7545 25.991C22.6085 25.9359 22.5361 25.9097 22.5361 25.9097H22.5374Z" fill="#5F39FF"/>
</g>
<g style="mix-blend-mode:multiply" opacity="0.5">
<path d="M21.4197 27.2931C20.814 27.1881 20.8432 26.5039 20.8432 26.5039C20.734 26.9842 21.186 27.3945 21.186 27.3945L21.4197 27.2919V27.2931Z" fill="#5F39FF"/>
</g>
<path d="M29.4386 25.7645C29.4386 25.7645 29.3891 25.7883 29.2951 25.8346C29.2481 25.8558 29.1897 25.8833 29.1212 25.9146C29.0526 25.9471 28.9764 25.9859 28.8761 26.0022C28.7745 26.0247 28.6627 26.0497 28.5408 26.0772C28.4139 26.1097 28.2869 26.0972 28.1421 26.1085C28.071 26.111 27.9961 26.1135 27.9212 26.116C27.8462 26.111 27.7688 26.1047 27.69 26.0985C27.5313 26.0872 27.3599 26.0697 27.1935 26.0322C26.5066 25.9059 25.7586 25.6194 25.017 25.2805C24.6551 25.1116 24.2818 24.9377 23.9021 24.7614C23.5326 24.595 23.1643 24.4287 22.8177 24.3336C22.7326 24.3124 22.6437 24.2748 22.5624 24.2623L22.3224 24.2223C22.2437 24.211 21.6799 24.4837 21.4221 24.3624L21.1872 24.4637L20.951 24.5888C20.3186 24.9403 19.7167 25.4293 19.0729 25.7395C18.918 25.8196 18.7466 25.8808 18.5891 25.9346C18.4202 25.9746 18.2627 26.0147 18.104 26.0184C17.9453 26.0184 17.8031 26.0272 17.6723 25.9797C17.61 25.9621 17.5478 25.9459 17.4907 25.9296C17.4348 25.9096 17.3878 25.8771 17.3396 25.8533C17.1478 25.7645 17.0424 25.6432 16.9662 25.5706C16.8939 25.4968 16.8545 25.4581 16.8545 25.4581C16.8545 25.4581 16.9091 25.4743 17.0081 25.5044C17.0551 25.5194 17.1148 25.5381 17.1834 25.5594C17.2494 25.5832 17.3358 25.5794 17.4208 25.5932C17.4653 25.5969 17.5085 25.6082 17.5554 25.6044C17.6012 25.5982 17.8323 25.6157 18.0062 25.5444C18.137 25.4931 18.0227 25.4331 18.1256 25.3968C18.3288 25.3092 18.4113 25.2742 18.6323 25.0741C19.0831 24.6926 19.5542 24.111 20.2729 23.5756C20.3669 23.5106 20.457 23.4418 20.5561 23.3793C20.6627 23.3205 20.5751 23.1304 20.6818 23.0703C20.8977 22.9628 21.5631 22.7789 21.9605 22.8102C22.358 22.8414 22.3631 22.8677 22.4685 22.9453C22.551 22.8602 22.8443 22.9315 22.8443 22.9315C22.9764 22.9528 23.0907 22.994 23.2151 23.0266C23.4653 23.0916 23.6697 23.1942 23.8958 23.278C24.2272 23.1829 24.7148 23.4768 24.6704 23.4506C25.0602 23.6582 25.2875 23.9784 25.6278 24.1873C26.3097 24.6075 26.8888 25.0191 27.4386 25.2805C27.5758 25.358 27.7091 25.4018 27.8373 25.4568C27.9021 25.4843 27.9643 25.5106 28.0266 25.5369C28.09 25.5556 28.1497 25.5731 28.2081 25.5907C28.4507 25.6707 28.6526 25.702 28.8342 25.7332C29.0183 25.7658 29.1783 25.747 29.2799 25.7558C29.3853 25.7595 29.4399 25.762 29.4399 25.762L29.4386 25.7645Z" fill="url(#paint4_linear_2562_1882)"/>
<g style="mix-blend-mode:multiply" opacity="0.5">
<path d="M29.279 25.7109C29.1775 25.7021 29.0175 25.7209 28.8333 25.6883C28.653 25.6571 28.4498 25.6258 28.2073 25.5458C28.1489 25.5282 28.0892 25.5107 28.0257 25.492C27.9648 25.4657 27.9013 25.4394 27.8365 25.4119C27.7083 25.3569 27.5749 25.3119 27.4378 25.2356C26.8879 24.9742 26.2771 24.5914 25.5952 24.1711C25.3019 23.991 25.0467 23.6708 24.7178 23.4907C25.2003 23.9247 25.4124 24.6665 25.4289 25.4132C26.0333 25.6708 26.634 25.8835 27.1927 25.9848C27.3603 26.0223 27.5305 26.0398 27.6892 26.0511C27.7679 26.0573 27.8454 26.0636 27.9203 26.0686C27.9965 26.0661 28.0702 26.0636 28.1413 26.0611C28.2873 26.0498 28.413 26.0611 28.54 26.0298C28.6619 26.0023 28.7749 25.9773 28.8752 25.9548C28.9756 25.9385 29.0517 25.8985 29.1203 25.8672C29.1889 25.8359 29.2473 25.8084 29.2943 25.7872C29.3883 25.7409 29.4378 25.7171 29.4378 25.7171C29.4378 25.7171 29.3819 25.7146 29.2778 25.7109H29.279Z" fill="#5F39FF"/>
</g>
<g style="mix-blend-mode:multiply" opacity="0.5">
<path d="M23.8956 23.2841C24.3362 23.6693 24.1952 24.2822 24.1952 24.2822C24.1368 23.6218 23.6797 23.1978 23.6797 23.1978L23.8956 23.2841Z" fill="#5F39FF"/>
</g>
<g style="mix-blend-mode:multiply" opacity="0.5">
<path d="M22.4697 22.9577C22.5916 23.3067 22.6081 23.6744 22.5205 23.9208C22.7618 23.4255 22.6742 22.9177 22.6742 22.9177C22.5269 22.8627 22.4697 22.9565 22.4697 22.9565V22.9577Z" fill="#5F39FF"/>
</g>
<g style="mix-blend-mode:multiply" opacity="0.5">
<path d="M21.421 24.3522C20.8153 24.2472 20.8445 23.563 20.8445 23.563C20.734 24.0433 21.1874 24.4535 21.1874 24.4535L21.4223 24.3522H21.421Z" fill="#5F39FF"/>
</g>
<path d="M28.2943 24.22C28.2943 24.22 28.2397 24.225 28.1356 24.235C28.0836 24.2388 28.0188 24.2438 27.9439 24.2488C27.869 24.255 27.7839 24.265 27.6836 24.2463C27.582 24.2325 27.4677 24.2163 27.3432 24.1987C27.2112 24.185 27.0982 24.1287 26.961 24.0887C26.8924 24.0662 26.8226 24.0424 26.7502 24.0186C26.6804 23.9861 26.6105 23.9548 26.5407 23.9211C26.3947 23.8535 26.2423 23.7785 26.0988 23.6847C25.5032 23.327 24.9064 22.7966 24.3337 22.2213C24.0569 21.9373 23.7699 21.6446 23.4778 21.347C23.1934 21.0618 22.9077 20.7791 22.6194 20.5677C22.547 20.5177 22.4772 20.4514 22.4074 20.4114L22.1966 20.2901C22.1267 20.2513 21.5032 20.3101 21.3039 20.1062L21.0486 20.1187L20.7832 20.1525C20.0658 20.26 19.328 20.5077 18.6143 20.5727C18.4404 20.594 18.2575 20.5902 18.0912 20.5852C17.9197 20.564 17.7547 20.5465 17.6086 20.4952C17.4601 20.4401 17.3216 20.3989 17.2188 20.3088C17.1655 20.27 17.1147 20.2338 17.0664 20.1975C17.022 20.16 16.989 20.1124 16.9547 20.0737C16.8048 19.9236 16.7515 19.7735 16.707 19.6784C16.6639 19.5846 16.6436 19.5346 16.6436 19.5346C16.6436 19.5346 16.688 19.5671 16.7693 19.6309C16.8086 19.6622 16.8582 19.6997 16.914 19.7447C16.9674 19.791 17.0499 19.8173 17.1236 19.8598C17.1629 19.8785 17.1997 19.9036 17.2442 19.9173C17.2899 19.9286 17.3369 19.9386 17.3864 19.9498C17.4778 19.9799 17.8804 20.0874 17.9896 20.0899C18.1001 20.0849 18.0556 20.0386 18.095 19.9811C18.1343 19.9236 18.255 19.8573 18.3947 19.8022C18.9521 19.6021 19.6505 19.2206 20.5153 18.9717C20.6258 18.9442 20.7578 18.9104 20.8721 18.8867C20.881 18.8429 20.9242 18.7441 20.9534 18.7203C21.8778 18.5465 22.4023 18.9267 22.4023 18.9267C22.5356 18.9705 22.7248 19.0393 22.7959 19.1493C22.9051 19.0981 23.1515 19.2669 23.1515 19.2669C23.2683 19.3332 23.361 19.412 23.4639 19.4845C23.6759 19.6334 23.8283 19.7997 24.0112 19.9586C24.354 19.9861 24.6258 20.4101 24.5928 20.3714C24.8823 20.7016 25.0194 21.1156 25.262 21.4295C25.7483 22.0612 26.1813 22.6328 26.6017 23.0693C26.7007 23.1894 26.8112 23.2769 26.9115 23.3745C26.961 23.4233 27.0118 23.4695 27.0588 23.5158C27.1109 23.5546 27.1604 23.5934 27.2099 23.6296C27.4067 23.7885 27.5832 23.8886 27.742 23.9811C27.9032 24.0749 28.0594 24.1137 28.1509 24.1575C28.2474 24.1975 28.2982 24.22 28.2982 24.22H28.2943Z" fill="url(#paint5_linear_2562_1882)"/>
<g style="mix-blend-mode:multiply" opacity="0.5">
<path d="M28.1485 24.1572C28.0571 24.1135 27.9009 24.0747 27.7396 23.9809C27.5809 23.8883 27.4044 23.787 27.2075 23.6294C27.158 23.5931 27.1085 23.5544 27.0564 23.5156C27.0082 23.4693 26.9574 23.423 26.9091 23.3742C26.8088 23.2779 26.6983 23.1891 26.5993 23.069C26.2869 22.7451 25.9682 22.3461 25.6266 21.9033C25.7637 22.3686 25.7993 22.8752 25.5479 23.3004C25.732 23.4418 25.9161 23.5719 26.099 23.6832C26.2425 23.777 26.3948 23.852 26.5409 23.9196C26.6107 23.9534 26.6818 23.9846 26.7504 24.0171C26.8228 24.0409 26.8926 24.0647 26.9612 24.0872C27.0996 24.1272 27.2126 24.1835 27.3434 24.1973C27.4679 24.2148 27.5821 24.2298 27.6837 24.2448C27.784 24.2648 27.8691 24.2548 27.944 24.2473C28.0202 24.2423 28.0837 24.2373 28.1358 24.2335C28.2386 24.2235 28.2945 24.2185 28.2945 24.2185C28.2945 24.2185 28.245 24.1973 28.1472 24.156L28.1485 24.1572Z" fill="#5F39FF"/>
</g>
<g style="mix-blend-mode:multiply" opacity="0.5">
<path d="M24.0083 19.9601C24.2788 20.4741 23.9271 20.997 23.9271 20.997C24.1099 20.3603 23.8369 19.8037 23.8369 19.8037L24.0083 19.9601Z" fill="#5F39FF"/>
</g>
<g style="mix-blend-mode:multiply" opacity="0.5">
<path d="M22.7935 19.1504C22.7834 19.5194 22.6665 19.8684 22.4951 20.0685C22.8977 19.6908 23.0005 19.1854 23.0005 19.1854C22.8862 19.1292 22.7935 19.1504 22.7935 19.1504Z" fill="#5F39FF"/>
</g>
<g style="mix-blend-mode:multiply" opacity="0.5">
<path d="M21.3025 20.1063C20.7755 19.7961 21.0473 19.167 21.0473 19.167C20.7717 19.5785 21.0473 20.1201 21.0473 20.1201L21.3025 20.1076V20.1063Z" fill="#5F39FF"/>
</g>
<path d="M27.9681 30.9043C30.1052 32.3727 32.7122 30.6116 34.9865 30.3114C35.3116 30.2051 35.6417 30.6241 36.1039 30.5578C36.89 30.9931 37.6138 31.8637 38.4544 32.3752C39.0093 32.7129 39.9554 33.0432 40.4811 32.6604C39.817 32.6742 39.2531 32.3977 39.0804 32.1038C39.0322 32.0213 39.0716 31.8737 38.975 31.8249C38.7846 31.7111 38.1763 30.8443 37.5363 30.2201C37.4525 30.1438 37.1782 29.9275 37.0881 29.8512C36.9928 29.7799 37.1338 29.6836 37.036 29.6098C36.4925 29.2996 35.8614 28.868 35.2544 29.0194C34.7554 28.8293 34.2716 29.0794 33.7941 29.1632C33.4804 29.0269 33.0347 29.2733 33.083 29.2545C31.4614 30.1063 29.7751 31.1595 27.9668 30.9043H27.9681Z" fill="url(#paint6_linear_2562_1882)"/>
<path d="M35.3469 30.3665C35.333 30.3628 35.4422 30.3953 35.3952 30.3815H35.3939L35.385 30.379L35.3469 30.3678V30.3665Z" fill="url(#paint7_linear_2562_1882)"/>
<g style="mix-blend-mode:multiply" opacity="0.5">
<path d="M27.9973 30.9706C28.0989 30.9757 28.2551 31.0144 28.4417 31.0069C28.6259 30.9994 28.8316 30.9944 29.0805 30.9469C29.1414 30.9381 29.2037 30.9281 29.2697 30.9181C29.3332 30.9006 29.3992 30.8818 29.4665 30.8631C29.6011 30.8256 29.7395 30.798 29.8843 30.7405C30.4671 30.5516 31.0919 30.2515 31.8246 29.9225C32.1395 29.7824 32.4316 29.5673 32.7833 29.4297C32.2462 29.7974 31.9706 30.4391 31.8538 31.1758C31.2189 31.3521 30.5967 31.4835 30.0278 31.5135C29.8576 31.5297 29.6862 31.5235 29.5275 31.5147C29.4475 31.511 29.3713 31.506 29.2951 31.5022C29.2202 31.4897 29.1465 31.4772 29.0754 31.466C28.9344 31.4359 28.8062 31.4322 28.6856 31.3834C28.5687 31.3409 28.4595 31.3009 28.363 31.2658C28.2652 31.2358 28.1954 31.1883 28.1319 31.147C28.0697 31.107 28.0151 31.072 27.9719 31.0444C27.8856 30.9869 27.8398 30.9569 27.8398 30.9569C27.8398 30.9569 27.8957 30.9619 27.9986 30.9719L27.9973 30.9706Z" fill="#5F39FF"/>
</g>
<g style="mix-blend-mode:multiply" opacity="0.5">
<path d="M33.7983 29.1705C33.3119 29.4957 33.3704 30.1211 33.3704 30.1211C33.5164 29.4757 34.0256 29.1143 34.0256 29.1143L33.7983 29.1718V29.1705Z" fill="#5F39FF"/>
</g>
<g style="mix-blend-mode:multiply" opacity="0.5">
<path d="M35.2547 29.0208C35.0845 29.351 35.0058 29.7525 35.0591 30.0077C34.8852 29.4861 35.0401 28.9933 35.0401 28.9933C35.1607 28.9758 35.2547 29.0208 35.2547 29.0208Z" fill="#5F39FF"/>
</g>
<g style="mix-blend-mode:multiply" opacity="0.5">
<path d="M36.1064 30.5578C36.7198 30.5327 36.7858 29.8511 36.7858 29.8511C36.829 30.3414 36.3261 30.6891 36.3261 30.6891L36.1064 30.5578Z" fill="#5F39FF"/>
</g>
<path d="M27.7041 28.6964C30.019 29.8734 32.3682 27.7884 34.5828 27.1943C34.8914 27.0454 35.2749 27.4194 35.7244 27.2931C37.1124 27.8422 38.8863 29.946 40.2895 28.39C39.8133 28.5739 39.3536 28.6101 39.012 28.4638C38.9524 28.4375 38.9689 28.3487 38.9104 28.3162C38.2197 27.9235 37.6851 27.0567 36.8711 26.5113C36.7784 26.4463 36.687 26.3775 36.5892 26.315C36.4825 26.2562 36.5892 26.1073 36.4139 26.0686C36.146 25.8659 35.2 25.6233 34.6768 25.8797C34.1981 26.1148 33.7117 26.0661 33.2495 26.2124C32.9193 26.1186 32.5105 26.4213 32.5562 26.395C31.0654 27.4532 29.5327 28.714 27.7054 28.6964H27.7041Z" fill="url(#paint8_linear_2562_1882)"/>
<g style="mix-blend-mode:multiply" opacity="0.5">
<path d="M27.8637 28.6913C27.9653 28.6826 28.1253 28.7013 28.3082 28.6688C28.491 28.6375 28.6929 28.6063 28.9342 28.5262C28.9926 28.5087 29.0536 28.4912 29.1158 28.4724C29.1767 28.4462 29.2402 28.4199 29.305 28.3924C29.432 28.3361 29.5666 28.2923 29.705 28.216C30.2548 27.9546 30.8656 27.5706 31.5475 27.1516C31.8409 26.9715 32.0948 26.6513 32.4263 26.4712C31.9424 26.9052 31.7304 27.6469 31.7139 28.3936C31.1094 28.6513 30.5088 28.8627 29.9488 28.9653C29.7812 29.004 29.611 29.0203 29.451 29.0328C29.3723 29.039 29.2948 29.0453 29.2199 29.0503C29.145 29.0478 29.0688 29.0453 28.9977 29.0428C28.8516 29.0315 28.7272 29.044 28.599 29.0103C28.4758 28.984 28.3653 28.9577 28.2637 28.9352C28.1634 28.919 28.0872 28.8802 28.0186 28.8477C27.9513 28.8164 27.8929 28.7889 27.8447 28.7676C27.752 28.7213 27.7012 28.6976 27.7012 28.6976C27.7012 28.6976 27.757 28.6951 27.8612 28.6913H27.8637Z" fill="#5F39FF"/>
</g>
<g style="mix-blend-mode:multiply" opacity="0.5">
<path d="M33.2469 26.2124C32.8063 26.5977 32.9472 27.2105 32.9472 27.2105C33.0069 26.5514 33.4463 26.1611 33.4463 26.1611L33.2469 26.2124Z" fill="#5F39FF"/>
</g>
<g style="mix-blend-mode:multiply" opacity="0.5">
<path d="M34.6051 25.9097C34.4819 26.2586 34.4654 26.6264 34.5543 26.8728C34.313 26.3787 34.3879 25.991 34.3879 25.991C34.534 25.9359 34.6064 25.9097 34.6064 25.9097H34.6051Z" fill="#5F39FF"/>
</g>
<g style="mix-blend-mode:multiply" opacity="0.5">
<path d="M35.7227 27.2931C36.3284 27.1881 36.2992 26.5039 36.2992 26.5039C36.4084 26.9842 35.9563 27.3945 35.9563 27.3945L35.7227 27.2919V27.2931Z" fill="#5F39FF"/>
</g>
<path d="M27.7034 25.7645C27.7034 25.7645 27.7529 25.7883 27.8469 25.8346C27.8939 25.8558 27.9523 25.8833 28.0209 25.9146C28.0894 25.9471 28.1656 25.9859 28.266 26.0022C28.3675 26.0247 28.4793 26.0497 28.6012 26.0772C28.7282 26.1097 28.8552 26.0972 28.9999 26.1085C29.071 26.111 29.146 26.1135 29.2209 26.116C29.2958 26.111 29.3733 26.1047 29.452 26.0985C29.6107 26.0872 29.7821 26.0697 29.9485 26.0322C30.6355 25.9059 31.3834 25.6194 32.125 25.2805C32.4869 25.1116 32.8602 24.9377 33.2399 24.7614C33.6094 24.595 33.9777 24.4287 34.3244 24.3336C34.4094 24.3124 34.4983 24.2748 34.5796 24.2623L34.8196 24.2223C34.8983 24.211 35.4621 24.4837 35.7199 24.3624L35.9548 24.4637L36.191 24.5888C36.8234 24.9403 37.4253 25.4293 38.0691 25.7395C38.2241 25.8196 38.3955 25.8808 38.5529 25.9346C38.7218 25.9746 38.8793 26.0147 39.038 26.0184C39.1967 26.0184 39.339 26.0272 39.4698 25.9797C39.532 25.9621 39.5942 25.9459 39.6514 25.9296C39.7072 25.9096 39.7542 25.8771 39.8025 25.8533C39.9942 25.7645 40.0996 25.6432 40.1758 25.5706C40.2482 25.4968 40.2875 25.4581 40.2875 25.4581C40.2875 25.4581 40.2329 25.4743 40.1339 25.5044C40.0869 25.5194 40.0272 25.5381 39.9587 25.5594C39.8926 25.5832 39.8063 25.5794 39.7212 25.5932C39.6768 25.5969 39.6336 25.6082 39.5866 25.6044C39.5409 25.5982 39.3098 25.6157 39.1358 25.5444C39.005 25.4931 39.1193 25.4331 39.0164 25.3968C38.8133 25.3092 38.7307 25.2742 38.5098 25.0741C38.059 24.6926 37.5879 24.111 36.8691 23.5756C36.7752 23.5106 36.685 23.4418 36.586 23.3793C36.4793 23.3205 36.5669 23.1304 36.4602 23.0703C36.2444 22.9628 35.579 22.7789 35.1815 22.8102C34.7841 22.8414 34.779 22.8677 34.6736 22.9453C34.591 22.8602 34.2977 22.9315 34.2977 22.9315C34.1656 22.9528 34.0514 22.994 33.9269 23.0266C33.6767 23.0916 33.4723 23.1942 33.2463 23.278C32.9148 23.1829 32.4272 23.4768 32.4717 23.4506C32.0818 23.6582 31.8545 23.9784 31.5142 24.1873C30.8323 24.6075 30.2533 25.0191 29.7034 25.2805C29.5663 25.358 29.4329 25.4018 29.3047 25.4568C29.2399 25.4843 29.1777 25.5106 29.1155 25.5369C29.052 25.5556 28.9923 25.5731 28.9339 25.5907C28.6914 25.6707 28.4894 25.702 28.3079 25.7332C28.1237 25.7658 27.9637 25.747 27.8621 25.7558C27.7568 25.7595 27.7021 25.762 27.7021 25.762L27.7034 25.7645Z" fill="url(#paint9_linear_2562_1882)"/>
<g style="mix-blend-mode:multiply" opacity="0.5">
<path d="M27.8638 25.7109C27.9654 25.7021 28.1254 25.7209 28.3095 25.6883C28.4898 25.6571 28.693 25.6258 28.9356 25.5458C28.994 25.5282 29.0537 25.5107 29.1171 25.492C29.1781 25.4657 29.2416 25.4394 29.3063 25.4119C29.4346 25.3569 29.5679 25.3119 29.7051 25.2356C30.2549 24.9742 30.8657 24.5914 31.5476 24.1711C31.841 23.991 32.0962 23.6708 32.4251 23.4907C31.9425 23.9247 31.7305 24.6665 31.714 25.4132C31.1095 25.6708 30.5089 25.8835 29.9502 25.9848C29.7825 26.0223 29.6124 26.0398 29.4536 26.0511C29.3749 26.0573 29.2975 26.0636 29.2225 26.0686C29.1463 26.0661 29.0727 26.0636 29.0016 26.0611C28.8556 26.0498 28.7298 26.0611 28.6029 26.0298C28.481 26.0023 28.3679 25.9773 28.2676 25.9548C28.1673 25.9385 28.0911 25.8985 28.0225 25.8672C27.954 25.8359 27.8956 25.8084 27.8486 25.7872C27.7546 25.7409 27.7051 25.7171 27.7051 25.7171C27.7051 25.7171 27.761 25.7146 27.8651 25.7109H27.8638Z" fill="#5F39FF"/>
</g>
<g style="mix-blend-mode:multiply" opacity="0.5">
<path d="M33.2459 23.2841C32.8053 23.6693 32.9463 24.2822 32.9463 24.2822C33.0047 23.6218 33.4618 23.1978 33.4618 23.1978L33.2459 23.2841Z" fill="#5F39FF"/>
</g>
<g style="mix-blend-mode:multiply" opacity="0.5">
<path d="M34.6721 22.9577C34.5502 23.3067 34.5337 23.6744 34.6213 23.9208C34.38 23.4255 34.4677 22.9177 34.4677 22.9177C34.615 22.8627 34.6721 22.9565 34.6721 22.9565V22.9577Z" fill="#5F39FF"/>
</g>
<g style="mix-blend-mode:multiply" opacity="0.5">
<path d="M35.721 24.3522C36.3267 24.2472 36.2975 23.563 36.2975 23.563C36.408 24.0433 35.9546 24.4535 35.9546 24.4535L35.7197 24.3522H35.721Z" fill="#5F39FF"/>
</g>
<path d="M28.8476 24.22C28.8476 24.22 28.9022 24.225 29.0063 24.235C29.0584 24.2388 29.1231 24.2438 29.198 24.2488C29.273 24.255 29.358 24.265 29.4584 24.2463C29.5599 24.2325 29.6742 24.2163 29.7987 24.1987C29.9307 24.185 30.0437 24.1287 30.1809 24.0887C30.2495 24.0662 30.3193 24.0424 30.3917 24.0186C30.4615 23.9861 30.5314 23.9548 30.6012 23.9211C30.7472 23.8535 30.8996 23.7785 31.0431 23.6847C31.6387 23.327 32.2355 22.7966 32.8082 22.2213C33.085 21.9373 33.372 21.6446 33.6641 21.347C33.9485 21.0618 34.2342 20.7791 34.5225 20.5677C34.5949 20.5177 34.6647 20.4514 34.7345 20.4114L34.9453 20.2901C35.0152 20.2513 35.6387 20.3101 35.838 20.1062L36.0933 20.1187L36.3587 20.1525C37.0761 20.26 37.8139 20.5077 38.5276 20.5727C38.7015 20.594 38.8844 20.5902 39.0507 20.5852C39.2222 20.564 39.3872 20.5465 39.5333 20.4952C39.6818 20.4401 39.8203 20.3989 39.9231 20.3088C39.9764 20.27 40.0272 20.2338 40.0755 20.1975C40.1199 20.16 40.153 20.1124 40.1872 20.0737C40.3371 19.9236 40.3904 19.7735 40.4349 19.6784C40.478 19.5846 40.4984 19.5346 40.4984 19.5346C40.4984 19.5346 40.4539 19.5671 40.3726 19.6309C40.3333 19.6622 40.2838 19.6997 40.2279 19.7447C40.1745 19.791 40.092 19.8173 40.0184 19.8598C39.979 19.8785 39.9422 19.9036 39.8977 19.9173C39.852 19.9286 39.805 19.9386 39.7555 19.9498C39.6641 19.9799 39.2615 20.0874 39.1523 20.0899C39.0418 20.0849 39.0863 20.0386 39.0469 19.9811C39.0076 19.9236 38.8869 19.8573 38.7472 19.8022C38.1898 19.6021 37.4914 19.2206 36.6266 18.9717C36.5161 18.9442 36.3841 18.9104 36.2698 18.8867C36.2609 18.8429 36.2177 18.7441 36.1885 18.7203C35.2641 18.5465 34.7396 18.9267 34.7396 18.9267C34.6063 18.9705 34.4171 19.0393 34.346 19.1493C34.2368 19.0981 33.9904 19.2669 33.9904 19.2669C33.8736 19.3332 33.7809 19.412 33.678 19.4845C33.466 19.6334 33.3136 19.7997 33.1307 19.9586C32.7879 19.9861 32.5161 20.4101 32.5491 20.3714C32.2596 20.7016 32.1225 21.1156 31.8799 21.4295C31.3936 22.0612 30.9606 22.6328 30.5403 23.0693C30.4412 23.1894 30.3307 23.2769 30.2304 23.3745C30.1809 23.4233 30.1301 23.4695 30.0831 23.5158C30.0311 23.5546 29.9815 23.5934 29.932 23.6296C29.7352 23.7885 29.5587 23.8886 29.3999 23.9811C29.2387 24.0749 29.0825 24.1137 28.9911 24.1575C28.8945 24.1975 28.8438 24.22 28.8438 24.22H28.8476Z" fill="url(#paint10_linear_2562_1882)"/>
<g style="mix-blend-mode:multiply" opacity="0.5">
<path d="M28.9937 24.1572C29.0851 24.1135 29.2413 24.0747 29.4026 23.9809C29.5613 23.8883 29.7378 23.787 29.9346 23.6294C29.9842 23.5931 30.0337 23.5544 30.0858 23.5156C30.134 23.4693 30.1848 23.423 30.2331 23.3742C30.3334 23.2779 30.4438 23.1891 30.5429 23.069C30.8553 22.7451 31.174 22.3461 31.5156 21.9033C31.3785 22.3686 31.3429 22.8752 31.5943 23.3004C31.4102 23.4418 31.2261 23.5719 31.0432 23.6832C30.8997 23.777 30.7473 23.852 30.6013 23.9196C30.5315 23.9534 30.4604 23.9846 30.3918 24.0171C30.3194 24.0409 30.2496 24.0647 30.181 24.0872C30.0426 24.1272 29.9296 24.1835 29.7988 24.1973C29.6743 24.2148 29.56 24.2298 29.4585 24.2448C29.3581 24.2648 29.2731 24.2548 29.1981 24.2473C29.1219 24.2423 29.0584 24.2373 29.0064 24.2335C28.9035 24.2235 28.8477 24.2185 28.8477 24.2185C28.8477 24.2185 28.8972 24.1973 28.995 24.156L28.9937 24.1572Z" fill="#5F39FF"/>
</g>
<g style="mix-blend-mode:multiply" opacity="0.5">
<path d="M33.1335 19.9601C32.863 20.4741 33.2148 20.997 33.2148 20.997C33.0319 20.3603 33.3049 19.8037 33.3049 19.8037L33.1335 19.9601Z" fill="#5F39FF"/>
</g>
<g style="mix-blend-mode:multiply" opacity="0.5">
<path d="M34.3486 19.1504C34.3587 19.5194 34.4756 19.8684 34.647 20.0685C34.2445 19.6908 34.1416 19.1854 34.1416 19.1854C34.2559 19.1292 34.3486 19.1504 34.3486 19.1504Z" fill="#5F39FF"/>
</g>
<g style="mix-blend-mode:multiply" opacity="0.5">
<path d="M35.8389 20.1063C36.3659 19.7961 36.0941 19.167 36.0941 19.167C36.3697 19.5785 36.0941 20.1201 36.0941 20.1201L35.8389 20.1076V20.1063Z" fill="#5F39FF"/>
</g>
<path d="M34.9182 12.7579C34.9525 12.2463 34.9233 11.8236 34.7785 11.3483C34.6998 11.0894 34.5487 11.0769 34.5233 10.9593C34.4902 10.8054 34.5334 10.7454 34.4966 10.5703C34.3937 10.0712 33.8706 9.25696 33.5353 9.02057C33.2979 8.53276 32.621 8.08248 32.0077 7.86109C31.816 7.7923 31.2864 7.95365 31.181 7.85359C31.1315 7.80606 30.9995 7.67973 30.8585 7.66597C30.5385 7.6347 29.8198 7.91738 29.2953 8.06372C29.2293 8.08248 29.1683 8.21506 29.101 8.23758C29.0134 8.26634 28.9207 8.18504 28.8331 8.21881C28.2858 8.43395 27.868 9.0681 27.8375 9.24946C27.8071 9.43082 27.8071 9.45209 27.7804 9.53088C27.7537 9.60843 27.7017 9.5534 27.5341 9.81231C27.4845 9.88861 27.1975 10.3339 27.2039 10.6253C27.2102 10.9168 27.369 10.9943 27.3093 11.1469C27.2496 11.2995 27.1848 11.3333 27.1239 11.4533C27.0629 11.5734 26.9639 12.6516 27.0134 12.7617C27.0629 12.8717 27.162 12.7892 27.0464 13.0831C26.9309 13.377 27.2522 14.0262 27.3461 14.155C27.4007 14.2301 27.4172 14.2351 27.4312 14.3101C27.4414 14.3627 27.4312 14.3939 27.3918 14.4965C27.3398 14.6353 27.4477 15.3933 27.5328 15.5271C27.6191 15.661 27.5544 15.6097 27.6255 15.7173C27.6953 15.8248 27.576 15.9737 27.5861 16.0775C27.5963 16.1813 27.5582 16.6991 27.6979 16.8167C27.7829 16.8892 27.8096 17.1256 27.7956 17.2094C27.7791 17.312 27.5683 17.666 27.5315 17.8411C27.4312 18.3126 27.5036 18.594 27.7055 19.0081C28.6121 19.3107 29.7118 18.938 29.7804 19.0006C29.8769 18.3476 29.7258 17.6497 29.515 17.3045C29.3042 16.958 29.1721 16.8505 29.1074 16.7079C29.0731 16.6328 28.9944 16.6003 28.9245 16.2538C28.8636 15.9474 28.8064 15.8523 28.6655 15.7348C28.5245 15.6172 28.4433 15.7348 28.5207 15.5209C28.5448 15.4558 28.5055 15.2882 28.4826 15.1957C28.4598 15.1044 28.5042 14.6678 28.3887 14.474C28.3404 14.3927 28.2718 14.2738 28.2706 14.2401C28.268 14.1925 28.3074 14.0812 28.3366 13.9612C28.3861 13.7548 28.3556 13.5672 28.3264 13.3145C28.2972 13.0618 28.1893 13.1344 28.1855 12.9643C28.1804 12.7942 28.2083 12.938 28.3023 12.6266C28.3963 12.3151 28.3366 12.1613 28.3836 11.8486C28.3607 11.736 28.2655 11.5822 28.3175 11.4721C28.3696 11.362 28.4687 11.362 28.5156 11.2382C28.5893 11.0406 28.5969 10.9142 28.6934 10.6678C28.7087 10.6303 28.7163 10.4139 28.7302 10.3789C28.7036 10.2213 28.9436 10.3714 29.1455 9.89611C29.2598 9.62845 29.0439 9.72351 29.2242 9.60218C29.4045 9.48085 29.4439 9.41706 29.6572 9.42832C29.8706 9.43958 30.1195 9.39955 30.3823 9.36953C30.6452 9.33952 30.7442 9.18067 30.8522 9.17691C30.9677 9.17316 30.8966 9.21194 30.9448 9.32576C30.9931 9.43958 31.7347 9.70599 31.8769 9.81856C32.0204 9.93113 32.0636 9.70599 32.1563 9.81856C32.249 9.93113 32.0966 9.91487 32.249 10.1813C32.4153 10.4727 32.3912 10.868 32.6172 11.1406C32.748 11.2982 32.8661 11.3758 32.8471 11.4196C32.8115 11.5009 32.729 11.5947 32.7087 11.7961C32.6693 12.1988 32.8014 12.3927 32.7607 12.8104C32.7455 12.968 33.0439 12.903 33.0502 13.0356C33.0528 13.0769 32.8483 13.2082 32.5931 13.6234C32.1588 14.3314 31.2115 16.0074 32.7772 16.9418C33.6458 17.4608 33.7512 17.3483 34.7023 17.5296C33.6471 17.1319 33.2674 16.8792 33.3702 16.2051C33.4668 15.5709 33.675 15.7185 34.2477 15.337C34.7848 14.9793 35.0414 14.4502 34.7683 13.7485C34.6299 13.3933 34.5842 13.3708 34.6185 13.1894C34.6541 13.0081 34.8941 13.0919 34.9169 12.7554L34.9182 12.7579Z" fill="url(#paint11_linear_2562_1882)"/>
<g style="mix-blend-mode:multiply" opacity="0.2">
<path d="M33.1697 14.0097C33.3792 13.637 33.2231 13.3968 34.1653 13.3968C33.7615 13.3968 33.6865 12.8502 33.4173 12.5851C32.6097 11.9222 33.2827 11.1267 34.0904 10.7289C33.6865 10.7289 33.2827 11.3918 32.8789 11.1267C32.3405 10.5963 32.3405 9.80084 32.7443 9.27051C32.418 9.27051 32.3558 9.70203 32.131 9.79834C32.1386 9.80334 32.1462 9.80959 32.1551 9.82085C32.2478 9.93342 32.0954 9.91716 32.2478 10.1836C32.4142 10.475 32.39 10.8703 32.6161 11.1429C32.7469 11.3005 32.865 11.3781 32.8459 11.4219C32.8104 11.5032 32.7278 11.597 32.7075 11.7983C32.6681 12.2011 32.8002 12.395 32.7596 12.8127C32.7443 12.9703 33.0427 12.9053 33.0491 13.0379C33.0516 13.0791 32.8472 13.2105 32.5932 13.6257C32.1589 14.3337 31.2116 16.0097 32.7773 16.9441C33.3945 17.313 33.6281 17.3631 34.051 17.4256C33.8377 17.3631 32.9043 16.7214 32.6935 16.6514C31.6167 16.121 32.9589 14.3812 33.1672 14.0085L33.1697 14.0097Z" fill="#5F39FF"/>
</g>
<g style="mix-blend-mode:multiply" opacity="0.5">
<path d="M31.9365 9.80004C31.2635 9.53487 31.4756 8.96077 31.2064 8.29785C31.167 9.14963 31.0273 8.95326 30.7924 9.08209C30.5575 9.21092 30.0686 9.06958 29.5784 9.33475C29.4438 9.20217 29.4451 8.6906 29.3105 8.6906C29.4451 9.08835 29.0032 9.90386 28.8584 10.0915C28.7137 10.2791 28.6781 10.0252 28.4191 10.0402C28.5587 10.4129 28.5473 10.9545 28.3314 11.3097C28.1156 11.665 28.0876 11.4648 27.8184 11.4648C28.2222 11.8626 28.4686 12.0414 28.1295 12.8932C27.9949 12.7606 27.986 12.8494 27.7168 12.8494C28.353 12.8845 28.4241 14.1853 27.8705 14.2941C28.5435 14.2941 28.3987 15.4186 28.3835 15.5649C28.3683 15.7112 28.0864 15.7588 27.9784 15.7888C28.4356 15.9401 28.56 15.7575 28.5892 15.9714C28.6197 16.184 29.1441 16.9408 28.9054 16.8882C28.3353 16.7631 27.8057 17.1384 27.7943 17.2084C27.7778 17.311 27.567 17.665 27.5302 17.8401C27.4299 18.3116 27.5022 18.593 27.7041 19.007C28.6108 19.3097 29.7105 18.937 29.7791 18.9995C29.8756 18.3466 29.7245 17.6487 29.5137 17.3035C29.3029 16.957 29.1708 16.8494 29.106 16.7069C29.0718 16.6318 28.993 16.5993 28.9232 16.2528C28.8622 15.9464 28.8051 15.8513 28.6641 15.7337C28.5232 15.6162 28.4419 15.7337 28.5194 15.5199C28.5435 15.4548 28.5041 15.2872 28.4813 15.1947C28.4584 15.1034 28.5029 14.6668 28.3873 14.473C28.3391 14.3917 28.2705 14.2728 28.2692 14.2391C28.2667 14.1915 28.306 14.0802 28.3353 13.9601C28.3848 13.7538 28.3543 13.5661 28.3251 13.3135C28.2959 13.0608 28.188 13.1334 28.1841 12.9633C28.1803 12.7932 28.207 12.937 28.301 12.6256C28.3949 12.3141 28.3353 12.1603 28.3822 11.8476C28.3594 11.735 28.2641 11.5812 28.3162 11.4711C28.3683 11.361 28.4673 11.361 28.5143 11.2372C28.588 11.0396 28.5956 10.9132 28.6921 10.6668C28.7073 10.6293 28.7149 10.4129 28.7289 10.3779C28.7022 10.2203 28.9422 10.3704 29.1441 9.8951C29.2584 9.62743 29.0426 9.72249 29.2229 9.60117C29.4032 9.47984 29.4426 9.41605 29.6559 9.42731C29.8692 9.43856 30.1181 9.39854 30.381 9.36852C30.6438 9.3385 30.7429 9.17965 30.8508 9.1759C30.9664 9.17215 30.8953 9.21092 30.9435 9.32474C30.9918 9.43856 31.7334 9.70498 31.8756 9.81755C31.9505 9.87634 31.9987 9.84257 32.0407 9.8138C32.0089 9.8138 31.9746 9.8113 31.9365 9.79879V9.80004Z" fill="#5F39FF"/>
</g>
<path d="M29.3359 18.2988C29.3474 18.3213 29.3563 18.3439 29.3677 18.3676C29.3677 18.3676 29.3677 18.3276 29.3359 18.2988Z" fill="url(#paint12_linear_2562_1882)"/>
<path d="M31.1905 25.7262C31.1905 25.7262 32.0502 23.9576 30.5531 22.4829C30.5531 22.4829 31.1537 21.0945 29.8801 19.6574C29.8801 19.6574 29.9156 16.9344 28.5721 16.9307C27.2261 16.9344 27.2629 19.6574 27.2629 19.6574C25.9893 21.0945 26.5899 22.4829 26.5899 22.4829C25.0928 23.9576 25.9512 25.7262 25.9512 25.7262C25.3645 27.0532 25.9512 28.4291 25.9512 28.4291C25.2134 30.5917 26.5899 31.9676 26.5899 31.9676L28.5721 31.6724L30.5543 31.9676C30.5543 31.9676 31.9296 30.5917 31.1918 28.4291C31.1918 28.4291 31.781 27.0532 31.1918 25.7262H31.1905Z" fill="url(#paint13_linear_2562_1882)"/>
<g style="mix-blend-mode:screen">
<path d="M26.1075 28.4276C26.1075 28.4276 25.5196 27.0518 26.1075 25.7247C26.1075 25.7247 25.2491 23.9561 26.7463 22.4814C26.7463 22.4814 26.1444 21.0931 27.418 19.6559C27.418 19.6559 27.3875 17.0618 28.6409 16.9405C28.6117 16.9367 28.5863 16.9292 28.5558 16.9292C27.211 16.933 27.2479 19.6559 27.2479 19.6559C25.9742 21.0931 26.5748 22.4814 26.5748 22.4814C25.079 23.9561 25.9361 25.7247 25.9361 25.7247C25.3482 27.0518 25.9361 28.4276 25.9361 28.4276C25.1983 30.5902 26.5748 31.9661 26.5748 31.9661L26.726 31.9436C26.5609 31.7647 25.4231 30.4364 26.1101 28.4289L26.1075 28.4276Z" fill="#73E9FE"/>
</g>
<g style="mix-blend-mode:multiply" opacity="0.39">
<path d="M25.9316 28.4275C26.8142 27.8559 28.0497 28.1148 28.0497 28.1148C27.4313 27.7095 26.4967 28.0047 26.1602 27.7458C25.8237 27.4881 25.6738 27.1392 25.6738 27.1392C25.6738 27.1392 25.6688 27.8196 25.9316 28.4275Z" fill="#5F39FF"/>
</g>
<g style="mix-blend-mode:multiply" opacity="0.39">
<path d="M25.9316 25.737C26.8142 25.1654 28.0497 25.4231 28.0497 25.4231C27.4313 25.0178 26.4967 25.313 26.1602 25.0554C25.8237 24.7977 25.6738 24.4487 25.6738 24.4487C25.6738 24.4487 25.6688 25.1292 25.9316 25.737Z" fill="#5F39FF"/>
</g>
<g style="mix-blend-mode:multiply" opacity="0.39">
<path d="M26.5737 22.4755C27.2276 22.0515 28.1445 22.2428 28.1445 22.2428C27.6861 21.9414 26.9914 22.1603 26.7413 21.9689C26.4911 21.7775 26.4314 21.5361 26.4314 21.5361C26.4314 21.5361 26.3781 22.0239 26.5737 22.4755Z" fill="#5F39FF"/>
</g>
<g style="mix-blend-mode:multiply" opacity="0.39">
<path d="M27.2432 19.6573C27.4692 19.4547 28.0368 19.4547 28.0368 19.4547C27.68 19.3809 27.2432 19.4547 27.2432 19.4547V19.6573Z" fill="#5F39FF"/>
</g>
<g style="mix-blend-mode:multiply" opacity="0.39">
<path d="M31.1722 28.4275C30.2909 27.8559 29.0566 28.1148 29.0566 28.1148C29.6738 27.7095 30.6084 28.0047 30.9462 27.7458C31.2814 27.4881 31.4312 27.1392 31.4312 27.1392C31.4312 27.1392 31.4363 27.8196 31.1722 28.4275Z" fill="#5F39FF"/>
</g>
<g style="mix-blend-mode:multiply" opacity="0.39">
<path d="M31.1722 25.737C30.2909 25.1654 29.0566 25.4231 29.0566 25.4231C29.6738 25.0178 30.6084 25.313 30.9462 25.0554C31.2814 24.7977 31.4312 24.4487 31.4312 24.4487C31.4312 24.4487 31.4363 25.1292 31.1722 25.737Z" fill="#5F39FF"/>
</g>
<g style="mix-blend-mode:multiply" opacity="0.39">
<path d="M30.531 22.4755C29.8758 22.0515 28.959 22.2428 28.959 22.2428C29.4174 21.9414 30.112 22.1603 30.3634 21.9689C30.6136 21.7775 30.6733 21.5361 30.6733 21.5361C30.6733 21.5361 30.7266 22.0239 30.531 22.4755Z" fill="#5F39FF"/>
</g>
<g style="mix-blend-mode:multiply" opacity="0.39">
<path d="M29.861 19.6573C29.635 19.4547 29.0674 19.4547 29.0674 19.4547C29.4229 19.3809 29.861 19.4547 29.861 19.4547V19.6573Z" fill="#5F39FF"/>
</g>
<path d="M21.2328 41.0396C20.4506 44.2766 23.1109 45.6637 23.1109 45.6637C21.3725 43.6762 22.5624 42.4267 22.5624 42.4267L21.2328 41.0396Z" fill="url(#paint14_linear_2562_1882)"/>
<g style="mix-blend-mode:multiply" opacity="0.39">
<path d="M22.1688 43.48C22.2031 42.8084 22.5624 42.4281 22.5624 42.4281L21.2329 41.041C21.0818 41.6677 21.0602 42.223 21.1224 42.7133C21.6494 42.8121 21.9301 43.066 22.1701 43.48H22.1688Z" fill="#5F39FF"/>
</g>
<path d="M27.8056 33.795C27.2317 35.5411 24.5726 35.2334 23.4234 35.9526C22.2755 36.6718 23.4234 39.0345 23.4234 39.0345H21.0234C21.0234 39.0345 20.711 36.209 22.7974 35.1296C24.8837 34.0502 26.5523 33.8963 26.5523 32.8682L27.8044 33.7937L27.8056 33.795Z" fill="url(#paint15_linear_2562_1882)"/>
<path d="M27.8056 33.795C27.2317 35.5411 24.5726 35.2334 23.4234 35.9526C22.2755 36.6718 23.4234 39.0345 23.4234 39.0345H21.0234C21.0234 39.0345 20.711 36.209 22.7974 35.1296C24.8837 34.0502 26.5523 33.8963 26.5523 32.8682L27.8044 33.7937L27.8056 33.795Z" fill="url(#paint16_linear_2562_1882)"/>
<path style="mix-blend-mode:multiply" opacity="0.5" d="M27.8055 33.7952L26.5535 32.8696C26.5535 33.6339 25.629 33.9153 24.3008 34.4519C25.1287 34.4231 25.9274 34.4519 26.6182 34.9897C27.163 34.7496 27.6074 34.3943 27.8055 33.7952Z" fill="url(#paint17_linear_2562_1882)"/>
<path d="M21.9131 37.8914C18.8413 38.1153 20.0845 41.7589 22.275 42.7357C23.2146 44.4305 25.1435 44.7908 25.1435 44.7908C25.1435 44.7908 23.2667 43.5575 23.5791 42.3755C23.8927 41.1935 24.7308 37.6863 21.9131 37.8914Z" fill="url(#paint18_linear_2562_1882)"/>
<g style="mix-blend-mode:screen">
<path d="M22.015 37.9565C22.5268 37.919 22.9166 38.0053 23.2112 38.1766C22.9052 37.9628 22.4874 37.8489 21.9134 37.8902C19.022 38.1016 19.9528 41.3399 21.8995 42.5344C20.0239 41.2923 19.1731 38.1629 22.015 37.9552V37.9565Z" fill="#73E9FE"/>
</g>
<path d="M28.0055 35.2734C27.6969 36.0564 28.3128 36.4929 28.3128 36.4929C27.9483 35.9376 28.2887 35.6649 28.2887 35.6649L28.0055 35.2734Z" fill="url(#paint19_linear_2562_1882)"/>
<path d="M27.4355 34.812C27.132 35.0734 27.4317 35.5162 27.3631 35.8139C27.2844 36.1541 27.3606 36.4368 27.4584 36.6156C27.659 36.9821 27.9981 37.1297 28.172 37.2373C27.2197 36.3905 28.0311 35.4474 28.0311 35.4474L27.4343 34.812H27.4355Z" fill="url(#paint20_linear_2562_1882)"/>
<path d="M29.7062 34.812C30.0097 35.0734 29.71 35.5162 29.7786 35.8139C29.8573 36.1541 29.7812 36.4368 29.6834 36.6156C29.4827 36.9821 29.1437 37.1297 28.9697 37.2373C29.9221 36.3905 29.1107 35.4474 29.1107 35.4474L29.7075 34.812H29.7062Z" fill="url(#paint21_linear_2562_1882)"/>
<g style="mix-blend-mode:multiply" opacity="0.39">
<path d="M28.1558 35.9151C28.1876 35.7487 28.2904 35.6649 28.2904 35.6649L28.0072 35.2734C27.9476 35.4248 27.9222 35.5624 27.9209 35.6874C28.0492 35.73 28.1101 35.8025 28.1558 35.9151Z" fill="#5F39FF"/>
</g>
<path d="M29.1354 35.2734C29.444 36.0564 28.8281 36.4929 28.8281 36.4929C29.1926 35.9376 28.8523 35.6649 28.8523 35.6649L29.1354 35.2734Z" fill="url(#paint22_linear_2562_1882)"/>
<g style="mix-blend-mode:multiply" opacity="0.39">
<path d="M28.9852 35.9151C28.9534 35.7487 28.8506 35.6649 28.8506 35.6649L29.1338 35.2734C29.1934 35.4248 29.2188 35.5624 29.2201 35.6874C29.0919 35.73 29.0309 35.8025 28.9852 35.9151Z" fill="#5F39FF"/>
</g>
<path d="M36.2069 41.0396C36.9904 44.2766 34.3301 45.6637 34.3301 45.6637C36.0685 43.6762 34.8786 42.4267 34.8786 42.4267L36.2069 41.0396Z" fill="url(#paint23_linear_2562_1882)"/>
<g style="mix-blend-mode:multiply" opacity="0.39">
<path d="M35.2713 43.48C35.237 42.8084 34.8789 42.4281 34.8789 42.4281L36.2072 41.041C36.3595 41.6677 36.3811 42.223 36.3189 42.7133C35.7932 42.8121 35.5126 43.066 35.2713 43.48Z" fill="#5F39FF"/>
</g>
<path d="M29.6357 33.795C30.2097 35.5411 32.8713 35.2334 34.018 35.9526C35.1659 36.6718 34.018 39.0345 34.018 39.0345H36.418C36.418 39.0345 36.7303 36.209 34.644 35.1296C32.5576 34.0502 30.8891 33.8963 30.8891 32.8682L29.637 33.7937L29.6357 33.795Z" fill="url(#paint24_linear_2562_1882)"/>
<path d="M29.6357 33.795C30.2097 35.5411 32.8713 35.2334 34.018 35.9526C35.1659 36.6718 34.018 39.0345 34.018 39.0345H36.418C36.418 39.0345 36.7303 36.209 34.644 35.1296C32.5576 34.0502 30.8891 33.8963 30.8891 32.8682L29.637 33.7937L29.6357 33.795Z" fill="url(#paint25_linear_2562_1882)"/>
<path style="mix-blend-mode:multiply" opacity="0.5" d="M29.6357 33.7952L30.8878 32.8696C30.8878 33.6339 31.8097 33.9153 33.1405 34.4519C32.3126 34.4231 31.5138 34.4519 30.823 34.9897C30.2796 34.7496 29.8326 34.3943 29.6357 33.7952Z" fill="url(#paint26_linear_2562_1882)"/>
<path d="M35.5274 37.8914C38.5991 38.1153 37.3572 41.7589 35.1654 42.7357C34.227 44.4305 32.2969 44.7908 32.2969 44.7908C32.2969 44.7908 34.175 43.5575 33.8626 42.3755C33.5477 41.1935 32.7108 37.6863 35.5274 37.8914Z" fill="url(#paint27_linear_2562_1882)"/>
<g style="mix-blend-mode:screen">
<path d="M35.4267 37.9565C34.9149 37.919 34.5263 38.0053 34.2305 38.1766C34.5365 37.9628 34.9555 37.8489 35.5282 37.8902C38.4197 38.1016 37.4876 41.3399 35.5422 42.5344C37.4178 41.2923 38.2686 38.1629 35.4279 37.9552L35.4267 37.9565Z" fill="#73E9FE"/>
</g>
<path d="M31.1719 31.9664C31.2468 30.7131 29.3395 30.4555 28.5535 31.0083C27.7674 30.4555 25.8589 30.7131 25.9338 31.9664C26.0074 33.2197 26.9433 35.8351 28.5535 35.8363C30.1624 35.8363 31.097 33.2197 31.1719 31.9664Z" fill="url(#paint28_linear_2562_1882)"/>
<g style="mix-blend-mode:screen">
<path d="M28.5525 35.7362C26.955 35.7362 26.0217 33.1571 25.9366 31.895C25.9366 31.9188 25.9316 31.9413 25.9328 31.9663C26.009 33.2196 26.9436 35.835 28.5525 35.8362C30.1614 35.8362 31.096 33.2196 31.1709 31.9663C31.1722 31.9413 31.1696 31.9188 31.1696 31.895C31.0833 33.1583 30.1512 35.7362 28.5538 35.7362H28.5525Z" fill="#73E9FE"/>
</g>
<g style="mix-blend-mode:multiply" opacity="0.39">
<path d="M27.9009 35.2099C27.7511 35.3937 28.2285 35.6802 28.3403 35.5138C28.4533 35.3475 28.052 35.026 27.9009 35.2099Z" fill="#5F39FF"/>
</g>
<g style="mix-blend-mode:multiply" opacity="0.39">
<path d="M29.2423 35.2099C29.3921 35.3937 28.9146 35.6802 28.8029 35.5138C28.6899 35.3475 29.0937 35.026 29.2423 35.2099Z" fill="#5F39FF"/>
</g>
<g style="mix-blend-mode:multiply" opacity="0.39">
<path d="M28.5537 31.0082C28.5537 31.6724 28.6578 33.93 28.6578 33.93L28.7632 30.8906L28.5537 31.0069V31.0082Z" fill="#5F39FF"/>
</g>
<path d="M29.96 30.0127C29.96 30.0127 30.0591 29.8601 30.0629 29.6687C29.9905 29.7287 29.7696 29.7137 29.7696 29.7137C29.8204 29.7425 29.941 29.76 29.9753 29.765C29.9105 29.815 29.7442 29.9101 29.4508 29.8926C29.188 29.8776 29.3797 29.2284 29.3556 28.8394C29.3556 28.8219 29.3581 28.8069 29.3556 28.7894C29.3505 28.7469 29.3391 28.7006 29.3162 28.6568C29.2946 28.6118 29.2616 28.5693 29.2197 28.5355C29.1778 28.5017 29.1283 28.4767 29.08 28.4642C29.0318 28.4504 28.9835 28.4479 28.9404 28.4517C28.8959 28.4542 28.8565 28.4642 28.821 28.4754C28.7854 28.4867 28.7537 28.5017 28.727 28.5167C28.6991 28.5317 28.6762 28.548 28.6559 28.563C28.6534 28.5655 28.6521 28.5668 28.6496 28.568C28.6369 28.5467 28.6216 28.5255 28.6026 28.5067C28.5721 28.4729 28.534 28.4442 28.4908 28.4254C28.4489 28.4067 28.4045 28.3979 28.3651 28.3966C28.2838 28.3941 28.2191 28.4154 28.1632 28.4367C28.0642 28.4792 27.9969 28.5317 27.9486 28.573C27.9448 28.5655 27.941 28.5592 27.9385 28.5517C27.9296 28.533 27.9169 28.5142 27.9054 28.4955C27.894 28.4779 27.8788 28.4592 27.8648 28.4429C27.8496 28.4267 27.8318 28.4104 27.814 28.3954L27.7835 28.3754C27.7746 28.3679 27.7619 28.3629 27.7518 28.3579C27.7404 28.3529 27.7289 28.3479 27.7175 28.3429C27.7048 28.3391 27.6934 28.3366 27.6807 28.3341C27.668 28.3304 27.6565 28.3291 27.6438 28.3291C27.6311 28.3291 27.6197 28.3291 27.607 28.3291C27.5842 28.3329 27.5588 28.3341 27.5385 28.3429C27.4534 28.3729 27.4013 28.4267 27.3632 28.4767C27.3251 28.5267 27.3048 28.578 27.287 28.6218C27.2794 28.6443 27.2731 28.6656 27.268 28.6843C27.2629 28.7043 27.2591 28.7231 27.2565 28.7394C27.2489 28.7719 27.2489 28.7969 27.2477 28.8144C27.2464 28.8319 27.2451 28.8419 27.2451 28.8419C27.2451 28.8419 27.2502 28.8344 27.2604 28.8194C27.2692 28.8044 27.2832 28.7819 27.301 28.7556C27.3099 28.7419 27.32 28.7281 27.3302 28.7131C27.3429 28.6981 27.3543 28.6818 27.3683 28.6656C27.3962 28.6343 27.4267 28.598 27.4648 28.5693C27.5016 28.5405 27.5461 28.5167 27.5842 28.5142C27.5892 28.5142 27.5931 28.5142 27.5981 28.5142C27.6032 28.5142 27.607 28.5142 27.6108 28.5142L27.6235 28.518C27.6235 28.518 27.6311 28.5192 27.635 28.5217C27.6388 28.5242 27.6426 28.5255 27.6464 28.5267C27.6502 28.5292 27.654 28.5317 27.6578 28.5342C27.6654 28.538 27.6731 28.548 27.6807 28.553C27.7099 28.5843 27.7353 28.6343 27.7543 28.6906C27.7734 28.7481 27.7861 28.8119 27.795 28.8769C27.7988 28.9095 27.8038 28.9432 27.8038 28.977L27.8077 29.027C27.8077 29.0445 27.8077 29.0608 27.8077 29.0783C27.8102 29.1459 27.8089 29.2134 27.8077 29.2784C27.8077 29.2947 27.8077 29.311 27.8077 29.3272C27.8064 29.3435 27.8051 29.3597 27.8051 29.3748C27.8026 29.4073 27.8026 29.4373 27.8 29.4686C27.7962 29.5299 27.7924 29.5874 27.7873 29.6412C27.7835 29.695 27.7797 29.745 27.7759 29.7888C27.7734 29.8338 27.7708 29.8726 27.7683 29.9038C27.7658 29.9364 27.7658 29.9614 27.7645 29.9789C27.7645 29.9964 27.7645 30.0064 27.7645 30.0064C27.7645 30.0064 27.7696 29.9976 27.7785 29.9826C27.7861 29.9676 27.8 29.9451 27.814 29.9163C27.8292 29.8876 27.847 29.8526 27.8661 29.81C27.8838 29.7688 27.9042 29.7212 27.9232 29.6687C27.9321 29.6424 27.9423 29.6149 27.9511 29.5861C27.9588 29.5574 27.9677 29.5274 27.9765 29.4961C27.9867 29.4648 27.9918 29.4323 27.9994 29.3998C28.007 29.3673 28.0134 29.3322 28.0185 29.2972C28.0248 29.2622 28.0299 29.2272 28.0324 29.1896C28.0362 29.1534 28.04 29.1158 28.04 29.0783C28.04 29.0596 28.0413 29.0408 28.0413 29.022C28.0413 29.0033 28.0413 28.9833 28.04 28.9645C28.04 28.9257 28.035 28.887 28.0311 28.8469C28.0197 28.7731 28.0045 28.6981 27.9753 28.6243C28.0032 28.6155 28.035 28.6068 28.0705 28.5968C28.1124 28.5855 28.1581 28.5743 28.2077 28.5693C28.2559 28.563 28.308 28.5617 28.3499 28.573C28.3931 28.5843 28.4223 28.6055 28.4451 28.6405C28.4692 28.6756 28.4858 28.7269 28.4959 28.7844C28.5048 28.8419 28.5099 28.9057 28.5099 28.9708C28.5099 29.0358 28.5061 29.1021 28.5023 29.1684C28.4959 29.2347 28.4896 29.2997 28.4807 29.3635C28.4642 29.4911 28.4451 29.6112 28.4286 29.715C28.4108 29.8188 28.3943 29.9051 28.3816 29.9664C28.374 29.9976 28.3689 30.0214 28.3651 30.0377C28.3613 30.0539 28.3588 30.0627 28.3588 30.0627C28.3588 30.0627 28.3651 30.0564 28.3765 30.0439C28.388 30.0302 28.4058 30.0114 28.4235 29.9851C28.4616 29.9339 28.5111 29.8551 28.5594 29.7562C28.6064 29.6574 28.6521 29.5374 28.6877 29.4035C28.7042 29.3372 28.7207 29.2672 28.7308 29.1946C28.7423 29.1221 28.7473 29.0471 28.7473 28.9708C28.7473 28.8945 28.7397 28.8157 28.7207 28.7369C28.7131 28.7081 28.7029 28.6781 28.6915 28.6493C28.7143 28.6493 28.7397 28.6493 28.7677 28.6493C28.7956 28.6493 28.8248 28.6493 28.8527 28.6506C28.8819 28.6518 28.9111 28.6556 28.9378 28.6606C28.9518 28.6631 28.9645 28.6668 28.9772 28.6693C28.9899 28.6731 29.0013 28.6768 29.0127 28.6818C29.0356 28.6918 29.0546 28.7018 29.0711 28.7168C29.3581 28.9933 28.8972 29.7237 29.2083 30.0227C29.4762 30.2803 29.88 29.8826 29.9854 29.7688C29.9867 29.7688 29.9892 29.7688 29.9892 29.7688L29.9626 30.0152L29.96 30.0127Z" fill="url(#paint29_linear_2562_1882)"/>
<g style="mix-blend-mode:screen" opacity="0.9">
<path style="mix-blend-mode:screen" opacity="0.9" d="M16.8517 33.9697C16.8517 34.9028 15.9463 34.9516 15.9463 34.9516C15.9463 34.9516 16.8517 35.0016 16.8517 35.9347C16.8517 35.0016 17.7571 34.9516 17.7571 34.9516C17.7571 34.9516 16.8517 34.9028 16.8517 33.9697Z" fill="url(#paint30_radial_2562_1882)"/>
<path style="mix-blend-mode:screen" opacity="0.9" d="M25.4335 14.8115C25.4335 15.3293 24.9307 15.3556 24.9307 15.3556C24.9307 15.3556 25.4335 15.3831 25.4335 15.901C25.4335 15.3831 25.9351 15.3556 25.9351 15.3556C25.9351 15.3556 25.4335 15.3281 25.4335 14.8115Z" fill="url(#paint31_radial_2562_1882)"/>
<path style="mix-blend-mode:screen" opacity="0.9" d="M39.3993 34.4189C39.3993 34.9368 38.8965 34.963 38.8965 34.963C38.8965 34.963 39.3993 34.9906 39.3993 35.5084C39.3993 34.9906 39.9009 34.963 39.9009 34.963C39.9009 34.963 39.3993 34.9355 39.3993 34.4189Z" fill="url(#paint32_radial_2562_1882)"/>
<path style="mix-blend-mode:screen" opacity="0.9" d="M26.4875 39.333C26.4875 39.6557 26.1738 39.6732 26.1738 39.6732C26.1738 39.6732 26.4875 39.6907 26.4875 40.0134C26.4875 39.6907 26.8011 39.6732 26.8011 39.6732C26.8011 39.6732 26.4875 39.6557 26.4875 39.333Z" fill="url(#paint33_radial_2562_1882)"/>
<path style="mix-blend-mode:screen" opacity="0.9" d="M14.4621 24.8213C14.4621 25.1452 14.1484 25.1615 14.1484 25.1615C14.1484 25.1615 14.4621 25.179 14.4621 25.5017C14.4621 25.1778 14.7757 25.1615 14.7757 25.1615C14.7757 25.1615 14.4621 25.144 14.4621 24.8213Z" fill="url(#paint34_radial_2562_1882)"/>
<path style="mix-blend-mode:screen" opacity="0.9" d="M41.2092 19.9634C41.2092 20.2873 40.8955 20.3036 40.8955 20.3036C40.8955 20.3036 41.2092 20.3211 41.2092 20.6438C41.2092 20.3199 41.5228 20.3036 41.5228 20.3036C41.5228 20.3036 41.2092 20.2861 41.2092 19.9634Z" fill="url(#paint35_radial_2562_1882)"/>
<path style="mix-blend-mode:screen" opacity="0.9" d="M39.9011 29.8457C39.9011 30.2022 39.5557 30.2209 39.5557 30.2209C39.5557 30.2209 39.9011 30.2397 39.9011 30.5962C39.9011 30.2397 40.2465 30.2209 40.2465 30.2209C40.2465 30.2209 39.9011 30.2022 39.9011 29.8457Z" fill="url(#paint36_radial_2562_1882)"/>
<path style="mix-blend-mode:color-dodge" opacity="0.9" d="M22.3695 31.8921C22.3695 32.4862 21.793 32.5175 21.793 32.5175C21.793 32.5175 22.3695 32.55 22.3695 33.1441C22.3695 32.55 22.9473 32.5175 22.9473 32.5175C22.9473 32.5175 22.3695 32.4862 22.3695 31.8921Z" fill="url(#paint37_radial_2562_1882)"/>
<path style="mix-blend-mode:color-dodge" opacity="0.9" d="M36.8404 16.0171C36.8404 17.0377 35.8486 17.0928 35.8486 17.0928C35.8486 17.0928 36.8404 17.1478 36.8404 18.1697C36.8404 17.1478 37.8321 17.0928 37.8321 17.0928C37.8321 17.0928 36.8404 17.0377 36.8404 16.0171Z" fill="url(#paint38_radial_2562_1882)"/>
<path style="mix-blend-mode:color-dodge" opacity="0.9" d="M31.8098 36.6377C31.8098 37.5408 30.9336 37.5883 30.9336 37.5883C30.9336 37.5883 31.8098 37.6371 31.8098 38.5401C31.8098 37.6371 32.6872 37.5883 32.6872 37.5883C32.6872 37.5883 31.8098 37.5395 31.8098 36.6377Z" fill="url(#paint39_radial_2562_1882)"/>
</g>
</g>
</g>
<rect x="0.233333" y="0.233333" width="55.5333" height="55.5333" rx="27.7667" stroke="white" stroke-opacity="0.2" stroke-width="0.466667"/>
<defs>
<filter id="filter0_f_2562_1882" x="-20.7407" y="-20.7407" width="97.4815" height="97.4815" filterUnits="userSpaceOnUse" color-interpolation-filters="sRGB">
<feFlood flood-opacity="0" result="BackgroundImageFix"/>
<feBlend mode="normal" in="SourceGraphic" in2="BackgroundImageFix" result="shape"/>
<feGaussianBlur stdDeviation="10.3704" result="effect1_foregroundBlur_2562_1882"/>
</filter>
<radialGradient id="paint0_radial_2562_1882" cx="0" cy="0" r="1" gradientUnits="userSpaceOnUse" gradientTransform="translate(28 28) scale(38.6579)">
<stop stop-color="#FA1E42"/>
<stop offset="1" stop-opacity="0"/>
</radialGradient>
<linearGradient id="paint1_linear_2562_1882" x1="26.7526" y1="30.7492" x2="18.3565" y2="30.9258" gradientUnits="userSpaceOnUse">
<stop stop-color="#5F39FF"/>
<stop offset="0.11" stop-color="#614FFE"/>
<stop offset="0.91" stop-color="#73E9FE"/>
</linearGradient>
<linearGradient id="paint2_linear_2562_1882" x1="21.7853" y1="30.3753" x2="21.7434" y2="30.3766" gradientUnits="userSpaceOnUse">
<stop stop-color="#5F39FF"/>
<stop offset="0.11" stop-color="#614FFE"/>
<stop offset="0.91" stop-color="#73E9FE"/>
</linearGradient>
<linearGradient id="paint3_linear_2562_1882" x1="27.0684" y1="28.1497" x2="18.7312" y2="27.1984" gradientUnits="userSpaceOnUse">
<stop stop-color="#5F39FF"/>
<stop offset="0.11" stop-color="#614FFE"/>
<stop offset="0.91" stop-color="#73E9FE"/>
</linearGradient>
<linearGradient id="paint4_linear_2562_1882" x1="27.0695" y1="25.2071" x2="18.7325" y2="24.2545" gradientUnits="userSpaceOnUse">
<stop stop-color="#5F39FF"/>
<stop offset="0.11" stop-color="#614FFE"/>
<stop offset="0.91" stop-color="#73E9FE"/>
</linearGradient>
<linearGradient id="paint5_linear_2562_1882" x1="26.2769" y1="22.8797" x2="18.8609" y2="19.0102" gradientUnits="userSpaceOnUse">
<stop stop-color="#5F39FF"/>
<stop offset="0.11" stop-color="#614FFE"/>
<stop offset="0.91" stop-color="#73E9FE"/>
</linearGradient>
<linearGradient id="paint6_linear_2562_1882" x1="30.3897" y1="30.7492" x2="38.7857" y2="30.9258" gradientUnits="userSpaceOnUse">
<stop stop-color="#5F39FF"/>
<stop offset="0.11" stop-color="#614FFE"/>
<stop offset="0.91" stop-color="#73E9FE"/>
</linearGradient>
<linearGradient id="paint7_linear_2562_1882" x1="35.3571" y1="30.3753" x2="35.399" y2="30.3766" gradientUnits="userSpaceOnUse">
<stop stop-color="#5F39FF"/>
<stop offset="0.11" stop-color="#614FFE"/>
<stop offset="0.91" stop-color="#73E9FE"/>
</linearGradient>
<linearGradient id="paint8_linear_2562_1882" x1="30.075" y1="28.1492" x2="38.4121" y2="27.1967" gradientUnits="userSpaceOnUse">
<stop stop-color="#5F39FF"/>
<stop offset="0.11" stop-color="#614FFE"/>
<stop offset="0.91" stop-color="#73E9FE"/>
</linearGradient>
<linearGradient id="paint9_linear_2562_1882" x1="30.0729" y1="25.2066" x2="38.4099" y2="24.2541" gradientUnits="userSpaceOnUse">
<stop stop-color="#5F39FF"/>
<stop offset="0.11" stop-color="#614FFE"/>
<stop offset="0.91" stop-color="#73E9FE"/>
</linearGradient>
<linearGradient id="paint10_linear_2562_1882" x1="30.8653" y1="22.8795" x2="38.2813" y2="19.01" gradientUnits="userSpaceOnUse">
<stop stop-color="#5F39FF"/>
<stop offset="0.11" stop-color="#614FFE"/>
<stop offset="0.91" stop-color="#73E9FE"/>
</linearGradient>
<linearGradient id="paint11_linear_2562_1882" x1="33.7182" y1="9.73976" x2="28.9471" y2="16.9934" gradientUnits="userSpaceOnUse">
<stop stop-color="#5F39FF"/>
<stop offset="0.11" stop-color="#614FFE"/>
<stop offset="0.91" stop-color="#73E9FE"/>
</linearGradient>
<linearGradient id="paint12_linear_2562_1882" x1="29.3359" y1="18.3326" x2="29.3677" y2="18.3326" gradientUnits="userSpaceOnUse">
<stop stop-color="#5F39FF"/>
<stop offset="0.11" stop-color="#614FFE"/>
<stop offset="0.91" stop-color="#73E9FE"/>
</linearGradient>
<linearGradient id="paint13_linear_2562_1882" x1="28.9023" y1="31.9976" x2="27.9424" y2="16.7837" gradientUnits="userSpaceOnUse">
<stop stop-color="#5F39FF"/>
<stop offset="0.11" stop-color="#614FFE"/>
<stop offset="0.91" stop-color="#73E9FE"/>
</linearGradient>
<linearGradient id="paint14_linear_2562_1882" x1="22.0443" y1="42.3103" x2="22.128" y2="44.9233" gradientUnits="userSpaceOnUse">
<stop stop-color="#5F39FF"/>
<stop offset="0.11" stop-color="#614FFE"/>
<stop offset="0.91" stop-color="#73E9FE"/>
</linearGradient>
<linearGradient id="paint15_linear_2562_1882" x1="21.0069" y1="35.9526" x2="27.8056" y2="35.9526" gradientUnits="userSpaceOnUse">
<stop stop-color="#FFE98D"/>
<stop offset="0.13" stop-color="#FEE38F"/>
<stop offset="0.28" stop-color="#FED495"/>
<stop offset="0.45" stop-color="#FEBB9F"/>
<stop offset="0.64" stop-color="#FD99AD"/>
<stop offset="0.82" stop-color="#FC6DBF"/>
<stop offset="1" stop-color="#FC3DD3"/>
</linearGradient>
<linearGradient id="paint16_linear_2562_1882" x1="21.0069" y1="35.9526" x2="27.8056" y2="35.9526" gradientUnits="userSpaceOnUse">
<stop stop-color="#FFE98D"/>
<stop offset="0.13" stop-color="#FEE38F"/>
<stop offset="0.28" stop-color="#FED495"/>
<stop offset="0.45" stop-color="#FEBB9F"/>
<stop offset="0.64" stop-color="#FD99AD"/>
<stop offset="0.82" stop-color="#FC6DBF"/>
<stop offset="1" stop-color="#FC3DD3"/>
</linearGradient>
<linearGradient id="paint17_linear_2562_1882" x1="24.3008" y1="33.9303" x2="8.12681" y2="33.9303" gradientUnits="userSpaceOnUse">
<stop stop-color="#FFE98D"/>
<stop offset="0.13" stop-color="#FEE38F"/>
<stop offset="0.28" stop-color="#FED495"/>
<stop offset="0.45" stop-color="#FEBB9F"/>
<stop offset="0.64" stop-color="#FD99AD"/>
<stop offset="0.82" stop-color="#FC6DBF"/>
<stop offset="1" stop-color="#FC3DD3"/>
</linearGradient>
<linearGradient id="paint18_linear_2562_1882" x1="22.9289" y1="45.8914" x2="22.2992" y2="38.4339" gradientUnits="userSpaceOnUse">
<stop stop-color="#FFE98D"/>
<stop offset="0.13" stop-color="#FEE38F"/>
<stop offset="0.28" stop-color="#FED495"/>
<stop offset="0.45" stop-color="#FEBB9F"/>
<stop offset="0.64" stop-color="#FD99AD"/>
<stop offset="0.82" stop-color="#FC6DBF"/>
<stop offset="1" stop-color="#FC3DD3"/>
</linearGradient>
<linearGradient id="paint19_linear_2562_1882" x1="28.1651" y1="35.621" x2="28.0972" y2="36.2771" gradientUnits="userSpaceOnUse">
<stop stop-color="#5F39FF"/>
<stop offset="0.11" stop-color="#614FFE"/>
<stop offset="0.91" stop-color="#73E9FE"/>
</linearGradient>
<linearGradient id="paint20_linear_2562_1882" x1="27.8064" y1="35.5017" x2="27.6725" y2="36.8003" gradientUnits="userSpaceOnUse">
<stop stop-color="#5F39FF"/>
<stop offset="0.11" stop-color="#614FFE"/>
<stop offset="0.91" stop-color="#73E9FE"/>
</linearGradient>
<linearGradient id="paint21_linear_2562_1882" x1="29.335" y1="35.5024" x2="29.4686" y2="36.7997" gradientUnits="userSpaceOnUse">
<stop stop-color="#5F39FF"/>
<stop offset="0.11" stop-color="#614FFE"/>
<stop offset="0.91" stop-color="#73E9FE"/>
</linearGradient>
<linearGradient id="paint22_linear_2562_1882" x1="28.9758" y1="35.621" x2="29.0437" y2="36.2771" gradientUnits="userSpaceOnUse">
<stop stop-color="#5F39FF"/>
<stop offset="0.11" stop-color="#614FFE"/>
<stop offset="0.91" stop-color="#73E9FE"/>
</linearGradient>
<linearGradient id="paint23_linear_2562_1882" x1="35.3955" y1="42.3103" x2="35.3117" y2="44.9233" gradientUnits="userSpaceOnUse">
<stop stop-color="#5F39FF"/>
<stop offset="0.11" stop-color="#614FFE"/>
<stop offset="0.91" stop-color="#73E9FE"/>
</linearGradient>
<linearGradient id="paint24_linear_2562_1882" x1="36.4345" y1="7.66366" x2="29.6357" y2="7.66366" gradientUnits="userSpaceOnUse">
<stop stop-color="#FFE98D"/>
<stop offset="0.13" stop-color="#FEE38F"/>
<stop offset="0.28" stop-color="#FED495"/>
<stop offset="0.45" stop-color="#FEBB9F"/>
<stop offset="0.64" stop-color="#FD99AD"/>
<stop offset="0.82" stop-color="#FC6DBF"/>
<stop offset="1" stop-color="#FC3DD3"/>
</linearGradient>
<linearGradient id="paint25_linear_2562_1882" x1="36.4345" y1="7.66366" x2="29.6357" y2="7.66366" gradientUnits="userSpaceOnUse">
<stop stop-color="#FFE98D"/>
<stop offset="0.13" stop-color="#FEE38F"/>
<stop offset="0.28" stop-color="#FED495"/>
<stop offset="0.45" stop-color="#FEBB9F"/>
<stop offset="0.64" stop-color="#FD99AD"/>
<stop offset="0.82" stop-color="#FC6DBF"/>
<stop offset="1" stop-color="#FC3DD3"/>
</linearGradient>
<linearGradient id="paint26_linear_2562_1882" x1="33.1405" y1="33.9303" x2="29.6357" y2="33.9303" gradientUnits="userSpaceOnUse">
<stop stop-color="#FFE98D"/>
<stop offset="0.13" stop-color="#FEE38F"/>
<stop offset="0.28" stop-color="#FED495"/>
<stop offset="0.45" stop-color="#FEBB9F"/>
<stop offset="0.64" stop-color="#FD99AD"/>
<stop offset="0.82" stop-color="#FC6DBF"/>
<stop offset="1" stop-color="#FC3DD3"/>
</linearGradient>
<linearGradient id="paint27_linear_2562_1882" x1="34.5115" y1="45.8914" x2="35.1412" y2="38.4339" gradientUnits="userSpaceOnUse">
<stop stop-color="#FFE98D"/>
<stop offset="0.13" stop-color="#FEE38F"/>
<stop offset="0.28" stop-color="#FED495"/>
<stop offset="0.45" stop-color="#FEBB9F"/>
<stop offset="0.64" stop-color="#FD99AD"/>
<stop offset="0.82" stop-color="#FC6DBF"/>
<stop offset="1" stop-color="#FC3DD3"/>
</linearGradient>
<linearGradient id="paint28_linear_2562_1882" x1="28.2322" y1="35.5674" x2="28.608" y2="31.1437" gradientUnits="userSpaceOnUse">
<stop stop-color="#5F39FF"/>
<stop offset="0.11" stop-color="#614FFE"/>
<stop offset="0.91" stop-color="#73E9FE"/>
</linearGradient>
<linearGradient id="paint29_linear_2562_1882" x1="27.2438" y1="29.2172" x2="30.0629" y2="29.2172" gradientUnits="userSpaceOnUse">
<stop stop-color="#FFE98D"/>
<stop offset="0.13" stop-color="#FEE38F"/>
<stop offset="0.28" stop-color="#FED495"/>
<stop offset="0.45" stop-color="#FEBB9F"/>
<stop offset="0.64" stop-color="#FD99AD"/>
<stop offset="0.82" stop-color="#FC6DBF"/>
<stop offset="1" stop-color="#FC3DD3"/>
</linearGradient>
<radialGradient id="paint30_radial_2562_1882" cx="0" cy="0" r="1" gradientUnits="userSpaceOnUse" gradientTransform="translate(16.8504 34.9528) scale(0.952381 0.938086)">
<stop offset="0.31" stop-color="white"/>
<stop offset="0.9" stop-color="white" stop-opacity="0"/>
</radialGradient>
<radialGradient id="paint31_radial_2562_1882" cx="0" cy="0" r="1" gradientUnits="userSpaceOnUse" gradientTransform="translate(25.4323 15.3569) scale(0.528254 0.520325)">
<stop offset="0.31" stop-color="white"/>
<stop offset="0.9" stop-color="white" stop-opacity="0"/>
</radialGradient>
<radialGradient id="paint32_radial_2562_1882" cx="0" cy="0" r="1" gradientUnits="userSpaceOnUse" gradientTransform="translate(39.3993 34.963) scale(0.528254 0.520325)">
<stop offset="0.31" stop-color="white"/>
<stop offset="0.9" stop-color="white" stop-opacity="0"/>
</radialGradient>
<radialGradient id="paint33_radial_2562_1882" cx="0" cy="0" r="1" gradientUnits="userSpaceOnUse" gradientTransform="translate(26.4875 39.6745) scale(0.330159 0.325204)">
<stop offset="0.31" stop-color="white"/>
<stop offset="0.9" stop-color="white" stop-opacity="0"/>
</radialGradient>
<radialGradient id="paint34_radial_2562_1882" cx="0" cy="0" r="1" gradientUnits="userSpaceOnUse" gradientTransform="translate(14.4621 25.1615) scale(0.330159 0.325203)">
<stop offset="0.31" stop-color="white"/>
<stop offset="0.9" stop-color="white" stop-opacity="0"/>
</radialGradient>
<radialGradient id="paint35_radial_2562_1882" cx="0" cy="0" r="1" gradientUnits="userSpaceOnUse" gradientTransform="translate(41.2092 20.3036) scale(0.330159 0.325203)">
<stop offset="0.31" stop-color="white"/>
<stop offset="0.9" stop-color="white" stop-opacity="0"/>
</radialGradient>
<radialGradient id="paint36_radial_2562_1882" cx="0" cy="0" r="1" gradientUnits="userSpaceOnUse" gradientTransform="translate(39.9011 30.2209) scale(0.364445 0.358974)">
<stop offset="0.31" stop-color="white"/>
<stop offset="0.9" stop-color="white" stop-opacity="0"/>
</radialGradient>
<radialGradient id="paint37_radial_2562_1882" cx="0" cy="0" r="1" gradientUnits="userSpaceOnUse" gradientTransform="translate(22.3707 32.5187) scale(0.95619 0.941838)">
<stop stop-color="white"/>
<stop offset="0.03" stop-color="white" stop-opacity="0.96"/>
<stop offset="0.18" stop-color="white" stop-opacity="0.71"/>
<stop offset="0.34" stop-color="white" stop-opacity="0.49"/>
<stop offset="0.49" stop-color="white" stop-opacity="0.32"/>
<stop offset="0.64" stop-color="white" stop-opacity="0.18"/>
<stop offset="0.78" stop-color="white" stop-opacity="0.08"/>
<stop offset="0.9" stop-color="white" stop-opacity="0.02"/>
<stop offset="1" stop-color="white" stop-opacity="0"/>
</radialGradient>
<radialGradient id="paint38_radial_2562_1882" cx="0" cy="0" r="1" gradientUnits="userSpaceOnUse" gradientTransform="translate(36.8404 17.094) scale(1.64444 1.61976)">
<stop stop-color="white"/>
<stop offset="0.03" stop-color="white" stop-opacity="0.96"/>
<stop offset="0.18" stop-color="white" stop-opacity="0.71"/>
<stop offset="0.34" stop-color="white" stop-opacity="0.49"/>
<stop offset="0.49" stop-color="white" stop-opacity="0.32"/>
<stop offset="0.64" stop-color="white" stop-opacity="0.18"/>
<stop offset="0.78" stop-color="white" stop-opacity="0.08"/>
<stop offset="0.9" stop-color="white" stop-opacity="0.02"/>
<stop offset="1" stop-color="white" stop-opacity="0"/>
</radialGradient>
<radialGradient id="paint39_radial_2562_1882" cx="0" cy="0" r="1" gradientUnits="userSpaceOnUse" gradientTransform="translate(31.8111 37.5883) scale(1.45397 1.43215)">
<stop stop-color="white"/>
<stop offset="0.03" stop-color="white" stop-opacity="0.96"/>
<stop offset="0.18" stop-color="white" stop-opacity="0.71"/>
<stop offset="0.34" stop-color="white" stop-opacity="0.49"/>
<stop offset="0.49" stop-color="white" stop-opacity="0.32"/>
<stop offset="0.64" stop-color="white" stop-opacity="0.18"/>
<stop offset="0.78" stop-color="white" stop-opacity="0.08"/>
<stop offset="0.9" stop-color="white" stop-opacity="0.02"/>
<stop offset="1" stop-color="white" stop-opacity="0"/>
</radialGradient>
<clipPath id="clip0_2562_1882">
<rect width="56" height="56" rx="28" fill="white"/>
</clipPath>
<clipPath id="clip1_2562_1882">
<rect width="40" height="38" fill="white" transform="translate(8 7.66357)"/>
</clipPath>
</defs>
</svg>
