<svg width="16" height="16" viewBox="0 0 16 16" fill="none" xmlns="http://www.w3.org/2000/svg">
<path fill-rule="evenodd" clip-rule="evenodd" d="M7.00017 1.33337C6.09656 1.33345 5.20608 1.54962 4.40301 1.96384C3.59994 2.37806 2.90756 2.97832 2.38366 3.71454C1.85976 4.45077 1.51951 5.3016 1.39131 6.19607C1.26311 7.09053 1.35067 8.00269 1.64669 8.85643C1.94271 9.71017 2.4386 10.4807 3.09299 11.1039C3.74739 11.727 4.54131 12.1846 5.40851 12.4384C6.27572 12.6923 7.19106 12.7351 8.07818 12.5633C8.9653 12.3915 9.79847 12.01 10.5082 11.4507L12.9428 13.8854C13.0686 14.0068 13.237 14.074 13.4118 14.0725C13.5866 14.071 13.7538 14.0009 13.8774 13.8773C14.001 13.7536 14.0711 13.5864 14.0726 13.4116C14.0741 13.2368 14.0069 13.0684 13.8855 12.9427L11.4508 10.508C12.1095 9.67245 12.5196 8.66831 12.6342 7.61052C12.7489 6.55274 12.5634 5.48405 12.099 4.52677C11.6346 3.56948 10.9101 2.76228 10.0084 2.19753C9.10665 1.63278 8.06415 1.3333 7.00017 1.33337ZM2.66684 7.00004C2.66684 5.85077 3.12338 4.74857 3.93604 3.93591C4.7487 3.12325 5.8509 2.66671 7.00017 2.66671C8.14944 2.66671 9.25164 3.12325 10.0643 3.93591C10.877 4.74857 11.3335 5.85077 11.3335 7.00004C11.3335 8.14931 10.877 9.25151 10.0643 10.0642C9.25164 10.8768 8.14944 11.3334 7.00017 11.3334C5.8509 11.3334 4.7487 10.8768 3.93604 10.0642C3.12338 9.25151 2.66684 8.14931 2.66684 7.00004Z" fill="#737373"/>
</svg>
