<svg width="20" height="18" viewBox="0 0 20 18" fill="none" xmlns="http://www.w3.org/2000/svg">
<path d="M3.09129 8.61837L0.0936222 1.60587C-0.00554276 1.3537 -0.0258503 1.11901 0.0327053 0.901788C0.092205 0.684566 0.197985 0.499454 0.350039 0.346454C0.502094 0.193454 0.690983 0.0876767 0.916706 0.0291211C1.14054 -0.0294344 1.37382 0.000315869 1.61654 0.118371L18.3856 7.57995C18.6151 7.6744 18.787 7.81937 18.9013 8.01487C19.0146 8.21132 19.0713 8.41248 19.0713 8.61837C19.0713 8.82332 19.0146 9.02401 18.9013 9.22045C18.787 9.4169 18.6151 9.56234 18.3856 9.65679L1.61654 17.1184C1.37382 17.2364 1.14007 17.2662 0.915289 17.2076C0.691456 17.1481 0.50304 17.0423 0.350039 16.8903C0.197039 16.7382 0.0912609 16.5531 0.0327053 16.335C-0.0258503 16.1168 -0.00507164 15.8821 0.0950394 15.6309L3.09129 8.61837Z" fill="#FAFAFA"/>
</svg>
