<svg width="25" height="24" viewBox="0 0 25 24" fill="none" xmlns="http://www.w3.org/2000/svg">
<path d="M11.7798 22C11.3298 22 10.9425 21.85 10.6178 21.55C10.2931 21.25 10.0971 20.8833 10.0298 20.45L9.80481 18.8C9.58815 18.7167 9.38415 18.6167 9.19281 18.5C9.00148 18.3833 8.81381 18.2583 8.62981 18.125L7.07981 18.775C6.66315 18.9583 6.24648 18.975 5.82981 18.825C5.41315 18.675 5.08815 18.4083 4.85481 18.025L3.67981 15.975C3.44648 15.5917 3.37981 15.1833 3.47981 14.75C3.57981 14.3167 3.80481 13.9583 4.15481 13.675L5.47981 12.675C5.46315 12.5583 5.45481 12.4457 5.45481 12.337V11.662C5.45481 11.554 5.46315 11.4417 5.47981 11.325L4.15481 10.325C3.80481 10.0417 3.57981 9.68333 3.47981 9.25C3.37981 8.81667 3.44648 8.40833 3.67981 8.025L4.85481 5.975C5.08815 5.59167 5.41315 5.325 5.82981 5.175C6.24648 5.025 6.66315 5.04167 7.07981 5.225L8.62981 5.875C8.81315 5.74167 9.00481 5.61667 9.20481 5.5C9.40481 5.38333 9.60482 5.28333 9.80481 5.2L10.0298 3.55C10.0965 3.11667 10.2925 2.75 10.6178 2.45C10.9431 2.15 11.3305 2 11.7798 2H14.1298C14.5798 2 14.9675 2.15 15.2928 2.45C15.6181 2.75 15.8138 3.11667 15.8798 3.55L16.1048 5.2C16.3215 5.28333 16.5258 5.38333 16.7178 5.5C16.9098 5.61667 17.0971 5.74167 17.2798 5.875L18.8298 5.225C19.2465 5.04167 19.6631 5.025 20.0798 5.175C20.4965 5.325 20.8215 5.59167 21.0548 5.975L22.2298 8.025C22.4631 8.40833 22.5298 8.81667 22.4298 9.25C22.3298 9.68333 22.1048 10.0417 21.7548 10.325L20.4298 11.325C20.4465 11.4417 20.4548 11.5543 20.4548 11.663V12.337C20.4548 12.4457 20.4381 12.5583 20.4048 12.675L21.7298 13.675C22.0798 13.9583 22.3048 14.3167 22.4048 14.75C22.5048 15.1833 22.4381 15.5917 22.2048 15.975L21.0048 18.025C20.7715 18.4083 20.4465 18.675 20.0298 18.825C19.6131 18.975 19.1965 18.9583 18.7798 18.775L17.2798 18.125C17.0965 18.2583 16.9048 18.3833 16.7048 18.5C16.5048 18.6167 16.3048 18.7167 16.1048 18.8L15.8798 20.45C15.8131 20.8833 15.6175 21.25 15.2928 21.55C14.9681 21.85 14.5805 22 14.1298 22H11.7798ZM13.0048 15.5C13.9715 15.5 14.7965 15.1583 15.4798 14.475C16.1631 13.7917 16.5048 12.9667 16.5048 12C16.5048 11.0333 16.1631 10.2083 15.4798 9.525C14.7965 8.84167 13.9715 8.5 13.0048 8.5C12.0215 8.5 11.1921 8.84167 10.5168 9.525C9.84148 10.2083 9.50415 11.0333 9.50481 12C9.50548 12.9667 9.84315 13.7917 10.5178 14.475C11.1925 15.1583 12.0215 15.5 13.0048 15.5Z" fill="white"/>
</svg>
