<svg width="13" height="19" viewBox="0 0 13 19" fill="none" xmlns="http://www.w3.org/2000/svg">
<path d="M0.295798 11.2958C0.20207 11.3888 0.127676 11.4994 0.0769072 11.6212C0.0261385 11.7431 0 11.8738 0 12.0058C0 12.1378 0.0261385 12.2685 0.0769072 12.3904C0.127676 12.5122 0.20207 12.6228 0.295798 12.7158L5.2958 17.7158C5.38876 17.8095 5.49936 17.8839 5.62122 17.9347C5.74308 17.9855 5.87379 18.0116 6.0058 18.0116C6.13781 18.0116 6.26852 17.9855 6.39038 17.9347C6.51223 17.8839 6.62284 17.8095 6.7158 17.7158L11.7158 12.7158C11.8095 12.6228 11.8839 12.5122 11.9347 12.3904C11.9855 12.2685 12.0116 12.1378 12.0116 12.0058C12.0116 11.8738 11.9855 11.7431 11.9347 11.6212C11.8839 11.4994 11.8095 11.3888 11.7158 11.2958C11.6228 11.2021 11.5122 11.1277 11.3904 11.0769C11.2685 11.0261 11.1378 11 11.0058 11C10.8738 11 10.7431 11.0261 10.6212 11.0769C10.4994 11.1277 10.3888 11.2021 10.2958 11.2958L6.0058 15.5958L1.7158 11.2958C1.62284 11.2021 1.51223 11.1277 1.39038 11.0769C1.26852 11.0261 1.13781 11 1.0058 11C0.873786 11 0.743081 11.0261 0.621222 11.0769C0.499362 11.1277 0.388761 11.2021 0.295798 11.2958ZM5.2958 0.295799L0.295798 5.2958C0.20256 5.38904 0.128599 5.49973 0.0781388 5.62155C0.0276785 5.74337 0.0017066 5.87394 0.0017066 6.0058C0.0017066 6.2721 0.107495 6.52749 0.295798 6.7158C0.389037 6.80904 0.499727 6.883 0.621549 6.93346C0.743371 6.98392 0.873939 7.00989 1.0058 7.00989C1.2721 7.00989 1.52749 6.9041 1.7158 6.7158L6.0058 2.4158L10.2958 6.7158C10.3888 6.80953 10.4994 6.88392 10.6212 6.93469C10.7431 6.98546 10.8738 7.0116 11.0058 7.0116C11.1378 7.0116 11.2685 6.98546 11.3904 6.93469C11.5122 6.88392 11.6228 6.80953 11.7158 6.7158C11.8095 6.62284 11.8839 6.51223 11.9347 6.39038C11.9855 6.26852 12.0116 6.13781 12.0116 6.0058C12.0116 5.87379 11.9855 5.74308 11.9347 5.62122C11.8839 5.49936 11.8095 5.38876 11.7158 5.2958L6.7158 0.295799C6.62284 0.20207 6.51223 0.127674 6.39038 0.0769062C6.26852 0.0261383 6.13781 0 6.0058 0C5.87379 0 5.74308 0.0261383 5.62122 0.0769062C5.49936 0.127674 5.38876 0.20207 5.2958 0.295799Z" fill="white"/>
</svg>
