<svg width="56" height="56" viewBox="0 0 56 56" fill="none" xmlns="http://www.w3.org/2000/svg">
<g clip-path="url(#clip0_2562_2337)">
<g filter="url(#filter0_f_2562_2337)">
<path d="M56 0H0V56H56V0Z" fill="url(#paint0_radial_2562_2337)"/>
</g>
<g opacity="0.2">
<g style="mix-blend-mode:screen" opacity="0.5">
<path d="M41.943 25.6678C41.943 34.2092 34.9482 41.1354 26.3191 41.1354C17.6901 41.1354 10.6953 34.2105 10.6953 25.6678C10.6953 17.1251 17.6901 10.2002 26.3191 10.2002C34.9482 10.2002 41.943 17.1251 41.943 25.6678Z" stroke="#FC3DD3" stroke-width="2.62" stroke-miterlimit="10"/>
</g>
<g style="mix-blend-mode:screen" opacity="0.5">
<path d="M41.2169 25.668C41.2169 33.8136 34.5473 40.4166 26.3194 40.4166C18.0915 40.4166 11.4219 33.8136 11.4219 25.668C11.4219 17.5223 18.0915 10.9194 26.3194 10.9194C34.5473 10.9194 41.2169 17.5237 41.2169 25.668Z" stroke="#FC3DD3" stroke-width="1.35" stroke-miterlimit="10"/>
</g>
<g style="mix-blend-mode:screen" opacity="0.5">
<path d="M40.4319 25.6676C40.4319 33.384 34.1133 39.6395 26.319 39.6395C18.5247 39.6395 12.2061 33.384 12.2061 25.6676C12.2061 17.9513 18.5247 11.6958 26.319 11.6958C34.1133 11.6958 40.4319 17.9513 40.4319 25.6676Z" fill="#FC3DD3"/>
</g>
</g>
<g style="mix-blend-mode:screen" opacity="0.9">
<path style="mix-blend-mode:screen" opacity="0.9" d="M18.0218 15.4028C18.0218 16.4036 17.0557 16.4559 17.0557 16.4559C17.0557 16.4559 18.0218 16.5096 18.0218 17.5103C18.0218 16.5096 18.988 16.4559 18.988 16.4559C18.988 16.4559 18.0218 16.4036 18.0218 15.4028Z" fill="url(#paint1_radial_2562_2337)"/>
<path style="mix-blend-mode:screen" opacity="0.9" d="M21.3413 19.6958C21.3413 20.2512 20.8047 20.2794 20.8047 20.2794C20.8047 20.2794 21.3413 20.3089 21.3413 20.8643C21.3413 20.3089 21.8765 20.2794 21.8765 20.2794C21.8765 20.2794 21.3413 20.2498 21.3413 19.6958Z" fill="url(#paint2_radial_2562_2337)"/>
<path style="mix-blend-mode:screen" opacity="0.9" d="M37.8735 32.9766C37.8735 33.5319 37.3369 33.5601 37.3369 33.5601C37.3369 33.5601 37.8735 33.5896 37.8735 34.145C37.8735 33.5896 38.4088 33.5601 38.4088 33.5601C38.4088 33.5601 37.8735 33.5306 37.8735 32.9766Z" fill="url(#paint3_radial_2562_2337)"/>
<path style="mix-blend-mode:screen" opacity="0.9" d="M29.6755 35.543C29.6755 35.8891 29.3408 35.9079 29.3408 35.9079C29.3408 35.9079 29.6755 35.9266 29.6755 36.2728C29.6755 35.9266 30.0102 35.9079 30.0102 35.9079C30.0102 35.9079 29.6755 35.8891 29.6755 35.543Z" fill="url(#paint4_radial_2562_2337)"/>
<path style="mix-blend-mode:screen" opacity="0.9" d="M19.3445 24.0688C19.3445 24.4163 19.0098 24.4337 19.0098 24.4337C19.0098 24.4337 19.3445 24.4525 19.3445 24.7986C19.3445 24.4525 19.6792 24.4337 19.6792 24.4337C19.6792 24.4337 19.3445 24.415 19.3445 24.0688Z" fill="url(#paint5_radial_2562_2337)"/>
<path style="mix-blend-mode:screen" opacity="0.9" d="M33.9474 10.6377C33.9474 11.1917 33.4121 11.2226 33.4121 11.2226C33.4121 11.2226 33.9474 11.2521 33.9474 11.8075C33.9474 11.2521 34.4826 11.2226 34.4826 11.2226C34.4826 11.2226 33.9474 11.1931 33.9474 10.6377Z" fill="url(#paint6_radial_2562_2337)"/>
<path style="mix-blend-mode:color-dodge" opacity="0.9" d="M38.8259 19.0112C38.8259 20.1059 37.7676 20.1649 37.7676 20.1649C37.7676 20.1649 38.8259 20.224 38.8259 21.32C38.8259 20.224 39.8842 20.1649 39.8842 20.1649C39.8842 20.1649 38.8259 20.1059 38.8259 19.0112Z" fill="url(#paint7_radial_2562_2337)"/>
<path style="mix-blend-mode:color-dodge" opacity="0.9" d="M12.8767 28.9385C12.8767 30.0331 11.8184 30.0922 11.8184 30.0922C11.8184 30.0922 12.8767 30.1512 12.8767 31.2472C12.8767 30.1512 13.935 30.0922 13.935 30.0922C13.935 30.0922 12.8767 30.0331 12.8767 28.9385Z" fill="url(#paint8_radial_2562_2337)"/>
<path style="mix-blend-mode:color-dodge" opacity="0.9" d="M24.7338 37.2559C24.7338 38.2244 23.7988 38.2754 23.7988 38.2754C23.7988 38.2754 24.7338 38.3277 24.7338 39.2963C24.7338 38.3277 25.6702 38.2754 25.6702 38.2754C25.6702 38.2754 24.7338 38.2231 24.7338 37.2559Z" fill="url(#paint9_radial_2562_2337)"/>
</g>
<g style="mix-blend-mode:screen" opacity="0.8">
<path d="M42.9798 23.7989C42.8727 23.1952 42.2914 22.7927 41.683 22.8987C41.2331 22.9765 40.8957 23.3119 40.7914 23.7237L33.5635 22.9135C33.5133 22.6465 33.2559 22.4681 32.9835 22.515C32.8128 22.5445 32.6854 22.6613 32.6204 22.8061L30.2056 22.5284C30.2043 22.5164 30.2056 22.5056 30.2029 22.4936C30.1433 22.1568 29.8195 21.9328 29.4807 21.9918C29.4143 22.0039 29.3533 22.0281 29.2964 22.0576L28.3912 21.0528C28.44 20.9669 28.4644 20.869 28.4468 20.7644C28.4048 20.5242 28.1731 20.3646 27.9319 20.4062C27.8668 20.4169 27.8085 20.4437 27.7584 20.4786L26.5632 19.6147C26.5836 19.5503 26.5917 19.4832 26.5795 19.4135C26.5375 19.1733 26.3058 19.0137 26.0646 19.0553C25.9928 19.0674 25.9304 19.1009 25.8762 19.1425L22.9615 17.2456C22.9696 17.1986 22.9737 17.1503 22.9656 17.102C22.9236 16.8619 22.6918 16.7023 22.4506 16.7452C22.372 16.7586 22.307 16.7975 22.2487 16.8445L17.3461 14.4271C17.4058 14.2554 17.4288 14.0689 17.3949 13.877C17.2879 13.2734 16.7065 12.8709 16.0981 12.9769C15.4897 13.0829 15.0818 13.657 15.1889 14.2607C15.2959 14.8644 15.8772 15.2669 16.4857 15.1609C16.7973 15.1072 17.0548 14.9288 17.2188 14.6887L22.0943 17.0913C22.0834 17.1436 22.0807 17.1986 22.0902 17.255C22.1322 17.4951 22.3639 17.6547 22.6051 17.6118C22.6905 17.5971 22.761 17.5528 22.8206 17.4991L25.7136 19.3839C25.6987 19.4416 25.6947 19.5033 25.7055 19.5664C25.7475 19.8065 25.9792 19.9662 26.2204 19.9246C26.2855 19.9138 26.3437 19.887 26.3952 19.8521L27.5904 20.7134C27.5701 20.7778 27.5606 20.8462 27.5728 20.9173C27.6148 21.1561 27.8465 21.3171 28.0877 21.2741C28.1189 21.2688 28.1446 21.2527 28.1731 21.2406L29.0769 22.2467C29.024 22.3232 28.9902 22.4117 28.9753 22.5056L27.9739 22.5902C27.8912 22.4117 27.7029 22.3004 27.4996 22.3353C27.3275 22.3648 27.1988 22.4922 27.1527 22.6478L25.7014 22.731C25.6228 22.5472 25.4304 22.4292 25.2231 22.4654C25.0944 22.4882 24.9927 22.5633 24.9277 22.6653L16.6049 20.759C16.6144 20.6624 16.6158 20.5631 16.5981 20.4612C16.4911 19.8575 15.9098 19.455 15.3013 19.561C14.6916 19.667 14.2851 20.2412 14.3921 20.8449C14.4992 21.4485 15.0805 21.851 15.6889 21.745C16.0927 21.6752 16.4044 21.3962 16.5385 21.0407L24.8613 22.947C24.8613 22.9564 24.8586 22.9644 24.8613 22.9738C24.9047 23.214 25.135 23.3736 25.3762 23.332C25.5483 23.3012 25.677 23.1751 25.7231 23.0194L27.1744 22.9376C27.2543 23.1214 27.4454 23.2394 27.6541 23.2032C27.8316 23.1724 27.9644 23.0409 28.0064 22.8786L28.9996 22.7927C29.0959 23.0785 29.3885 23.2609 29.6975 23.2073C29.9238 23.1683 30.0986 23.0101 30.1731 22.8115L32.5784 23.0838C32.5784 23.0838 32.5784 23.0879 32.5784 23.0892C32.6258 23.3602 32.8873 23.5399 33.1597 23.493C33.3345 23.4621 33.4632 23.3427 33.5269 23.1912L40.7629 24.0095C40.7629 24.0672 40.7656 24.1235 40.7751 24.1812C40.8822 24.7835 41.4635 25.1873 42.0719 25.0813C42.6817 24.9754 43.0882 24.3999 42.9811 23.7975L42.9798 23.7989Z" fill="#FC3DD3"/>
</g>
<path d="M30.1241 16.8686C29.6824 16.2569 29.0685 15.8853 29.0685 15.8853C28.7474 14.0501 26.6891 13.8328 25.498 13.5578C23.7364 13.15 24.3611 11.9761 24.0413 12.011C23.7215 12.0459 23.403 13.4169 24.7161 14.2258C26.0292 15.0348 27.1132 15.456 26.9628 16.0543C26.685 15.9899 26.9438 16.2918 26.7107 16.2649C27.9018 17.2027 28.742 16.9022 30.1241 16.87V16.8686Z" fill="url(#paint10_linear_2562_2337)"/>
<g style="mix-blend-mode:multiply" opacity="0.2">
<path d="M29.0667 15.8858C28.984 15.4136 28.7848 15.0487 28.5152 14.7629C27.8051 14.3068 26.8999 15.0621 25.9121 14.9252C26.6127 15.3344 27.0626 15.655 26.9609 16.0548C26.6831 15.9904 26.942 16.2922 26.7089 16.2654C27.9 17.2031 28.7401 16.9026 30.1223 16.8704C29.6805 16.2587 29.0667 15.8871 29.0667 15.8871V15.8858Z" fill="#FC3DD3"/>
</g>
<path d="M18.1751 30.6728C14.5585 29.6009 14.3214 29.1515 15.5965 26.3961C16.8716 23.6406 12.6492 23.5239 11.9175 24.4093C11.0502 26.4242 8.82252 23.8593 8 24.6172C9.39436 22.0858 11.679 23.7412 12.6397 23.5386C13.6005 23.3361 16.419 23.1764 16.4271 25.2531C16.4352 27.3298 14.8783 27.7282 15.5816 28.8819C16.2848 30.0356 18.4028 29.9256 18.4028 29.9256L18.1738 30.6728H18.1751Z" fill="url(#paint11_linear_2562_2337)"/>
<path d="M12.4934 23.6396C13.4541 23.4371 16.2726 23.2774 16.2808 25.3554C16.2889 27.4321 14.7319 27.8305 15.4352 28.9842C16.1385 30.1379 18.2564 30.0279 18.2564 30.0279L18.0681 30.6423C18.1047 30.653 18.1358 30.6638 18.1738 30.6745L18.4028 29.9273C18.4028 29.9273 16.2848 30.0373 15.5816 28.8836C14.8783 27.7299 16.4352 27.3315 16.4271 25.2548C16.419 23.1781 13.5991 23.3378 12.6397 23.5403C11.847 23.7067 10.1586 22.6187 8.80762 23.6436C10.1315 22.7971 11.7291 23.8006 12.4934 23.641V23.6396Z" fill="#73E9FE"/>
<path d="M37.8291 26.262C41.2072 25.9025 42.0907 27.9604 41.4674 29.6587C40.8441 31.3571 40.1679 34.9067 40.0121 35.7814C39.8562 36.656 39.6475 37.8902 38.8684 37.4797C38.0892 37.0692 37.1529 35.988 37.3616 35.1133C37.5689 34.2373 38.886 34.4613 39.1638 33.4659C39.4402 32.4705 40.0649 30.7212 39.4931 30.7212C38.9212 30.7212 37.2233 33.3693 36.3913 31.891C35.5593 30.414 37.8291 26.262 37.8291 26.262Z" fill="url(#paint12_linear_2562_2337)"/>
<path d="M38.299 34.3057C37.8884 34.4962 37.4711 34.6518 37.3613 35.1133C37.154 35.9879 38.089 37.0692 38.8681 37.4797C39.463 37.7936 39.7245 37.151 39.8844 36.44C39.0755 36.004 38.4616 35.3011 38.2977 34.307L38.299 34.3057Z" fill="url(#paint13_linear_2562_2337)"/>
<g style="mix-blend-mode:multiply" opacity="0.3">
<path d="M37.9959 35.1738C38.1829 34.7271 39.4607 34.4213 39.416 32.6035C39.3265 32.9121 39.233 33.2139 39.1626 33.4674C39.0311 33.9383 38.6666 34.1355 38.298 34.3072C37.8874 34.4977 37.4701 34.6533 37.3603 35.1148C37.153 35.9895 38.088 37.0707 38.8672 37.4812C39.2032 37.6597 39.481 37.3256 39.6463 37.0506C38.5921 36.7582 37.8061 35.6219 37.9931 35.1738H37.9959ZM38.4281 34.8063C38.4051 34.7419 38.3834 34.6761 38.3658 34.6077C38.3848 34.6761 38.4064 34.7405 38.4281 34.8063Z" fill="#5F39FF"/>
</g>
<g style="mix-blend-mode:multiply" opacity="0.5">
<path d="M39.863 26.3911C39.3223 26.2328 38.6516 26.1764 37.8291 26.2636C37.8291 26.2636 35.5593 30.4156 36.3913 31.8926C37.1556 33.2516 38.6516 31.1266 39.3318 30.7738C38.1068 29.3048 38.3711 27.3422 39.863 26.3924V26.3911Z" fill="#5F39FF"/>
</g>
<path d="M24.005 33.5288C23.2055 35.2701 22.3342 35.1279 21.7461 37.3454C21.3057 39.0089 24.3194 40.9581 23.711 42.1749C23.1581 43.2816 21.1567 42.9047 21.1255 42.4324C21.0578 41.4263 21.1824 40.8052 20.9168 40.0674C20.6499 39.3295 18.1999 36.9564 19.0523 34.8985C19.9046 32.842 22.089 32.5254 22.089 32.5254L24.0064 33.5275L24.005 33.5288Z" fill="url(#paint14_linear_2562_2337)"/>
<path d="M21.0996 41.539C21.101 41.8073 21.1023 42.0984 21.1254 42.4324C21.1565 42.9047 23.1579 43.2816 23.7108 42.1749C23.8883 41.8207 23.7569 41.4035 23.494 40.9487C22.8056 41.4813 21.9506 41.6088 21.0996 41.5377V41.539Z" fill="url(#paint15_linear_2562_2337)"/>
<g style="mix-blend-mode:multiply" opacity="0.5">
<path d="M21.6965 35.2434C22.0475 35.2434 22.6871 34.6733 23.3782 34.7068C23.5923 34.354 23.8009 33.9703 24.0042 33.529L22.0868 32.5269C22.0868 32.5269 19.9024 32.8435 19.0501 34.9C18.4878 36.2589 19.3645 37.7534 20.103 38.8252C19.9295 37.3979 20.6762 35.9169 21.6965 35.2448V35.2434Z" fill="#5F39FF"/>
</g>
<path d="M29.1986 15.0485C27.3611 14.6259 26.5345 14.9948 26.3489 16.182C26.1619 17.3693 24.5114 19.0032 24.0317 19.3722C23.552 19.7411 23.4992 20.8746 24.6713 21.0598C24.6713 21.0598 24.964 21.7185 25.3367 21.7721C25.7093 21.8244 26.0603 21.3388 27.1131 20.9525C27.6619 20.7499 28.9032 20.6171 29.3151 19.9758C29.3151 19.9758 29.6078 22.5073 25.922 24.541C23.3027 25.9858 17.0437 26.5801 16.4055 29.357C15.7659 32.1353 16.6006 34.3501 15.8553 36.0377C15.11 37.7254 14.2821 38.4189 14.1127 40.6888C14.0246 40.9879 14.0856 42.104 14.3607 42.477C14.5992 42.8003 17.0098 42.6889 17.1684 42.583C17.3283 42.4783 17.1331 41.2589 16.5206 40.89C15.9082 40.5211 16.4759 39.3553 16.6304 39.0119C16.8757 38.4672 18.1725 37.5979 19.2497 36.7984C20.243 36.0605 21.224 34.8585 21.4409 34.0711C22.7282 33.5787 26.5061 35.4689 30.5198 33.9933C31.7447 36.8936 34.0727 37.9641 35.0578 39.519C35.6893 40.293 34.7706 41.3139 34.9996 42.2342C35.2272 43.1544 38.1027 42.9183 38.1122 42.43C37.997 40.6364 37.0376 40.081 36.4698 39.0615C34.8722 36.3543 36.3628 35.6165 35.6175 33.5063C35.6175 33.5063 39.1677 29.9205 38.1203 25.7712C37.0742 21.6232 33.0239 17.6845 32.7407 16.6301C32.4575 15.5757 31.3043 14.8794 31.3043 14.8794C30.9832 13.0443 28.9235 12.8269 27.7324 12.5519C25.9708 12.1454 26.5969 10.9703 26.2771 11.0052C25.9573 11.04 25.6375 12.4124 26.9519 13.22C28.2663 14.0289 29.349 14.4502 29.1986 15.0485Z" fill="url(#paint16_linear_2562_2337)"/>
<path d="M14.123 41.7725C14.1786 42.0488 14.3304 42.5613 14.4618 42.678C15.2762 43.4037 17.0093 42.6887 17.1679 42.5827C17.2817 42.5089 17.2153 41.8731 16.9483 41.3794C16.2166 41.6531 14.8737 41.924 14.123 41.7738V41.7725Z" fill="url(#paint17_linear_2562_2337)"/>
<path d="M35.0345 41.3743C34.9681 41.6627 34.9302 41.9525 35.0006 42.2329C35.2283 43.1532 38.1037 42.9171 38.1132 42.4287C38.0671 41.7164 37.8869 41.2013 37.6525 40.772C37.04 41.3461 35.9262 41.4481 35.0345 41.3743Z" fill="url(#paint18_linear_2562_2337)"/>
<path d="M26.9532 13.22C28.2419 14.0128 29.3043 14.4341 29.204 15.0136C29.5441 15.192 29.9384 15.3584 30.326 15.2913C30.7257 15.2215 31.0157 14.9572 31.2515 14.65C30.8043 13.0268 28.872 12.8162 27.7324 12.5519C25.9708 12.1454 26.5969 10.9703 26.2771 11.0052C25.9573 11.04 25.6375 12.4124 26.9519 13.22H26.9532Z" fill="url(#paint19_linear_2562_2337)"/>
<g style="mix-blend-mode:multiply" opacity="0.35">
<path d="M16.9946 29.934C17.2751 27.8896 18.1451 27.844 18.9093 27.0391C17.6261 27.6186 16.6396 28.3417 16.4052 29.3572C15.7656 32.1355 16.6003 34.3503 15.855 36.0379C15.1097 37.7255 14.2818 39.0456 14.1354 40.3764C14.0216 41.4066 14.023 42.1096 14.4972 42.6462C14.9715 43.1828 16.0894 43.0486 17.1911 42.5952C17.2751 42.3108 17.1071 42.0425 17.1396 41.8064C14.3048 42.3873 14.7656 41.3194 14.7005 40.7667C14.5379 39.3756 16.3632 36.8012 16.8943 35.2102C17.3496 33.8459 17.2683 31.682 16.996 29.934H16.9946Z" fill="#5F39FF"/>
</g>
<g style="mix-blend-mode:multiply" opacity="0.3">
<path d="M36.1405 42.1186C35.8844 39.331 34.8694 38.2564 32.9141 37.2905C33.9615 38.1088 34.5415 38.7018 35.0591 39.5188C35.6906 40.2928 34.7718 41.3137 35.0009 42.234C35.2285 43.1543 38.1039 42.9182 38.1134 42.4299C38.0917 42.1012 38.043 41.8154 37.9725 41.5592C37.9047 42.4218 36.1757 42.5063 36.1418 42.1186H36.1405Z" fill="#5F39FF"/>
</g>
<g style="mix-blend-mode:multiply" opacity="0.5">
<path d="M24.6709 21.0597C25.3335 21.0182 25.6926 20.6171 26.1533 20.1261C26.6141 19.6337 27.6629 19.564 27.6629 19.564C27.6629 19.564 26.8105 19.7048 26.4379 20.0912C26.0653 20.4775 25.6913 21.0665 25.3376 21.1993C24.9826 21.3307 24.8186 21.3281 24.8186 21.3281C24.6804 21.2167 24.6709 21.0611 24.6709 21.0611V21.0597Z" fill="#5F39FF"/>
</g>
<path d="M26.4668 17.3518C26.6606 16.2383 27.6227 16.8541 27.7826 16.2651C27.788 17.3598 26.4668 17.3518 26.4668 17.3518Z" fill="url(#paint20_linear_2562_2337)"/>
<g style="mix-blend-mode:multiply" opacity="0.5">
<path d="M24.1879 20.4695C24.2665 20.2549 24.8993 20.2965 24.8045 20.4561C24.711 20.6158 24.1445 20.5862 24.1879 20.4695Z" fill="#5F39FF"/>
</g>
<g style="mix-blend-mode:multiply" opacity="0.5">
<path d="M29.3147 19.9757C30.4068 19.3425 30.5125 18.2881 30.5125 18.2881C30.5125 20.8463 28.793 21.9075 28.793 21.9075C29.3946 20.8987 29.3147 19.9757 29.3147 19.9757Z" fill="#5F39FF"/>
</g>
<g style="mix-blend-mode:screen">
<path d="M24.8602 21.0246C23.6881 20.8408 23.7409 19.7059 24.2206 19.337C24.7003 18.9681 26.3508 17.3328 26.5378 16.1469C26.6489 15.4413 26.9931 15.0308 27.634 14.8979C26.8698 14.9851 26.4714 15.4064 26.3508 16.1764C26.1652 17.3636 24.5133 18.9976 24.0336 19.3665C23.554 19.7354 23.5011 20.8704 24.6732 21.0541C24.6732 21.0541 24.9659 21.7128 25.3386 21.7665C25.4131 21.7772 25.4876 21.7611 25.5649 21.7356C25.5513 21.7356 25.5378 21.7383 25.5256 21.7356C25.1529 21.6833 24.8602 21.0233 24.8602 21.0233V21.0246Z" fill="#73E9FE"/>
<path d="M16.6227 29.4254C17.2623 26.6485 23.4549 26.0528 26.0743 24.608C29.7587 22.5743 29.5026 19.9409 29.5026 19.9409C29.4538 20.0174 29.3914 20.0858 29.321 20.1502C29.3101 20.7525 29.0378 22.8198 25.9252 24.5369C23.3045 25.9817 17.0469 26.5747 16.4073 29.353C15.769 32.1299 16.6295 34.3568 15.8571 36.0337C14.8706 38.1707 14.6213 38.2177 14.3164 39.425C14.8584 38.0164 15.5034 37.2263 16.0441 36.0028C16.7894 34.3152 15.9845 32.205 16.6227 29.4267V29.4254Z" fill="#73E9FE"/>
<path d="M27.141 13.1851C25.9811 12.4714 26.0949 11.319 26.3578 11.036C26.3415 11.0105 26.3171 10.9957 26.2805 11.0011C25.9607 11.036 25.6423 12.407 26.9554 13.2159C28.221 13.9953 29.2698 14.4152 29.2088 14.98C29.2698 14.9934 29.324 14.9988 29.3877 15.0136C29.5395 14.4166 28.4554 13.994 27.141 13.1864V13.1851Z" fill="#73E9FE"/>
<path d="M35.7397 33.9571C35.6624 33.8417 35.6177 33.5063 35.6177 33.5063C36.0622 35.5428 34.7478 36.3436 36.3196 39.0052C36.8874 40.0247 37.8888 40.6553 38.004 42.4489C38.0013 42.5978 37.6422 42.7346 37.2587 42.8111C37.737 42.7413 38.1029 42.6018 38.107 42.4287C37.9904 40.6351 37.031 40.0797 36.4633 39.0602C34.9849 36.5569 36.1475 35.7346 35.7397 33.9558V33.9571Z" fill="#73E9FE"/>
</g>
<path d="M29.9727 15.4349C30.9307 14.4154 32.8129 14.626 33.1327 13.3247C33.5947 15.9272 31.5527 16.8757 31.5527 16.8757C30.5404 16.4545 29.9727 15.4349 29.9727 15.4349Z" fill="url(#paint21_linear_2562_2337)"/>
<g style="mix-blend-mode:multiply" opacity="0.5">
<path d="M21.418 34.0697C22.208 32.7725 22.231 31.498 22.231 31.498C22.6145 32.6383 22.1402 33.5774 22.1402 33.5774C23.1795 33.5331 23.4018 33.6324 24.7595 34.1583C26.1187 34.6855 28.7123 34.4494 28.7123 34.4494C24.4438 34.8076 23.1795 33.7343 21.418 34.0697Z" fill="#5F39FF"/>
</g>
<g style="mix-blend-mode:multiply" opacity="0.2">
<path d="M16.3068 39.8276C16.0493 39.9698 15.8623 40.603 15.8623 40.603C15.9382 40.3884 16.2173 40.2703 16.2173 40.2703C16.2499 39.9443 16.3068 39.829 16.3068 39.829V39.8276Z" fill="#5F39FF"/>
</g>
<g style="mix-blend-mode:multiply" opacity="0.5">
<path d="M16.7935 42.6703C16.704 41.9808 16.3896 41.1772 16.3896 41.1772C16.9086 41.903 16.929 42.6489 16.929 42.6489L16.7935 42.6703Z" fill="#5F39FF"/>
</g>
<g style="mix-blend-mode:multiply" opacity="0.5">
<path d="M22.9325 42.6703C22.8431 41.9808 22.5273 41.1772 22.5273 41.1772C23.0463 41.903 23.068 42.6489 23.068 42.6489L22.9325 42.6703Z" fill="#5F39FF"/>
</g>
<g style="mix-blend-mode:multiply" opacity="0.5">
<path d="M37.2246 41.3208C37.558 41.9406 37.478 42.7844 37.478 42.7844L37.6786 42.7213C37.73 42.0331 37.2246 41.3208 37.2246 41.3208Z" fill="#5F39FF"/>
</g>
<g style="mix-blend-mode:multiply" opacity="0.5">
<path d="M30.5483 34.0094C30.4778 33.1454 30.6905 32.2909 30.6905 32.2909C28.9154 30.9306 28.6309 29.1719 28.6309 29.1719C28.6661 30.7884 30.3179 32.4894 30.3179 32.4894C29.9588 33.2554 30.0835 34.1636 30.0835 34.1636L30.5483 34.0094Z" fill="#5F39FF"/>
</g>
<g style="mix-blend-mode:multiply" opacity="0.5">
<path d="M35.6173 33.5063C36.5062 30.3927 34.2324 28.7051 34.2324 28.7051C36.0441 30.0412 36.4236 32.527 36.4236 32.527C36.4236 32.527 35.8829 33.2904 35.6173 33.5063Z" fill="#5F39FF"/>
</g>
<g style="mix-blend-mode:multiply" opacity="0.5">
<path d="M39.6842 35.5049C39.4417 36.7565 38.7804 37.43 38.7804 37.43L38.4688 37.2193C39.3956 36.4399 39.6842 35.5049 39.6842 35.5049Z" fill="#5F39FF"/>
</g>
<path d="M32.9469 17.4661C32.936 17.4661 32.9211 17.4634 32.9008 17.4647C32.8805 17.4647 32.8561 17.4647 32.829 17.4688C32.8154 17.4688 32.8005 17.4728 32.7856 17.4768C32.7694 17.4795 32.7531 17.4835 32.7368 17.4889C32.6691 17.509 32.5946 17.5492 32.5268 17.6056C32.4591 17.6619 32.3954 17.7304 32.3344 17.7947C32.2734 17.8591 32.2138 17.9195 32.1528 17.9624C32.123 17.9839 32.0932 18.0013 32.0647 18.0134C32.0363 18.0268 32.0078 18.0349 31.9821 18.0416C31.9563 18.0469 31.9319 18.051 31.9103 18.0523C31.8886 18.055 31.8723 18.0523 31.8574 18.0523C31.8344 18.051 31.8181 18.0496 31.8073 18.0496C31.8073 18.0496 31.8046 18.0496 31.8018 18.0496C31.7991 18.0496 31.7964 18.0496 31.7964 18.0496C31.7869 18.0496 31.7693 18.0523 31.7463 18.0537C31.7327 18.0537 31.7165 18.055 31.6934 18.0537C31.6718 18.0537 31.6474 18.0496 31.6216 18.0429C31.5959 18.0376 31.5674 18.0282 31.539 18.0161C31.5105 18.0027 31.4807 17.9866 31.4495 17.9651C31.3886 17.9235 31.3276 17.8632 31.2666 17.7988C31.2056 17.7344 31.1419 17.666 31.0728 17.611C31.0037 17.556 30.9292 17.5144 30.8614 17.4956C30.8452 17.4902 30.8289 17.4862 30.8127 17.4835C30.7978 17.4795 30.7828 17.4768 30.7679 17.4768C30.7408 17.4728 30.7164 17.4728 30.6961 17.4728C30.6772 17.4728 30.6609 17.4741 30.65 17.4755C30.6392 17.4755 30.6338 17.4755 30.6338 17.4755C30.6338 17.4755 30.6392 17.4755 30.65 17.4768C30.6609 17.4781 30.6758 17.4795 30.6948 17.4835C30.7137 17.4875 30.7368 17.4916 30.7625 17.501C30.7761 17.5036 30.7883 17.509 30.8018 17.5157C30.8154 17.5211 30.8289 17.5278 30.8438 17.5358C30.9021 17.5653 30.959 17.6136 31.0105 17.674C31.062 17.7357 31.1067 17.8082 31.1555 17.8846C31.2043 17.9597 31.2558 18.0389 31.3222 18.1073C31.3547 18.1422 31.3899 18.1717 31.4279 18.1985C31.4306 18.2012 31.4333 18.2026 31.4373 18.2039C31.2517 18.3233 31.127 18.5299 31.1284 18.766C31.1284 19.1336 31.4333 19.4327 31.8046 19.4314C32.1758 19.4314 32.478 19.1309 32.4767 18.762C32.4767 18.5272 32.352 18.3206 32.165 18.2012C32.1677 18.1999 32.1704 18.1972 32.1745 18.1959C32.2111 18.169 32.2477 18.1382 32.2788 18.1033C32.3439 18.0349 32.3954 17.9557 32.4441 17.8793C32.4916 17.8028 32.5376 17.7303 32.5878 17.6686C32.6379 17.6083 32.6948 17.5586 32.7531 17.5291C32.7667 17.5211 32.7816 17.5144 32.7951 17.509C32.8087 17.5023 32.8222 17.4983 32.8344 17.4942C32.8588 17.4849 32.8832 17.4808 32.9022 17.4768C32.9211 17.4728 32.936 17.4714 32.9469 17.4701C32.9577 17.4688 32.9631 17.4674 32.9631 17.4674C32.9631 17.4674 32.9577 17.4674 32.9469 17.4674V17.4661ZM31.8032 19.1792C31.5715 19.1792 31.3818 18.9927 31.3818 18.7633C31.3818 18.5339 31.5701 18.3461 31.8018 18.3461C32.0336 18.3461 32.2233 18.5326 32.2246 18.762C32.2246 18.9914 32.0363 19.1792 31.8046 19.1792H31.8032Z" fill="url(#paint22_linear_2562_2337)"/>
</g>
<rect x="0.233333" y="0.233333" width="55.5333" height="55.5333" rx="27.7667" stroke="white" stroke-opacity="0.2" stroke-width="0.466667"/>
<defs>
<filter id="filter0_f_2562_2337" x="-20.7407" y="-20.7407" width="97.4815" height="97.4815" filterUnits="userSpaceOnUse" color-interpolation-filters="sRGB">
<feFlood flood-opacity="0" result="BackgroundImageFix"/>
<feBlend mode="normal" in="SourceGraphic" in2="BackgroundImageFix" result="shape"/>
<feGaussianBlur stdDeviation="10.3704" result="effect1_foregroundBlur_2562_2337"/>
</filter>
<radialGradient id="paint0_radial_2562_2337" cx="0" cy="0" r="1" gradientUnits="userSpaceOnUse" gradientTransform="translate(28 28) scale(38.6579)">
<stop stop-color="#FA1E42"/>
<stop offset="1" stop-opacity="0"/>
</radialGradient>
<radialGradient id="paint1_radial_2562_2337" cx="0" cy="0" r="1" gradientUnits="userSpaceOnUse" gradientTransform="translate(18.0218 16.4573) scale(1.01629 1.00613)">
<stop offset="0.31" stop-color="white"/>
<stop offset="0.9" stop-color="white" stop-opacity="0"/>
</radialGradient>
<radialGradient id="paint2_radial_2562_2337" cx="0" cy="0" r="1" gradientUnits="userSpaceOnUse" gradientTransform="translate(21.3413 20.2807) scale(0.563705 0.558068)">
<stop offset="0.31" stop-color="white"/>
<stop offset="0.9" stop-color="white" stop-opacity="0"/>
</radialGradient>
<radialGradient id="paint3_radial_2562_2337" cx="0" cy="0" r="1" gradientUnits="userSpaceOnUse" gradientTransform="translate(37.8735 33.5615) scale(0.563705 0.558069)">
<stop offset="0.31" stop-color="white"/>
<stop offset="0.9" stop-color="white" stop-opacity="0"/>
</radialGradient>
<radialGradient id="paint4_radial_2562_2337" cx="0" cy="0" r="1" gradientUnits="userSpaceOnUse" gradientTransform="translate(29.6755 35.9092) scale(0.352315 0.348793)">
<stop offset="0.31" stop-color="white"/>
<stop offset="0.9" stop-color="white" stop-opacity="0"/>
</radialGradient>
<radialGradient id="paint5_radial_2562_2337" cx="0" cy="0" r="1" gradientUnits="userSpaceOnUse" gradientTransform="translate(19.3445 24.4337) scale(0.352316 0.348793)">
<stop offset="0.31" stop-color="white"/>
<stop offset="0.9" stop-color="white" stop-opacity="0"/>
</radialGradient>
<radialGradient id="paint6_radial_2562_2337" cx="0" cy="0" r="1" gradientUnits="userSpaceOnUse" gradientTransform="translate(33.9474 11.2213) scale(0.563705 0.558068)">
<stop offset="0.31" stop-color="white"/>
<stop offset="0.9" stop-color="white" stop-opacity="0"/>
</radialGradient>
<radialGradient id="paint7_radial_2562_2337" cx="0" cy="0" r="1" gradientUnits="userSpaceOnUse" gradientTransform="translate(38.8259 20.1663) scale(1.7548 1.73726)">
<stop stop-color="white"/>
<stop offset="0.03" stop-color="white" stop-opacity="0.96"/>
<stop offset="0.18" stop-color="white" stop-opacity="0.71"/>
<stop offset="0.34" stop-color="white" stop-opacity="0.49"/>
<stop offset="0.49" stop-color="white" stop-opacity="0.32"/>
<stop offset="0.64" stop-color="white" stop-opacity="0.18"/>
<stop offset="0.78" stop-color="white" stop-opacity="0.08"/>
<stop offset="0.9" stop-color="white" stop-opacity="0.02"/>
<stop offset="1" stop-color="white" stop-opacity="0"/>
</radialGradient>
<radialGradient id="paint8_radial_2562_2337" cx="0" cy="0" r="1" gradientUnits="userSpaceOnUse" gradientTransform="translate(12.8767 30.0935) scale(0.067753 0.0670755)">
<stop stop-color="white"/>
<stop offset="0.03" stop-color="white" stop-opacity="0.96"/>
<stop offset="0.18" stop-color="white" stop-opacity="0.71"/>
<stop offset="0.34" stop-color="white" stop-opacity="0.49"/>
<stop offset="0.49" stop-color="white" stop-opacity="0.32"/>
<stop offset="0.64" stop-color="white" stop-opacity="0.18"/>
<stop offset="0.78" stop-color="white" stop-opacity="0.08"/>
<stop offset="0.9" stop-color="white" stop-opacity="0.02"/>
<stop offset="1" stop-color="white" stop-opacity="0"/>
</radialGradient>
<radialGradient id="paint9_radial_2562_2337" cx="0" cy="0" r="1" gradientUnits="userSpaceOnUse" gradientTransform="translate(24.7338 38.2767) scale(1.55154 1.53603)">
<stop stop-color="white"/>
<stop offset="0.03" stop-color="white" stop-opacity="0.96"/>
<stop offset="0.18" stop-color="white" stop-opacity="0.71"/>
<stop offset="0.34" stop-color="white" stop-opacity="0.49"/>
<stop offset="0.49" stop-color="white" stop-opacity="0.32"/>
<stop offset="0.64" stop-color="white" stop-opacity="0.18"/>
<stop offset="0.78" stop-color="white" stop-opacity="0.08"/>
<stop offset="0.9" stop-color="white" stop-opacity="0.02"/>
<stop offset="1" stop-color="white" stop-opacity="0"/>
</radialGradient>
<linearGradient id="paint10_linear_2562_2337" x1="24.0237" y1="13.1768" x2="27.9299" y2="15.7347" gradientUnits="userSpaceOnUse">
<stop stop-color="#FFE98D"/>
<stop offset="0.13" stop-color="#FEE38F"/>
<stop offset="0.28" stop-color="#FED495"/>
<stop offset="0.45" stop-color="#FEBB9F"/>
<stop offset="0.64" stop-color="#FD99AD"/>
<stop offset="0.82" stop-color="#FC6DBF"/>
<stop offset="1" stop-color="#FC3DD3"/>
</linearGradient>
<linearGradient id="paint11_linear_2562_2337" x1="8.41194" y1="22.0362" x2="17.7717" y2="28.2937" gradientUnits="userSpaceOnUse">
<stop stop-color="#FFE98D"/>
<stop offset="0.14" stop-color="#F9E991"/>
<stop offset="0.32" stop-color="#EAE99D"/>
<stop offset="0.51" stop-color="#D1E9B1"/>
<stop offset="0.72" stop-color="#AFE9CD"/>
<stop offset="0.93" stop-color="#83E9F0"/>
<stop offset="1" stop-color="#73E9FE"/>
</linearGradient>
<linearGradient id="paint12_linear_2562_2337" x1="38.531" y1="28.7867" x2="41.6439" y2="39.1472" gradientUnits="userSpaceOnUse">
<stop stop-color="#5F39FF"/>
<stop offset="0.11" stop-color="#614FFE"/>
<stop offset="0.91" stop-color="#73E9FE"/>
</linearGradient>
<linearGradient id="paint13_linear_2562_2337" x1="40.5999" y1="36.0483" x2="36.8656" y2="35.8156" gradientUnits="userSpaceOnUse">
<stop stop-color="#FFE98D"/>
<stop offset="0.13" stop-color="#FEE38F"/>
<stop offset="0.28" stop-color="#FED495"/>
<stop offset="0.45" stop-color="#FEBB9F"/>
<stop offset="0.64" stop-color="#FD99AD"/>
<stop offset="0.82" stop-color="#FC6DBF"/>
<stop offset="1" stop-color="#FC3DD3"/>
</linearGradient>
<linearGradient id="paint14_linear_2562_2337" x1="21.4114" y1="34.7322" x2="23.859" y2="45.2525" gradientUnits="userSpaceOnUse">
<stop stop-color="#5F39FF"/>
<stop offset="0.11" stop-color="#614FFE"/>
<stop offset="0.91" stop-color="#73E9FE"/>
</linearGradient>
<linearGradient id="paint15_linear_2562_2337" x1="23.6769" y1="40.2887" x2="21.8032" y2="42.6761" gradientUnits="userSpaceOnUse">
<stop stop-color="#FFE98D"/>
<stop offset="0.13" stop-color="#FEE38F"/>
<stop offset="0.28" stop-color="#FED495"/>
<stop offset="0.45" stop-color="#FEBB9F"/>
<stop offset="0.64" stop-color="#FD99AD"/>
<stop offset="0.82" stop-color="#FC6DBF"/>
<stop offset="1" stop-color="#FC3DD3"/>
</linearGradient>
<linearGradient id="paint16_linear_2562_2337" x1="26.0711" y1="42.3791" x2="26.9052" y2="18.0569" gradientUnits="userSpaceOnUse">
<stop offset="0.03" stop-color="#73E9FE"/>
<stop offset="0.18" stop-color="#5F39FF"/>
<stop offset="0.27" stop-color="#614FFE"/>
<stop offset="0.91" stop-color="#73E9FE"/>
</linearGradient>
<linearGradient id="paint17_linear_2562_2337" x1="17.26" y1="41.213" x2="14.6535" y2="42.8018" gradientUnits="userSpaceOnUse">
<stop stop-color="#FFE98D"/>
<stop offset="0.13" stop-color="#FEE38F"/>
<stop offset="0.28" stop-color="#FED495"/>
<stop offset="0.45" stop-color="#FEBB9F"/>
<stop offset="0.64" stop-color="#FD99AD"/>
<stop offset="0.82" stop-color="#FC6DBF"/>
<stop offset="1" stop-color="#FC3DD3"/>
</linearGradient>
<linearGradient id="paint18_linear_2562_2337" x1="38.2447" y1="40.6405" x2="34.8158" y2="43.357" gradientUnits="userSpaceOnUse">
<stop stop-color="#FFE98D"/>
<stop offset="0.13" stop-color="#FEE38F"/>
<stop offset="0.28" stop-color="#FED495"/>
<stop offset="0.45" stop-color="#FEBB9F"/>
<stop offset="0.64" stop-color="#FD99AD"/>
<stop offset="0.82" stop-color="#FC6DBF"/>
<stop offset="1" stop-color="#FC3DD3"/>
</linearGradient>
<linearGradient id="paint19_linear_2562_2337" x1="26.769" y1="11.1447" x2="30.1841" y2="15.2031" gradientUnits="userSpaceOnUse">
<stop stop-color="#FFE98D"/>
<stop offset="0.14" stop-color="#F9E991"/>
<stop offset="0.32" stop-color="#EAE99D"/>
<stop offset="0.51" stop-color="#D1E9B1"/>
<stop offset="0.72" stop-color="#AFE9CD"/>
<stop offset="0.93" stop-color="#83E9F0"/>
<stop offset="1" stop-color="#73E9FE"/>
</linearGradient>
<linearGradient id="paint20_linear_2562_2337" x1="27.7232" y1="16.8761" x2="26.5251" y2="16.7516" gradientUnits="userSpaceOnUse">
<stop stop-color="#5F39FF"/>
<stop offset="0.1" stop-color="#614FFE"/>
<stop offset="0.8" stop-color="#73E9FE"/>
</linearGradient>
<linearGradient id="paint21_linear_2562_2337" x1="33.3332" y1="14.4985" x2="30.9764" y2="15.9699" gradientUnits="userSpaceOnUse">
<stop stop-color="#5F39FF"/>
<stop offset="0.1" stop-color="#614FFE"/>
<stop offset="0.8" stop-color="#73E9FE"/>
</linearGradient>
<linearGradient id="paint22_linear_2562_2337" x1="30.6365" y1="18.4467" x2="32.9631" y2="18.4467" gradientUnits="userSpaceOnUse">
<stop stop-color="#FFE98D"/>
<stop offset="0.13" stop-color="#FEE38F"/>
<stop offset="0.28" stop-color="#FED495"/>
<stop offset="0.45" stop-color="#FEBB9F"/>
<stop offset="0.64" stop-color="#FD99AD"/>
<stop offset="0.82" stop-color="#FC6DBF"/>
<stop offset="1" stop-color="#FC3DD3"/>
</linearGradient>
<clipPath id="clip0_2562_2337">
<rect width="56" height="56" rx="28" fill="white"/>
</clipPath>
</defs>
</svg>
