<svg width="28" height="28" viewBox="0 0 28 28" fill="none" xmlns="http://www.w3.org/2000/svg">
<path d="M19.8358 15.1667C20.4802 15.1667 21.0025 15.689 21.0025 16.3333C21.0025 16.9316 20.5521 17.4247 19.9719 17.4921L19.8358 17.5H6.32L10.1608 21.3417C10.5814 21.7623 10.6137 22.424 10.2578 22.8817L10.1608 22.9916C9.74023 23.4122 9.07846 23.4445 8.62079 23.0887L8.51088 22.9916L2.67754 17.1583C1.97454 16.4553 2.42022 15.2749 3.36993 15.1736L3.5025 15.1667H19.8358ZM19.3819 4.91131L19.4918 5.00837L25.3251 10.8417C26.0281 11.5447 25.5824 12.725 24.6327 12.8263L24.5002 12.8333H8.16683C7.5225 12.8333 7.00016 12.311 7.00016 11.6667C7.00016 11.0683 7.45054 10.5752 8.03077 10.5078L8.16683 10.5H21.6827L17.8419 6.65828C17.4213 6.23772 17.389 5.57595 17.7448 5.11827L17.8419 5.00837C18.2624 4.5878 18.9242 4.55545 19.3819 4.91131Z" fill="white"/>
</svg>
