<svg width="13" height="10" viewBox="0 0 13 10" fill="none" xmlns="http://www.w3.org/2000/svg">
<path d="M6.25016 6.25002C7.17064 6.25002 7.91683 5.50383 7.91683 4.58335C7.91683 3.66288 7.17064 2.91669 6.25016 2.91669C5.32969 2.91669 4.5835 3.66288 4.5835 4.58335C4.5835 5.50383 5.32969 6.25002 6.25016 6.25002Z" fill="black"/>
<path d="M12.4748 4.44167C11.9848 3.17402 11.134 2.07776 10.0277 1.28837C8.92133 0.498982 7.60794 0.0510721 6.24982 0C4.8917 0.0510721 3.57832 0.498982 2.47199 1.28837C1.36566 2.07776 0.51489 3.17402 0.0248227 4.44167C-0.00827425 4.53321 -0.00827425 4.63346 0.0248227 4.725C0.51489 5.99265 1.36566 7.08891 2.47199 7.8783C3.57832 8.66769 4.8917 9.11559 6.24982 9.16667C7.60794 9.11559 8.92133 8.66769 10.0277 7.8783C11.134 7.08891 11.9848 5.99265 12.4748 4.725C12.5079 4.63346 12.5079 4.53321 12.4748 4.44167ZM6.24982 7.29167C5.71416 7.29167 5.19054 7.13283 4.74515 6.83523C4.29977 6.53763 3.95264 6.11465 3.74765 5.61977C3.54266 5.12488 3.48903 4.58033 3.59353 4.05496C3.69803 3.5296 3.95597 3.04702 4.33474 2.66825C4.71351 2.28949 5.19609 2.03154 5.72145 1.92704C6.24682 1.82254 6.79137 1.87617 7.28626 2.08116C7.78114 2.28615 8.20412 2.63328 8.50172 3.07866C8.79931 3.52405 8.95816 4.04768 8.95816 4.58333C8.95705 5.30129 8.67136 5.98953 8.16369 6.4972C7.65601 7.00487 6.96778 7.29057 6.24982 7.29167Z" fill="black"/>
</svg>
