<svg width="56" height="56" viewBox="0 0 56 56" fill="none" xmlns="http://www.w3.org/2000/svg">
<g clip-path="url(#clip0_2562_2559)">
<g filter="url(#filter0_f_2562_2559)">
<path d="M56 0H0V56H56V0Z" fill="url(#paint0_radial_2562_2559)"/>
</g>
<g clip-path="url(#clip1_2562_2559)">
<g style="mix-blend-mode:screen">
<path d="M43.3952 28.9056C42.8645 28.6045 42.1908 28.7927 41.8919 29.3272C41.8183 29.4589 41.7744 29.5994 41.7579 29.74L37.9941 29.8329C37.9524 29.7068 37.87 29.5928 37.7458 29.522C37.4875 29.3748 37.1634 29.4633 37.0084 29.7167L33.8557 28.879C33.8908 28.5603 33.7392 28.236 33.4458 28.0689C33.3249 28.0003 33.1952 27.9704 33.0656 27.966L32.3216 25.6321C32.4689 25.5989 32.6029 25.5104 32.6831 25.3676C32.8326 25.1009 32.7392 24.7612 32.4744 24.6107C32.4623 24.604 32.4491 24.604 32.437 24.5985C32.9194 22.8799 33.5062 20.8271 33.7897 19.9196C33.9908 19.9285 34.1897 19.8322 34.2952 19.644C34.4447 19.3773 34.3513 19.0376 34.0864 18.8871C33.8216 18.7366 33.4842 18.8307 33.3348 19.0985C33.1963 19.3464 33.2733 19.6485 33.4952 19.8123C33.1974 20.7396 32.6392 22.6929 32.1183 24.5553C31.9579 24.5808 31.8084 24.6693 31.7227 24.822C31.6645 24.9272 31.6524 25.0412 31.6645 25.1518L26.0469 24.6881C26.0667 24.3816 25.9194 24.0762 25.6359 23.9146C25.304 23.7265 24.8985 23.7995 24.6458 24.0629L22.4337 21.9259C22.4557 21.8994 22.4832 21.8795 22.5007 21.8485C22.6502 21.5818 22.5568 21.242 22.2919 21.0915C22.0403 20.9488 21.7293 21.0318 21.57 21.2675L16.0689 18.0184C16.1238 17.7849 16.0304 17.5337 15.8117 17.4086C15.5469 17.2581 15.2095 17.3522 15.0601 17.6189C14.9106 17.8856 15.004 18.2253 15.2689 18.3758C15.4831 18.4976 15.7381 18.4533 15.9095 18.2951L21.4777 21.5796C21.4799 21.7721 21.5711 21.958 21.7491 22.0599C21.8821 22.1362 22.0337 22.1495 22.17 22.1108L24.4722 24.3395C24.3315 24.7092 24.4722 25.1363 24.8194 25.3422L22.9436 31.6843C22.5502 31.6578 22.1601 31.8448 21.9381 32.1989L17.0667 28.8624C17.0667 28.8624 17.0711 28.858 17.0722 28.8558C17.2216 28.5891 17.1282 28.2493 16.8634 28.0988C16.8425 28.0866 16.8194 28.0855 16.7974 28.0767L16.9667 27.0741C17.1326 27.0519 17.2886 26.9634 17.3777 26.8051C17.5271 26.5384 17.4337 26.1987 17.1678 26.0482C16.9425 25.9198 16.6722 25.9774 16.5018 26.1589L13.5656 24.7092C13.659 24.355 13.5106 23.9699 13.1799 23.7818C12.7864 23.5582 12.2875 23.6988 12.0656 24.095C11.8436 24.4911 11.9831 24.9936 12.3755 25.2171C12.7348 25.4218 13.181 25.3189 13.4249 24.998L16.3557 26.4444C16.3194 26.6679 16.4172 26.8992 16.6249 27.0165C16.6337 27.0209 16.6425 27.0209 16.6513 27.0254L16.4788 28.0446C16.3293 28.0756 16.1919 28.1641 16.1106 28.3091C15.9612 28.5769 16.0546 28.9155 16.3194 29.066C16.4799 29.1568 16.6612 29.1501 16.8161 29.0782L21.8073 32.4966C21.6766 32.9769 21.8766 33.5014 22.326 33.756C22.8568 34.057 23.5304 33.8688 23.8293 33.3343C23.9941 33.04 24.0073 32.7036 23.9007 32.4092L26.6227 30.3907C26.6414 30.4051 26.6535 30.4239 26.6744 30.436C26.9392 30.5865 27.2766 30.4925 27.426 30.2258C27.4623 30.1605 27.4842 30.0908 27.4919 30.0199L32.326 29.18C32.3963 29.3106 32.5018 29.4257 32.6403 29.5042C33.0337 29.7278 33.5326 29.5872 33.7546 29.1922C33.7546 29.19 33.7568 29.1877 33.7579 29.1855L36.9337 30.0288C36.9414 30.2147 37.0315 30.3929 37.204 30.4903C37.4689 30.6408 37.8062 30.5467 37.9557 30.28C37.9788 30.2379 37.9864 30.1937 37.9985 30.1483L41.7711 30.0598C41.8249 30.3785 42.0106 30.6706 42.3117 30.8411C42.8425 31.1432 43.5161 30.9539 43.815 30.4194C44.115 29.8849 43.9271 29.2066 43.3963 28.9056H43.3952ZM23.7513 32.1259C23.6623 32.0042 23.548 31.899 23.4095 31.8205C23.359 31.7917 23.3073 31.7718 23.2546 31.7518L25.1194 25.4462C25.4425 25.4904 25.7744 25.3399 25.9436 25.0367C25.9502 25.0257 25.9524 25.0135 25.959 25.0024L31.8238 25.4871C31.8579 25.5203 31.8875 25.5557 31.9304 25.5801C31.9447 25.5878 31.959 25.5878 31.9733 25.5945L32.748 28.0236C32.5777 28.09 32.4271 28.2106 32.3304 28.3821C32.2414 28.5404 32.2128 28.7152 32.2326 28.8834L27.4282 29.7079C27.381 29.6127 27.315 29.5264 27.2161 29.4699C26.9513 29.3194 26.6139 29.4135 26.4645 29.6802C26.3799 29.8307 26.3799 30 26.437 30.1494L23.7513 32.127V32.1259Z" fill="#FC3DD3"/>
</g>
<g opacity="0.2">
<g style="mix-blend-mode:screen" opacity="0.5">
<path d="M39.9012 28.0614C39.9012 35.1074 34.2287 40.821 27.2309 40.821C20.2331 40.821 14.5605 35.1085 14.5605 28.0614C14.5605 21.0143 20.2331 15.3018 27.2309 15.3018C34.2287 15.3018 39.9012 21.0143 39.9012 28.0614Z" stroke="#FC3DD3" stroke-width="2.62" stroke-miterlimit="10"/>
</g>
<g style="mix-blend-mode:screen" opacity="0.5">
<path d="M39.3121 28.0616C39.3121 34.7811 33.9033 40.228 27.2307 40.228C20.5582 40.228 15.1494 34.7811 15.1494 28.0616C15.1494 21.342 20.5582 15.894 27.2307 15.894C33.9033 15.894 39.3121 21.342 39.3121 28.0605V28.0616Z" stroke="#FC3DD3" stroke-width="1.35" stroke-miterlimit="10"/>
</g>
<g style="mix-blend-mode:screen" opacity="0.5">
<path d="M38.6762 28.0615C38.6762 34.4269 33.5521 39.5872 27.2312 39.5872C20.9103 39.5872 15.7861 34.4269 15.7861 28.0615C15.7861 21.6961 20.9103 16.5347 27.2312 16.5347C33.5521 16.5347 38.6762 21.6949 38.6762 28.0604V28.0615Z" fill="#FC3DD3"/>
</g>
</g>
<path d="M37.1667 33.5158C37.1667 33.5158 35.5117 32.3848 34.5469 29.2552C33.5832 26.1257 31.4931 24.3683 28.1744 27.7801C28.1744 27.7801 27.5887 29.2375 28.448 31.338C28.3381 31.4376 28.2403 31.5881 28.1601 31.8072C27.5612 33.4494 28.7172 34.441 30.4953 35.1503C30.4953 35.1503 29.4612 34.3126 29.3348 32.7445C29.7238 33.7748 30.87 34.69 32.0282 35.0795C32.0282 35.0795 30.9139 33.85 30.9139 33.0975C31.4843 33.7759 32.5095 34.5738 33.0953 34.7165C33.0953 34.7165 31.9095 33.3299 31.6183 32.0329C31.6183 32.0329 32.6513 34.3115 34.7458 34.4963C34.7458 34.4963 33.4986 33.2558 33.0227 32.0075C33.0227 32.0075 33.9942 34.0116 36.1568 34.1267C36.1568 34.1267 35.7205 33.9452 34.7953 32.0562C35.7216 33.9452 37.1678 33.5158 37.1678 33.5158H37.1667Z" fill="url(#paint1_linear_2562_2559)"/>
<g style="mix-blend-mode:multiply" opacity="0.2">
<path d="M35.2028 30.9074C35.2028 30.9074 33.5479 29.7764 32.583 26.6469C31.6193 23.5173 29.5292 21.7599 26.2105 25.1717C26.2105 25.1717 25.6248 26.6291 26.4841 28.7307C26.3743 28.8303 26.2765 28.9808 26.1962 29.1999C25.5973 30.8421 26.7534 31.8337 28.5314 32.543C28.5314 32.543 27.4973 31.7053 27.371 30.1372C27.76 31.1675 28.9061 32.0827 30.0633 32.4722C30.0633 32.4722 28.949 31.2427 28.949 30.4902C29.5193 31.1686 30.5446 31.9665 31.1303 32.1092C31.1303 32.1092 29.9446 30.7226 29.6534 29.4256C29.6534 29.4256 30.6863 31.7042 32.7808 31.889C32.7808 31.889 31.5336 30.6485 31.0578 29.4002C31.0578 29.4002 32.0292 31.4043 34.1918 31.5194C34.1918 31.5194 33.7556 31.3379 32.8303 29.4489C33.7567 31.3379 35.2028 30.9085 35.2028 30.9085V30.9074Z" fill="#5F39FF"/>
</g>
<path d="M36.3921 30.3984C36.3921 30.3984 34.8558 29.1092 34.2009 25.8988C33.547 22.6884 31.6394 20.733 28.0031 23.7995C28.0031 23.7995 27.2778 25.1916 27.9273 27.3673C27.8086 27.4558 27.6965 27.5953 27.5954 27.8055C26.8394 29.3803 27.8932 30.4825 29.5921 31.3634C29.5921 31.3634 28.4273 30.5843 28.4547 29.0118C28.5657 29.1579 29.2317 30.8101 31.1251 31.4453C31.1251 31.4453 30.6558 31.0934 30.5416 30.0952C31.1778 30.6983 31.6525 30.9893 32.2229 31.1896C32.2229 31.1896 31.1778 29.6913 31.0152 28.3732C31.0152 28.3732 31.8196 30.7437 33.8866 31.1343C33.8866 31.1343 32.7657 29.7765 32.4141 28.4872C32.4141 28.4872 33.1855 30.5777 35.3262 30.9063C35.3262 30.9063 34.9097 30.6828 34.1734 28.7119C34.9108 30.6828 36.3921 30.3995 36.3921 30.3995V30.3984Z" fill="url(#paint2_linear_2562_2559)"/>
<g style="mix-blend-mode:multiply" opacity="0.2">
<path d="M35.2866 27.1142C35.2866 27.1142 33.7504 25.825 33.0954 22.6146C32.4416 19.4042 30.5339 17.4488 26.8976 20.5153C26.8976 20.5153 26.1723 21.9075 26.8218 24.0831C26.7031 24.1717 26.591 24.3111 26.4899 24.5214C25.7339 26.0961 26.7877 27.1983 28.4866 28.0792C28.4866 28.0792 27.3218 27.3001 27.3493 25.7276C27.4603 25.8737 28.1262 27.5259 30.0196 28.1611C30.0196 28.1611 29.5504 27.8092 29.4361 26.811C30.0724 27.4141 30.5471 27.7052 31.1174 27.9055C31.1174 27.9055 30.0724 26.4071 29.9097 25.0891C29.9097 25.0891 30.7141 27.4595 32.7811 27.8501C32.7811 27.8501 31.6603 26.4923 31.3086 25.203C31.3086 25.203 32.08 27.2935 34.2207 27.6222C34.2207 27.6222 33.8042 27.3986 33.068 25.4277C33.8053 27.3986 35.2866 27.1153 35.2866 27.1153V27.1142Z" fill="#5F39FF"/>
</g>
<path d="M28.4758 19.3497C32.6637 17.1088 34.1285 19.4194 34.1076 22.6962C34.0878 25.973 35.3252 27.5544 35.3252 27.5544C35.3252 27.5544 33.8175 27.5234 33.501 25.4407C33.8164 27.5223 34.178 27.8288 34.178 27.8288C32.1505 27.0608 31.8263 24.8553 31.8263 24.8553C31.9043 26.1899 32.7219 27.7513 32.7219 27.7513C30.7802 26.9369 30.4802 24.4513 30.4802 24.4513C30.3692 25.776 31.0824 27.4592 31.0824 27.4592C29.6659 26.5938 27.8758 25.1662 27.6692 22.8722C27.4637 20.577 28.4747 19.3497 28.4747 19.3497H28.4758Z" fill="url(#paint3_linear_2562_2559)"/>
<path d="M31.2822 18.4601C33.3416 18.4191 34.1218 20.2971 34.1075 22.6941C34.0877 25.972 35.3251 27.5523 35.3251 27.5523C35.3251 27.5523 35.2548 27.5501 35.1449 27.5279C34.9965 27.3232 34.0108 25.7341 34.0295 22.6841C34.0449 20.3502 33.2207 18.5176 31.2822 18.459V18.4601Z" fill="#73E9FE"/>
<path d="M17.2941 33.5158C17.2941 33.5158 18.949 32.3848 19.9138 29.2552C20.8776 26.1257 22.9677 24.3683 26.2864 27.7801C26.2864 27.7801 26.8721 29.2375 26.0127 31.338C26.1226 31.4376 26.2204 31.5881 26.3007 31.8072C26.8996 33.4494 25.7435 34.441 23.9655 35.1503C23.9655 35.1503 24.9996 34.3126 25.1259 32.7445C24.7369 33.7748 23.5908 34.69 22.4325 35.0795C22.4325 35.0795 23.5468 33.85 23.5468 33.0975C22.9765 33.7759 21.9512 34.5738 21.3655 34.7165C21.3655 34.7165 22.5512 33.3299 22.8424 32.0329C22.8424 32.0329 21.8095 34.3115 19.7149 34.4963C19.7149 34.4963 20.9622 33.2558 21.438 32.0075C21.438 32.0075 20.4666 34.0116 18.304 34.1267C18.304 34.1267 18.7402 33.9452 19.6655 32.0562C18.7391 33.9452 17.293 33.5158 17.293 33.5158H17.2941Z" fill="url(#paint4_linear_2562_2559)"/>
<g style="mix-blend-mode:multiply" opacity="0.2">
<path d="M19.2578 30.9074C19.2578 30.9074 20.9128 29.7764 21.8776 26.6469C22.8413 23.5173 24.9314 21.7599 28.2501 25.1717C28.2501 25.1717 28.8358 26.6291 27.9765 28.7307C28.0864 28.8303 28.1842 28.9808 28.2644 29.1999C28.8633 30.8421 27.7073 31.8337 25.9292 32.543C25.9292 32.543 26.9633 31.7053 27.0897 30.1372C26.7007 31.1675 25.5545 32.0827 24.3974 32.4722C24.3974 32.4722 25.5117 31.2427 25.5117 30.4902C24.9413 31.1686 23.9161 31.9665 23.3303 32.1092C23.3303 32.1092 24.5161 30.7226 24.8073 29.4256C24.8073 29.4256 23.7743 31.7042 21.6798 31.889C21.6798 31.889 22.927 30.6485 23.4029 29.4002C23.4029 29.4002 22.4314 31.4043 20.2688 31.5194C20.2688 31.5194 20.7051 31.3379 21.6303 29.4489C20.704 31.3379 19.2578 30.9085 19.2578 30.9085V30.9074Z" fill="#5F39FF"/>
</g>
<path d="M18.0684 30.3984C18.0684 30.3984 19.6046 29.1092 20.2596 25.8988C20.9134 22.6884 22.8211 20.733 26.4574 23.7995C26.4574 23.7995 27.1826 25.1916 26.5332 27.3673C26.6519 27.4558 26.764 27.5953 26.8651 27.8055C27.6211 29.3803 26.5673 30.4825 24.8684 31.3634C24.8684 31.3634 26.0332 30.5843 26.0057 29.0118C25.8947 29.1579 25.2288 30.8101 23.3354 31.4453C23.3354 31.4453 23.8046 31.0934 23.9189 30.0952C23.2826 30.6983 22.8079 30.9893 22.2376 31.1896C22.2376 31.1896 23.2826 29.6913 23.4453 28.3732C23.4453 28.3732 22.6409 30.7437 20.5739 31.1343C20.5739 31.1343 21.6947 29.7765 22.0464 28.4872C22.0464 28.4872 21.275 30.5777 19.1343 30.9063C19.1343 30.9063 19.5508 30.6828 20.287 28.7119C19.5497 30.6828 18.0684 30.3995 18.0684 30.3995V30.3984Z" fill="url(#paint5_linear_2562_2559)"/>
<g style="mix-blend-mode:multiply" opacity="0.2">
<path d="M19.1738 27.1142C19.1738 27.1142 20.7101 25.825 21.365 22.6146C22.0189 19.4042 23.9266 17.4488 27.5628 20.5153C27.5628 20.5153 28.2881 21.9075 27.6387 24.0831C27.7573 24.1717 27.8694 24.3111 27.9705 24.5214C28.7266 26.0961 27.6727 27.1983 25.9738 28.0792C25.9738 28.0792 27.1387 27.3001 27.1112 25.7276C27.0002 25.8737 26.3343 27.5259 24.4409 28.1611C24.4409 28.1611 24.9101 27.8092 25.0244 26.811C24.3881 27.4141 23.9134 27.7052 23.3431 27.9055C23.3431 27.9055 24.3881 26.4071 24.5508 25.0891C24.5508 25.0891 23.7464 27.4595 21.6793 27.8501C21.6793 27.8501 22.8002 26.4923 23.1518 25.203C23.1518 25.203 22.3804 27.2935 20.2398 27.6222C20.2398 27.6222 20.6562 27.3986 21.3925 25.4277C20.6551 27.3986 19.1738 27.1153 19.1738 27.1153V27.1142Z" fill="#5F39FF"/>
</g>
<path d="M25.9852 19.3497C21.7973 17.1088 20.3324 19.4194 20.3533 22.6962C20.3731 25.973 19.1357 27.5544 19.1357 27.5544C19.1357 27.5544 20.6434 27.5234 20.9599 25.4407C20.6445 27.5223 20.283 27.8288 20.283 27.8288C22.3105 27.0608 22.6346 24.8553 22.6346 24.8553C22.5566 26.1899 21.739 27.7513 21.739 27.7513C23.6808 26.9369 23.9808 24.4513 23.9808 24.4513C24.0918 25.776 23.3786 27.4592 23.3786 27.4592C24.7951 26.5938 26.5852 25.1662 26.7918 22.8722C26.9973 20.577 25.9863 19.3497 25.9863 19.3497H25.9852Z" fill="url(#paint6_linear_2562_2559)"/>
<path d="M23.1786 18.4601C21.1193 18.4191 20.339 20.2971 20.3533 22.6941C20.3731 25.972 19.1357 27.5523 19.1357 27.5523C19.1357 27.5523 19.2061 27.5501 19.316 27.5279C19.4643 27.3232 20.45 25.7341 20.4313 22.6841C20.416 20.3502 21.2401 18.5176 23.1786 18.459V18.4601Z" fill="#73E9FE"/>
<path d="M28.6913 13.7822C29.5374 14.3865 29.6506 15.2928 29.0913 15.9457C28.5319 16.5975 28.733 17.3799 29.0616 17.6278C30.2187 18.5021 30.3034 19.3575 29.6352 19.8776C28.9671 20.3977 27.4517 18.6105 27.188 17.2936C26.9242 15.9767 28.6913 13.7822 28.6913 13.7822Z" fill="url(#paint7_linear_2562_2559)"/>
<g style="mix-blend-mode:multiply" opacity="0.3">
<path d="M27.188 17.2936C26.9242 15.9767 28.6913 13.7822 28.6913 13.7822C29.5374 14.3865 29.6506 15.2928 29.0913 15.9457C28.7473 16.3463 28.6781 16.8177 28.7605 17.1663C27.7187 17.9288 28.5341 19.373 29.2726 19.9584C28.5286 19.8533 27.411 18.408 27.188 17.2947V17.2936Z" fill="#FC3DD3"/>
</g>
<path d="M30.6704 23.2727C29.9649 21.4345 30.2781 18.7753 29.177 18.6757C28.4462 18.6093 28.7484 22.4305 29.5836 23.8891C30.1506 24.8784 31.2858 26.2042 32.0023 26.9467C32.1078 26.7829 32.2165 26.6169 32.3418 26.4587C31.7891 25.6254 31.4429 24.1768 30.6715 23.2727H30.6704Z" fill="url(#paint8_linear_2562_2559)"/>
<path d="M32.5315 26.4651C32.6777 26.5071 32.8788 26.62 32.9941 26.7207C33.0414 26.7617 33.0678 26.786 33.1073 26.8347C33.2854 27.0549 33.3689 27.2475 33.626 27.5064C33.6722 27.5529 33.7491 27.6713 33.7139 27.7056C33.6974 27.7222 33.6139 27.6968 33.5623 27.6658C33.3788 27.5518 33.1985 27.2873 33.1469 27.3305C33.2051 27.5175 33.3183 27.7466 33.4524 27.9524C33.5645 28.125 33.6952 28.2755 33.7898 28.4261C33.8051 28.4515 33.8238 28.5002 33.7996 28.5179C33.7865 28.5279 33.77 28.5423 33.6985 28.4869C33.4183 28.2689 33.0546 27.7333 32.9777 27.5983C32.9788 27.6282 33.2007 27.9812 33.2843 28.0918C33.4128 28.2645 33.5293 28.4172 33.6623 28.5533C33.6777 28.5699 33.7205 28.6208 33.6985 28.6629C33.6645 28.726 33.3601 28.4747 33.2095 28.2744C33.1194 28.156 32.8952 27.8794 32.8128 27.751C32.9051 27.9247 33.237 28.3685 33.381 28.5633C33.4293 28.6286 33.4029 28.7138 33.3337 28.6618C33.2029 28.5633 33.037 28.3951 32.9568 28.2899C32.8766 28.1848 32.6645 27.9425 32.6051 27.824C32.6689 27.969 32.8161 28.1848 32.8865 28.3087C32.937 28.3973 33.0392 28.5102 32.9788 28.5423C32.9315 28.5633 32.6051 28.1748 32.5656 28.114C32.4974 28.0122 32.3931 27.8816 32.348 27.7853C32.259 27.5961 32.2029 27.3327 32.1139 27.1988C32.026 27.0649 31.9183 26.8945 31.7172 26.6477C31.5293 26.3909 31.7491 25.8797 32.1018 26.0944C32.2722 26.2725 32.3238 26.4042 32.5304 26.4629L32.5315 26.4651Z" fill="url(#paint9_linear_2562_2559)"/>
<path d="M30.1703 40.7942C30.3154 38.2224 28.7055 37.7443 29.1791 34.1289C29.7219 29.9867 30.6285 28.4928 29.6472 25.6996C29.122 24.2034 28.8527 22.8411 29.2516 21.9957C29.6505 21.1513 29.4637 20.7208 29.1582 20.0026C28.9846 19.5942 28.9143 19.1461 29.0516 18.6713C28.7351 18.5938 28.3461 18.4644 28.1648 18.2641C27.8373 17.9011 27.7835 17.4883 27.9637 17.0866C28.145 16.6849 29.0296 15.7619 28.3307 14.7792C28.0879 14.4373 27.1088 14.1584 26.7681 15.0205C26.4285 15.8826 26.7395 16.1393 26.7681 16.5001C26.7967 16.8597 27.0165 17.4584 26.5978 17.8103C26.1802 18.1611 25.5132 18.4035 25.3516 18.4489C24.9494 18.5617 24.6461 18.7565 24.6461 18.7565C24.7791 19.4592 24.9912 20.0723 25.0176 21.3903C25.0351 22.2557 25.9219 22.8976 25.7362 23.867C25.5044 25.0799 23.9956 26.6701 24.6527 29.7765C24.9791 31.3213 25.7176 34.0891 25.8472 35.2212C26.1417 37.783 25.4571 39.2682 23.2978 40.4633C21.7417 41.3243 21.1285 42.5471 19.6143 42.6047C21.1758 43.4657 22.5571 42.6766 23.3725 42.4608C24.1879 42.245 24.5978 42.3756 25.3176 42.7375C25.7307 42.9444 26.3758 43.0507 26.9835 42.8758C27.434 42.7452 27.845 42.3424 28.2285 42.328C29.1285 42.2937 29.7626 43.6062 31.8769 42.3856C31.8769 42.3856 30.0505 42.9134 30.1703 40.7931V40.7942Z" fill="url(#paint10_linear_2562_2559)"/>
<path d="M30.1703 40.7946C30.3154 38.2227 28.7055 37.7447 29.1791 34.1293C29.7219 29.9871 30.6285 28.4931 29.6472 25.6999C29.122 24.2038 28.8527 22.8415 29.2516 21.996C29.6505 21.1516 29.5077 20.5828 29.2033 19.8646C29.0296 19.4563 28.9154 19.1464 29.0516 18.6717C28.9934 18.6573 28.9329 18.6407 28.8714 18.623C28.7494 19.3821 28.5252 19.8502 28.1472 20.5364C27.1923 19.4541 26.3318 18.9904 25.2989 18.4658C24.923 18.5798 24.6461 18.758 24.6461 18.758C24.7791 19.4607 24.9912 20.0738 25.0176 21.3918C25.0351 22.2572 25.9219 22.899 25.7362 23.8685C25.5044 25.0813 23.9956 26.6716 24.6527 29.7779C24.9791 31.3228 25.7176 34.0905 25.8472 35.2226C26.1417 37.7845 25.4571 39.2696 23.2978 40.4648C21.7417 41.3258 21.1285 42.5486 19.6143 42.6061C21.1758 43.4671 22.5571 42.6781 23.3725 42.4623C24.1879 42.2465 24.5978 42.3771 25.3176 42.7389C25.7307 42.9459 26.3758 43.0521 26.9835 42.8773C27.434 42.7467 27.845 42.3439 28.2285 42.3295C29.1285 42.2952 29.7626 43.6077 31.8769 42.387C31.8769 42.387 30.0505 42.9149 30.1703 40.7946Z" fill="url(#paint11_linear_2562_2559)"/>
<g style="mix-blend-mode:multiply" opacity="0.2">
<path d="M28.2182 23.8894C26.66 23.6415 25.3852 21.6517 25.0336 20.2695C25.0336 20.2872 25.016 21.3751 25.016 21.3928C25.0336 22.2582 25.9204 22.9 25.7347 23.8694C25.5534 24.8167 24.7369 25.5881 24.4951 27.9485C24.8226 26.6482 25.1632 24.7747 28.2182 23.8894Z" fill="#5F39FF"/>
</g>
<path d="M29.0502 18.6714C29.0502 18.678 29.048 18.6836 29.0469 18.6902C29.0491 18.6836 29.0491 18.678 29.0513 18.6714H29.0502Z" fill="url(#paint12_linear_2562_2559)"/>
<path d="M28.9035 18.6329C28.8463 18.6185 28.8826 18.6241 28.8705 18.6229C28.7485 19.3821 28.5244 19.8502 28.1463 20.5363C27.1914 19.454 26.331 18.9904 25.298 18.4658C25.2463 18.4813 25.2914 18.4481 25.2441 18.4658C26.7211 19.2714 27.1936 19.6256 28.1463 20.585C28.7211 19.7916 28.9024 18.6395 28.9035 18.6329Z" fill="#73E9FE"/>
<g style="mix-blend-mode:multiply" opacity="0.2">
<path d="M26.5493 37.1172C26.4208 40.2645 23.4317 41.9455 21.001 42.3903C22.6416 41.8857 26.1339 40.1073 26.5493 37.1172Z" fill="#5F39FF"/>
</g>
<g style="mix-blend-mode:multiply" opacity="0.2">
<path d="M28.6828 35.146C28.6828 35.146 28.663 35.2655 28.6366 35.4736C28.6169 35.5776 28.6344 35.7082 28.6322 35.8587C28.6322 36.0114 28.6575 36.1741 28.6795 36.3556C28.7037 36.5337 28.7355 36.7263 28.7564 36.9255C28.7883 37.1258 28.7828 37.3349 28.7905 37.5496C28.7718 37.7632 28.7597 37.9823 28.6982 38.2003C28.674 38.3055 28.6509 38.425 28.6191 38.5412C28.5872 38.653 28.5608 38.7736 28.5399 38.9031C28.4982 39.1554 28.4883 39.401 28.4883 39.6467C28.4949 39.8913 28.5201 40.1325 28.5674 40.3616C28.607 40.5918 28.6806 40.8076 28.7597 41.0068C28.8388 41.206 28.9432 41.3819 29.0498 41.5369C29.1092 41.6099 29.1652 41.6807 29.2212 41.7449C29.285 41.8025 29.3443 41.8567 29.4015 41.9076C29.5267 41.995 29.6355 42.0658 29.7366 42.1035C29.8311 42.1544 29.9191 42.1599 29.9718 42.1754C30.0267 42.1876 30.0553 42.1942 30.0553 42.1942C30.0553 42.1942 30.0278 42.1809 29.9773 42.1577C29.9278 42.1322 29.8509 42.1057 29.7685 42.0426C29.6795 41.9917 29.5883 41.9076 29.4883 41.8102C29.4454 41.756 29.3982 41.6973 29.3498 41.6365C29.3081 41.5701 29.2641 41.5003 29.218 41.4273C29.1388 41.2746 29.063 41.1042 29.0048 40.916C28.9476 40.7268 28.8982 40.5243 28.8707 40.3096C28.8344 40.096 28.8311 39.8725 28.8256 39.6456C28.8289 39.4199 28.8443 39.1852 28.8839 38.9661C28.8982 38.8577 28.9201 38.7437 28.9509 38.6264C28.9806 38.5124 29.0004 38.3973 29.0267 38.2723C29.0927 38.0321 29.0872 37.7853 29.0971 37.5507C29.0817 37.3172 29.0619 37.0893 29.0136 36.8867C28.9762 36.6776 28.9212 36.4917 28.8751 36.3168C28.8377 36.1442 28.785 35.9859 28.7619 35.8465C28.741 35.7071 28.7026 35.5842 28.7048 35.478C28.6949 35.2677 28.6839 35.1471 28.6839 35.1471L28.6828 35.146Z" fill="#5F39FF"/>
</g>
<g style="mix-blend-mode:multiply" opacity="0.2">
<path d="M27.9633 37.2367C27.9633 37.2367 27.9611 37.3131 27.9567 37.4459C27.9512 37.5112 27.9666 37.5964 27.9457 37.6827C27.9303 37.769 27.9149 37.8653 27.8962 37.9704C27.8655 38.0756 27.8325 38.1884 27.7984 38.3091C27.7567 38.4286 27.7116 38.5558 27.6666 38.6864C27.5688 38.9487 27.4776 39.2486 27.4314 39.564C27.4039 39.72 27.416 39.8827 27.4072 40.0387C27.4138 40.2103 27.4435 40.3364 27.46 40.4814C27.5259 40.7791 27.6138 41.0391 27.7237 41.245C27.9358 41.6633 28.1743 41.8636 28.1743 41.8636C28.1743 41.8636 28.0314 41.5903 27.9094 41.1686C27.8732 41.0657 27.8578 40.9451 27.8248 40.8267C27.7995 40.7049 27.7907 40.5788 27.7655 40.4504C27.7578 40.3143 27.7512 40.1726 27.7446 40.0288C27.7567 39.8905 27.7479 39.7499 27.7765 39.6094C27.8116 39.3272 27.8907 39.0494 27.96 38.7738C27.9984 38.641 28.0237 38.4983 28.0512 38.371C28.0765 38.2404 28.0831 38.111 28.0951 37.9948C28.0973 37.8741 28.0852 37.7624 28.0787 37.6683C28.0787 37.5709 28.0391 37.5001 28.0259 37.4337C27.9863 37.3064 27.9633 37.2334 27.9633 37.2334V37.2367Z" fill="#5F39FF"/>
</g>
<g style="mix-blend-mode:multiply" opacity="0.2">
<path d="M27.1786 33.7407C27.1786 33.7407 27.1665 33.8857 27.1446 34.1391C27.1325 34.3936 27.0951 34.7555 27.0841 35.1904C27.0753 35.6264 27.0544 36.1355 27.0501 36.6778C27.0533 36.9511 27.0303 37.2244 27.0281 37.5077C26.9984 37.7833 26.994 38.0688 26.916 38.3322C26.8896 38.4672 26.8599 38.6022 26.8028 38.7273C26.7479 38.8534 26.716 38.9873 26.6446 39.1057C26.5797 39.2275 26.5149 39.3481 26.4512 39.4676C26.4017 39.5683 26.3006 39.6911 26.2303 39.7996C26.0819 40.0353 25.9094 40.2046 25.7533 40.3861C25.5885 40.5576 25.4105 40.7093 25.2479 40.8443C25.0742 40.9671 24.9248 41.0955 24.7753 41.1862C24.6314 41.2847 24.5006 41.3633 24.3907 41.4219C24.172 41.547 24.0391 41.6067 24.0391 41.6067C24.0391 41.6067 24.1819 41.5769 24.4182 41.485C24.538 41.4407 24.6797 41.3799 24.8391 41.3002C25.0039 41.2305 25.1731 41.1209 25.3621 41.0058C25.5435 40.8797 25.7369 40.7402 25.9314 40.5709C26.116 40.3917 26.3325 40.2057 26.4797 39.9822C26.5621 39.8671 26.6457 39.7808 26.7303 39.6369C26.8017 39.5119 26.8742 39.3857 26.9468 39.2584C27.0248 39.1334 27.0654 38.984 27.127 38.8468C27.1918 38.7084 27.227 38.5602 27.2588 38.4108C27.3391 38.1131 27.3413 37.8143 27.3665 37.5221C27.3687 37.2333 27.372 36.9467 27.3599 36.6755C27.3413 36.13 27.305 35.6242 27.283 35.1904C27.2632 34.7555 27.2314 34.3936 27.216 34.1391C27.194 33.8857 27.1819 33.7407 27.1819 33.7407H27.1786Z" fill="#5F39FF"/>
</g>
<path d="M26.7543 16.3288C26.8235 16.5967 26.8982 16.8069 27.0466 16.9895C27.2796 17.2772 27.6993 17.4753 27.9301 17.4576C28.1521 17.441 28.5664 17.0891 28.7345 16.7184C28.862 16.4373 28.8609 16.1949 28.9499 15.8419C29.0081 15.6084 29.1224 15.3528 29.1444 15.1049C29.24 14.0768 27.9719 13.6795 27.4312 13.9031C26.5883 14.2517 26.4982 15.4889 26.4982 15.4889C26.118 15.0905 25.9916 15.7888 26.3741 16.1883C26.5598 16.382 26.7554 16.3277 26.7554 16.3277L26.7543 16.3288Z" fill="url(#paint13_linear_2562_2559)"/>
<g style="mix-blend-mode:multiply" opacity="0.2">
<path d="M27.3004 15.4147C27.5312 15.4501 28.673 15.7467 29.1257 14.8393C29.0927 14.2727 28.1763 13.5965 27.4312 13.9041C26.5872 14.2516 26.4982 15.49 26.4982 15.49C26.118 15.0916 25.9916 15.7899 26.3741 16.1894C26.5598 16.383 26.7554 16.3288 26.7554 16.3288C26.8246 16.5966 26.8993 16.8069 27.0477 16.9895C27.2136 17.1953 27.4752 17.3524 27.6949 17.4211C27.0829 17.0271 27.1433 15.3904 27.3015 15.4147H27.3004Z" fill="#5F39FF"/>
</g>
<g style="mix-blend-mode:multiply">
<g style="mix-blend-mode:multiply" opacity="0.39">
<path d="M28.2827 16.8609C28.2344 16.7889 28.1377 16.8155 28.1025 16.8133C28.0674 16.8111 28.0102 16.7635 27.9069 16.779C27.8036 16.7945 27.6465 16.8044 27.6465 16.8044C27.6465 16.8044 27.8146 16.8177 27.8827 16.8409C27.9509 16.8642 28.0124 16.893 28.0893 16.9096C28.1674 16.9262 28.2838 16.862 28.2838 16.862L28.2827 16.8609Z" fill="#5F39FF"/>
</g>
<g style="mix-blend-mode:multiply" opacity="0.39">
<path d="M27.8184 16.9595C27.9326 16.9927 28.148 17.0126 28.148 17.0126C28.0162 17.1221 27.8184 16.9595 27.8184 16.9595Z" fill="#5F39FF"/>
</g>
<g style="mix-blend-mode:multiply" opacity="0.39">
<path d="M28.4038 16.0821C28.3939 16.2735 28.4752 16.413 28.4401 16.4916C28.4071 16.5668 28.3631 16.5568 28.251 16.5989C28.1642 16.631 28.1444 16.6974 28.1466 16.6941C28.1686 16.6465 28.3972 16.6133 28.473 16.5823C28.606 16.5281 28.5137 16.3599 28.4928 16.2658C28.4071 15.9648 28.4642 15.9084 28.5455 15.842C28.5455 15.842 28.8038 15.9349 28.9499 15.842C28.9499 15.842 28.8411 15.6881 28.6466 15.77C28.773 15.6439 28.9159 15.6693 28.9939 15.6948L29.0444 15.5531C28.673 15.4657 28.4203 15.7888 28.4049 16.0821H28.4038Z" fill="#5F39FF"/>
</g>
<g style="mix-blend-mode:multiply" opacity="0.39">
<path d="M28.1898 15.6095C28.148 15.4911 27.7678 15.4003 27.3711 15.6206C27.3711 15.6206 27.6909 15.5254 27.8832 15.5752C28.0755 15.625 28.0568 15.7821 28.0568 15.7821C28.0568 15.7821 27.9766 15.6814 27.8502 15.6615C27.7238 15.6427 27.5623 15.7323 27.5623 15.7323C27.7161 15.8231 28.014 15.8662 28.1227 15.7965C28.2315 15.7257 28.1909 15.6095 28.1909 15.6095H28.1898Z" fill="#5F39FF"/>
</g>
</g>
<path d="M22.0368 28.1353C21.8742 28.4961 21.8665 28.7927 21.8061 28.931C21.783 28.9841 21.7401 29.045 21.6951 29.0306C21.5709 28.993 21.7951 28.0601 21.8555 27.8664C21.8973 27.7303 21.961 27.5212 22.083 27.2622C22.2478 27.3375 22.2797 27.3319 22.4215 27.3961C22.3907 27.4315 22.15 27.8864 22.0368 28.1342V28.1353Z" fill="url(#paint14_linear_2562_2559)"/>
<path d="M21.8837 28.4165C21.6903 28.7673 21.6573 29.1026 21.5848 29.2343C21.5573 29.283 21.5035 29.3494 21.4551 29.3206C21.3639 29.2664 21.6529 28.3191 21.7276 28.1298C21.7804 27.9971 21.8606 27.7923 22.0035 27.5444C22.1595 27.6352 22.1914 27.633 22.3254 27.7115C22.2925 27.7447 22.0167 28.1785 21.8848 28.4176L21.8837 28.4165Z" fill="url(#paint15_linear_2562_2559)"/>
<path d="M21.7148 28.652C21.5335 28.9939 21.5192 29.234 21.4533 29.3735C21.4258 29.431 21.3599 29.5528 21.317 29.5273C21.1939 29.4543 21.3829 28.663 21.4555 28.4727C21.506 28.3388 21.6796 28.0289 21.8192 27.7788C21.9774 27.8662 22.1082 27.7522 22.2445 27.8275C22.0522 27.988 21.8445 28.4107 21.7159 28.652H21.7148Z" fill="url(#paint16_linear_2562_2559)"/>
<path d="M24.6783 18.7332C23.686 19.7015 23.9431 22.7105 23.597 23.3933C22.9365 24.698 23.02 25.4605 22.5321 26.5948C22.4904 26.6911 22.3123 27.0463 22.2728 27.0839C21.7014 27.6716 21.6244 27.707 21.52 27.9615C21.4431 28.1496 21.1266 29.3658 21.1926 29.4178C21.2629 29.4732 21.3343 29.3614 21.3783 29.2596C21.4332 29.1301 21.464 28.9475 21.6134 28.6797C21.7475 28.4418 21.8904 28.1862 22.0178 28.0257C22.1574 27.8497 22.3156 27.7391 22.2596 27.9095C22.2101 28.06 22.042 28.2957 21.9607 28.4816C21.9123 28.5923 21.9014 28.6952 21.9486 28.7218C21.9926 28.7461 22.0937 28.6332 22.1816 28.5027C22.2684 28.3743 22.3761 28.2503 22.4376 28.1718C22.5948 27.9715 22.753 27.6837 22.7794 27.6107C22.8036 27.5432 22.8618 27.3385 23.0156 27.0928C23.5706 26.1698 24.4926 24.6914 24.6992 23.8813C24.797 23.5294 25.1123 21.8606 25.2442 20.5835C25.3101 19.9472 25.2343 18.5971 24.6772 18.7332H24.6783Z" fill="url(#paint17_linear_2562_2559)"/>
<path d="M24.4999 18.948C23.7164 20.0845 23.9208 22.756 23.5977 23.3934C22.9373 24.6981 23.0208 25.4606 22.5329 26.5949C22.4911 26.6912 22.3131 27.0464 22.2736 27.0841C21.7021 27.6717 21.6252 27.7071 21.5208 27.9616C21.4801 28.0612 21.3725 28.4474 21.29 28.7971C21.7362 27.1549 22.1867 27.5643 22.5406 26.803C22.9911 25.8336 23.0867 25.0368 23.3076 24.3119C23.4582 23.8172 23.6538 23.6446 23.7637 23.1422C24.1076 21.573 23.8021 20.5825 24.4999 18.9458V18.948Z" fill="#73E9FE"/>
<path d="M30.2021 27.4051C30.6912 27.2912 31.189 27.1949 31.6934 27.1739C32.1978 27.144 32.7043 27.1683 33.2054 27.2303C33.7065 27.3 34.1978 27.4118 34.6879 27.5092C34.9329 27.5612 35.1802 27.5955 35.4274 27.6077C35.6769 27.6209 35.9241 27.5844 36.1659 27.5136C35.9329 27.6099 35.6813 27.6608 35.4274 27.6663C35.1736 27.6663 34.9208 27.6409 34.6725 27.5999C34.1747 27.5202 33.6857 27.4085 33.1901 27.3498C32.6956 27.2779 32.1967 27.2569 31.6978 27.2657L31.323 27.2779L30.9494 27.3122C30.8241 27.3188 30.7 27.3354 30.5758 27.3542C30.4516 27.3719 30.3274 27.3885 30.2021 27.404V27.4051Z" fill="url(#paint18_linear_2562_2559)"/>
<path d="M31.2246 27.228C31.2576 27.8566 31.7499 28.0912 31.7499 28.0912C31.5576 27.726 31.8796 27.3354 31.2246 27.228Z" fill="url(#paint19_linear_2562_2559)"/>
<path d="M31.7979 27.2135C31.9121 26.5948 32.4297 26.4277 32.4297 26.4277C32.1902 26.7642 32.4605 27.1946 31.7979 27.2135Z" fill="url(#paint20_linear_2562_2559)"/>
<path d="M32.2354 27.2246C32.2683 27.8532 32.7606 28.0878 32.7606 28.0878C32.5661 27.7237 32.8903 27.332 32.2354 27.2246Z" fill="url(#paint21_linear_2562_2559)"/>
<path d="M32.8076 27.2114C32.9219 26.5939 33.4395 26.4268 33.4395 26.4268C33.201 26.7621 33.4703 27.1926 32.8076 27.2114Z" fill="url(#paint22_linear_2562_2559)"/>
<path d="M33.291 27.3174C33.324 27.946 33.8163 28.1795 33.8163 28.1795C33.6229 27.8143 33.946 27.4236 33.291 27.3174Z" fill="url(#paint23_linear_2562_2559)"/>
<path d="M34.1426 27.4712C34.1755 28.0987 34.6668 28.3333 34.6668 28.3333C34.4733 27.9681 34.7964 27.5774 34.1426 27.4712Z" fill="url(#paint24_linear_2562_2559)"/>
<path d="M34.9746 27.5977C35.0076 28.2262 35.4999 28.4608 35.4999 28.4608C35.3054 28.0956 35.6296 27.705 34.9746 27.5977Z" fill="url(#paint25_linear_2562_2559)"/>
<path d="M35.5342 27.6684C36.1551 27.7426 36.4682 27.2955 36.4682 27.2955C36.0781 27.425 35.7507 27.0377 35.5342 27.6684Z" fill="url(#paint26_linear_2562_2559)"/>
<path d="M33.8311 27.363C33.9464 26.7444 34.4629 26.5762 34.4629 26.5762C34.2245 26.9115 34.4937 27.3431 33.8311 27.363Z" fill="url(#paint27_linear_2562_2559)"/>
<path d="M34.6045 27.5402C34.7188 26.9216 35.2364 26.7534 35.2364 26.7534C34.9979 27.0898 35.2671 27.5192 34.6045 27.5402Z" fill="url(#paint28_linear_2562_2559)"/>
<path d="M30.2482 27.5847C30.7086 27.3833 31.18 27.1985 31.6734 27.0856C32.1636 26.965 32.6669 26.8964 33.1701 26.8665C33.6745 26.8433 34.1789 26.8643 34.6778 26.8709C34.9284 26.8776 35.1767 26.8654 35.4229 26.8333C35.6701 26.8012 35.9064 26.7193 36.1317 26.6064C35.9207 26.7437 35.6811 26.8388 35.4328 26.892C35.1833 26.9373 34.9295 26.9595 34.6778 26.965C34.1734 26.9772 33.6734 26.9561 33.1745 26.9882C32.6756 27.0082 32.1811 27.0768 31.6921 27.1775L31.3262 27.2583L30.9647 27.3601C30.8427 27.3899 30.724 27.4287 30.6053 27.4696C30.4866 27.5095 30.3669 27.5482 30.2471 27.5858L30.2482 27.5847Z" fill="url(#paint29_linear_2562_2559)"/>
<path d="M31.2197 27.224C31.3659 27.8359 31.8912 27.9765 31.8912 27.9765C31.6351 27.6534 31.8835 27.2096 31.2197 27.224Z" fill="url(#paint30_linear_2562_2559)"/>
<path d="M31.7812 27.1063C31.7834 26.4777 32.2615 26.2188 32.2615 26.2188C32.0867 26.5928 32.4296 26.9668 31.7812 27.1063Z" fill="url(#paint31_linear_2562_2559)"/>
<path d="M32.2139 27.0379C32.3589 27.6499 32.8853 27.7905 32.8853 27.7905C32.6293 27.4673 32.8776 27.0236 32.2139 27.0379Z" fill="url(#paint32_linear_2562_2559)"/>
<path d="M32.7754 26.9193C32.7776 26.2907 33.2556 26.0317 33.2556 26.0317C33.0809 26.4058 33.4237 26.7787 32.7754 26.9193Z" fill="url(#paint33_linear_2562_2559)"/>
<path d="M33.2705 26.9359C33.4156 27.5479 33.9419 27.6884 33.9419 27.6884C33.6859 27.3653 33.9342 26.9215 33.2705 26.9359Z" fill="url(#paint34_linear_2562_2559)"/>
<path d="M34.1338 26.9325C34.2799 27.5444 34.8052 27.685 34.8052 27.685C34.5503 27.3607 34.7975 26.9181 34.1338 26.9325Z" fill="url(#paint35_linear_2562_2559)"/>
<path d="M34.9766 26.9051C35.1216 27.5171 35.6469 27.6587 35.6469 27.6587C35.3908 27.3345 35.6392 26.8918 34.9766 26.9051Z" fill="url(#paint36_linear_2562_2559)"/>
<path d="M35.5381 26.8728C36.1623 26.833 36.3897 26.335 36.3897 26.335C36.0293 26.5331 35.637 26.2121 35.5381 26.8728Z" fill="url(#paint37_linear_2562_2559)"/>
<path d="M33.8096 26.8818C33.8107 26.2521 34.2898 25.9932 34.2898 25.9932C34.1151 26.3672 34.4579 26.7413 33.8096 26.8818Z" fill="url(#paint38_linear_2562_2559)"/>
<path d="M34.6006 26.9163C34.6017 26.2867 35.0808 26.0288 35.0808 26.0288C34.9061 26.4017 35.2489 26.7769 34.6006 26.9163Z" fill="url(#paint39_linear_2562_2559)"/>
<path d="M27.4386 24.0942C28.1221 23.9514 27.9902 23.3096 27.9902 23.3096C27.7463 23.6161 27.2858 23.4789 27.4386 24.0942Z" fill="url(#paint40_linear_2562_2559)"/>
<path d="M27.9806 24.0034C28.6641 23.8606 28.5322 23.2188 28.5322 23.2188C28.2883 23.5253 27.8278 23.3881 27.9806 24.0034Z" fill="url(#paint41_linear_2562_2559)"/>
<path d="M28.5421 23.8295C29.2256 23.6868 29.0938 23.0449 29.0938 23.0449C28.8498 23.3515 28.3894 23.2142 28.5421 23.8295Z" fill="url(#paint42_linear_2562_2559)"/>
<path d="M27.3881 24.0956C26.698 23.9882 26.7969 23.3408 26.7969 23.3408C27.0562 23.6341 27.509 23.4736 27.3881 24.0956Z" fill="url(#paint43_linear_2562_2559)"/>
<path d="M26.8432 24.0321C26.1531 23.9247 26.252 23.2773 26.252 23.2773C26.5113 23.5706 26.9641 23.4101 26.8432 24.0321Z" fill="url(#paint44_linear_2562_2559)"/>
<path d="M26.2729 23.8895C25.5828 23.7822 25.6817 23.1348 25.6817 23.1348C25.941 23.428 26.3938 23.2676 26.2729 23.8895Z" fill="url(#paint45_linear_2562_2559)"/>
<path d="M25.3306 17.8182C25.3306 17.4519 25.3834 17.1244 25.368 16.7127C25.3581 16.4471 25.1548 15.647 25.2932 14.9819C25.6174 13.4248 27.1812 12.4798 28.513 13.3042C29.4218 13.8675 29.0757 14.7296 29.0757 14.7296C28.6031 15.5961 27.379 15.3095 27.379 15.3095C27.9031 15.0217 28.1471 14.6045 27.9163 14.5857C27.4943 14.5614 27.0889 14.8989 27.124 15.3681C27.1834 16.1704 27.4339 16.3132 27.0965 16.8211C26.7592 17.328 26.7987 17.6887 27.3427 18.2797C27.8878 18.8706 28.1295 19.2502 27.8735 19.6995C27.5284 20.3071 26.8383 19.7604 26.8383 19.7604C27.4262 19.9308 27.7097 19.3874 27.424 19.1396C27.1383 18.8917 26.7834 18.8939 26.4592 18.6095C26.4965 19.1517 26.5449 19.5756 26.7636 19.8024C27.3372 20.3934 28.0768 20.0968 28.2141 20.0636C28.2141 20.0636 26.7504 20.9688 25.6943 19.3631C25.5911 19.206 25.3295 18.8109 25.3317 17.8193L25.3306 17.8182Z" fill="url(#paint46_linear_2562_2559)"/>
<g style="mix-blend-mode:multiply" opacity="0.3">
<path d="M26.4577 18.6095C25.8907 18.1303 25.9962 17.9023 26.1203 17.3977C26.2445 16.892 26.1951 16.8466 25.9247 16.3154C25.6544 15.7842 26.0478 14.4529 26.6478 13.8066C26.6478 13.8066 25.5016 14.8458 25.7896 16.2202C25.9764 17.11 26.1357 16.789 25.9522 17.3667C25.6731 18.2487 26.4588 18.6095 26.4588 18.6095H26.4577Z" fill="#FC3DD3"/>
</g>
<g style="mix-blend-mode:multiply" opacity="0.5">
<g style="mix-blend-mode:multiply" opacity="0.3">
<path d="M25.9148 14.3511C24.9775 15.4234 25.5577 16.426 25.5225 16.9683C25.4874 17.5094 25.2039 18.0605 25.539 18.9514C25.339 18.0993 25.6412 18.0594 25.6709 17.0911C25.7006 16.1239 25.1313 15.8539 25.9137 14.3522L25.9148 14.3511Z" fill="#FC3DD3"/>
</g>
</g>
<path d="M28.5328 21.7324C28.5262 21.6959 28.5075 21.6627 28.4822 21.6383C28.469 21.6262 28.4547 21.6151 28.4372 21.6062C28.4284 21.6018 28.4185 21.5985 28.4075 21.5963C28.402 21.5952 28.3976 21.5941 28.3888 21.5941H28.3833H28.38H28.3734H28.3723C28.3613 21.5941 28.3503 21.5974 28.3383 21.6007C28.3416 21.5819 28.3416 21.562 28.3383 21.5398C28.3361 21.5188 28.3306 21.4967 28.3196 21.4746C28.3097 21.4524 28.2932 21.4314 28.2734 21.4148C28.2536 21.3982 28.2295 21.386 28.2064 21.3805C28.1833 21.3739 28.1602 21.3727 28.1394 21.3739C28.1185 21.375 28.0987 21.3794 28.0822 21.386C28.0657 21.3916 28.0503 21.3993 28.0372 21.4059C28.024 21.4137 28.013 21.4214 28.0031 21.4292C28.002 21.4292 28.0009 21.4314 27.9998 21.4314C27.9932 21.4203 27.9866 21.4104 27.9778 21.4015C27.9635 21.3849 27.9449 21.3705 27.924 21.3617C27.9042 21.3528 27.8822 21.3484 27.8635 21.3473C27.8251 21.3462 27.7932 21.3561 27.7668 21.3672C27.7196 21.3882 27.6866 21.4137 27.6635 21.4336C27.6624 21.4303 27.6602 21.427 27.658 21.4237C27.6536 21.4148 27.6482 21.4059 27.6427 21.396C27.6372 21.3871 27.6295 21.3783 27.6229 21.3694C27.6152 21.3617 27.6075 21.3539 27.5987 21.3462L27.5844 21.3362C27.5844 21.3362 27.5745 21.3296 27.569 21.3274C27.5635 21.3252 27.558 21.3218 27.5525 21.3196C27.5471 21.3185 27.5405 21.3163 27.535 21.3152C27.5295 21.313 27.5229 21.313 27.5174 21.313C27.5119 21.313 27.5053 21.313 27.4998 21.313C27.4888 21.3152 27.4767 21.3152 27.4668 21.3196C27.4262 21.334 27.4009 21.3606 27.3822 21.3849C27.3635 21.4093 27.3536 21.4347 27.346 21.4557C27.3427 21.4668 27.3394 21.4768 27.3372 21.4867C27.335 21.4967 27.3328 21.5055 27.3317 21.5133C27.3284 21.5288 27.3284 21.5421 27.3273 21.5509C27.3273 21.5598 27.3262 21.5642 27.3262 21.5642C27.3262 21.5642 27.3284 21.5598 27.3339 21.5531C27.3383 21.5465 27.3449 21.5354 27.3536 21.5221C27.358 21.5155 27.3624 21.5089 27.3679 21.5011C27.3734 21.4945 27.38 21.4856 27.3855 21.4779C27.3987 21.4624 27.4141 21.4447 27.4317 21.4303C27.4492 21.4159 27.4712 21.4048 27.4888 21.4026C27.491 21.4026 27.4932 21.4026 27.4954 21.4026C27.4976 21.4026 27.4998 21.4026 27.502 21.4026L27.5075 21.4048C27.5075 21.4048 27.5108 21.4048 27.513 21.4071C27.5152 21.4071 27.5163 21.4093 27.5185 21.4093C27.5207 21.4104 27.5218 21.4126 27.524 21.4137C27.5273 21.4159 27.5306 21.4203 27.535 21.4225C27.5492 21.438 27.5613 21.4624 27.5701 21.4901C27.5789 21.5177 27.5855 21.5498 27.5899 21.5819C27.591 21.5985 27.5943 21.614 27.5943 21.6306L27.5965 21.6549C27.5965 21.6638 27.5965 21.6715 27.5965 21.6793C27.5965 21.7125 27.5965 21.7457 27.5965 21.7778C27.5965 21.7855 27.5965 21.7944 27.5965 21.8021C27.5965 21.8099 27.5954 21.8176 27.5954 21.8254C27.5954 21.8409 27.5943 21.8564 27.5932 21.8707C27.591 21.9006 27.5899 21.9294 27.5877 21.9559C27.5866 21.9825 27.5844 22.0069 27.5822 22.029C27.5811 22.0511 27.58 22.0699 27.5789 22.0854C27.5778 22.1009 27.5778 22.1142 27.5767 22.1231C27.5767 22.1319 27.5767 22.1363 27.5767 22.1363C27.5767 22.1363 27.5789 22.1319 27.5833 22.1253C27.5877 22.1175 27.5943 22.1065 27.6009 22.0921C27.6086 22.0777 27.6174 22.0611 27.6262 22.0401C27.635 22.0201 27.6449 21.9969 27.6536 21.9703C27.658 21.9571 27.6624 21.9438 27.6668 21.9294C27.6712 21.915 27.6745 21.9006 27.6789 21.8851C27.6833 21.8696 27.6866 21.8541 27.6899 21.8375C27.6943 21.822 27.6965 21.8043 27.6987 21.7877C27.7009 21.77 27.7042 21.7534 27.7053 21.7346C27.7075 21.7169 27.7086 21.6981 27.7086 21.6804C27.7086 21.6715 27.7086 21.6616 27.7086 21.6527C27.7086 21.6428 27.7086 21.6339 27.7086 21.624C27.7086 21.6051 27.7064 21.5863 27.7042 21.5664C27.6987 21.5299 27.691 21.4934 27.6778 21.4569C27.691 21.4524 27.7064 21.448 27.7229 21.4436C27.7427 21.438 27.7646 21.4325 27.7888 21.4303C27.8119 21.427 27.8372 21.427 27.8569 21.4325C27.8778 21.438 27.891 21.448 27.9031 21.4657C27.9141 21.4823 27.9229 21.5078 27.9273 21.5365C27.9317 21.5653 27.9339 21.5963 27.9339 21.6284C27.9339 21.6605 27.9328 21.6926 27.9295 21.7258C27.9273 21.7579 27.9229 21.79 27.9196 21.822C27.9119 21.884 27.9031 21.9438 27.8943 21.9936C27.8855 22.0445 27.8778 22.0865 27.8723 22.1164C27.869 22.1319 27.8657 22.143 27.8646 22.1518C27.8624 22.1596 27.8613 22.164 27.8613 22.164C27.8613 22.164 27.8646 22.1607 27.8701 22.154C27.8756 22.1474 27.8844 22.1385 27.8932 22.1253C27.9119 22.0998 27.935 22.0611 27.958 22.0124C27.9811 21.9637 28.0031 21.905 28.0196 21.8398C28.0273 21.8066 28.035 21.7722 28.0405 21.7368C28.046 21.7014 28.0482 21.6649 28.0482 21.6273C28.0482 21.5896 28.0449 21.5509 28.0361 21.5122C28.0328 21.4978 28.0273 21.4834 28.0218 21.469C28.0328 21.469 28.0449 21.469 28.058 21.469C28.0712 21.469 28.0855 21.469 28.0987 21.469C28.113 21.469 28.1262 21.4712 28.1394 21.4735C28.146 21.4735 28.1525 21.4757 28.158 21.4779C28.1635 21.4801 28.1701 21.4823 28.1745 21.4834C28.1855 21.4878 28.1943 21.4934 28.202 21.5011C28.2097 21.5078 28.2174 21.5155 28.224 21.5255C28.2273 21.5299 28.2306 21.5354 28.2328 21.541C28.2361 21.5465 28.2383 21.5531 28.2405 21.5587C28.2449 21.5708 28.2492 21.5852 28.2525 21.5985C28.2558 21.6118 28.2591 21.6262 28.2613 21.6383C28.2405 21.6583 28.2251 21.6848 28.2174 21.7081C28.2064 21.7379 28.2042 21.7667 28.2031 21.7933C28.2031 21.8198 28.2053 21.8453 28.2097 21.8685C28.2141 21.8918 28.2185 21.915 28.2251 21.936C28.235 21.9714 28.246 22.0035 28.258 22.0334C28.2525 22.0445 28.2471 22.0544 28.2416 22.0644C28.2328 22.0832 28.224 22.1009 28.2163 22.1186C28.202 22.154 28.191 22.1883 28.1844 22.2193C28.1778 22.2503 28.1745 22.2769 28.1734 22.299C28.1723 22.3211 28.1734 22.3388 28.1734 22.3499C28.1745 22.3621 28.1756 22.3676 28.1756 22.3676C28.1756 22.3676 28.1778 22.361 28.1811 22.3499C28.1833 22.3388 28.1899 22.3222 28.1965 22.3023C28.2119 22.2625 28.2361 22.2083 28.2756 22.1496C28.2822 22.1397 28.2899 22.1286 28.2976 22.1186C28.3163 22.1563 28.335 22.1883 28.3503 22.2127C28.3613 22.2315 28.3712 22.2448 28.3778 22.2547C28.3844 22.2647 28.3888 22.2691 28.3888 22.2691C28.3888 22.2691 28.3822 22.2448 28.3701 22.2027C28.3613 22.1684 28.3482 22.1219 28.3361 22.0666C28.3383 22.0633 28.3416 22.06 28.3438 22.0567C28.369 22.0246 28.3976 21.9914 28.4273 21.9559C28.4416 21.9382 28.4569 21.9194 28.4723 21.9006C28.48 21.8907 28.4877 21.8807 28.4943 21.8696C28.4987 21.8641 28.502 21.8586 28.5053 21.853L28.5075 21.8497L28.5097 21.8475V21.8453C28.5097 21.8453 28.5152 21.8386 28.5174 21.8342C28.5328 21.8043 28.5405 21.7645 28.5328 21.728V21.7324ZM28.4174 21.79C28.4174 21.79 28.4163 21.7933 28.4152 21.7944V21.7966L28.413 21.801C28.4097 21.8066 28.4075 21.811 28.4042 21.8154C28.3976 21.8243 28.3921 21.8342 28.3866 21.8431C28.3745 21.8619 28.3613 21.8807 28.3482 21.8995C28.3361 21.9161 28.3251 21.9327 28.3141 21.9504C28.313 21.9416 28.3108 21.9316 28.3097 21.9227C28.3042 21.8829 28.302 21.8409 28.3053 21.8021C28.3075 21.7833 28.3119 21.7645 28.3174 21.7501C28.324 21.7357 28.3317 21.7258 28.3416 21.7202C28.3514 21.7136 28.3657 21.7103 28.3833 21.7081H28.3866C28.3866 21.7081 28.3866 21.7081 28.3855 21.7081C28.3855 21.7081 28.3888 21.7081 28.391 21.7103C28.3954 21.7125 28.4009 21.7169 28.4053 21.7213C28.4152 21.7313 28.4218 21.7424 28.424 21.7545C28.4262 21.7656 28.4251 21.7767 28.4196 21.79H28.4174Z" fill="#FFE98D"/>
<g style="mix-blend-mode:screen" opacity="0.9">
<path style="mix-blend-mode:screen" opacity="0.9" d="M38.2318 24.7993C38.2318 25.6249 37.4482 25.668 37.4482 25.668C37.4482 25.668 38.2318 25.7123 38.2318 26.5379C38.2318 25.7123 39.0153 25.668 39.0153 25.668C39.0153 25.668 38.2318 25.6249 38.2318 24.7993Z" fill="url(#paint47_radial_2562_2559)"/>
<path style="mix-blend-mode:screen" opacity="0.9" d="M17.1168 20.832C17.1168 21.2902 16.6816 21.3134 16.6816 21.3134C16.6816 21.3134 17.1168 21.3378 17.1168 21.7959C17.1168 21.3378 17.5509 21.3134 17.5509 21.3134C17.5509 21.3134 17.1168 21.2891 17.1168 20.832Z" fill="url(#paint48_radial_2562_2559)"/>
<path style="mix-blend-mode:screen" opacity="0.9" d="M36.4547 35.644C36.4547 36.1022 36.0195 36.1254 36.0195 36.1254C36.0195 36.1254 36.4547 36.1498 36.4547 36.6079C36.4547 36.1498 36.8888 36.1254 36.8888 36.1254C36.8888 36.1254 36.4547 36.1011 36.4547 35.644Z" fill="url(#paint49_radial_2562_2559)"/>
<path style="mix-blend-mode:screen" opacity="0.9" d="M24.0234 36.2959C24.0234 36.5814 23.752 36.5969 23.752 36.5969C23.752 36.5969 24.0234 36.6124 24.0234 36.8979C24.0234 36.6124 24.2948 36.5969 24.2948 36.5969C24.2948 36.5969 24.0234 36.5814 24.0234 36.2959Z" fill="url(#paint50_radial_2562_2559)"/>
<path style="mix-blend-mode:screen" opacity="0.9" d="M31.372 36.418C31.372 36.7046 31.1006 36.719 31.1006 36.719C31.1006 36.719 31.372 36.7345 31.372 37.02C31.372 36.7334 31.6434 36.719 31.6434 36.719C31.6434 36.719 31.372 36.7035 31.372 36.418Z" fill="url(#paint51_radial_2562_2559)"/>
<path style="mix-blend-mode:screen" opacity="0.9" d="M35.9511 21.9629C35.9511 22.2495 35.6797 22.2639 35.6797 22.2639C35.6797 22.2639 35.9511 22.2794 35.9511 22.5649C35.9511 22.2783 36.2225 22.2639 36.2225 22.2639C36.2225 22.2639 35.9511 22.2484 35.9511 21.9629Z" fill="url(#paint52_radial_2562_2559)"/>
<path style="mix-blend-mode:screen" opacity="0.9" d="M18.2227 24.8179C18.2227 24.9927 18.0557 25.0027 18.0557 25.0027C18.0557 25.0027 18.2227 25.0126 18.2227 25.1875C18.2227 25.0115 18.3897 25.0027 18.3897 25.0027C18.3897 25.0027 18.2227 24.9927 18.2227 24.8179Z" fill="url(#paint53_radial_2562_2559)"/>
<path style="mix-blend-mode:screen" opacity="0.9" d="M33.1768 16.3633C33.1768 16.6787 32.8779 16.6953 32.8779 16.6953C32.8779 16.6953 33.1768 16.7119 33.1768 17.0273C33.1768 16.7119 33.4757 16.6953 33.4757 16.6953C33.4757 16.6953 33.1768 16.6787 33.1768 16.3633Z" fill="url(#paint54_radial_2562_2559)"/>
<path style="mix-blend-mode:color-dodge" opacity="0.9" d="M16.0028 31.4189C16.0028 31.9446 15.5039 31.9723 15.5039 31.9723C15.5039 31.9723 16.0028 32.001 16.0028 32.5267C16.0028 32.001 16.5028 31.9723 16.5028 31.9723C16.5028 31.9723 16.0028 31.9446 16.0028 31.4189Z" fill="url(#paint55_radial_2562_2559)"/>
<path style="mix-blend-mode:color-dodge" opacity="0.9" d="M20.1024 36.1655C20.1024 37.0685 19.2441 37.1172 19.2441 37.1172C19.2441 37.1172 20.1024 37.1659 20.1024 38.0701C20.1024 37.1659 20.9606 37.1172 20.9606 37.1172C20.9606 37.1172 20.1024 37.0685 20.1024 36.1655Z" fill="url(#paint56_radial_2562_2559)"/>
<path style="mix-blend-mode:color-dodge" opacity="0.9" d="M22.0239 15.853C22.0239 16.652 21.2656 16.6941 21.2656 16.6941C21.2656 16.6941 22.0239 16.7372 22.0239 17.5362C22.0239 16.7372 22.7832 16.6941 22.7832 16.6941C22.7832 16.6941 22.0239 16.6509 22.0239 15.853Z" fill="url(#paint57_radial_2562_2559)"/>
</g>
</g>
</g>
<rect x="0.233333" y="0.233333" width="55.5333" height="55.5333" rx="27.7667" stroke="white" stroke-opacity="0.2" stroke-width="0.466667"/>
<defs>
<filter id="filter0_f_2562_2559" x="-20.7407" y="-20.7407" width="97.4815" height="97.4815" filterUnits="userSpaceOnUse" color-interpolation-filters="sRGB">
<feFlood flood-opacity="0" result="BackgroundImageFix"/>
<feBlend mode="normal" in="SourceGraphic" in2="BackgroundImageFix" result="shape"/>
<feGaussianBlur stdDeviation="10.3704" result="effect1_foregroundBlur_2562_2559"/>
</filter>
<radialGradient id="paint0_radial_2562_2559" cx="0" cy="0" r="1" gradientUnits="userSpaceOnUse" gradientTransform="translate(28 28) scale(38.6579)">
<stop stop-color="#FA1E42"/>
<stop offset="1" stop-opacity="0"/>
</radialGradient>
<linearGradient id="paint1_linear_2562_2559" x1="30.4465" y1="27.148" x2="32.9104" y2="34.0591" gradientUnits="userSpaceOnUse">
<stop offset="0.18" stop-color="#5F39FF"/>
<stop offset="0.29" stop-color="#614FFE"/>
<stop offset="1" stop-color="#73E9FE"/>
</linearGradient>
<linearGradient id="paint2_linear_2562_2559" x1="30.3223" y1="23.3989" x2="32.0915" y2="30.5229" gradientUnits="userSpaceOnUse">
<stop offset="0.18" stop-color="#5F39FF"/>
<stop offset="0.29" stop-color="#614FFE"/>
<stop offset="1" stop-color="#73E9FE"/>
</linearGradient>
<linearGradient id="paint3_linear_2562_2559" x1="29.9622" y1="19.2275" x2="33.1764" y2="29.7894" gradientUnits="userSpaceOnUse">
<stop offset="0.18" stop-color="#5F39FF"/>
<stop offset="1" stop-color="#73E9FE"/>
</linearGradient>
<linearGradient id="paint4_linear_2562_2559" x1="24.014" y1="27.1476" x2="21.55" y2="34.0599" gradientUnits="userSpaceOnUse">
<stop offset="0.18" stop-color="#5F39FF"/>
<stop offset="0.29" stop-color="#614FFE"/>
<stop offset="1" stop-color="#73E9FE"/>
</linearGradient>
<linearGradient id="paint5_linear_2562_2559" x1="24.138" y1="23.4001" x2="22.3688" y2="30.524" gradientUnits="userSpaceOnUse">
<stop offset="0.18" stop-color="#5F39FF"/>
<stop offset="0.29" stop-color="#614FFE"/>
<stop offset="1" stop-color="#73E9FE"/>
</linearGradient>
<linearGradient id="paint6_linear_2562_2559" x1="24.4986" y1="19.2275" x2="21.2843" y2="29.7895" gradientUnits="userSpaceOnUse">
<stop offset="0.18" stop-color="#5F39FF"/>
<stop offset="1" stop-color="#73E9FE"/>
</linearGradient>
<linearGradient id="paint7_linear_2562_2559" x1="28.0548" y1="15.7844" x2="30.3514" y2="19.3622" gradientUnits="userSpaceOnUse">
<stop stop-color="#FFE98D"/>
<stop offset="0.25" stop-color="#FEB7A1"/>
<stop offset="0.61" stop-color="#FC75BB"/>
<stop offset="0.87" stop-color="#FC4CCC"/>
<stop offset="1" stop-color="#FC3DD3"/>
</linearGradient>
<linearGradient id="paint8_linear_2562_2559" x1="27.4979" y1="16.427" x2="32.6242" y2="28.3184" gradientUnits="userSpaceOnUse">
<stop stop-color="#5F39FF"/>
<stop offset="0.11" stop-color="#614FFE"/>
<stop offset="0.84" stop-color="#73E9FE"/>
</linearGradient>
<linearGradient id="paint9_linear_2562_2559" x1="28.0535" y1="16.1866" x2="33.1798" y2="28.078" gradientUnits="userSpaceOnUse">
<stop stop-color="#5F39FF"/>
<stop offset="0.1" stop-color="#614FFE"/>
<stop offset="0.8" stop-color="#73E9FE"/>
</linearGradient>
<linearGradient id="paint10_linear_2562_2559" x1="22.4912" y1="15.1356" x2="23.4405" y2="22.7355" gradientUnits="userSpaceOnUse">
<stop stop-color="#5F39FF"/>
<stop offset="1" stop-color="#73E9FE"/>
</linearGradient>
<linearGradient id="paint11_linear_2562_2559" x1="24.556" y1="18.3319" x2="25.8242" y2="43.7329" gradientUnits="userSpaceOnUse">
<stop stop-color="#73E9FE"/>
<stop offset="0.62" stop-color="#5F39FF"/>
<stop offset="0.67" stop-color="#614FFE"/>
<stop offset="1" stop-color="#73E9FE"/>
</linearGradient>
<linearGradient id="paint12_linear_2562_2559" x1="29.048" y1="18.6714" x2="29.0491" y2="18.6913" gradientUnits="userSpaceOnUse">
<stop stop-color="#73E9FE"/>
<stop offset="0.62" stop-color="#5F39FF"/>
<stop offset="0.65" stop-color="#614FFE"/>
<stop offset="0.91" stop-color="#73E9FE"/>
</linearGradient>
<linearGradient id="paint13_linear_2562_2559" x1="26.2222" y1="13.8697" x2="29.5107" y2="17.1857" gradientUnits="userSpaceOnUse">
<stop stop-color="#5F39FF"/>
<stop offset="0.09" stop-color="#614FFE"/>
<stop offset="0.72" stop-color="#73E9FE"/>
</linearGradient>
<linearGradient id="paint14_linear_2562_2559" x1="21.8133" y1="29.9845" x2="21.9654" y2="28.7463" gradientUnits="userSpaceOnUse">
<stop stop-color="#73E9FE"/>
<stop offset="1" stop-color="#5F39FF"/>
</linearGradient>
<linearGradient id="paint15_linear_2562_2559" x1="21.6916" y1="30.1686" x2="21.8365" y2="28.8991" gradientUnits="userSpaceOnUse">
<stop stop-color="#73E9FE"/>
<stop offset="1" stop-color="#5F39FF"/>
</linearGradient>
<linearGradient id="paint16_linear_2562_2559" x1="21.6169" y1="30.1379" x2="21.8139" y2="28.0504" gradientUnits="userSpaceOnUse">
<stop stop-color="#73E9FE"/>
<stop offset="0.1" stop-color="#70CFFE"/>
<stop offset="0.32" stop-color="#6A9AFE"/>
<stop offset="0.53" stop-color="#6570FE"/>
<stop offset="0.72" stop-color="#6152FE"/>
<stop offset="0.89" stop-color="#5F3FFE"/>
<stop offset="1" stop-color="#5F39FF"/>
</linearGradient>
<linearGradient id="paint17_linear_2562_2559" x1="25.6838" y1="17.4163" x2="22.4992" y2="27.7919" gradientUnits="userSpaceOnUse">
<stop stop-color="#5F39FF"/>
<stop offset="0.1" stop-color="#614FFE"/>
<stop offset="0.8" stop-color="#73E9FE"/>
</linearGradient>
<linearGradient id="paint18_linear_2562_2559" x1="36.0483" y1="26.8828" x2="30.333" y2="28.0478" gradientUnits="userSpaceOnUse">
<stop stop-color="#FFE98D"/>
<stop offset="0.13" stop-color="#FEE38F"/>
<stop offset="0.28" stop-color="#FED495"/>
<stop offset="0.45" stop-color="#FEBB9F"/>
<stop offset="0.64" stop-color="#FD99AD"/>
<stop offset="0.82" stop-color="#FC6DBF"/>
<stop offset="1" stop-color="#FC3DD3"/>
</linearGradient>
<linearGradient id="paint19_linear_2562_2559" x1="31.6744" y1="27.6257" x2="31.3082" y2="27.7003" gradientUnits="userSpaceOnUse">
<stop stop-color="#FFE98D"/>
<stop offset="0.13" stop-color="#FEE38F"/>
<stop offset="0.28" stop-color="#FED495"/>
<stop offset="0.45" stop-color="#FEBB9F"/>
<stop offset="0.64" stop-color="#FD99AD"/>
<stop offset="0.82" stop-color="#FC6DBF"/>
<stop offset="1" stop-color="#FC3DD3"/>
</linearGradient>
<linearGradient id="paint20_linear_2562_2559" x1="32.2942" y1="26.8823" x2="31.9406" y2="26.7608" gradientUnits="userSpaceOnUse">
<stop stop-color="#FFE98D"/>
<stop offset="0.13" stop-color="#FEE38F"/>
<stop offset="0.28" stop-color="#FED495"/>
<stop offset="0.45" stop-color="#FEBB9F"/>
<stop offset="0.64" stop-color="#FD99AD"/>
<stop offset="0.82" stop-color="#FC6DBF"/>
<stop offset="1" stop-color="#FC3DD3"/>
</linearGradient>
<linearGradient id="paint21_linear_2562_2559" x1="32.6853" y1="27.6221" x2="32.3191" y2="27.6968" gradientUnits="userSpaceOnUse">
<stop stop-color="#FFE98D"/>
<stop offset="0.13" stop-color="#FEE38F"/>
<stop offset="0.28" stop-color="#FED495"/>
<stop offset="0.45" stop-color="#FEBB9F"/>
<stop offset="0.64" stop-color="#FD99AD"/>
<stop offset="0.82" stop-color="#FC6DBF"/>
<stop offset="1" stop-color="#FC3DD3"/>
</linearGradient>
<linearGradient id="paint22_linear_2562_2559" x1="33.3054" y1="26.8799" x2="32.9518" y2="26.7584" gradientUnits="userSpaceOnUse">
<stop stop-color="#FFE98D"/>
<stop offset="0.13" stop-color="#FEE38F"/>
<stop offset="0.28" stop-color="#FED495"/>
<stop offset="0.45" stop-color="#FEBB9F"/>
<stop offset="0.64" stop-color="#FD99AD"/>
<stop offset="0.82" stop-color="#FC6DBF"/>
<stop offset="1" stop-color="#FC3DD3"/>
</linearGradient>
<linearGradient id="paint23_linear_2562_2559" x1="33.7415" y1="27.7142" x2="33.3753" y2="27.7889" gradientUnits="userSpaceOnUse">
<stop stop-color="#FFE98D"/>
<stop offset="0.13" stop-color="#FEE38F"/>
<stop offset="0.28" stop-color="#FED495"/>
<stop offset="0.45" stop-color="#FEBB9F"/>
<stop offset="0.64" stop-color="#FD99AD"/>
<stop offset="0.82" stop-color="#FC6DBF"/>
<stop offset="1" stop-color="#FC3DD3"/>
</linearGradient>
<linearGradient id="paint24_linear_2562_2559" x1="34.5917" y1="27.8683" x2="34.2266" y2="27.9427" gradientUnits="userSpaceOnUse">
<stop stop-color="#FFE98D"/>
<stop offset="0.13" stop-color="#FEE38F"/>
<stop offset="0.28" stop-color="#FED495"/>
<stop offset="0.45" stop-color="#FEBB9F"/>
<stop offset="0.64" stop-color="#FD99AD"/>
<stop offset="0.82" stop-color="#FC6DBF"/>
<stop offset="1" stop-color="#FC3DD3"/>
</linearGradient>
<linearGradient id="paint25_linear_2562_2559" x1="35.4252" y1="27.9946" x2="35.059" y2="28.0692" gradientUnits="userSpaceOnUse">
<stop stop-color="#FFE98D"/>
<stop offset="0.13" stop-color="#FEE38F"/>
<stop offset="0.28" stop-color="#FED495"/>
<stop offset="0.45" stop-color="#FEBB9F"/>
<stop offset="0.64" stop-color="#FD99AD"/>
<stop offset="0.82" stop-color="#FC6DBF"/>
<stop offset="1" stop-color="#FC3DD3"/>
</linearGradient>
<linearGradient id="paint26_linear_2562_2559" x1="35.9957" y1="27.2914" x2="36.0076" y2="27.6675" gradientUnits="userSpaceOnUse">
<stop stop-color="#FFE98D"/>
<stop offset="0.13" stop-color="#FEE38F"/>
<stop offset="0.28" stop-color="#FED495"/>
<stop offset="0.45" stop-color="#FEBB9F"/>
<stop offset="0.64" stop-color="#FD99AD"/>
<stop offset="0.82" stop-color="#FC6DBF"/>
<stop offset="1" stop-color="#FC3DD3"/>
</linearGradient>
<linearGradient id="paint27_linear_2562_2559" x1="34.3282" y1="27.0311" x2="33.9756" y2="26.91" gradientUnits="userSpaceOnUse">
<stop stop-color="#FFE98D"/>
<stop offset="0.13" stop-color="#FEE38F"/>
<stop offset="0.28" stop-color="#FED495"/>
<stop offset="0.45" stop-color="#FEBB9F"/>
<stop offset="0.64" stop-color="#FD99AD"/>
<stop offset="0.82" stop-color="#FC6DBF"/>
<stop offset="1" stop-color="#FC3DD3"/>
</linearGradient>
<linearGradient id="paint28_linear_2562_2559" x1="35.101" y1="27.2081" x2="34.7474" y2="27.0866" gradientUnits="userSpaceOnUse">
<stop stop-color="#FFE98D"/>
<stop offset="0.13" stop-color="#FEE38F"/>
<stop offset="0.28" stop-color="#FED495"/>
<stop offset="0.45" stop-color="#FEBB9F"/>
<stop offset="0.64" stop-color="#FD99AD"/>
<stop offset="0.82" stop-color="#FC6DBF"/>
<stop offset="1" stop-color="#FC3DD3"/>
</linearGradient>
<linearGradient id="paint29_linear_2562_2559" x1="35.9031" y1="26.0066" x2="30.487" y2="28.1813" gradientUnits="userSpaceOnUse">
<stop stop-color="#FFE98D"/>
<stop offset="0.13" stop-color="#FEE38F"/>
<stop offset="0.28" stop-color="#FED495"/>
<stop offset="0.45" stop-color="#FEBB9F"/>
<stop offset="0.64" stop-color="#FD99AD"/>
<stop offset="0.82" stop-color="#FC6DBF"/>
<stop offset="1" stop-color="#FC3DD3"/>
</linearGradient>
<linearGradient id="paint30_linear_2562_2559" x1="31.7345" y1="27.5307" x2="31.3875" y2="27.67" gradientUnits="userSpaceOnUse">
<stop stop-color="#FFE98D"/>
<stop offset="0.13" stop-color="#FEE38F"/>
<stop offset="0.28" stop-color="#FED495"/>
<stop offset="0.45" stop-color="#FEBB9F"/>
<stop offset="0.64" stop-color="#FD99AD"/>
<stop offset="0.82" stop-color="#FC6DBF"/>
<stop offset="1" stop-color="#FC3DD3"/>
</linearGradient>
<linearGradient id="paint31_linear_2562_2559" x1="32.2088" y1="26.6876" x2="31.8394" y2="26.6317" gradientUnits="userSpaceOnUse">
<stop stop-color="#FFE98D"/>
<stop offset="0.13" stop-color="#FEE38F"/>
<stop offset="0.28" stop-color="#FED495"/>
<stop offset="0.45" stop-color="#FEBB9F"/>
<stop offset="0.64" stop-color="#FD99AD"/>
<stop offset="0.82" stop-color="#FC6DBF"/>
<stop offset="1" stop-color="#FC3DD3"/>
</linearGradient>
<linearGradient id="paint32_linear_2562_2559" x1="32.7274" y1="27.3444" x2="32.3814" y2="27.4834" gradientUnits="userSpaceOnUse">
<stop stop-color="#FFE98D"/>
<stop offset="0.13" stop-color="#FEE38F"/>
<stop offset="0.28" stop-color="#FED495"/>
<stop offset="0.45" stop-color="#FEBB9F"/>
<stop offset="0.64" stop-color="#FD99AD"/>
<stop offset="0.82" stop-color="#FC6DBF"/>
<stop offset="1" stop-color="#FC3DD3"/>
</linearGradient>
<linearGradient id="paint33_linear_2562_2559" x1="33.2025" y1="26.5022" x2="32.8331" y2="26.4462" gradientUnits="userSpaceOnUse">
<stop stop-color="#FFE98D"/>
<stop offset="0.13" stop-color="#FEE38F"/>
<stop offset="0.28" stop-color="#FED495"/>
<stop offset="0.45" stop-color="#FEBB9F"/>
<stop offset="0.64" stop-color="#FD99AD"/>
<stop offset="0.82" stop-color="#FC6DBF"/>
<stop offset="1" stop-color="#FC3DD3"/>
</linearGradient>
<linearGradient id="paint34_linear_2562_2559" x1="33.7837" y1="27.2425" x2="33.4376" y2="27.3815" gradientUnits="userSpaceOnUse">
<stop stop-color="#FFE98D"/>
<stop offset="0.13" stop-color="#FEE38F"/>
<stop offset="0.28" stop-color="#FED495"/>
<stop offset="0.45" stop-color="#FEBB9F"/>
<stop offset="0.64" stop-color="#FD99AD"/>
<stop offset="0.82" stop-color="#FC6DBF"/>
<stop offset="1" stop-color="#FC3DD3"/>
</linearGradient>
<linearGradient id="paint35_linear_2562_2559" x1="34.6482" y1="27.2387" x2="34.3012" y2="27.3781" gradientUnits="userSpaceOnUse">
<stop stop-color="#FFE98D"/>
<stop offset="0.13" stop-color="#FEE38F"/>
<stop offset="0.28" stop-color="#FED495"/>
<stop offset="0.45" stop-color="#FEBB9F"/>
<stop offset="0.64" stop-color="#FD99AD"/>
<stop offset="0.82" stop-color="#FC6DBF"/>
<stop offset="1" stop-color="#FC3DD3"/>
</linearGradient>
<linearGradient id="paint36_linear_2562_2559" x1="35.4894" y1="27.2115" x2="35.1434" y2="27.3505" gradientUnits="userSpaceOnUse">
<stop stop-color="#FFE98D"/>
<stop offset="0.13" stop-color="#FEE38F"/>
<stop offset="0.28" stop-color="#FED495"/>
<stop offset="0.45" stop-color="#FEBB9F"/>
<stop offset="0.64" stop-color="#FD99AD"/>
<stop offset="0.82" stop-color="#FC6DBF"/>
<stop offset="1" stop-color="#FC3DD3"/>
</linearGradient>
<linearGradient id="paint37_linear_2562_2559" x1="35.9294" y1="26.4138" x2="36.0096" y2="26.7813" gradientUnits="userSpaceOnUse">
<stop stop-color="#FFE98D"/>
<stop offset="0.13" stop-color="#FEE38F"/>
<stop offset="0.28" stop-color="#FED495"/>
<stop offset="0.45" stop-color="#FEBB9F"/>
<stop offset="0.64" stop-color="#FD99AD"/>
<stop offset="0.82" stop-color="#FC6DBF"/>
<stop offset="1" stop-color="#FC3DD3"/>
</linearGradient>
<linearGradient id="paint38_linear_2562_2559" x1="34.2367" y1="26.4641" x2="33.8672" y2="26.4082" gradientUnits="userSpaceOnUse">
<stop stop-color="#FFE98D"/>
<stop offset="0.13" stop-color="#FEE38F"/>
<stop offset="0.28" stop-color="#FED495"/>
<stop offset="0.45" stop-color="#FEBB9F"/>
<stop offset="0.64" stop-color="#FD99AD"/>
<stop offset="0.82" stop-color="#FC6DBF"/>
<stop offset="1" stop-color="#FC3DD3"/>
</linearGradient>
<linearGradient id="paint39_linear_2562_2559" x1="35.0283" y1="26.4986" x2="34.6588" y2="26.4427" gradientUnits="userSpaceOnUse">
<stop stop-color="#FFE98D"/>
<stop offset="0.13" stop-color="#FEE38F"/>
<stop offset="0.28" stop-color="#FED495"/>
<stop offset="0.45" stop-color="#FEBB9F"/>
<stop offset="0.64" stop-color="#FD99AD"/>
<stop offset="0.82" stop-color="#FC6DBF"/>
<stop offset="1" stop-color="#FC3DD3"/>
</linearGradient>
<linearGradient id="paint40_linear_2562_2559" x1="27.6131" y1="23.551" x2="27.8512" y2="23.891" gradientUnits="userSpaceOnUse">
<stop stop-color="#FFE98D"/>
<stop offset="0.14" stop-color="#F9E991"/>
<stop offset="0.32" stop-color="#EAE99D"/>
<stop offset="0.51" stop-color="#D1E9B1"/>
<stop offset="0.72" stop-color="#AFE9CD"/>
<stop offset="0.93" stop-color="#83E9F0"/>
<stop offset="1" stop-color="#73E9FE"/>
</linearGradient>
<linearGradient id="paint41_linear_2562_2559" x1="28.1547" y1="23.4588" x2="28.3935" y2="23.7997" gradientUnits="userSpaceOnUse">
<stop stop-color="#FFE98D"/>
<stop offset="0.14" stop-color="#F9E991"/>
<stop offset="0.32" stop-color="#EAE99D"/>
<stop offset="0.51" stop-color="#D1E9B1"/>
<stop offset="0.72" stop-color="#AFE9CD"/>
<stop offset="0.93" stop-color="#83E9F0"/>
<stop offset="1" stop-color="#73E9FE"/>
</linearGradient>
<linearGradient id="paint42_linear_2562_2559" x1="28.7168" y1="23.2861" x2="28.955" y2="23.6261" gradientUnits="userSpaceOnUse">
<stop stop-color="#FFE98D"/>
<stop offset="0.14" stop-color="#F9E991"/>
<stop offset="0.32" stop-color="#EAE99D"/>
<stop offset="0.51" stop-color="#D1E9B1"/>
<stop offset="0.72" stop-color="#AFE9CD"/>
<stop offset="0.93" stop-color="#83E9F0"/>
<stop offset="1" stop-color="#73E9FE"/>
</linearGradient>
<linearGradient id="paint43_linear_2562_2559" x1="27.1906" y1="23.5591" x2="26.9697" y2="23.9121" gradientUnits="userSpaceOnUse">
<stop stop-color="#FFE98D"/>
<stop offset="0.14" stop-color="#F9E991"/>
<stop offset="0.32" stop-color="#EAE99D"/>
<stop offset="0.51" stop-color="#D1E9B1"/>
<stop offset="0.72" stop-color="#AFE9CD"/>
<stop offset="0.93" stop-color="#83E9F0"/>
<stop offset="1" stop-color="#73E9FE"/>
</linearGradient>
<linearGradient id="paint44_linear_2562_2559" x1="26.6457" y1="23.4964" x2="26.4248" y2="23.8494" gradientUnits="userSpaceOnUse">
<stop stop-color="#FFE98D"/>
<stop offset="0.14" stop-color="#F9E991"/>
<stop offset="0.32" stop-color="#EAE99D"/>
<stop offset="0.51" stop-color="#D1E9B1"/>
<stop offset="0.72" stop-color="#AFE9CD"/>
<stop offset="0.93" stop-color="#83E9F0"/>
<stop offset="1" stop-color="#73E9FE"/>
</linearGradient>
<linearGradient id="paint45_linear_2562_2559" x1="26.0761" y1="23.3525" x2="25.8552" y2="23.7054" gradientUnits="userSpaceOnUse">
<stop stop-color="#FFE98D"/>
<stop offset="0.14" stop-color="#F9E991"/>
<stop offset="0.32" stop-color="#EAE99D"/>
<stop offset="0.51" stop-color="#D1E9B1"/>
<stop offset="0.72" stop-color="#AFE9CD"/>
<stop offset="0.93" stop-color="#83E9F0"/>
<stop offset="1" stop-color="#73E9FE"/>
</linearGradient>
<linearGradient id="paint46_linear_2562_2559" x1="26.7369" y1="12.7609" x2="27.7321" y2="19.5191" gradientUnits="userSpaceOnUse">
<stop stop-color="#FFE98D"/>
<stop offset="0.12" stop-color="#FEE38F"/>
<stop offset="0.28" stop-color="#FED296"/>
<stop offset="0.46" stop-color="#FEB6A1"/>
<stop offset="0.66" stop-color="#FD8FB1"/>
<stop offset="0.87" stop-color="#FC5DC5"/>
<stop offset="1" stop-color="#FC3DD3"/>
</linearGradient>
<radialGradient id="paint47_radial_2562_2559" cx="0" cy="0" r="1" gradientUnits="userSpaceOnUse" gradientTransform="translate(38.2318 25.6691) scale(0.824175 0.829983)">
<stop offset="0.31" stop-color="white"/>
<stop offset="0.9" stop-color="white" stop-opacity="0"/>
</radialGradient>
<radialGradient id="paint48_radial_2562_2559" cx="0" cy="0" r="1" gradientUnits="userSpaceOnUse" gradientTransform="translate(17.1168 21.3145) scale(0.457143 0.460364)">
<stop offset="0.31" stop-color="white"/>
<stop offset="0.9" stop-color="white" stop-opacity="0"/>
</radialGradient>
<radialGradient id="paint49_radial_2562_2559" cx="0" cy="0" r="1" gradientUnits="userSpaceOnUse" gradientTransform="translate(36.4536 36.1265) scale(0.457144 0.460364)">
<stop offset="0.31" stop-color="white"/>
<stop offset="0.9" stop-color="white" stop-opacity="0"/>
</radialGradient>
<radialGradient id="paint50_radial_2562_2559" cx="0" cy="0" r="1" gradientUnits="userSpaceOnUse" gradientTransform="translate(24.0234 36.5969) scale(0.285714 0.287727)">
<stop offset="0.31" stop-color="white"/>
<stop offset="0.9" stop-color="white" stop-opacity="0"/>
</radialGradient>
<radialGradient id="paint51_radial_2562_2559" cx="0" cy="0" r="1" gradientUnits="userSpaceOnUse" gradientTransform="translate(31.372 36.7201) scale(0.285714 0.287727)">
<stop offset="0.31" stop-color="white"/>
<stop offset="0.9" stop-color="white" stop-opacity="0"/>
</radialGradient>
<radialGradient id="paint52_radial_2562_2559" cx="0" cy="0" r="1" gradientUnits="userSpaceOnUse" gradientTransform="translate(35.95 22.2639) scale(0.285714 0.287727)">
<stop offset="0.31" stop-color="white"/>
<stop offset="0.9" stop-color="white" stop-opacity="0"/>
</radialGradient>
<radialGradient id="paint53_radial_2562_2559" cx="0" cy="0" r="1" gradientUnits="userSpaceOnUse" gradientTransform="translate(18.2216 25.0027) scale(0.175824 0.177063)">
<stop offset="0.31" stop-color="white"/>
<stop offset="0.9" stop-color="white" stop-opacity="0"/>
</radialGradient>
<radialGradient id="paint54_radial_2562_2559" cx="0" cy="0" r="1" gradientUnits="userSpaceOnUse" gradientTransform="translate(33.1768 16.6953) scale(0.315385 0.317607)">
<stop offset="0.31" stop-color="white"/>
<stop offset="0.9" stop-color="white" stop-opacity="0"/>
</radialGradient>
<radialGradient id="paint55_radial_2562_2559" cx="0" cy="0" r="1" gradientUnits="userSpaceOnUse" gradientTransform="translate(16.0028 31.9734) scale(0.827472 0.833302)">
<stop stop-color="white"/>
<stop offset="0.03" stop-color="white" stop-opacity="0.96"/>
<stop offset="0.18" stop-color="white" stop-opacity="0.71"/>
<stop offset="0.34" stop-color="white" stop-opacity="0.49"/>
<stop offset="0.49" stop-color="white" stop-opacity="0.32"/>
<stop offset="0.64" stop-color="white" stop-opacity="0.18"/>
<stop offset="0.78" stop-color="white" stop-opacity="0.08"/>
<stop offset="0.9" stop-color="white" stop-opacity="0.02"/>
<stop offset="1" stop-color="white" stop-opacity="0"/>
</radialGradient>
<radialGradient id="paint56_radial_2562_2559" cx="0" cy="0" r="1" gradientUnits="userSpaceOnUse" gradientTransform="translate(20.1024 37.1172) scale(1.42308 1.4331)">
<stop stop-color="white"/>
<stop offset="0.03" stop-color="white" stop-opacity="0.96"/>
<stop offset="0.18" stop-color="white" stop-opacity="0.71"/>
<stop offset="0.34" stop-color="white" stop-opacity="0.49"/>
<stop offset="0.49" stop-color="white" stop-opacity="0.32"/>
<stop offset="0.64" stop-color="white" stop-opacity="0.18"/>
<stop offset="0.78" stop-color="white" stop-opacity="0.08"/>
<stop offset="0.9" stop-color="white" stop-opacity="0.02"/>
<stop offset="1" stop-color="white" stop-opacity="0"/>
</radialGradient>
<radialGradient id="paint57_radial_2562_2559" cx="0" cy="0" r="1" gradientUnits="userSpaceOnUse" gradientTransform="translate(22.025 16.6952) scale(1.25824 1.26711)">
<stop stop-color="white"/>
<stop offset="0.03" stop-color="white" stop-opacity="0.96"/>
<stop offset="0.18" stop-color="white" stop-opacity="0.71"/>
<stop offset="0.34" stop-color="white" stop-opacity="0.49"/>
<stop offset="0.49" stop-color="white" stop-opacity="0.32"/>
<stop offset="0.64" stop-color="white" stop-opacity="0.18"/>
<stop offset="0.78" stop-color="white" stop-opacity="0.08"/>
<stop offset="0.9" stop-color="white" stop-opacity="0.02"/>
<stop offset="1" stop-color="white" stop-opacity="0"/>
</radialGradient>
<clipPath id="clip0_2562_2559">
<rect width="56" height="56" rx="28" fill="white"/>
</clipPath>
<clipPath id="clip1_2562_2559">
<rect width="40" height="30" fill="white" transform="translate(8 13)"/>
</clipPath>
</defs>
</svg>
