<svg width="20" height="20" viewBox="0 0 20 20" fill="none" xmlns="http://www.w3.org/2000/svg">
<g clip-path="url(#clip0_1609_1172)">
<path d="M3.33301 12.5C4.71372 12.5 5.83301 11.3807 5.83301 10C5.83301 8.61929 4.71372 7.5 3.33301 7.5C1.9523 7.5 0.833008 8.61929 0.833008 10C0.833008 11.3807 1.9523 12.5 3.33301 12.5Z" fill="#737373"/>
<path d="M10 12.5C11.3807 12.5 12.5 11.3807 12.5 10C12.5 8.61929 11.3807 7.5 10 7.5C8.61929 7.5 7.5 8.61929 7.5 10C7.5 11.3807 8.61929 12.5 10 12.5Z" fill="#737373"/>
<path d="M16.667 12.5C18.0477 12.5 19.167 11.3807 19.167 10C19.167 8.61929 18.0477 7.5 16.667 7.5C15.2863 7.5 14.167 8.61929 14.167 10C14.167 11.3807 15.2863 12.5 16.667 12.5Z" fill="#737373"/>
</g>
<defs>
<clipPath id="clip0_1609_1172">
<rect width="20" height="20" fill="white"/>
</clipPath>
</defs>
</svg>
