<svg width="21" height="20" viewBox="0 0 21 20" fill="none" xmlns="http://www.w3.org/2000/svg">
<path fill-rule="evenodd" clip-rule="evenodd" d="M18.0834 6.67001C18.0361 6.66723 17.9859 6.66612 17.9325 6.66667H15.8284C14.105 6.66667 12.6309 8.02334 12.6309 9.79167C12.6309 11.56 14.1059 12.9167 15.8284 12.9167H17.9325C17.9859 12.9172 18.0364 12.9161 18.0842 12.9133C18.4384 12.892 18.7727 12.7426 19.0249 12.493C19.2771 12.2434 19.43 11.9106 19.455 11.5567C19.4584 11.5067 19.4584 11.4525 19.4584 11.4025V8.18084C19.4584 8.13084 19.4584 8.07667 19.455 8.02667C19.43 7.67273 19.2771 7.33995 19.0249 7.09035C18.7727 6.84076 18.4375 6.69136 18.0834 6.67001ZM15.6442 10.625C16.0875 10.625 16.4467 10.2517 16.4467 9.79167C16.4467 9.33167 16.0875 8.95834 15.6442 8.95834C15.2 8.95834 14.8409 9.33167 14.8409 9.79167C14.8409 10.2517 15.2 10.625 15.6442 10.625Z" fill="white"/>
<path fill-rule="evenodd" clip-rule="evenodd" d="M17.9315 14.1667C17.9603 14.1655 17.989 14.1712 18.0152 14.1832C18.0414 14.1952 18.0644 14.2132 18.0824 14.2358C18.1003 14.2583 18.1127 14.2848 18.1185 14.3131C18.1243 14.3413 18.1233 14.3705 18.1157 14.3983C17.949 14.9917 17.6832 15.4983 17.2573 15.9233C16.6332 16.5483 15.8423 16.8242 14.8657 16.9558C13.9157 17.0833 12.7032 17.0833 11.1715 17.0833H9.4115C7.87984 17.0833 6.6665 17.0833 5.71734 16.9558C4.74067 16.8242 3.94984 16.5475 3.32567 15.9242C2.70234 15.3 2.42567 14.5092 2.294 13.5325C2.1665 12.5825 2.1665 11.37 2.1665 9.83833V9.745C2.1665 8.21333 2.1665 7 2.294 6.05C2.42567 5.07333 2.70234 4.2825 3.32567 3.65833C3.94984 3.035 4.74067 2.75833 5.71734 2.62667C6.66734 2.5 7.87984 2.5 9.4115 2.5H11.1715C12.7032 2.5 13.9165 2.5 14.8657 2.6275C15.8423 2.75917 16.6332 3.03583 17.2573 3.65917C17.6832 4.08583 17.949 4.59167 18.1157 5.185C18.1233 5.21281 18.1243 5.24202 18.1185 5.27027C18.1127 5.29851 18.1003 5.325 18.0824 5.34757C18.0644 5.37014 18.0414 5.38816 18.0152 5.40016C17.989 5.41217 17.9603 5.41782 17.9315 5.41667H15.8282C13.464 5.41667 11.3807 7.28333 11.3807 9.79167C11.3807 12.3 13.464 14.1667 15.8282 14.1667H17.9315ZM5.2915 5.83333C5.12574 5.83333 4.96677 5.89918 4.84956 6.01639C4.73235 6.1336 4.6665 6.29257 4.6665 6.45833C4.6665 6.62409 4.73235 6.78306 4.84956 6.90027C4.96677 7.01748 5.12574 7.08333 5.2915 7.08333H8.62484C8.7906 7.08333 8.94957 7.01748 9.06678 6.90027C9.18399 6.78306 9.24984 6.62409 9.24984 6.45833C9.24984 6.29257 9.18399 6.1336 9.06678 6.01639C8.94957 5.89918 8.7906 5.83333 8.62484 5.83333H5.2915Z" fill="white"/>
</svg>
