<svg width="16" height="16" viewBox="0 0 16 16" fill="none" xmlns="http://www.w3.org/2000/svg">
<path d="M7.99987 10.6667H8.00521M7.99987 6.66669V8.66669M7.04987 3.47802L2.34454 11.3334C2.24759 11.5014 2.19631 11.6919 2.1958 11.8858C2.19529 12.0798 2.24557 12.2706 2.34163 12.4391C2.4377 12.6076 2.5762 12.7481 2.74337 12.8465C2.91055 12.9449 3.10057 12.9978 3.29454 13H12.7052C12.8993 12.998 13.0894 12.9452 13.2567 12.8469C13.424 12.7485 13.5626 12.608 13.6587 12.4394C13.7548 12.2708 13.805 12.08 13.8044 11.8859C13.8038 11.6919 13.7524 11.5013 13.6552 11.3334L8.95054 3.47802C8.85158 3.31464 8.71216 3.17954 8.54575 3.08578C8.37934 2.99201 8.19155 2.94275 8.00054 2.94275C7.80953 2.94275 7.62174 2.99201 7.45533 3.08578C7.28892 3.17954 7.1495 3.31464 7.05054 3.47802" stroke="#CA8A04" stroke-width="1.5" stroke-miterlimit="10" stroke-linecap="round" stroke-linejoin="round"/>
</svg>
