<svg width="34" height="33" viewBox="0 0 34 33" fill="none" xmlns="http://www.w3.org/2000/svg">
<g opacity="0.2">
<g opacity="0.5" style="mix-blend-mode:screen">
<path d="M32.2458 15.637C32.2458 23.9344 25.6008 30.6627 17.4032 30.6627C9.20562 30.6627 2.56055 23.9357 2.56055 15.637C2.56055 7.33835 9.20562 0.611328 17.4032 0.611328C25.6008 0.611328 32.2458 7.33835 32.2458 15.637Z" stroke="white" stroke-width="1.22267" stroke-miterlimit="10"/>
</g>
<g opacity="0.5" style="mix-blend-mode:screen">
<path d="M31.5563 15.637C31.5563 23.5499 25.2202 29.9642 17.4036 29.9642C9.5871 29.9642 3.25098 23.5499 3.25098 15.637C3.25098 7.72407 9.5871 1.30981 17.4036 1.30981C25.2202 1.30981 31.5563 7.72538 31.5563 15.637Z" stroke="white" stroke-width="0.63" stroke-miterlimit="10"/>
</g>
<g opacity="0.5" style="mix-blend-mode:screen">
<path d="M30.8107 15.6371C30.8107 23.133 24.808 29.2097 17.4034 29.2097C9.9988 29.2097 3.99609 23.133 3.99609 15.6371C3.99609 8.14119 9.9988 2.06445 17.4034 2.06445C24.808 2.06445 30.8107 8.14119 30.8107 15.6371Z" fill="white"/>
</g>
</g>
<g style="mix-blend-mode:screen" opacity="0.9">
<path opacity="0.9" d="M9.52136 5.66504C9.52136 6.63721 8.60352 6.68804 8.60352 6.68804C8.60352 6.68804 9.52136 6.74016 9.52136 7.71234C9.52136 6.74016 10.4392 6.68804 10.4392 6.68804C10.4392 6.68804 9.52136 6.63721 9.52136 5.66504Z" fill="url(#paint0_radial_2901_1474)" style="mix-blend-mode:screen"/>
<path opacity="0.9" d="M12.6748 9.83521C12.6748 10.3747 12.165 10.4021 12.165 10.4021C12.165 10.4021 12.6748 10.4308 12.6748 10.9703C12.6748 10.4308 13.1833 10.4021 13.1833 10.4021C13.1833 10.4021 12.6748 10.3734 12.6748 9.83521Z" fill="url(#paint1_radial_2901_1474)" style="mix-blend-mode:screen"/>
<path opacity="0.9" d="M28.3799 22.7368C28.3799 23.2763 27.8701 23.3037 27.8701 23.3037C27.8701 23.3037 28.3799 23.3324 28.3799 23.8719C28.3799 23.3324 28.8884 23.3037 28.8884 23.3037C28.8884 23.3037 28.3799 23.275 28.3799 22.7368Z" fill="url(#paint2_radial_2901_1474)" style="mix-blend-mode:screen"/>
<path opacity="0.9" d="M20.5924 25.2297C20.5924 25.566 20.2744 25.5842 20.2744 25.5842C20.2744 25.5842 20.5924 25.6024 20.5924 25.9387C20.5924 25.6024 20.9103 25.5842 20.9103 25.5842C20.9103 25.5842 20.5924 25.566 20.5924 25.2297Z" fill="url(#paint3_radial_2901_1474)" style="mix-blend-mode:screen"/>
<path opacity="0.9" d="M10.7779 14.0835C10.7779 14.421 10.46 14.438 10.46 14.438C10.46 14.438 10.7779 14.4562 10.7779 14.7924C10.7779 14.4562 11.0959 14.438 11.0959 14.438C11.0959 14.438 10.7779 14.4197 10.7779 14.0835Z" fill="url(#paint4_radial_2901_1474)" style="mix-blend-mode:screen"/>
<path opacity="0.9" d="M24.6511 1.03613C24.6511 1.57435 24.1426 1.60432 24.1426 1.60432C24.1426 1.60432 24.6511 1.63299 24.6511 2.17251C24.6511 1.63299 25.1596 1.60432 25.1596 1.60432C25.1596 1.60432 24.6511 1.57565 24.6511 1.03613Z" fill="url(#paint5_radial_2901_1474)" style="mix-blend-mode:screen"/>
<path opacity="0.9" d="M29.2857 9.17065C29.2857 10.2341 28.2803 10.2914 28.2803 10.2914C28.2803 10.2914 29.2857 10.3487 29.2857 11.4134C29.2857 10.3487 30.291 10.2914 30.291 10.2914C30.291 10.2914 29.2857 10.2341 29.2857 9.17065Z" fill="url(#paint6_radial_2901_1474)" style="mix-blend-mode:color-dodge"/>
<path opacity="0.9" d="M4.63332 18.8142C4.63332 19.8776 3.62793 19.9349 3.62793 19.9349C3.62793 19.9349 4.63332 19.9923 4.63332 21.057C4.63332 19.9923 5.6387 19.9349 5.6387 19.9349C5.6387 19.9349 4.63332 19.8776 4.63332 18.8142Z" fill="url(#paint7_radial_2901_1474)" style="mix-blend-mode:color-dodge"/>
<path opacity="0.9" d="M15.897 26.8938C15.897 27.8347 15.0088 27.8842 15.0088 27.8842C15.0088 27.8842 15.897 27.935 15.897 28.8759C15.897 27.935 16.7866 27.8842 16.7866 27.8842C16.7866 27.8842 15.897 27.8334 15.897 26.8938Z" fill="url(#paint8_radial_2901_1474)" style="mix-blend-mode:color-dodge"/>
</g>
<g style="mix-blend-mode:screen" opacity="0.8">
<path d="M33.2302 13.8217C33.1285 13.2353 32.5763 12.8443 31.9983 12.9473C31.5709 13.0228 31.2503 13.3486 31.1512 13.7487L24.2847 12.9616C24.2371 12.7023 23.9925 12.5289 23.7338 12.5745C23.5716 12.6032 23.4506 12.7166 23.3888 12.8573L21.0948 12.5876C21.0935 12.5759 21.0948 12.5654 21.0922 12.5537C21.0356 12.2266 20.7279 12.009 20.4061 12.0663C20.343 12.078 20.2851 12.1015 20.231 12.1302L19.3711 11.1541C19.4174 11.0707 19.4406 10.9755 19.4239 10.8739C19.384 10.6406 19.1638 10.4855 18.9347 10.5259C18.8729 10.5364 18.8175 10.5624 18.7699 10.5963L17.6345 9.75707C17.6538 9.69452 17.6615 9.62936 17.6499 9.56159C17.61 9.32832 17.3899 9.17325 17.1608 9.21364C17.0925 9.22537 17.0333 9.25795 16.9818 9.29835L14.2128 7.45565C14.2206 7.41004 14.2244 7.36313 14.2167 7.31621C14.1768 7.08294 13.9567 6.92787 13.7275 6.96957C13.6529 6.9826 13.5911 7.02039 13.5357 7.066L8.87824 4.71767C8.93488 4.55086 8.95677 4.36972 8.92459 4.18337C8.82289 3.59693 8.27063 3.20598 7.69263 3.30893C7.11463 3.41188 6.72715 3.96964 6.82885 4.55607C6.93055 5.14251 7.4828 5.53346 8.0608 5.43051C8.35688 5.37838 8.60147 5.20506 8.75723 4.97179L13.389 7.30579C13.3787 7.35661 13.3761 7.41004 13.3851 7.46478C13.425 7.69804 13.6451 7.85312 13.8743 7.81142C13.9554 7.79709 14.0223 7.75408 14.079 7.70195L16.8274 9.53292C16.8132 9.58896 16.8093 9.64891 16.8196 9.71016C16.8595 9.94343 17.0797 10.0985 17.3088 10.0581C17.3706 10.0477 17.426 10.0216 17.4749 9.98773L18.6103 10.8244C18.591 10.8869 18.582 10.9534 18.5935 11.0225C18.6335 11.2544 18.8536 11.4108 19.0827 11.3691C19.1123 11.3639 19.1368 11.3483 19.1638 11.3365L20.0225 12.3139C19.9722 12.3882 19.9401 12.4742 19.9259 12.5654L18.9746 12.6475C18.8961 12.4742 18.7171 12.366 18.524 12.3999C18.3605 12.4286 18.2382 12.5524 18.1945 12.7036L16.8158 12.7844C16.7411 12.6058 16.5583 12.4911 16.3614 12.5263C16.2391 12.5485 16.1425 12.6215 16.0807 12.7205L8.17409 10.8687C8.1831 10.7749 8.18438 10.6784 8.16765 10.5794C8.06595 9.99295 7.5137 9.60199 6.9357 9.70494C6.35641 9.8079 5.97022 10.3657 6.07191 10.9521C6.17361 11.5385 6.72587 11.9295 7.30387 11.8265C7.68748 11.7588 7.98356 11.4877 8.11101 11.1424L16.0176 12.9942C16.0176 13.0033 16.0151 13.0111 16.0176 13.0202C16.0588 13.2535 16.2777 13.4086 16.5068 13.3682C16.6703 13.3382 16.7926 13.2157 16.8364 13.0645L18.2151 12.9851C18.291 13.1636 18.4725 13.2783 18.6708 13.2431C18.8394 13.2131 18.9656 13.0854 19.0055 12.9277L19.9491 12.8443C20.0405 13.1219 20.3185 13.2991 20.612 13.247C20.827 13.2092 20.9931 13.0554 21.0639 12.8626L23.3489 13.1271C23.3489 13.1271 23.3489 13.131 23.3489 13.1323C23.3939 13.3956 23.6424 13.5702 23.9011 13.5246C24.0672 13.4946 24.1895 13.3786 24.25 13.2314L31.1242 14.0263C31.1242 14.0823 31.1268 14.1371 31.1358 14.1931C31.2375 14.7782 31.7897 15.1705 32.3677 15.0675C32.947 14.9646 33.3332 14.4055 33.2315 13.8204L33.2302 13.8217Z" fill="white"/>
</g>
<path d="M21.0178 7.08943C20.5981 6.49518 20.015 6.1342 20.015 6.1342C19.7099 4.35145 17.7545 4.14033 16.6229 3.87318C14.9494 3.47701 15.5429 2.33673 15.2391 2.37061C14.9353 2.40449 14.6327 3.73635 15.8801 4.52217C17.1275 5.30798 18.1574 5.71718 18.0145 6.2984C17.7506 6.23585 17.9965 6.52906 17.7751 6.503C18.9066 7.41392 19.7047 7.12201 21.0178 7.09074V7.08943Z" fill="white"/>
<g opacity="0.2" style="mix-blend-mode:multiply">
<path d="M20.0135 6.13412C19.9349 5.6754 19.7457 5.32093 19.4895 5.04335C18.815 4.60027 17.955 5.33396 17.0166 5.20104C17.6821 5.59851 18.1095 5.90997 18.013 6.29832C17.7491 6.23576 17.995 6.52898 17.7735 6.50292C18.9051 7.41384 19.7032 7.12193 21.0163 7.09065C20.5966 6.4964 20.0135 6.13542 20.0135 6.13542V6.13412Z" fill="white"/>
</g>
<path d="M9.66638 20.4991C6.23056 19.4579 6.00528 19.0213 7.21664 16.3446C8.42799 13.6678 4.41675 13.5545 3.7216 14.4146C2.89773 16.3719 0.781395 13.8802 0 14.6165C1.32464 12.1574 3.49504 13.7656 4.40774 13.5688C5.32044 13.372 7.99803 13.2169 8.00576 15.2343C8.01348 17.2516 6.53437 17.6386 7.20248 18.7594C7.87059 19.8801 9.88265 19.7732 9.88265 19.7732L9.6651 20.4991H9.66638Z" fill="white"/>
<path d="M4.26905 13.6666C5.18175 13.4698 7.85935 13.3147 7.86707 15.3333C7.8748 17.3507 6.39568 17.7377 7.06379 18.8584C7.73191 19.9792 9.74397 19.8723 9.74397 19.8723L9.56503 20.4692C9.59979 20.4796 9.6294 20.49 9.66544 20.5004L9.88299 19.7746C9.88299 19.7746 7.87093 19.8814 7.20282 18.7607C6.53471 17.64 8.01383 17.2529 8.0061 15.2356C7.99838 13.2183 5.31949 13.3733 4.40808 13.5701C3.65501 13.7317 2.05102 12.6748 0.767578 13.6705C2.02528 12.8482 3.54301 13.8229 4.26905 13.6679V13.6666Z" fill="white"/>
<path d="M28.3378 16.2142C31.5471 15.865 32.3864 17.864 31.7943 19.5139C31.2021 21.1637 30.5597 24.6119 30.4117 25.4616C30.2637 26.3113 30.0654 27.5102 29.3252 27.1114C28.585 26.7126 27.6955 25.6623 27.8937 24.8126C28.0907 23.9616 29.3419 24.1793 29.6058 23.2123C29.8685 22.2453 30.4619 20.546 29.9187 20.546C29.3754 20.546 27.7624 23.1185 26.972 21.6824C26.1816 20.2476 28.3378 16.2142 28.3378 16.2142Z" fill="white"/>
<path d="M28.7839 24.0281C28.3938 24.2131 27.9973 24.3643 27.893 24.8126C27.6961 25.6623 28.5843 26.7126 29.3245 27.1114C29.8897 27.4163 30.1381 26.7921 30.29 26.1014C29.5215 25.6779 28.9383 24.995 28.7826 24.0294L28.7839 24.0281Z" fill="white"/>
<g opacity="0.3" style="mix-blend-mode:multiply">
<path d="M28.4958 24.8712C28.6735 24.4372 29.8874 24.1401 29.8449 22.3743C29.76 22.674 29.6711 22.9672 29.6042 23.2135C29.4793 23.6709 29.133 23.8625 28.7829 24.0293C28.3928 24.2144 27.9963 24.3655 27.8921 24.8138C27.6951 25.6635 28.5834 26.7139 29.3236 27.1126C29.6428 27.286 29.9067 26.9615 30.0638 26.6943C29.0622 26.4102 28.3156 25.3064 28.4932 24.8712H28.4958ZM28.9065 24.5141C28.8846 24.4515 28.864 24.3877 28.8473 24.3212C28.8653 24.3877 28.8859 24.4502 28.9065 24.5141Z" fill="white"/>
</g>
<g opacity="0.5" style="mix-blend-mode:multiply">
<path d="M30.2701 16.3394C29.7565 16.1856 29.1192 16.1309 28.3378 16.2156C28.3378 16.2156 26.1816 20.2489 26.972 21.6837C27.6981 23.0039 29.1192 20.9396 29.7655 20.5969C28.6017 19.1699 28.8528 17.2633 30.2701 16.3407V16.3394Z" fill="white"/>
</g>
<path d="M15.2045 23.2736C14.445 24.9651 13.6172 24.827 13.0585 26.9812C12.6402 28.5971 15.5031 30.4906 14.9251 31.6726C14.3999 32.7477 12.4986 32.3815 12.4689 31.9228C12.4046 30.9454 12.523 30.3421 12.2707 29.6253C12.0171 28.9086 9.68965 26.6032 10.4994 24.6042C11.3091 22.6064 13.3842 22.2988 13.3842 22.2988L15.2058 23.2723L15.2045 23.2736Z" fill="white"/>
<path d="M12.4443 31.0548C12.4456 31.3155 12.4469 31.5983 12.4688 31.9228C12.4984 32.3815 14.3998 32.7477 14.925 31.6726C15.0936 31.3285 14.9687 30.9232 14.719 30.4814C14.0651 30.9988 13.2528 31.1226 12.4443 31.0535V31.0548Z" fill="white"/>
<g opacity="0.5" style="mix-blend-mode:multiply">
<path d="M13.0123 24.939C13.3457 24.939 13.9533 24.3851 14.6098 24.4177C14.8132 24.075 15.0115 23.7023 15.2046 23.2735L13.383 22.3C13.383 22.3 11.3079 22.6076 10.4982 24.6054C9.96396 25.9255 10.7968 27.3772 11.4984 28.4185C11.3336 27.0319 12.043 25.5932 13.0123 24.9403V24.939Z" fill="white"/>
</g>
<path d="M20.1387 5.32086C18.3931 4.91036 17.6078 5.26873 17.4315 6.42205C17.2538 7.57536 15.6859 9.16264 15.2302 9.52101C14.7745 9.87939 14.7243 10.9806 15.8378 11.1604C15.8378 11.1604 16.1159 11.8003 16.4699 11.8524C16.8239 11.9032 17.1573 11.4315 18.1575 11.0562C18.6789 10.8594 19.8581 10.7304 20.2494 10.1074C20.2494 10.1074 20.5275 12.5665 17.026 14.5422C14.5376 15.9457 8.59155 16.523 7.98523 19.2206C7.37762 21.9195 8.17061 24.071 7.46259 25.7104C6.75457 27.3498 5.96802 28.0236 5.80711 30.2286C5.72344 30.5192 5.78136 31.6034 6.04269 31.9657C6.26925 32.2798 8.55937 32.1716 8.70999 32.0687C8.86189 31.967 8.67652 30.7824 8.09465 30.424C7.51279 30.0657 8.05217 28.9332 8.19893 28.5996C8.43193 28.0705 9.66388 27.226 10.6873 26.4493C11.6309 25.7326 12.5629 24.5649 12.7689 23.8C13.9918 23.3217 17.5808 25.1579 21.3938 23.7244C22.5575 26.5419 24.7691 27.5818 25.705 29.0922C26.3049 29.8441 25.4321 30.8358 25.6497 31.7298C25.8659 32.6238 28.5976 32.3944 28.6066 31.9201C28.4972 30.1777 27.5858 29.6382 27.0464 28.6478C25.5286 26.018 26.9447 25.3012 26.2367 23.2513C26.2367 23.2513 29.6094 19.7679 28.6143 15.7372C27.6205 11.7078 23.7728 7.88161 23.5037 6.85731C23.2347 5.83301 22.1392 5.15666 22.1392 5.15666C21.8341 3.37391 19.8774 3.16279 18.7458 2.89564C17.0723 2.50078 17.6671 1.35919 17.3633 1.39307C17.0595 1.42696 16.7557 2.76011 18.0043 3.54462C19.253 4.33044 20.2816 4.73964 20.1387 5.32086Z" fill="white"/>
<path d="M5.81738 31.2817C5.87016 31.5502 6.01434 32.048 6.13921 32.1614C6.91288 32.8664 8.55935 32.1718 8.70996 32.0689C8.81809 31.9972 8.75502 31.3795 8.50142 30.8999C7.80627 31.1658 6.53055 31.429 5.81738 31.283V31.2817Z" fill="white"/>
<path d="M25.6833 30.8947C25.6202 31.1749 25.5842 31.4564 25.6511 31.7287C25.8674 32.6227 28.599 32.3934 28.608 31.919C28.5643 31.227 28.3931 30.7266 28.1704 30.3096C27.5885 30.8673 26.5303 30.9664 25.6833 30.8947Z" fill="white"/>
<path d="M18.0059 3.54462C19.2301 4.31481 20.2394 4.724 20.1441 5.28698C20.4672 5.4603 20.8418 5.6219 21.21 5.55674C21.5897 5.48897 21.8652 5.23224 22.0892 4.93382C21.6644 3.35697 19.8287 3.15237 18.7461 2.89564C17.0726 2.50078 17.6673 1.35919 17.3635 1.39307C17.0597 1.42696 16.7559 2.76011 18.0046 3.54462H18.0059Z" fill="white"/>
<g opacity="0.35" style="mix-blend-mode:multiply">
<path d="M8.54484 19.781C8.81132 17.795 9.63777 17.7507 10.3638 16.9688C9.14473 17.5317 8.20757 18.2341 7.98486 19.2206C7.37726 21.9195 8.17024 24.0711 7.46222 25.7105C6.7542 27.3499 5.96766 28.6322 5.82863 29.925C5.72049 30.9258 5.72178 31.6087 6.17234 32.13C6.62289 32.6512 7.68492 32.5209 8.7315 32.0804C8.81132 31.8042 8.65169 31.5435 8.68258 31.3142C5.98954 31.8784 6.42722 30.8411 6.36543 30.3042C6.21096 28.9528 7.94496 26.452 8.44958 24.9064C8.88212 23.5811 8.80488 21.4791 8.54613 19.781H8.54484Z" fill="white"/>
</g>
<g opacity="0.3" style="mix-blend-mode:multiply">
<path d="M26.733 31.6179C26.4897 28.9099 25.5256 27.866 23.668 26.9277C24.6631 27.7227 25.214 28.2987 25.7058 29.0923C26.3057 29.8443 25.4329 30.836 25.6504 31.73C25.8667 32.6239 28.5984 32.3946 28.6074 31.9202C28.5868 31.6009 28.5404 31.3234 28.4735 31.0745C28.4091 31.9124 26.7665 31.9945 26.7343 31.6179H26.733Z" fill="white"/>
</g>
<g opacity="0.5" style="mix-blend-mode:multiply">
<path d="M15.8379 11.1606C16.4674 11.1202 16.8085 10.7305 17.2462 10.2536C17.6839 9.77529 18.6803 9.70752 18.6803 9.70752C18.6803 9.70752 17.8705 9.84435 17.5165 10.2197C17.1625 10.595 16.8072 11.1671 16.4712 11.2961C16.134 11.4238 15.9782 11.4212 15.9782 11.4212C15.8469 11.313 15.8379 11.1619 15.8379 11.1619V11.1606Z" fill="white"/>
</g>
<path d="M17.543 7.55851C17.7271 6.47687 18.641 7.07503 18.7929 6.50293C18.7981 7.56633 17.543 7.55851 17.543 7.55851Z" fill="white"/>
<g opacity="0.5" style="mix-blend-mode:multiply">
<path d="M15.3782 10.5871C15.4529 10.3786 16.0541 10.419 15.9639 10.5741C15.8751 10.7292 15.337 10.7005 15.3782 10.5871Z" fill="white"/>
</g>
<g opacity="0.5" style="mix-blend-mode:multiply">
<path d="M20.2495 10.1074C21.2871 9.49232 21.3875 8.46802 21.3875 8.46802C21.3875 10.9532 19.7539 11.984 19.7539 11.984C20.3255 11.004 20.2495 10.1074 20.2495 10.1074Z" fill="white"/>
</g>
<g style="mix-blend-mode:screen">
<path d="M16.0168 11.1267C14.9033 10.9481 14.9535 9.84565 15.4092 9.48728C15.8649 9.1289 17.4328 7.54032 17.6105 6.38831C17.716 5.70284 18.043 5.30406 18.6519 5.17505C17.9259 5.25976 17.5474 5.66895 17.4328 6.41698C17.2565 7.5703 15.6872 9.15757 15.2315 9.51595C14.7758 9.87432 14.7256 10.9768 15.8391 11.1553C15.8391 11.1553 16.1172 11.7952 16.4712 11.8473C16.542 11.8578 16.6128 11.8421 16.6862 11.8174C16.6733 11.8174 16.6604 11.82 16.6488 11.8174C16.2948 11.7665 16.0168 11.1254 16.0168 11.1254V11.1267Z" fill="white"/>
<path d="M8.191 19.2872C8.7986 16.5896 14.6816 16.011 17.17 14.6075C20.6701 12.6319 20.4268 10.0737 20.4268 10.0737C20.3805 10.148 20.3213 10.2145 20.2543 10.277C20.244 10.8622 19.9853 12.8704 17.0284 14.5384C14.5387 15.942 8.59392 16.518 7.98631 19.2169C7.37999 21.9144 8.19743 24.0777 7.46367 25.7067C6.52651 27.7827 6.28964 27.8283 6 29.0011C6.51492 27.6328 7.12768 26.8652 7.64132 25.6767C8.34933 24.0373 7.58467 21.9874 8.191 19.2885V19.2872Z" fill="white"/>
<path d="M18.1835 3.51083C17.0815 2.81754 17.1897 1.6981 17.4394 1.42313C17.4239 1.39837 17.4008 1.38404 17.366 1.38925C17.0622 1.42313 16.7597 2.75498 18.0071 3.5408C19.2094 4.29795 20.2058 4.70584 20.1479 5.25448C20.2058 5.26752 20.2573 5.27273 20.3178 5.28706C20.462 4.70715 19.4321 4.29665 18.1835 3.51213V3.51083Z" fill="white"/>
<path d="M26.3528 23.6893C26.2794 23.5773 26.2369 23.2515 26.2369 23.2515C26.6592 25.2297 25.4105 26.0077 26.9037 28.5932C27.4431 29.5836 28.3944 30.1961 28.5039 31.9385C28.5013 32.0831 28.1602 32.216 27.7958 32.2903C28.2503 32.2226 28.5978 32.087 28.6017 31.9189C28.491 30.1766 27.5796 29.6371 27.0402 28.6466C25.6357 26.2149 26.7403 25.416 26.3528 23.688V23.6893Z" fill="white"/>
</g>
<path d="M20.874 5.69614C21.7841 4.70573 23.5722 4.91033 23.876 3.64624C24.315 6.17441 22.375 7.09576 22.375 7.09576C21.4134 6.68656 20.874 5.69614 20.874 5.69614Z" fill="white"/>
<g opacity="0.5" style="mix-blend-mode:multiply">
<path d="M12.7471 23.7987C13.4976 22.5386 13.5195 21.3005 13.5195 21.3005C13.8838 22.4082 13.4332 23.3205 13.4332 23.3205C14.4206 23.2775 14.6317 23.3739 15.9216 23.8847C17.2127 24.3969 19.6766 24.1675 19.6766 24.1675C15.6216 24.5155 14.4206 23.4729 12.7471 23.7987Z" fill="white"/>
</g>
<g opacity="0.2" style="mix-blend-mode:multiply">
<path d="M7.89099 29.3921C7.6464 29.5302 7.46875 30.1453 7.46875 30.1453C7.54084 29.9368 7.80602 29.8221 7.80602 29.8221C7.83692 29.5055 7.89099 29.3934 7.89099 29.3934V29.3921Z" fill="white"/>
</g>
<g opacity="0.5" style="mix-blend-mode:multiply">
<path d="M8.35334 32.1536C8.26838 31.4837 7.96973 30.7031 7.96973 30.7031C8.46276 31.4081 8.48207 32.1327 8.48207 32.1327L8.35334 32.1536Z" fill="white"/>
</g>
<g opacity="0.5" style="mix-blend-mode:multiply">
<path d="M14.1857 32.1536C14.1007 31.4837 13.8008 30.7031 13.8008 30.7031C14.2938 31.4081 14.3144 32.1327 14.3144 32.1327L14.1857 32.1536Z" fill="white"/>
</g>
<g opacity="0.5" style="mix-blend-mode:multiply">
<path d="M27.7637 30.8425C28.0803 31.4446 28.0044 32.2643 28.0044 32.2643L28.1949 32.2031C28.2438 31.5345 27.7637 30.8425 27.7637 30.8425Z" fill="white"/>
</g>
<g opacity="0.5" style="mix-blend-mode:multiply">
<path d="M21.4211 23.74C21.3542 22.9008 21.5563 22.0707 21.5563 22.0707C19.8699 20.7492 19.5996 19.0408 19.5996 19.0408C19.6331 20.6111 21.2023 22.2635 21.2023 22.2635C20.8612 23.0077 20.9796 23.8899 20.9796 23.8899L21.4211 23.74Z" fill="white"/>
</g>
<g opacity="0.5" style="mix-blend-mode:multiply">
<path d="M26.2365 23.2515C27.081 20.2268 24.9209 18.5874 24.9209 18.5874C26.642 19.8854 27.0025 22.3002 27.0025 22.3002C27.0025 22.3002 26.4888 23.0417 26.2365 23.2515Z" fill="white"/>
</g>
<g opacity="0.5" style="mix-blend-mode:multiply">
<path d="M30.1 25.1931C29.8696 26.409 29.2414 27.0632 29.2414 27.0632L28.9453 26.8586C29.8258 26.1014 30.1 25.1931 30.1 25.1931Z" fill="white"/>
</g>
<path d="M23.6994 7.66939C23.6891 7.66939 23.6749 7.66679 23.6556 7.66809C23.6363 7.66809 23.6131 7.66809 23.5874 7.672C23.5745 7.672 23.5604 7.67591 23.5462 7.67982C23.5307 7.68242 23.5153 7.68633 23.4999 7.69155C23.4355 7.71109 23.3647 7.75019 23.3003 7.80492C23.236 7.85966 23.1755 7.92612 23.1175 7.98867C23.0596 8.05122 23.003 8.10987 22.945 8.15157C22.9167 8.17242 22.8884 8.18936 22.8613 8.20109C22.8343 8.21412 22.8073 8.22194 22.7828 8.22846C22.7584 8.23367 22.7352 8.23758 22.7146 8.23888C22.694 8.24149 22.6786 8.23888 22.6644 8.23888C22.6425 8.23758 22.6271 8.23628 22.6168 8.23628C22.6168 8.23628 22.6142 8.23628 22.6116 8.23628C22.609 8.23628 22.6065 8.23628 22.6065 8.23628C22.5975 8.23628 22.5807 8.23888 22.5588 8.24019C22.546 8.24019 22.5305 8.24149 22.5086 8.24019C22.488 8.24019 22.4649 8.23628 22.4404 8.22976C22.4159 8.22455 22.3889 8.21543 22.3619 8.2037C22.3348 8.19067 22.3065 8.17503 22.2769 8.15418C22.219 8.11378 22.1611 8.05513 22.1031 7.99258C22.0452 7.93003 21.9847 7.86357 21.919 7.81014C21.8534 7.75671 21.7826 7.71631 21.7182 7.69806C21.7028 7.69285 21.6873 7.68894 21.6719 7.68633C21.6577 7.68242 21.6436 7.67982 21.6294 7.67982C21.6037 7.67591 21.5805 7.67591 21.5612 7.67591C21.5431 7.67591 21.5277 7.67721 21.5174 7.67851C21.5071 7.67851 21.502 7.67851 21.502 7.67851C21.502 7.67851 21.5071 7.67851 21.5174 7.67982C21.5277 7.68112 21.5419 7.68242 21.5599 7.68633C21.5779 7.69024 21.5998 7.69415 21.6242 7.70328C21.6371 7.70588 21.6487 7.71109 21.6616 7.71761C21.6745 7.72282 21.6873 7.72934 21.7015 7.73716C21.7568 7.76583 21.8109 7.81274 21.8598 7.87139C21.9087 7.93133 21.9512 8.0017 21.9976 8.07598C22.0439 8.14896 22.0928 8.22585 22.1559 8.29231C22.1868 8.3262 22.2203 8.35487 22.2563 8.38093C22.2589 8.38354 22.2615 8.38484 22.2653 8.38614C22.089 8.50212 21.9705 8.70282 21.9718 8.93218C21.9718 9.28925 22.2615 9.57986 22.6142 9.57855C22.9669 9.57855 23.254 9.28664 23.2527 8.92827C23.2527 8.70021 23.1343 8.49952 22.9566 8.38354C22.9592 8.38223 22.9618 8.37963 22.9656 8.37832C23.0004 8.35226 23.0351 8.32229 23.0647 8.2884C23.1265 8.22194 23.1755 8.14505 23.2218 8.07077C23.2669 7.99649 23.3106 7.92612 23.3582 7.86617C23.4059 7.80753 23.4599 7.75931 23.5153 7.73064C23.5282 7.72282 23.5423 7.71631 23.5552 7.71109C23.5681 7.70458 23.581 7.70067 23.5925 7.69676C23.6157 7.68764 23.6389 7.68373 23.6569 7.67982C23.6749 7.67591 23.6891 7.6746 23.6994 7.6733C23.7097 7.672 23.7148 7.6707 23.7148 7.6707C23.7148 7.6707 23.7097 7.6707 23.6994 7.6707V7.66939ZM22.6129 9.33356C22.3928 9.33356 22.2125 9.15241 22.2125 8.92957C22.2125 8.70673 22.3915 8.52428 22.6116 8.52428C22.8317 8.52428 23.012 8.70542 23.0133 8.92827C23.0133 9.15111 22.8343 9.33356 22.6142 9.33356H22.6129Z" fill="white"/>
<defs>
<radialGradient id="paint0_radial_2901_1474" cx="0" cy="0" r="1" gradientUnits="userSpaceOnUse" gradientTransform="translate(9.52136 6.68934) scale(0.96548 0.977386)">
<stop offset="0.31" stop-color="white"/>
<stop offset="0.9" stop-color="white" stop-opacity="0"/>
</radialGradient>
<radialGradient id="paint1_radial_2901_1474" cx="0" cy="0" r="1" gradientUnits="userSpaceOnUse" gradientTransform="translate(12.6748 10.4034) scale(0.53552 0.542123)">
<stop offset="0.31" stop-color="white"/>
<stop offset="0.9" stop-color="white" stop-opacity="0"/>
</radialGradient>
<radialGradient id="paint2_radial_2901_1474" cx="0" cy="0" r="1" gradientUnits="userSpaceOnUse" gradientTransform="translate(28.3799 23.305) scale(0.53552 0.542124)">
<stop offset="0.31" stop-color="white"/>
<stop offset="0.9" stop-color="white" stop-opacity="0"/>
</radialGradient>
<radialGradient id="paint3_radial_2901_1474" cx="0" cy="0" r="1" gradientUnits="userSpaceOnUse" gradientTransform="translate(20.5924 25.5855) scale(0.334699 0.338827)">
<stop offset="0.31" stop-color="white"/>
<stop offset="0.9" stop-color="white" stop-opacity="0"/>
</radialGradient>
<radialGradient id="paint4_radial_2901_1474" cx="0" cy="0" r="1" gradientUnits="userSpaceOnUse" gradientTransform="translate(10.7779 14.438) scale(0.3347 0.338827)">
<stop offset="0.31" stop-color="white"/>
<stop offset="0.9" stop-color="white" stop-opacity="0"/>
</radialGradient>
<radialGradient id="paint5_radial_2901_1474" cx="0" cy="0" r="1" gradientUnits="userSpaceOnUse" gradientTransform="translate(24.6511 1.60302) scale(0.53552 0.542123)">
<stop offset="0.31" stop-color="white"/>
<stop offset="0.9" stop-color="white" stop-opacity="0"/>
</radialGradient>
<radialGradient id="paint6_radial_2901_1474" cx="0" cy="0" r="1" gradientUnits="userSpaceOnUse" gradientTransform="translate(29.2857 10.2927) scale(1.66706 1.68762)">
<stop stop-color="white"/>
<stop offset="0.03" stop-color="white" stop-opacity="0.96"/>
<stop offset="0.18" stop-color="white" stop-opacity="0.71"/>
<stop offset="0.34" stop-color="white" stop-opacity="0.49"/>
<stop offset="0.49" stop-color="white" stop-opacity="0.32"/>
<stop offset="0.64" stop-color="white" stop-opacity="0.18"/>
<stop offset="0.78" stop-color="white" stop-opacity="0.08"/>
<stop offset="0.9" stop-color="white" stop-opacity="0.02"/>
<stop offset="1" stop-color="white" stop-opacity="0"/>
</radialGradient>
<radialGradient id="paint7_radial_2901_1474" cx="0" cy="0" r="1" gradientUnits="userSpaceOnUse" gradientTransform="translate(4.63332 19.9362) scale(0.0643653 0.065159)">
<stop stop-color="white"/>
<stop offset="0.03" stop-color="white" stop-opacity="0.96"/>
<stop offset="0.18" stop-color="white" stop-opacity="0.71"/>
<stop offset="0.34" stop-color="white" stop-opacity="0.49"/>
<stop offset="0.49" stop-color="white" stop-opacity="0.32"/>
<stop offset="0.64" stop-color="white" stop-opacity="0.18"/>
<stop offset="0.78" stop-color="white" stop-opacity="0.08"/>
<stop offset="0.9" stop-color="white" stop-opacity="0.02"/>
<stop offset="1" stop-color="white" stop-opacity="0"/>
</radialGradient>
<radialGradient id="paint8_radial_2901_1474" cx="0" cy="0" r="1" gradientUnits="userSpaceOnUse" gradientTransform="translate(15.897 27.8855) scale(1.47397 1.49214)">
<stop stop-color="white"/>
<stop offset="0.03" stop-color="white" stop-opacity="0.96"/>
<stop offset="0.18" stop-color="white" stop-opacity="0.71"/>
<stop offset="0.34" stop-color="white" stop-opacity="0.49"/>
<stop offset="0.49" stop-color="white" stop-opacity="0.32"/>
<stop offset="0.64" stop-color="white" stop-opacity="0.18"/>
<stop offset="0.78" stop-color="white" stop-opacity="0.08"/>
<stop offset="0.9" stop-color="white" stop-opacity="0.02"/>
<stop offset="1" stop-color="white" stop-opacity="0"/>
</radialGradient>
</defs>
</svg>
