<svg width="38" height="34" viewBox="0 0 38 34" fill="none" xmlns="http://www.w3.org/2000/svg">
<g opacity="0.2">
<g opacity="0.5" style="mix-blend-mode:screen">
<path d="M32.2458 17.1629C32.2458 25.4602 25.6008 32.1886 17.4032 32.1886C9.20562 32.1886 2.56055 25.4615 2.56055 17.1629C2.56055 8.86423 9.20562 2.13721 17.4032 2.13721C25.6008 2.13721 32.2458 8.86423 32.2458 17.1629Z" stroke="#FC3DD3" stroke-width="1.22267" stroke-miterlimit="10"/>
</g>
<g opacity="0.5" style="mix-blend-mode:screen">
<path d="M31.5563 17.1631C31.5563 25.076 25.2202 31.4903 17.4036 31.4903C9.5871 31.4903 3.25098 25.076 3.25098 17.1631C3.25098 9.2502 9.5871 2.83594 17.4036 2.83594C25.2202 2.83594 31.5563 9.2515 31.5563 17.1631Z" stroke="#FC3DD3" stroke-width="0.63" stroke-miterlimit="10"/>
</g>
<g opacity="0.5" style="mix-blend-mode:screen">
<path d="M30.8107 17.163C30.8107 24.6589 24.808 30.7356 17.4034 30.7356C9.9988 30.7356 3.99609 24.6589 3.99609 17.163C3.99609 9.66707 9.9988 3.59033 17.4034 3.59033C24.808 3.59033 30.8107 9.66707 30.8107 17.163Z" fill="#FC3DD3"/>
</g>
</g>
<g style="mix-blend-mode:screen" opacity="0.9">
<path opacity="0.9" d="M9.52136 7.19092C9.52136 8.16309 8.60352 8.21392 8.60352 8.21392C8.60352 8.21392 9.52136 8.26604 9.52136 9.23822C9.52136 8.26604 10.4392 8.21392 10.4392 8.21392C10.4392 8.21392 9.52136 8.16309 9.52136 7.19092Z" fill="url(#paint0_radial_2562_734)" style="mix-blend-mode:screen"/>
<path opacity="0.9" d="M12.6748 11.3613C12.6748 11.9008 12.165 11.9282 12.165 11.9282C12.165 11.9282 12.6748 11.9569 12.6748 12.4964C12.6748 11.9569 13.1833 11.9282 13.1833 11.9282C13.1833 11.9282 12.6748 11.8995 12.6748 11.3613Z" fill="url(#paint1_radial_2562_734)" style="mix-blend-mode:screen"/>
<path opacity="0.9" d="M28.3799 24.2627C28.3799 24.8022 27.8701 24.8296 27.8701 24.8296C27.8701 24.8296 28.3799 24.8583 28.3799 25.3978C28.3799 24.8583 28.8884 24.8296 28.8884 24.8296C28.8884 24.8296 28.3799 24.8009 28.3799 24.2627Z" fill="url(#paint2_radial_2562_734)" style="mix-blend-mode:screen"/>
<path opacity="0.9" d="M20.5924 26.7554C20.5924 27.0916 20.2744 27.1098 20.2744 27.1098C20.2744 27.1098 20.5924 27.1281 20.5924 27.4643C20.5924 27.1281 20.9103 27.1098 20.9103 27.1098C20.9103 27.1098 20.5924 27.0916 20.5924 26.7554Z" fill="url(#paint3_radial_2562_734)" style="mix-blend-mode:screen"/>
<path opacity="0.9" d="M10.7779 15.6094C10.7779 15.9469 10.46 15.9638 10.46 15.9638C10.46 15.9638 10.7779 15.9821 10.7779 16.3183C10.7779 15.9821 11.0959 15.9638 11.0959 15.9638C11.0959 15.9638 10.7779 15.9456 10.7779 15.6094Z" fill="url(#paint4_radial_2562_734)" style="mix-blend-mode:screen"/>
<path opacity="0.9" d="M24.6511 2.56201C24.6511 3.10023 24.1426 3.1302 24.1426 3.1302C24.1426 3.1302 24.6511 3.15887 24.6511 3.69839C24.6511 3.15887 25.1596 3.1302 25.1596 3.1302C25.1596 3.1302 24.6511 3.10153 24.6511 2.56201Z" fill="url(#paint5_radial_2562_734)" style="mix-blend-mode:screen"/>
<path opacity="0.9" d="M29.2857 10.6963C29.2857 11.7597 28.2803 11.817 28.2803 11.817C28.2803 11.817 29.2857 11.8744 29.2857 12.9391C29.2857 11.8744 30.291 11.817 30.291 11.817C30.291 11.817 29.2857 11.7597 29.2857 10.6963Z" fill="url(#paint6_radial_2562_734)" style="mix-blend-mode:color-dodge"/>
<path opacity="0.9" d="M4.63332 20.3398C4.63332 21.4032 3.62793 21.4606 3.62793 21.4606C3.62793 21.4606 4.63332 21.5179 4.63332 22.5826C4.63332 21.5179 5.6387 21.4606 5.6387 21.4606C5.6387 21.4606 4.63332 21.4032 4.63332 20.3398Z" fill="url(#paint7_radial_2562_734)" style="mix-blend-mode:color-dodge"/>
<path opacity="0.9" d="M15.897 28.4199C15.897 29.3608 15.0088 29.4103 15.0088 29.4103C15.0088 29.4103 15.897 29.4612 15.897 30.4021C15.897 29.4612 16.7866 29.4103 16.7866 29.4103C16.7866 29.4103 15.897 29.3595 15.897 28.4199Z" fill="url(#paint8_radial_2562_734)" style="mix-blend-mode:color-dodge"/>
</g>
<g style="mix-blend-mode:screen" opacity="0.8">
<path d="M33.2302 15.3476C33.1285 14.7611 32.5763 14.3702 31.9983 14.4731C31.5709 14.5487 31.2503 14.8745 31.1512 15.2746L24.2847 14.4875C24.2371 14.2281 23.9925 14.0548 23.7338 14.1004C23.5716 14.1291 23.4506 14.2425 23.3888 14.3832L21.0948 14.1135C21.0935 14.1017 21.0948 14.0913 21.0922 14.0796C21.0356 13.7525 20.7279 13.5348 20.4061 13.5922C20.343 13.6039 20.2851 13.6274 20.231 13.656L19.3711 12.68C19.4174 12.5966 19.4406 12.5014 19.4239 12.3998C19.384 12.1665 19.1638 12.0114 18.9347 12.0518C18.8729 12.0623 18.8175 12.0883 18.7699 12.1222L17.6345 11.283C17.6538 11.2204 17.6615 11.1552 17.6499 11.0875C17.61 10.8542 17.3899 10.6991 17.1608 10.7395C17.0925 10.7513 17.0333 10.7838 16.9818 10.8242L14.2128 8.98153C14.2206 8.93592 14.2244 8.88901 14.2167 8.84209C14.1768 8.60882 13.9567 8.45374 13.7275 8.49545C13.6529 8.50848 13.5911 8.54627 13.5357 8.59188L8.87824 6.24355C8.93488 6.07674 8.95677 5.8956 8.92459 5.70924C8.82289 5.12281 8.27063 4.73186 7.69263 4.83481C7.11463 4.93776 6.72715 5.49552 6.82885 6.08195C6.93055 6.66838 7.4828 7.05934 8.0608 6.95639C8.35688 6.90426 8.60147 6.73094 8.75723 6.49767L13.389 8.83167C13.3787 8.88249 13.3761 8.93592 13.3851 8.99065C13.425 9.22392 13.6451 9.379 13.8743 9.3373C13.9554 9.32297 14.0223 9.27996 14.079 9.22783L16.8274 11.0588C16.8132 11.1148 16.8093 11.1748 16.8196 11.236C16.8595 11.4693 17.0797 11.6244 17.3088 11.584C17.3706 11.5736 17.426 11.5475 17.4749 11.5136L18.6103 12.3503C18.591 12.4128 18.582 12.4793 18.5935 12.5483C18.6335 12.7803 18.8536 12.9367 19.0827 12.895C19.1123 12.8898 19.1368 12.8741 19.1638 12.8624L20.0225 13.8398C19.9722 13.9141 19.9401 14.0001 19.9259 14.0913L18.9746 14.1734C18.8961 14.0001 18.7171 13.8919 18.524 13.9258C18.3605 13.9545 18.2382 14.0783 18.1945 14.2294L16.8158 14.3102C16.7411 14.1317 16.5583 14.017 16.3614 14.0522C16.2391 14.0744 16.1425 14.1473 16.0807 14.2464L8.17409 12.3946C8.1831 12.3007 8.18438 12.2043 8.16765 12.1053C8.06595 11.5188 7.5137 11.1279 6.9357 11.2308C6.35641 11.3338 5.97022 11.8915 6.07191 12.478C6.17361 13.0644 6.72587 13.4554 7.30387 13.3524C7.68748 13.2846 7.98356 13.0136 8.11101 12.6682L16.0176 14.5201C16.0176 14.5292 16.0151 14.537 16.0176 14.5461C16.0588 14.7794 16.2777 14.9345 16.5068 14.8941C16.6703 14.8641 16.7926 14.7416 16.8364 14.5904L18.2151 14.5109C18.291 14.6895 18.4725 14.8041 18.6708 14.769C18.8394 14.739 18.9656 14.6113 19.0055 14.4536L19.9491 14.3702C20.0405 14.6478 20.3185 14.825 20.612 14.7729C20.827 14.7351 20.9931 14.5813 21.0639 14.3884L23.3489 14.653C23.3489 14.653 23.3489 14.6569 23.3489 14.6582C23.3939 14.9214 23.6424 15.0961 23.9011 15.0504C24.0672 15.0205 24.1895 14.9045 24.25 14.7572L31.1242 15.5522C31.1242 15.6082 31.1268 15.6629 31.1358 15.719C31.2375 16.3041 31.7897 16.6964 32.3677 16.5934C32.947 16.4905 33.3332 15.9314 33.2315 15.3463L33.2302 15.3476Z" fill="#FC3DD3"/>
</g>
<path d="M21.0178 8.61507C20.5981 8.02082 20.015 7.65984 20.015 7.65984C19.7099 5.87708 17.7545 5.66597 16.6229 5.39882C14.9494 5.00265 15.5429 3.86236 15.2391 3.89625C14.9353 3.93013 14.6327 5.26198 15.8801 6.0478C17.1275 6.83362 18.1574 7.24282 18.0145 7.82404C17.7506 7.76148 17.9965 8.0547 17.7751 8.02864C18.9066 8.93956 19.7047 8.64765 21.0178 8.61637V8.61507Z" fill="url(#paint9_linear_2562_734)"/>
<g opacity="0.2" style="mix-blend-mode:multiply">
<path d="M20.0135 7.65999C19.9349 7.20127 19.7457 6.84681 19.4895 6.56923C18.815 6.12615 17.955 6.85984 17.0166 6.72692C17.6821 7.12439 18.1095 7.43585 18.013 7.8242C17.7491 7.76164 17.995 8.05486 17.7735 8.02879C18.9051 8.93972 19.7032 8.64781 21.0163 8.61653C20.5966 8.02228 20.0135 7.6613 20.0135 7.6613V7.65999Z" fill="#FC3DD3"/>
</g>
<path d="M9.66638 22.025C6.23056 20.9837 6.00528 20.5472 7.21664 17.8704C8.42799 15.1937 4.41675 15.0803 3.7216 15.9404C2.89773 17.8978 0.781395 15.4061 0 16.1424C1.32464 13.6833 3.49504 15.2914 4.40774 15.0947C5.32044 14.8979 7.99803 14.7428 8.00576 16.7601C8.01348 18.7775 6.53437 19.1645 7.20248 20.2852C7.87059 21.406 9.88265 21.2991 9.88265 21.2991L9.6651 22.025H9.66638Z" fill="url(#paint10_linear_2562_734)"/>
<path d="M4.26905 15.1924C5.18175 14.9957 7.85935 14.8406 7.86707 16.8592C7.8748 18.8765 6.39568 19.2636 7.06379 20.3843C7.73191 21.505 9.74397 21.3982 9.74397 21.3982L9.56503 21.995C9.59979 22.0055 9.6294 22.0159 9.66544 22.0263L9.88299 21.3004C9.88299 21.3004 7.87093 21.4073 7.20282 20.2866C6.53471 19.1658 8.01383 18.7788 8.0061 16.7615C7.99838 14.7441 5.31949 14.8992 4.40808 15.096C3.65501 15.2576 2.05102 14.2007 0.767578 15.1963C2.02528 14.374 3.54301 15.3488 4.26905 15.1937V15.1924Z" fill="#73E9FE"/>
<path d="M28.3378 17.7403C31.5471 17.3911 32.3864 19.3902 31.7943 21.04C31.2021 22.6898 30.5597 26.138 30.4117 26.9877C30.2637 27.8374 30.0654 29.0363 29.3252 28.6375C28.585 28.2388 27.6955 27.1884 27.8937 26.3387C28.0907 25.4878 29.3419 25.7054 29.6058 24.7384C29.8685 23.7715 30.4619 22.0721 29.9187 22.0721C29.3754 22.0721 27.7624 24.6446 26.972 23.2085C26.1816 21.7737 28.3378 17.7403 28.3378 17.7403Z" fill="url(#paint11_linear_2562_734)"/>
<path d="M28.7839 25.5542C28.3938 25.7393 27.9973 25.8904 27.893 26.3387C27.6961 27.1884 28.5843 28.2388 29.3245 28.6375C29.8897 28.9425 30.1381 28.3182 30.29 27.6276C29.5215 27.204 28.9383 26.5212 28.7826 25.5555L28.7839 25.5542Z" fill="url(#paint12_linear_2562_734)"/>
<g opacity="0.3" style="mix-blend-mode:multiply">
<path d="M28.4958 26.3973C28.6735 25.9633 29.8874 25.6662 29.8449 23.9004C29.76 24.2001 29.6711 24.4933 29.6042 24.7396C29.4793 25.1971 29.133 25.3886 28.7829 25.5554C28.3928 25.7405 27.9963 25.8917 27.8921 26.3399C27.6951 27.1896 28.5834 28.24 29.3236 28.6388C29.6428 28.8121 29.9067 28.4876 30.0638 28.2204C29.0622 27.9363 28.3156 26.8325 28.4932 26.3973H28.4958ZM28.9065 26.0402C28.8846 25.9777 28.864 25.9138 28.8473 25.8473C28.8653 25.9138 28.8859 25.9764 28.9065 26.0402Z" fill="#5F39FF"/>
</g>
<g opacity="0.5" style="mix-blend-mode:multiply">
<path d="M30.2701 17.8653C29.7565 17.7115 29.1192 17.6568 28.3378 17.7415C28.3378 17.7415 26.1816 21.7748 26.972 23.2096C27.6981 24.5297 29.1192 22.4655 29.7655 22.1228C28.6017 20.6958 28.8528 18.7892 30.2701 17.8666V17.8653Z" fill="#5F39FF"/>
</g>
<path d="M15.2045 24.7995C14.445 26.491 13.6172 26.3529 13.0585 28.507C12.6402 30.123 15.5031 32.0165 14.9251 33.1985C14.3999 34.2736 12.4986 33.9074 12.4689 33.4487C12.4046 32.4713 12.523 31.8679 12.2707 31.1512C12.0171 30.4344 9.68965 28.1291 10.4994 26.13C11.3091 24.1323 13.3842 23.8247 13.3842 23.8247L15.2058 24.7982L15.2045 24.7995Z" fill="url(#paint13_linear_2562_734)"/>
<path d="M12.4443 32.5807C12.4456 32.8414 12.4469 33.1242 12.4688 33.4486C12.4984 33.9074 14.3998 34.2736 14.925 33.1984C15.0936 32.8544 14.9687 32.4491 14.719 32.0073C14.0651 32.5247 13.2528 32.6485 12.4443 32.5794V32.5807Z" fill="url(#paint14_linear_2562_734)"/>
<g opacity="0.5" style="mix-blend-mode:multiply">
<path d="M13.0123 26.4651C13.3457 26.4651 13.9533 25.9113 14.6098 25.9438C14.8132 25.6011 15.0115 25.2284 15.2046 24.7996L13.383 23.8262C13.383 23.8262 11.3079 24.1337 10.4982 26.1315C9.96396 27.4516 10.7968 28.9034 11.4984 29.9446C11.3336 28.558 12.043 27.1193 13.0123 26.4664V26.4651Z" fill="#5F39FF"/>
</g>
<path d="M20.1387 6.84698C18.3931 6.43648 17.6078 6.79486 17.4315 7.94817C17.2538 9.10149 15.6859 10.6888 15.2302 11.0471C14.7745 11.4055 14.7243 12.5067 15.8378 12.6865C15.8378 12.6865 16.1159 13.3264 16.4699 13.3785C16.8239 13.4294 17.1573 12.9576 18.1575 12.5823C18.6789 12.3855 19.8581 12.2565 20.2494 11.6336C20.2494 11.6336 20.5275 14.0927 17.026 16.0683C14.5376 17.4718 8.59155 18.0491 7.98523 20.7467C7.37762 23.4456 8.17061 25.5972 7.46259 27.2366C6.75457 28.876 5.96802 29.5497 5.80711 31.7547C5.72344 32.0453 5.78136 33.1295 6.04269 33.4918C6.26925 33.8059 8.55937 33.6977 8.70999 33.5948C8.86189 33.4931 8.67652 32.3085 8.09465 31.9502C7.51279 31.5918 8.05217 30.4593 8.19893 30.1257C8.43193 29.5966 9.66388 28.7522 10.6873 27.9755C11.6309 27.2587 12.5629 26.0911 12.7689 25.3261C13.9918 24.8478 17.5808 26.684 21.3938 25.2505C22.5575 28.068 24.7691 29.1079 25.705 30.6183C26.3049 31.3702 25.4321 32.362 25.6497 33.256C25.8659 34.1499 28.5976 33.9206 28.6066 33.4462C28.4972 31.7039 27.5858 31.1643 27.0464 30.1739C25.5286 27.5441 26.9447 26.8274 26.2367 24.7775C26.2367 24.7775 29.6094 21.2941 28.6143 17.2633C27.6205 13.2339 23.7728 9.40773 23.5037 8.38343C23.2347 7.35913 22.1392 6.68278 22.1392 6.68278C21.8341 4.90003 19.8774 4.68892 18.7458 4.42176C17.0723 4.0269 17.6671 2.88531 17.3633 2.9192C17.0595 2.95308 16.7557 4.28623 18.0043 5.07075C19.253 5.85657 20.2816 6.26576 20.1387 6.84698Z" fill="url(#paint15_linear_2562_734)"/>
<path d="M5.81738 32.8076C5.87016 33.0761 6.01434 33.5739 6.13921 33.6873C6.91288 34.3923 8.55935 33.6977 8.70996 33.5947C8.81809 33.5231 8.75502 32.9054 8.50142 32.4258C7.80627 32.6916 6.53055 32.9549 5.81738 32.8089V32.8076Z" fill="url(#paint16_linear_2562_734)"/>
<path d="M25.6833 32.4206C25.6202 32.7008 25.5842 32.9822 25.6511 33.2546C25.8674 34.1486 28.599 33.9192 28.608 33.4449C28.5643 32.7529 28.3931 32.2525 28.1704 31.8354C27.5885 32.3932 26.5303 32.4923 25.6833 32.4206Z" fill="url(#paint17_linear_2562_734)"/>
<path d="M18.0059 5.07075C19.2301 5.84093 20.2394 6.25013 20.1441 6.8131C20.4672 6.98642 20.8418 7.14802 21.21 7.08286C21.5897 7.01509 21.8652 6.75837 22.0892 6.45994C21.6644 4.88309 19.8287 4.67849 18.7461 4.42176C17.0726 4.0269 17.6673 2.88531 17.3635 2.9192C17.0597 2.95308 16.7559 4.28623 18.0046 5.07075H18.0059Z" fill="url(#paint18_linear_2562_734)"/>
<g opacity="0.35" style="mix-blend-mode:multiply">
<path d="M8.54484 21.3069C8.81132 19.3208 9.63777 19.2765 10.3638 18.4946C9.14473 19.0576 8.20757 19.76 7.98486 20.7465C7.37726 23.4454 8.17024 25.597 7.46222 27.2364C6.7542 28.8758 5.96766 30.1581 5.82863 31.4509C5.72049 32.4517 5.72178 33.1346 6.17234 33.6558C6.62289 34.1771 7.68492 34.0468 8.7315 33.6063C8.81132 33.33 8.65169 33.0694 8.68258 32.84C5.98954 33.4043 6.42722 32.367 6.36543 31.8301C6.21096 30.4787 7.94496 27.9779 8.44958 26.4323C8.88212 25.107 8.80488 23.0049 8.54613 21.3069H8.54484Z" fill="#5F39FF"/>
</g>
<g opacity="0.3" style="mix-blend-mode:multiply">
<path d="M26.733 33.1438C26.4897 30.4358 25.5256 29.3919 23.668 28.4536C24.6631 29.2486 25.214 29.8246 25.7058 30.6182C26.3057 31.3701 25.4329 32.3619 25.6504 33.2558C25.8667 34.1498 28.5984 33.9205 28.6074 33.4461C28.5868 33.1268 28.5404 32.8492 28.4735 32.6003C28.4091 33.4383 26.7665 33.5204 26.7343 33.1438H26.733Z" fill="#5F39FF"/>
</g>
<g opacity="0.5" style="mix-blend-mode:multiply">
<path d="M15.8379 12.6864C16.4674 12.646 16.8085 12.2564 17.2462 11.7794C17.6839 11.3012 18.6803 11.2334 18.6803 11.2334C18.6803 11.2334 17.8705 11.3702 17.5165 11.7455C17.1625 12.1209 16.8072 12.693 16.4712 12.822C16.134 12.9497 15.9782 12.9471 15.9782 12.9471C15.8469 12.8389 15.8379 12.6877 15.8379 12.6877V12.6864Z" fill="#5F39FF"/>
</g>
<path d="M17.543 9.08439C17.7271 8.00274 18.641 8.60091 18.7929 8.02881C18.7981 9.0922 17.543 9.08439 17.543 9.08439Z" fill="url(#paint19_linear_2562_734)"/>
<g opacity="0.5" style="mix-blend-mode:multiply">
<path d="M15.3782 12.1128C15.4529 11.9043 16.0541 11.9447 15.9639 12.0997C15.8751 12.2548 15.337 12.2262 15.3782 12.1128Z" fill="#5F39FF"/>
</g>
<g opacity="0.5" style="mix-blend-mode:multiply">
<path d="M20.2495 11.6335C21.2871 11.0184 21.3875 9.99414 21.3875 9.99414C21.3875 12.4793 19.7539 13.5101 19.7539 13.5101C20.3255 12.5301 20.2495 11.6335 20.2495 11.6335Z" fill="#5F39FF"/>
</g>
<g style="mix-blend-mode:screen">
<path d="M16.0168 12.6523C14.9033 12.4738 14.9535 11.3713 15.4092 11.0129C15.8649 10.6545 17.4328 9.06596 17.6105 7.91395C17.716 7.22847 18.043 6.8297 18.6519 6.70068C17.9259 6.78539 17.5474 7.19459 17.4328 7.94262C17.2565 9.09593 15.6872 10.6832 15.2315 11.0416C14.7758 11.4 14.7256 12.5024 15.8391 12.681C15.8391 12.681 16.1172 13.3208 16.4712 13.373C16.542 13.3834 16.6128 13.3678 16.6862 13.343C16.6733 13.343 16.6604 13.3456 16.6488 13.343C16.2948 13.2922 16.0168 12.651 16.0168 12.651V12.6523Z" fill="#73E9FE"/>
<path d="M8.191 20.8131C8.7986 18.1155 14.6816 17.5369 17.17 16.1334C20.6701 14.1578 20.4268 11.5996 20.4268 11.5996C20.3805 11.6739 20.3213 11.7404 20.2543 11.8029C20.244 12.388 19.9853 14.3962 17.0284 16.0643C14.5387 17.4678 8.59392 18.0438 7.98631 20.7427C7.37999 23.4403 8.19743 25.6036 7.46367 27.2326C6.52651 29.3085 6.28964 29.3542 6 30.527C6.51492 29.1587 7.12768 28.3911 7.64132 27.2026C8.34933 25.5632 7.58467 23.5133 8.191 20.8144V20.8131Z" fill="#73E9FE"/>
<path d="M18.1835 5.03671C17.0815 4.34341 17.1897 3.22398 17.4394 2.94901C17.4239 2.92425 17.4008 2.90992 17.366 2.91513C17.0622 2.94901 16.7597 4.28086 18.0071 5.06668C19.2094 5.82383 20.2058 6.23172 20.1479 6.78036C20.2058 6.79339 20.2573 6.79861 20.3178 6.81294C20.462 6.23303 19.4321 5.82253 18.1835 5.03801V5.03671Z" fill="#73E9FE"/>
<path d="M26.3528 25.2152C26.2794 25.1031 26.2369 24.7773 26.2369 24.7773C26.6592 26.7556 25.4105 27.5336 26.9037 30.1191C27.4431 31.1095 28.3944 31.722 28.5039 33.4644C28.5013 33.609 28.1602 33.7419 27.7958 33.8162C28.2503 33.7484 28.5978 33.6129 28.6017 33.4448C28.491 31.7025 27.5796 31.1629 27.0402 30.1725C25.6357 27.7408 26.7403 26.9419 26.3528 25.2139V25.2152Z" fill="#73E9FE"/>
</g>
<path d="M20.874 7.22227C21.7841 6.23185 23.5722 6.43645 23.876 5.17236C24.315 7.70054 22.375 8.62189 22.375 8.62189C21.4134 8.21269 20.874 7.22227 20.874 7.22227Z" fill="url(#paint20_linear_2562_734)"/>
<g opacity="0.5" style="mix-blend-mode:multiply">
<path d="M12.7471 25.3249C13.4976 24.0647 13.5195 22.8267 13.5195 22.8267C13.8838 23.9344 13.4332 24.8466 13.4332 24.8466C14.4206 24.8036 14.6317 24.9 15.9216 25.4109C17.2127 25.923 19.6766 25.6937 19.6766 25.6937C15.6216 26.0416 14.4206 24.9991 12.7471 25.3249Z" fill="#5F39FF"/>
</g>
<g opacity="0.2" style="mix-blend-mode:multiply">
<path d="M7.89099 30.918C7.6464 31.0561 7.46875 31.6712 7.46875 31.6712C7.54084 31.4627 7.80602 31.348 7.80602 31.348C7.83692 31.0313 7.89099 30.9193 7.89099 30.9193V30.918Z" fill="#5F39FF"/>
</g>
<g opacity="0.5" style="mix-blend-mode:multiply">
<path d="M8.35334 33.6794C8.26838 33.0096 7.96973 32.229 7.96973 32.229C8.46276 32.934 8.48207 33.6586 8.48207 33.6586L8.35334 33.6794Z" fill="#5F39FF"/>
</g>
<g opacity="0.5" style="mix-blend-mode:multiply">
<path d="M14.1857 33.6794C14.1007 33.0096 13.8008 32.229 13.8008 32.229C14.2938 32.934 14.3144 33.6586 14.3144 33.6586L14.1857 33.6794Z" fill="#5F39FF"/>
</g>
<g opacity="0.5" style="mix-blend-mode:multiply">
<path d="M27.7637 32.3682C28.0803 32.9702 28.0044 33.7899 28.0044 33.7899L28.1949 33.7287C28.2438 33.0602 27.7637 32.3682 27.7637 32.3682Z" fill="#5F39FF"/>
</g>
<g opacity="0.5" style="mix-blend-mode:multiply">
<path d="M21.4211 25.2662C21.3542 24.4269 21.5563 23.5968 21.5563 23.5968C19.8699 22.2754 19.5996 20.5669 19.5996 20.5669C19.6331 22.1372 21.2023 23.7897 21.2023 23.7897C20.8612 24.5338 20.9796 25.416 20.9796 25.416L21.4211 25.2662Z" fill="#5F39FF"/>
</g>
<g opacity="0.5" style="mix-blend-mode:multiply">
<path d="M26.2365 24.7774C27.081 21.7527 24.9209 20.1133 24.9209 20.1133C26.642 21.4112 27.0025 23.826 27.0025 23.826C27.0025 23.826 26.4888 24.5676 26.2365 24.7774Z" fill="#5F39FF"/>
</g>
<g opacity="0.5" style="mix-blend-mode:multiply">
<path d="M30.1 26.7192C29.8696 27.9351 29.2414 28.5893 29.2414 28.5893L28.9453 28.3847C29.8258 27.6276 30.1 26.7192 30.1 26.7192Z" fill="#5F39FF"/>
</g>
<path d="M23.6994 9.19503C23.6891 9.19503 23.6749 9.19242 23.6556 9.19372C23.6363 9.19372 23.6131 9.19372 23.5874 9.19763C23.5745 9.19763 23.5604 9.20154 23.5462 9.20545C23.5307 9.20806 23.5153 9.21197 23.4999 9.21718C23.4355 9.23673 23.3647 9.27582 23.3003 9.33056C23.236 9.38529 23.1755 9.45175 23.1175 9.51431C23.0596 9.57686 23.003 9.6355 22.945 9.6772C22.9167 9.69806 22.8884 9.715 22.8613 9.72673C22.8343 9.73976 22.8073 9.74758 22.7828 9.75409C22.7584 9.7593 22.7352 9.76321 22.7146 9.76452C22.694 9.76712 22.6786 9.76452 22.6644 9.76452C22.6425 9.76321 22.6271 9.76191 22.6168 9.76191C22.6168 9.76191 22.6142 9.76191 22.6116 9.76191C22.609 9.76191 22.6065 9.76191 22.6065 9.76191C22.5975 9.76191 22.5807 9.76452 22.5588 9.76582C22.546 9.76582 22.5305 9.76712 22.5086 9.76582C22.488 9.76582 22.4649 9.76191 22.4404 9.7554C22.4159 9.75018 22.3889 9.74106 22.3619 9.72933C22.3348 9.7163 22.3065 9.70066 22.2769 9.67981C22.219 9.63941 22.1611 9.58077 22.1031 9.51822C22.0452 9.45566 21.9847 9.3892 21.919 9.33577C21.8534 9.28234 21.7826 9.24194 21.7182 9.2237C21.7028 9.21848 21.6873 9.21458 21.6719 9.21197C21.6577 9.20806 21.6436 9.20545 21.6294 9.20545C21.6037 9.20154 21.5805 9.20154 21.5612 9.20154C21.5431 9.20154 21.5277 9.20285 21.5174 9.20415C21.5071 9.20415 21.502 9.20415 21.502 9.20415C21.502 9.20415 21.5071 9.20415 21.5174 9.20545C21.5277 9.20676 21.5419 9.20806 21.5599 9.21197C21.5779 9.21588 21.5998 9.21979 21.6242 9.22891C21.6371 9.23152 21.6487 9.23673 21.6616 9.24324C21.6745 9.24846 21.6873 9.25497 21.7015 9.26279C21.7568 9.29146 21.8109 9.33838 21.8598 9.39702C21.9087 9.45697 21.9512 9.52734 21.9976 9.60162C22.0439 9.6746 22.0928 9.75149 22.1559 9.81795C22.1868 9.85183 22.2203 9.8805 22.2563 9.90656C22.2589 9.90917 22.2615 9.91047 22.2653 9.91178C22.089 10.0278 21.9705 10.2284 21.9718 10.4578C21.9718 10.8149 22.2615 11.1055 22.6142 11.1042C22.9669 11.1042 23.254 10.8123 23.2527 10.4539C23.2527 10.2258 23.1343 10.0252 22.9566 9.90917C22.9592 9.90787 22.9618 9.90526 22.9656 9.90396C23.0004 9.87789 23.0351 9.84792 23.0647 9.81404C23.1265 9.74758 23.1755 9.67069 23.2218 9.59641C23.2669 9.52213 23.3106 9.45175 23.3582 9.39181C23.4059 9.33316 23.4599 9.28495 23.5153 9.25628C23.5282 9.24846 23.5423 9.24194 23.5552 9.23673C23.5681 9.23021 23.581 9.2263 23.5925 9.22239C23.6157 9.21327 23.6389 9.20936 23.6569 9.20545C23.6749 9.20154 23.6891 9.20024 23.6994 9.19894C23.7097 9.19763 23.7148 9.19633 23.7148 9.19633C23.7148 9.19633 23.7097 9.19633 23.6994 9.19633V9.19503ZM22.6129 10.8592C22.3928 10.8592 22.2125 10.678 22.2125 10.4552C22.2125 10.2324 22.3915 10.0499 22.6116 10.0499C22.8317 10.0499 23.012 10.2311 23.0133 10.4539C23.0133 10.6767 22.8343 10.8592 22.6142 10.8592H22.6129Z" fill="url(#paint21_linear_2562_734)"/>
<defs>
<radialGradient id="paint0_radial_2562_734" cx="0" cy="0" r="1" gradientUnits="userSpaceOnUse" gradientTransform="translate(9.52136 8.21522) scale(0.96548 0.977386)">
<stop offset="0.31" stop-color="white"/>
<stop offset="0.9" stop-color="white" stop-opacity="0"/>
</radialGradient>
<radialGradient id="paint1_radial_2562_734" cx="0" cy="0" r="1" gradientUnits="userSpaceOnUse" gradientTransform="translate(12.6748 11.9295) scale(0.53552 0.542123)">
<stop offset="0.31" stop-color="white"/>
<stop offset="0.9" stop-color="white" stop-opacity="0"/>
</radialGradient>
<radialGradient id="paint2_radial_2562_734" cx="0" cy="0" r="1" gradientUnits="userSpaceOnUse" gradientTransform="translate(28.3799 24.8309) scale(0.53552 0.542124)">
<stop offset="0.31" stop-color="white"/>
<stop offset="0.9" stop-color="white" stop-opacity="0"/>
</radialGradient>
<radialGradient id="paint3_radial_2562_734" cx="0" cy="0" r="1" gradientUnits="userSpaceOnUse" gradientTransform="translate(20.5924 27.1111) scale(0.334699 0.338827)">
<stop offset="0.31" stop-color="white"/>
<stop offset="0.9" stop-color="white" stop-opacity="0"/>
</radialGradient>
<radialGradient id="paint4_radial_2562_734" cx="0" cy="0" r="1" gradientUnits="userSpaceOnUse" gradientTransform="translate(10.7779 15.9638) scale(0.3347 0.338827)">
<stop offset="0.31" stop-color="white"/>
<stop offset="0.9" stop-color="white" stop-opacity="0"/>
</radialGradient>
<radialGradient id="paint5_radial_2562_734" cx="0" cy="0" r="1" gradientUnits="userSpaceOnUse" gradientTransform="translate(24.6511 3.1289) scale(0.53552 0.542123)">
<stop offset="0.31" stop-color="white"/>
<stop offset="0.9" stop-color="white" stop-opacity="0"/>
</radialGradient>
<radialGradient id="paint6_radial_2562_734" cx="0" cy="0" r="1" gradientUnits="userSpaceOnUse" gradientTransform="translate(29.2857 11.8183) scale(1.66706 1.68762)">
<stop stop-color="white"/>
<stop offset="0.03" stop-color="white" stop-opacity="0.96"/>
<stop offset="0.18" stop-color="white" stop-opacity="0.71"/>
<stop offset="0.34" stop-color="white" stop-opacity="0.49"/>
<stop offset="0.49" stop-color="white" stop-opacity="0.32"/>
<stop offset="0.64" stop-color="white" stop-opacity="0.18"/>
<stop offset="0.78" stop-color="white" stop-opacity="0.08"/>
<stop offset="0.9" stop-color="white" stop-opacity="0.02"/>
<stop offset="1" stop-color="white" stop-opacity="0"/>
</radialGradient>
<radialGradient id="paint7_radial_2562_734" cx="0" cy="0" r="1" gradientUnits="userSpaceOnUse" gradientTransform="translate(4.63332 21.4619) scale(0.0643653 0.065159)">
<stop stop-color="white"/>
<stop offset="0.03" stop-color="white" stop-opacity="0.96"/>
<stop offset="0.18" stop-color="white" stop-opacity="0.71"/>
<stop offset="0.34" stop-color="white" stop-opacity="0.49"/>
<stop offset="0.49" stop-color="white" stop-opacity="0.32"/>
<stop offset="0.64" stop-color="white" stop-opacity="0.18"/>
<stop offset="0.78" stop-color="white" stop-opacity="0.08"/>
<stop offset="0.9" stop-color="white" stop-opacity="0.02"/>
<stop offset="1" stop-color="white" stop-opacity="0"/>
</radialGradient>
<radialGradient id="paint8_radial_2562_734" cx="0" cy="0" r="1" gradientUnits="userSpaceOnUse" gradientTransform="translate(15.897 29.4116) scale(1.47397 1.49214)">
<stop stop-color="white"/>
<stop offset="0.03" stop-color="white" stop-opacity="0.96"/>
<stop offset="0.18" stop-color="white" stop-opacity="0.71"/>
<stop offset="0.34" stop-color="white" stop-opacity="0.49"/>
<stop offset="0.49" stop-color="white" stop-opacity="0.32"/>
<stop offset="0.64" stop-color="white" stop-opacity="0.18"/>
<stop offset="0.78" stop-color="white" stop-opacity="0.08"/>
<stop offset="0.9" stop-color="white" stop-opacity="0.02"/>
<stop offset="1" stop-color="white" stop-opacity="0"/>
</radialGradient>
<linearGradient id="paint9_linear_2562_734" x1="15.2223" y1="5.02871" x2="18.9825" y2="7.43662" gradientUnits="userSpaceOnUse">
<stop stop-color="#FFE98D"/>
<stop offset="0.13" stop-color="#FEE38F"/>
<stop offset="0.28" stop-color="#FED495"/>
<stop offset="0.45" stop-color="#FEBB9F"/>
<stop offset="0.64" stop-color="#FD99AD"/>
<stop offset="0.82" stop-color="#FC6DBF"/>
<stop offset="1" stop-color="#FC3DD3"/>
</linearGradient>
<linearGradient id="paint10_linear_2562_734" x1="0.391341" y1="13.6351" x2="9.40461" y2="19.528" gradientUnits="userSpaceOnUse">
<stop stop-color="#FFE98D"/>
<stop offset="0.14" stop-color="#F9E991"/>
<stop offset="0.32" stop-color="#EAE99D"/>
<stop offset="0.51" stop-color="#D1E9B1"/>
<stop offset="0.72" stop-color="#AFE9CD"/>
<stop offset="0.93" stop-color="#83E9F0"/>
<stop offset="1" stop-color="#73E9FE"/>
</linearGradient>
<linearGradient id="paint11_linear_2562_734" x1="29.0047" y1="20.1929" x2="32.0853" y2="30.2195" gradientUnits="userSpaceOnUse">
<stop stop-color="#5F39FF"/>
<stop offset="0.11" stop-color="#614FFE"/>
<stop offset="0.91" stop-color="#73E9FE"/>
</linearGradient>
<linearGradient id="paint12_linear_2562_734" x1="30.9697" y1="27.247" x2="27.4216" y2="27.0308" gradientUnits="userSpaceOnUse">
<stop stop-color="#FFE98D"/>
<stop offset="0.13" stop-color="#FEE38F"/>
<stop offset="0.28" stop-color="#FED495"/>
<stop offset="0.45" stop-color="#FEBB9F"/>
<stop offset="0.64" stop-color="#FD99AD"/>
<stop offset="0.82" stop-color="#FC6DBF"/>
<stop offset="1" stop-color="#FC3DD3"/>
</linearGradient>
<linearGradient id="paint13_linear_2562_734" x1="12.7406" y1="25.9684" x2="15.1662" y2="36.1643" gradientUnits="userSpaceOnUse">
<stop stop-color="#5F39FF"/>
<stop offset="0.11" stop-color="#614FFE"/>
<stop offset="0.91" stop-color="#73E9FE"/>
</linearGradient>
<linearGradient id="paint14_linear_2562_734" x1="14.8928" y1="31.3662" x2="13.0634" y2="33.6457" gradientUnits="userSpaceOnUse">
<stop stop-color="#FFE98D"/>
<stop offset="0.13" stop-color="#FEE38F"/>
<stop offset="0.28" stop-color="#FED495"/>
<stop offset="0.45" stop-color="#FEBB9F"/>
<stop offset="0.64" stop-color="#FD99AD"/>
<stop offset="0.82" stop-color="#FC6DBF"/>
<stop offset="1" stop-color="#FC3DD3"/>
</linearGradient>
<linearGradient id="paint15_linear_2562_734" x1="17.1676" y1="33.3967" x2="17.9961" y2="9.77072" gradientUnits="userSpaceOnUse">
<stop offset="0.03" stop-color="#73E9FE"/>
<stop offset="0.18" stop-color="#5F39FF"/>
<stop offset="0.27" stop-color="#614FFE"/>
<stop offset="0.91" stop-color="#73E9FE"/>
</linearGradient>
<linearGradient id="paint16_linear_2562_734" x1="8.7975" y1="32.2642" x2="6.29165" y2="33.7578" gradientUnits="userSpaceOnUse">
<stop stop-color="#FFE98D"/>
<stop offset="0.13" stop-color="#FEE38F"/>
<stop offset="0.28" stop-color="#FED495"/>
<stop offset="0.45" stop-color="#FEBB9F"/>
<stop offset="0.64" stop-color="#FD99AD"/>
<stop offset="0.82" stop-color="#FC6DBF"/>
<stop offset="1" stop-color="#FC3DD3"/>
</linearGradient>
<linearGradient id="paint17_linear_2562_734" x1="28.7329" y1="31.7077" x2="25.4197" y2="34.2747" gradientUnits="userSpaceOnUse">
<stop stop-color="#FFE98D"/>
<stop offset="0.13" stop-color="#FEE38F"/>
<stop offset="0.28" stop-color="#FED495"/>
<stop offset="0.45" stop-color="#FEBB9F"/>
<stop offset="0.64" stop-color="#FD99AD"/>
<stop offset="0.82" stop-color="#FC6DBF"/>
<stop offset="1" stop-color="#FC3DD3"/>
</linearGradient>
<linearGradient id="paint18_linear_2562_734" x1="17.8308" y1="3.05473" x2="21.1602" y2="6.92399" gradientUnits="userSpaceOnUse">
<stop stop-color="#FFE98D"/>
<stop offset="0.14" stop-color="#F9E991"/>
<stop offset="0.32" stop-color="#EAE99D"/>
<stop offset="0.51" stop-color="#D1E9B1"/>
<stop offset="0.72" stop-color="#AFE9CD"/>
<stop offset="0.93" stop-color="#83E9F0"/>
<stop offset="1" stop-color="#73E9FE"/>
</linearGradient>
<linearGradient id="paint19_linear_2562_734" x1="18.7365" y1="8.62227" x2="17.5978" y2="8.50663" gradientUnits="userSpaceOnUse">
<stop stop-color="#5F39FF"/>
<stop offset="0.1" stop-color="#614FFE"/>
<stop offset="0.8" stop-color="#73E9FE"/>
</linearGradient>
<linearGradient id="paint20_linear_2562_734" x1="24.0665" y1="6.31265" x2="21.7999" y2="7.69654" gradientUnits="userSpaceOnUse">
<stop stop-color="#5F39FF"/>
<stop offset="0.1" stop-color="#614FFE"/>
<stop offset="0.8" stop-color="#73E9FE"/>
</linearGradient>
<linearGradient id="paint21_linear_2562_734" x1="21.5045" y1="10.1477" x2="23.7148" y2="10.1477" gradientUnits="userSpaceOnUse">
<stop stop-color="#FFE98D"/>
<stop offset="0.13" stop-color="#FEE38F"/>
<stop offset="0.28" stop-color="#FED495"/>
<stop offset="0.45" stop-color="#FEBB9F"/>
<stop offset="0.64" stop-color="#FD99AD"/>
<stop offset="0.82" stop-color="#FC6DBF"/>
<stop offset="1" stop-color="#FC3DD3"/>
</linearGradient>
</defs>
</svg>
